<svg width="50" height="50" viewBox="0 0 50 50" fill="none" xmlns="http://www.w3.org/2000/svg">
<g clip-path="url(#clip0_8560_43180)">
<mask id="mask0_8560_43180" style="mask-type:luminance" maskUnits="userSpaceOnUse" x="12" y="7" width="37" height="36">
<path d="M48.2752 7.00684H12.6641V42.618H48.2752V7.00684Z" fill="white"/>
</mask>
<g mask="url(#mask0_8560_43180)">
<path d="M31.0751 9.58887C28.479 9.94038 26.0057 10.9114 23.8638 12.42C23.2584 12.8651 22.6887 13.3458 22.0833 13.8266C21.9052 13.6842 21.9942 13.5061 21.9764 13.328C21.9584 12.9941 21.814 12.6796 21.5727 12.4481C21.3313 12.2167 21.011 12.0857 20.6766 12.0816C20.3441 12.0621 20.0173 12.1746 19.7673 12.3946C19.5172 12.6147 19.3641 12.9245 19.3412 13.2568C19.3057 13.6239 19.3057 13.9936 19.3412 14.3608C19.3412 15.3579 19.3412 16.3728 19.3412 17.3699C19.3245 17.5785 19.3558 17.7881 19.4326 17.9828C19.5094 18.1774 19.6298 18.3519 19.7845 18.4928C19.9392 18.6338 20.1241 18.7374 20.325 18.7959C20.5259 18.8543 20.7376 18.866 20.9437 18.83C22.0477 18.83 23.1516 18.6875 24.2377 18.6163L24.8966 18.4917C25.2242 18.4374 25.5193 18.2614 25.7228 17.9988C25.9262 17.7363 26.023 17.4065 25.9938 17.0757C25.9645 16.7448 25.8114 16.4372 25.565 16.2144C25.3186 15.9917 24.9972 15.8702 24.6651 15.8742C24.4398 15.9502 24.1959 15.9502 23.9707 15.8742C24.3706 15.3296 24.8801 14.8748 25.4663 14.5388C27.3438 13.1497 29.5769 12.322 31.9062 12.1518C34.2355 11.9816 36.5652 12.4759 38.6247 13.5773C40.7228 14.5365 42.4984 16.0826 43.737 18.029C44.9756 19.9753 45.6242 22.2386 45.6044 24.5456C45.6953 27.2997 44.8708 30.0063 43.26 32.2421C41.6492 34.4779 39.3429 36.1168 36.7017 36.9026C36.3935 36.9747 36.0948 37.0823 35.8114 37.2231C35.5342 37.3314 35.3074 37.5393 35.1756 37.8062C35.0439 38.073 35.0166 38.3795 35.0992 38.6654C35.1595 38.9711 35.3308 39.2438 35.5799 39.431C35.8279 39.6094 36.1296 39.6974 36.4346 39.6803C37.0481 39.6168 37.6484 39.4607 38.2151 39.2174C40.8003 38.2895 43.0875 36.6818 44.836 34.5636C46.5844 32.4454 47.7295 29.8949 48.1506 27.1808L48.2575 26.6822V22.854C48.2575 22.676 48.1685 22.4801 48.1328 22.3021C47.7739 20.1361 46.9517 18.0732 45.7226 16.254C44.4934 14.4348 42.8862 12.9024 41.0106 11.7611C39.0444 10.6076 36.863 9.8684 34.6006 9.58887H31.0751Z" fill="#008071"/>
<path d="M31.3955 40.0899C31.7419 40.1305 32.0904 40.034 32.3666 39.8211C32.6427 39.6081 32.8246 39.2956 32.8734 38.9503C32.9065 38.7811 32.9041 38.607 32.8664 38.4388C32.8287 38.2706 32.7566 38.112 32.6545 37.9732C32.5524 37.8343 32.4226 37.7181 32.2734 37.6319C32.1241 37.5457 31.9586 37.4914 31.7873 37.4724C30.986 37.2944 30.1492 37.1519 29.3301 37.0095C29.0022 36.9584 28.6669 37.028 28.3864 37.2054C28.1052 37.3946 27.9041 37.6814 27.8219 38.0102C27.7397 38.339 27.7822 38.6866 27.9413 38.9859C28.0196 39.1314 28.126 39.2598 28.2544 39.3637C28.3828 39.4676 28.5305 39.545 28.6891 39.5913C29.5711 39.8528 30.4783 40.0199 31.3955 40.0899Z" fill="#008071"/>
<path d="M24.5405 37.4192C24.8061 37.4221 25.0666 37.3457 25.2887 37.1998C25.5107 37.0539 25.6841 36.8451 25.7869 36.6001C25.9067 36.3815 25.9491 36.1288 25.9071 35.8831C25.865 35.6374 25.7411 35.4132 25.5554 35.2469C24.883 34.5806 24.1758 33.9506 23.4365 33.3595C23.2117 33.1599 22.9171 33.0573 22.6169 33.074C22.3168 33.0907 22.0354 33.2253 21.834 33.4485C21.5958 33.6112 21.4308 33.8607 21.3742 34.1436C21.3177 34.4264 21.374 34.7202 21.5313 34.962C22.2025 35.9553 23.1074 36.7685 24.1666 37.3301C24.2839 37.3847 24.4111 37.4149 24.5405 37.4192Z" fill="#008071"/>
</g>
<path d="M3.4052 22.1953V29.0327H1.5V22.1953H3.4052Z" fill="#008071"/>
<path d="M10.8301 29.0327H8.87151L6.39653 25.2045V29.0327H4.49133V22.1953H6.39653L8.87151 26.0591V22.1953H10.8301V29.0327Z" fill="#008071"/>
<path d="M12.1121 23.8337C12.3734 23.3109 12.7901 22.8817 13.3051 22.6051C13.8473 22.2981 14.4627 22.1442 15.0856 22.16C15.8597 22.135 16.6193 22.3735 17.2401 22.8366C17.8288 23.3057 18.2325 23.968 18.3797 24.7062H16.3142C16.2188 24.4599 16.0432 24.2529 15.8157 24.1186C15.6019 23.9484 15.3406 23.8488 15.0678 23.8337C14.8647 23.826 14.6626 23.8654 14.4773 23.9488C14.292 24.0322 14.1284 24.1574 13.9995 24.3145C13.7445 24.6834 13.6079 25.1213 13.6079 25.5698C13.6079 26.0182 13.7445 26.4561 13.9995 26.8251C14.1284 26.9822 14.292 27.1073 14.4773 27.1907C14.6626 27.2741 14.8647 27.3135 15.0678 27.3058C15.3329 27.3115 15.5936 27.237 15.8157 27.0921C16.0432 26.9579 16.2188 26.7509 16.3142 26.5046H18.3797C18.2203 27.2133 17.817 27.8435 17.2401 28.2851C16.6527 28.8318 15.8876 29.1479 15.0856 29.1754C14.4627 29.1912 13.8473 29.0373 13.3051 28.7302C12.7825 28.4148 12.3669 27.9495 12.1121 27.3948C11.8264 26.8451 11.6796 26.2338 11.6848 25.6143C11.6767 24.9944 11.8236 24.3824 12.1121 23.8337Z" fill="#008071"/>
<path d="M21.1752 27.5726H23.2941V29.0327H19.27V22.1953H21.1752V27.5726Z" fill="#008071"/>
<path d="M25.8937 22.1953V26.166C25.8786 26.4735 25.9733 26.7764 26.1607 27.0206C26.2614 27.125 26.3837 27.2062 26.519 27.2585C26.6543 27.3108 26.7994 27.3329 26.9442 27.3233C27.0906 27.3332 27.2373 27.3095 27.3731 27.2539C27.5089 27.1984 27.6301 27.1125 27.7276 27.0028C27.9183 26.7671 28.0136 26.4685 27.9947 26.166V22.1953H29.8999V26.166C29.9184 26.7259 29.7829 27.2802 29.5082 27.7685C29.2567 28.2042 28.8776 28.5522 28.422 28.7656C27.9514 28.9965 27.4327 29.1125 26.9086 29.1039C26.3895 29.1182 25.8752 29.0019 25.4129 28.7656C24.9724 28.55 24.611 28.2011 24.3802 27.7685C24.1174 27.2762 23.9885 26.7236 24.0063 26.166V22.1953H25.8937Z" fill="#008071"/>
<path d="M35.5799 22.6226C36.1048 22.8957 36.5381 23.3166 36.8263 23.8334C37.1105 24.3839 37.2588 24.9944 37.2588 25.6139C37.2588 26.2335 37.1105 26.844 36.8263 27.3945C36.5317 27.9125 36.0923 28.3333 35.5621 28.6053C34.9886 28.9148 34.3439 29.0683 33.6925 29.0504H30.9504V22.1953H33.6569C34.3235 22.1747 34.9847 22.3216 35.5799 22.6226ZM34.8499 26.8959C35.0158 26.7282 35.1445 26.5273 35.2273 26.3063C35.3102 26.0854 35.3454 25.8494 35.3306 25.6139C35.3592 25.3732 35.3329 25.1291 35.2535 24.9001C35.1742 24.671 35.0439 24.4629 34.8725 24.2915C34.7011 24.1201 34.493 23.9898 34.2639 23.9105C34.0349 23.8311 33.7908 23.8047 33.5501 23.8334H32.8912V27.3945H33.5501C34.0208 27.402 34.4753 27.2227 34.8143 26.8959H34.8499Z" fill="#008071"/>
<path d="M39.9778 23.7088V24.8305H42.1679V26.2728H39.9778V27.5192H42.4528V29.0327H38.0726V22.1953H42.4528V23.7088H39.9778Z" fill="#008071"/>
</g>
<defs>
<clipPath id="clip0_8560_43180">
<rect width="46.7575" height="30.59" fill="white" transform="translate(1.5 9.5)"/>
</clipPath>
</defs>
</svg>
