<svg width="50" height="50" viewBox="0 0 50 50" fill="none" xmlns="http://www.w3.org/2000/svg">
<g clip-path="url(#clip0_8564_43531)">
<mask id="mask0_8564_43531" style="mask-type:luminance" maskUnits="userSpaceOnUse" x="7" y="7" width="37" height="36">
<path d="M43.1112 7.00684H7.5V42.618H43.1112V7.00684Z" fill="white"/>
</mask>
<g mask="url(#mask0_8564_43531)">
<path d="M24.7002 9.5C27.2926 9.87658 29.7616 10.852 31.9115 12.3489C32.499 12.794 33.0688 13.2926 33.692 13.7555C33.8523 13.6131 33.781 13.435 33.7989 13.2748C33.8123 12.9407 33.9522 12.6243 34.1902 12.3896C34.4283 12.1548 34.7467 12.0194 35.0809 12.0106C35.4152 11.9909 35.744 12.1028 35.9969 12.3224C36.2498 12.542 36.4067 12.8519 36.4341 13.1858C36.4692 13.5529 36.4692 13.9226 36.4341 14.2897C36.4341 15.2868 36.4341 16.3017 36.3272 17.2988C36.3477 17.5083 36.3189 17.7197 36.2433 17.9161C36.1677 18.1125 36.0474 18.2886 35.8918 18.4303C35.7362 18.5721 35.5497 18.6756 35.3471 18.7326C35.1445 18.7897 34.9314 18.7987 34.7247 18.7589L31.4307 18.5452H30.7897C30.4598 18.4854 30.1627 18.3081 29.9533 18.0463C29.7438 17.7845 29.6362 17.4558 29.6502 17.1208C29.6937 16.7841 29.859 16.475 30.1149 16.2519C30.3708 16.0288 30.6995 15.9072 31.039 15.91C31.2642 15.986 31.5082 15.986 31.7334 15.91C31.3267 15.3649 30.8114 14.9102 30.2199 14.5746C28.3461 13.1851 26.1158 12.3569 23.7892 12.1867C21.4626 12.0164 19.1356 12.5111 17.0794 13.6131C14.9995 14.5812 13.2412 16.126 12.0134 18.0639C10.7856 20.0019 10.1399 22.2516 10.153 24.5457C10.0622 27.2999 10.8867 30.0064 12.4975 32.2422C14.1083 34.478 16.4146 36.117 19.0558 36.9028C19.372 36.9918 19.6767 37.1173 19.9639 37.2767C20.2386 37.3882 20.4629 37.5967 20.5941 37.8625C20.7254 38.1283 20.7546 38.4331 20.6761 38.719C20.6157 39.0247 20.4445 39.2974 20.1954 39.4846C19.9419 39.6656 19.6338 39.7537 19.3229 39.7339C18.7091 39.672 18.1085 39.5159 17.5424 39.2709C14.9534 38.3361 12.6651 36.7192 10.9194 34.5911C9.17364 32.4629 8.03528 29.9027 7.62464 27.181C7.62464 27.0029 7.62464 26.8426 7.5 26.6824V22.8542C7.5 22.6761 7.60683 22.4803 7.64244 22.3022C7.99689 20.1348 8.81718 18.0699 10.0468 16.2501C11.2764 14.4304 12.886 12.8989 14.7647 11.7613C16.7227 10.5738 18.905 9.80392 21.1747 9.5H24.7002Z" fill="#EC0C24"/>
<path d="M24.3797 40.0903C24.0333 40.1309 23.6848 40.0345 23.4086 39.8215C23.1325 39.6086 22.9506 39.2961 22.9018 38.9508C22.8687 38.7816 22.8711 38.6074 22.9088 38.4392C22.9465 38.271 23.0187 38.1125 23.1207 37.9736C23.2228 37.8347 23.3526 37.7185 23.5018 37.6323C23.6511 37.5461 23.8166 37.4919 23.9879 37.4729L26.4273 37.01C26.761 36.9561 27.1028 37.0257 27.3888 37.2058C27.6696 37.3914 27.8675 37.6786 27.9408 38.0071C27.987 38.1644 27.9998 38.3296 27.9783 38.4921C27.9568 38.6546 27.9016 38.8109 27.8161 38.9508C27.7395 39.0974 27.6336 39.2268 27.5049 39.3309C27.3763 39.4351 27.2277 39.5117 27.0683 39.5562C26.1963 39.8398 25.2938 40.0191 24.3797 40.0903Z" fill="#EC0C24"/>
<path d="M31.217 37.4192C30.9519 37.4198 30.6924 37.3425 30.4708 37.1969C30.2492 37.0513 30.0753 36.8438 29.9706 36.6001C29.8539 36.3808 29.8133 36.1289 29.8552 35.884C29.8971 35.6391 30.0191 35.415 30.2021 35.2469C30.8965 34.5881 31.5909 33.9471 32.3388 33.3595C32.5521 33.1486 32.84 33.0303 33.14 33.0303C33.44 33.0303 33.7279 33.1486 33.9413 33.3595C34.1729 33.5278 34.3315 33.7783 34.3845 34.0597C34.4374 34.341 34.3808 34.632 34.2262 34.873C33.5659 35.8848 32.659 36.712 31.5909 37.2768C31.48 37.3544 31.3515 37.4034 31.217 37.4192Z" fill="#EC0C24"/>
</g>
<path d="M16.4027 29.1755C16.0915 28.9395 15.8383 28.6356 15.6624 28.2869C15.4865 27.9382 15.3926 27.554 15.3878 27.1634H17.8806C17.8918 27.4071 17.9861 27.6396 18.1477 27.8222C18.3153 27.9531 18.5227 28.0222 18.7353 28.0181C18.9261 28.0246 19.1137 27.9683 19.2694 27.8579C19.3394 27.8074 19.3956 27.7402 19.4329 27.6625C19.4702 27.5847 19.4875 27.4989 19.4831 27.4127C19.4844 27.2936 19.4515 27.1767 19.3884 27.0757C19.3253 26.9747 19.2346 26.894 19.127 26.8429C18.7688 26.6529 18.3932 26.4979 18.0052 26.38C17.546 26.2395 17.0993 26.0608 16.6698 25.8458C16.3224 25.664 16.0186 25.4088 15.7795 25.098C15.5163 24.7172 15.3849 24.2607 15.4056 23.7982C15.3938 23.3038 15.537 22.8182 15.8152 22.4093C16.0916 22.007 16.4823 21.6969 16.9369 21.5191C17.4326 21.3362 17.9577 21.2457 18.486 21.252C19.3257 21.2086 20.155 21.4536 20.8363 21.9464C21.1197 22.1766 21.3483 22.467 21.5053 22.7965C21.6624 23.1261 21.7441 23.4865 21.7444 23.8516H19.216C19.2203 23.743 19.202 23.6346 19.1621 23.5335C19.1223 23.4323 19.0618 23.3405 18.9845 23.264C18.8309 23.1173 18.6272 23.0346 18.4148 23.0325C18.2598 23.0268 18.108 23.0774 17.9874 23.175C17.9313 23.234 17.8881 23.3041 17.8605 23.3807C17.8329 23.4573 17.8216 23.5389 17.8272 23.6201C17.8243 23.6974 17.8388 23.7743 17.8697 23.8451C17.9005 23.916 17.9468 23.9791 18.0052 24.0297C18.1377 24.1606 18.2951 24.2635 18.4682 24.3324C18.7337 24.4574 19.0074 24.5644 19.2872 24.6529C19.7393 24.8046 20.1796 24.9891 20.6049 25.2048C20.9517 25.3876 21.2552 25.6426 21.4951 25.9527C21.7556 26.3079 21.8874 26.7412 21.869 27.1812C21.8737 27.6584 21.7441 28.1274 21.4951 28.5345C21.2298 28.9456 20.8531 29.2729 20.409 29.4782C19.8846 29.7185 19.3118 29.8343 18.7353 29.8165C17.9101 29.8494 17.0951 29.6255 16.4027 29.1755Z" fill="#EC0C24"/>
<path d="M27.9586 29.7982L25.3056 26.0947V29.7982H22.973V21.3584H25.3056V24.9195L27.9408 21.3584H30.6472L27.5491 25.4537L30.8075 29.7982H27.9586Z" fill="#EC0C24"/>
<path d="M33.9948 21.3584V29.7982H31.6622V21.3584H33.9948Z" fill="#EC0C24"/>
<path d="M41.6511 25.5609C41.4019 25.9965 41.0305 26.3493 40.5827 26.5758C40.03 26.848 39.4177 26.9766 38.8022 26.9497H37.7695V29.7986H35.3479V21.3588H38.909C39.5221 21.3377 40.1317 21.4596 40.6896 21.7149C41.1367 21.934 41.5086 22.281 41.7579 22.712C41.9982 23.1607 42.1207 23.6631 42.114 24.1721C42.0841 24.6676 41.9245 25.1465 41.6511 25.5609ZM39.55 24.1721C39.55 23.5489 39.2295 23.2462 38.5707 23.2462H37.7695V25.0267H38.7132C39.2829 25.0801 39.55 24.8131 39.55 24.1721Z" fill="#EC0C24"/>
</g>
<defs>
<clipPath id="clip0_8564_43531">
<rect width="34.5072" height="30.59" fill="white" transform="translate(7.5 9.5)"/>
</clipPath>
</defs>
</svg>
