<svg width="62" height="62" viewBox="0 0 62 62" fill="none" xmlns="http://www.w3.org/2000/svg">
<g clip-path="url(#clip0_3291_29304)">
<path d="M3.93164 32.8633C3.93164 24.7757 3.93164 16.6881 3.93164 8.60052C3.93164 6.83706 5.14782 5.62088 6.85048 5.68169C9.0396 5.7425 11.2895 5.68169 13.5395 5.68169C14.3908 5.68169 14.4516 5.7425 14.4516 6.59382C14.4516 7.32353 14.4516 8.11405 14.4516 8.84376C14.4516 9.63428 14.33 9.75589 13.4787 9.8167C12.0192 9.8167 10.6206 9.8167 9.16122 9.8167C8.18828 9.8167 8.06666 9.99913 8.06666 10.9113C8.06666 25.5054 8.06666 40.0996 8.06666 54.6938C8.06666 55.7884 8.12747 55.91 9.22203 55.91C15.8502 55.91 22.4784 55.91 29.1674 55.8492C29.8363 55.8492 30.0795 56.0924 29.7755 56.7005C29.3498 57.6126 29.3498 58.464 29.7147 59.3761C29.8971 59.8626 29.7147 60.045 29.2282 60.045C28.6809 60.045 28.1945 60.045 27.6472 60.045C20.7758 60.045 13.9043 60.045 6.97209 60.045C4.90459 60.045 3.93164 59.0721 3.93164 57.0046C3.93164 48.9778 3.93164 40.8901 3.93164 32.8633Z" fill="#070910"/>
<path d="M45.2212 61.0788C41.7551 61.0788 38.2281 61.0788 34.762 61.0788C33.0594 61.0788 31.904 59.9234 31.7216 58.464C31.5391 57.4303 32.0864 56.5789 32.6337 55.7884C34.3972 53.1128 36.2823 50.498 38.1065 47.8832C39.1403 46.4238 40.2348 45.086 41.2686 43.6266C41.5118 43.2618 41.6943 42.7753 41.6943 42.3496C41.7551 38.9443 41.6943 35.5998 41.7551 32.1945C41.7551 31.6472 41.5726 31.2824 41.147 30.9783C40.2957 30.2486 40.0524 29.2757 40.4173 28.3027C40.7213 27.5122 41.5726 26.9041 42.6064 26.9041C44.4307 26.9041 46.2549 26.9041 48.0792 26.9041C49.113 26.9041 49.9035 27.4514 50.2075 28.2419C50.5724 29.2149 50.3292 30.1878 49.5994 30.8567C49.113 31.2824 48.9305 31.708 48.9914 32.3161C49.0522 35.3566 49.0522 38.4578 48.9914 41.4983C48.9914 42.5929 49.2954 43.4442 49.9643 44.3563C52.1534 47.2752 54.3426 50.2548 56.4709 53.2953C57.3222 54.5722 58.0519 55.91 58.7816 57.2478C59.4505 58.464 58.2343 60.7748 56.5317 60.9572C56.0452 61.018 55.6195 61.018 55.1331 61.018C51.7278 61.0788 48.4441 61.0788 45.2212 61.0788ZM45.2212 59.5586C48.6873 59.5586 52.1534 59.5586 55.5587 59.5586C56.8357 59.5586 57.5654 58.3424 56.9573 57.187C56.6533 56.6398 56.3493 56.0925 55.9844 55.5452C53.3088 51.8358 50.5724 48.1265 47.8968 44.4171C47.5927 43.9915 47.2887 43.3834 47.2887 42.8361C47.2279 38.7619 47.2887 34.7485 47.2279 30.6743C47.2279 30.127 47.3495 29.8229 47.9576 29.8229C48.3833 29.8229 48.6873 29.5797 48.6873 29.0932C48.6873 28.6068 48.3225 28.3635 47.8968 28.3635C46.0725 28.3635 44.3091 28.3635 42.4848 28.4243C42.2415 28.4243 41.8159 28.85 41.7551 29.0932C41.6335 29.5189 41.9983 29.7621 42.424 29.8229C43.0321 29.8838 43.1537 30.1878 43.1537 30.7351C43.1537 34.7485 43.1537 38.7619 43.0929 42.7145C43.0929 43.2009 42.9104 43.809 42.6064 44.2347C41.6335 45.6333 40.5389 47.0319 39.5051 48.4305C37.4984 51.2277 35.5525 54.0858 33.6067 56.883C33.181 57.4303 33.0594 58.0384 33.3634 58.6465C33.6675 59.2545 34.2756 59.437 35.0053 59.437C38.4106 59.5586 41.8159 59.5586 45.2212 59.5586Z" fill="black"/>
<path d="M25.6408 11.0328C22.6612 11.0328 19.6815 11.0328 16.7627 11.0328C16.1546 11.0328 15.9114 10.8504 15.9114 10.2423C15.9114 8.90452 15.9114 7.50591 15.9114 6.16811C15.9722 5.01274 16.6411 4.34384 17.7965 4.34384C19.0126 4.34384 20.2288 4.28303 21.445 4.34384C21.749 4.34384 22.2355 4.64789 22.3571 4.89112C23.8166 7.3843 27.5259 7.32349 28.9853 4.89112C29.1678 4.58708 29.6542 4.34384 30.0799 4.28303C31.2353 4.22222 32.4514 4.22222 33.6676 4.28303C34.7014 4.28303 35.4919 4.95193 35.4919 6.0465C35.5527 7.44511 35.4919 8.84371 35.4919 10.2423C35.4919 10.8504 35.1879 10.972 34.6406 10.972C31.6001 11.0328 28.6205 11.0328 25.6408 11.0328Z" fill="black"/>
<path d="M47.4101 16.0801C47.4101 18.6341 47.4101 21.1881 47.4101 23.7421C47.4101 24.6542 47.2885 24.7758 46.3156 24.7758C45.5859 24.7758 44.8561 24.7758 44.1264 24.7758C43.3359 24.7758 43.2143 24.6542 43.2143 23.8637C43.2143 19.7287 43.2143 15.6545 43.2143 11.5195C43.2143 9.45194 43.0927 9.75599 41.4508 9.75599C40.2347 9.75599 39.0185 9.75599 37.7415 9.75599C36.951 9.75599 36.8293 9.57356 36.8293 8.78304C36.8293 7.99253 36.8293 7.1412 36.8293 6.35068C36.8293 5.86421 37.0726 5.62097 37.5591 5.62097C40.0522 5.62097 42.5454 5.62097 44.9778 5.62097C46.3764 5.62097 47.2885 6.77634 47.2885 8.29657C47.4101 10.9722 47.3493 13.5262 47.4101 16.0801Z" fill="black"/>
<path d="M31.6606 19.1813C31.6606 22.2826 29.1066 25.1406 25.6405 25.1406C22.296 25.1406 19.6812 22.465 19.6204 19.2421C19.5596 15.8368 22.296 13.1612 25.6405 13.1004C28.985 13.1004 31.6606 15.776 31.6606 19.1813ZM24.2419 21.9177C24.2419 22.1001 24.2419 22.2218 24.2419 22.4042C24.2419 23.4988 24.3635 23.6204 25.458 23.6204C26.9175 23.6204 26.9783 23.5596 26.9783 22.1001C26.9783 20.5191 26.7959 20.5191 28.5593 20.5191C30.0795 20.5191 30.2012 20.3975 30.1403 18.8773C30.1403 18.8165 30.1403 18.7556 30.1403 18.6948C30.0795 18.0867 29.7755 17.7827 29.1674 17.7827C28.6809 17.7827 28.1945 17.7827 27.708 17.7827C27.2215 17.7827 26.9175 17.5395 26.9175 16.9922C26.9175 16.8098 26.9175 16.5665 26.9175 16.3841C26.9175 14.6206 26.735 14.4382 24.9716 14.6206C24.4851 14.6814 24.1811 14.9247 24.1811 15.4111C24.1811 15.8976 24.1203 16.4449 24.1811 16.9314C24.2419 17.5395 23.9378 17.7827 23.3905 17.7827C22.9041 17.7827 22.4784 17.7827 21.9919 17.7827C21.3838 17.7827 21.0798 18.1476 21.019 18.6948C20.8366 20.2151 21.1406 20.5799 22.6608 20.5799H22.7216C24.2419 20.5191 24.2419 20.5191 24.2419 21.9177Z" fill="black"/>
<path d="M25.9448 50.0115C23.6949 50.0115 21.445 50.0115 19.1342 50.0115C18.891 50.0115 18.6477 50.0115 18.4045 50.0115C17.8572 49.9507 17.4316 49.4642 17.4924 48.9777C17.5532 48.3697 17.918 48.1264 18.4653 48.1264C18.7694 48.0656 19.0126 48.1264 19.3166 48.1264C24.1814 48.1264 29.1069 48.1264 33.9716 48.1264C34.1541 48.1264 34.3973 48.1264 34.5797 48.1872C34.8838 48.248 35.0054 48.4913 34.823 48.7953C34.2757 49.5858 33.7284 50.2547 32.573 50.1939C30.3839 49.9507 28.134 50.0115 25.9448 50.0115Z" fill="black"/>
<path d="M38.1673 37.2417H18.5259C17.9786 37.2417 17.553 36.816 17.553 36.2687C17.553 35.7214 17.9786 35.2958 18.5259 35.2958H38.1673C38.7145 35.2958 39.1402 35.7214 39.1402 36.2687C39.201 36.7552 38.7145 37.2417 38.1673 37.2417Z" fill="black"/>
<path d="M38.1673 43.6874H18.5259C17.9786 43.6874 17.553 43.2617 17.553 42.7144C17.553 42.1672 17.9786 41.7415 18.5259 41.7415H38.1673C38.7145 41.7415 39.1402 42.1672 39.1402 42.7144C39.201 43.2617 38.7145 43.6874 38.1673 43.6874Z" fill="black"/>
<path d="M37.5594 30.9175H18.5262C17.9789 30.9175 17.4924 30.4918 17.4924 29.9445C17.4924 29.3972 17.9181 28.9716 18.5262 28.9716H37.5594C38.1067 28.9108 38.1067 30.9175 37.5594 30.9175Z" fill="black"/>
<path d="M28.3161 3.06693C28.3161 4.52635 27.0999 5.68172 25.5797 5.68172C24.0594 5.68172 22.9041 4.46554 22.9041 3.00612C22.9041 1.4859 24.1202 0.269714 25.5797 0.269714C27.1607 0.269714 28.3769 1.4859 28.3161 3.06693ZM24.6675 3.00612C24.6675 3.49259 25.2148 4.03988 25.7013 4.03988C26.1269 4.03988 26.735 3.43179 26.6742 2.94531C26.6742 2.45884 26.0661 1.91156 25.6405 1.97237C25.0932 1.97237 24.6067 2.51965 24.6675 3.00612Z" fill="black"/>
<path d="M12.0801 29.823C12.0801 27.8771 11.8977 28.0595 13.8436 28.0595C15.4855 28.0595 15.5463 27.6338 15.5463 29.823C15.5463 31.8905 15.6679 31.6472 13.722 31.6472C11.7153 31.708 12.0801 31.6472 12.0801 29.823Z" fill="black"/>
<path d="M15.5462 36.2687C15.5462 38.0929 15.7287 38.0321 13.7828 38.0321C11.6545 38.0321 12.0801 38.0321 12.0193 36.3295C12.0193 34.2012 11.8977 34.5052 13.8436 34.5052C15.4246 34.5052 15.5462 34.1404 15.4854 36.2079C15.5462 36.2079 15.5462 36.2687 15.5462 36.2687Z" fill="black"/>
<path d="M15.5465 42.5928C15.5465 42.8969 15.5465 43.1401 15.5465 43.4442C15.5465 44.2347 15.4856 44.3563 14.6951 44.3563C14.0262 44.3563 13.3573 44.3563 12.6884 44.3563C12.202 44.3563 12.0195 44.1131 12.0195 43.6874C12.0195 43.0185 12.0195 42.3496 12.0195 41.6199C12.0195 41.0118 12.2628 40.8294 12.8709 40.8294C13.4789 40.8294 14.1478 40.8294 14.7559 40.8294C15.3032 40.8294 15.4856 41.0726 15.4856 41.5591C15.5465 41.9239 15.5465 42.2888 15.5465 42.5928Z" fill="black"/>
<path d="M13.8438 47.2751C15.6073 47.3359 15.5465 46.9102 15.5465 48.9777C15.5465 51.106 15.7897 50.802 13.6614 50.802C11.7155 50.802 12.0803 50.6804 12.0195 49.221C12.0195 49.1601 12.0195 49.1601 12.0195 49.0993C12.0803 47.0318 11.8371 47.2751 13.8438 47.2751Z" fill="black"/>
<path d="M45.1605 58.8288C41.9376 58.8288 38.7147 58.8288 35.4919 58.8288C35.2486 58.8288 35.0662 58.8288 34.823 58.8288C34.1541 58.768 33.9108 58.4031 34.2757 57.795C35.0054 56.6397 35.7351 55.5451 36.5256 54.3897C37.8026 52.6263 39.0796 50.8628 40.4174 49.0385C40.7822 48.4912 41.2687 48.248 41.9376 48.248C44.1267 48.3088 46.3159 48.3088 48.505 48.3088C49.1739 48.3088 49.5996 48.5521 50.0252 49.0385C51.9711 51.7749 53.917 54.4505 55.8629 57.1869C55.9845 57.3086 56.0453 57.491 56.1061 57.6126C56.5318 58.4639 56.3494 58.8288 55.3764 58.8288C53.0657 58.8288 50.8157 58.8288 48.505 58.8288C47.4104 58.8288 46.2551 58.8288 45.1605 58.8288Z" fill="black"/>
</g>
<defs>
<clipPath id="clip0_3291_29304">
<rect width="60.8091" height="60.8091" fill="white" transform="translate(0.952393 0.269714)"/>
</clipPath>
</defs>
</svg>
