<svg width="61" height="62" viewBox="0 0 61 62" fill="none" xmlns="http://www.w3.org/2000/svg">
<path d="M5.1449 13.4981H12.2483V14.8194C12.2483 15.4786 12.2483 16.1378 12.2483 16.7971C12.2483 17.6211 12.6438 18.0057 13.4596 18.0057H31.9377C32.8222 18.0057 33.1875 17.6349 33.1875 16.7421C33.1875 15.7643 33.1875 14.7864 33.1875 13.8085C33.1875 13.7124 33.1875 13.619 33.204 13.5009H40.2854V21.0629C40.1068 20.8624 39.9585 20.6976 39.8156 20.5328C39.1491 19.7637 38.4834 18.9936 37.8187 18.2227C37.6845 18.0613 37.5043 17.9446 37.3021 17.8881C37.0999 17.8317 36.8854 17.8382 36.687 17.9068C35.0862 18.3283 33.551 18.9679 32.1245 19.8076C31.9454 19.8975 31.7974 20.0389 31.6994 20.2137C31.6015 20.3885 31.5582 20.5886 31.5751 20.7883C31.6053 21.3788 31.6383 21.9694 31.674 22.6039H9.55909V24.6586H31.663C31.2043 25.1393 30.806 25.5705 30.3884 25.9825C30.2882 26.0439 30.1693 26.0672 30.0533 26.0485C28.9134 25.9853 27.7735 25.9194 26.6363 25.8397C26.4009 25.8125 26.163 25.8606 25.9567 25.9771C25.7504 26.0936 25.5864 26.2724 25.4881 26.488C24.8018 27.6875 24.2561 28.9623 23.8619 30.2869C23.7878 30.5396 23.6669 30.5973 23.4197 30.5973C18.9387 30.5973 14.4585 30.5973 9.97935 30.5973H9.56184V32.6464H9.95739C14.7314 32.6464 19.5073 32.6464 24.285 32.6464C24.4086 32.6414 24.5319 32.6615 24.6475 32.7054C24.7632 32.7493 24.8688 32.8161 24.9579 32.9019C25.5073 33.399 26.0567 33.8715 26.606 34.3714C26.7173 34.4936 26.7815 34.6513 26.7873 34.8164C26.812 35.3658 26.812 35.8932 26.7873 36.4288C26.7834 36.5752 26.7257 36.715 26.6253 36.8216C26.0182 37.371 25.3974 37.9204 24.7711 38.4532C24.6698 38.5318 24.5451 38.5743 24.4168 38.5741C22.9472 38.5741 21.4777 38.5576 20.0054 38.5576C18.7775 38.5576 17.5524 38.5769 16.3246 38.5796H9.56184V40.6233H9.97387C12.674 40.6233 15.3742 40.6425 18.0771 40.6425C19.8644 40.6425 21.6535 40.6342 23.4444 40.6178C23.4935 40.6096 23.5437 40.6116 23.592 40.6235C23.6403 40.6355 23.6856 40.6572 23.7252 40.6873C23.7648 40.7174 23.7979 40.7552 23.8223 40.7985C23.8468 40.8418 23.8621 40.8897 23.8674 40.9391C24.2687 42.283 24.8294 43.5741 25.5375 44.7847C25.63 44.9732 25.7774 45.1292 25.9603 45.2322C26.1432 45.3351 26.353 45.3803 26.5621 45.3616C27.735 45.2902 28.9052 45.216 30.0781 45.1473C30.1821 45.1285 30.2893 45.145 30.383 45.194C30.8307 45.606 31.2619 46.0373 31.6987 46.4603L31.6548 46.5372H9.55359V48.5754H31.6822C31.663 48.9654 31.6493 49.3088 31.6328 49.6549C31.6287 49.7644 31.6177 49.8736 31.5998 49.9818C31.4542 50.7701 31.7756 51.2948 32.498 51.6052C33.7451 52.1408 34.9702 52.7039 36.2337 53.2203C36.8875 53.495 37.2226 53.3439 37.6676 52.7973C38.3598 51.9458 39.041 51.0943 39.7689 50.262C39.8651 50.1493 40.0931 50.1521 40.2991 50.0889V57.7004H5.1394L5.1449 13.4981Z" fill="#008000"/>
<path d="M33.6877 49.4104C33.7564 48.3886 33.8003 47.4684 33.8882 46.551C33.9233 46.2922 33.8891 46.0288 33.7892 45.7876C33.6893 45.5463 33.5273 45.3358 33.3196 45.1775C32.742 44.6722 32.1996 44.128 31.6962 43.5487C31.5656 43.3801 31.3949 43.2468 31.1997 43.1609C31.0044 43.075 30.7908 43.0393 30.5783 43.057C29.507 43.1339 28.433 43.1861 27.359 43.2657C27.2601 43.2875 27.1567 43.2713 27.0692 43.2205C26.9817 43.1696 26.9165 43.0877 26.8865 42.9911C26.5569 42.167 26.2163 41.3429 25.8757 40.5326C25.8385 40.4616 25.8295 40.3792 25.8503 40.3018C25.8712 40.2244 25.9205 40.1578 25.9883 40.1151C26.8124 39.4147 27.5979 38.6895 28.4165 37.9918C28.587 37.8558 28.7207 37.6791 28.8052 37.478C28.8896 37.2769 28.9222 37.0578 28.9 36.8409C28.8615 36.0168 28.867 35.1927 28.9 34.3687C28.9201 34.151 28.8859 33.9317 28.8006 33.7304C28.7153 33.529 28.5814 33.352 28.411 33.215C27.587 32.5146 26.8014 31.7894 25.9883 31.0862C25.9225 31.0486 25.8735 30.9874 25.8511 30.915C25.8286 30.8426 25.8345 30.7644 25.8674 30.6962C26.2209 29.8465 26.5734 28.9977 26.925 28.1498C26.9492 28.0726 27.0017 28.0073 27.072 27.967C27.1423 27.9268 27.2251 27.9146 27.304 27.9328C28.4302 28.0207 29.5565 28.0894 30.6854 28.1553C30.8719 28.1609 31.0571 28.1225 31.226 28.0433C31.3949 27.9641 31.5428 27.8463 31.6578 27.6993C32.2072 27.1033 32.7867 26.5045 33.3965 25.9551C33.5741 25.8103 33.7127 25.6233 33.7995 25.4112C33.8863 25.1992 33.9187 24.9688 33.8937 24.741C33.8113 23.6917 33.7619 22.6396 33.6822 21.5903C33.6601 21.5008 33.6735 21.4062 33.7196 21.3263C33.7657 21.2465 33.8409 21.1875 33.9294 21.1618C34.7919 20.8185 35.6462 20.4559 36.5115 20.1235C36.5701 20.1182 36.6292 20.1266 36.684 20.148C36.7388 20.1695 36.7879 20.2034 36.8274 20.2471C37.5608 21.0712 38.2859 21.8952 39.0001 22.7193C39.1332 22.8773 39.3029 23.0004 39.4943 23.078C39.6858 23.1555 39.8933 23.1851 40.0989 23.1643C40.9229 23.1368 41.747 23.1341 42.571 23.1643C42.7823 23.1885 42.9963 23.1595 43.1935 23.0798C43.3907 23.0002 43.5648 22.8725 43.7 22.7083C44.3949 21.8843 45.1201 21.0932 45.8233 20.2801C45.8703 20.202 45.9451 20.1445 46.0327 20.119C46.1202 20.0936 46.2142 20.102 46.2958 20.1428C47.1198 20.4943 47.9439 20.8405 48.7679 21.1811C48.8462 21.2047 48.9128 21.2566 48.9549 21.3267C48.9971 21.3967 49.0117 21.4799 48.9959 21.5601C48.9218 22.5765 48.8806 23.5955 48.7899 24.6119C48.7477 24.8752 48.7763 25.145 48.8729 25.3936C48.9694 25.6423 49.1304 25.8607 49.3393 26.0265C49.9289 26.5503 50.4858 27.1098 51.0066 27.7021C51.1385 27.862 51.3077 27.9869 51.4994 28.066C51.691 28.145 51.8991 28.1757 52.1054 28.1553C53.2041 28.0729 54.3028 28.0042 55.4235 27.9411C55.4732 27.941 55.5221 27.953 55.5661 27.976C55.6101 27.9989 55.6479 28.0322 55.6763 28.0729C56.0627 28.9666 56.4362 29.8648 56.797 30.7676C56.8009 30.8263 56.7916 30.8852 56.7698 30.9399C56.7479 30.9946 56.714 31.0436 56.6706 31.0835C55.8878 31.7867 55.1049 32.4926 54.3001 33.1711C54.1078 33.3162 53.9563 33.5085 53.86 33.7294C53.7638 33.9503 53.7261 34.1922 53.7507 34.4319C53.7947 35.2394 53.7782 36.0525 53.7507 36.8628C53.7312 37.0695 53.7629 37.2779 53.8429 37.4695C53.9229 37.6611 54.0488 37.8301 54.2094 37.9616C55.017 38.651 55.8026 39.3652 56.6047 40.0629C56.753 40.192 56.8382 40.3074 56.7558 40.5106C56.4152 41.3347 56.0773 42.1588 55.7504 43.002C55.7257 43.098 55.6645 43.1804 55.5798 43.2317C55.4951 43.2831 55.3937 43.2992 55.2972 43.2767C54.2342 43.2026 53.1711 43.1476 52.1108 43.068C51.8883 43.0481 51.6644 43.0848 51.4598 43.1746C51.2553 43.2644 51.0767 43.4044 50.9407 43.5816C50.4068 44.1777 49.8401 44.7435 49.2431 45.2764C49.0796 45.4038 48.9499 45.5693 48.8651 45.7585C48.7803 45.9476 48.7432 46.1546 48.7569 46.3614C48.8311 47.4602 48.9025 48.5754 48.9547 49.6796C48.9546 49.7493 48.9384 49.818 48.9075 49.8804C48.8765 49.9428 48.8316 49.9972 48.7762 50.0395C47.9521 50.413 47.1116 50.7591 46.2793 51.119C46.2389 51.1406 46.1946 51.1541 46.149 51.1587C46.1034 51.1632 46.0573 51.1587 46.0134 51.1455C45.9696 51.1322 45.9287 51.1104 45.8933 51.0814C45.8578 51.0523 45.8284 51.0166 45.8068 50.9761C45.1366 50.1521 44.4499 49.328 43.7796 48.504C43.646 48.3298 43.4686 48.1941 43.2655 48.1106C43.0624 48.0271 42.8408 47.9989 42.6232 48.0288C41.6316 48.1029 40.6373 48.2238 39.6402 48.0288C39.44 47.9854 39.2316 48.0021 39.041 48.0769C38.8503 48.1517 38.6861 48.2812 38.5689 48.449C37.9069 49.2731 37.2257 50.0724 36.5719 50.8965C36.5478 50.9413 36.5147 50.9806 36.4747 51.012C36.4347 51.0434 36.3886 51.0663 36.3394 51.0792C36.2902 51.0921 36.2389 51.0947 36.1886 51.0869C36.1384 51.0791 36.0903 51.061 36.0473 51.0338C35.4292 50.7591 34.8139 50.4652 34.1822 50.2098C33.7949 50.023 33.5394 49.7977 33.6877 49.4104ZM41.3542 43.6915C42.4181 43.689 43.471 43.4768 44.4529 43.0672C45.4347 42.6576 46.3262 42.0585 47.0764 41.3042C47.8267 40.5499 48.4209 39.6551 48.8252 38.6711C49.2295 37.687 49.4359 36.6329 49.4327 35.5691C49.427 34.499 49.2091 33.4407 48.7916 32.4555C48.3741 31.4703 47.7652 30.5776 47.0003 29.8293C46.2354 29.0811 45.3296 28.4919 44.3355 28.0961C43.3413 27.7003 42.2785 27.5057 41.2086 27.5235C40.1442 27.5382 39.0932 27.7634 38.1163 28.1863C37.1395 28.6092 36.256 29.2214 35.5169 29.9875C34.7779 30.7536 34.1979 31.6585 33.8104 32.65C33.4228 33.6415 33.2355 34.6999 33.2592 35.7641C33.2953 37.8843 34.165 39.9051 35.6801 41.3888C37.1952 42.8725 39.2336 43.6997 41.3542 43.6915V43.6915Z" fill="#008000"/>
<path d="M19.0166 3.64801H26.3919C26.3919 3.76612 26.4084 3.88149 26.4084 3.99961C26.4084 5.0077 26.4084 6.01854 26.4084 7.02114C26.4064 7.19702 26.4212 7.37269 26.4524 7.54579C26.4979 7.7742 26.6232 7.97895 26.8059 8.12339C26.9886 8.26784 27.2167 8.34254 27.4495 8.33414C28.5482 8.33414 29.6662 8.33414 30.7732 8.33414H31.1138V15.9484H14.2893V14.7782C14.2893 12.7593 14.2893 10.7404 14.2893 8.72144C14.2893 8.44676 14.3525 8.34237 14.6519 8.34787C15.7506 8.36709 16.8246 8.34787 17.9124 8.34787C18.6293 8.34787 19.0111 7.96605 19.0111 7.24913C19.0111 6.17511 19.0111 5.09834 19.0111 4.02158L19.0166 3.64801Z" fill="#008000"/>
<path d="M40.2962 41.5216V29.6826C38.2828 29.8914 35.4783 31.8197 35.3107 35.3219C35.2361 36.787 35.7029 38.2284 36.6222 39.3717C37.5416 40.5149 38.8492 41.2801 40.2962 41.5216V41.5216ZM42.3948 41.5216C45.2461 41.1562 47.5122 38.3435 47.3776 35.3824C47.2293 32.034 44.5923 29.9573 42.3948 29.6991V41.5216Z" fill="white"/>
<path d="M42.8552 37.0118V41.1301H40.1372V37.1334H35.8816V34.3094L39.9881 34.1093V30.1675H42.7337C42.7886 31.3442 42.8474 32.6268 42.9141 34.0897L46.9932 34.3055V37.0078L42.8552 37.0118Z" fill="#95D870"/>
</svg>
