<svg width="62" height="62" viewBox="0 0 62 62" fill="none" xmlns="http://www.w3.org/2000/svg">
<path d="M35.0489 48.9105C34.3858 48.9436 33.9117 48.99 33.4277 48.99H7.69416C5.51599 48.99 5.43642 48.99 5.54251 46.792C5.67512 44.0568 5.84089 41.3117 6.20557 38.5998C6.61999 35.4967 8.21798 32.9306 10.9465 31.4387C13.8142 29.8772 16.8876 28.6837 19.9211 27.4603C20.3952 27.2647 21.1975 27.5697 21.7312 27.8615C25.4543 29.9103 29.1244 29.8772 32.8641 27.8615C33.4973 27.5299 34.4952 27.3609 35.1285 27.6128C38.1349 28.745 41.0738 30.0489 43.9307 31.5183C45.2568 32.2278 46.1751 33.6633 47.1996 34.9762C43.4566 35.1452 40.3335 36.3852 37.9167 39.0971C35.4998 41.809 34.6046 45.0945 35.0489 48.9105Z" fill="#95D870"/>
<path d="M39.2934 14.3449C39.2961 17.5923 38.0126 20.7087 35.7238 23.0124C33.435 25.3161 30.3271 26.6197 27.0797 26.6381C20.2866 26.6945 14.7401 21.0319 14.7765 14.0797C14.8097 7.4822 20.3662 1.97876 27.0134 1.95887C28.6355 1.95704 30.2419 2.27694 31.7395 2.90007C33.2371 3.52319 34.5963 4.43716 35.7383 5.58908C36.8804 6.741 37.7826 8.10799 38.3929 9.61092C39.0031 11.1139 39.3092 12.7229 39.2934 14.3449Z" fill="#95D870"/>
<path d="M46.7053 36.183C52.7591 36.2062 57.3806 40.8874 57.3641 46.981C57.362 48.4013 57.0782 49.807 56.5289 51.1168C55.9797 52.4266 55.176 53.6144 54.1644 54.6114C53.1528 55.6084 51.9534 56.3947 50.6357 56.9248C49.3181 57.4549 47.9083 57.7182 46.4882 57.6996C45.068 57.681 43.6656 57.3807 42.3623 56.8162C41.059 56.2517 39.8807 55.4341 38.8956 54.411C37.9106 53.3878 37.1383 52.1793 36.6237 50.8555C36.109 49.5318 35.8621 48.119 35.8973 46.6992C35.9404 40.8045 40.7112 36.1631 46.7053 36.183ZM46.6423 54.5001C48.6656 54.5064 50.6096 53.7138 52.0518 52.2947C53.4939 50.8755 54.3176 48.9444 54.3438 46.9213C54.3287 44.9011 53.5265 42.9664 52.1076 41.5283C50.6887 40.0902 48.7649 39.262 46.7451 39.2198C42.4982 39.1866 38.9077 42.7241 38.9508 46.9014C38.9683 48.9274 39.7872 50.864 41.2285 52.2879C42.6698 53.7119 44.6163 54.5072 46.6423 54.5001Z" fill="#95D870"/>
<g clip-path="url(#clip0_3286_29138)">
<path d="M47.7508 48.3088V51.8051H45.4432V48.412H41.8303V46.0145L45.3167 45.8447V42.4982H47.6476C47.6942 43.4972 47.7441 44.586 47.8007 45.828L51.2638 46.0112V48.3055L47.7508 48.3088Z" fill="#95D870"/>
</g>
<defs>
<clipPath id="clip0_3286_29138">
<rect width="9.41681" height="9.29028" fill="white" transform="translate(41.8303 42.4982)"/>
</clipPath>
</defs>
</svg>
