<svg width="62" height="62" viewBox="0 0 62 62" fill="none" xmlns="http://www.w3.org/2000/svg">
<path d="M30.9404 2.00017C47.1456 2.06229 59.517 14.5934 59.4726 30.9051C59.4671 34.7071 58.7072 38.4701 57.237 41.9763C55.7667 45.4825 53.6153 48.6621 50.9074 51.3308C48.1995 53.9995 44.9889 56.1044 41.4617 57.5234C37.9345 58.9424 34.1607 59.6474 30.3591 59.5975C26.5575 59.5476 22.8035 58.7438 19.3148 57.2327C15.826 55.7216 12.6718 53.5332 10.0349 50.7943C7.39799 48.0554 5.33079 44.8204 3.95307 41.2768C2.57536 37.7333 1.91452 33.9515 2.00885 30.1508C2.12422 14.3715 14.8949 1.94692 30.9404 2.00017ZM30.7718 51.0329C36.1879 51.0498 41.3918 48.9281 45.2522 45.1292C49.1127 41.3302 51.3176 36.1611 51.3877 30.7454C51.3473 25.3375 49.1998 20.1586 45.4016 16.309C41.6033 12.4593 36.4537 10.2425 31.0469 10.1294C19.6784 10.0407 10.0671 19.51 10.1825 30.6921C10.2293 36.1154 12.4215 41.2996 16.2797 45.1112C20.1379 48.9229 25.3483 51.0519 30.7718 51.0329V51.0329Z" fill="#5F9643"/>
<g clip-path="url(#clip0_3546_28919)">
<path d="M33.739 34.4595V43.8188H27.5619V34.7358H17.8906V28.318L27.2232 27.8634V18.9053H33.4627C33.5875 21.5793 33.7211 24.4941 33.8727 27.8189L43.1428 28.3091V34.4506L33.739 34.4595Z" fill="#5F9643"/>
</g>
<defs>
<clipPath id="clip0_3546_28919">
<rect width="25.2076" height="24.8689" fill="white" transform="translate(17.8906 18.9053)"/>
</clipPath>
</defs>
</svg>
