<svg width="62" height="62" viewBox="0 0 62 62" fill="none" xmlns="http://www.w3.org/2000/svg">
<path d="M56.0922 41.0755C56.3226 39.8262 56.3226 38.5504 56.0922 37.301L58.3781 35.9809C58.644 35.8302 58.7591 35.5201 58.6705 35.2277C58.0769 33.3139 57.058 31.5773 55.7289 30.1419C55.5251 29.9204 55.1973 29.8672 54.9315 30.0179L52.6455 31.3381C51.6798 30.514 50.5722 29.8761 49.3761 29.4508V26.8104C49.3761 26.5092 49.1634 26.2434 48.871 26.1814C46.8952 25.7383 44.8839 25.7561 43.0055 26.1814C42.7131 26.2434 42.5005 26.5092 42.5005 26.8104V29.4508C41.3043 29.8761 40.1968 30.514 39.231 31.3381L36.9451 30.0179C36.6881 29.8672 36.3514 29.9204 36.1476 30.1419C34.8186 31.5773 33.7997 33.3139 33.206 35.2277C33.1174 35.5201 33.2415 35.8302 33.4984 35.9809L35.7844 37.301C35.554 38.5504 35.554 39.8262 35.7844 41.0755L33.4984 42.3957C33.2326 42.5463 33.1174 42.8565 33.206 43.1489C33.7997 45.0627 34.8186 46.7904 36.1476 48.2347C36.3514 48.4562 36.6792 48.5093 36.9451 48.3587L39.231 47.0385C40.1968 47.8625 41.3043 48.5005 42.5005 48.9258V51.5661C42.5005 51.8674 42.7131 52.1332 43.0055 52.1952C44.9814 52.6382 46.9927 52.6205 48.871 52.1952C49.1634 52.1332 49.3761 51.8674 49.3761 51.5661V48.9258C50.5722 48.5005 51.6798 47.8625 52.6455 47.0385L54.9315 48.3587C55.1884 48.5093 55.5251 48.4562 55.7289 48.2347C57.058 46.7993 58.0769 45.0627 58.6705 43.1489C58.7591 42.8565 58.6351 42.5463 58.3781 42.3957L56.0922 41.0755ZM45.9471 43.4855C43.5726 43.4855 41.6499 41.554 41.6499 39.1883C41.6499 36.8226 43.5814 34.891 45.9471 34.891C48.3128 34.891 50.2444 36.8226 50.2444 39.1883C50.2444 41.554 48.3217 43.4855 45.9471 43.4855ZM21.8471 30.6824C28.1113 30.6824 33.1883 25.6054 33.1883 19.3412C33.1883 13.077 28.1113 8 21.8471 8C15.5829 8 10.5059 13.077 10.5059 19.3412C10.5059 25.6054 15.5829 30.6824 21.8471 30.6824ZM39.674 50.751C39.4702 50.6447 39.2665 50.5206 39.0715 50.4054L38.3716 50.813C37.84 51.1143 37.2374 51.2826 36.6349 51.2826C35.6692 51.2826 34.7388 50.875 34.0743 50.1662C32.4529 48.4119 31.2124 46.2765 30.5125 43.9994C30.0252 42.4312 30.6808 40.7743 32.0985 39.9503L32.7984 39.5427C32.7896 39.3123 32.7896 39.082 32.7984 38.8516L32.0985 38.444C30.6808 37.6289 30.0252 35.9631 30.5125 34.3949C30.5922 34.1379 30.7074 33.881 30.796 33.624C30.4593 33.5974 30.1315 33.5177 29.7859 33.5177H28.3063C26.3393 34.4214 24.1508 34.9353 21.8471 34.9353C19.5434 34.9353 17.3638 34.4214 15.3879 33.5177H13.9083C7.33391 33.5177 2 38.8516 2 45.4259V49.1118C2 51.4598 3.90497 53.3648 6.25295 53.3648H37.4412C38.3361 53.3648 39.169 53.0813 39.8512 52.6117C39.7449 52.275 39.674 51.9294 39.674 51.5661V50.751Z" fill="#702AFB"/>
</svg>
