<svg width="20" height="20" viewBox="0 0 20 20" fill="none" xmlns="http://www.w3.org/2000/svg">
<g clip-path="url(#clip0_31017_82832)">
<path fill-rule="evenodd" clip-rule="evenodd" d="M1.25014 14.3748C1.25014 14.5406 1.31599 14.6995 1.4332 14.8168C1.55041 14.934 1.70938 14.9998 1.87514 14.9998H16.6164L12.6826 18.9323C12.5653 19.0497 12.4994 19.2088 12.4994 19.3748C12.4994 19.5408 12.5653 19.7 12.6826 19.8173C12.8 19.9347 12.9592 20.0006 13.1251 20.0006C13.2911 20.0006 13.4503 19.9347 13.5676 19.8173L18.5676 14.8173C18.6258 14.7593 18.672 14.6903 18.7035 14.6144C18.735 14.5384 18.7513 14.457 18.7513 14.3748C18.7513 14.2926 18.735 14.2112 18.7035 14.1353C18.672 14.0593 18.6258 13.9904 18.5676 13.9323L13.5676 8.93231C13.4503 8.81495 13.2911 8.74902 13.1251 8.74902C12.9592 8.74902 12.8 8.81495 12.6826 8.93231C12.5653 9.04967 12.4994 9.20884 12.4994 9.37481C12.4994 9.54078 12.5653 9.69995 12.6826 9.81731L16.6164 13.7498H1.87514C1.70938 13.7498 1.55041 13.8157 1.4332 13.9329C1.31599 14.0501 1.25014 14.2091 1.25014 14.3748ZM18.7501 5.62481C18.7501 5.79057 18.6843 5.94954 18.5671 6.06675C18.4499 6.18397 18.2909 6.24981 18.1251 6.24981H3.38389L7.31764 10.1823C7.37575 10.2404 7.42185 10.3094 7.45329 10.3853C7.48474 10.4613 7.50093 10.5426 7.50093 10.6248C7.50093 10.707 7.48474 10.7884 7.45329 10.8643C7.42185 10.9402 7.37575 11.0092 7.31764 11.0673C7.25953 11.1254 7.19054 11.1715 7.11462 11.203C7.0387 11.2344 6.95732 11.2506 6.87514 11.2506C6.79296 11.2506 6.71159 11.2344 6.63566 11.203C6.55974 11.1715 6.49075 11.1254 6.43264 11.0673L1.43264 6.06731C1.37444 6.00926 1.32826 5.94029 1.29675 5.86436C1.26524 5.78842 1.24902 5.70702 1.24902 5.62481C1.24902 5.5426 1.26524 5.4612 1.29675 5.38527C1.32826 5.30934 1.37444 5.24037 1.43264 5.18231L6.43264 0.182313C6.55 0.0649546 6.70917 -0.000976562 6.87514 -0.000976562C7.04111 -0.000976563 7.20028 0.0649546 7.31764 0.182313C7.435 0.299671 7.50093 0.458843 7.50093 0.624813C7.50093 0.790783 7.435 0.949955 7.31764 1.06731L3.38389 4.99981H18.1251C18.2909 4.99981 18.4499 5.06566 18.5671 5.18287C18.6843 5.30008 18.7501 5.45905 18.7501 5.62481Z" fill="#43B8F5"/>
</g>
<defs>
<clipPath id="clip0_31017_82832">
<rect width="20" height="20" fill="white"/>
</clipPath>
</defs>
</svg>
