<svg width="62" height="62" viewBox="0 0 62 62" fill="none" xmlns="http://www.w3.org/2000/svg">
<g clip-path="url(#clip0_30205_74370)">
<path d="M1.00477 28.1746C1.00477 20.3522 1.00477 12.5299 1.00477 4.70756C1.00477 3.2488 1.32215 1.93116 2.49171 0.938566C3.17082 0.339366 4.04545 0.00840879 4.95145 0.0078125C17.7251 0.0078125 30.4983 0.0078125 43.2709 0.0078125C45.4021 0.0078125 47.0462 1.67587 47.162 3.92585C47.2239 5.16422 47.162 6.40892 47.1858 7.65045C47.1858 8.21493 46.9573 8.45753 46.3924 8.47497C42.8583 8.58596 39.8209 9.9147 37.2168 12.2693C35.721 13.5847 34.5459 15.2242 33.7811 17.0626C33.4224 17.949 32.9353 18.2027 32.0133 18.1948C27.4382 18.1472 22.8631 18.1726 18.288 18.1726H17.5738C17.0311 18.1726 16.6026 18.3708 16.6217 18.9796C16.6391 19.5584 17.0882 19.6852 17.5738 19.6852H27.0144C28.6537 19.6852 30.293 19.7011 31.9339 19.6852C32.5972 19.6773 32.8416 19.8993 32.6972 20.5874C32.2434 22.755 32.4703 24.8955 33.0463 27.0107C33.2876 27.9019 33.2542 27.9732 32.3243 27.9748C27.6175 27.9811 22.9096 27.9811 18.2007 27.9748C17.9357 27.9748 17.6706 27.9748 17.4072 27.9827C16.947 27.9922 16.6233 28.1984 16.6137 28.6788C16.5963 29.191 16.9216 29.4399 17.4072 29.4827C17.6691 29.5049 17.9357 29.4954 18.2007 29.4954C23.0916 29.4954 27.9841 29.5113 32.8765 29.4795C33.6779 29.4795 34.1461 29.7047 34.5761 30.423C36.9787 34.387 40.5049 36.7179 45.099 37.4139C45.4164 37.4615 45.7259 37.5107 46.0401 37.5487C47.1795 37.6882 47.1827 37.6867 47.1827 38.8013C47.1827 40.573 47.1827 42.3436 47.1827 44.1131C47.1827 45.1723 47.1255 45.231 46.0607 45.231C39.1586 45.231 32.2566 45.231 25.3545 45.231C23.2915 45.231 21.2285 45.2199 19.1655 45.231C15.5918 45.2579 13.2796 47.5936 13.2653 51.1691C13.2653 51.9889 13.2146 52.8118 13.2653 53.6268C13.5399 57.4909 9.68524 60.6653 5.25772 58.7007C2.20131 57.3546 0.996832 54.8049 1.00001 51.5592C1.01164 43.7643 1.01323 35.9694 1.00477 28.1746ZM27.7317 9.89092H37.6389C38.2308 9.89092 38.9576 9.9147 38.9418 9.11873C38.9259 8.32275 38.188 8.36715 37.604 8.36715C31.0786 8.36715 24.5537 8.36715 18.0293 8.36715C17.7121 8.34524 17.3937 8.38454 17.0914 8.4829C16.9379 8.52886 16.8051 8.62679 16.7159 8.75988C16.6267 8.89296 16.5867 9.05291 16.6026 9.21228C16.6023 9.37333 16.6632 9.52849 16.7732 9.64627C16.8831 9.76406 17.0337 9.83565 17.1946 9.84652C17.4825 9.88142 17.7726 9.89573 18.0626 9.88933C21.2862 9.89251 24.5092 9.89303 27.7317 9.89092ZM27.7619 39.2247H36.5566C37.0851 39.2247 37.6135 39.2247 38.1435 39.2104C38.5958 39.1962 38.937 38.971 38.937 38.508C38.937 38.045 38.6085 37.804 38.1785 37.7152C37.9955 37.6903 37.8106 37.6829 37.6262 37.693H17.9007C17.6135 37.693 17.3199 37.6676 17.0502 37.8151C16.7423 37.9832 16.5741 38.221 16.6042 38.5825C16.6111 38.7439 16.6792 38.8965 16.7948 39.0093C16.9104 39.1222 17.0647 39.1867 17.2263 39.1898C17.49 39.2148 17.7549 39.2254 18.0198 39.2215L27.7619 39.2247ZM10.4644 39.212C10.8865 39.212 11.3103 39.2215 11.734 39.212C12.1577 39.2025 12.4512 38.9964 12.4846 38.5556C12.4954 38.4618 12.4875 38.3668 12.4614 38.2761C12.4353 38.1854 12.3914 38.1008 12.3324 38.0271C12.2734 37.9534 12.2004 37.8921 12.1176 37.8467C12.0347 37.8014 11.9437 37.7728 11.8498 37.7628C10.9612 37.6391 10.0597 37.6391 9.17108 37.7628C9.07691 37.7722 8.98557 37.8003 8.90242 37.8455C8.81927 37.8907 8.74599 37.952 8.68687 38.0258C8.62774 38.0997 8.58397 38.1846 8.55812 38.2755C8.53227 38.3665 8.52485 38.4617 8.53631 38.5556C8.56328 38.998 8.85369 39.2057 9.2774 39.2199C9.67413 39.2184 10.0693 39.2057 10.4644 39.2073V39.212ZM10.4374 19.6694V19.6535C10.9092 19.6744 11.3816 19.6707 11.853 19.6424C12.0278 19.6274 12.1899 19.5448 12.3047 19.4121C12.4194 19.2794 12.4777 19.1071 12.4671 18.9321C12.4671 18.5468 12.2307 18.2344 11.8641 18.2138C10.9723 18.1678 10.0787 18.1678 9.18695 18.2138C8.77434 18.2344 8.53631 18.569 8.53948 18.9812C8.53948 19.4204 8.841 19.6424 9.25518 19.671C9.66937 19.6995 10.0423 19.6694 10.4374 19.6694ZM10.5469 27.9922V28.0018C10.101 28.0018 9.6535 27.9796 9.20916 28.0018C9.12259 27.9994 9.03641 28.0144 8.95567 28.0457C8.87493 28.077 8.80124 28.1241 8.7389 28.1841C8.67656 28.2442 8.62682 28.3161 8.59258 28.3956C8.55834 28.4751 8.54029 28.5606 8.53948 28.6471C8.51726 29.0657 8.75689 29.4161 9.15203 29.4399C10.0425 29.4954 10.9355 29.4954 11.826 29.4399C11.9196 29.436 12.0113 29.4125 12.0953 29.3709C12.1792 29.3294 12.2535 29.2707 12.3133 29.1987C12.3731 29.1266 12.4172 29.0429 12.4426 28.9528C12.468 28.8627 12.4742 28.7683 12.4608 28.6756C12.4529 28.4876 12.3712 28.3103 12.2334 28.1821C12.0955 28.0538 11.9127 27.9851 11.7244 27.9907C11.3356 27.9811 10.9405 27.997 10.5469 27.997V27.9922ZM10.4755 9.85286V9.86396C10.8976 9.86396 11.3198 9.88299 11.7451 9.86396C12.1704 9.84494 12.4449 9.60551 12.4735 9.17264C12.4827 9.08578 12.4744 8.99796 12.4493 8.91431C12.4242 8.83065 12.3826 8.75283 12.3271 8.68539C12.2716 8.61794 12.2031 8.56221 12.1258 8.52146C12.0485 8.4807 11.9639 8.45574 11.8768 8.44801C10.9642 8.30001 10.0336 8.30269 9.12188 8.45594C8.9472 8.47854 8.7884 8.56885 8.67975 8.70737C8.5711 8.84589 8.52129 9.02154 8.54107 9.19642C8.5617 9.60075 8.83624 9.81957 9.21234 9.85128C9.62811 9.88458 10.0534 9.85762 10.4755 9.85762V9.85286Z" fill="#EED324"/>
<path d="M8.79102 60.9551C11.2158 60.4303 13.0471 59.1999 14.1437 56.9673C14.5616 56.1382 14.7821 55.2239 14.788 54.2956C14.788 53.1856 14.7769 52.0757 14.8007 50.9658C14.8547 48.4764 16.5463 46.7814 19.0203 46.7798C31.5792 46.7713 44.1376 46.7713 56.6955 46.7798C59.0203 46.7798 60.6628 48.2607 60.8945 50.5583C61.054 52.0838 61.0349 53.6228 60.8374 55.1439C60.3978 58.4197 57.4683 60.99 54.1453 60.9916C39.3129 61.0011 24.4804 61.0011 9.64795 60.9916C9.36231 60.9948 9.07666 60.9694 8.79102 60.9551Z" fill="#EED324"/>
<path d="M47.0868 9.99615C48.795 9.99133 50.4873 10.3241 52.0664 10.9752C53.6455 11.6264 55.0801 12.5831 56.2877 13.7903C57.4953 14.9975 58.4521 16.4314 59.103 18.0095C59.754 19.5875 60.0861 21.2786 60.0805 22.9855C60.0805 30.1572 54.2438 36.0477 47.1169 36.0636C39.99 36.0794 33.993 30.1334 33.9883 23.0061C33.9835 15.8264 39.8583 9.99615 47.0868 9.99615ZM44.2557 19.9855C44.2287 19.1261 44.6937 18.5965 45.4268 18.2714C46.3093 17.8856 47.3003 17.8255 48.223 18.1018C49.0926 18.3396 49.7655 18.7884 49.994 19.7223C50.1162 20.2138 50.3685 20.5864 50.9303 20.4406C51.4921 20.2947 51.5936 19.8317 51.4635 19.3053C51.1175 17.9131 50.1939 17.0252 48.8562 16.7017C48.0103 16.4987 47.7279 16.134 47.7866 15.3016C47.8263 14.7403 48.0072 13.9903 47.0931 13.8745C46.5234 13.8048 46.2251 14.263 46.2996 15.3016C46.3552 16.1356 46.0743 16.4908 45.2539 16.7286C43.9415 17.106 42.9671 17.9369 42.7592 19.402C42.5291 21.0304 43.2115 22.2228 44.5683 23.0695C45.3761 23.5737 46.2949 23.7037 47.2201 23.7814C47.8851 23.8102 48.5277 24.0305 49.0704 24.4157C50.0384 25.1387 50.2019 26.3565 49.4433 27.1826C48.1516 28.5874 44.4112 28.2386 44.1224 26.209C44.0526 25.7095 43.7082 25.3702 43.1607 25.5446C42.6132 25.7191 42.5704 26.163 42.6735 26.6546C42.9004 27.7439 43.5178 28.6461 44.5366 28.9569C45.8537 29.358 46.5996 29.9463 46.306 31.4146C46.3078 31.5204 46.3415 31.6232 46.4028 31.7095C46.4702 31.8564 46.5851 31.9764 46.729 32.0503C46.8729 32.1242 47.0374 32.1477 47.1963 32.117C47.3579 32.1073 47.5098 32.0362 47.6207 31.9183C47.7316 31.8004 47.7932 31.6446 47.7929 31.4827C47.8116 31.3781 47.817 31.2716 47.8088 31.1656C47.5803 29.9859 48.1262 29.515 49.237 29.1123C51.8809 28.1435 52.2696 24.9215 50.0384 23.1963C49.3221 22.6419 48.4521 22.3219 47.547 22.2799C46.8842 22.269 46.2299 22.1295 45.6204 21.8692C44.8111 21.4934 44.2731 20.9226 44.2557 19.9855Z" fill="#EED324"/>
</g>
<defs>
<clipPath id="clip0_30205_74370">
<rect width="60.8091" height="60.8171" fill="white" transform="translate(0.880859 0.246094)"/>
</clipPath>
</defs>
</svg>
