<svg width="20" height="20" viewBox="0 0 20 20" fill="none" xmlns="http://www.w3.org/2000/svg">
<path d="M18.0973 9.16676C18.0973 11.5002 18.0973 13.8336 18.0973 16.167C18.0973 16.4975 18.0888 16.506 17.7643 16.5065C17.4988 16.5065 17.4988 16.5065 17.4988 16.7715C17.4988 16.915 17.5063 17.059 17.4988 17.202C17.4913 17.345 17.5488 17.384 17.6853 17.3815C18.0408 17.375 18.3968 17.3815 18.7518 17.3775C18.9258 17.3745 19.0083 17.4395 18.9988 17.6185C18.9923 17.749 18.9988 17.8805 18.9988 18.0115C18.9997 18.1287 18.9773 18.2449 18.9328 18.3534C18.8884 18.4618 18.8228 18.5603 18.7398 18.6431C18.6569 18.7259 18.5583 18.7914 18.4497 18.8357C18.3412 18.8799 18.225 18.9022 18.1078 18.901C14.9017 18.901 11.6954 18.901 8.48901 18.901C8.37184 18.9027 8.25553 18.8809 8.14688 18.8371C8.03824 18.7932 7.93945 18.728 7.85631 18.6455C7.77318 18.5629 7.70737 18.4645 7.66275 18.3562C7.61814 18.2478 7.59561 18.1317 7.59648 18.0145C7.59348 17.584 7.58748 17.1535 7.59948 16.7235C7.60398 16.5475 7.54498 16.503 7.37498 16.5035C5.36659 16.5085 3.35803 16.5095 1.34931 16.5065C1.0123 16.5065 1.0083 16.5025 1.0083 16.1565V2.15856C1.0083 1.80855 1.0083 1.80855 1.36781 1.80855C1.39895 1.8068 1.43017 1.8068 1.46131 1.80855C1.73182 1.83955 1.91133 1.79455 2.03483 1.48204C2.21183 1.03903 2.61985 0.865528 3.09336 0.915529C3.53087 0.96103 3.82138 1.21554 3.97788 1.62205C4.01038 1.70655 4.01238 1.80305 4.14539 1.81105C4.29089 1.81955 4.31439 1.72955 4.35289 1.62405C4.5029 1.22104 4.78941 0.96953 5.21642 0.917029C5.67893 0.860027 6.04644 1.03553 6.29045 1.44204C6.32581 1.50098 6.35401 1.56393 6.37445 1.62955C6.40445 1.72955 6.42895 1.81405 6.56695 1.81155C6.69696 1.80905 6.71246 1.72455 6.74396 1.63455C6.799 1.46783 6.8943 1.31725 7.02141 1.19614C7.14853 1.07503 7.30354 0.98713 7.47272 0.940211C7.64191 0.893292 7.82005 0.888805 7.99139 0.927147C8.16272 0.96549 8.32196 1.04548 8.45501 1.16003C8.61087 1.28744 8.7231 1.46032 8.77602 1.65455C8.80802 1.77205 8.86902 1.81255 8.98902 1.81055C9.3697 1.80455 9.75021 1.80455 10.1306 1.81055C10.2441 1.81055 10.2941 1.76805 10.3306 1.66305C10.5031 1.17204 10.8631 0.910528 11.3516 0.913028C11.8401 0.915528 12.1986 1.17504 12.3721 1.66555C12.4046 1.75755 12.4411 1.81555 12.5526 1.81555C12.6641 1.81555 12.6961 1.74805 12.7271 1.65955C12.8961 1.17704 13.2616 0.914028 13.7542 0.915028C14.2322 0.915028 14.6002 1.18404 14.7652 1.65655C14.7957 1.74355 14.8197 1.81355 14.9367 1.81555C15.0537 1.81755 15.0912 1.74955 15.1247 1.65305C15.2867 1.18254 15.6582 0.915028 16.1382 0.915028C16.6182 0.915028 16.9972 1.17604 17.1502 1.64105C17.1942 1.77355 17.2593 1.81905 17.3918 1.81005C17.5243 1.80105 17.6663 1.80755 17.8033 1.81005C18.0728 1.81005 18.0958 1.83255 18.0963 2.09506C18.0963 2.54507 18.0963 2.99509 18.0963 3.4451L18.0973 9.16676ZM7.91699 12.0668V17.7765C7.91276 17.8886 7.92234 18.0008 7.94549 18.1105C8.01099 18.376 8.252 18.5735 8.51151 18.5675C8.64019 18.562 8.76356 18.5147 8.86284 18.4326C8.96213 18.3506 9.03189 18.2383 9.06152 18.113C9.08745 17.9781 9.09702 17.8406 9.09002 17.7035C9.09002 17.39 9.10202 17.3785 9.41853 17.3785H16.9012C17.1722 17.3785 17.1727 17.3785 17.1727 17.1005C17.1727 13.6004 17.1727 10.1013 17.1727 6.60319C17.1727 6.54068 17.1752 6.47818 17.1702 6.41618C17.1462 6.12817 17.0297 5.89867 16.7477 5.78616C16.6119 5.73923 16.4683 5.71869 16.3247 5.72566C13.5366 5.72566 10.7486 5.72566 7.96049 5.72566C7.92949 5.72566 7.89799 5.72566 7.86699 5.72566C7.77249 5.72166 7.73499 5.74666 7.79549 5.84217C7.90349 6.01217 7.91849 6.20167 7.91849 6.39918C7.91516 8.2889 7.91433 10.1788 7.91599 12.0688L7.91699 12.0668ZM1.32881 10.9468C1.32881 12.6179 1.32881 14.2892 1.32881 15.9609C1.32881 16.111 1.35231 16.1845 1.52882 16.1835C3.48687 16.1778 5.44492 16.1778 7.40298 16.1835C7.55298 16.1835 7.59748 16.1335 7.59448 15.9884C7.58548 15.5349 7.62748 15.6094 7.23697 15.6094C7.06247 15.6094 6.98697 15.5444 6.99147 15.3664C6.99747 14.9049 6.99147 14.4434 6.99147 13.9819C6.99147 13.5204 6.99147 13.5149 7.44848 13.4874C7.55198 13.4814 7.59348 13.4464 7.59148 13.3419C7.58948 13.2374 7.54498 13.2084 7.45298 13.2119C7.39698 13.2119 7.34098 13.2119 7.28447 13.2119C7.01547 13.2119 6.99247 13.1894 6.99197 12.9269C6.99197 12.4713 6.98847 12.0163 6.99197 11.5608C6.99597 11.1608 6.90296 11.0608 7.43598 11.0903C7.53048 11.0958 7.58948 11.0718 7.59148 10.9583C7.59398 10.8343 7.52848 10.8113 7.42698 10.8163C7.35198 10.8193 7.27697 10.8163 7.20247 10.8163C7.05247 10.8208 6.98997 10.7468 6.99047 10.5993C6.99313 10.0379 6.99313 9.4766 6.99047 8.91525C6.99047 8.75475 7.06347 8.69624 7.21847 8.69324C7.60298 8.68624 7.59798 8.68224 7.59248 8.29323C7.59248 8.16273 7.54648 8.11823 7.41748 8.12023C7.06197 8.12623 6.70646 8.12373 6.35095 8.12023C6.12494 8.12023 6.09394 8.08723 6.09344 7.85672C6.09344 7.33321 6.09344 6.80919 6.09344 6.28518C6.0857 6.15352 6.11664 6.02247 6.18244 5.90817C6.28595 5.74716 6.23695 5.72216 6.06844 5.72266C4.5714 5.72766 3.07486 5.72516 1.57832 5.72566C1.32831 5.72566 1.32831 5.72566 1.32831 5.96967L1.32881 10.9468ZM13.7437 5.10164H17.1847C17.4218 5.10164 17.4708 5.05164 17.4718 4.81814C17.4718 4.41813 17.4718 4.01911 17.4718 3.6211C17.4718 3.3816 17.4218 3.33159 17.1907 3.33159C14.8907 3.33159 12.5906 3.33159 10.2906 3.33159C10.0656 3.33159 10.0146 3.3816 10.0136 3.6056C10.0136 3.99811 10.0136 4.39112 10.0136 4.78364C10.0136 5.06614 10.0506 5.10164 10.3411 5.10164H13.7437ZM3.41137 4.07912H1.97133C1.92133 4.07912 1.87132 4.07912 1.82132 4.07912C1.73232 4.08412 1.65782 4.11212 1.66032 4.21862C1.66032 4.31462 1.73132 4.34212 1.81032 4.34862C1.84732 4.35162 1.88483 4.34862 1.92233 4.34862H4.89691C4.92191 4.34862 4.94691 4.34862 4.97191 4.34862C5.06341 4.34562 5.15692 4.33562 5.16042 4.21712C5.16392 4.09862 5.07441 4.08012 4.98091 4.07662C4.93741 4.07662 4.89341 4.07662 4.84991 4.07662L3.41137 4.07912ZM2.81135 4.67913C2.49984 4.67913 2.18783 4.67913 1.87632 4.67913C1.77632 4.67913 1.65832 4.67563 1.66032 4.82014C1.66032 4.95064 1.77182 4.95114 1.86682 4.95164H3.75588C3.85138 4.95164 3.96038 4.95164 3.96238 4.82014C3.96238 4.67563 3.84738 4.67963 3.74638 4.67913C3.43637 4.67613 3.12486 4.67613 2.81285 4.67613L2.81135 4.67913ZM2.80785 3.75461C3.12586 3.75461 3.44387 3.75461 3.76188 3.75461C3.85838 3.75461 3.96188 3.74861 3.96188 3.6176C3.96188 3.4866 3.85488 3.4826 3.75838 3.4826C3.12869 3.4826 2.49901 3.4826 1.86932 3.4826C1.77482 3.4826 1.66482 3.4826 1.65932 3.6106C1.65382 3.75511 1.76982 3.75461 1.87182 3.75461C2.18583 3.75461 2.49684 3.75361 2.80935 3.75361L2.80785 3.75461ZM2.96435 1.80855C3.15086 1.80855 3.33686 1.80505 3.52287 1.80855C3.64587 1.81155 3.65937 1.76205 3.61537 1.66105C3.51537 1.42904 3.21986 1.23104 2.95785 1.24454C2.82325 1.24624 2.69173 1.28511 2.57782 1.35684C2.46391 1.42858 2.37203 1.53039 2.31234 1.65105C2.25834 1.75105 2.26934 1.81305 2.40634 1.80905C2.59384 1.80355 2.77985 1.80755 2.96585 1.80755L2.96435 1.80855ZM11.3341 1.80855C11.5266 1.80855 11.7191 1.80605 11.9111 1.80855C12.0151 1.80855 12.0446 1.77555 12.0051 1.67405C11.9121 1.43854 11.6051 1.23654 11.3371 1.24204C11.0691 1.24754 10.7761 1.44204 10.6871 1.67105C10.6491 1.76655 10.6676 1.81055 10.7771 1.80855C10.9636 1.80505 11.1496 1.80755 11.3356 1.80755L11.3341 1.80855ZM16.1287 1.80855C16.3207 1.80855 16.5132 1.80605 16.7057 1.80855C16.8157 1.80855 16.8327 1.76605 16.7942 1.67105C16.7007 1.43954 16.4132 1.24754 16.1442 1.24204C15.8847 1.23704 15.5882 1.42654 15.4837 1.65705C15.4297 1.77655 15.4687 1.81205 15.5897 1.80705C15.7702 1.80405 15.9502 1.80755 16.1302 1.80755L16.1287 1.80855ZM13.7407 1.80855C13.9267 1.80855 14.1132 1.80555 14.2992 1.80855C14.4157 1.81155 14.4417 1.77055 14.3962 1.66405C14.2962 1.43254 14.0052 1.24204 13.7402 1.24204C13.4751 1.24204 13.1816 1.43404 13.0836 1.66405C13.0386 1.77055 13.0661 1.81155 13.1836 1.80855C13.3696 1.80405 13.5561 1.80755 13.7422 1.80755L13.7407 1.80855ZM7.75649 1.80855C7.94249 1.80855 8.129 1.80505 8.315 1.80855C8.43951 1.81155 8.44901 1.75855 8.40551 1.65855C8.3055 1.42604 8.00949 1.23754 7.74749 1.24054C7.48548 1.24354 7.18697 1.43704 7.09397 1.66655C7.05747 1.75655 7.06447 1.80855 7.17947 1.80655C7.37298 1.80505 7.56548 1.80755 7.75799 1.80755L7.75649 1.80855ZM5.36092 1.80855C5.54743 1.80855 5.73343 1.80505 5.91944 1.80855C6.04444 1.81155 6.05344 1.75855 6.00994 1.65855C5.90994 1.42604 5.61393 1.23754 5.35192 1.24054C5.08991 1.24354 4.79141 1.43704 4.6984 1.66655C4.6624 1.75655 4.6689 1.80855 4.78391 1.80655C4.97791 1.80505 5.17042 1.80755 5.36242 1.80755L5.36092 1.80855ZM5.21092 4.95214C5.42842 4.95214 5.64593 4.95214 5.86094 4.95214C5.96094 4.95214 6.06544 4.93164 6.06544 4.81264C6.06544 4.70663 5.96544 4.68013 5.87344 4.68013C5.42609 4.68013 4.97841 4.68013 4.5304 4.68013C4.4374 4.68013 4.34789 4.70063 4.35039 4.81914C4.35289 4.93764 4.4449 4.95114 4.5369 4.95164C4.7659 4.95214 4.98991 4.95114 5.21392 4.95114L5.21092 4.95214ZM16.1702 2.99559C16.5597 3.00109 16.9792 2.68858 17.0982 2.30157C17.1147 2.24757 17.1682 2.17356 17.0762 2.14456C17.0007 2.12006 16.9092 2.11306 16.8687 2.21206C16.7362 2.53807 16.4987 2.71508 16.1457 2.74008C16.1282 2.74025 16.111 2.74423 16.0951 2.75174C16.0793 2.75926 16.0654 2.77013 16.0542 2.78359C16.043 2.79706 16.0349 2.8128 16.0304 2.82973C16.0259 2.84665 16.0252 2.86434 16.0282 2.88158C16.0387 2.96558 16.0972 2.99459 16.1732 2.99459L16.1702 2.99559ZM13.7747 2.99559C14.1642 3.00109 14.5842 2.68858 14.7027 2.30157C14.7192 2.24757 14.7727 2.17356 14.6807 2.14456C14.6052 2.12006 14.5137 2.11306 14.4732 2.21206C14.3407 2.53807 14.1037 2.71508 13.7502 2.74008C13.7327 2.74023 13.7154 2.74421 13.6996 2.75173C13.6838 2.75925 13.6699 2.77013 13.6587 2.78361C13.6476 2.79709 13.6395 2.81284 13.6351 2.82976C13.6307 2.84669 13.63 2.86437 13.6332 2.88158C13.6432 2.96558 13.7002 2.99459 13.7777 2.99459L13.7747 2.99559ZM11.3796 2.99559C11.7691 3.00109 12.1886 2.68858 12.3076 2.30157C12.3241 2.24757 12.3771 2.17356 12.2856 2.14456C12.2096 2.12006 12.1181 2.11306 12.0781 2.21206C11.9456 2.53807 11.7081 2.71508 11.3546 2.74008C11.3371 2.74023 11.3199 2.74421 11.3041 2.75173C11.2883 2.75925 11.2743 2.77013 11.2632 2.78361C11.252 2.79709 11.244 2.81284 11.2395 2.82976C11.2351 2.84669 11.2344 2.86437 11.2376 2.88158C11.2471 2.96558 11.3046 2.99459 11.3826 2.99459L11.3796 2.99559ZM7.78749 2.99559C8.1645 3.00309 8.58101 2.70108 8.70701 2.32207C8.72602 2.26557 8.79252 2.18356 8.69501 2.14606C8.59751 2.10856 8.51001 2.12256 8.47101 2.24207C8.44033 2.33031 8.39086 2.41083 8.326 2.47807C8.25787 2.55476 8.17518 2.61714 8.08273 2.6616C7.99029 2.70606 7.88993 2.73172 7.78749 2.73708C7.70199 2.74208 7.62348 2.78708 7.63748 2.88708C7.64698 2.96259 7.71399 2.99409 7.79049 2.99459L7.78749 2.99559ZM5.37942 2.99559C5.75693 3.02059 6.20444 2.68858 6.32095 2.29557C6.33745 2.24007 6.38645 2.16756 6.29095 2.14256C6.22045 2.12406 6.13144 2.11306 6.09544 2.20206C5.96094 2.53507 5.72093 2.71658 5.35992 2.74208C5.34242 2.74284 5.3253 2.74747 5.30979 2.75563C5.29429 2.7638 5.2808 2.77531 5.27028 2.78932C5.25975 2.80333 5.25247 2.8195 5.24895 2.83667C5.24543 2.85383 5.24576 2.87156 5.24992 2.88858C5.26142 2.96309 5.31392 2.98959 5.38242 2.99509L5.37942 2.99559ZM2.99336 2.99559C3.35737 3.00459 3.76738 2.72058 3.90288 2.35607C3.92638 2.29207 4.01488 2.19756 3.90288 2.14656C3.80288 2.10156 3.71138 2.13556 3.67187 2.26107C3.63146 2.37333 3.56024 2.47193 3.46637 2.54557C3.33517 2.66241 3.16741 2.72994 2.99186 2.73658C2.90785 2.74008 2.84885 2.78658 2.85385 2.87908C2.86135 2.96309 2.91835 2.99359 2.99686 2.99459L2.99336 2.99559Z" fill="#777777"/>
<path d="M9.1995 7.64794C9.31601 7.65494 9.47301 7.62894 9.62701 7.66594C10.2055 7.80594 10.492 8.46596 10.1985 9.00447C10.1686 9.04979 10.1526 9.10291 10.1526 9.15723C10.1526 9.21155 10.1686 9.26467 10.1985 9.30998C10.5415 9.945 10.106 10.663 9.38201 10.6665C9.182 10.6665 8.982 10.664 8.78199 10.6665C8.68199 10.6665 8.63599 10.625 8.63599 10.522C8.63599 9.61099 8.63599 8.7003 8.63599 7.78994C8.63599 7.68544 8.68199 7.64444 8.78299 7.64694C8.91099 7.64994 9.036 7.64794 9.1995 7.64794ZM9.67502 8.56696C9.68152 8.41096 9.50451 8.24195 9.35401 8.27745C9.1875 8.31695 9.2705 8.46396 9.2705 8.55796C9.2705 8.65196 9.1875 8.79847 9.35401 8.83797C9.49701 8.87247 9.66902 8.71747 9.67502 8.56696ZM9.254 9.73399C9.31951 9.8275 9.154 10.021 9.38551 10.034C9.46122 10.0339 9.53389 10.0042 9.58799 9.9512C9.64208 9.89822 9.67332 9.82619 9.67502 9.75049C9.66933 9.67489 9.63523 9.60424 9.57957 9.55276C9.52391 9.50127 9.45082 9.47277 9.37501 9.47299C9.18 9.48449 9.303 9.64599 9.254 9.73399Z" fill="#777777"/>
<path d="M11.9587 9.15708C11.9587 9.39409 11.9637 9.6311 11.9587 9.8681C11.9547 9.99611 11.9977 10.0481 12.1302 10.0436C12.4187 10.0341 12.4092 10.0236 12.4097 10.3331C12.4097 10.3896 12.4057 10.4456 12.4097 10.5016C12.4182 10.6211 12.3667 10.6686 12.2462 10.6671C11.8462 10.6631 11.447 10.6631 11.0487 10.6671C10.9267 10.6671 10.8777 10.6171 10.8867 10.5001C10.8902 10.4566 10.8867 10.4126 10.8867 10.3691C10.8867 10.0601 10.8867 10.0551 11.1867 10.0441C11.3022 10.0396 11.3367 9.99411 11.3367 9.8851C11.3332 9.39859 11.3322 8.91208 11.3367 8.42556C11.3367 8.29706 11.2792 8.26706 11.1652 8.26956C10.8767 8.27706 10.8862 8.28906 10.8857 7.97955C10.8857 7.92305 10.8897 7.86705 10.8857 7.81105C10.8772 7.69104 10.9287 7.64404 11.0492 7.64554C11.4492 7.64954 11.8492 7.64954 12.2492 7.64554C12.3712 7.64554 12.4202 7.69554 12.4112 7.81255C12.4077 7.85605 12.4112 7.90005 12.4112 7.94355C12.4112 8.25256 12.4112 8.25756 12.1112 8.26856C11.9957 8.27306 11.9612 8.31856 11.9612 8.42756C11.9617 8.67057 11.9587 8.91408 11.9587 9.15708Z" fill="#777777"/>
<path d="M15.0767 9.14065C15.0767 8.70464 15.0802 8.26813 15.0767 7.83212C15.0767 7.69811 15.1172 7.64211 15.2582 7.64461C15.7877 7.65511 15.6972 7.58761 15.7017 8.07112C15.7072 8.64464 15.7017 9.21765 15.7017 9.79117C15.7017 10.0412 15.7017 10.0412 15.9437 10.0412C16.1057 10.0412 16.2677 10.0452 16.4297 10.0412C16.5437 10.0377 16.6023 10.0732 16.6008 10.1992C16.5928 10.7662 16.6628 10.6557 16.1597 10.6652C15.8732 10.6707 15.5862 10.6587 15.2997 10.6692C15.1327 10.6757 15.0692 10.6247 15.0737 10.4492C15.0842 10.0132 15.0767 9.57617 15.0767 9.14065Z" fill="#777777"/>
<path d="M12.9805 9.13966C12.9805 8.70314 12.9845 8.26713 12.9805 7.83112C12.9805 7.69612 13.0235 7.64211 13.163 7.64461C13.691 7.65511 13.601 7.58711 13.6055 8.07263C13.6112 8.66398 13.6112 9.25583 13.6055 9.84818C13.6055 9.99068 13.642 10.0537 13.795 10.0442C13.975 10.0332 14.1565 10.0442 14.337 10.0412C14.452 10.0382 14.5085 10.0752 14.507 10.2002C14.499 10.7657 14.569 10.6557 14.065 10.6652C13.7725 10.6707 13.479 10.6597 13.1865 10.6687C13.034 10.6732 12.978 10.6232 12.981 10.4687C12.986 10.0262 12.9805 9.58217 12.9805 9.13966Z" fill="#777777"/>
<path d="M13.4232 15.6064H10.3201C10.2641 15.6064 10.2076 15.6064 10.1521 15.6039C10.0476 15.5989 9.98957 15.5449 9.99157 15.4389C9.99014 15.4186 9.99301 15.3982 9.99998 15.3792C10.007 15.3601 10.0179 15.3427 10.032 15.3281C10.0462 15.3135 10.0633 15.3021 10.0821 15.2945C10.101 15.287 10.1213 15.2835 10.1416 15.2844C10.1916 15.2804 10.2416 15.2814 10.2916 15.2814H16.6678C16.7813 15.2814 16.8898 15.2929 16.8928 15.4399C16.8958 15.5869 16.7928 15.6079 16.6763 15.6064C16.5952 15.6064 16.5142 15.6064 16.4332 15.6064H13.4232Z" fill="#777777"/>
<path d="M13.4471 14.1103H10.3041C10.2418 14.1126 10.1795 14.1104 10.1176 14.1038C10.0815 14.0962 10.0492 14.0762 10.0262 14.0475C10.0032 14.0187 9.99094 13.9828 9.99147 13.9459C9.992 13.9091 10.0053 13.8736 10.0291 13.8454C10.053 13.8173 10.0858 13.7984 10.1221 13.7918C10.1779 13.786 10.234 13.784 10.2901 13.7858H16.7022C16.8082 13.7858 16.8897 13.8203 16.8932 13.9408C16.8967 14.0718 16.8127 14.1098 16.6977 14.1098H13.4471V14.1103Z" fill="#777777"/>
<path d="M11.7806 12.0139H9.38908C9.32688 12.0167 9.26456 12.0132 9.20308 12.0034C9.16925 11.9967 9.13914 11.9776 9.11869 11.9499C9.09824 11.9221 9.08892 11.8877 9.09257 11.8534C9.0893 11.819 9.09889 11.7847 9.11949 11.7569C9.14009 11.7292 9.17022 11.7102 9.20408 11.7034C9.25354 11.6944 9.30386 11.691 9.35408 11.6934H14.2302C14.2803 11.6908 14.3306 11.6933 14.3802 11.7009C14.4146 11.7062 14.4458 11.7239 14.4681 11.7506C14.4903 11.7773 14.5021 11.8111 14.5012 11.8459C14.5065 11.8837 14.4967 11.9221 14.4738 11.9527C14.451 11.9833 14.417 12.0037 14.3792 12.0094C14.3176 12.0181 14.2553 12.0208 14.1932 12.0174L11.7806 12.0139Z" fill="#777777"/>
<path d="M12.5471 16.1798H14.8087C14.8646 16.177 14.9207 16.1795 14.9762 16.1873C14.9948 16.1899 15.0128 16.1961 15.0291 16.2057C15.0453 16.2152 15.0595 16.2279 15.0709 16.2429C15.0822 16.258 15.0904 16.2751 15.0951 16.2934C15.0998 16.3117 15.1008 16.3307 15.0982 16.3493C15.1006 16.3841 15.0897 16.4185 15.0679 16.4457C15.046 16.4728 15.0147 16.4907 14.9802 16.4958C14.9184 16.5042 14.856 16.507 14.7937 16.5043H10.2895C10.2336 16.5063 10.1776 16.5043 10.122 16.4983C10.0858 16.4917 10.053 16.4726 10.0292 16.4445C10.0054 16.4163 9.99218 16.3808 9.99171 16.344C9.99124 16.3071 10.0036 16.2712 10.0266 16.2425C10.0497 16.2137 10.082 16.1939 10.118 16.1863C10.1736 16.1796 10.2296 16.1774 10.2855 16.1798H12.5471Z" fill="#777777"/>
<path d="M12.5471 15.0077H10.321C10.265 15.0077 10.2085 15.0077 10.153 15.0077C10.049 15.0027 9.9895 14.9497 9.9915 14.8432C9.9935 14.7367 10.059 14.6897 10.161 14.6862C10.1985 14.6862 10.2355 14.6862 10.273 14.6862H14.8141C14.8642 14.6845 14.9143 14.6862 14.9641 14.6912C14.9828 14.6921 15.0011 14.6968 15.018 14.7048C15.0349 14.7129 15.05 14.7243 15.0624 14.7382C15.0749 14.7521 15.0845 14.7684 15.0906 14.7861C15.0967 14.8038 15.0993 14.8225 15.0981 14.8412C15.1008 14.8614 15.099 14.8821 15.0931 14.9016C15.0872 14.9212 15.0772 14.9393 15.0638 14.9548C15.0504 14.9702 15.0339 14.9826 15.0153 14.9912C14.9968 14.9998 14.9766 15.0044 14.9561 15.0047C14.9006 15.0102 14.8441 15.0087 14.7881 15.0087L12.5471 15.0077Z" fill="#777777"/>
<path d="M12.5471 13.511H10.303C10.247 13.511 10.1905 13.511 10.135 13.507C10.095 13.5032 10.058 13.4843 10.0313 13.4543C10.0046 13.4242 9.99018 13.3852 9.991 13.345C9.99182 13.3048 10.0078 13.2665 10.0357 13.2375C10.0636 13.2086 10.1014 13.1913 10.1415 13.189C10.185 13.1855 10.229 13.186 10.2725 13.186H14.8137C14.8637 13.1846 14.9138 13.1864 14.9637 13.1915C14.9824 13.1924 15.0007 13.197 15.0177 13.2051C15.0346 13.2131 15.0498 13.2245 15.0623 13.2384C15.0748 13.2524 15.0844 13.2687 15.0906 13.2864C15.0967 13.3041 15.0993 13.3228 15.0982 13.3415C15.1009 13.3618 15.0994 13.3825 15.0935 13.4021C15.0877 13.4218 15.0778 13.4399 15.0644 13.4554C15.051 13.471 15.0345 13.4834 15.0159 13.4921C14.9973 13.5007 14.9771 13.5053 14.9567 13.5055C14.9008 13.51 14.8447 13.5115 14.7887 13.51L12.5471 13.511Z" fill="#777777"/>
<path d="M9.10912 15.8812C9.24012 15.8812 9.37112 15.8812 9.50163 15.8812C9.63213 15.8812 9.71263 15.9377 9.71213 16.0812C9.71213 16.3559 9.71213 16.63 9.71213 16.9037C9.71213 17.0457 9.64163 17.1067 9.50363 17.1037C9.23562 17.1037 8.96761 17.1037 8.6996 17.1037C8.5496 17.1037 8.4861 17.0332 8.4881 16.8857C8.4916 16.6237 8.4926 16.3622 8.4881 16.1002C8.4856 15.9397 8.5606 15.8742 8.7161 15.8792C8.84711 15.8847 8.97811 15.8812 9.10912 15.8812Z" fill="#777777"/>
<path d="M9.71103 15.0098C9.71103 15.1468 9.71103 15.2843 9.71103 15.4213C9.71103 15.5433 9.64653 15.6053 9.52503 15.6053C9.23852 15.6053 8.95201 15.6053 8.665 15.6053C8.64142 15.6077 8.61757 15.6049 8.59524 15.5969C8.5729 15.589 8.55263 15.5761 8.53593 15.5592C8.51924 15.5424 8.50653 15.522 8.49875 15.4996C8.49098 15.4772 8.48833 15.4533 8.491 15.4298C8.491 15.1434 8.491 14.8568 8.491 14.5697C8.491 14.4477 8.5555 14.3862 8.6765 14.3857C8.96351 14.3857 9.25002 14.3857 9.53653 14.3857C9.65003 14.3857 9.70903 14.4492 9.71053 14.5612C9.71253 14.7108 9.71103 14.8603 9.71103 15.0098Z" fill="#777777"/>
<path d="M9.11086 12.8865C9.24186 12.8865 9.37286 12.8865 9.50337 12.8865C9.64187 12.884 9.71287 12.9455 9.71187 13.0865C9.71187 13.3606 9.71187 13.6347 9.71187 13.9091C9.71187 14.0516 9.63887 14.1091 9.50187 14.1091C9.23386 14.1091 8.96585 14.1091 8.69785 14.1091C8.54784 14.1091 8.48634 14.0361 8.48834 13.8896C8.49234 13.6276 8.49234 13.3657 8.48834 13.104C8.48584 12.9425 8.56384 12.88 8.71835 12.885C8.84685 12.89 8.97985 12.8865 9.11086 12.8865Z" fill="#777777"/>
<path d="M10.747 12.6131H8.80394C8.75394 12.6131 8.70394 12.6131 8.65394 12.6106C8.54994 12.6051 8.49194 12.5516 8.49394 12.4451C8.49267 12.4249 8.49565 12.4046 8.50268 12.3856C8.50971 12.3666 8.52064 12.3492 8.53476 12.3347C8.54888 12.3201 8.56589 12.3087 8.58469 12.3011C8.60349 12.2935 8.62368 12.29 8.64394 12.2906C8.68694 12.2871 8.73094 12.2906 8.77444 12.2906H12.7746C12.8881 12.2906 12.9961 12.3021 12.9991 12.4486C13.0021 12.5951 12.8991 12.6171 12.7826 12.6151C12.7081 12.6151 12.6326 12.6151 12.5585 12.6151L10.747 12.6131Z" fill="#777777"/>
<path d="M15.0883 12.6121H13.5192C13.3992 12.6121 13.2827 12.6031 13.2862 12.4436C13.2892 12.2961 13.3997 12.2866 13.5122 12.2871H16.6688C16.7828 12.2871 16.8913 12.3001 16.8928 12.4466C16.8928 12.6066 16.7758 12.6126 16.6568 12.6126L15.0883 12.6121Z" fill="#777777"/>
<path d="M11.7972 16.7794H13.3472C13.4677 16.7794 13.6023 16.7714 13.6008 16.9459C13.6008 17.1064 13.4742 17.1044 13.3582 17.1044H10.1832C10.0767 17.1044 9.99615 17.0684 9.99365 16.9479C9.99365 16.8164 10.0762 16.7804 10.1907 16.7804C10.725 16.7804 11.2605 16.78 11.7972 16.7794Z" fill="#777777"/>
<path d="M12.5426 6.92267C12.163 6.92267 11.7835 6.92267 11.404 6.92267C11.286 6.92267 11.1865 6.89916 11.1895 6.75416C11.1925 6.62066 11.2895 6.59766 11.3975 6.59766H13.6936C13.8046 6.59766 13.8976 6.62416 13.8986 6.75666C13.8986 6.90266 13.7986 6.92267 13.6811 6.92267C13.3016 6.92217 12.9221 6.92267 12.5426 6.92267Z" fill="#777777"/>
<path d="M11.3371 11.4149H10.5161C10.4031 11.4149 10.2951 11.4039 10.2916 11.2568C10.2881 11.1098 10.3916 11.0898 10.5071 11.0898C11.0671 11.0898 11.6268 11.0898 12.1861 11.0898C12.3031 11.0898 12.4051 11.1123 12.4016 11.2573C12.3981 11.4024 12.2896 11.4154 12.1761 11.4149H11.3371Z" fill="#777777"/>
<path d="M15.8378 11.6885H16.6583C16.7778 11.6885 16.8948 11.696 16.8928 11.8555C16.8928 12.002 16.7813 12.0135 16.6683 12.0135H15.0077C14.8947 12.0135 14.7857 12.0025 14.7832 11.856C14.7807 11.696 14.8977 11.688 15.0172 11.6885H15.8378Z" fill="#777777"/>
<path d="M12.5471 6.32647C12.3666 6.32647 12.1866 6.32647 12.0066 6.32647C11.8895 6.32647 11.789 6.30447 11.791 6.15946C11.791 6.02696 11.8865 6.00146 11.9965 6.00196C12.3632 6.00196 12.7299 6.00196 13.0966 6.00196C13.2071 6.00196 13.3006 6.02696 13.3031 6.15946C13.3056 6.30447 13.2031 6.32797 13.0876 6.32697C12.9046 6.32647 12.7246 6.32647 12.5471 6.32647Z" fill="#777777"/>
<path d="M9.23393 11.4148H8.67491C8.56591 11.4148 8.49291 11.3693 8.49441 11.2508C8.49591 11.1323 8.57291 11.0918 8.67991 11.0918H9.81644C9.92245 11.0918 10.0034 11.1268 10.0064 11.2468C10.0099 11.3773 9.92595 11.4158 9.81144 11.4153L9.23393 11.4148Z" fill="#777777"/>
<path d="M3.71329 8.12088C3.09578 8.12088 2.47826 8.12088 1.86324 8.12088C1.63574 8.12088 1.60574 8.08938 1.60474 7.85837C1.60474 7.42203 1.60474 6.98551 1.60474 6.54884C1.60474 6.33333 1.63924 6.29883 1.85774 6.29883C3.09111 6.29883 4.32598 6.29883 5.56235 6.29883C5.79035 6.29883 5.82035 6.33033 5.82085 6.56084C5.82085 6.99752 5.82085 7.43403 5.82085 7.87037C5.82085 8.08388 5.78385 8.12038 5.56735 8.12038C4.94683 8.12188 4.33081 8.12088 3.71329 8.12088Z" fill="#777777"/>
<path d="M5.50595 15.6065C5.18195 15.6065 4.85594 15.603 4.53343 15.6065C4.36842 15.609 4.29442 15.5445 4.29592 15.375C4.30042 14.82 4.29942 14.2649 4.29592 13.7099C4.29592 13.5539 4.35792 13.4819 4.51793 13.4824C5.17895 13.4854 5.8398 13.4854 6.50048 13.4824C6.65049 13.4824 6.71849 13.5439 6.71799 13.6944C6.71599 14.2611 6.71599 14.8278 6.71799 15.3945C6.71799 15.5445 6.64199 15.6045 6.49698 15.603C6.16697 15.6045 5.83646 15.6065 5.50595 15.6065Z" fill="#777777"/>
<path d="M2.81267 13.4857C3.13718 13.4857 3.46268 13.4897 3.78519 13.4857C3.9497 13.4827 4.0262 13.5447 4.0247 13.7152C4.0207 14.2702 4.0207 14.825 4.0247 15.3797C4.0247 15.5502 3.9492 15.6112 3.78569 15.6102C3.13568 15.6062 2.48866 15.6052 1.84014 15.6102C1.66063 15.6102 1.59863 15.5342 1.60063 15.3602C1.60613 14.8177 1.60063 14.2752 1.60063 13.7332C1.60063 13.5207 1.63713 13.4872 1.85614 13.4862C2.17665 13.4847 2.49666 13.4857 2.81267 13.4857Z" fill="#777777"/>
<path d="M5.51737 11.09C5.83538 11.09 6.15339 11.095 6.4714 11.09C6.64391 11.086 6.72141 11.1495 6.72141 11.3295C6.71574 11.8782 6.71574 12.4267 6.72141 12.9751C6.72141 13.1551 6.64441 13.2161 6.4714 13.2151C5.82938 13.2101 5.18686 13.2151 4.54485 13.2151C4.33234 13.2151 4.29884 13.1791 4.29834 12.9591C4.29834 12.4231 4.29834 11.8869 4.29834 11.3505C4.29834 11.126 4.33184 11.0955 4.56385 11.0945C4.88136 11.089 5.19937 11.09 5.51737 11.09Z" fill="#777777"/>
<path d="M2.81284 13.2114C2.49483 13.2114 2.17732 13.2114 1.85931 13.2114C1.63931 13.2114 1.60381 13.1774 1.60331 12.9654C1.60131 12.423 1.60131 11.8805 1.60331 11.3378C1.60331 11.1253 1.63981 11.0913 1.85881 11.0908C2.49483 11.0908 3.13085 11.0908 3.76687 11.0908C3.98637 11.0908 4.02187 11.1248 4.02287 11.3373C4.02487 11.88 4.02487 12.4224 4.02287 12.9644C4.02287 13.1769 3.98637 13.2104 3.76687 13.2114C3.44686 13.2129 3.13085 13.2114 2.81284 13.2114Z" fill="#777777"/>
</svg>
