<svg width="46" height="46" viewBox="0 0 46 46" fill="none" xmlns="http://www.w3.org/2000/svg">
<g clip-path="url(#clip0_39130_315318)">
<g clip-path="url(#clip1_39130_315318)">
<path d="M30.3661 41.5204C30.2092 41.8125 29.9533 41.955 29.7317 42.1268C26.0331 44.9266 21.8489 46.2295 17.2347 45.8788C11.094 45.4108 6.29566 42.5433 2.92076 37.3884C0.961178 34.3966 0.0233706 31.0772 0.0253939 27.4971C0.0253939 25.61 0.531223 23.8362 1.26366 22.1199C2.88839 18.2901 5.22532 14.895 7.77571 11.6393C10.6994 7.90763 13.9003 4.42557 17.2853 1.11231C18.0188 0.394669 18.904 0.365357 19.6121 1.04964C24.4591 5.71106 28.812 10.8595 32.6018 16.4132C32.6526 16.4801 32.6999 16.5496 32.7435 16.6214C32.794 16.7224 32.9256 16.8134 32.8153 16.9307C32.7333 17.0176 32.6241 16.9367 32.533 16.9074C31.7463 16.6561 30.9399 16.4708 30.1222 16.3535C26.8172 15.9088 23.7882 16.6456 21.075 18.5701C17.9914 20.7574 16.2109 23.7705 15.8032 27.5133C15.4158 31.0732 16.3738 34.2854 18.6996 37.0508C20.8089 39.5555 23.5151 41.0008 26.7514 41.4648C27.8357 41.6255 28.9378 41.6255 30.0221 41.4648C30.0797 41.4458 30.141 41.441 30.2009 41.4507C30.2607 41.4603 30.3174 41.4843 30.3661 41.5204Z" fill="#C50E11"/>
<path d="M28.3995 38.8336C27.0902 38.8386 25.7928 38.5849 24.5821 38.0869C23.3713 37.589 22.2711 36.8567 21.3448 35.9321C20.4186 35.0076 19.6845 33.9091 19.1848 32.7C18.6852 31.4908 18.4299 30.1948 18.4337 28.8867C18.4144 23.3538 23.0428 18.9014 28.4602 18.9338C33.6561 18.9651 38.4058 23.1416 38.3745 28.9484C38.3471 34.6531 33.65 38.9245 28.3995 38.8336ZM27.3352 32.3041C27.8411 32.3324 28.1982 32.017 28.5351 31.6825C30.0485 30.1744 31.5593 28.6637 33.0673 27.1502C33.7279 26.4882 33.7987 25.6432 33.2484 25.0913C32.6616 24.503 31.8705 24.5212 31.1937 25.1843C30.1375 26.2193 29.0949 27.2675 28.0657 28.3288C27.3524 29.0666 27.2826 29.0838 26.5957 28.347C26.5037 28.2459 26.4177 28.1448 26.3175 28.0548C25.662 27.4747 24.883 27.4747 24.3316 28.0548C23.8137 28.5956 23.843 29.3921 24.4267 29.9995C25.0104 30.607 25.6326 31.2205 26.2426 31.8189C26.5391 32.11 26.878 32.3202 27.3352 32.3041Z" fill="#C50E11"/>
<path d="M45.4057 41.8703C45.3116 43.4582 44.4952 44.8277 42.8179 45.5383C41.1749 46.2327 39.5806 46.0083 38.2573 44.7823C36.8258 43.4531 35.4823 42.0381 34.0883 40.6665C33.7575 40.341 34.0266 40.2622 34.2522 40.1378C36.0479 39.1776 37.5643 37.8929 38.7358 36.2222C39.0705 35.7378 39.3782 35.2353 39.6575 34.7171C39.8315 34.4008 39.961 34.324 40.2432 34.6161C41.5654 35.9594 42.918 37.2744 44.2312 38.6267C45.0415 39.4576 45.4118 40.4886 45.4057 41.8703Z" fill="#C50E11"/>
</g>
</g>
<defs>
<clipPath id="clip0_39130_315318">
<rect width="45.994" height="46" fill="white"/>
</clipPath>
<clipPath id="clip1_39130_315318">
<rect width="45.382" height="45.382" fill="white" transform="translate(0.0253906 0.546875)"/>
</clipPath>
</defs>
</svg>
