<svg width="61" height="61" viewBox="0 0 61 61" fill="none" xmlns="http://www.w3.org/2000/svg">
<path d="M48.7225 29.8802V47.2901C48.7225 48.0926 48.715 48.0991 47.9189 48.1001C46.0619 48.1001 44.205 48.1001 42.347 48.1001C41.6441 48.1001 41.5316 48.2073 41.5294 48.9059C41.5294 50.6021 41.5144 52.2983 41.5359 53.9945C41.5423 54.5067 41.3644 54.6717 40.8523 54.6696C34.8518 54.6553 28.8513 54.6553 22.8509 54.6696C22.4094 54.6696 22.1919 54.5785 22.2626 54.061C22.7351 50.5925 21.1064 47.423 17.9648 45.7235C17.5362 45.491 17.4022 45.2189 17.4022 44.7592C17.4122 33.9769 17.4172 23.1936 17.4172 12.4092C17.4172 12.1413 17.2608 11.6913 17.7097 11.6773C18.2123 11.6634 18.0312 12.1392 18.043 12.4167C18.0826 13.6843 18.7063 14.3218 19.9856 14.3229C28.7006 14.3229 37.4131 14.3229 46.123 14.3229C47.4495 14.3229 48.0421 13.7196 48.0614 12.3942C48.0614 12.287 48.0614 12.1799 48.0678 12.0727C48.0828 11.8691 48.1128 11.6677 48.3893 11.6634C48.6657 11.6591 48.7107 11.8434 48.7107 12.0577C48.7171 12.2356 48.7171 12.4145 48.7171 12.5935L48.7225 29.8802ZM28.8278 40.1388H36.8534C37.0321 40.1432 37.211 40.1378 37.3891 40.1227C37.5072 40.1193 37.6195 40.0709 37.7031 39.9874C37.7867 39.904 37.8354 39.7918 37.8392 39.6738C37.8627 39.3963 37.6902 39.2312 37.447 39.1755C37.2195 39.1331 36.9882 39.1148 36.7569 39.1209C31.478 39.1209 26.1983 39.1209 20.9179 39.1209C20.7028 39.1141 20.4876 39.127 20.2749 39.1595C20.2167 39.1664 20.1605 39.185 20.1096 39.2141C20.0587 39.2432 20.0141 39.2823 19.9786 39.329C19.9432 39.3757 19.9174 39.429 19.903 39.4859C19.8885 39.5427 19.8857 39.6019 19.8946 39.6599C19.9074 39.9267 20.0435 40.0981 20.3167 40.1249C20.495 40.1387 20.6738 40.1433 20.8525 40.1388H28.8278ZM28.8063 42.8176C31.4837 42.8176 34.1624 42.8176 36.8427 42.8176C37.0387 42.8244 37.235 42.8162 37.4298 42.793C37.5386 42.7832 37.6402 42.7345 37.7158 42.6557C37.7915 42.5769 37.836 42.4734 37.8413 42.3643C37.8649 42.1115 37.7224 41.9668 37.5006 41.8832C37.2605 41.7911 37.0098 41.8007 36.7601 41.8007C31.474 41.8007 26.1879 41.8007 20.9018 41.8007C20.688 41.7981 20.4745 41.8161 20.2642 41.8543C20.0006 41.9057 19.871 42.0868 19.8946 42.3601C19.8946 42.4186 19.9061 42.4765 19.9286 42.5306C19.9511 42.5846 19.9841 42.6336 20.0256 42.6749C20.0672 42.7161 20.1164 42.7487 20.1706 42.7708C20.2248 42.7929 20.2829 42.8041 20.3414 42.8037C20.5193 42.8187 20.6982 42.8155 20.8771 42.8155L28.8063 42.8176ZM43.1496 46.3429C45.2765 46.3547 46.8559 44.0927 46.0812 42.1383C45.5305 40.7453 44.4943 39.6941 43.5739 38.5616C43.3392 38.2733 42.9749 38.2455 42.7295 38.5401C41.852 39.5934 40.9005 40.5996 40.3079 41.8618C39.2632 44.0841 40.9273 46.225 43.1496 46.3429ZM42.9803 34.5873C45.389 34.5873 46.8806 32.3746 46.0277 30.3163C45.4769 28.9865 44.4965 27.9589 43.5867 26.8874C43.3114 26.566 42.9492 26.566 42.6652 26.9153C41.8927 27.8518 41.0751 28.7519 40.4729 29.817C39.8965 30.836 39.7807 31.886 40.3465 32.9308C40.9412 34.0269 41.9184 34.5445 42.9803 34.5873ZM43.126 22.8939C45.3537 22.9689 46.8849 20.5462 46.0555 18.6507C45.4565 17.2824 44.4482 16.2227 43.5107 15.1083C43.2514 14.7997 42.9267 14.8511 42.6899 15.1597C41.9098 16.1745 41.0248 17.1099 40.3969 18.2425C39.1335 20.5205 40.9808 22.9432 43.126 22.8939ZM28.8278 18.4257C26.1683 18.4257 23.5081 18.4257 20.8471 18.4257C20.6683 18.4215 20.4895 18.4276 20.3114 18.4439C20.2529 18.446 20.1954 18.46 20.1425 18.4852C20.0896 18.5103 20.0424 18.546 20.0038 18.5901C19.9653 18.6342 19.9362 18.6857 19.9183 18.7414C19.9004 18.7972 19.8942 18.856 19.8999 18.9143C19.8938 19.0235 19.9311 19.1307 20.0038 19.2125C20.0765 19.2942 20.1786 19.3438 20.2878 19.3504C20.4832 19.371 20.6797 19.3792 20.8761 19.3751H36.8416C36.967 19.3751 37.0912 19.3751 37.2166 19.3751C37.5466 19.3686 37.8488 19.3001 37.8402 18.8875C37.8327 18.5114 37.552 18.4364 37.2402 18.43C37.0795 18.43 36.9187 18.43 36.758 18.43L28.8278 18.4257ZM28.8353 31.0695C31.514 31.0695 34.1864 31.0749 36.8619 31.0631C37.238 31.0631 37.8081 31.226 37.8177 30.6099C37.8274 29.9937 37.2734 30.1148 36.8823 30.1148C31.5133 30.1098 26.1443 30.1098 20.7753 30.1148C20.5961 30.1075 20.4166 30.1183 20.2396 30.147C19.9953 30.1963 19.8935 30.3806 19.8935 30.6206C19.8935 30.8606 20.0178 31.0278 20.2707 31.0492C20.4475 31.0663 20.6275 31.0663 20.8064 31.0663L28.8353 31.0695ZM28.8278 16.7006C31.5051 16.7006 34.1839 16.7006 36.8641 16.7006C37.0601 16.7053 37.2563 16.697 37.4513 16.6759C37.5597 16.6696 37.6613 16.6213 37.7347 16.5413C37.8081 16.4613 37.8475 16.3559 37.8445 16.2473C37.8531 15.9912 37.7042 15.8466 37.4727 15.7941C37.3153 15.7635 37.155 15.7505 36.9948 15.7555C31.5658 15.7555 26.139 15.7555 20.7143 15.7555C20.6253 15.7555 20.5364 15.7555 20.4464 15.7609C20.1442 15.7705 19.9106 15.8809 19.9042 16.2205C19.8978 16.5602 20.1185 16.6888 20.4228 16.7016C20.6018 16.7091 20.7796 16.7081 20.9586 16.7081L28.8278 16.7006ZM28.8278 28.3801C31.5065 28.3801 34.1853 28.3854 36.8641 28.3736C37.2402 28.3736 37.8113 28.5386 37.8199 27.9193C37.8284 27.3 37.2659 27.4318 36.878 27.4307C31.5205 27.4243 26.1629 27.4243 20.8053 27.4307C20.6448 27.4277 20.4843 27.4327 20.3242 27.4457C20.2654 27.4456 20.2072 27.4575 20.1532 27.4809C20.0993 27.5042 20.0507 27.5384 20.0105 27.5813C19.9703 27.6242 19.9393 27.6749 19.9196 27.7303C19.8998 27.7857 19.8917 27.8446 19.8956 27.9032C19.8849 28.184 20.0414 28.3372 20.3103 28.364C20.5053 28.3833 20.7025 28.3822 20.8986 28.3822L28.8278 28.3801ZM27.0265 33.8105C29.0967 33.8105 31.1679 33.8105 33.2413 33.8105C33.6313 33.8105 34.1778 33.9337 34.1864 33.324C34.196 32.6747 33.6281 32.799 33.222 32.7979C29.116 32.7915 25.0103 32.7915 20.905 32.7979C20.7262 32.7936 20.5473 32.8 20.3692 32.8172C20.0596 32.8525 19.8753 33.0218 19.8978 33.3529C19.9181 33.6487 20.0939 33.8019 20.3875 33.8137C20.5482 33.8212 20.7089 33.8212 20.8686 33.8212L27.0265 33.8105ZM27.0062 45.5028H33.2209C33.3997 45.508 33.5787 45.502 33.7567 45.4846C34.0085 45.4503 34.1971 45.3249 34.2089 45.0431C34.2207 44.7613 34.0632 44.6049 33.8006 44.5684C33.5013 44.5221 33.1991 44.4959 32.8963 44.4902C29.0045 44.4852 25.1132 44.4852 21.2222 44.4902C20.9013 44.4987 20.5812 44.5248 20.2632 44.5684C20.0081 44.5984 19.8935 44.7624 19.8999 45.0131C19.9063 45.2639 20.0231 45.4289 20.2642 45.4739C20.4415 45.5003 20.6209 45.51 20.8 45.5028C22.8659 45.5042 24.9346 45.5042 27.0062 45.5028ZM27.063 22.056H29.0421C30.5586 22.056 32.0744 22.056 33.5895 22.056C33.9239 22.056 34.2153 21.9724 34.2014 21.5599C34.1896 21.1806 33.9089 21.1152 33.5981 21.112H33.3302H20.7561C20.5957 21.108 20.4352 21.1159 20.276 21.1356C20.2221 21.14 20.1696 21.1551 20.1215 21.1798C20.0734 21.2046 20.0307 21.2386 19.9958 21.2799C19.9608 21.3212 19.9344 21.369 19.9179 21.4205C19.9015 21.4721 19.8954 21.5263 19.8999 21.5802C19.8894 21.689 19.9222 21.7974 19.9913 21.8821C20.0603 21.9668 20.1599 22.0208 20.2685 22.0324C20.4461 22.0558 20.6252 22.0651 20.8043 22.0603L27.063 22.056Z" fill="#700707"/>
<path d="M53.5497 33.1546C53.5497 40.7624 53.5089 48.3701 53.5786 55.9778C53.5968 57.9333 52.1374 59.5878 49.9472 59.5803C40.0015 59.5449 30.0557 59.5642 20.1089 59.5642C20.0732 59.5669 20.0374 59.5669 20.0017 59.5642C19.8024 59.5331 19.5174 59.6606 19.4306 59.4099C19.3567 59.1956 19.6299 59.1013 19.7638 58.9716C20.5892 58.2006 21.2459 57.267 21.6926 56.2296C21.8694 55.801 22.104 55.6789 22.5358 55.681C25.2682 55.696 28.0005 55.6885 30.7329 55.6885C34.3214 55.6885 37.912 55.681 41.4994 55.6971C41.7298 55.7068 41.9597 55.67 42.1755 55.5888C42.3913 55.5076 42.5885 55.3837 42.7553 55.2246C44.9276 53.208 47.1063 51.1985 49.2915 49.1962C49.6397 48.8748 49.6826 48.5126 49.6826 48.0883C49.6776 40.9992 49.6776 33.9101 49.6826 26.8209C49.6826 21.7491 49.6826 16.6773 49.6826 11.6055C49.6826 10.6893 49.6258 10.6143 48.7182 10.6133C48.2725 10.6133 48.0592 10.4729 48.0689 9.99929C48.0882 9.10672 48.0817 8.21415 48.0689 7.32051C48.0689 6.92191 48.2135 6.71725 48.6336 6.73439C49.329 6.76118 50.0265 6.69046 50.7187 6.79225C52.4331 7.0462 53.5518 8.31916 53.5518 10.0657C53.5532 17.7627 53.5525 25.4591 53.5497 33.1546Z" fill="#700707"/>
<path d="M33.0463 13.2986C28.7431 13.2986 24.4403 13.2986 20.1378 13.2986C19.2034 13.2986 19.092 13.185 19.092 12.2474C19.092 10.2473 19.092 8.24712 19.092 6.24697C19.092 5.46155 19.2442 5.31368 20.0371 5.31261C22.4116 5.31261 24.7871 5.30082 27.1616 5.32011C27.6095 5.32011 27.7691 5.2076 27.8098 4.73185C27.9823 2.70348 29.011 1.18515 30.8958 0.458664C32.8856 -0.307467 34.8604 -0.16817 36.5855 1.27623C37.6077 2.13344 38.166 3.23281 38.3331 4.54326C38.4296 5.3094 38.4264 5.31047 39.2225 5.31154H46.0245C46.9245 5.31154 47.1056 5.4862 47.1067 6.36162C47.1067 8.32534 47.1067 10.2898 47.1067 12.2549C47.1067 13.1014 46.9074 13.2975 46.063 13.2975C41.7241 13.2997 37.3852 13.3 33.0463 13.2986ZM30.5893 6.16125C30.5851 6.48726 30.6454 6.81088 30.7668 7.11348C30.8882 7.41607 31.0683 7.69164 31.2967 7.92432C31.5251 8.15699 31.7973 8.34217 32.0975 8.46917C32.3978 8.59617 32.7203 8.66249 33.0463 8.6643C34.4393 8.67394 35.6179 7.49314 35.6008 6.11732C35.5976 5.7871 35.529 5.46079 35.3991 5.15719C35.2692 4.85359 35.0805 4.57872 34.8438 4.34842C34.6071 4.11812 34.3272 3.93695 34.0201 3.81536C33.7131 3.69377 33.3851 3.63417 33.0549 3.63998C31.6137 3.64212 30.5861 4.69971 30.5893 6.16125Z" fill="#700707"/>
<path d="M12.5836 27.0943C12.5836 21.4881 12.5836 15.8806 12.5836 10.2716C12.5836 8.97396 13.0122 7.90352 14.1748 7.19525C14.717 6.86523 15.3074 6.76665 15.9139 6.73879C16.4304 6.712 16.95 6.73879 17.4665 6.72807C17.8662 6.71629 18.0623 6.8663 18.0569 7.28633C18.0451 8.21426 18.0473 9.14326 18.0569 10.0723C18.0569 10.4623 17.8812 10.6252 17.5008 10.608C17.34 10.6009 17.1789 10.6044 17.0186 10.6187C16.665 10.6455 16.4571 10.8234 16.4507 11.1952C16.4507 11.4095 16.4443 11.6238 16.4443 11.8381C16.4443 22.5682 16.4443 33.2983 16.4443 44.0285C16.4443 45.0464 16.4443 45.0485 15.4499 44.8771C14.6916 44.749 13.9181 44.7396 13.1569 44.8492C12.6983 44.9135 12.5815 44.7496 12.5847 44.3435C12.5922 43.1648 12.5847 41.9862 12.5847 40.8075L12.5836 27.0943Z" fill="#700707"/>
<path d="M7 52.9616C7 49.0238 10.2574 45.7471 14.1791 45.7396C18.0569 45.731 21.4097 49.0934 21.3807 52.9605C21.3737 54.8656 20.6115 56.6902 19.2614 58.0344C17.9112 59.3785 16.0832 60.1325 14.1781 60.131C13.2349 60.1354 12.3002 59.9531 11.4279 59.5944C10.5556 59.2358 9.76296 58.708 9.09565 58.0415C8.42834 57.375 7.8996 56.5829 7.53992 55.711C7.18023 54.8392 6.99673 53.9047 7 52.9616ZM18.0441 52.9251C18.0441 52.6401 18.0441 52.354 18.0441 52.0679C18.0312 51.44 17.923 51.335 17.2779 51.3243C16.9393 51.3243 16.5997 51.3179 16.2611 51.3243C15.9503 51.3243 15.8014 51.1807 15.8035 50.8689C15.8035 50.4939 15.8035 50.1188 15.7982 49.7449C15.7982 49.3388 15.6128 49.102 15.1906 49.0934C14.5124 49.0934 13.8341 49.0827 13.1548 49.0988C12.7508 49.1073 12.5333 49.3388 12.5236 49.7417C12.5151 50.1156 12.5108 50.4917 12.5172 50.8657C12.5236 51.1871 12.3736 51.3211 12.065 51.32C11.69 51.32 11.315 51.32 10.941 51.3264C10.4974 51.3264 10.2842 51.5686 10.2777 51.9929C10.2681 52.6358 10.2777 53.2787 10.2777 53.9216C10.2777 54.3588 10.5135 54.5817 10.9367 54.602C11.2753 54.6192 11.615 54.6245 11.9536 54.6095C12.3576 54.5924 12.5515 54.7446 12.5236 55.17C12.5022 55.5075 12.5236 55.8482 12.5236 56.1868C12.5311 56.5929 12.7444 56.8297 13.1462 56.8426C13.8234 56.8597 14.5027 56.8565 15.1821 56.8426C15.5871 56.8351 15.8035 56.6176 15.8003 56.1997C15.8003 55.8246 15.8078 55.4496 15.8003 55.0757C15.8003 54.7649 15.945 54.6149 16.2557 54.616C16.5943 54.616 16.934 54.616 17.2726 54.6085C17.8823 54.586 18.0226 54.437 18.0398 53.8381C18.0484 53.5327 18.043 53.2294 18.0441 52.9251Z" fill="#700707"/>
<path d="M45.134 49.0602C45.8476 49.0602 46.5613 49.0602 47.277 49.0602C47.411 49.0602 47.5888 49.0227 47.6403 49.2017C47.6789 49.3388 47.5492 49.4267 47.4592 49.5092C45.9748 50.8729 44.489 52.2337 43.0017 53.5916C42.901 53.6838 42.7874 53.8359 42.6395 53.7727C42.4649 53.6988 42.5002 53.4995 42.4992 53.3441C42.4992 52.0958 42.4992 50.8475 42.4992 49.5938C42.4992 49.2081 42.6706 49.0474 43.051 49.0581C43.7432 49.0699 44.4386 49.0602 45.134 49.0602Z" fill="#700707"/>
<path d="M40.9851 43.4112C40.9663 42.9319 41.0885 42.4577 41.3366 42.0471C41.7523 41.2971 42.2913 40.6317 42.8485 39.9813C43.0424 39.7563 43.2139 39.708 43.4132 39.9491C44.0561 40.7303 44.7515 41.4803 45.1276 42.4468C45.2723 42.8312 45.3031 43.2491 45.2163 43.6505C45.1294 44.0519 44.9286 44.4197 44.6379 44.7099C44.3276 44.9941 43.9424 45.1834 43.5278 45.2553C43.1132 45.3273 42.6867 45.2789 42.2988 45.116C41.4791 44.7474 41.0355 44.1087 40.9851 43.4112Z" fill="#700707"/>
<path d="M45.2894 31.3653C45.2971 31.8103 45.1707 32.2474 44.9267 32.6197C44.6826 32.9919 44.3322 33.2822 43.9211 33.4526C43.5127 33.6166 43.0631 33.648 42.636 33.5422C42.2088 33.4364 41.8258 33.1989 41.5412 32.8633C40.9069 32.1496 40.8008 31.3824 41.2348 30.5488C41.6822 29.7174 42.2295 28.9437 42.8646 28.2451C43.0328 28.0543 43.1956 27.9461 43.3821 28.1883C44.0336 29.0315 44.7847 29.8095 45.1587 30.837C45.2144 31.0099 45.2581 31.1864 45.2894 31.3653Z" fill="#700707"/>
<path d="M45.2894 19.6773C45.2894 20.6234 44.6754 21.4924 43.8664 21.7838C42.9963 22.0967 42.0963 21.8353 41.4694 21.0874C40.893 20.4005 40.8148 19.5519 41.2691 18.7515C41.7182 17.9623 42.2533 17.2253 42.8646 16.5538C43.0381 16.3631 43.2085 16.2656 43.3885 16.4981C44.0625 17.3649 44.8608 18.1546 45.1929 19.2454C45.2325 19.3876 45.2647 19.5317 45.2894 19.6773Z" fill="#700707"/>
<path d="M33.0292 7.62805C32.8325 7.63083 32.6373 7.5935 32.4555 7.51832C32.2737 7.44315 32.1092 7.33172 31.9719 7.19083C31.8346 7.04994 31.7275 6.88256 31.6571 6.69889C31.5866 6.51522 31.5544 6.31913 31.5623 6.12258C31.5783 5.29537 32.3123 4.56996 33.1106 4.6021C33.5136 4.62875 33.8909 4.80961 34.164 5.10712C34.4372 5.40462 34.5853 5.79591 34.5775 6.19973C34.5518 7.03229 33.8874 7.64412 33.0292 7.62805Z" fill="#700707"/>
<path d="M14.1888 55.8204C13.6691 55.9114 13.5255 55.6543 13.5405 55.1775C13.6027 53.3162 13.3637 53.5798 11.9707 53.5948C11.4971 53.5948 11.2946 53.4695 11.2946 52.9648C11.2946 52.4601 11.4618 52.2308 11.9793 52.2747C12.245 52.2962 12.5151 52.2812 12.7829 52.2747C13.3905 52.2629 13.5255 52.1279 13.5426 51.5054C13.5512 51.1839 13.5523 50.8625 13.5491 50.541C13.5437 50.0878 13.8534 50.0931 14.1738 50.0963C14.4942 50.0996 14.8477 50.0621 14.8456 50.5528C14.8456 50.9457 14.8492 51.3386 14.8563 51.7315C14.8649 52.0754 15.0492 52.2587 15.3921 52.2672C15.7671 52.2769 16.1421 52.2855 16.5172 52.278C17.0079 52.2672 17.1011 52.5512 17.1011 52.9701C17.1011 53.3891 16.9854 53.6131 16.5214 53.5873C16.1657 53.5648 15.8078 53.5873 15.4499 53.5873C15.061 53.5873 14.852 53.7813 14.852 54.1799C14.852 54.5013 14.8317 54.8228 14.852 55.1442C14.8842 55.6425 14.7299 55.9232 14.1888 55.8204Z" fill="#700707"/>
</svg>
