<svg width="61" height="61" viewBox="0 0 61 61" fill="none" xmlns="http://www.w3.org/2000/svg">
<path d="M27.4956 46.4709C27.5068 49.7453 26.3261 52.9114 24.1747 55.3763C22.0234 57.8411 19.0488 59.4355 15.8084 59.8608C9.48471 60.695 3.48683 57.1506 1.33238 51.1345C-0.105255 47.1172 0.344253 43.2357 2.48806 39.4835C5.11995 34.8759 7.98058 30.4228 10.8492 25.9603C11.7854 24.5071 12.7102 23.0454 13.6234 21.5752C13.8801 21.1648 14.0529 21.0782 14.3575 21.5566C16.8537 25.4873 19.3965 29.3914 21.8701 33.3369C23.5059 35.9485 25.167 38.5494 26.4317 41.3729C27.2403 43.1784 27.4996 44.4509 27.4956 46.4709Z" fill="#BE0606"/>
<path d="M30.9122 45.4596C38.5073 45.377 45.0092 39.5622 45.9321 32.0444C46.0364 31.1183 46.0724 30.1857 46.0399 29.2542C46.0232 29.0795 46.0537 28.9035 46.1281 28.7446C46.2025 28.5857 46.318 28.4497 46.4628 28.3508C50.7477 25.1276 51.9486 19.1235 49.3194 14.7091C48.0135 12.5172 46.762 10.2933 45.3523 8.16671C45.0478 7.70834 45.0451 7.40721 45.4786 7.04212C46.1556 6.47182 46.7979 5.85756 47.4376 5.24329C47.7235 4.96747 47.9443 4.9768 48.2222 5.25662C50.5833 7.63284 52.9505 10.0028 55.324 12.3666C55.6671 12.7077 55.5115 12.9169 55.2575 13.1928C54.1762 14.3667 53.1163 15.5619 52.0298 16.7318C51.7146 17.0716 51.7399 17.3434 51.9593 17.7298C53.0139 19.5952 53.901 21.5246 54.3691 23.6259C54.4688 24.071 54.6829 24.2322 55.1444 24.2415C56.6725 24.2722 58.2032 24.3654 59.7273 24.3961C60.2858 24.4081 60.5039 24.584 60.5 25.1743C60.476 28.3944 60.476 31.6145 60.5 34.8346C60.5 35.4249 60.2872 35.6008 59.7286 35.6114C58.2005 35.6421 56.6698 35.7367 55.1457 35.7673C54.6843 35.7753 54.4702 35.9392 54.3691 36.3829C53.8943 38.4815 53.0139 40.4203 51.9566 42.2777C51.7106 42.7094 51.7598 42.9879 52.075 43.3277C53.115 44.451 54.1191 45.6062 55.1737 46.7148C55.5567 47.1146 55.6232 47.3597 55.187 47.7888C52.8933 50.0433 50.6205 52.3192 48.3685 54.6163C47.9589 55.0321 47.7036 55.036 47.2873 54.6323C46.1888 53.5663 45.0384 52.5577 43.92 51.5143C43.6248 51.2385 43.3481 51.1466 42.9691 51.3531C41.0155 52.4111 39.0206 53.3745 36.8342 53.8595C36.426 53.9501 36.4034 54.2352 36.3887 54.5617C36.3196 56.1353 36.2291 57.709 36.1773 59.2839C36.16 59.8302 35.9312 60.0088 35.4019 60.0061C32.188 59.991 28.9741 59.991 25.7601 60.0061C25.2534 60.0061 25.01 59.8209 25.0406 59.3079C25.0469 59.2412 25.0437 59.1739 25.0313 59.108C24.7082 57.6836 25.1643 56.5764 26.0833 55.4211C28.1007 52.8561 29.0503 49.8514 29.0503 46.5616C29.0503 45.4437 29.0503 45.4437 30.1821 45.4596C30.4201 45.4623 30.6635 45.4596 30.9122 45.4596Z" fill="#BE0606"/>
<path d="M0.684705 30.0283C0.684705 28.4294 0.705984 26.8304 0.674066 25.2315C0.662097 24.6372 0.845624 24.4027 1.46137 24.3933C2.98943 24.3707 4.52016 24.2787 6.0429 24.2361C6.44187 24.2241 6.70786 24.1415 6.8076 23.6925C7.27174 21.6152 8.14815 19.6951 9.18015 17.8536C9.48736 17.306 9.41555 16.9475 9.00062 16.5132C7.97393 15.4405 7.00576 14.3159 5.97641 13.2393C5.62398 12.8689 5.61334 12.617 5.98439 12.2493C8.29931 9.95478 10.6014 7.64518 12.8906 5.32048C13.2763 4.93007 13.517 5.00869 13.8721 5.34447C14.9998 6.41043 16.1635 7.43776 17.2992 8.49441C17.6384 8.80887 17.911 8.85151 18.3445 8.60633C20.1825 7.56835 22.0869 6.6716 24.1602 6.2079C24.6377 6.09997 24.7933 5.8508 24.8092 5.37511C24.8598 3.84545 24.9701 2.31845 25.018 0.788782C25.0353 0.23581 25.2069 -0.0106949 25.7947 -3.52589e-05C28.9865 0.0203958 32.1782 0.0203958 35.37 -3.52589e-05C35.9419 -3.52589e-05 36.16 0.201165 36.1786 0.764796C36.2278 2.31711 36.3116 3.86677 36.3847 5.41775C36.3889 5.73095 36.2918 6.03709 36.1081 6.29051C34.4378 8.8555 32.7714 11.4232 31.2925 14.1067C31.0664 14.5185 30.7233 14.5398 30.3363 14.5451C27.7214 14.5807 25.1587 15.2831 22.8898 16.586C20.6209 17.889 18.7207 19.7496 17.3684 21.9922C16.9694 22.6518 16.9176 22.6585 16.5093 22.0056C15.7898 20.861 15.0756 19.7111 14.3814 18.5532C14.1474 18.1667 14.0064 17.9869 13.6912 18.5132C10.3425 24.0855 6.62407 29.4234 3.29797 35.0091C2.96816 35.562 1.37892 35.8778 0.870892 35.4994C0.634169 35.3222 0.696674 35.0584 0.696674 34.8225C0.682045 33.2249 0.684705 31.6259 0.684705 30.0283Z" fill="#BE0606"/>
<path d="M49.1558 19.6512C49.1558 24.5027 45.6303 28.3815 41.0009 28.8452C36.0456 29.3488 31.5825 25.6472 31.1423 20.6972C30.9747 18.8157 31.4082 17.1142 32.3072 15.4672C33.975 12.4026 35.906 9.50981 37.7599 6.56507C38.4102 5.53374 39.0818 4.51574 39.7202 3.47642C39.9861 3.03804 40.1723 2.94344 40.4942 3.44844C42.8348 7.13669 45.2712 10.7637 47.4522 14.5505C48.3991 16.1988 49.2117 17.899 49.1558 19.6512Z" fill="#BE0606"/>
</svg>
