<svg width="62" height="62" viewBox="0 0 62 62" fill="none" xmlns="http://www.w3.org/2000/svg">
<path d="M0.34845 33.3832C0.406296 28.4925 1.69544 24.4942 4.34259 20.9725C8.06816 16.0252 11.8392 11.1124 15.5868 6.18174C16.712 4.70253 17.8249 3.21506 18.9446 1.73172C19.6911 0.7442 20.4872 0.734558 21.2268 1.70555C23.7128 4.97386 26.185 8.24767 28.6876 11.5063C29.0057 11.9195 29.047 12.2349 28.817 12.7349C26.8048 17.1298 26.9164 21.4462 29.4506 25.6181C31.1791 28.4608 33.6816 30.3449 36.837 31.3558C37.3645 31.5253 37.432 31.7236 37.1744 32.1822C36.4307 33.5003 36.0726 34.9451 35.844 36.427C35.7062 37.3181 35.7062 37.3099 34.8179 37.0261C31.3747 35.9326 27.948 35.9711 24.7031 37.5963C19.9129 39.9983 17.3759 43.958 17.1004 49.3322C17.0591 50.1379 17.1886 50.934 17.2919 51.7301C17.3952 52.5262 17.274 52.6336 16.4875 52.4752C13.1421 51.8045 10.1052 50.452 7.50071 48.2318C2.79314 44.2142 0.461387 39.0756 0.34845 33.3832ZM2.66092 33.784C2.96254 39.0728 5.14004 43.4044 9.24987 46.7567C10.1561 47.4963 10.13 47.4701 10.8282 46.5377C11.1877 46.0557 11.1381 45.8298 10.6602 45.4565C6.86165 42.4926 4.82051 38.5866 4.52026 33.7785C4.49134 33.3199 4.36187 33.0899 3.87569 33.1353C3.66955 33.1546 3.46205 33.1546 3.25591 33.1353C2.76973 33.094 2.57828 33.3143 2.66092 33.784ZM14.2701 49.5471C14.5456 49.5471 15.0097 48.6945 15.0304 48.1312C15.04 47.8558 14.1269 47.3049 13.6007 47.2718C13.3487 47.2539 12.6862 48.2359 12.6656 48.6615C12.6545 48.8722 13.8762 49.5457 14.2701 49.5471Z" fill="#DC0404"/>
<path d="M30.4353 38.1597C31.9424 38.1615 33.4343 38.4603 34.8258 39.0391C36.2173 39.618 37.4811 40.4654 38.5448 41.533C39.6085 42.6006 40.4514 43.8673 41.0252 45.2609C41.599 46.6545 41.8925 48.1475 41.8889 49.6545C41.882 55.9446 36.7323 61.075 30.4257 61.075C28.9186 61.0725 27.4268 60.773 26.0354 60.1938C24.6441 59.6145 23.3805 58.7669 22.3169 57.6991C21.2533 56.6314 20.4104 55.3646 19.8365 53.971C19.2626 52.5775 18.9689 51.0845 18.9722 49.5774C18.9818 43.2901 24.1287 38.1583 30.4353 38.1597ZM31.3609 49.9865C31.3609 48.6009 31.3939 47.5445 31.354 46.4923C31.2658 44.1839 29.5924 42.5229 27.3695 42.4981C25.1658 42.4678 23.3974 44.1233 23.3203 46.4234C23.2477 48.5527 23.2477 50.6843 23.3203 52.8182C23.3919 55.0673 25.035 56.6622 27.2263 56.7489C29.2922 56.8302 30.9725 55.402 31.3003 53.2327C31.478 52.0441 31.3223 50.8459 31.3609 49.9865ZM39.6246 47.5528C39.6246 46.6204 39.6246 46.6204 38.6605 46.6162C37.5587 46.6162 37.5587 46.6162 37.5587 45.5144C37.5532 45.4461 37.5532 45.3775 37.5587 45.3092C37.6785 44.5214 37.1717 44.5407 36.6235 44.542C36.0753 44.5434 35.636 44.5145 35.6718 45.3078C35.731 46.6851 35.771 46.6204 34.3785 46.6176C34.2408 46.6176 34.1031 46.6176 33.9653 46.6341C33.8852 46.6396 33.8092 46.6719 33.7497 46.7259C33.6902 46.7799 33.6507 46.8524 33.6375 46.9316C33.3194 47.9729 33.6692 48.4811 34.7201 48.488C35.669 48.488 35.6842 48.5045 35.6842 49.4521C35.6842 49.6587 35.6842 49.8653 35.6842 50.0718C35.6842 50.233 35.6842 50.4368 35.8674 50.485C36.3604 50.6104 36.8893 50.6586 37.3535 50.4726C37.7047 50.3349 37.538 49.8983 37.5435 49.5939C37.5642 48.4921 37.5546 48.4921 38.6454 48.4921C39.6301 48.4838 39.6301 48.4838 39.6301 47.5528H39.6246ZM36.6208 54.6858H38.4746C39.6508 54.6858 39.6274 54.6858 39.6343 53.5288C39.6343 53 39.4704 52.7947 38.9236 52.8058C37.4375 52.8319 35.9486 52.843 34.4625 52.8058C33.7959 52.7865 33.5274 53.0124 33.6183 53.6679C33.6313 53.7819 33.6313 53.897 33.6183 54.0109C33.5673 54.5081 33.7711 54.7161 34.2849 54.6995C35.0685 54.6637 35.8481 54.6844 36.6263 54.6858H36.6208Z" fill="#DC0404"/>
<path d="M40.7499 7.14307C49.5439 7.16786 55.0544 16.6601 50.7063 24.3096C50.4405 24.7765 50.1416 24.9514 49.5563 24.9308C46.2687 24.8164 43.324 25.8191 40.7265 27.8382C40.1067 28.3137 39.5376 28.8519 39.0283 29.4441C38.7528 29.7637 38.4773 29.8491 38.0641 29.7595C33.3042 28.7403 29.3776 23.9625 29.306 19.0842C29.2178 12.9745 33.2643 8.18292 39.3134 7.25049C39.7789 7.1775 40.2692 7.1775 40.7499 7.14307ZM33.6265 18.6779C33.6265 20.124 33.6403 21.5702 33.6196 23.015C33.6114 23.5135 33.778 23.7518 34.2931 23.6967C34.4071 23.6836 34.5221 23.6836 34.6361 23.6967C35.2806 23.7835 35.5506 23.5452 35.5107 22.8621C35.4597 21.993 35.5107 21.1184 35.4941 20.2452C35.4831 19.7411 35.6952 19.5469 36.191 19.5566C37.1551 19.5745 38.1192 19.5827 39.0833 19.5566C39.6646 19.5387 39.8477 19.7866 39.8326 20.3361C39.805 21.2534 39.8326 22.1721 39.8216 23.0907C39.8133 23.5342 39.9896 23.7284 40.4317 23.6981C40.661 23.6836 40.891 23.6836 41.1204 23.6981C41.5253 23.7201 41.7016 23.548 41.7002 23.1334C41.6892 20.1956 41.7842 17.2551 41.6603 14.3187C41.5446 11.6248 39.3574 10.348 37.4829 10.4458C35.2793 10.5615 33.6789 12.3258 33.6362 14.5446C33.6072 15.9247 33.6279 17.302 33.6265 18.6779ZM49.9598 16.5706C49.9598 15.6313 49.9598 15.6313 49.0026 15.6272C48.8649 15.6272 48.7271 15.6162 48.5894 15.6272C48.0949 15.6644 47.8567 15.4509 47.8925 14.9385C47.9063 14.7567 47.8704 14.568 47.8925 14.3876C48.0068 13.6246 47.5895 13.5309 46.9587 13.5378C46.3279 13.5447 45.9657 13.5902 45.9946 14.3738C46.0469 15.6065 45.9946 15.6134 44.7798 15.6203C44.6187 15.6203 44.4589 15.6203 44.2978 15.6368C44.2177 15.6411 44.1413 15.6722 44.0811 15.7252C44.0209 15.7782 43.9803 15.8499 43.9658 15.9288C43.6408 16.9576 44.0003 17.4851 45.0401 17.492C45.996 17.492 46.0042 17.5072 46.0125 18.4479C46.0125 18.6779 46.0125 18.9079 46.0221 19.1365C46.0221 19.2742 46.0469 19.4464 46.1943 19.4836C46.6887 19.6089 47.2149 19.6557 47.6818 19.4753C48.0399 19.3376 47.8718 18.9037 47.8773 18.6007C47.898 17.4989 47.8884 17.4989 48.9792 17.492C49.9584 17.4948 49.9584 17.4948 49.9598 16.5706ZM47.0096 21.825H45.1503C43.8722 21.825 43.8722 21.8387 43.9438 23.1375C43.9672 23.5507 44.1325 23.7008 44.5319 23.6981C46.1553 23.6889 47.78 23.6889 49.4061 23.6981C49.7739 23.6981 49.9667 23.5604 49.957 23.1747C49.9411 22.9454 49.9411 22.7153 49.957 22.4861C50.0039 21.9696 49.7629 21.7974 49.2684 21.8181C48.5205 21.8443 47.7672 21.825 47.0096 21.825Z" fill="#DC0404"/>
<path d="M41.8903 36.8113C41.8903 38.4641 41.8903 40.1168 41.8903 41.7696C41.8903 41.9624 41.9784 42.2392 41.7346 42.3205C41.4909 42.4018 41.4137 42.1139 41.3049 41.9569C40.4478 40.7043 39.3675 39.6202 38.1179 38.7588C37.7116 38.4765 37.5367 38.1611 37.567 37.6721C37.808 34.2289 39.2335 31.3752 41.955 29.2707C47.219 25.2063 54.4002 26.2572 58.3447 31.5914C62.0207 36.5621 60.8115 43.9306 55.7596 47.5019C52.2117 50.0099 48.4379 50.2688 44.4506 48.7662C43.9273 48.5693 43.6243 48.2773 43.583 47.6754C43.5358 47.1493 43.4319 46.6297 43.2731 46.126C43.1243 45.6136 43.24 45.4249 43.7992 45.4277C44.7137 45.4277 45.6324 45.5158 46.5441 45.3423C49.7257 44.7363 51.0093 41.1773 48.9186 38.7037C48.6431 38.3787 48.6142 38.1638 48.902 37.8264C50.0039 36.54 50.2559 35.0952 49.5783 33.5306C48.9007 31.966 47.606 31.2058 45.956 31.0956C44.7908 31.0185 43.6146 31.0956 42.4467 31.0694C41.9578 31.0598 41.8834 31.3201 41.8861 31.7195C41.8958 33.4163 41.8903 35.1131 41.8903 36.8113ZM58.2235 36.2301C58.2235 35.2068 58.2235 35.2068 57.2209 35.204C56.1617 35.204 56.1617 35.204 56.1576 34.1504C56.1499 34.0588 56.1499 33.9666 56.1576 33.875C56.2802 33.0624 55.7334 33.1422 55.21 33.1298C54.6591 33.1161 54.2377 33.1161 54.268 33.8956C54.3272 35.3721 54.3327 35.1903 52.9926 35.204C52.8549 35.204 52.7171 35.204 52.5794 35.2151C52.4417 35.2261 52.286 35.277 52.2654 35.4299C52.1951 35.9519 52.0877 36.5138 52.3095 36.9849C52.4844 37.3581 52.9747 37.1557 53.3231 37.1653C54.2776 37.1901 54.2776 37.1763 54.2873 38.1225C54.2873 38.3525 54.2873 38.5812 54.2955 38.8112C54.2955 38.9489 54.3148 39.1279 54.4539 39.1651C54.9394 39.3084 55.4559 39.3084 55.9414 39.1651C56.3187 39.0425 56.1452 38.6046 56.1521 38.3043C56.1741 37.1722 56.1631 37.1708 57.2787 37.1681C58.2222 37.1708 58.2222 37.1708 58.2235 36.2301ZM55.2679 41.4018H53.414C52.1965 41.4018 52.2241 41.4018 52.2089 42.6414C52.2089 43.2281 52.4252 43.3865 52.9774 43.3741C54.2817 43.3438 55.5943 43.3741 56.8958 43.3617C58.3089 43.3452 58.2194 43.6551 58.2291 41.9844C58.2291 41.5286 58.039 41.3839 57.6065 41.395C56.827 41.4184 56.0474 41.4032 55.2679 41.4018Z" fill="#DC0404"/>
<path d="M43.762 35.1765C43.762 35.0622 43.762 34.9479 43.762 34.8336C43.8102 32.6864 43.3846 33.0693 45.945 33.05C47.241 33.0417 48.1487 34.0416 48.0798 35.3074C48.0498 35.8045 47.8429 36.2745 47.4966 36.6324C47.1503 36.9903 46.6874 37.2126 46.1915 37.259C45.5759 37.3003 44.952 37.259 44.3363 37.2755C43.9231 37.2865 43.7579 37.0896 43.7634 36.6943C43.7716 36.1902 43.7634 35.6861 43.7634 35.1793L43.762 35.1765Z" fill="#DC0404"/>
<path d="M43.773 41.3302C43.773 40.8261 43.773 40.3221 43.773 39.8152C43.773 39.4172 43.9355 39.2257 44.3487 39.2368C44.9671 39.2519 45.5883 39.2106 46.2039 39.2533C47.2658 39.3277 48.0881 40.2601 48.0922 41.3399C48.0963 42.4197 47.2851 43.3659 46.226 43.4471C45.5883 43.4953 44.9437 43.4471 44.2978 43.4637C43.908 43.4705 43.7689 43.2653 43.7716 42.9127C43.773 42.3852 43.773 41.8577 43.773 41.3302Z" fill="#DC0404"/>
<path d="M29.4919 49.5899C29.4919 50.598 29.5043 51.6062 29.4919 52.6199C29.4726 53.9077 28.5126 54.8911 27.3089 54.88C26.1354 54.869 25.1851 53.8925 25.1755 52.6406C25.1608 50.6205 25.1608 48.6042 25.1755 46.5915C25.1865 45.3437 26.1396 44.3713 27.3213 44.3658C28.503 44.3603 29.4671 45.3299 29.4891 46.5695C29.5071 47.5721 29.4919 48.5817 29.4919 49.5899Z" fill="#DC0404"/>
<path d="M37.6331 17.689C37.1056 17.689 36.5781 17.689 36.0519 17.689C35.6842 17.689 35.501 17.5155 35.501 17.1381C35.501 16.174 35.4652 15.2099 35.5203 14.2458C35.5809 13.1798 36.5147 12.3865 37.6179 12.3727C38.7624 12.3603 39.7293 13.1454 39.7968 14.2334C39.856 15.1975 39.8119 16.1616 39.8188 17.1257C39.8188 17.5389 39.5998 17.6904 39.2128 17.6863C38.6881 17.6835 38.1606 17.689 37.6331 17.689Z" fill="#DC0404"/>
</svg>
