<svg width="62" height="61" viewBox="0 0 62 61" fill="none" xmlns="http://www.w3.org/2000/svg">
<g clip-path="url(#clip0_22684_62284)">
<path d="M1.01499 36.2167C1.01499 28.9055 1.01499 21.5943 1.01499 14.2831C1.01499 12.2097 0.855641 12.3878 2.95902 12.3859C6.08409 12.3859 9.20729 12.3597 12.3324 12.3991C13.1572 12.4103 13.414 12.1404 13.4047 11.323C13.3672 7.94861 13.4047 4.57421 13.3747 1.1998C13.3747 0.324333 13.6259 -0.00748201 14.5426 -0.00560734C24.852 0.0193882 35.1627 0.0193882 45.4746 -0.00560734C46.3632 -0.00560734 46.6707 0.271841 46.6688 1.17543C46.6438 11.5149 46.6438 21.8549 46.6688 32.1956C46.6574 32.8195 46.4618 33.4261 46.1064 33.939C44.2149 36.9535 42.3383 39.9792 40.4449 42.9955C36.9374 48.5764 37.9853 55.1228 43.0582 59.3145C43.2569 59.4776 43.6712 59.577 43.5325 59.9126C43.4106 60.205 43.0301 60.07 42.7639 60.07C29.2375 60.07 15.7111 60.0769 2.18478 60.0906C1.27182 60.0906 1.01124 59.7682 1.01311 58.889C1.02623 51.3359 1.01499 43.7679 1.01499 36.2167ZM34.1273 2.33773C32.1147 2.34033 30.1481 2.93966 28.4762 4.05994C26.8042 5.18022 25.502 6.77112 24.7343 8.63148C23.9665 10.4918 23.7676 12.5381 24.1628 14.5115C24.558 16.4849 25.5294 18.2967 26.9544 19.718C28.3793 21.1393 30.1937 22.1061 32.1681 22.4962C34.1425 22.8862 36.1882 22.6821 38.0466 21.9095C39.905 21.1369 41.4925 19.8307 42.6085 18.1558C43.7244 16.481 44.3187 14.5129 44.3161 12.5003C44.3213 11.1621 44.0612 9.83606 43.5507 8.599C43.0401 7.36194 42.2894 6.23838 41.3419 5.29331C40.3944 4.34824 39.2689 3.60042 38.0305 3.0931C36.7922 2.58578 35.4655 2.32904 34.1273 2.33773ZM18.6744 25.9848C17.2684 25.9848 15.8624 25.9979 14.4564 25.9848C13.9202 25.9848 13.639 26.1442 13.6484 26.7347C13.6696 27.8907 13.6696 29.0468 13.6484 30.2028C13.6484 30.784 13.9221 30.9527 14.4564 30.9527C17.2684 30.9527 20.0804 30.9396 22.8924 30.9527C23.5129 30.9527 23.7154 30.6865 23.7022 30.1016C23.6797 29.0086 23.6704 27.9157 23.7022 26.8228C23.7229 26.1423 23.4135 25.9679 22.7949 25.9811C21.4245 26.011 20.0485 25.9904 18.6744 25.9904V25.9848ZM30.5335 30.9396C31.782 30.9396 33.0306 30.9246 34.2829 30.9396C34.8734 30.9508 35.134 30.7521 35.1171 30.1241C35.0871 29.033 35.0834 27.9401 35.1171 26.849C35.1377 26.2116 34.9296 25.9586 34.2604 25.9661C31.7945 25.9948 29.3294 25.9948 26.8648 25.9661C26.1843 25.9661 26.0025 26.2529 26.0193 26.8696C26.0474 27.897 26.0587 28.9318 26.0193 29.9572C25.9912 30.6771 26.2349 30.9733 26.9829 30.9452C28.1621 30.9133 29.3487 30.947 30.5335 30.9452V30.9396ZM30.5804 56.7837C31.827 56.7837 33.0756 56.7687 34.3297 56.7837C34.8771 56.7837 35.1302 56.6075 35.1171 56.0339C35.0927 54.8809 35.0927 53.7243 35.1171 52.5714C35.1283 51.9808 34.8415 51.8215 34.3129 51.8215C31.8158 51.8327 29.3187 51.8365 26.8142 51.8215C26.1843 51.8215 26.0043 52.1083 26.0156 52.682C26.0381 53.743 26.0493 54.8041 26.0156 55.8689C25.9912 56.5475 26.2237 56.8231 26.9285 56.8062C28.1452 56.7594 29.3618 56.7894 30.5804 56.7894V56.7837ZM30.6722 33.2698C29.3918 33.2698 28.1114 33.281 26.8292 33.2698C26.2949 33.2698 26.0081 33.4404 26.0231 34.0196C26.0443 34.802 26.0443 35.5831 26.0231 36.363C26.0081 36.9254 26.2649 37.1353 26.8142 37.1316C29.3137 37.1203 31.8133 37.1203 34.3129 37.1316C34.849 37.1316 35.1321 36.9629 35.1115 36.3817C35.0852 35.6018 35.0852 34.8182 35.1115 34.0384C35.1302 33.4666 34.879 33.2604 34.3278 33.2679C33.1093 33.2885 31.8908 33.2698 30.6722 33.2698ZM30.6722 39.4562C29.4218 39.4562 28.1714 39.4749 26.9229 39.4562C26.2986 39.443 25.9856 39.6436 26.0231 40.3148C26.0587 41.0309 26.0587 41.7526 26.0231 42.4688C25.9912 43.1343 26.2911 43.3367 26.9191 43.3311C29.3562 43.3099 31.7933 43.3099 34.2304 43.3311C34.8565 43.3311 35.1565 43.1436 35.119 42.4725C35.0796 41.7551 35.0796 41.036 35.119 40.3185C35.1565 39.6493 34.864 39.4412 34.2341 39.4562C33.0418 39.4824 31.8533 39.4562 30.6666 39.4562H30.6722ZM30.5467 49.5006H32.3276C35.1396 49.5006 35.1115 49.5006 35.1283 46.7093C35.1283 45.905 34.9146 45.5976 34.0729 45.6238C32.3576 45.6801 30.6366 45.6407 28.9194 45.6407C25.92 45.6407 25.92 45.6407 26.0193 48.6195C26.0381 49.2513 26.2349 49.525 26.891 49.5081C28.104 49.4819 29.3225 49.5044 30.541 49.5063L30.5467 49.5006ZM7.81817 25.9904C6.91458 25.9904 6.0091 26.0073 5.10551 25.9904C4.5731 25.9773 4.28817 26.1348 4.30129 26.729C4.32503 27.8826 4.32503 29.0368 4.30129 30.1916C4.28817 30.7652 4.54124 30.9602 5.08676 30.9564C6.89582 30.9414 8.70488 30.9377 10.5233 30.9564C11.1363 30.9564 11.35 30.7033 11.3369 30.1128C11.3144 29.0218 11.3069 27.9288 11.3369 26.8378C11.3575 26.1723 11.0745 25.9604 10.4427 25.9848C9.56724 26.0167 8.69177 25.9904 7.81817 25.9904ZM7.81817 56.7894C8.72176 56.7894 9.62722 56.7725 10.5308 56.7894C11.0707 56.8025 11.3463 56.6244 11.335 56.0395C11.3138 54.8847 11.3138 53.7305 11.335 52.577C11.335 51.9996 11.0688 51.8159 10.5308 51.8271C8.72238 51.8409 6.91331 51.8409 5.10363 51.8271C4.5656 51.8271 4.29565 51.9996 4.30877 52.577C4.33127 53.7299 4.33314 54.8847 4.30877 56.0395C4.29752 56.6263 4.5656 56.7894 5.10551 56.7894C5.99972 56.7725 6.9052 56.7894 7.81066 56.7894H7.81817ZM12.4242 20.6364C15.1706 20.6364 17.917 20.627 20.6615 20.6364C21.2801 20.6364 21.6551 20.5351 21.6607 19.7778C21.6663 19.0204 21.3758 18.8179 20.6634 18.8217C15.2343 18.8404 9.8053 18.8404 4.37626 18.8217C3.72012 18.8217 3.32832 18.9211 3.32832 19.7272C3.32832 20.5333 3.71637 20.6401 4.37626 20.6345C7.05141 20.6232 9.73406 20.6364 12.4167 20.6364H12.4242ZM7.88941 37.1335H8.45181C11.5375 37.1335 11.5262 37.1335 11.3407 34.0534C11.3069 33.5003 11.1157 33.2623 10.5571 33.2716C9.43226 33.2885 8.30746 33.2716 7.18265 33.2716C4.13819 33.2716 4.15132 33.2716 4.30317 36.3517C4.33129 36.9141 4.515 37.1466 5.0774 37.1353C6.00724 37.1166 6.94457 37.1316 7.8819 37.1316L7.88941 37.1335ZM7.78442 43.3199H8.53428C11.3988 43.3199 11.38 43.3199 11.3463 40.4404C11.3463 39.7242 11.1307 39.4168 10.379 39.4487C9.31976 39.4955 8.25683 39.4599 7.19201 39.4599C4.21879 39.4599 4.23942 39.4599 4.29566 42.435C4.31066 43.1586 4.59373 43.3555 5.25174 43.3274C6.08784 43.2936 6.93331 43.3199 7.77691 43.3199H7.78442ZM7.85941 45.6501C6.92207 45.6501 5.98474 45.6594 5.0474 45.6501C4.54312 45.6501 4.29753 45.8375 4.31065 46.3662C4.3294 47.1773 4.3294 47.9897 4.31065 48.8033C4.2994 49.3375 4.56185 49.5138 5.06052 49.51C6.90332 49.5006 8.74611 49.4969 10.5889 49.51C11.1757 49.51 11.35 49.2269 11.3388 48.6964C11.32 47.9465 11.3125 47.1967 11.3388 46.4468C11.3613 45.8207 11.0651 45.6257 10.4839 45.6426C9.60097 45.6651 8.7255 45.6426 7.8519 45.6426L7.85941 45.6501ZM14.552 16.5121C16.5804 16.5121 18.6069 16.4952 20.6353 16.5121C21.3139 16.5215 21.672 16.3734 21.6626 15.586C21.6513 14.8586 21.342 14.6937 20.6915 14.6974C16.6072 14.7137 12.5217 14.7137 8.43492 14.6974C7.79566 14.6974 7.46197 14.838 7.45447 15.5748C7.45447 16.349 7.78067 16.5233 8.47055 16.5121C10.4896 16.4934 12.518 16.5121 14.5445 16.5121H14.552ZM17.5177 54.3148C17.5177 53.8161 17.4877 53.3137 17.5177 52.8151C17.5721 52.1008 17.319 51.769 16.5635 51.8215C15.9088 51.8684 15.2516 51.8684 14.597 51.8215C13.8471 51.769 13.6071 52.1064 13.6428 52.8169C13.684 53.6587 13.6428 54.5041 13.6428 55.3477C13.6428 56.7875 13.6428 56.7875 15.0581 56.7875C17.5121 56.7931 17.5121 56.7931 17.5102 54.3148H17.5177ZM23.7041 54.3917C23.7041 53.7974 23.6891 53.2031 23.7041 52.6107C23.7229 52.0483 23.4829 51.8159 22.9242 51.8309C22.1744 51.8515 21.4245 51.8552 20.6746 51.8309C20.0785 51.8102 19.8198 52.0408 19.8367 52.652C19.8629 53.5574 19.8367 54.4629 19.8367 55.3684C19.8367 56.7912 19.8367 56.7912 21.2708 56.7912C23.6985 56.7912 23.6985 56.7912 23.6947 54.3917H23.7041ZM13.6615 35.1313C13.6877 37.4034 13.3878 37.1072 15.6355 37.1335H15.7293C17.7239 37.1185 17.5233 37.3209 17.5158 35.3225C17.5158 32.9867 17.812 33.2866 15.5006 33.2791C13.4253 33.2698 13.6728 33.0635 13.6521 35.1313H13.6615ZM21.8013 33.2735C19.5967 33.2979 19.8704 33.0167 19.8479 35.2025V35.2963C19.8629 37.3584 19.6398 37.1335 21.7076 37.1278C23.9778 37.1278 23.6985 37.4072 23.7022 35.1576C23.6966 33.0354 23.9309 33.296 21.7919 33.2698L21.8013 33.2735ZM15.6412 43.3199C17.7258 43.2992 17.5158 43.5523 17.5158 41.5014C17.5158 39.1731 17.812 39.473 15.4931 39.4655C13.4309 39.4655 13.6615 39.2481 13.6653 41.3252C13.6615 43.5898 13.3784 43.2936 15.6318 43.3199H15.6412ZM21.8482 39.4562C19.5686 39.4843 19.8648 39.1825 19.8385 41.4227V41.5164C19.8535 43.5167 19.638 43.3199 21.6401 43.3105C23.9834 43.3011 23.6854 43.6086 23.6929 41.3027C23.7004 39.2368 23.9103 39.4805 21.8482 39.4562ZM17.5121 47.596C17.4877 45.3932 17.7689 45.6669 15.583 45.6426H15.4893C13.4272 45.6594 13.6502 45.4345 13.6559 47.5022C13.6559 49.7725 13.3784 49.4931 15.628 49.4969C17.7501 49.5044 17.4896 49.7406 17.5121 47.5997V47.596ZM23.6985 47.6391C23.6704 45.3726 23.9703 45.6688 21.7188 45.6426H21.6251C19.6379 45.6576 19.8348 45.4439 19.8423 47.4591C19.8423 49.7893 19.5461 49.4894 21.8651 49.4969C23.9197 49.5081 23.6797 49.72 23.6985 47.6428V47.6391ZM18.6744 4.13366C19.3905 4.13366 20.1085 4.10741 20.8227 4.13366C21.537 4.1599 21.6514 3.7981 21.6439 3.2057C21.6439 2.65455 21.5182 2.31523 20.8696 2.32648C19.4074 2.34898 17.9445 2.34898 16.481 2.32648C15.8324 2.31523 15.7124 2.65455 15.7049 3.2057C15.7049 3.7981 15.8286 4.1674 16.5279 4.13366C17.2271 4.09991 17.9545 4.13741 18.6744 4.13741V4.13366ZM18.6069 8.25793C19.3567 8.25793 20.1066 8.23543 20.8565 8.25793C21.4864 8.28043 21.6532 7.96923 21.6513 7.39933C21.6495 6.82943 21.5651 6.43575 20.849 6.45075C19.418 6.48075 17.9864 6.48075 16.5541 6.45075C15.8774 6.43575 15.7105 6.74883 15.7105 7.35997C15.7105 7.97111 15.898 8.2973 16.5616 8.26168C17.2252 8.22606 17.9226 8.26168 18.6069 8.26168V8.25793ZM18.6275 12.3822C19.3774 12.3822 20.1272 12.3616 20.8771 12.3822C21.5257 12.4047 21.6588 12.0541 21.6495 11.503C21.6401 10.9893 21.6045 10.5657 20.9221 10.5788C19.4224 10.5975 17.9283 10.5975 16.4398 10.5788C15.7555 10.5788 15.7255 10.9912 15.7162 11.503C15.7049 12.056 15.8399 12.4066 16.4885 12.3822C17.2046 12.3635 17.9132 12.3841 18.6275 12.3841V12.3822ZM4.29941 16.4896C5.02678 16.6396 5.12613 16.1934 5.1505 15.5691C5.17862 14.8193 4.80182 14.7068 4.1738 14.7012C3.5008 14.7012 3.3377 14.9974 3.32832 15.6066C3.31895 16.2946 3.56079 16.6096 4.29941 16.4915V16.4896Z" fill="#D25E87"/>
<path d="M50.6169 60.1113C46.6801 59.9501 43.5344 58.2872 41.5585 54.7966C39.6201 51.3716 39.6838 47.8416 41.7141 44.469C44.2917 40.1948 46.9781 35.9862 49.6327 31.7569C50.3094 30.679 50.9806 30.6958 51.6723 31.8C54.325 36.0293 57.0189 40.236 59.5853 44.514C61.608 47.8884 61.6474 51.4222 59.6921 54.8416C57.7369 58.261 54.6024 59.9407 50.6169 60.1113ZM50.6319 54.7272C52.8027 54.6991 52.5478 55.0084 52.5665 52.8751C52.5796 51.5928 52.5928 51.5778 53.8788 51.5628C55.9784 51.544 55.7066 51.7878 55.7197 49.7106C55.731 47.7253 55.7197 47.6785 53.7513 47.7235C52.7746 47.7441 52.5328 47.3654 52.544 46.4562C52.5721 44.2572 52.8271 44.5515 50.5925 44.5496C48.4497 44.5496 48.7178 44.2778 48.7028 46.4431C48.6897 47.6654 48.6635 47.6916 47.4318 47.7028C45.2741 47.7253 45.5571 47.4554 45.5571 49.6038C45.5571 51.8309 45.2666 51.574 47.473 51.544C48.3954 51.5328 48.7441 51.7971 48.7291 52.7626C48.6991 54.9972 48.4216 54.701 50.6319 54.7272Z" fill="#D25E87"/>
<path d="M11.5806 6.04765C11.5806 7.26244 11.5806 8.48472 11.5806 9.69576C11.5806 10.2582 11.4157 10.59 10.7877 10.5881C8.29434 10.5881 5.79915 10.5881 3.30397 10.5881C3.09775 10.5881 2.82592 10.6443 2.74156 10.3688C2.68532 10.1682 2.87655 10.0369 3.0059 9.9076C5.63044 7.28306 8.25497 4.65852 10.8795 2.03399C11.022 1.88964 11.1626 1.64406 11.4213 1.79403C11.6088 1.90089 11.5656 2.12397 11.5656 2.30581C11.5806 3.55247 11.5806 4.79912 11.5806 6.04765Z" fill="#D25E87"/>
<path d="M33.1749 8.88035C33.9023 11.2068 32.6125 13.1921 30.4867 14.8793C29.6987 15.542 28.9681 16.2701 28.3027 17.0558C27.7665 17.6538 27.4591 17.5563 27.0485 16.9189C24.7558 13.3571 25.65 8.48292 29.1107 5.86776C30.0893 5.14025 31.2084 4.62382 32.3969 4.35115C32.9594 4.2143 33.2031 4.3849 33.1899 4.98854C33.1562 6.11522 33.1749 7.24002 33.1749 8.88035Z" fill="#D25E87"/>
<path d="M35.1077 8.31222C35.1077 7.18742 35.1227 6.06262 35.1077 4.93782C35.0965 4.37542 35.3364 4.24982 35.8576 4.33793C41.4497 5.28839 44.4117 12.3878 41.161 17.0388C40.803 17.5506 40.5443 17.62 40.0869 17.1494C38.6077 15.6309 37.1024 14.1349 35.5876 12.6502C35.4201 12.4893 35.2898 12.2936 35.2059 12.0769C35.122 11.8603 35.0866 11.6279 35.1021 11.3961C35.1208 10.3706 35.1077 9.34142 35.1077 8.31222Z" fill="#D25E87"/>
<path d="M34.206 20.9156C32.593 20.8732 31.0206 20.4014 29.6506 19.549C29.1706 19.2472 28.9644 18.9866 29.48 18.4861C30.871 17.1426 32.2382 15.7759 33.5817 14.3862C34.026 13.9306 34.3316 14.0112 34.7403 14.4255C36.0701 15.7866 37.4154 17.1307 38.7764 18.458C39.247 18.9154 39.1964 19.1947 38.6658 19.5321C37.3242 20.372 35.7874 20.8487 34.206 20.9156Z" fill="#D25E87"/>
</g>
<defs>
<clipPath id="clip0_22684_62284">
<rect width="60.13" height="60.1113" fill="white" transform="translate(1)"/>
</clipPath>
</defs>
</svg>
