<svg width="61" height="58" viewBox="0 0 61 58" fill="none" xmlns="http://www.w3.org/2000/svg">
<g clip-path="url(#clip0_21640_1180)">
<path d="M37.1364 43.446C37.1364 40.0439 37.1632 36.6377 37.1178 33.2397C37.1054 32.2969 37.4046 32.0018 38.3557 32.0018C45.1585 32.0348 51.962 32.0348 58.7662 32.0018C59.7091 32.0018 60.0041 32.2886 60.0041 33.2397C59.9711 40.0439 59.9711 46.8481 60.0041 53.6523C60.0041 54.5931 59.7173 54.8902 58.7662 54.8902C51.962 54.8572 45.1578 54.8572 38.3536 54.8902C37.4108 54.8902 37.1157 54.6034 37.1157 53.6523C37.1632 50.2502 37.1364 46.8378 37.1364 43.446ZM48.5125 46.4665C51.0563 46.4665 53.6022 46.4665 56.1461 46.4665C57.3839 46.4665 57.7574 46.1095 57.7615 44.882C57.7739 41.856 57.7739 38.8301 57.7615 35.8042C57.7615 34.5849 57.3942 34.2403 56.1254 34.2383C51.0721 34.2383 46.0181 34.2383 40.9635 34.2383C39.7132 34.2383 39.3522 34.5931 39.348 35.8227C39.3384 38.8487 39.3384 41.8746 39.348 44.9005C39.348 46.1178 39.7173 46.4603 40.9841 46.4644C43.4929 46.4726 46.0037 46.4665 48.5125 46.4665Z" fill="#32ADE6"/>
<path d="M19.5605 44.4054C24.3738 44.4054 29.1871 44.424 34.0025 44.3868C34.9412 44.3868 35.2568 44.6654 35.2403 45.6144C35.1867 48.3295 35.195 51.0487 35.2403 53.7638C35.2527 54.6262 34.9412 54.8799 34.1036 54.8779C24.4068 54.8552 14.7101 54.8779 5.01341 54.8531C2.21374 54.8531 0.00411987 52.4908 0.00411987 49.6293C0.00411987 46.7677 2.21786 44.4302 5.02165 44.4137C9.86382 44.3848 14.7122 44.4054 19.5605 44.4054ZM5.26717 46.6418C4.46945 46.6628 3.71028 46.9894 3.14659 47.5543C2.5829 48.1191 2.2578 48.879 2.23849 49.6767C2.23849 51.2117 3.65999 52.6022 5.24653 52.627C6.75881 52.6497 8.24839 51.158 8.22157 49.6478C8.19475 48.0592 6.80007 46.6315 5.26717 46.6418ZM16.4741 49.6664C16.4638 48.0881 15.0753 46.6563 13.5403 46.6418C12.7418 46.6564 11.9795 46.9778 11.4117 47.5395C10.8439 48.1011 10.5142 48.8598 10.491 49.6581C10.4766 51.222 11.9868 52.6744 13.5857 52.627C15.0753 52.5837 16.4844 51.1415 16.4741 49.6664ZM21.8176 46.6418C20.2125 46.6047 18.7807 47.9994 18.7435 49.6313C18.7085 51.1518 20.1073 52.563 21.7062 52.6249C23.2082 52.6827 24.7184 51.2179 24.7287 49.6932C24.739 48.1211 23.3608 46.6749 21.8176 46.6418ZM30.0268 52.6249C31.502 52.6249 32.942 51.2179 32.9812 49.7365C33.0245 48.1397 31.568 46.6315 30.0041 46.6522C28.3763 46.6728 26.9734 48.0964 26.994 49.7056C27.0126 51.2344 28.4485 52.6146 30.0268 52.627V52.6249Z" fill="#32ADE6"/>
<path d="M15.5106 28.0427C7.36949 28.0427 1.01711 21.5975 1.03155 13.3614C1.04393 5.36474 7.51185 -0.942255 15.6323 -1.00002C23.5218 -1.05573 30.229 5.67421 30.0866 13.7452C30.0291 17.5675 28.4661 21.2128 25.7371 23.8897C23.0081 26.5665 19.3333 28.0589 15.5106 28.0427ZM15.5106 1.22197C8.55373 1.47161 3.2618 6.61499 3.29274 13.5492C3.32369 20.5535 8.65688 25.7897 15.5684 25.765C22.6016 25.7402 27.811 20.3699 27.7821 13.4935C27.7594 6.42519 22.3602 1.44891 15.5168 1.23022L15.5106 1.22197Z" fill="#32ADE6"/>
<path d="M48.5599 25.9795C46.4638 25.9795 44.3697 25.9568 42.2756 25.9898C41.5267 26.0022 41.2441 25.7443 41.2441 24.981C41.273 22.1655 41.273 19.35 41.2441 16.5345C41.2441 15.7856 41.4875 15.5029 42.253 15.5029C44.8834 15.5504 44.4502 15.276 44.4914 17.6548C44.5059 18.5481 44.4688 19.4414 44.5038 20.3368C44.5513 21.5747 45.3415 22.0513 46.2348 21.2694C47.842 19.8623 49.247 19.8479 50.8562 21.2694C51.7495 22.0575 52.5521 21.5747 52.5892 20.3472C52.6264 19.0433 52.6202 17.7373 52.5892 16.4272C52.5769 15.7753 52.8183 15.5029 53.4888 15.5091C56.307 15.538 55.7953 15.2636 55.8284 17.7559C55.8572 20.1243 55.8057 22.5011 55.849 24.8634C55.8634 25.7113 55.5767 26.0063 54.7246 25.9878C52.68 25.9486 50.6189 25.9795 48.5599 25.9795Z" fill="#32ADE6"/>
<path d="M20.8191 58.9897C16.3572 58.9897 11.8933 58.9897 7.42726 58.9897C6.29048 58.9897 5.82834 58.2758 6.22858 57.1906C6.26257 57.0757 6.33407 56.9755 6.43167 56.9059C6.52926 56.8364 6.64734 56.8015 6.76706 56.8069C7.07447 56.7904 7.386 56.7863 7.69341 56.7863H33.759C35.1537 56.7863 35.1062 56.7863 35.2754 58.1521C35.36 58.8308 35.1351 59.0041 34.5224 58.9979C33.0782 58.9814 31.634 58.9979 30.1898 58.9979L20.8191 58.9897Z" fill="#32ADE6"/>
<path d="M48.4856 30.1059C45.1227 30.1059 41.7591 30.1059 38.3949 30.1059C37.8007 30.1059 37.1013 30.2709 37.1302 29.2558C37.157 28.3728 37.5263 27.9045 38.4299 27.9045H46.3586H58.4052C58.89 27.9045 59.3893 27.8777 59.7215 28.3171C59.8724 28.5286 59.9665 28.7753 59.9947 29.0337C60.0229 29.292 59.9842 29.5532 59.8824 29.7923C59.7173 30.2482 59.2387 30.0976 58.8859 30.0976C55.4219 30.11 51.9517 30.1059 48.4856 30.1059Z" fill="#32ADE6"/>
<path d="M48.6672 56.7821C51.9682 56.7821 55.2568 56.7718 58.5517 56.7821C59.1706 56.7821 60.0268 56.4871 59.9773 57.6672C59.936 58.6286 59.5853 58.9732 58.4299 58.9752C54.0699 58.9835 49.7112 58.9835 45.3538 58.9752C43.0844 58.9752 40.8149 58.9752 38.5579 58.9752C37.8275 58.9752 37.2663 58.7792 37.1529 57.9437C37.0456 57.1679 37.2271 56.7347 38.1659 56.745C41.6649 56.8089 45.1661 56.7842 48.6672 56.7821Z" fill="#32ADE6"/>
<path d="M48.5806 15.5195C50.9697 15.5546 50.6643 15.2162 50.685 17.6838C50.685 18.0159 50.8335 18.4512 50.5261 18.6514C50.1857 18.8701 49.8742 18.5069 49.6348 18.3027C48.8715 17.6528 48.1721 17.7147 47.4335 18.3378C47.2127 18.5255 46.9445 18.8226 46.6247 18.6761C46.3049 18.5296 46.4679 18.1273 46.4184 17.8406C46.4143 17.8063 46.4143 17.7717 46.4184 17.7374C46.4514 15.1832 46.1378 15.5587 48.5806 15.5195Z" fill="#32ADE6"/>
<path d="M48.659 36.1529C50.7221 36.1529 52.7852 36.1755 54.8484 36.1405C55.6035 36.1281 55.8799 36.3984 55.8675 37.1555C55.8332 39.2847 55.8332 41.4166 55.8675 43.5512C55.8799 44.3105 55.6014 44.5704 54.8484 44.5663C50.6588 44.5429 46.4686 44.5429 42.2777 44.5663C41.5247 44.5663 41.2461 44.3105 41.2606 43.5512C41.2936 41.4221 41.2936 39.2902 41.2606 37.1555C41.2482 36.3963 41.5247 36.124 42.2798 36.1405C44.3986 36.1735 46.5298 36.1529 48.659 36.1529Z" fill="#32ADE6"/>
<path d="M15.4817 23.9165C9.70496 23.9165 5.1475 19.3075 5.16607 13.4667C5.16607 7.67551 9.76892 3.13456 15.6158 3.14075C21.405 3.14075 25.948 7.74566 25.9315 13.5905C25.9191 19.3797 21.3286 23.9227 15.4817 23.9165ZM22.2055 9.09288C21.9522 8.67316 21.6029 8.3196 21.1863 8.06132C20.8087 7.80962 20.6437 8.22431 20.4559 8.43269C18.6982 10.403 16.9239 12.3671 15.1908 14.358C13.5156 16.2747 13.5094 16.3097 11.7206 14.5643C11.2007 14.0568 10.9098 14.1703 10.4828 14.62C10.0557 15.0698 9.81431 15.3524 10.3899 15.8579C11.1327 16.5181 11.799 17.265 12.5149 17.9561C13.3402 18.7607 13.7157 18.7814 14.4749 17.9272C16.9259 15.1894 19.3542 12.4331 21.7867 9.67469C21.927 9.50964 22.0507 9.30539 22.2055 9.09288Z" fill="#32ADE6"/>
</g>
<defs>
<clipPath id="clip0_21640_1180">
<rect width="60.8091" height="57.4861" fill="white" transform="translate(0 0.390381)"/>
</clipPath>
</defs>
</svg>
