<svg width="61" height="58" viewBox="0 0 61 58" fill="none" xmlns="http://www.w3.org/2000/svg">
<g clip-path="url(#clip0_21645_1226)">
<path d="M55.1079 20.4114C55.1079 24.3085 55.0916 28.2075 55.1201 32.1046C55.1201 32.9816 54.9166 33.35 53.9255 33.3479C49.5767 33.3479 46.396 36.5734 46.4123 40.965C46.4123 41.779 46.1254 41.9214 45.4131 41.9194C40.5657 41.897 35.7204 41.8868 30.873 41.9194C29.9471 41.9194 29.7029 41.5693 29.7395 40.7187C29.7924 39.5364 29.7395 38.3479 29.7578 37.1615C29.7761 36.2397 29.4159 35.7899 28.4432 35.7859C26.9475 35.7859 26.9434 35.7452 26.9434 34.2576C26.9434 25.8178 26.9434 17.3786 26.9434 8.94013C26.9434 7.50138 26.9882 7.45865 28.4229 7.45051C29.5401 7.45051 30.6614 7.46882 31.7786 7.45051C32.5275 7.43423 32.9243 7.69674 32.8897 8.50667C32.7696 11.2722 33.1848 10.8123 35.3317 10.8225C39.4668 10.8408 43.602 10.8225 47.7452 10.8225C49.0069 10.8225 49.1351 10.6862 49.1494 9.41835C49.1697 7.53394 48.8543 7.43219 51.1844 7.45051C51.9984 7.45051 52.8124 7.45051 53.6264 7.45051C55.0855 7.45051 55.1282 7.49731 55.1282 8.91775C55.1173 12.7503 55.1106 16.5816 55.1079 20.4114ZM44.7904 16.9397C46.8254 16.9397 48.8604 16.9397 50.8954 16.9397C51.4001 16.9397 52.0472 16.9987 52.0146 16.2641C51.9862 15.6373 51.3879 15.6536 50.9076 15.6536C46.9068 15.6536 42.9046 15.6536 38.9011 15.6536C38.4249 15.6536 37.8531 15.6251 37.8449 16.2987C37.8368 16.9723 38.4188 16.9357 38.8889 16.9377C40.8588 16.9438 42.8246 16.9397 44.7904 16.9397ZM44.8921 26.9112C46.8925 26.9112 48.893 26.9112 50.8934 26.9112C51.4041 26.9112 52.037 26.9295 52.0106 26.2153C51.9882 25.562 51.3777 25.6292 50.9076 25.6292C46.9068 25.6292 42.9046 25.6292 38.9011 25.6292C38.4371 25.6292 37.847 25.5518 37.8449 26.2519C37.8429 26.9519 38.4107 26.9112 38.8889 26.9133C40.8913 26.9072 42.8917 26.9031 44.8921 26.9031V26.9112ZM46.1457 23.9259C47.7411 23.9259 49.3345 23.9259 50.928 23.9259C51.394 23.9259 52.0228 23.9605 52.0228 23.3154C52.0228 22.6703 51.4123 22.595 50.8832 22.593H41.626C41.105 22.593 40.4904 22.593 40.5026 23.3011C40.5148 24.0521 41.1905 23.9116 41.6687 23.9218C43.1603 23.932 44.654 23.9198 46.1457 23.9177V23.9259ZM46.1457 13.9544C47.7737 13.9544 49.4017 13.9544 51.0175 13.9544C51.453 13.9544 52.0167 13.9544 52.035 13.3703C52.0533 12.7863 51.4855 12.7761 51.048 12.7741C47.868 12.7659 44.6873 12.7659 41.5059 12.7741C41.0806 12.7741 40.525 12.713 40.5148 13.35C40.5047 13.9869 41.0562 13.9503 41.4876 13.9605C43.0301 13.9503 44.5869 13.9422 46.1437 13.9422L46.1457 13.9544ZM44.9125 33.8669C46.0277 33.8669 47.151 33.8669 48.258 33.8669C48.6833 33.8669 49.2409 33.9401 49.2755 33.3195C49.3101 32.6988 48.7749 32.5787 48.2845 32.5746C45.989 32.5624 43.6922 32.5624 41.394 32.5746C40.93 32.5746 40.4701 32.6744 40.4823 33.2747C40.4965 33.8343 40.9483 33.8648 41.3655 33.8669C42.5376 33.8567 43.7281 33.8506 44.9104 33.8547L44.9125 33.8669ZM42.2385 36.8868C43.3557 36.8868 44.477 36.8868 45.5861 36.8868C46.0846 36.8868 46.6219 36.8156 46.5893 36.1766C46.5608 35.6027 46.0297 35.5824 45.5718 35.5803C43.3089 35.5803 41.0446 35.5803 38.779 35.5803C38.3272 35.5803 37.8286 35.5987 37.8388 36.2234C37.8388 36.8156 38.3191 36.8827 38.7851 36.8848C39.9389 36.8787 41.0887 36.8746 42.2365 36.8746L42.2385 36.8868ZM36.687 13.0773C36.6914 12.9578 36.6613 12.8396 36.6003 12.7367C36.5394 12.6339 36.4501 12.5508 36.3431 12.4973C36.2355 12.4431 36.1133 12.4253 35.9947 12.4465C35.8762 12.4678 35.7678 12.5271 35.6858 12.6153C35.2788 13.0122 34.8718 13.4171 34.4648 13.8363C33.4982 14.8722 33.5002 14.8783 32.3748 14.0561C32.0452 13.816 31.6952 13.6817 31.3736 14.0053C31.0521 14.3288 31.2393 14.691 31.5039 14.9841C31.8661 15.3911 32.2385 15.7777 32.6089 16.1746C33.0688 16.667 33.5307 16.6772 34.0008 16.1868C34.7985 15.3585 35.5983 14.5343 36.396 13.7041C36.4879 13.6229 36.5613 13.523 36.6111 13.4109C36.661 13.2989 36.6862 13.1775 36.685 13.0549L36.687 13.0773ZM36.687 33.2706C36.687 32.9877 36.6361 32.7965 36.4469 32.6764C36.3338 32.5972 36.1966 32.5601 36.059 32.5716C35.9214 32.5832 35.7922 32.6426 35.6939 32.7395C35.3663 33.0305 35.0712 33.35 34.7497 33.6613C34.3081 34.0683 33.9947 34.7134 33.4127 34.8722C32.8307 35.0309 32.6496 34.2983 32.2263 34.0439C31.9719 33.8913 31.7257 33.816 31.4754 34.0134C31.4118 34.0571 31.3578 34.1133 31.3167 34.1786C31.2756 34.2439 31.2483 34.3169 31.2365 34.3931C31.2247 34.4694 31.2286 34.5472 31.248 34.6219C31.2673 34.6966 31.3018 34.7665 31.3492 34.8274C31.7871 35.4728 32.3155 36.0519 32.9182 36.547C33.0352 36.6508 33.1877 36.7058 33.3441 36.7005C33.5005 36.6952 33.6489 36.63 33.7586 36.5185C34.709 35.5539 35.637 34.5669 36.5649 33.5799C36.628 33.4793 36.6683 33.3661 36.6829 33.2482L36.687 33.2706ZM36.687 23.2014C36.7043 23.0958 36.6893 22.9874 36.6439 22.8904C36.5985 22.7934 36.5249 22.7125 36.4326 22.6581C36.3177 22.5818 36.1802 22.5467 36.0428 22.5585C35.9053 22.5703 35.7759 22.6284 35.6756 22.7232C35.2503 23.1078 34.8494 23.523 34.4546 23.934C33.4575 24.9515 33.4575 24.9658 32.3911 24.105C32.0635 23.8424 31.7379 23.7122 31.4062 24.0561C31.1111 24.3593 31.2129 24.691 31.455 24.9658C31.9048 25.4725 32.3728 25.9609 32.8429 26.4452C33.0138 26.6223 33.2865 26.7851 33.4819 26.6365C34.6974 25.6785 35.7692 24.5512 36.6646 23.2889C36.6778 23.2538 36.684 23.2165 36.6829 23.179L36.687 23.2014Z" fill="#34C759"/>
<path d="M53.8116 46.8278C52.1859 46.8225 50.6288 46.1723 49.4819 45.0201C48.3351 43.8679 47.6922 42.3078 47.6943 40.6821C47.7086 37.361 50.5779 34.5059 53.8767 34.5344C57.1754 34.5629 60.0244 37.4322 59.998 40.7452C59.9824 42.3716 59.3223 43.9254 58.1625 45.0657C57.0027 46.2061 55.438 46.8398 53.8116 46.8278ZM52.9162 43.3175C53.0626 43.3087 53.2056 43.2694 53.336 43.2021C53.4664 43.1349 53.5812 43.041 53.6732 42.9267C54.8006 41.8034 55.9259 40.676 57.0492 39.5446C57.3687 39.221 57.7228 38.812 57.3362 38.4029C56.8925 37.9349 56.4713 38.3337 56.1254 38.6736C55.2808 39.5059 54.4322 40.3362 53.6081 41.1909C53.1888 41.6243 52.8348 41.6508 52.4237 41.1909C52.0859 40.8124 51.7114 40.4644 51.337 40.1205C51.0297 39.8376 50.6736 39.7501 50.3378 40.0615C49.9593 40.4094 50.1628 40.7473 50.4375 41.0281C51.0969 41.7064 51.7684 42.3773 52.4522 43.0407C52.5951 43.1513 52.7509 43.2443 52.9162 43.3175Z" fill="#34C759"/>
<path d="M19.0497 46.3802C15.1506 46.3802 11.2522 46.3802 7.35451 46.3802C5.97681 46.3802 5.78146 46.1889 5.78146 44.7786C5.78146 38.5759 5.76721 32.3651 5.78146 26.1685C5.80295 25.8008 5.74233 25.4329 5.604 25.0914C5.46568 24.75 5.2531 24.4437 4.9817 24.1946C3.48801 22.7701 2.04519 21.2825 0.586091 19.8173C0.136356 19.3675 -0.323548 18.8608 0.274742 18.2564C0.873033 17.652 1.38382 18.1282 1.82949 18.5719C3.53482 20.2691 5.21776 21.9886 6.94547 23.6594C7.55597 24.2475 7.6333 24.9353 7.63127 25.6944C7.63127 31.4901 7.63127 37.2864 7.63127 43.0835C7.63127 44.6524 7.63127 44.6545 9.21043 44.6545C16.295 44.6545 23.3802 44.6545 30.466 44.6545C30.8712 44.6444 31.2763 44.6765 31.6748 44.7501C31.7766 44.7664 31.874 44.8032 31.9612 44.8581C32.0484 44.9131 32.1236 44.9852 32.1821 45.07C32.2407 45.1548 32.2815 45.2506 32.302 45.3516C32.3226 45.4527 32.3224 45.5568 32.3016 45.6577C32.2886 45.847 32.203 46.024 32.0627 46.1517C31.9225 46.2795 31.7383 46.3482 31.5487 46.3435C31.2454 46.368 30.9382 46.3639 30.6349 46.3639L19.0497 46.3802Z" fill="#34C759"/>
<path d="M19.0985 42.2898C16.3919 42.2898 13.6834 42.2653 10.9768 42.304C10.1038 42.3183 9.74359 42.0395 9.7965 41.14C9.85551 40.1225 9.83109 39.105 9.7965 38.0875C9.78022 37.422 10 37.0903 10.7224 37.0903C16.3065 37.1025 21.8905 37.1025 27.4746 37.0903C28.1217 37.0903 28.4066 37.3549 28.4025 37.9918C28.4025 39.0745 28.3781 40.1591 28.4025 41.2478C28.4249 42.0374 28.0891 42.3121 27.3097 42.304C24.5828 42.2714 21.8396 42.2898 19.0985 42.2898Z" fill="#34C759"/>
<path d="M40.987 9.52423C39.0557 9.52423 37.1205 9.49981 35.1933 9.53644C34.4119 9.55069 34.1168 9.26579 34.0924 8.47824C34.0171 6.03624 33.9947 6.03624 36.4611 6.03624C36.801 6.03624 37.1388 6.02403 37.4786 6.03624C38.1034 6.05456 38.4432 5.83274 38.5979 5.15305C38.9031 3.80181 39.8189 3.04479 40.9605 3.01019C42.1021 2.9756 43.0647 3.71634 43.4229 5.14287C43.606 5.8653 43.9967 6.05659 44.6439 6.04031C45.4212 6.02199 46.2006 6.04031 46.98 6.04031C47.5906 6.04031 47.8856 6.28451 47.9406 6.93775C48.1441 9.49371 48.1298 9.53237 45.5494 9.53237L40.987 9.52423Z" fill="#34C759"/>
<path d="M19.9654 24.2596C21.5242 24.2596 23.083 24.2861 24.6459 24.2495C25.4029 24.2312 25.6634 24.5283 25.641 25.267C25.6024 26.317 25.6064 27.3691 25.641 28.4172C25.6634 29.0989 25.4172 29.4224 24.7131 29.4204C21.5276 29.4096 18.3428 29.4096 15.1587 29.4204C14.4302 29.4204 14.1168 29.1091 14.1412 28.3744C14.1697 27.3569 14.1738 26.3394 14.1412 25.3219C14.1168 24.5547 14.3895 24.2189 15.2015 24.2434C16.7806 24.2922 18.374 24.2596 19.9654 24.2596Z" fill="#34C759"/>
<path d="M17.5071 30.6353C18.9622 30.6353 20.4151 30.6618 21.8681 30.6353C22.7086 30.6129 23.0138 30.9548 22.9752 31.779C22.9284 32.7965 22.9467 33.814 22.9752 34.8315C22.9894 35.4908 22.7717 35.8307 22.0472 35.8246C18.9703 35.8042 15.8934 35.8042 12.8164 35.8246C12.1591 35.8246 11.9007 35.5397 11.9068 34.9129C11.9068 33.8303 11.9271 32.7497 11.9068 31.6671C11.8885 30.9182 12.2466 30.6495 12.9548 30.6495C14.4689 30.6475 15.991 30.6373 17.5071 30.6353Z" fill="#34C759"/>
<path d="M25.6288 47.709C26.3838 47.6985 27.1247 47.9129 27.7574 48.3249C28.39 48.737 28.8858 49.328 29.1814 50.0227C29.4771 50.7174 29.5593 51.4844 29.4175 52.226C29.2758 52.9675 28.9166 53.6502 28.3856 54.1869C27.8546 54.7237 27.1759 55.0902 26.4359 55.2399C25.6959 55.3896 24.9281 55.3157 24.2302 55.0276C23.5324 54.7395 22.936 54.2502 22.5172 53.622C22.0984 52.9938 21.876 52.2552 21.8783 51.5002C21.8824 49.5039 23.6264 47.7415 25.6288 47.709Z" fill="#34C759"/>
<path d="M16.2861 51.5999C16.2716 52.5945 15.865 53.5432 15.1546 54.2395C14.4442 54.9358 13.4876 55.3233 12.4929 55.3179C10.4172 55.2894 8.65486 53.4864 8.70777 51.4412C8.75592 50.4497 9.17806 49.5134 9.88912 48.8209C10.6002 48.1283 11.5473 47.731 12.5397 47.709C13.0425 47.7139 13.5393 47.819 14.0011 48.0181C14.4628 48.2172 14.8803 48.5063 15.2291 48.8685C15.5779 49.2308 15.851 49.6589 16.0325 50.1278C16.214 50.5968 16.3002 51.0972 16.2861 51.5999Z" fill="#34C759"/>
</g>
<defs>
<clipPath id="clip0_21645_1226">
<rect width="60.8091" height="57.4861" fill="white" transform="translate(0 0.390381)"/>
</clipPath>
</defs>
</svg>
