<svg width="62" height="62" viewBox="0 0 62 62" fill="none" xmlns="http://www.w3.org/2000/svg">
<g clip-path="url(#clip0_14088_28236)">
<g clip-path="url(#clip1_14088_28236)">
<path d="M29.6465 45.262V59.61C29.6465 59.6646 29.6427 59.7192 29.6465 59.7738C29.6662 60.0162 29.5685 60.0555 29.355 59.967C28.5656 59.6395 27.7719 59.3229 26.9809 59.0002C22.9066 57.3389 18.8325 55.6779 14.7586 54.0172C12.2245 52.9847 9.68861 51.9573 7.15088 50.935C6.85991 50.8188 6.75947 50.673 6.76001 50.3569C6.76984 44.2195 6.7722 38.0819 6.76711 31.9441C6.76711 31.8988 6.76711 31.8535 6.76711 31.8082C6.77311 31.521 6.79659 31.5025 7.06681 31.6116C8.41629 32.1543 9.76522 32.698 11.1136 33.2428L20.6724 37.0996C21.3213 37.3617 21.9707 37.6228 22.6207 37.883C23.1535 38.0964 23.4259 38.026 23.7895 37.5773C24.7339 36.4127 25.6778 35.2481 26.6211 34.0835C27.5375 32.9553 28.4554 31.8271 29.3747 30.6989C29.432 30.629 29.4713 30.4805 29.5892 30.5324C29.6929 30.5766 29.6438 30.712 29.6438 30.8053C29.6438 35.0521 29.6438 39.2985 29.6438 43.5446L29.6465 45.262Z" fill="#08A6FF"/>
<path d="M31.1466 45.2593C31.1466 40.4673 31.1475 35.6754 31.1493 30.8834C31.1493 30.7633 31.0811 30.5832 31.2072 30.534C31.3425 30.4794 31.3982 30.6711 31.4719 30.7617C32.587 32.1275 33.6985 33.4965 34.8063 34.8685C35.5389 35.7718 36.2715 36.6755 37.0041 37.5795C37.3672 38.0266 37.6423 38.097 38.1735 37.8825C41.6967 36.4587 45.2196 35.0347 48.7422 33.6102C50.3941 32.9438 52.0474 32.2806 53.7023 31.6204C54.0031 31.4997 54.0249 31.5112 54.0249 31.8387C54.0249 38.0395 54.0267 44.2406 54.0304 50.4421C54.0304 50.6938 53.9414 50.8111 53.7137 50.9028C50.7975 52.0809 47.8833 53.2637 44.9711 54.4512C40.9976 56.07 37.0245 57.6895 33.0518 59.3098C32.5306 59.5223 32.0082 59.7336 31.4845 59.9436C31.1679 60.0708 31.1471 60.0566 31.1471 59.7143C31.1471 56.25 31.1471 52.7857 31.1471 49.3214L31.1466 45.2593Z" fill="#08A6FF"/>
<path d="M30.4101 1.00001C35.6595 0.971074 40.0617 5.33831 40.0229 10.6964C39.9842 15.9436 35.642 20.2721 30.3429 20.2464C25.1148 20.2213 20.7126 15.8874 20.7716 10.5059C20.8289 5.29027 25.1476 0.961794 30.4101 1.00001ZM28.7445 14.8038C29.0175 14.8114 29.2015 14.6586 29.3794 14.48C31.0237 12.8329 32.669 11.187 34.3155 9.54233C34.643 9.21478 34.9755 8.89052 35.2943 8.55369C35.4952 8.34134 35.5672 8.08585 35.4581 7.79816C35.4162 7.67188 35.34 7.5597 35.2382 7.47412C35.1363 7.38853 35.0127 7.33289 34.881 7.3134C34.559 7.25389 34.3264 7.4264 34.1135 7.64094C32.3914 9.36418 30.6696 11.0881 28.9481 12.8128C28.7844 12.9766 28.685 12.9957 28.5114 12.8189C27.8656 12.1534 27.2083 11.4994 26.5462 10.8498C26.4776 10.7792 26.3957 10.7232 26.3051 10.6849C26.2145 10.6466 26.1172 10.6269 26.0188 10.6269C25.9205 10.6269 25.8232 10.6466 25.7326 10.6849C25.642 10.7232 25.56 10.7792 25.4915 10.8498C25.2027 11.1451 25.2005 11.5594 25.5095 11.8733C26.4108 12.7839 27.3203 13.6868 28.2259 14.5936C28.2925 14.6634 28.3732 14.7183 28.4626 14.7545C28.552 14.7908 28.6481 14.8075 28.7445 14.8038Z" fill="#08A6FF"/>
<path d="M38.0327 36.3457C37.8766 36.3534 37.8176 36.2365 37.7461 36.1497C36.9782 35.2035 36.2118 34.2573 35.4468 33.311C34.2603 31.8509 33.0728 30.3913 31.8842 28.9323C31.5954 28.5775 31.591 28.5753 31.9994 28.4104C34.7729 27.2921 37.5469 26.1742 40.3212 25.0569C44.2666 23.4647 48.2111 21.871 52.1547 20.2759C52.8459 19.9964 53.5386 19.7218 54.2254 19.4314C54.4437 19.3397 54.5807 19.3593 54.7374 19.5537C56.7056 21.995 58.6789 24.4321 60.6572 26.865C60.8756 27.133 60.8756 27.1379 60.5573 27.2662C57.5308 28.4865 54.504 29.7057 51.4767 30.9238C47.6918 32.4523 43.9078 33.9809 40.1246 35.5094C39.4925 35.7641 38.8598 36.0189 38.2265 36.2737C38.1594 36.3004 38.0906 36.3233 38.0327 36.3457Z" fill="#08A6FF"/>
<path d="M29.1268 28.6436C29.0722 28.72 29.004 28.8161 28.9303 28.9067C28.0477 29.9931 27.1645 31.079 26.2805 32.1647C25.2148 33.4748 24.1465 34.785 23.0913 36.1083C22.9199 36.3266 22.7763 36.3643 22.5192 36.26C18.8561 34.7708 15.1906 33.288 11.5225 31.8115C7.78774 30.3048 4.05248 28.7999 0.316669 27.2968C0.274635 27.2799 0.234234 27.2575 0.190562 27.2422C-0.0277999 27.1778 -0.0539986 27.0894 0.0999466 26.9016C1.40029 25.3112 2.69536 23.7166 3.98515 22.1178C4.67736 21.2635 5.37066 20.4097 6.05413 19.5477C6.20589 19.3561 6.34892 19.3375 6.56892 19.4271C10.3593 20.9654 14.1512 22.4998 17.9445 24.0301C21.6013 25.5077 25.2596 26.9837 28.9194 28.458C28.998 28.4896 29.105 28.494 29.1268 28.6436Z" fill="#08A6FF"/>
<path d="M30.401 27.4595C30.2984 27.4212 30.1958 27.3863 30.0953 27.3459C27.3905 26.2515 24.6854 25.1572 21.9799 24.0628C17.7313 22.348 13.4816 20.6349 9.23082 18.9237C8.9273 18.8014 8.6245 18.6775 8.32244 18.5519C8.25857 18.5257 8.16521 18.5143 8.16958 18.4225C8.17395 18.3308 8.26675 18.3237 8.33335 18.2981C9.36147 17.8814 10.3898 17.4659 11.4183 17.0518C14.0994 15.9687 16.7794 14.8845 19.4584 13.7993C19.6472 13.7223 19.7373 13.7485 19.8012 13.9461C20.3316 15.6182 21.248 17.1421 22.4761 18.3947C23.813 19.7595 25.4 20.7497 27.237 21.2618C30.7853 22.2504 34.0831 21.6843 37.0632 19.4925C38.9521 18.1026 40.2224 16.2515 40.973 14.0373C41.0877 13.6988 41.0866 13.6999 41.4305 13.8391C43.8499 14.8163 46.2701 15.7922 48.691 16.7668C49.9302 17.2669 51.1687 17.7691 52.4064 18.2735C52.4927 18.309 52.6374 18.3117 52.6286 18.4373C52.621 18.5465 52.484 18.5585 52.3939 18.595C48.6377 20.1068 44.8839 21.6201 41.1324 23.1348C37.6586 24.5349 34.1856 25.936 30.7133 27.3383C30.6128 27.3803 30.5107 27.4174 30.401 27.4595Z" fill="#08A6FF"/>
</g>
</g>
<defs>
<clipPath id="clip0_14088_28236">
<rect width="60.8091" height="60.8091" fill="white" transform="translate(0.269775 0.269653)"/>
</clipPath>
<clipPath id="clip1_14088_28236">
<rect width="60.81" height="59.0194" fill="white" transform="translate(0 1)"/>
</clipPath>
</defs>
</svg>
