<svg width="47" height="47" viewBox="0 0 47 47" fill="none" xmlns="http://www.w3.org/2000/svg">
<g clip-path="url(#clip0_39118_314973)">
<g clip-path="url(#clip1_39118_314973)">
<path d="M6.76172 24.2458V8.39629C6.76172 7.67285 6.76172 7.67188 7.49391 7.67188H32.3339C33.069 7.67188 33.071 7.67188 33.071 8.3817C33.071 12.8857 33.0641 17.3906 33.0807 21.8976C33.0807 22.4003 32.965 22.5782 32.4234 22.6336C26.6397 23.2151 22.0871 27.7288 21.5037 33.4755C21.2645 35.8257 21.6408 38.0961 22.7211 40.2247C23.0225 40.8207 22.9924 40.8693 22.3244 40.8693C17.366 40.8693 12.4069 40.8693 7.44724 40.8693C6.78117 40.8693 6.76658 40.8509 6.76658 40.1887C6.76334 34.8744 6.76172 29.5601 6.76172 24.2458Z" fill="#3565EF"/>
<path d="M44.3439 34.7787C44.4353 40.3212 39.7408 45.534 33.5507 45.4747C30.7154 45.459 28.002 44.3199 26.0052 42.3069C24.0084 40.2939 22.8912 37.5713 22.8985 34.736C22.9063 28.825 27.7282 24.0118 33.645 24.0195C39.5619 24.0273 44.3478 28.8541 44.3439 34.7787ZM33.0762 35.9524C33.0762 37.232 33.0694 38.5107 33.0762 39.7893C33.0762 40.2619 33.3835 40.5915 33.7938 40.6197C34.1827 40.647 34.5056 40.3212 34.5561 39.837C34.5696 39.6594 34.5738 39.4812 34.5688 39.3031C34.5688 36.9559 34.5688 34.6089 34.5688 32.2623C34.5688 32.1086 34.4978 31.9015 34.6718 31.8198C34.8459 31.7382 34.949 31.9385 35.0608 32.0435C35.5586 32.5297 36.04 33.0334 36.5456 33.5108C36.8558 33.8025 37.2262 33.8424 37.5491 33.5429C37.8719 33.2434 37.8476 32.8826 37.6094 32.5345C37.5209 32.4177 37.4234 32.3082 37.3176 32.2068C36.4027 31.2461 35.3943 30.3788 34.4978 29.3977C34.0359 28.8921 33.6227 28.9115 33.1229 29.4064C32.1304 30.3995 31.1425 31.3998 30.1591 32.4071C29.7916 32.7815 29.7604 33.2132 30.0619 33.5176C30.3633 33.8219 30.7902 33.8093 31.1762 33.434C31.6439 32.9857 32.0931 32.519 32.5579 32.0727C32.6785 31.9569 32.7806 31.7294 32.9799 31.8189C33.1462 31.8928 33.0675 32.1106 33.0684 32.2632C33.0762 33.4894 33.0762 34.7194 33.0762 35.9524Z" fill="#3565EF"/>
<path d="M27.5208 45.3773C27.2816 45.4969 27.0997 45.4599 26.9247 45.4599C19.245 45.4599 11.5649 45.4599 3.88457 45.4599C2.82664 45.4599 2.48242 45.1215 2.48242 44.0714C2.48242 31.207 2.48242 18.3423 2.48242 5.47732C2.48242 4.4262 2.83636 4.07128 3.87485 4.07031H10.5842C11.2444 4.07031 11.2492 4.07615 11.2531 4.75777C11.2531 5.06601 11.2366 5.37425 11.2531 5.68152C11.2804 6.07046 11.1092 6.18423 10.7378 6.18034C9.29577 6.16673 7.85376 6.17256 6.41174 6.18034C5.53662 6.18034 5.32172 6.39134 5.32172 7.26842C5.32172 18.6127 5.32172 29.9546 5.32172 41.2943C5.32172 42.1519 5.488 42.3173 6.34757 42.3182C11.9873 42.3182 17.627 42.3156 23.2667 42.3104C23.7918 42.3104 24.1681 42.4369 24.524 42.8569C25.2981 43.7546 26.2071 44.5265 27.2184 45.1449C27.3088 45.1993 27.3895 45.2752 27.5208 45.3773Z" fill="#3565EF"/>
<path d="M37.4122 13.968C37.4122 16.7853 37.4122 19.6028 37.4122 22.4208C37.4122 23.1111 37.3888 23.1277 36.7315 22.9556C36.2327 22.8153 35.7214 22.7238 35.2049 22.6823C34.7236 22.6532 34.5554 22.448 34.5602 21.9501C34.5826 19.1974 34.5709 16.4446 34.5709 13.6919C34.5709 11.5702 34.5709 9.44878 34.5709 7.32773C34.5709 6.42246 34.323 6.17937 33.4099 6.1784C31.9854 6.1784 30.5599 6.16479 29.1315 6.18423C28.7037 6.19007 28.5481 6.06658 28.6142 5.62221C28.6687 5.25757 28.6405 4.87932 28.6366 4.50691C28.6366 4.2045 28.7572 4.06935 29.0703 4.07032C31.4671 4.07615 33.864 4.07032 36.2599 4.07907C36.9309 4.07907 37.348 4.51371 37.3976 5.22451C37.4277 5.65916 37.4102 6.09964 37.4112 6.53526L37.4122 13.968Z" fill="#3565EF"/>
<path d="M19.9325 6.1758C17.8108 6.1758 15.6895 6.1758 13.5684 6.1758C12.8187 6.1758 12.7059 6.05911 12.703 5.29484C12.7001 4.53056 12.6962 3.77212 12.703 3.01173C12.7098 2.44581 12.8975 2.2562 13.4721 2.25328C14.7673 2.2455 16.0635 2.23967 17.3616 2.25328C17.8847 2.26009 18.2037 2.06951 18.3816 1.5561C18.6257 0.854053 19.1857 0.4865 19.8917 0.472887C20.6219 0.462191 21.2306 0.82391 21.4776 1.52693C21.6721 2.08409 22.0075 2.26787 22.5705 2.2562C23.8171 2.23189 25.0647 2.2455 26.3112 2.25037C26.9773 2.25037 27.1368 2.41761 27.1407 3.08952C27.1452 3.86741 27.1452 4.6453 27.1407 5.42319C27.1348 6.02314 26.987 6.17482 26.3919 6.1758C24.2391 6.17904 22.086 6.17904 19.9325 6.1758Z" fill="#3565EF"/>
</g>
</g>
<defs>
<clipPath id="clip0_39118_314973">
<rect width="46.375" height="46.375" fill="white"/>
</clipPath>
<clipPath id="clip1_39118_314973">
<rect width="41.8632" height="45" fill="white" transform="translate(2.48242 0.472656)"/>
</clipPath>
</defs>
</svg>
