<svg width="61" height="59" viewBox="0 0 61 59" fill="none" xmlns="http://www.w3.org/2000/svg">
<g clip-path="url(#clip0_21638_1106)">
<path d="M50.3322 39.8306C51.6651 39.8299 52.985 40.0933 54.2155 40.6058C55.446 41.1182 56.5627 41.8695 57.501 42.8162C58.4394 43.7628 59.1808 44.8861 59.6824 46.1211C60.1839 47.3561 60.4357 48.6782 60.4232 50.0111C60.4107 51.344 60.1341 52.6611 59.6094 53.8865C59.0847 55.1118 58.3223 56.2209 57.3663 57.1498C56.4103 58.0787 55.2796 58.8088 54.0397 59.298C52.7998 59.7873 51.4752 60.0259 50.1425 60C44.6285 59.9716 40.1536 55.417 40.1764 49.8556C40.1795 48.529 40.4454 47.2161 40.9585 45.9927C41.4716 44.7693 42.2219 43.6596 43.166 42.7276C44.1102 41.7956 45.2295 41.0598 46.4594 40.5626C47.6894 40.0654 49.0056 39.8166 50.3322 39.8306ZM51.6386 48.4506L51.8756 48.3027C52.2378 48.716 52.5791 49.1502 52.9678 49.539C53.6808 50.2538 54.4449 50.3088 55.0536 49.7286C55.6623 49.1483 55.6224 48.3159 54.9531 47.6295C53.7737 46.4236 52.5804 45.2309 51.3731 44.0515C50.5825 43.2816 49.9017 43.293 49.0978 44.0856C47.9335 45.2328 46.7788 46.3932 45.6278 47.5537C44.8693 48.3121 44.8049 49.082 45.406 49.702C46.007 50.3221 46.8091 50.2709 47.5657 49.539C47.9449 49.1711 48.3241 48.79 48.7261 48.388C48.929 48.7501 48.8626 49.0175 48.8626 49.2735C48.8626 51.0672 48.874 52.861 48.8626 54.6548C48.8626 55.2786 49.0086 55.8133 49.587 56.1281C50.5654 56.6628 51.6102 55.9726 51.6196 54.7666C51.65 52.6657 51.6386 50.5553 51.6386 48.4506Z" fill="#FF2D55"/>
<path d="M20.0734 41.3171H37.1236C38.6254 41.3171 38.8889 41.5257 39.2928 42.9914C39.312 43.1168 39.3537 43.2375 39.4161 43.3479C40.4002 44.6866 39.8712 46.0025 39.4161 47.3526C39.2265 47.8835 38.9686 48.1016 38.3997 48.0959C36.3784 48.0693 34.3571 48.0959 32.332 48.0959C24.0598 48.0959 15.7875 48.0959 7.51518 48.0959C6.16302 48.1157 4.8372 47.7211 3.71589 46.9652C2.59458 46.2093 1.73152 45.1283 1.2427 43.8675C0.607491 42.2937 1.2427 41.3209 2.93028 41.319C8.64529 41.314 14.3597 41.3133 20.0734 41.3171Z" fill="#FF2D55"/>
<path d="M33.354 0.00947746C36.0086 0.00947746 38.6633 0.00947746 41.3179 0.00947746C42.9903 0.00947746 43.5933 0.805863 43.214 2.43656C42.7476 4.49704 42.2906 6.56006 41.8431 8.6256C41.352 10.8631 40.385 11.6481 38.0849 11.65C34.8615 11.65 31.638 11.65 28.4145 11.65C26.2378 11.65 25.2518 10.8479 24.7777 8.71472C24.3037 6.58155 23.8296 4.40097 23.348 2.24504C23.0408 0.855161 23.6685 0.0265426 25.102 0.0151657C27.8571 -0.00569201 30.6065 0.00947746 33.354 0.00947746ZM33.3768 4.08621C33.1245 4.07208 32.8738 4.13336 32.6565 4.26227C32.4392 4.39117 32.2652 4.58184 32.1566 4.81C32.0481 5.03815 32.01 5.29345 32.0471 5.54336C32.0842 5.79327 32.1948 6.02648 32.365 6.21327C32.5351 6.40006 32.757 6.53196 33.0023 6.59218C33.2477 6.6524 33.5054 6.63821 33.7427 6.55141C33.98 6.46461 34.186 6.30914 34.3346 6.1048C34.4832 5.90046 34.5676 5.65651 34.577 5.40403C34.59 5.0708 34.4714 4.74584 34.2468 4.49929C34.0223 4.25274 33.7098 4.10437 33.3768 4.08621Z" fill="#FF2D55"/>
<path d="M56.125 21.0985C56.125 27.0398 56.125 32.9811 56.125 38.9224C56.125 40.1454 56.125 40.1416 55.0139 39.6714C54.6114 39.4882 54.1986 39.3287 53.7776 39.1935C51.9364 38.6569 52.2076 38.9375 52.2038 37.0224C52.1949 27.2888 52.1949 17.5603 52.2038 7.83682C52.2038 5.84207 51.8018 5.4344 49.8393 5.4325C48.1328 5.4325 46.4262 5.41733 44.7197 5.4325C44.0636 5.4325 43.8493 5.26564 43.9802 4.53941C44.2229 3.19694 44.8695 1.8848 44.4049 0.456994C44.2779 0.0569053 44.6855 0.026567 44.9738 0.0246709C47.7858 0.0246709 50.5977 -0.0322139 53.4078 0.0512169C55.0594 0.100517 56.1307 1.37852 56.1326 3.10023C56.1352 9.09208 56.1326 15.0915 56.125 21.0985Z" fill="#FF2D55"/>
<path d="M10.4846 20.8994C10.4846 15.0555 10.4846 9.21215 10.4846 3.36947C10.4846 1.19837 11.6394 0.0208572 13.7953 0.0113765C16.3229 -4.62674e-07 18.8485 0.02465 21.3799 0C22.0966 0 22.3621 0.189616 22.1384 0.936701C21.7876 2.13128 22.3697 3.23674 22.6048 4.35926C22.7944 5.277 22.5138 5.45524 21.689 5.43438C19.9824 5.39456 18.2759 5.423 16.5694 5.423C14.6106 5.423 14.2295 5.80223 14.2295 7.73062C14.2295 17.87 14.2295 28.0087 14.2295 38.1468C14.2295 40.2193 14.4912 40.0923 12.3068 40.0942C10.2343 40.0942 10.4922 40.1833 10.4884 38.2397C10.4795 32.459 10.4783 26.6789 10.4846 20.8994Z" fill="#FF2D55"/>
<path d="M24.8669 49.3095C29.1921 49.3095 33.5191 49.3285 37.8442 49.2925C38.7108 49.2925 39.0862 49.5086 39.1165 50.4302C39.1525 51.793 39.4654 53.1342 40.0362 54.3723C40.3585 55.0625 40.1196 55.2711 39.4199 55.2673C36.6743 55.2521 33.9211 55.2673 31.1792 55.2673H14.129C11.5692 55.2673 10.4865 54.1978 10.4846 51.6646C10.4846 49.3039 10.4846 49.3039 12.8396 49.3039L24.8669 49.3095Z" fill="#FF2D55"/>
<path d="M33.3143 36.3018C29.747 36.3018 26.1804 36.3018 22.6143 36.3018C22.2681 36.3198 21.9211 36.2905 21.5828 36.2146C20.8831 36.0117 20.4243 35.5225 20.411 34.7811C20.3958 33.9923 20.8718 33.4841 21.6094 33.2737C21.9486 33.2 22.2964 33.1739 22.6428 33.1959C29.7432 33.1959 36.845 33.1959 43.948 33.1959H44.2324C45.4383 33.2187 46.2233 33.8406 46.212 34.764C46.2006 35.6875 45.4194 36.2999 44.2039 36.3037C40.5747 36.3075 36.9455 36.3018 33.3143 36.3018Z" fill="#FF2D55"/>
<path d="M41.8755 17.0786C42.7572 17.0786 43.6408 17.0521 44.5301 17.0786C45.5142 17.1147 46.2366 17.803 46.2196 18.6354C46.2025 19.4678 45.4915 20.1523 44.4998 20.1656C42.73 20.1947 40.966 20.1947 39.2076 20.1656C38.2121 20.1504 37.5011 19.4849 37.4707 18.6487C37.448 17.784 38.1913 17.0995 39.2379 17.0692C40.1121 17.0578 40.9938 17.0768 41.8755 17.0786Z" fill="#FF2D55"/>
<path d="M41.8602 22.769C42.7419 22.769 43.6236 22.7425 44.5053 22.769C45.4932 22.8031 46.2118 23.4763 46.2118 24.3106C46.2118 25.1449 45.497 25.8389 44.5053 25.8541C42.7096 25.8844 40.914 25.8863 39.1183 25.8541C38.1456 25.8351 37.4288 25.0956 37.4592 24.2708C37.4876 23.4706 38.1816 22.8126 39.1164 22.7747C40.0512 22.7368 40.9462 22.769 41.8602 22.769Z" fill="#FF2D55"/>
<path d="M26.7384 22.9909C28.5283 24.1722 31.5831 23.5958 31.8447 22.1566C32.5918 22.1788 33.3148 22.426 33.9191 22.8658C35.436 23.9219 36.1225 25.3915 35.9385 27.2269C35.8551 28.0574 35.4019 28.6699 34.5847 28.8974C33.9381 29.0776 33.2574 29.1477 32.5463 29.2767C32.5254 29.4151 32.4951 29.6161 32.4629 29.8152C32.3843 30.3485 32.119 30.8367 31.714 31.1927C31.3091 31.5486 30.791 31.7492 30.252 31.7587C28.2964 31.7764 26.3408 31.7764 24.3853 31.7587C23.7888 31.7464 23.2208 31.5016 22.8021 31.0766C22.3835 30.6516 22.1473 30.0799 22.144 29.4834C22.144 29.034 22.254 28.5846 22.2995 28.1333C22.3126 28.0012 22.2997 27.8679 22.2616 27.7408C21.6756 25.9527 22.747 23.4801 24.463 22.6837C24.5097 22.674 24.5576 22.6708 24.6052 22.6743C24.4611 24.0648 24.3183 25.4439 24.1767 26.8117C24.1524 26.9624 24.1366 27.1143 24.1293 27.2667C24.1412 27.3958 24.1141 27.5255 24.0516 27.6391C23.9891 27.7527 23.8939 27.8449 23.7785 27.9039C23.2096 28.2452 22.9935 29.0871 23.2343 29.8436C23.4239 30.4125 23.9321 30.7462 24.6318 30.7462H30.0415C30.9782 30.7462 31.4693 30.2077 31.4693 29.2046C31.4693 28.2016 30.9725 27.6877 30.0282 27.6706C29.6679 27.6706 29.3058 27.6877 28.9474 27.6612C28.8799 27.6547 28.8147 27.6329 28.7568 27.5974C28.699 27.5619 28.65 27.5137 28.6137 27.4564C27.9766 26.0134 27.3603 24.5609 26.7365 23.1123C26.7194 23.0857 26.7327 23.0573 26.7384 22.9909Z" fill="#FF2D55"/>
<path d="M29.0516 13.7415C29.9269 13.7479 30.7678 14.0827 31.408 14.6797C32.0481 15.2767 32.4408 16.0922 32.5083 16.9649C32.641 18.5975 32.2713 20.1391 31.181 21.4266C29.9523 22.8828 28.0827 22.8961 26.8881 21.4076C25.6935 19.9191 25.246 18.1443 25.7295 16.2596C25.9246 15.5303 26.3571 14.8868 26.9587 14.4308C27.5604 13.9748 28.2967 13.7323 29.0516 13.7415ZM26.0746 18.1557C26.0083 19.337 26.8558 21.237 28.0883 21.747C28.479 21.9142 28.9057 21.9794 29.3284 21.9366C30.8017 21.7205 32.184 19.7276 32.0058 18.1443L31.6152 18.2543C31.6417 18.0436 31.655 17.8315 31.655 17.6191C31.6457 17.22 31.6077 16.822 31.5412 16.4283C31.4711 16.0737 31.2701 15.9448 30.8719 16.1117C30.2878 16.3705 29.6555 16.5028 29.0166 16.4999C28.3777 16.4969 27.7466 16.3588 27.1649 16.0946C26.835 15.9524 26.67 16.068 26.5581 16.3525C26.4993 16.4928 26.4653 16.6423 26.4577 16.7943C26.4444 17.2721 26.4577 17.7518 26.4577 18.2524L26.0746 18.1557Z" fill="#FF2D55"/>
<path d="M26.0444 30.1128V29.0491H25.0261V28.2584H26.0425V27.189H26.854V28.2565H27.8704V29.0472H26.8559V30.1128H26.0444Z" fill="#FF2D55"/>
</g>
<defs>
<clipPath id="clip0_21638_1106">
<rect width="60.8091" height="57.4861" fill="white" transform="translate(0 0.953247)"/>
</clipPath>
</defs>
</svg>
