<svg width="62" height="61" viewBox="0 0 62 61" fill="none" xmlns="http://www.w3.org/2000/svg">
<g clip-path="url(#clip0_18721_350)">
<path d="M31.0381 7.27941H55.7413C56.7307 7.27941 56.7394 7.2794 56.7394 8.28749V51.3883C56.7394 52.3727 56.7394 52.3727 55.7251 52.3739C54.2703 52.3739 52.8144 52.3739 51.3584 52.3739C51.1637 52.3739 50.8942 52.4638 50.8094 52.213C50.742 52.0146 50.9654 51.8948 51.0926 51.7663C52.0159 50.8368 52.9366 49.9049 53.8686 48.9853C54.0561 48.8061 54.2033 48.589 54.3005 48.3485C54.3977 48.1081 54.4427 47.8497 54.4325 47.5905C54.4188 44.6174 54.4325 41.6443 54.4238 38.6711C54.4238 37.1403 53.5941 36.3144 52.0782 36.3069C50.9766 36.3006 49.8749 36.2857 48.7733 36.3069C48.2505 36.3194 48.0347 36.1671 48.0322 35.6045C48.0209 33.8465 47.2711 33.1404 45.4982 33.1366C44.9792 33.1366 44.4589 33.1292 43.9387 33.1366C42.6711 33.1616 41.9724 33.7866 41.8177 35.0318C41.7845 35.2581 41.7699 35.4868 41.774 35.7155C41.789 36.1459 41.5906 36.3044 41.1714 36.2994C40.0273 36.2857 38.8845 36.2919 37.7404 36.2994C36.1884 36.3069 35.3886 37.0979 35.3874 38.6437C35.3824 42.9264 35.3824 47.21 35.3874 51.4943C35.3874 52.3527 35.3674 52.3677 34.514 52.3677C33.8478 52.3677 33.1828 52.3677 32.5178 52.3677C32.2521 52.3677 32.0188 52.3278 31.9788 51.9934C31.8316 50.5861 31.2066 49.3235 30.7399 48.0172C29.4424 44.3749 28.1166 40.7435 26.7625 37.1228C25.9989 35.068 24.3658 34.3556 22.3296 35.1004C17.8007 36.7573 13.2677 38.4058 8.73043 40.046C6.95629 40.6886 6.11039 42.4527 6.76041 44.2244C7.6612 46.6822 8.56491 49.14 9.47152 51.5979C9.72105 52.2928 9.68237 52.3689 8.97247 52.3739C7.97436 52.3814 6.97625 52.3565 5.97814 52.3839C5.44665 52.3976 5.22956 52.2142 5.24329 51.664C5.26949 50.3552 5.25077 49.044 5.25077 47.7352V8.43222C5.25077 8.20391 5.25077 7.97434 5.25826 7.74602C5.25826 7.4416 5.41546 7.2869 5.71988 7.28191C5.9482 7.28191 6.17652 7.27441 6.40483 7.27441L31.0381 7.27941ZM7.55765 22.3246C7.55765 24.7151 7.55765 27.1056 7.55765 29.496C7.55765 31.078 8.34865 31.8665 9.94437 31.8665C13.5812 31.8665 17.2181 31.8578 20.8549 31.8778C21.1543 31.8894 21.4527 31.8363 21.7296 31.7219C22.0065 31.6076 22.2555 31.4348 22.4594 31.2153C24.3558 29.2914 26.2663 27.3809 28.191 25.4837C28.3731 25.3143 28.5165 25.1078 28.6117 24.8781C28.7068 24.6484 28.7514 24.4009 28.7425 24.1524C28.7288 21.097 28.7425 18.039 28.7325 14.9873C28.7325 13.6149 27.9265 12.8301 26.5554 12.8214C25.1618 12.8127 23.7694 12.8214 22.3771 12.8214C21.2766 12.8214 21.2766 12.8214 21.2542 11.7447C21.2205 10.4359 20.4769 9.66239 19.1631 9.59751C18.6441 9.57131 18.1239 9.58753 17.6049 9.58878C15.7808 9.58878 15.0722 10.2725 15.0559 12.1003C15.0559 12.638 14.8688 12.8376 14.3273 12.8289C12.8526 12.8052 11.3767 12.8189 9.90071 12.8214C8.34366 12.8214 7.56514 13.5987 7.56139 15.157C7.55391 17.54 7.55765 19.9354 7.55765 22.3246ZM43.8389 30.8447C46.5837 30.8447 49.3285 30.8535 52.0733 30.8447C53.5529 30.8447 54.4138 29.9826 54.4163 28.5229C54.4255 24.4057 54.4255 20.2885 54.4163 16.1713C54.4163 14.6854 53.5729 13.8532 52.0945 13.8457C50.6809 13.8395 49.2673 13.8457 47.8525 13.8457C46.9355 13.8457 46.9355 13.8457 46.9317 12.8975C46.9317 12.4608 46.9455 12.0242 46.923 11.5875C46.8731 10.5532 46.2468 9.82458 45.2212 9.66114C44.3152 9.52451 43.3943 9.51821 42.4864 9.64242C41.3823 9.78216 40.7634 10.527 40.7285 11.6386C40.7123 12.1377 40.7011 12.6367 40.7285 13.1358C40.7572 13.6773 40.5351 13.8632 39.9962 13.8532C38.5614 13.8257 37.1266 13.842 35.6918 13.8445C34.0225 13.8445 33.2402 14.6167 33.239 16.2749C33.239 20.2872 33.2839 24.3009 33.2153 28.312C33.1866 29.9714 34.2421 30.8909 35.7929 30.861C38.474 30.8086 41.1577 30.846 43.8389 30.8447Z" fill="#1A92D5"/>
<path d="M25.8303 56.4662C26.4142 56.1168 27.0006 55.9671 27.5571 55.7625C28.6425 55.3508 29.7916 55.095 30.7785 54.4438C30.9806 54.3103 31.2164 54.3265 31.4447 54.3265C32.6299 54.3265 33.8152 54.3352 35.0005 54.3265C35.176 54.3128 35.3522 54.3427 35.5135 54.4134C35.6748 54.4841 35.8161 54.5936 35.925 54.732C36.3492 55.256 36.9318 55.4344 37.5868 55.4331C40.6223 55.4331 43.6578 55.4269 46.6945 55.4331C47.2373 55.4331 47.6752 55.2647 48.0033 54.8443C48.3314 54.4238 48.7419 54.3128 49.2597 54.3165C51.9209 54.3352 54.5821 54.3277 57.2445 54.324C58.4111 54.324 58.6831 54.052 58.6843 52.8955C58.6843 37.508 58.6843 22.1205 58.6843 6.73297C58.6843 5.58889 58.4348 5.33437 57.2969 5.33312H4.71288C3.53137 5.33312 3.29432 5.57267 3.29432 6.76416V52.8593C3.29432 54.057 3.55757 54.3165 4.76403 54.319C6.44834 54.319 8.13264 54.3315 9.81695 54.319C10.2574 54.319 10.5156 54.4612 10.6479 54.8879C10.7801 55.3146 10.9461 55.7076 11.1058 56.1144C11.2393 56.4525 11.1569 56.6346 10.7689 56.6334C8.46077 56.6259 6.15265 56.677 3.84702 56.5947C2.28872 56.5385 1.04982 55.12 1.00366 53.5542C1.00366 53.3671 1.00366 53.1799 1.00366 52.9928V6.64439C1.00366 4.26141 2.23258 3.02625 4.60933 3.02625C22.1985 3.02625 39.7876 3.01876 57.3768 3.00378C59.6749 3.00378 61.0087 4.64068 61.0024 6.65561C60.9575 22.1022 60.9575 37.55 61.0024 52.999C61.0087 55.0389 59.6387 56.672 57.3132 56.6583C47.105 56.6009 36.8969 56.6346 26.6875 56.6296C26.4305 56.6259 26.151 56.7082 25.8303 56.4662Z" fill="#1A92D5"/>
<path d="M14.8761 58.244C14.1001 58.2191 13.7907 57.7762 13.5873 57.2172C13.0466 55.7342 12.5093 54.2499 11.9753 52.7644C10.8974 49.7963 9.81319 46.8319 8.74397 43.8613C8.31603 42.6723 8.51565 42.2281 9.67845 41.8002C14.0452 40.1941 18.4152 38.5971 22.7886 37.0093C24.146 36.5102 24.5353 36.7435 25.0268 38.0897C26.5365 42.2693 28.0565 46.4464 29.587 50.621C29.6793 50.8705 29.7828 51.12 29.8677 51.3808C30.1659 52.2741 29.9113 52.8031 29.0168 53.1275C26.8521 53.9235 24.685 54.7107 22.5204 55.498C20.1798 56.3539 17.8392 57.2106 15.4987 58.0681C15.2944 58.1376 15.0865 58.1963 14.8761 58.244ZM14.5405 49.3097C14.6378 49.2835 14.7601 49.2586 14.8761 49.2174C17.823 48.1478 20.7691 47.0773 23.7143 46.006C24.3669 45.7677 24.6413 45.1888 24.4143 44.6248C24.1984 44.0884 23.6794 43.9149 22.9982 44.1645C20.5803 45.0486 18.164 45.9361 15.7494 46.8269C15.2042 47.0265 14.6428 47.1925 14.1138 47.4295C13.6147 47.6541 13.4426 48.0995 13.5811 48.6235C13.7021 49.0851 14.0576 49.276 14.5405 49.3097ZM26.2396 50.0433C26.2444 49.918 26.2226 49.793 26.1755 49.6768C26.1284 49.5605 26.0571 49.4556 25.9664 49.369C25.8757 49.2824 25.7676 49.2161 25.6492 49.1745C25.5309 49.1328 25.4051 49.1169 25.2801 49.1276C25.0119 49.1528 24.7485 49.2158 24.4978 49.3147C22.3078 50.104 20.1207 50.8996 17.9365 51.7014C17.3127 51.9298 16.6889 52.1568 16.0713 52.4088C15.4537 52.6609 15.2429 53.1574 15.4475 53.7139C15.6259 54.2017 16.1587 54.41 16.7463 54.2129C17.1805 54.0682 17.6109 53.916 18.0413 53.76C20.4825 52.8742 22.9246 51.9888 25.3675 51.1038C25.8727 50.9204 26.247 50.6459 26.2396 50.0433ZM23.0032 41.4633C23.2514 41.4673 23.4914 41.3742 23.6721 41.2039C23.8528 41.0336 23.9598 40.7995 23.9706 40.5514C23.9813 40.3034 23.8948 40.061 23.7295 39.8757C23.5642 39.6904 23.3332 39.577 23.0855 39.5594C22.5653 39.5295 22.0537 39.9961 22.0525 40.5014C22.055 40.978 22.5216 41.4509 23.0032 41.4633Z" fill="#1A92D5"/>
<path d="M37.32 45.7963C37.32 43.573 37.34 41.3498 37.3075 39.1265C37.2988 38.4864 37.5146 38.2918 38.1372 38.3193C39.1116 38.3642 40.091 38.3517 41.0667 38.3193C41.5657 38.3043 41.7766 38.469 41.7691 38.9917C41.7591 39.7041 41.829 40.4103 42.4241 40.9331C43.2612 41.6679 46.3691 41.7216 47.2375 41.0191C47.8388 40.5326 48.0484 39.8963 48.0409 39.1477C48.0322 38.3305 48.0484 38.3292 48.8769 38.3267C49.8538 38.3267 50.8306 38.3442 51.8063 38.3205C52.2804 38.308 52.48 38.464 52.4775 38.9593C52.4642 41.4321 52.4642 43.9049 52.4775 46.3777C52.4775 46.8768 52.248 47.0178 51.7901 47.014C50.3565 47.0003 48.9205 47.0053 47.4882 47.014C46.3379 47.014 46.0073 47.3546 46.0048 48.5112C46.0048 49.9248 45.9886 51.3383 46.0048 52.7531C46.0135 53.2397 45.8488 53.4069 45.3585 53.4032C42.9069 53.3857 40.4541 53.3807 37.9975 53.4032C37.4223 53.4032 37.3001 53.1674 37.3038 52.6546C37.33 50.3689 37.32 48.0832 37.32 45.7963Z" fill="#1A92D5"/>
<path d="M46.0009 37.3037C46.0009 37.8639 45.9922 38.4266 46.0009 38.9867C46.0084 39.3486 45.8649 39.5357 45.4919 39.5245C45.4507 39.5245 45.4095 39.5245 45.3671 39.5245C43.4582 39.5082 43.7277 39.749 43.7077 37.9387C43.699 37.1901 43.7077 36.4416 43.7077 35.693C43.7077 35.285 43.8587 35.0816 44.2954 35.0866C46.3615 35.1116 45.9547 34.8658 46.0009 36.6761C46.0009 36.8832 46.0009 37.0916 46.0009 37.2999V37.3037Z" fill="#1A92D5"/>
<path d="M48.0396 50.3752C48.0534 48.8206 47.8388 48.9691 49.4807 48.9616C49.8113 48.9616 50.1431 48.9541 50.4788 48.9741C50.7732 48.9928 50.8618 49.16 50.6509 49.3771C49.9148 50.134 49.1692 50.8825 48.4139 51.6228C48.1644 51.8723 48.0521 51.7089 48.0396 51.4344C48.0334 51.0788 48.0396 50.727 48.0396 50.3752Z" fill="#1A92D5"/>
<path d="M9.50381 22.3172C9.50381 20.0515 9.51753 17.7858 9.49508 15.5201C9.49508 14.9561 9.67349 14.7428 10.2437 14.7553C11.5936 14.7852 12.946 14.7802 14.296 14.7553C14.8125 14.7465 15.0446 14.8975 15.0446 15.4602C15.0683 17.3017 15.7994 17.9891 17.6534 17.9904C18.1312 17.9904 18.609 17.9904 19.0869 17.9904C20.347 17.9704 21.2004 17.1345 21.2416 15.8869C21.2416 15.6997 21.2515 15.5126 21.2416 15.3254C21.2328 14.9387 21.4062 14.7603 21.8055 14.7628C23.2602 14.7715 24.715 14.774 26.1722 14.7628C26.6426 14.7628 26.7811 14.9786 26.7798 15.414C26.7698 17.8868 26.7698 20.3605 26.7798 22.8349C26.7798 23.2891 26.6101 23.4588 26.156 23.4588C24.7012 23.4413 23.2465 23.4488 21.7893 23.4588C20.7562 23.4588 20.3969 23.8193 20.3932 24.8399C20.3869 26.2959 20.3744 27.7506 20.3932 29.2066C20.4019 29.7456 20.2073 29.9377 19.6658 29.934C16.5051 29.9182 13.3444 29.9182 10.1838 29.934C9.62109 29.934 9.47387 29.7057 9.47761 29.1854C9.51379 26.8972 9.50381 24.6041 9.50381 22.3172Z" fill="#1A92D5"/>
<path d="M19.2977 13.7971C19.2977 14.336 19.289 14.875 19.2977 15.419C19.3064 15.8157 19.1318 15.9829 18.7363 15.9655C18.3408 15.948 17.949 15.9492 17.556 15.9655C17.163 15.9817 16.9846 15.8232 16.9883 15.4227C16.9971 14.2999 16.9883 13.1845 16.9883 12.0654C16.9883 11.7023 17.1555 11.5289 17.5173 11.5376H17.5797C19.6096 11.5451 19.264 11.3405 19.2965 13.1196C19.2965 13.3479 19.2965 13.575 19.2965 13.8033L19.2977 13.7971Z" fill="#1A92D5"/>
<path d="M22.3496 26.8759C22.3571 25.2877 22.2161 25.4786 23.7394 25.4898C24.1923 25.4898 24.8623 25.2403 25.0445 25.647C25.1842 25.9577 24.5292 26.3033 24.2248 26.6289C23.8031 27.0818 23.3514 27.511 22.9123 27.9464C22.8 28.0574 22.6927 28.2359 22.5068 28.1747C22.3209 28.1136 22.3571 27.9015 22.3521 27.7443C22.3433 27.4548 22.3496 27.1654 22.3496 26.8759Z" fill="#1A92D5"/>
<path d="M43.8388 28.8135H36.0461C35.2139 28.8135 35.1914 28.7935 35.1902 27.9901C35.1902 24.2072 35.2002 20.4244 35.179 16.6366C35.179 16.034 35.3736 15.8431 35.9687 15.8581C37.3411 15.893 38.7135 15.878 40.0859 15.8581C40.4752 15.8581 40.671 15.9629 40.7808 16.3758C41.0516 17.4026 41.8301 17.9666 42.8868 17.9803C43.489 17.9878 44.0921 17.9878 44.6959 17.9803C45.8362 17.9653 46.4925 17.5187 46.8281 16.4307C46.9654 15.9866 47.1775 15.8481 47.6216 15.8556C49.014 15.8768 50.4076 15.8818 51.7987 15.8556C52.3239 15.8456 52.4824 16.0477 52.4812 16.5493C52.4687 20.3945 52.4687 24.2397 52.4812 28.0849C52.4812 28.6863 52.2316 28.816 51.6964 28.8123C49.0788 28.8035 46.4588 28.8135 43.8388 28.8135ZM43.8276 20.3059C42.1033 20.3059 40.3791 20.3059 38.6549 20.3059C38.1221 20.3059 37.7129 20.4681 37.5544 21.0183C37.3648 21.6783 37.8726 22.2397 38.7272 22.2435C42.1374 22.2568 45.5439 22.2568 48.9466 22.2435C49.7351 22.2435 50.0994 21.8779 50.077 21.2266C50.0545 20.5754 49.7239 20.3134 48.9366 20.3096C47.2361 20.3009 45.5331 20.3046 43.83 20.3059H43.8276ZM43.8063 26.5016C45.553 26.5016 47.2997 26.5091 49.0389 26.5016C49.7526 26.5016 50.0745 26.1798 50.077 25.5472C50.0795 24.9147 49.7126 24.5715 48.9079 24.5691C45.5227 24.5582 42.1378 24.5582 38.7534 24.5691C38.0048 24.5691 37.5258 24.9646 37.517 25.5247C37.507 26.1386 37.9599 26.5041 38.7647 26.5066C40.4452 26.5066 42.127 26.5029 43.8088 26.5016H43.8063Z" fill="#1A92D5"/>
<path d="M44.983 13.7546C44.983 14.3136 44.983 14.8775 44.983 15.4327C44.983 15.7883 44.8457 15.9679 44.4677 15.9617C42.308 15.9317 42.721 16.2499 42.6761 14.2861C42.6611 13.56 42.6761 12.8351 42.6761 12.109C42.6761 11.7247 42.8271 11.5326 43.225 11.5338C45.3261 11.5413 44.9505 11.323 44.9867 13.132C44.9867 13.3392 44.9867 13.5475 44.9867 13.7559L44.983 13.7546Z" fill="#1A92D5"/>
</g>
<defs>
<clipPath id="clip0_18721_350">
<rect width="60" height="55.244" fill="white" transform="translate(1 3)"/>
</clipPath>
</defs>
</svg>
