<svg width="47" height="47" viewBox="0 0 47 47" fill="none" xmlns="http://www.w3.org/2000/svg">
<g clip-path="url(#clip0_38970_308244)">
<path d="M3.37695 22.1709C3.37695 16.4955 3.37695 10.8207 3.37695 5.14652C3.37695 3.6575 3.99554 3.03906 5.46679 3.03906H24.3983C24.5458 3.03906 24.6933 3.03906 24.8408 3.03906C25.0641 3.048 25.0906 3.16116 24.9756 3.32793C24.8605 3.4947 24.7385 3.6446 24.6235 3.80541C20.0337 10.228 23.7315 19.3011 31.5539 20.4387C32.5314 20.5806 32.5324 20.5747 32.5324 21.5703C32.5324 23.1259 32.5206 24.6804 32.5393 26.2359C32.5442 26.6509 32.4055 26.902 32.0476 27.1075C30.474 28.0009 28.9192 28.9161 27.3535 29.8175C27.0251 30.0052 26.7571 30.2843 26.5815 30.6216C25.7259 32.2039 24.8497 33.7753 23.9852 35.3527C23.5968 36.0604 23.7964 36.3841 24.5979 36.4257C26.3681 36.525 28.1383 36.4625 29.9086 36.5359C30.652 36.5677 31.1811 36.1766 31.7624 35.856C32.5413 35.4271 32.5393 35.4231 32.5393 36.3017C32.5393 37.3271 32.5393 38.3535 32.5393 39.379C32.5334 40.6536 31.8263 41.3762 30.5517 41.3881C29.1592 41.4 27.7656 41.3881 26.3721 41.3881C19.4551 41.3881 12.5381 41.3881 5.62119 41.3881C5.15799 41.3881 4.69773 41.3742 4.28566 41.132C4.00126 40.9798 3.76558 40.7491 3.60609 40.4668C3.44659 40.1846 3.36986 39.8624 3.38482 39.5378C3.39269 38.0815 3.38482 36.6263 3.38482 35.17L3.37695 22.1709ZM10.1952 30.0736C10.5886 30.0736 10.982 30.0895 11.3754 30.0736C11.9871 30.0438 12.3657 29.7123 12.4041 29.0958C12.4473 28.4208 12.4473 27.7438 12.4041 27.0688C12.3628 26.4603 11.9359 26.0692 11.3351 26.0483C10.6004 26.0235 9.85988 26.0225 9.12819 26.0483C8.46927 26.0721 8.02279 26.4811 7.98837 27.1144C7.95001 27.7737 7.95001 28.4346 7.98837 29.0938C8.02475 29.6974 8.41322 30.0409 9.02001 30.0716C9.40946 30.0885 9.80284 30.0726 10.1952 30.0736ZM10.1795 22.9105C10.5729 22.9105 10.9663 22.9224 11.3596 22.9105C11.931 22.8876 12.3097 22.5968 12.3815 22.0339C12.4821 21.2797 12.4795 20.5152 12.3736 19.7617C12.2949 19.2177 11.9399 18.909 11.398 18.8921C10.6112 18.8683 9.82447 18.8663 9.03771 18.8921C8.41223 18.9139 8.01295 19.2971 7.9805 19.9156C7.94302 20.5768 7.94302 21.2397 7.9805 21.9009C8.01787 22.5253 8.41912 22.8807 9.04558 22.9105C9.42519 22.9234 9.80284 22.9085 10.1795 22.9105ZM10.211 11.7111C9.85103 11.7111 9.49108 11.7031 9.12917 11.7111C8.38568 11.7309 7.98837 12.126 7.96771 12.8834C7.95198 13.444 7.95198 14.0065 7.96771 14.571C7.98738 15.2946 8.426 15.7304 9.14786 15.7453C9.8507 15.7605 10.5539 15.7605 11.2574 15.7453C11.9458 15.7294 12.3638 15.3482 12.4031 14.6474C12.439 14.0209 12.439 13.3928 12.4031 12.7663C12.3638 12.0853 11.9655 11.7349 11.2829 11.716C10.9318 11.7021 10.5709 11.7111 10.211 11.7111ZM10.1716 37.2963C10.5483 37.2963 10.9259 37.3142 11.3016 37.2963C11.9753 37.2576 12.3697 36.8883 12.409 36.2103C12.443 35.5821 12.443 34.9525 12.409 34.3243C12.3765 33.6889 11.995 33.2988 11.3793 33.274C10.6103 33.2442 9.83923 33.2412 9.07115 33.274C8.37683 33.3038 7.98935 33.7257 7.96968 34.4215C7.95198 34.9834 7.95493 35.5462 7.96968 36.1091C7.98738 36.8437 8.40437 37.2646 9.14097 37.3003C9.48321 37.3092 9.82841 37.2963 10.1716 37.2963ZM20.4212 21.6577H16.0458C15.8988 21.6516 15.7516 21.6559 15.6052 21.6706C15.3102 21.7143 15.1312 21.891 15.1135 22.1987C15.0988 22.3246 15.1341 22.4513 15.2117 22.551C15.2893 22.6507 15.4028 22.7154 15.5275 22.7308C15.72 22.7681 15.9158 22.785 16.1117 22.7814C18.9775 22.7814 21.8436 22.7814 24.71 22.7814C24.9224 22.7814 25.1368 22.7973 25.3414 22.7159C25.4442 22.6839 25.5341 22.6193 25.5977 22.5317C25.6613 22.4441 25.6952 22.3381 25.6945 22.2295C25.7045 22.1119 25.6727 21.9945 25.6047 21.8985C25.5368 21.8024 25.4371 21.7339 25.3237 21.7053C25.1488 21.6641 24.9691 21.6477 24.7897 21.6567C23.3355 21.656 21.8793 21.6564 20.4212 21.6577ZM19.3394 29.9465H21.7892C22.1983 29.9465 22.6074 29.9465 23.0155 29.9396C23.3538 29.9307 23.5899 29.7619 23.6007 29.4045C23.6115 29.068 23.3784 28.9082 23.0775 28.8506C22.9475 28.8287 22.8158 28.8194 22.6841 28.8228C20.4608 28.8228 18.2366 28.8228 16.0114 28.8228C15.8151 28.8074 15.6178 28.8352 15.4331 28.9042C15.3611 28.934 15.2967 28.9795 15.2444 29.0376C15.1921 29.0957 15.1533 29.1649 15.1309 29.24C15.1085 29.3152 15.1029 29.3944 15.1147 29.472C15.1265 29.5496 15.1553 29.6235 15.199 29.6885C15.3544 29.9277 15.5924 29.9495 15.8491 29.9485C17.0129 29.9452 18.175 29.9446 19.3355 29.9465H19.3394ZM18.1111 14.4916H15.7999C15.4429 14.4916 15.1115 14.5531 15.1233 15.0068C15.1312 15.4277 15.4184 15.5567 15.795 15.5557H20.3612C20.728 15.5557 21.0496 15.4326 21.0496 15.0217C21.0496 14.6107 20.7369 14.4886 20.3612 14.4906C19.6138 14.4955 18.8604 14.4926 18.1111 14.4916ZM18.0619 37.1107C18.8309 37.1107 19.601 37.1107 20.37 37.1107C20.7418 37.1107 21.0585 36.9916 21.0585 36.5786C21.0585 36.1657 20.7359 36.0446 20.37 36.0446C18.8463 36.0446 17.3236 36.0446 15.8019 36.0446C15.4311 36.0446 15.1351 36.1567 15.1292 36.5866C15.1292 37.0382 15.4528 37.1087 15.8078 37.1097C16.5523 37.1127 17.3056 37.1107 18.0589 37.1107H18.0619Z" fill="#16924E"/>
<path d="M33.0472 19.4768C27.8575 19.4768 23.6533 15.2271 23.6759 10.0046C23.6985 4.82684 27.9362 0.574219 33.0659 0.574219C38.1956 0.574219 42.449 4.86456 42.448 10.0156C42.447 15.2182 38.2143 19.4777 33.0472 19.4768ZM26.7108 10.0513C26.7108 10.5973 26.7108 11.1432 26.7108 11.6882C26.7108 12.4824 26.8092 12.5816 27.5802 12.5816C28.3827 12.5816 29.1852 12.5975 29.9877 12.5767C30.4165 12.5657 30.5689 12.7434 30.561 13.1633C30.5443 14.023 30.5512 14.8827 30.561 15.7443C30.5669 16.33 30.6869 16.459 31.2494 16.463C32.444 16.4709 33.6396 16.4709 34.8361 16.463C35.4134 16.463 35.555 16.3091 35.5609 15.7175C35.5688 14.8747 35.5806 14.0299 35.5609 13.1882C35.5481 12.7424 35.6976 12.5638 36.151 12.5777C37.0017 12.6025 37.8533 12.5906 38.708 12.5777C39.2548 12.5707 39.4082 12.4188 39.4121 11.8609C39.4219 10.6539 39.4219 9.44709 39.4121 8.24065C39.4121 7.6659 39.2823 7.53983 38.7129 7.53387C37.8622 7.52593 37.0095 7.517 36.1559 7.53387C35.7065 7.5438 35.5471 7.36015 35.558 6.91543C35.5786 6.05677 35.5688 5.19711 35.558 4.33448C35.5521 3.76964 35.3829 3.59493 34.8174 3.59096C33.6537 3.5817 32.4909 3.5817 31.3291 3.59096C30.7272 3.59096 30.565 3.75773 30.5591 4.35433C30.5502 5.16435 30.5591 5.97438 30.5591 6.7844C30.5591 7.50211 30.5345 7.52394 29.8028 7.52593C28.9846 7.52593 28.1653 7.53288 27.3442 7.52593C26.9144 7.52593 26.7098 7.72446 26.7128 8.15628C26.7138 8.79556 26.7108 9.42393 26.7108 10.0513Z" fill="#16924E"/>
<path d="M22.0371 45.5683C17.9401 45.5683 13.842 45.5524 9.74398 45.5753C7.59513 45.5882 7.39942 44.2501 7.5135 42.7829C7.51226 42.741 7.51978 42.6994 7.53557 42.6606C7.55136 42.6219 7.57506 42.587 7.60513 42.5581C7.6352 42.5293 7.67096 42.5072 7.71008 42.4932C7.7492 42.4792 7.79079 42.4738 7.83214 42.4771C8.01211 42.4682 8.19209 42.4662 8.37206 42.4662C15.7316 42.4662 23.0901 42.4689 30.4476 42.4742C31.4429 42.4742 32.2788 42.2151 32.9328 41.4259C33.373 40.9038 33.6084 40.2371 33.5947 39.5517C33.5947 38.162 33.6065 36.7722 33.5878 35.3825C33.5819 34.9507 33.7206 34.6737 34.1061 34.4682C34.8004 34.097 35.4692 33.6741 36.1566 33.2909C36.55 33.0725 36.6542 33.1311 36.6552 33.5798C36.6601 36.9708 36.668 40.3617 36.6493 43.7537C36.6493 44.7414 36.0356 45.3857 35.064 45.5336C34.8356 45.5609 34.6055 45.5711 34.3755 45.5644C30.2627 45.5683 26.1499 45.5697 22.0371 45.5683Z" fill="#16924E"/>
<path d="M40.0274 29.5989C40.0136 29.864 39.7943 29.9166 39.634 30.0099C38.0742 30.9212 36.5125 31.8288 34.9488 32.7328C33.6428 33.4922 32.3348 34.2476 31.0357 35.016C30.7406 35.1907 30.5656 35.2095 30.3738 34.8671C29.6742 33.6143 28.9579 32.3708 28.2249 31.1366C27.9811 30.7266 28.2151 30.5817 28.5052 30.4139C30.7534 29.1148 32.9973 27.8131 35.237 26.5087C35.8762 26.1385 36.5243 25.7821 37.1577 25.4019C37.3996 25.257 37.5619 25.2451 37.7163 25.518C38.4548 26.8254 39.2032 28.1268 39.9467 29.4302C39.9792 29.4868 40.0038 29.5483 40.0274 29.5989Z" fill="#16924E"/>
<path d="M43.3748 26.7244C43.4003 27.4392 43.1102 27.9732 42.5005 28.3316C42.288 28.4557 42.0766 28.5817 41.8602 28.6989C41.0056 29.1605 41.1659 29.3362 40.5768 28.3117C39.9877 27.2873 39.3869 26.2559 38.7899 25.2295C38.4368 24.6219 38.4359 24.619 39.0515 24.2547C39.2639 24.1296 39.4793 24.0105 39.6917 23.8854C40.6339 23.3285 41.3636 23.3642 42.1592 24.1058C42.9017 24.8026 43.3502 25.6732 43.3748 26.7244Z" fill="#16924E"/>
<path d="M33.5977 23.3222C33.5977 22.5638 33.6036 21.8054 33.5977 21.046C33.5977 20.6985 33.7383 20.5437 34.0894 20.5228C34.7924 20.4795 35.4867 20.3434 36.1546 20.1178C36.5372 19.9888 36.6621 20.1248 36.6601 20.5C36.6536 21.6714 36.6536 22.8427 36.6601 24.0141C36.6665 24.1458 36.6337 24.2764 36.5658 24.3891C36.498 24.5018 36.3983 24.5914 36.2795 24.6464C35.5223 25.0713 34.7683 25.5014 34.0176 25.9369C33.7167 26.1136 33.5996 26.0232 33.5996 25.6947C33.5996 24.9058 33.599 24.115 33.5977 23.3222Z" fill="#16924E"/>
<path d="M27.9333 35.366C27.1976 35.366 26.4581 35.366 25.7264 35.366C25.3586 35.366 25.2956 35.224 25.4697 34.9133C25.9988 33.9636 26.5233 33.011 27.0432 32.0554C27.1917 31.7834 27.3216 31.7576 27.4838 32.0425C28.0601 33.0421 28.6423 34.0378 29.2206 35.0364C29.3937 35.3342 29.2885 35.4603 28.962 35.4543C28.6187 35.4484 28.2735 35.4543 27.9313 35.4543L27.9333 35.366Z" fill="#16924E"/>
<path d="M10.1868 29.0126C8.95457 28.9957 9.09521 29.1704 9.08734 27.9038C9.08242 27.1662 9.08734 27.1652 9.82198 27.1643C10.1819 27.1643 10.5419 27.1712 10.9038 27.1643C11.1988 27.1583 11.3257 27.2933 11.3099 27.5842C11.3099 27.6834 11.3099 27.7827 11.3099 27.882C11.2913 29.1804 11.4702 28.9938 10.1868 29.0126Z" fill="#16924E"/>
<path d="M10.1647 21.8472C8.95408 21.8472 9.09177 21.9465 9.08291 20.7622C9.08291 19.9432 9.08291 19.9432 9.88738 19.9423H9.93655C11.5504 19.972 11.2731 19.6951 11.3075 21.3767C11.3144 21.7142 11.1796 21.8631 10.8472 21.8492C10.622 21.8393 10.3929 21.8472 10.1647 21.8472Z" fill="#16924E"/>
<path d="M10.1564 14.6773C8.93591 14.6843 9.09425 14.7508 9.08736 13.5854C9.08146 12.7783 9.08736 12.7783 9.89871 12.7773H10.0462C11.365 12.7773 11.543 13.0067 11.3051 14.3656C11.2647 14.5949 11.1388 14.6734 10.9402 14.6783C10.6796 14.6823 10.418 14.6773 10.1564 14.6773Z" fill="#16924E"/>
<path d="M10.158 36.229C8.90806 36.229 9.09787 36.2965 9.08607 35.1301C9.0782 34.3359 9.08607 34.3359 9.87283 34.3359C10.217 34.3359 10.5612 34.3359 10.9055 34.3359C11.1916 34.3359 11.3283 34.4709 11.3106 34.7638C11.3038 34.863 11.3106 34.9623 11.3106 35.0616C11.2831 36.3322 11.5201 36.221 10.158 36.229Z" fill="#16924E"/>
<path d="M29.5805 11.518C29.1222 11.518 28.6639 11.518 28.2036 11.518C27.8939 11.518 27.7611 11.381 27.766 11.0663C27.7758 10.4052 27.7798 9.74308 27.766 9.08097C27.7562 8.70176 27.9371 8.59555 28.2764 8.59952C29.0632 8.61044 29.8499 8.60448 30.6367 8.59952C31.4795 8.59952 31.6143 8.46153 31.6202 7.63066C31.6202 6.82064 31.631 6.01062 31.6202 5.20059C31.6143 4.82238 31.7637 4.65462 32.1404 4.66058C32.7462 4.66951 33.352 4.67348 33.9578 4.66058C34.3512 4.65065 34.5184 4.81544 34.5105 5.21946C34.4958 6.06224 34.5027 6.907 34.5105 7.74879C34.5105 8.42183 34.6826 8.59158 35.3632 8.59952C36.1657 8.60944 36.9682 8.62136 37.7697 8.59952C38.226 8.58463 38.3804 8.76629 38.3598 9.21101C38.3342 9.80661 38.3411 10.4022 38.3598 10.9978C38.3706 11.38 38.2181 11.5339 37.8385 11.5269C37.0203 11.513 36.2011 11.521 35.3799 11.5269C34.6443 11.5269 34.5125 11.6589 34.5086 12.3866C34.5086 13.1956 34.4889 14.0066 34.5145 14.8157C34.5282 15.2763 34.3492 15.4311 33.9067 15.4113C33.3019 15.3835 32.6951 15.3964 32.0893 15.4053C31.7549 15.4113 31.6192 15.2634 31.6221 14.9288C31.63 14.0523 31.628 13.1767 31.6221 12.3002C31.6172 11.6897 31.4658 11.5368 30.8668 11.5279C30.441 11.521 30.0152 11.5279 29.5883 11.5279L29.5805 11.518Z" fill="#16924E"/>
</g>
<defs>
<clipPath id="clip0_38970_308244">
<rect width="40" height="45" fill="white" transform="translate(3.375 0.578125)"/>
</clipPath>
</defs>
</svg>
