<svg width="62" height="62" viewBox="0 0 62 62" fill="none" xmlns="http://www.w3.org/2000/svg">
<g clip-path="url(#clip0_4232_28929)">
<path d="M47.5986 60.87H13.9429C12.926 60.5481 12.1491 59.9612 11.8295 58.8968C11.6968 58.4004 11.6372 57.8873 11.6525 57.3738C11.6573 39.4352 11.6573 21.4966 11.6525 3.55802C11.6525 3.35963 11.6442 3.16123 11.6596 2.96403C11.7155 2.26312 11.8818 1.60378 12.3558 1.05137C12.9914 0.310068 13.8016 -0.0011846 14.765 3.38698e-06C25.4094 3.38698e-06 36.0533 3.38698e-06 46.6969 3.38698e-06C46.8347 3.38698e-06 46.9737 4.76459e-06 47.1115 0.0106966C48.4634 0.116427 49.6585 1.17492 49.7631 2.38667C49.8237 3.09352 49.8617 3.80512 49.8617 4.51435C49.868 21.9381 49.868 39.3619 49.8617 56.7857C49.8617 57.0625 49.8617 57.3393 49.8617 57.6173C49.8201 59.1985 49.1715 60.3556 47.5986 60.87ZM30.7779 12.4465C34.0718 12.4465 37.3665 12.4465 40.6619 12.4465C40.8786 12.4573 41.0957 12.4478 41.3106 12.418C41.7656 12.3289 42.0566 12.0438 42.0887 11.5734C42.1208 11.1029 41.8713 10.7929 41.4282 10.6372C41.1457 10.5479 40.8499 10.5077 40.5538 10.5184C34.0246 10.5184 27.4947 10.5184 20.9639 10.5184C20.648 10.5041 20.3321 10.5488 20.0326 10.6503C19.8427 10.7104 19.6797 10.8347 19.5713 11.0018C19.463 11.1688 19.416 11.3684 19.4386 11.5662C19.4683 12.1495 19.8449 12.4477 20.604 12.4489C23.9929 12.4505 27.3842 12.4497 30.7779 12.4465ZM30.6722 44.6659H20.7834C20.5078 44.6659 20.2333 44.6528 19.9696 44.7728C19.5205 44.9771 19.3863 45.3383 19.4421 45.7909C19.498 46.2435 19.776 46.4443 20.1989 46.4859C20.6218 46.5275 21.0233 46.5869 21.4356 46.5869C27.6923 46.594 33.949 46.594 40.2057 46.5869C40.5798 46.5769 40.9526 46.5396 41.3213 46.4752C41.7905 46.4063 42.0792 46.1283 42.0911 45.6436C42.103 45.1589 41.8416 44.8821 41.3783 44.755C41.0908 44.6845 40.795 44.6537 40.4992 44.6635L30.6722 44.6659ZM30.7007 50.2969H40.0608C40.4742 50.2969 40.8924 50.3148 41.3011 50.2839C41.7917 50.2482 42.0459 49.9215 42.0851 49.4642C42.1208 49.0294 41.9046 48.7133 41.4911 48.5423C41.2428 48.4413 40.9874 48.4579 40.732 48.4579C34.0793 48.4579 27.4242 48.4579 20.7667 48.4579C20.5679 48.4481 20.3687 48.4608 20.1727 48.4959C19.6595 48.6147 19.4041 48.9438 19.4338 49.4808C19.4659 50.0617 19.7653 50.2922 20.5695 50.2934C23.9458 50.3005 27.3228 50.3017 30.7007 50.2969ZM30.7719 6.81666C27.4955 6.81666 24.2186 6.81666 20.9414 6.81666C20.6847 6.80728 20.4278 6.8176 20.1727 6.84755C19.6975 6.92002 19.4457 7.21108 19.4338 7.69696C19.4184 8.35392 19.808 8.65448 20.7014 8.65448C27.3747 8.65448 34.0476 8.65448 40.7201 8.65448C41.6598 8.65448 42.0839 8.36699 42.0958 7.73141C42.1077 7.09584 41.6753 6.81666 40.7225 6.81666C37.4057 6.81191 34.0888 6.81191 30.7719 6.81666ZM30.69 54.0985C33.9458 54.0985 37.2021 54.0985 40.4588 54.0985C40.7548 54.1065 41.051 54.093 41.345 54.0581C41.7858 53.9928 42.0578 53.7207 42.0899 53.2681C42.122 52.8155 41.9176 52.5173 41.4793 52.3712C41.1367 52.2749 40.7809 52.2348 40.4255 52.2524H20.8879C20.6497 52.2393 20.4108 52.2512 20.1751 52.288C19.6999 52.3902 19.4231 52.6919 19.4267 53.2063C19.4267 53.8181 19.7486 54.0866 20.56 54.0878C23.9394 54.0949 27.3173 54.0961 30.6935 54.0914L30.69 54.0985ZM30.7517 14.4067C27.5347 14.4067 24.318 14.4067 21.1017 14.4067C20.7863 14.3963 20.4705 14.411 20.1573 14.4507C19.7569 14.5136 19.4659 14.7239 19.4338 15.1801C19.4017 15.6363 19.5526 15.9855 20.0278 16.14C20.3121 16.2217 20.6077 16.2574 20.9033 16.2457H40.7368C40.9353 16.2555 41.1343 16.2451 41.3308 16.2148C41.5576 16.1771 41.7621 16.0556 41.9035 15.8743C42.045 15.693 42.1132 15.4651 42.0946 15.2359C42.0364 14.737 41.7382 14.459 41.2333 14.4245C40.9779 14.4079 40.7213 14.4067 40.4647 14.4067H30.7517ZM17.4546 20.071H17.4487C17.4487 19.7146 17.4748 19.3582 17.4487 19.009C17.4024 18.4827 17.0638 18.2023 16.5399 18.2059C16.016 18.2094 15.6762 18.4803 15.6536 19.0197C15.6263 19.6885 15.6287 20.3585 15.6536 21.0273C15.651 21.1461 15.6726 21.2642 15.7172 21.3744C15.7617 21.4845 15.8283 21.5844 15.9129 21.668C15.9974 21.7515 16.0981 21.8169 16.2087 21.8601C16.3194 21.9034 16.4378 21.9236 16.5565 21.9195C17.059 21.9195 17.419 21.5631 17.4558 21.0167C17.4713 20.703 17.4546 20.387 17.4546 20.071ZM44.0655 40.8679C44.0655 41.1815 44.0596 41.4963 44.0655 41.81C44.0774 42.3327 44.3031 42.6736 44.8638 42.7057C45.4246 42.7378 45.8142 42.4847 45.8594 41.9359C45.9122 41.2312 45.9122 40.5236 45.8594 39.8189C45.848 39.7003 45.8135 39.5851 45.7576 39.4799C45.7017 39.3747 45.6257 39.2815 45.5337 39.2057C45.4418 39.1299 45.3359 39.0729 45.222 39.0381C45.108 39.0033 44.9883 38.9913 44.8698 39.0028C44.3613 39.0835 44.0655 39.3865 44.0607 39.9246C44.0631 40.2394 44.0655 40.5555 44.0655 40.8679ZM28.6953 31.3783C27.9707 31.3783 27.5074 31.7347 27.5014 32.3108C27.5014 32.8549 28.0954 33.4109 28.6894 33.4085C29.2442 33.4085 29.8774 32.8062 29.8679 32.2894C29.8584 31.7727 29.3571 31.383 28.6953 31.3783ZM28.7084 19.9986C27.9956 19.9867 27.4943 20.3953 27.4967 20.9881C27.4967 21.5215 27.9719 21.9065 28.6407 21.9243C29.3095 21.9421 29.8501 21.5204 29.8715 20.9893C29.8928 20.4583 29.3868 20.0104 28.7084 20.0033V19.9986ZM36.9899 20.0033C36.3186 20.0033 35.7936 20.4357 35.8019 20.981C35.809 21.5073 36.3745 21.9421 37.0314 21.9314C37.6884 21.9207 38.1814 21.5085 38.1838 20.981C38.185 20.4238 37.6634 20.0033 36.9899 20.0033ZM32.8426 20.0033C32.1571 19.9962 31.6546 20.3941 31.6546 20.9537C31.6546 21.5132 32.1595 21.9219 32.8426 21.9302C33.5257 21.9385 34.0413 21.5168 34.0401 20.9727C34.0389 20.4286 33.5198 20.0033 32.8414 20.0033H32.8426ZM37.0006 27.591C36.3163 27.591 35.79 28.0186 35.8019 28.5568C35.8138 29.095 36.378 29.5274 37.0267 29.5155C37.7038 29.5036 38.1957 29.1033 38.1814 28.577C38.1683 27.9984 37.6694 27.5827 37.0017 27.5862L37.0006 27.591ZM32.807 27.591C32.1167 27.591 31.6332 28.0044 31.6475 28.5687C31.6617 29.1104 32.1963 29.5274 32.8616 29.5191C33.5055 29.5072 34.014 29.0985 34.0282 28.5817C34.0437 28.0068 33.515 27.5791 32.8082 27.585L32.807 27.591ZM36.9994 23.7977C36.3317 23.7823 35.8019 24.2005 35.8019 24.7552C35.8019 25.278 36.3567 25.727 37.0124 25.7223C37.6682 25.7175 38.1778 25.291 38.1778 24.7802C38.1838 24.2242 37.6801 23.8049 37.0006 23.7918L36.9994 23.7977ZM28.6573 35.1786C27.9386 35.1786 27.4907 35.5564 27.4979 36.1421C27.505 36.704 28.0051 37.1032 28.6942 37.0925C29.3594 37.083 29.8976 36.6339 29.8738 36.1076C29.8513 35.5517 29.3475 35.1668 28.6585 35.1727L28.6573 35.1786ZM32.9151 35.1786C32.1488 35.1561 31.6701 35.5029 31.6487 36.0958C31.6285 36.6553 32.1096 37.0687 32.8058 37.0913C33.4627 37.1127 34.0163 36.6874 34.027 36.154C34.0377 35.6206 33.553 35.1929 32.9163 35.1739L32.9151 35.1786ZM28.725 23.7977C28.0241 23.7787 27.5264 24.1541 27.499 24.7208C27.4717 25.2875 27.9493 25.7056 28.6538 25.7175C29.3036 25.7282 29.8667 25.2815 29.875 24.7493C29.8833 24.2171 29.3868 23.8108 28.7262 23.793L28.725 23.7977ZM28.6502 27.5898C27.954 27.5969 27.4824 28.0068 27.499 28.5877C27.5157 29.1342 28.0051 29.5214 28.668 29.5143C29.3309 29.5072 29.8798 29.0558 29.8726 28.5295C29.8619 27.9806 29.3428 27.5779 28.6514 27.585L28.6502 27.5898ZM32.8224 23.7965C32.1334 23.7965 31.6427 24.1969 31.6475 24.7588C31.6522 25.3207 32.1726 25.7235 32.8438 25.7223C33.515 25.7211 34.0425 25.2803 34.0318 24.7469C34.0211 24.2135 33.5055 23.793 32.8236 23.7918L32.8224 23.7965ZM24.5433 31.383C23.8008 31.383 23.3554 31.7228 23.347 32.3096C23.3387 32.8965 23.8092 33.3052 24.5006 33.3052C25.2134 33.3052 25.6541 32.9262 25.6482 32.3215C25.6422 31.7168 25.2573 31.383 24.5445 31.3783L24.5433 31.383ZM38.1778 32.3382C38.1885 31.8059 37.7098 31.3961 37.0576 31.3795C36.327 31.3604 35.8031 31.7477 35.7936 32.3144C35.7852 32.8514 36.3127 33.2909 36.9815 33.2992C37.6504 33.3076 38.1707 32.887 38.1778 32.3382ZM38.1778 36.1231C38.1778 35.5683 37.6706 35.1727 36.9756 35.1727C36.2806 35.1727 35.7876 35.592 35.7971 36.1468C35.8078 36.6541 36.3377 37.0782 36.972 37.0853C37.6421 37.0937 38.1838 36.66 38.1778 36.1231ZM32.8319 31.3783C32.1191 31.3783 31.6439 31.7644 31.6439 32.3382C31.6439 32.8918 32.175 33.3135 32.8521 33.298C33.4996 33.2838 34.008 32.8704 34.0187 32.3477C34.0342 31.8 33.5174 31.3783 32.8319 31.3783ZM24.5006 20.0033C23.8115 20.0033 23.3387 20.4096 23.3458 20.987C23.353 21.5406 23.8127 21.9243 24.478 21.9302C25.1837 21.9302 25.6458 21.5584 25.6482 20.9715C25.6517 20.3597 25.2193 19.995 24.5006 20.0033ZM28.611 40.818C29.3761 40.8346 29.8406 40.5162 29.8715 39.9531C29.9023 39.39 29.3963 38.9731 28.7072 38.9647C27.9802 38.9564 27.5192 39.3104 27.4979 39.8878C27.4765 40.4652 27.878 40.793 28.611 40.8132V40.818ZM37.0148 40.818C37.7395 40.818 38.1743 40.4877 38.1802 39.9365C38.1862 39.3853 37.6801 38.9719 36.9922 38.9683C36.3044 38.9647 35.8043 39.3663 35.7947 39.9187C35.7852 40.4711 36.2557 40.8109 37.0148 40.8097V40.818ZM32.8569 40.818C33.5792 40.818 34.0318 40.4747 34.0306 39.9341C34.0306 39.3734 33.5304 38.9647 32.8426 38.9612C32.1167 38.9612 31.6546 39.3176 31.6546 39.9116C31.6546 40.5056 32.0954 40.818 32.8557 40.8156L32.8569 40.818ZM24.5267 23.7942C23.8305 23.7942 23.347 24.1874 23.347 24.7647C23.347 25.3148 23.8222 25.7151 24.4851 25.7151C25.1979 25.7151 25.6577 25.3362 25.6494 24.7362C25.641 24.1363 25.2205 23.7977 24.5255 23.7918L24.5267 23.7942ZM24.5505 27.5886C23.8448 27.5767 23.3625 27.9545 23.3482 28.5307C23.334 29.0866 23.7878 29.4811 24.4614 29.5108C25.135 29.5405 25.6494 29.1294 25.6494 28.552C25.6529 27.9521 25.2478 27.5981 24.5493 27.5862L24.5505 27.5886ZM24.516 35.1727C23.7925 35.1727 23.3375 35.5445 23.3435 36.1326C23.3435 36.6933 23.8032 37.0711 24.4827 37.083C25.1884 37.0901 25.6553 36.6981 25.6434 36.1088C25.6315 35.5196 25.2288 35.1727 24.516 35.1727ZM24.4626 40.8097C25.2466 40.8097 25.6446 40.5091 25.6446 39.9009C25.6446 39.314 25.2359 38.9659 24.5374 38.96C23.8187 38.9529 23.3554 39.3164 23.3435 39.8949C23.3316 40.4735 23.7403 40.8037 24.4673 40.8097H24.4626ZM20.4388 27.5874C19.8116 27.5933 19.4184 27.9771 19.4291 28.5711C19.4398 29.1211 19.8425 29.4929 20.4424 29.506C21.0423 29.5191 21.4867 29.1163 21.4795 28.539C21.4771 27.9438 21.0804 27.5815 20.4436 27.5874H20.4388ZM41.029 31.3818C40.435 31.3818 39.9432 31.8143 39.9479 32.3263C39.9527 32.8383 40.4754 33.2921 41.0338 33.2957C41.6159 33.2957 42.103 32.8573 42.0958 32.3263C42.0982 31.7644 41.6563 31.383 41.029 31.3818ZM20.4531 23.7954C19.8247 23.7954 19.4279 24.1767 19.4326 24.7695C19.4326 25.335 19.8841 25.733 20.4923 25.7199C21.1006 25.7068 21.4831 25.3183 21.4831 24.7695C21.4855 24.1684 21.0851 23.7942 20.4543 23.7954H20.4531ZM21.4807 20.9763C21.4807 20.3918 21.0756 20.0045 20.4555 20.0033C19.8354 20.0021 19.4291 20.3775 19.4314 20.9703C19.4314 21.5382 19.8722 21.9326 20.4852 21.9207C21.078 21.9041 21.4783 21.5287 21.4819 20.9763H21.4807ZM21.4807 36.0993C21.4676 35.516 21.0649 35.1632 20.4258 35.1751C19.7866 35.1869 19.4124 35.5742 19.4326 36.1623C19.4504 36.6969 19.8746 37.0711 20.4626 37.0699C21.0958 37.0687 21.4962 36.6874 21.4831 36.0993H21.4807ZM20.4507 31.3806C19.8247 31.3806 19.4267 31.7632 19.4314 32.3512C19.4374 32.9013 19.8389 33.2743 20.4377 33.2862C21.0364 33.298 21.495 32.8656 21.4973 32.3251C21.5021 31.7549 21.0863 31.3783 20.4531 31.3806H20.4507ZM41.048 23.7942C40.422 23.7942 40.0299 24.166 40.0382 24.7624C40.0454 25.3207 40.4362 25.6985 41.0243 25.7128C41.6123 25.727 42.0934 25.2827 42.0934 24.7624C42.0982 24.1981 41.6634 23.8049 41.048 23.7942ZM41.0718 20.0021C40.4481 19.989 40.0465 20.3585 40.0406 20.9525C40.0406 21.5275 40.397 21.9029 40.9981 21.9207C41.5992 21.9385 42.078 21.5215 42.0958 20.9941C42.1136 20.4666 41.6527 20.014 41.0718 20.0033V20.0021ZM40.0394 28.5069C40.0264 29.1009 40.4243 29.5001 41.0314 29.5036C41.6076 29.5036 42.1006 29.0629 42.1006 28.5414C42.1006 28.0198 41.6527 27.6112 41.0967 27.591C40.4659 27.5625 40.0525 27.9224 40.0394 28.5069ZM20.4151 40.8073C21.1089 40.8227 21.4843 40.5127 21.4843 39.9163C21.4843 39.3449 21.116 38.9849 20.5077 38.9659C19.865 38.9493 19.4516 39.3033 19.4386 39.8819C19.4255 40.4604 19.7712 40.793 20.4151 40.8073ZM41.0124 35.1751C40.4053 35.1846 40.0382 35.5422 40.0394 36.1255C40.0406 36.7088 40.4053 37.0568 41.0254 37.0604C41.6456 37.064 42.1077 36.6458 42.0946 36.11C42.0816 35.5517 41.6337 35.1656 41.0124 35.1751ZM41.0504 40.8073C41.68 40.8014 42.0934 40.4509 42.0958 39.9258C42.0958 39.3639 41.6622 38.9659 41.0445 38.9683C40.3934 38.9683 40.0264 39.3247 40.037 39.9353C40.0477 40.5459 40.3721 40.8132 41.0504 40.8073Z" fill="#1349B4"/>
<path d="M6 4.42647C6.51083 2.59222 7.58121 1.7939 9.38813 1.89963C9.96074 1.93408 10.2078 2.20732 10.1615 2.77399C10.1449 2.9902 10.0748 3.20522 10.0807 3.41787C10.0926 3.87406 9.86214 4.04157 9.43803 4.08552C8.32013 4.20432 8.1752 4.35995 8.17401 5.48616C8.17401 22.156 8.17401 38.825 8.17401 55.4932C8.17401 56.5196 8.34746 56.7216 9.32398 56.8119C9.85501 56.8606 10.0879 57.141 10.1473 57.6435C10.2744 58.6972 9.99638 59.0215 8.95927 59.012C7.45884 59.0001 6.56192 58.266 6.00713 56.6004L6 4.42647Z" fill="#1349B4"/>
<path d="M55.4653 29.0783C55.4653 36.8636 55.4625 44.6481 55.457 52.4318C55.457 53.7516 55.6328 55.0631 55.4867 56.3937C55.3191 57.9214 53.966 59.3102 51.8467 58.9871C51.7682 58.979 51.6937 58.9489 51.6316 58.9003C51.1244 58.4251 51.3869 57.8216 51.4178 57.2764C51.4404 56.8808 51.817 56.8475 52.1425 56.8202C53.1 56.737 53.3459 56.4875 53.3566 55.5288C53.3709 54.304 53.3566 53.078 53.3566 51.8532V5.91618C53.3566 5.65958 53.3697 5.4006 53.3447 5.14637C53.2699 4.38606 53.0263 4.15915 52.2613 4.1045C51.5342 4.05223 51.3323 3.78137 51.3537 2.88682C51.3727 2.10512 51.552 1.91148 52.2732 1.89604C54.2702 1.85327 55.4593 3.01393 55.4605 5.01331C55.4653 13.0346 55.4669 21.0563 55.4653 29.0783Z" fill="#1349B4"/>
</g>
<defs>
<clipPath id="clip0_4232_28929">
<rect width="60.8091" height="60.8091" fill="white" transform="translate(0.269775 0.269653)"/>
</clipPath>
</defs>
</svg>
