<svg width="47" height="47" viewBox="0 0 47 47" fill="none" xmlns="http://www.w3.org/2000/svg">
<g clip-path="url(#clip0_39118_315089)">
<path d="M6.47102 23.5996C6.47102 16.9327 6.47102 10.2653 6.47102 3.59728C6.47102 2.33416 7.09492 1.46427 8.19292 1.16211C8.39994 1.11281 8.61265 1.09163 8.82533 1.09913C16.3155 1.09913 23.8058 1.09913 31.296 1.09913C31.8756 1.09913 31.8773 1.09913 31.8773 1.69494C31.8773 3.8654 31.8773 6.03586 31.8773 8.20632C31.8773 8.9979 32.2271 9.35283 33.0145 9.35453C35.2275 9.35453 37.4405 9.36475 39.6535 9.34772C40.0791 9.34772 40.2204 9.46178 40.2195 9.89842C40.2093 21.1474 40.2062 32.3966 40.2102 43.6461C40.2102 45.168 39.2543 46.0983 37.7231 46.0983H8.95385C7.40219 46.0983 6.47017 45.168 6.46932 43.601C6.46818 36.9335 6.46875 30.2664 6.47102 23.5996ZM23.2959 36.6036H35.5032C35.7586 36.6036 36.0139 36.6138 36.2625 36.5372C36.6761 36.4104 36.8915 36.1116 36.8804 35.6818C36.866 35.0987 36.4693 34.7829 35.7246 34.7821C27.4734 34.7821 19.2217 34.7821 10.9694 34.7821C10.7707 34.7748 10.5723 34.8037 10.3838 34.8672C9.99312 35.0119 9.78799 35.3285 9.80587 35.7601C9.82374 36.1916 10.0612 36.4342 10.4553 36.5483C10.6911 36.6163 10.9328 36.6061 11.1737 36.6061L23.2959 36.6036ZM23.3376 38.5093C19.2685 38.5093 15.1994 38.5093 11.1303 38.5093C10.9181 38.5012 10.7056 38.5146 10.4962 38.5493C10.2976 38.5812 10.1175 38.6847 9.99003 38.8403C9.86254 38.9958 9.79642 39.1927 9.80416 39.3937C9.80416 39.838 10.0323 40.1546 10.4681 40.261C10.6749 40.3082 10.8866 40.3307 11.0988 40.3283C19.2648 40.3317 27.4311 40.3317 35.5977 40.3283C35.8104 40.3359 36.0231 40.313 36.2293 40.2602C36.6549 40.135 36.8872 39.8261 36.8813 39.3801C36.8872 39.1863 36.8239 38.9968 36.7027 38.8455C36.5815 38.6941 36.4103 38.591 36.2199 38.5544C36.0116 38.5148 35.7995 38.4985 35.5875 38.5059C31.5036 38.5071 27.4203 38.5082 23.3376 38.5093ZM23.347 21.7985H35.5535C35.7377 21.8049 35.9221 21.8006 36.1059 21.7857C36.6012 21.7279 36.8915 21.3848 36.8813 20.8886C36.8711 20.4103 36.5842 20.0962 36.0974 20.0468C35.9274 20.0343 35.757 20.0303 35.5867 20.0349H11.0894C10.9191 20.0302 10.7486 20.0344 10.5787 20.0477C10.0944 20.0996 9.81267 20.4171 9.80331 20.8988C9.79395 21.3806 10.0714 21.7159 10.5447 21.7832C10.7282 21.8016 10.9128 21.8073 11.0971 21.8002L23.347 21.7985ZM23.3214 29.2036H35.5339C35.7186 29.2036 35.9041 29.2095 36.0871 29.1925C36.3023 29.1807 36.5046 29.0867 36.6523 28.9298C36.7999 28.7729 36.8816 28.5653 36.8804 28.3499C36.8957 27.8707 36.6293 27.5328 36.151 27.4553C35.968 27.433 35.7836 27.4256 35.5994 27.4332H11.086C10.9019 27.4256 10.7174 27.433 10.5345 27.4553C10.0561 27.5328 9.78884 27.8707 9.80331 28.349C9.80188 28.5645 9.88336 28.7722 10.0309 28.9292C10.1784 29.0862 10.3806 29.1805 10.5957 29.1925C10.7787 29.2095 10.9643 29.2036 11.149 29.2036H23.3214ZM23.2993 32.8781H35.556C35.7399 32.8781 35.9254 32.8832 36.1084 32.8661C36.5851 32.8227 36.8745 32.4976 36.8821 32.015C36.8898 31.4115 36.5025 31.1093 35.7067 31.1093C27.4646 31.1093 19.2234 31.1093 10.983 31.1093C10.7993 31.1029 10.6155 31.1213 10.4366 31.1638C9.97695 31.2915 9.75565 31.6609 9.81182 32.1392C9.86545 32.5648 10.1608 32.8329 10.6196 32.8653C10.8034 32.878 10.9881 32.8746 11.172 32.8746L23.2993 32.8781ZM23.2993 25.473H35.556C35.7263 25.473 35.8965 25.4781 36.0667 25.4661C36.5698 25.4312 36.883 25.101 36.8838 24.615C36.8882 24.3928 36.8091 24.1771 36.662 24.0104C36.515 23.8438 36.3107 23.7385 36.0897 23.7153C35.9342 23.7044 35.7782 23.7015 35.6224 23.7068H11.069C10.9129 23.7015 10.7566 23.7044 10.6008 23.7153C10.38 23.7379 10.1757 23.8427 10.0284 24.0088C9.88115 24.175 9.80172 24.3904 9.80587 24.6124C9.80587 25.1001 10.1174 25.4321 10.6204 25.4636C10.7907 25.4755 10.9609 25.4704 11.1311 25.4704L23.2993 25.473ZM23.3844 16.357H18.1549C15.674 16.357 13.1923 16.3584 10.7098 16.3613C10.1387 16.3613 9.80672 16.6915 9.80587 17.2124C9.80587 17.7163 10.1557 18.0815 10.6834 18.1189C10.8247 18.1291 10.9677 18.124 11.109 18.124H35.5696C35.7399 18.1309 35.9105 18.1275 36.0803 18.1138C36.1973 18.1025 36.3109 18.068 36.4144 18.0124C36.518 17.9568 36.6095 17.8812 36.6836 17.79C36.7577 17.6988 36.8129 17.5938 36.8462 17.4811C36.8794 17.3683 36.8899 17.2501 36.877 17.1333C36.837 16.6226 36.4966 16.3621 35.8556 16.3613C31.6997 16.3596 27.5438 16.3593 23.3878 16.3604L23.3844 16.357ZM9.97525 8.24972C9.97525 9.52647 9.97099 10.8032 9.97525 12.0799C9.97525 12.7387 10.3012 13.1116 10.8468 13.109C11.3924 13.1064 11.7329 12.7166 11.7406 12.0876C11.7482 11.3931 11.761 10.6977 11.7363 10.004C11.721 9.59881 11.8597 9.44986 12.27 9.45922C13.2199 9.4788 14.1698 9.46433 15.1197 9.45922C15.5206 9.45922 15.7836 9.24729 15.9317 8.88469C16.0798 8.5221 15.964 8.21398 15.7155 7.94841C15.5069 7.72456 15.2218 7.69307 14.9316 7.69307C14.0242 7.69307 13.1169 7.6837 12.2078 7.69307C11.8623 7.69307 11.7227 7.5705 11.7363 7.21812C11.7567 6.70742 11.7576 6.19673 11.7363 5.68603C11.7201 5.31237 11.8682 5.1864 12.2334 5.19321C13.1407 5.21023 14.048 5.20342 14.9571 5.19321C15.5835 5.19321 15.9955 4.82891 15.9947 4.30715C15.9938 3.78539 15.5929 3.43386 14.9596 3.43131C13.6409 3.4262 12.3225 3.4262 11.0043 3.43131C10.2553 3.43131 9.9778 3.71474 9.97525 4.46206C9.97184 5.72603 9.9744 6.98831 9.97525 8.24972ZM22.9657 7.42495C21.6115 7.42495 20.3415 8.29228 19.9372 9.49752C19.79 9.93757 19.9594 10.3981 20.3398 10.5896C20.5426 10.6968 20.7788 10.7218 20.9996 10.6596C21.2203 10.5973 21.4087 10.4524 21.5255 10.2551C21.5936 10.1478 21.6404 10.0269 21.7059 9.9146C22.266 8.99364 23.627 8.98343 24.193 9.89587C24.4416 10.2968 24.4365 10.7172 24.3275 11.1649C24.1913 11.7267 24.4484 12.2144 24.8995 12.3259C25.4349 12.457 25.8715 12.1787 26.0511 11.5914C26.1981 11.1092 26.23 10.5993 26.1443 10.1026C26.0587 9.60585 25.8578 9.13611 25.5578 8.73102C25.2578 8.32594 24.8671 7.99679 24.4169 7.76998C23.9668 7.54316 23.4697 7.425 22.9657 7.42495ZM27.6002 6.35419C27.6002 5.82051 27.2734 5.48005 26.7703 5.48686C26.2673 5.49367 25.8553 5.85626 25.8443 6.30142C25.8418 6.42223 25.8635 6.54231 25.9083 6.65456C25.953 6.7668 26.0198 6.86893 26.1047 6.95489C26.1897 7.04084 26.291 7.10888 26.4027 7.15498C26.5144 7.20107 26.6342 7.22428 26.755 7.22323C27.2649 7.20961 27.6002 6.86404 27.6002 6.35419ZM22.443 5.55836C22.9623 5.55836 23.3997 5.17108 23.3887 4.72592C23.3856 4.49674 23.2926 4.27796 23.1297 4.11669C22.9668 3.95542 22.7471 3.86457 22.5179 3.8637C22.0073 3.8637 21.5817 4.24331 21.5817 4.7089C21.5859 5.21534 21.9349 5.56006 22.443 5.55836Z" fill="#E90C6C"/>
<path d="M36.1995 7.5399C35.5186 7.5399 34.8376 7.52373 34.1618 7.54586C33.766 7.55863 33.6401 7.39095 33.6426 7.01729C33.6537 5.65543 33.6426 4.30039 33.6494 2.94108C33.6494 2.80319 33.6171 2.6236 33.7652 2.55806C33.9133 2.49252 34.0129 2.65594 34.1056 2.75127C35.5708 4.21016 37.0322 5.67104 38.49 7.1339C38.5751 7.21901 38.7266 7.29392 38.6645 7.44117C38.6023 7.58842 38.4432 7.5365 38.324 7.53735C37.6133 7.54246 36.9077 7.5399 36.1995 7.5399Z" fill="#E90C6C"/>
</g>
<defs>
<clipPath id="clip0_39118_315089">
<rect width="33.7511" height="45" fill="white" transform="translate(6.4707 1.09766)"/>
</clipPath>
</defs>
</svg>
