<svg width="46" height="46" viewBox="0 0 46 46" fill="none" xmlns="http://www.w3.org/2000/svg">
<g clip-path="url(#clip0_39130_315310)">
<path d="M45.5052 24.736C45.4263 24.6349 45.3393 24.5337 45.2696 24.4185C43.4018 21.4708 40.7382 19.7345 37.3001 19.1703C36.0161 18.9702 34.7061 19.0114 33.4372 19.2916C32.8517 19.413 32.8153 19.4079 32.8304 18.8174C32.8436 18.3998 32.6757 18.3037 32.2945 18.3118C31.0982 18.33 29.9019 18.3229 28.7056 18.3118C27.7247 18.3118 27.1635 17.7526 27.1605 16.7788C27.153 15.1777 27.153 13.577 27.1605 11.9766C27.1605 11.0321 27.7298 10.4668 28.6722 10.4597C29.8857 10.4517 31.0992 10.4426 32.3127 10.4648C32.7172 10.4719 32.8456 10.3293 32.8284 9.93695C32.8031 9.33023 32.8203 8.7235 32.8213 8.11678C32.8213 7.9024 32.8122 7.69612 32.518 7.69915C31.1022 7.71634 29.6804 7.58084 28.2758 7.75477C26.0511 8.02981 24.7001 9.31607 24.4635 11.5428C24.2688 13.4216 24.2688 15.3155 24.4635 17.1944C24.7011 19.5202 26.2493 20.8772 28.5964 21.0704C28.7279 21.0815 28.8593 21.0946 29.0009 21.1078C29.0009 21.3646 28.7885 21.4182 28.6591 21.5254C26.1573 23.5964 24.7406 26.2346 24.4777 29.4806C24.4592 29.5972 24.4467 29.7146 24.4402 29.8325C24.4473 30.2501 24.238 30.3563 23.8406 30.3532C21.5663 30.3371 19.29 30.3462 17.0158 30.3462H0.983737C0.263741 30.3462 0.261719 30.3462 0.261719 29.6272C0.261719 20.4926 0.261719 11.358 0.261719 2.22346C0.261719 1.07068 0.777446 0.546875 1.9171 0.546875C15.9395 0.546875 29.9619 0.546875 43.9843 0.546875C45.1199 0.546875 45.6377 1.07371 45.6387 2.22649C45.6387 9.53955 45.6387 16.854 45.6387 24.1697V24.7107L45.5052 24.736ZM11.6583 14.1941C11.6583 15.175 11.6472 15.9668 11.6583 16.7586C11.6917 18.7921 12.9496 20.4758 14.8689 20.9045C16.2988 21.2241 17.751 21.2473 19.1262 20.6012C19.468 20.4394 19.7087 20.4576 19.9625 20.7518C20.2477 21.0825 20.5905 21.3636 20.8817 21.6902C21.1224 21.9602 21.3054 22.0067 21.5724 21.7115C21.9769 21.2625 22.4158 20.8378 22.8577 20.4232C23.0923 20.2017 23.1206 20.0359 22.8678 19.8053C22.5068 19.4767 22.1913 19.0975 21.8222 18.779C21.4177 18.4321 21.3105 18.0843 21.3813 17.519C21.625 15.5775 21.5835 13.6107 21.4379 11.6681C21.2852 9.64067 20.0798 8.31093 18.2869 7.85487C17.4779 7.65263 16.6467 7.65263 15.8235 7.71128C13.5736 7.8569 12.0658 9.2372 11.718 11.4528C11.5673 12.4215 11.7028 13.4074 11.6583 14.1941Z" fill="#21479A"/>
<path d="M45.635 30.3044C45.635 35.8549 41.2412 40.2556 35.6976 40.2567C30.1278 40.2567 25.7431 35.8559 25.7461 30.2679C25.7461 24.7468 30.1692 20.3642 35.734 20.3672C37.0381 20.3644 38.3298 20.6198 39.5347 21.1186C40.7396 21.6174 41.8338 22.3499 42.7543 23.2737C43.6747 24.1974 44.4031 25.2943 44.8975 26.501C45.392 27.7077 45.6426 29.0003 45.635 30.3044ZM34.9796 33.1024C35.1932 33.0893 35.4012 33.0294 35.5889 32.9268C35.7766 32.8242 35.9394 32.6815 36.0657 32.5088C37.173 30.9809 38.2672 29.4448 39.3704 27.9139C39.5373 27.6833 39.4907 27.5286 39.2632 27.3729C38.7637 27.029 38.2631 26.6852 37.7868 26.3101C37.4885 26.0755 37.3166 26.1129 37.1012 26.4223C36.3772 27.4598 35.6238 28.472 34.9048 29.5085C34.6874 29.823 34.5195 29.8968 34.1798 29.6673C33.6509 29.3093 33.0765 29.0191 32.5355 28.6773C32.2695 28.5095 32.1259 28.5631 31.9783 28.829C31.683 29.3579 31.3716 29.8817 31.0449 30.3903C30.8569 30.6815 30.8831 30.8565 31.1916 31.0355C32.2109 31.629 33.214 32.2428 34.2253 32.8455C34.4542 32.9867 34.7121 33.0745 34.9796 33.1024Z" fill="#21479A"/>
<path d="M13.999 37.4261H2.01998C0.746841 37.4261 0.263472 36.9367 0.263472 35.6474C0.263472 34.5189 0.281674 33.3894 0.254371 32.2609C0.244259 31.8129 0.397966 31.6865 0.835829 31.6875C8.55287 31.699 16.2696 31.699 23.9859 31.6875C24.3904 31.6875 24.5421 31.8291 24.6038 32.2214C24.8748 33.9506 25.5665 35.5089 26.5838 36.9276C26.6697 37.0469 26.8396 37.1632 26.786 37.3129C26.7092 37.508 26.4928 37.4221 26.337 37.4221C22.2227 37.4268 18.11 37.4281 13.999 37.4261Z" fill="#21479A"/>
<path d="M22.8968 45.918C19.8136 45.918 16.7283 45.9069 13.6471 45.9282C13.1344 45.9282 12.9584 45.7805 12.9948 45.2699C13.0288 44.6973 13.0288 44.1233 12.9948 43.5508C12.9736 43.1231 13.1465 42.9926 13.5551 43.0088C14.1942 43.0341 14.8353 43.0007 15.4764 43.0209C15.8273 43.031 15.9406 42.8925 15.9638 42.5538C16.0366 41.4616 16.1519 40.3726 16.2257 39.2815C16.252 38.9013 16.3926 38.7607 16.7839 38.7617C20.8963 38.7725 25.0086 38.7725 29.1209 38.7617C29.5153 38.7617 29.6498 38.9063 29.6751 39.2845C29.7499 40.3756 29.8652 41.4647 29.938 42.5558C29.9603 42.8986 30.0796 43.03 30.4274 43.0209C31.1009 43.0017 31.7754 43.0209 32.4499 43.0128C32.7684 43.0068 32.908 43.1221 32.9019 43.4517C32.8878 44.109 32.8777 44.7663 32.9019 45.4226C32.9201 45.8513 32.7118 45.9221 32.3508 45.9201C30.6489 45.91 28.948 45.9201 27.2461 45.9201L22.8968 45.918Z" fill="#21479A"/>
<path d="M14.4208 14.341C14.4208 13.5492 14.4137 12.7574 14.4208 11.9657C14.4299 11.0273 14.9962 10.4711 15.9437 10.461C16.4159 10.4549 16.8882 10.4468 17.3594 10.461C18.131 10.4893 18.7094 11.0424 18.7256 11.8079C18.7499 12.9203 18.7347 14.0326 18.7317 15.1449C18.7317 15.2541 18.7792 15.4058 18.6356 15.4543C18.492 15.5029 18.4333 15.3633 18.3484 15.2875C17.5455 14.5705 17.5455 14.5695 16.7749 15.3279C16.4989 15.6 16.238 15.8881 15.9477 16.145C15.6939 16.3715 15.7212 16.5414 15.9589 16.7618C16.3532 17.1279 16.7274 17.5172 17.1036 17.9035C17.1916 17.9935 17.3534 18.0744 17.2846 18.2291C17.229 18.3545 17.0763 18.308 16.964 18.309C16.5767 18.314 16.1884 18.3221 15.8021 18.309C15.0083 18.2786 14.441 17.7154 14.4238 16.9186C14.4076 16.06 14.4218 15.1995 14.4208 14.341Z" fill="#21479A"/>
</g>
<defs>
<clipPath id="clip0_39130_315310">
<rect width="45.382" height="45.382" fill="white" transform="translate(0.253906 0.546875)"/>
</clipPath>
</defs>
</svg>
