<svg width="20" height="20" viewBox="0 0 20 20" fill="none" xmlns="http://www.w3.org/2000/svg">
<g clip-path="url(#clip0_31017_82792)">
<path d="M11.9882 18.8527H4.97003C4.2357 18.8527 3.80123 18.4156 3.80078 17.6781C3.80078 16.1532 3.80078 14.6279 3.80078 13.1024C3.80078 12.7803 3.80078 12.7799 4.11175 12.7794C4.84431 12.7794 5.57776 12.7883 6.31032 12.7741C6.54 12.7697 6.61507 12.8403 6.62973 13.0695C6.69637 14.1139 7.49024 15.0517 8.48446 15.2859C9.49023 15.5226 10.6857 15.0269 11.2299 14.1508C11.3421 13.9654 11.3874 13.7472 11.3583 13.5324C11.3427 13.3854 11.396 13.3161 11.5409 13.2899C11.8847 13.2271 12.2086 13.0834 12.4858 12.8705C12.5884 12.7928 12.6977 12.7781 12.819 12.7785C13.6555 12.7785 14.492 12.7763 15.3285 12.7785C15.9247 12.7816 16.4564 12.6328 16.8607 12.1637C16.9313 12.082 17.0189 12.066 17.1193 12.0664C18.0668 12.0664 19.0144 12.0695 19.9624 12.0664C20.1246 12.0664 20.1845 12.1206 20.1845 12.2845C20.1805 14.1353 20.1868 15.9864 20.1783 17.8376C20.1761 18.4076 19.6919 18.8514 19.0975 18.8518C16.7273 18.8542 14.3575 18.8545 11.9882 18.8527ZM14.6537 16.6892H18.1877C18.5359 16.6892 18.7168 16.5724 18.7176 16.3503C18.7185 16.1281 18.5368 16.0104 18.1894 16.0104H11.1242C10.7754 16.0104 10.5951 16.1264 10.5942 16.3489C10.5933 16.5715 10.775 16.6892 11.1224 16.6892H14.6537ZM7.19037 16.6892C7.66423 16.6892 8.13809 16.6892 8.61196 16.6892C8.93936 16.6892 9.1184 16.5671 9.1184 16.3494C9.1184 16.1317 8.9407 16.0109 8.61151 16.0104C7.66379 16.0104 6.71607 16.0104 5.76834 16.0104C5.66439 16.0104 5.56088 16.0104 5.46315 16.0548C5.40438 16.079 5.35411 16.12 5.31874 16.1728C5.28336 16.2255 5.26447 16.2876 5.26447 16.3512C5.26447 16.4147 5.28336 16.4768 5.31874 16.5295C5.35411 16.5823 5.40438 16.6234 5.46315 16.6475C5.55309 16.6828 5.64969 16.698 5.74613 16.6919L7.19037 16.6892Z" fill="#FFA800"/>
<path d="M8.4442 5.31724H16.3073C16.6259 5.31724 16.6268 5.31724 16.6268 5.63132C16.6268 7.40831 16.6268 9.18529 16.6268 10.9623C16.6268 11.6535 16.1794 12.1 15.4881 12.1013C14.8738 12.1013 14.2594 12.1013 13.645 12.0991C13.5699 12.0991 13.4611 12.1457 13.426 12.0547C13.3984 11.9836 13.4962 11.9352 13.545 11.8832C13.7569 11.6566 13.9937 11.4536 14.167 11.1906C15.1025 9.76902 14.1492 7.66153 12.462 7.43096C11.382 7.28347 10.5672 7.74504 9.92442 8.5709C9.85335 8.66205 9.80273 8.76743 9.77598 8.87988C9.74922 8.99232 9.74698 9.10921 9.76938 9.2226C9.79826 9.38298 9.74628 9.45272 9.58546 9.47627C9.10035 9.54823 8.69164 9.77569 8.34558 10.1186C7.9773 10.4834 7.61168 10.8503 7.24474 11.2168C7.03717 11.4198 6.87553 11.6649 6.77073 11.9356C6.72364 12.0587 6.65167 12.1026 6.52195 12.1026C4.76718 12.0995 3.01241 12.1053 1.25809 12.0969C0.707669 12.0946 0.249207 11.6162 0.247875 11.0578C0.242988 9.22171 0.247875 7.38565 0.241211 5.54914C0.241211 5.30703 0.369154 5.31547 0.53619 5.31547C3.17234 5.31754 5.80834 5.31813 8.4442 5.31724ZM3.61659 10.6477C4.00841 10.6477 4.40023 10.6513 4.79206 10.6477C5.27584 10.6415 5.57126 10.3528 5.57615 9.8752C5.58237 9.45346 5.58237 9.03187 5.57615 8.61043C5.57126 8.13154 5.27673 7.84056 4.79295 7.83745C4.02292 7.833 3.25393 7.833 2.48598 7.83745C1.99198 7.84056 1.705 8.13331 1.70056 8.63131C1.697 9.03824 1.697 9.44502 1.70056 9.85165C1.70544 10.3594 1.99331 10.6433 2.50686 10.6473C2.87647 10.6504 3.24609 10.6477 3.61659 10.6477Z" fill="#FFA800"/>
<path d="M8.43629 2.86028H0.575812C0.247959 2.86028 0.247515 2.86028 0.24707 2.53332C0.24707 2.39249 0.24707 2.25166 0.24707 2.11128C0.247011 1.97202 0.274462 1.83413 0.327848 1.70551C0.381234 1.57689 0.459502 1.46008 0.558159 1.36179C0.656816 1.26351 0.773916 1.18568 0.902737 1.13278C1.03156 1.07988 1.16956 1.05295 1.30882 1.05353C6.06046 1.05117 10.8123 1.05117 15.5642 1.05353C15.7035 1.05295 15.8415 1.07992 15.9704 1.13288C16.0992 1.18585 16.2163 1.26377 16.3149 1.36216C16.4135 1.46055 16.4916 1.57747 16.5449 1.70619C16.5981 1.8349 16.6254 1.97288 16.6251 2.11217C16.6282 2.30453 16.6224 2.49689 16.6251 2.68969C16.6273 2.81275 16.5717 2.86517 16.4514 2.86028C16.3776 2.85717 16.3034 2.86028 16.2292 2.86028H8.43629Z" fill="#FFA800"/>
<path d="M8.43762 4.63704H0.554932C0.248403 4.63704 0.247959 4.63704 0.24707 4.33362C0.24707 4.12616 0.250624 3.9187 0.24707 3.71168C0.24707 3.58951 0.299047 3.53398 0.420326 3.5402C0.486519 3.54331 0.5536 3.5402 0.620236 3.5402H16.2519C16.311 3.5402 16.3705 3.5442 16.4296 3.5402C16.57 3.52998 16.6313 3.58818 16.6273 3.733C16.6211 3.97689 16.6228 4.22167 16.6273 4.46556C16.6273 4.58773 16.5753 4.64326 16.454 4.63704C16.3803 4.63393 16.3061 4.63704 16.2319 4.63704H8.43762Z" fill="#FFA800"/>
<path d="M13.8869 9.8643C13.8957 10.2772 13.7485 10.6782 13.4746 10.9874C13.0922 11.4289 12.6906 11.8554 12.237 12.2255C11.5706 12.7679 10.8634 12.8212 10.1135 12.4032C10.0019 12.3446 9.9022 12.2658 9.8194 12.1708C9.66524 11.9851 9.66169 11.7541 9.80962 11.6084C9.95756 11.4627 10.1517 11.46 10.348 11.6208C10.5302 11.7706 10.7283 11.8745 10.966 11.8936C11.1248 11.9106 11.2853 11.8915 11.4357 11.8376C11.586 11.7838 11.7222 11.6966 11.834 11.5826C12.1601 11.2597 12.4889 10.9398 12.8061 10.6089C12.9031 10.5115 12.9798 10.3958 13.0316 10.2685C13.0834 10.1412 13.1094 10.0048 13.1079 9.86739C13.1064 9.72994 13.0775 9.59417 13.023 9.46801C12.9684 9.34185 12.8892 9.22784 12.7901 9.13263C12.384 8.73636 11.7545 8.74125 11.3289 9.14462C11.2372 9.24111 11.1405 9.33275 11.0393 9.41917C10.8794 9.54178 10.7097 9.54133 10.5546 9.40317C10.3996 9.26501 10.3747 9.06599 10.5102 8.90473C10.9913 8.32988 11.5764 7.93761 12.3609 8.09265C13.1455 8.24769 13.635 8.7448 13.8407 9.51424C13.8639 9.62976 13.8794 9.74671 13.8869 9.8643Z" fill="#FFA800"/>
<path d="M8.83606 14.674C8.30296 14.646 7.74277 14.304 7.43046 13.626C7.12216 12.9557 7.20834 12.3031 7.68502 11.7353C8.05815 11.2943 8.46658 10.8844 8.90625 10.5097C9.57484 9.93214 10.5286 9.93214 11.2119 10.4914C11.247 10.5188 11.2803 10.5485 11.3114 10.5803C11.4669 10.7438 11.4846 10.9468 11.3589 11.1023C11.2257 11.2693 11.0249 11.2889 10.8258 11.1538C10.1484 10.6989 9.73521 10.738 9.16213 11.3111C8.88981 11.583 8.61482 11.8522 8.3465 12.128C7.92358 12.5643 7.91825 13.2138 8.32962 13.622C8.74099 14.0303 9.3847 14.0179 9.82406 13.5941C9.90935 13.5119 9.98887 13.423 10.0791 13.3471C10.2541 13.2 10.4478 13.2058 10.5993 13.3537C10.6342 13.3848 10.6626 13.4225 10.6828 13.4646C10.703 13.5067 10.7146 13.5524 10.717 13.5991C10.7194 13.6458 10.7125 13.6924 10.6967 13.7364C10.6809 13.7804 10.6566 13.8208 10.625 13.8553C10.2145 14.3453 9.72321 14.6882 8.83606 14.674Z" fill="#FFA800"/>
<path d="M18.7432 9.61328C18.3362 9.61328 17.9297 9.60795 17.5233 9.61328C17.3602 9.61639 17.3011 9.55775 17.3038 9.39471C17.3109 8.93625 17.3109 8.47719 17.3038 8.01755C17.3011 7.85407 17.3607 7.79543 17.5233 7.79898C18.0701 7.80564 18.6174 7.79454 19.1643 7.80387C19.6974 7.81364 20.1541 8.26677 20.1776 8.79409C20.1865 9.00111 20.1745 9.20857 20.1812 9.41603C20.1856 9.55908 20.127 9.62216 19.9853 9.60972C19.9706 9.60972 19.9555 9.60972 19.9408 9.60972L18.7432 9.61328Z" fill="#FFA800"/>
<path d="M18.721 11.3896C18.3074 11.3896 17.8934 11.3852 17.4798 11.3919C17.3106 11.395 17.2528 11.3332 17.2857 11.1671C17.3301 10.9481 17.307 10.7228 17.3052 10.5038C17.3052 10.3568 17.3496 10.2901 17.5078 10.291C18.335 10.2961 19.1623 10.2961 19.9898 10.291C20.1342 10.291 20.1862 10.3488 20.1826 10.4887C20.1768 10.7251 20.1764 10.9618 20.1826 11.1995C20.1866 11.3448 20.1235 11.3936 19.984 11.3919C19.562 11.3865 19.1408 11.3896 18.721 11.3896Z" fill="#FFA800"/>
<path d="M3.62543 9.9677C3.27804 9.9677 2.93019 9.96281 2.58279 9.96992C2.42775 9.97303 2.37488 9.91128 2.37755 9.76068C2.38407 9.41328 2.38407 9.06588 2.37755 8.71848C2.37444 8.56211 2.43797 8.5128 2.58768 8.51368C3.28988 8.51872 3.99223 8.51872 4.69473 8.51368C4.84977 8.51368 4.90264 8.57232 4.89997 8.72292C4.89346 9.07032 4.89346 9.41772 4.89997 9.76512C4.90308 9.9215 4.83956 9.97259 4.68985 9.96992C4.33489 9.96326 3.97994 9.9677 3.62543 9.9677Z" fill="#FFA800"/>
</g>
<defs>
<clipPath id="clip0_31017_82792">
<rect width="20" height="20" fill="white"/>
</clipPath>
</defs>
</svg>
