<svg width="62" height="62" viewBox="0 0 62 62" fill="none" xmlns="http://www.w3.org/2000/svg">
<g clip-path="url(#clip0_32675_96146)">
<path d="M4.02123 30.4707C3.98431 27.2953 4.00129 24.1198 4.02862 20.9444C4.08105 14.9879 4.03674 9.03206 4.06111 3.07331C4.06014 2.7286 4.09729 2.38485 4.17188 2.04831C4.46284 0.781823 5.38593 0.0773188 6.8422 0.00273295C6.96479 -0.00391332 7.08812 -0.00243635 7.21144 -0.00243635C16.0977 -0.00243635 24.9841 -0.00243635 33.8704 -0.00243635C34.1662 -0.00828124 34.4621 0.00330836 34.7565 0.032272C35.1073 0.0743651 35.2491 0.277445 35.2683 0.596466C35.2831 0.84164 35.2801 1.08829 35.2801 1.33494C35.2801 5.65452 35.2801 9.9741 35.2801 14.2937C35.2801 15.4752 35.4507 15.6473 36.6138 15.651C37.4505 15.651 38.2879 15.6451 39.1246 15.651C40.9317 15.6687 42.7431 15.7551 44.545 15.6968C46.2922 15.6399 48.0372 15.6842 49.783 15.6525C49.9674 15.6482 50.1519 15.6553 50.3354 15.6739C50.6795 15.7101 50.8471 15.8954 50.8671 16.2551C50.9579 17.9536 50.8988 19.6521 50.907 21.3505C50.9188 24.0703 50.938 26.7909 50.8996 29.5099C50.8779 31.0361 50.8666 32.5623 50.8656 34.0885C50.8656 34.3913 50.7814 34.474 50.4772 34.3883C49.3906 34.0779 48.2639 33.9313 47.1341 33.9533C44.192 34.0205 41.5269 34.9134 39.2324 36.8016C37.9224 37.8783 36.839 39.1433 36.0437 40.652C35.2556 42.1343 34.7652 43.7564 34.6 45.427C34.3341 48.0641 34.8415 50.552 36.1463 52.828C38.0774 56.1962 40.9811 58.3001 44.8086 59.0748C46.6644 59.4499 48.5121 59.3657 50.3472 58.9189C50.4617 58.8909 50.5961 58.7934 50.6928 58.902C50.7895 59.0105 50.6928 59.1582 50.6492 59.2793C50.3132 60.2046 49.4788 60.7836 48.4235 60.8124C47.9065 60.8272 47.3896 60.8205 46.8727 60.8205C33.7529 60.8205 20.6327 60.8205 7.512 60.8205C7.13097 60.831 6.7497 60.8113 6.3718 60.7614C4.87343 60.5222 4.07293 59.6242 4.06333 58.0859C4.04856 55.4895 4.07514 52.8923 4.05003 50.2958C3.99539 44.4382 4.02862 38.5806 4.01754 32.7201C4.01976 31.9713 4.02123 31.221 4.02123 30.4707ZM19.4967 9.85324C19.5082 9.63185 19.5082 9.41001 19.4967 9.18861C19.4369 8.60817 18.9059 8.30983 18.389 8.56756C18.0522 8.73519 17.954 9.05864 17.9348 9.40056C17.9156 9.74247 17.926 10.0896 17.9282 10.4344C17.9282 11.1729 17.7805 11.4026 17.0811 11.616C16.4431 11.8147 15.8705 12.1821 15.424 12.6794C15.0388 13.0909 14.7944 13.6142 14.7261 14.1737C14.6577 14.7332 14.7689 15.2999 15.0437 15.792C15.39 16.4035 15.921 16.8119 16.5206 17.1486C17.1469 17.5009 17.8314 17.7062 18.5042 17.9425C19.1326 18.164 19.7537 18.404 20.2979 18.7947C21.286 19.5021 21.3215 20.7605 20.3917 21.5381C20.0101 21.8539 19.5475 22.0563 19.0566 22.1223C17.7967 22.3212 16.5061 22.1458 15.345 21.6179C14.8753 21.4045 14.7003 21.5182 14.4485 22.1547C14.2801 22.5794 14.3746 22.7898 14.8177 22.9442C15.5503 23.1982 16.2866 23.4168 17.0782 23.4271C17.7066 23.4353 17.923 23.707 17.9297 24.3347C17.9341 24.715 17.8802 25.0983 17.985 25.4734C18.1017 25.8914 18.4111 26.1034 18.8395 26.0568C19.2678 26.0103 19.4915 25.7807 19.5041 25.325C19.5166 24.9683 19.5093 24.6109 19.5115 24.2542C19.5115 23.6376 19.7072 23.3813 20.3068 23.2403C20.8828 23.1052 21.4304 22.8692 21.9241 22.5432C23.6226 21.4281 23.7562 19.0997 22.1825 17.8214C21.7215 17.4503 21.2022 17.1581 20.6458 16.9566C19.7116 16.6118 18.7538 16.3201 17.8698 15.8563C17.2835 15.5491 16.8249 15.1141 16.836 14.3675C16.8463 13.6593 17.2229 13.186 17.8167 12.878C18.4104 12.5701 19.0721 12.4711 19.7507 12.5206C20.4434 12.5716 21.1051 12.7554 21.7527 12.9977C21.9004 13.0538 22.074 13.1409 22.2106 13.0302C22.3336 12.9362 22.434 12.8159 22.5043 12.6779C22.5746 12.54 22.613 12.3881 22.6168 12.2333C22.6241 11.938 22.4284 11.7792 22.1951 11.6854C21.6708 11.4735 21.1413 11.2755 20.5616 11.2674C19.7817 11.2556 19.4982 10.9602 19.4997 10.1856L19.4967 9.85324ZM27.5461 30.2477C22.5875 30.2477 17.6291 30.2477 12.671 30.2477C12.4251 30.2478 12.1796 30.2653 11.9362 30.3001C11.4584 30.3681 11.2627 30.6029 11.2716 31.0637C11.2804 31.495 11.53 31.7785 11.9694 31.8214C12.3481 31.8639 12.7286 31.8866 13.1096 31.8893C14.1435 31.8849 15.1774 31.848 16.2068 31.8472C24.906 31.8433 33.6048 31.8433 42.303 31.8472C42.5733 31.8472 42.8458 31.8472 43.1153 31.8221C43.52 31.7808 43.7799 31.4772 43.7903 31.0748C43.7999 30.6538 43.5747 30.3695 43.1559 30.309C42.9009 30.2713 42.6435 30.2521 42.3857 30.2514C37.4389 30.2469 32.4926 30.2457 27.5468 30.2477H27.5461ZM23.7289 37.4005C20.0011 37.4005 16.2738 37.4005 12.5469 37.4005C12.3143 37.4005 12.0809 37.3932 11.8513 37.4626C11.451 37.5852 11.2694 37.8252 11.2723 38.2498C11.2723 38.6537 11.454 38.879 11.8491 38.9986C12.0276 39.0448 12.2119 39.0652 12.3963 39.0592C16.5147 39.0946 20.6339 38.9971 24.7524 39.1219C25.9665 39.1588 27.1827 39.136 28.399 39.0724C29.4787 39.0156 30.5635 39.0606 31.6483 39.0599C32.8904 39.0599 34.1333 39.0658 35.3754 39.0496C35.9108 39.0429 36.1877 38.7712 36.2062 38.3111C36.2239 37.8045 35.9469 37.4773 35.4285 37.4161C35.2203 37.3984 35.0112 37.393 34.8023 37.3998L23.7289 37.4005ZM18.0057 53.5318C19.764 53.5318 21.5216 53.5318 23.2799 53.5318C23.5622 53.529 23.844 53.5065 24.1232 53.4646C24.5663 53.3996 24.8145 53.1123 24.8152 52.6951C24.8152 52.2357 24.5863 51.9507 24.1321 51.8828C23.8898 51.8448 23.6448 51.8255 23.3995 51.8252C19.7116 51.8355 16.0239 51.849 12.3365 51.8658C12.2382 51.8658 12.14 51.8658 12.0411 51.8739C11.598 51.9034 11.3432 52.111 11.2826 52.4861C11.2132 52.9159 11.4119 53.2644 11.824 53.4203C12.0675 53.5065 12.3248 53.5472 12.5831 53.5406C14.3919 53.5328 16.1997 53.5298 18.0065 53.5318H18.0057ZM18.0471 44.5741H12.4406C12.2563 44.5666 12.0718 44.5832 11.8919 44.6236C11.4215 44.7484 11.194 45.0925 11.2834 45.5607C11.3513 45.9129 11.6423 46.1441 12.1068 46.1588C14.0357 46.2201 15.9653 46.1862 17.8942 46.1972C19.4908 46.2066 21.0884 46.197 22.6869 46.1684C23.1787 46.1603 23.6713 46.1744 24.1639 46.1529C24.5833 46.1345 24.81 45.876 24.8174 45.4603C24.8277 44.8695 24.5028 44.5741 23.8042 44.5741C21.8842 44.5719 19.9664 44.5748 18.0478 44.5741H18.0471Z" fill="#07A54A"/>
<path d="M58.1717 46.3954C58.1768 52.7802 53.7408 57.6047 47.1994 57.6128C40.8899 57.6202 36.256 52.9973 36.2131 46.5091C36.1732 40.636 41.2348 35.6535 47.1669 35.6602C53.1641 35.6646 58.2854 40.6759 58.1717 46.3954ZM50.1695 45.7521V45.7477H49.0988C48.2731 45.7477 48.0878 45.5587 48.0878 44.7183C48.0878 43.968 48.0878 43.217 48.0775 42.4667C48.0679 41.9187 47.754 41.5111 47.3338 41.4609C46.7571 41.3915 46.3686 41.7201 46.3398 42.3264C46.2992 43.1741 46.328 44.0249 46.2999 44.8719C46.2778 45.5277 46.0946 45.7411 45.3709 45.7455C44.6325 45.7499 43.894 45.7499 43.1555 45.7455C42.9335 45.7393 42.713 45.783 42.5101 45.8733C42.163 46.035 41.9193 46.2765 41.923 46.6856C41.923 47.0452 42.1674 47.3554 42.5684 47.4979C42.8133 47.5823 43.0709 47.6235 43.3298 47.6198C44.007 47.6146 44.6834 47.6198 45.3606 47.6087C46.0164 47.6006 46.263 47.8036 46.3169 48.4535C46.3398 48.7341 46.2999 49.0192 46.3059 49.3013C46.3169 49.9157 46.3059 50.533 46.3664 51.143C46.4277 51.7707 46.9048 52.0454 47.4741 51.8438C47.9106 51.6895 48.0701 51.3461 48.0767 50.9229C48.0885 50.1106 48.0767 49.2983 48.0834 48.486C48.09 47.8708 48.3588 47.6131 48.9644 47.6116C49.0751 47.6116 49.1859 47.6198 49.2967 47.6175C50.0706 47.6013 50.8475 47.6833 51.6184 47.5762C52.1538 47.5023 52.4123 47.1154 52.3702 46.5726C52.3318 46.0712 52.001 45.7603 51.4597 45.7492C51.0306 45.744 50.6001 45.7521 50.1695 45.7521Z" fill="#07A54A"/>
<path d="M36.9395 7.25319C36.9395 5.27211 36.9395 3.29078 36.9395 1.30921C36.9395 1.11721 36.9513 0.926681 37.1558 0.841018C37.3604 0.755355 37.4704 0.911173 37.5923 1.0345C41.6401 5.11531 45.6862 9.19562 49.7306 13.2754C49.7911 13.336 49.8583 13.3921 49.9137 13.4578C50.1441 13.7326 50.0614 13.9608 49.6981 14.028C49.5517 14.0527 49.4034 14.0641 49.255 14.0619C45.5262 14.0619 41.7976 14.0619 38.0693 14.0619C37.0783 14.0619 36.9395 13.9187 36.9395 12.9357V7.2495V7.25319Z" fill="#07A54A"/>
</g>
<defs>
<clipPath id="clip0_32675_96146">
<rect width="60.8091" height="60.8171" fill="white" transform="translate(0.966797 0.273438)"/>
</clipPath>
</defs>
</svg>
