<svg width="62" height="62" viewBox="0 0 62 62" fill="none" xmlns="http://www.w3.org/2000/svg">
<path d="M24.9735 55.378V42.057C24.9735 41.1258 25.9237 40.1757 26.8738 40.1757H34.475C35.4251 40.1757 36.3752 41.1258 36.3752 42.076V55.378C36.3752 55.8819 36.5755 56.3653 36.9318 56.7217C37.2882 57.078 37.7715 57.2782 38.2755 57.2782H53.4778C53.9818 57.2782 54.4651 57.078 54.8215 56.7217C55.1779 56.3653 55.3781 55.8819 55.3781 55.378V28.774C55.3785 28.5243 55.3298 28.2769 55.2345 28.0461C55.1393 27.8152 54.9996 27.6054 54.8232 27.4286L49.6772 22.2864V9.77114C49.6772 9.26716 49.477 8.78381 49.1207 8.42744C48.7643 8.07107 48.2809 7.87086 47.777 7.87086H43.9764C43.4724 7.87086 42.9891 8.07107 42.6327 8.42744C42.2763 8.78381 42.0761 9.26716 42.0761 9.77114V14.6853L32.0198 4.62517C31.8433 4.44821 31.6336 4.3078 31.4027 4.212C31.1718 4.11621 30.9244 4.06689 30.6744 4.06689C30.4244 4.06689 30.1769 4.11621 29.9461 4.212C29.7152 4.3078 29.5055 4.44821 29.329 4.62517L6.52559 27.4286C6.34924 27.6054 6.20946 27.8152 6.11425 28.0461C6.01904 28.2769 5.97026 28.5243 5.97071 28.774V55.378C5.97071 55.8819 6.17091 56.3653 6.52729 56.7217C6.88366 57.078 7.367 57.2782 7.87099 57.2782H23.0733C23.5772 57.2782 24.0606 57.078 24.417 56.7217C24.7733 56.3653 24.9735 55.8819 24.9735 55.378Z" fill="#BF7F02"/>
</svg>
