<svg width="20" height="20" viewBox="0 0 20 20" fill="none" xmlns="http://www.w3.org/2000/svg">
<g clip-path="url(#clip0_26157_77649)">
<path d="M7.34007 10.3303C7.34007 8.11604 7.33659 5.9018 7.34355 3.68757C7.34355 3.21315 7.28303 2.76376 7.00199 2.36585C6.88094 2.19542 6.91781 2.11612 7.12998 2.1182C7.41937 2.1182 7.70945 2.1182 7.99884 2.1182C10.5611 2.1182 13.1229 2.1182 15.6843 2.1182C16.7048 2.1182 17.2446 2.65872 17.246 3.68966C17.2488 6.02006 17.2488 8.35024 17.246 10.6802C17.246 11.1379 17.2349 11.1428 16.7987 10.9779C14.9532 10.2823 12.8676 10.8847 11.6238 12.4777C10.4454 13.9873 10.3863 16.1952 11.4771 17.7799C11.5703 17.919 11.7838 18.0505 11.5578 18.2488C11.3491 18.4289 11.1404 18.431 10.9317 18.2557C10.764 18.1166 10.6047 17.9615 10.4447 17.8077C10.2847 17.654 10.124 17.6436 9.95777 17.7987C9.80519 17.9411 9.65122 18.0818 9.49586 18.2209C9.26491 18.4296 9.03883 18.4171 8.82318 18.198C8.73187 18.1096 8.64503 18.0168 8.56301 17.9197C8.40649 17.7249 8.24371 17.6992 8.01902 17.8279C7.65311 18.0366 7.35815 17.8613 7.34424 17.4251C7.32824 16.9382 7.33868 16.4512 7.33868 15.9643C7.33961 14.0865 7.34007 12.2085 7.34007 10.3303ZM12.9796 6.70179C12.982 6.83446 12.9472 6.96514 12.8793 7.07909C12.8113 7.19304 12.7128 7.28572 12.595 7.34665C12.482 7.40767 12.3535 7.43364 12.2257 7.42125C12.098 7.40886 11.9768 7.35867 11.8777 7.27709C11.7997 7.20824 11.7259 7.13484 11.6565 7.05727C11.6139 7.00897 11.5553 6.97757 11.4915 6.96876C11.4277 6.95995 11.3628 6.97432 11.3087 7.00927C11.1779 7.08857 11.1696 7.21796 11.2092 7.34735C11.2746 7.57622 11.4569 7.70561 11.6475 7.819C11.8151 7.91847 11.9717 8.00404 12.076 8.19743C12.1803 8.39081 12.405 8.36925 12.5003 8.19116C12.6054 7.99569 12.7703 7.92125 12.9365 7.82039C13.1685 7.68457 13.3502 7.47717 13.4543 7.22932C13.5584 6.98147 13.5793 6.70654 13.5139 6.4458C13.4061 5.95328 12.9713 5.56859 12.4426 5.49207C12.3046 5.47857 12.1685 5.45059 12.0364 5.40859C11.894 5.35566 11.7737 5.25613 11.695 5.12617C11.6163 4.99622 11.5839 4.84349 11.603 4.69278C11.6579 4.35817 11.8576 4.146 12.1922 4.09452C12.4823 4.05 12.7014 4.19539 12.8823 4.41313C12.9887 4.54182 13.1257 4.60791 13.276 4.49591C13.4262 4.38391 13.4151 4.21765 13.3268 4.06253C13.24 3.9107 13.1126 3.78613 12.9588 3.70288C12.7786 3.60479 12.604 3.52271 12.4913 3.31749C12.4721 3.27685 12.4417 3.24256 12.4036 3.21869C12.3655 3.19482 12.3214 3.18236 12.2764 3.1828C12.2315 3.18324 12.1876 3.19656 12.15 3.22117C12.1124 3.24578 12.0826 3.28066 12.0642 3.32167C11.9633 3.49975 11.82 3.58323 11.6586 3.67436C11.1717 3.95261 10.9553 4.44791 11.0576 5.03851C11.1452 5.54285 11.5605 5.93172 12.101 6.01728C12.239 6.03308 12.3752 6.06149 12.508 6.10215C12.6361 6.14591 12.7488 6.22581 12.8325 6.33222C12.9162 6.43862 12.9673 6.56698 12.9796 6.70179ZM12.3035 9.3981H8.86144C8.65901 9.3981 8.43223 9.39323 8.43362 9.67636C8.43362 9.93792 8.64231 9.97896 8.851 9.97896C11.1341 9.97896 13.4172 9.97896 15.7003 9.97896C15.9194 9.97896 16.1525 9.94001 16.149 9.66245C16.1455 9.38489 15.9076 9.40019 15.7073 9.40019L12.3035 9.3981ZM9.99951 11.5901C10.3919 11.5901 10.7842 11.5901 11.1758 11.5901C11.3713 11.5901 11.5703 11.5664 11.5682 11.3118C11.5682 11.0955 11.3943 11.0162 11.2099 11.0148C10.4021 11.0074 9.59465 11.0074 8.7877 11.0148C8.60266 11.0148 8.43292 11.0843 8.43153 11.3097C8.43014 11.5351 8.59849 11.588 8.7884 11.588C9.19187 11.5908 9.59604 11.5894 9.99951 11.5901ZM9.54873 12.6662C9.28369 12.6662 9.01796 12.6662 8.75222 12.6662C8.58596 12.6662 8.44892 12.7268 8.43292 12.9125C8.4261 12.9532 8.42839 12.9948 8.43964 13.0345C8.4509 13.0742 8.47082 13.1108 8.49799 13.1419C8.52515 13.1729 8.55886 13.1975 8.5967 13.2139C8.63453 13.2303 8.67554 13.2381 8.71675 13.2367C9.24683 13.2499 9.7783 13.2485 10.3091 13.2367C10.3472 13.2379 10.3852 13.2313 10.4207 13.2173C10.4561 13.2033 10.4883 13.1821 10.5153 13.1551C10.5422 13.1281 10.5633 13.0958 10.5773 13.0603C10.5912 13.0248 10.5977 12.9868 10.5964 12.9487C10.5964 12.7434 10.4572 12.6704 10.2764 12.6662C10.0357 12.6635 9.79012 12.6669 9.54873 12.6662ZM9.18491 14.8519V14.8554H9.63708C9.8096 14.8554 9.93899 14.7803 9.94942 14.5994C9.95276 14.5611 9.94822 14.5225 9.93609 14.486C9.92397 14.4494 9.90451 14.4158 9.87891 14.3871C9.85331 14.3583 9.82211 14.3351 9.78722 14.3189C9.75234 14.3027 9.7145 14.2937 9.67604 14.2926C9.34155 14.2711 9.00602 14.2711 8.67153 14.2926C8.6362 14.2953 8.60178 14.3051 8.57034 14.3214C8.5389 14.3377 8.5111 14.3603 8.4886 14.3876C8.46611 14.415 8.44939 14.4467 8.43947 14.4807C8.42954 14.5147 8.4266 14.5503 8.43084 14.5855C8.4364 14.7546 8.54214 14.8373 8.69866 14.8471C8.85518 14.8568 9.02144 14.8519 9.18352 14.8519H9.18491ZM9.20996 15.942C9.03744 15.942 8.86213 15.9351 8.6917 15.942C8.62696 15.9398 8.56387 15.9627 8.51554 16.0058C8.46722 16.049 8.43738 16.1091 8.43223 16.1737C8.42504 16.2082 8.42508 16.2439 8.43236 16.2784C8.43964 16.3129 8.45399 16.3455 8.47452 16.3742C8.49504 16.4029 8.52129 16.427 8.55161 16.4451C8.58192 16.4631 8.61565 16.4747 8.65066 16.479C9.00358 16.5364 9.36346 16.5364 9.71638 16.479C9.75146 16.4752 9.78541 16.4644 9.81623 16.4472C9.84706 16.43 9.87412 16.4068 9.89584 16.379C9.91756 16.3512 9.93349 16.3193 9.9427 16.2852C9.9519 16.2512 9.95419 16.2156 9.94942 16.1806C9.93203 16.0234 9.81586 15.9434 9.65934 15.9371C9.50282 15.9309 9.35813 15.9413 9.20856 15.942H9.20996Z" fill="#EC0C24"/>
<path d="M15.2408 11.2977C17.1955 11.2184 19.1851 12.8588 19.1983 15.2413C19.2108 17.4027 17.3855 19.2246 15.2269 19.1995C12.8443 19.171 11.2652 17.1996 11.2784 15.194C11.2881 13.1148 13.0968 11.2115 15.2408 11.2977ZM17.1392 16.8545C17.1302 16.7154 17.0376 16.625 16.9479 16.5345C16.5966 16.1819 16.2523 15.818 15.8877 15.4813C15.679 15.29 15.7013 15.1579 15.8926 14.9763C16.2787 14.609 16.6495 14.2257 17.0237 13.8459C17.1399 13.7276 17.1983 13.5864 17.0696 13.4459C16.9409 13.3054 16.7789 13.3242 16.6349 13.4389C16.5639 13.4987 16.4963 13.5623 16.4324 13.6295C16.1048 13.9572 15.7709 14.2793 15.4523 14.616C15.295 14.7822 15.1789 14.7767 15.0237 14.616C14.6711 14.248 14.3058 13.8925 13.9455 13.5315C13.798 13.3833 13.6179 13.2462 13.4342 13.4208C13.2311 13.6142 13.3806 13.8 13.5365 13.9558C13.856 14.2758 14.1758 14.5951 14.4958 14.9137C14.8234 15.2406 14.8227 15.2406 14.5062 15.5586C14.1618 15.9064 13.8175 16.2465 13.4759 16.593C13.3368 16.7321 13.2798 16.8977 13.4272 17.0549C13.5879 17.226 13.7438 17.1286 13.8773 16.9964C14.1737 16.7036 14.4665 16.4058 14.7636 16.113C15.3201 15.5683 15.167 15.6045 15.7034 16.1234C16.0116 16.4212 16.3107 16.7293 16.6168 17.0278C16.7225 17.1314 16.8519 17.1843 16.9966 17.1119C17.0446 17.0897 17.0843 17.0528 17.11 17.0065C17.1356 16.9603 17.1458 16.907 17.1392 16.8545Z" fill="#EC0C24"/>
<path d="M5.76729 0.80072C7.21562 0.80072 8.66394 0.80072 10.1123 0.80072C10.3905 0.80072 10.6319 0.840372 10.6876 1.16872C10.7258 1.39828 10.6688 1.55132 10.3857 1.54436C9.92236 1.53323 9.45837 1.54436 8.99437 1.54436C7.87022 1.54436 6.74629 1.54436 5.62259 1.54436C4.29044 1.54436 3.50158 2.31374 3.49253 3.65425C3.48071 5.36901 3.49253 7.08376 3.49253 8.79852C3.49253 9.93381 3.49253 11.0698 3.49253 12.2072C3.49253 13.0419 2.93602 13.6367 2.16594 13.6465C1.41674 13.6562 0.805962 13.0364 0.804571 12.2253C0.798542 8.60792 0.798542 4.9929 0.804571 1.38019C0.804571 0.935676 0.938133 0.807676 1.39308 0.806981C2.8493 0.800488 4.30736 0.798401 5.76729 0.80072Z" fill="#EC0C24"/>
<path d="M6.75485 8.36353C6.75485 9.98438 6.74859 11.6059 6.76042 13.2268C6.76042 13.5356 6.67972 13.6588 6.35138 13.6504C5.54095 13.6302 4.72983 13.6414 3.91663 13.6455C3.68081 13.6455 3.57785 13.6059 3.74689 13.3596C3.99802 12.9944 4.06967 12.5791 4.06897 12.1381C4.06271 9.31239 4.06897 6.48739 4.0655 3.66169C4.0655 3.03561 4.27419 2.5264 4.87383 2.24814C5.07386 2.15366 5.29448 2.11113 5.51529 2.12447C5.73611 2.1378 5.95 2.20659 6.1372 2.32445C6.3244 2.44232 6.47887 2.60547 6.58634 2.79883C6.69381 2.99219 6.75081 3.20952 6.75207 3.43073C6.76111 5.07453 6.75485 6.71903 6.75485 8.36353Z" fill="#EC0C24"/>
</g>
<defs>
<clipPath id="clip0_26157_77649">
<rect width="20" height="20" fill="white"/>
</clipPath>
</defs>
</svg>
