<svg width="62" height="62" viewBox="0 0 62 62" fill="none" xmlns="http://www.w3.org/2000/svg">
<g clip-path="url(#clip0_7644_42081)">
<g clip-path="url(#clip1_7644_42081)">
<path d="M43.8837 60.8084C42.1638 60.4518 40.5548 59.8573 39.1282 58.7826C37.5038 57.559 36.2779 55.8821 35.6047 53.9631C34.9316 52.0442 34.8414 49.9689 35.3455 47.9987C35.8495 46.0286 36.9253 44.2516 38.4374 42.8917C39.9494 41.5318 41.8301 40.6497 43.8425 40.3566C50.4225 39.3881 56.2464 44.8649 55.6345 51.4528C55.4254 53.7254 54.4726 55.8656 52.9235 57.5416C51.3745 59.2176 49.3158 60.3358 47.0667 60.7228C46.9526 60.7434 46.84 60.7831 46.7259 60.8132L43.8837 60.8084ZM45.3246 42.7645C40.9908 42.7645 37.4907 46.2392 37.5097 50.5445C37.5288 54.8498 40.8624 58.3831 45.3626 58.372C50.1689 58.3593 53.2044 54.3901 53.1553 50.5635C53.0998 46.171 49.725 42.7582 45.3246 42.7645Z" fill="#BD382E"/>
<path d="M33.4647 30.4003V33.2536C33.4647 35.8643 33.4647 38.4735 33.4647 41.0843C33.4472 47.9797 28.5634 53.6736 21.744 54.7563C14.2303 55.9468 7.02258 50.4637 6.10636 42.8676C6.03773 42.299 6.00385 41.7268 6.00491 41.154C6.00491 32.0193 6.00491 22.884 6.00491 13.7482C6.01442 6.6609 11.3089 0.749832 18.3692 0.0666273C25.3122 -0.603896 31.0663 3.80127 32.8766 9.77416C32.9176 9.88591 32.9509 10.0003 32.9764 10.1166C33.0541 10.5921 33.2538 10.5398 33.5661 10.2893C34.7801 9.33176 36.1615 8.60825 37.64 8.15571C45.0903 5.79223 53.1128 10.9044 54.094 18.6368C55.0007 25.7891 49.9884 32.2454 42.8726 33.0428C39.6421 33.4058 36.6778 32.6243 34.0068 30.7601C33.8641 30.6603 33.7183 30.5683 33.4647 30.4003ZM33.4647 20.3424C33.4647 22.3397 33.4647 24.3355 33.4647 26.3328C33.4647 26.6498 33.4916 26.9446 33.7326 27.2062C35.7204 29.3715 38.1853 30.5556 41.1099 30.627C47.6313 30.7855 52.5025 25.2374 51.572 18.7509C50.8999 14.0652 46.78 9.99608 41.1987 10.0801C38.3454 10.1229 35.9058 11.2436 33.9069 13.3107C33.758 13.4517 33.6407 13.6226 33.5625 13.8122C33.4844 14.0018 33.4473 14.2058 33.4536 14.4108C33.4758 16.3875 33.4647 18.3657 33.4647 20.3424ZM25.615 35.5965C25.615 33.5611 25.615 31.5252 25.615 29.4888C25.615 28.6962 25.615 28.6852 24.8335 28.6852C21.3937 28.6852 17.9539 28.6994 14.5156 28.6709C13.8927 28.6709 13.7595 28.8738 13.7643 29.454C13.7896 32.4388 13.7643 35.4237 13.7801 38.4085C13.7801 39.572 13.7278 40.7356 13.861 41.8959C14.2557 45.3214 17.64 47.7245 20.9942 46.9351C23.754 46.2868 25.5611 44.0692 25.6039 41.2285C25.6371 39.3517 25.615 37.4749 25.615 35.5965ZM8.51897 19.0537C8.51897 21.1889 8.53166 23.3241 8.50946 25.4578C8.50946 26.0062 8.70127 26.2091 9.23705 26.1711C9.6698 26.141 10.1057 26.1711 10.5416 26.1711C11.3564 26.1711 11.3739 26.1536 11.3754 25.342C11.3754 21.5868 11.3897 17.83 11.3754 14.0731C11.358 11.5194 12.2013 9.34934 14.0813 7.60566C16.0517 5.76687 18.4151 5.05989 21.0275 5.49422C25.2947 6.20438 28.0989 9.63467 28.0989 13.9463V18.8762C28.0989 21.05 28.0989 23.2243 28.0989 25.3991C28.0989 26.1315 28.1322 26.16 28.8756 26.1647C29.31 26.1647 29.7491 26.133 30.1802 26.1727C30.7842 26.2281 30.9585 25.984 30.9554 25.3912C30.9332 21.4774 30.9443 17.5636 30.9411 13.6483C30.9473 13.0754 30.9076 12.5029 30.8222 11.9363C30.3529 9.01135 28.7463 6.3905 26.3527 4.64512C23.9591 2.89973 20.9726 2.17134 18.0442 2.61874C12.2568 3.49533 8.38741 8.55676 8.51263 13.7751C8.55385 15.5315 8.51897 17.2942 8.51897 19.0537ZM8.51897 35.8311H8.538C8.538 37.868 8.46983 39.9081 8.55385 41.9403C8.67749 44.979 9.98049 47.5121 12.2314 49.5189C14.9008 51.8967 18.0506 52.7368 21.5839 52.247C26.1048 51.6129 30.1945 47.5327 30.8111 43.0023C31.0378 41.3458 30.9221 39.6846 30.9348 38.0265C30.9585 35.1399 30.9348 32.2534 30.9459 29.3652C30.9459 28.9277 30.8872 28.6328 30.3387 28.6756C29.8632 28.7121 29.3876 28.6756 28.9121 28.6756C28.1306 28.6756 28.129 28.6756 28.129 29.4682C28.129 33.3254 28.129 37.1827 28.129 41.0399C28.1321 41.5338 28.0971 42.0272 28.0244 42.5157C27.3602 46.8353 23.4433 49.8788 18.9493 49.5554C14.774 49.2542 11.3517 45.5671 11.3406 41.3332C11.3279 37.9314 11.3406 34.5312 11.3406 31.1295C11.3406 30.4764 11.3279 29.8233 11.3406 29.1718C11.3406 28.8151 11.2027 28.6725 10.8492 28.682C10.3159 28.7097 9.78146 28.7097 9.24815 28.682C8.66322 28.636 8.50312 28.8738 8.50946 29.4318C8.53324 31.559 8.51739 33.6958 8.51739 35.8311H8.51897Z" fill="#BD382E"/>
<path d="M43.4144 47.3647C43.9676 47.3298 44.3005 47.7452 44.6635 48.1066C45.3546 48.7961 45.3531 48.7961 46.0379 48.1066C46.1504 47.9956 46.2598 47.8815 46.3755 47.7737C46.9446 47.2458 47.6896 47.2125 48.1826 47.6913C48.6756 48.17 48.6581 48.9594 48.1081 49.5396C47.8782 49.7853 47.6436 50.0278 47.3947 50.2529C47.1459 50.478 47.1697 50.6286 47.3947 50.8362C47.6723 51.0895 47.9368 51.3567 48.1873 51.6367C48.674 52.1852 48.6629 52.916 48.1873 53.3994C47.7118 53.8829 46.9969 53.8623 46.431 53.3677C46.0648 53.0507 45.7969 52.4357 45.3435 52.442C44.9235 52.442 44.6572 53.0396 44.3037 53.3503C43.7029 53.875 42.9864 53.8988 42.4918 53.3994C41.9973 52.9001 42.0163 52.209 42.5442 51.5987C42.8612 51.2357 43.4953 50.9646 43.4509 50.5144C43.4081 50.1388 42.8659 49.817 42.5394 49.4762C42.1479 49.0656 41.9973 48.6027 42.2493 48.0701C42.3436 47.8441 42.5073 47.654 42.7167 47.5272C42.9261 47.4004 43.1705 47.3435 43.4144 47.3647Z" fill="#BD382E"/>
<path d="M37.6415 25.3595C37.4465 25.3682 37.2523 25.3291 37.0758 25.2457C36.8993 25.1622 36.7459 25.0369 36.6289 24.8807C36.5118 24.7244 36.4348 24.542 36.4043 24.3491C36.3739 24.1563 36.391 23.959 36.4542 23.7743C36.5304 23.5484 36.6604 23.3444 36.833 23.1799C39.307 20.7028 41.7851 18.2283 44.2675 15.7565C44.8223 15.2065 45.5752 15.1986 46.0698 15.6852C46.5897 16.1972 46.5691 16.9422 45.9889 17.5256C43.5288 19.991 41.0665 22.4523 38.6021 24.9093C38.3263 25.1851 38.0187 25.3816 37.6415 25.3595Z" fill="#BD382E"/>
</g>
</g>
<defs>
<clipPath id="clip0_7644_42081">
<rect width="60.8091" height="60.8091" fill="white" transform="translate(0.269531 0.269653)"/>
</clipPath>
<clipPath id="clip1_7644_42081">
<rect width="49.6837" height="60.81" fill="white" transform="translate(6)"/>
</clipPath>
</defs>
</svg>
