<svg width="62" height="62" viewBox="0 0 62 62" fill="none" xmlns="http://www.w3.org/2000/svg">
<g clip-path="url(#clip0_6515_40893)">
<path d="M33.987 59.6048H27.5998C27.4732 59.5667 27.3443 59.5362 27.214 59.5135C20.5257 58.6441 14.779 55.8116 10.1499 50.9471C3.71312 44.1788 1.00069 36.0672 2.32968 26.7802C3.58983 17.9736 8.13244 11.1397 15.6437 6.42894C22.6377 2.04325 30.269 0.899994 38.251 3.06642C46.8591 5.39777 53.0685 10.7266 56.9739 18.7342C58.3509 21.5587 59.0923 24.5721 59.5358 27.6673V34.0545C59.4525 34.5508 59.3757 35.0488 59.2876 35.5452C57.5503 45.1748 52.284 52.2121 43.6439 56.7339C40.6208 58.3126 37.3624 59.1709 33.987 59.6048ZM30.8679 5.46822C16.9118 5.42178 5.43602 16.8528 5.40399 30.82C5.37037 44.7137 16.7389 56.2279 30.4532 56.372C44.6094 56.5193 56.1124 44.973 56.2934 31.27C56.4823 17.173 44.9104 5.41058 30.8679 5.46822Z" fill="#808080"/>
<path d="M30.857 44.6496C25.6147 44.6496 20.3724 44.6496 15.1301 44.6496C13.8779 44.6496 13.8123 44.5808 13.8075 43.3494C13.8075 41.8326 13.8043 40.3157 13.7979 38.7988C13.7979 37.8381 13.9308 37.694 14.9187 37.6908C18.033 37.6812 21.1458 37.6908 24.2601 37.6908H46.4479C47.8362 37.6908 47.9306 37.7917 47.9306 39.2007C47.9306 40.5884 47.9306 41.9724 47.9306 43.3526C47.9306 44.5567 47.8266 44.6544 46.5904 44.6544C41.3449 44.6533 36.1004 44.6517 30.857 44.6496Z" fill="#B8B8B8"/>
<path d="M30.8728 27.4447H46.5934C47.8151 27.4447 47.9224 27.5487 47.9272 28.7592C47.9357 30.2206 47.9357 31.6836 47.9272 33.1481C47.9272 34.2241 47.7671 34.3843 46.6622 34.3875C43.2837 34.3971 39.9052 34.3971 36.5266 34.3875C29.4248 34.3875 22.3229 34.3875 15.221 34.3875C13.8776 34.3875 13.8152 34.325 13.8088 33.0088C13.8035 31.525 13.8008 30.0359 13.8008 28.5415C13.8008 27.5471 13.9033 27.4463 14.9056 27.4447C20.2301 27.4425 25.5525 27.4425 30.8728 27.4447Z" fill="#B8B8B8"/>
<path d="M30.7734 24.0662C25.5343 24.0662 20.2952 24.0662 15.056 24.0662C13.8487 24.0662 13.7991 24.0133 13.7959 22.8044C13.7959 21.2897 13.7959 19.7739 13.7959 18.257C13.7959 17.2963 13.9432 17.1442 14.9904 17.1362C18.2088 17.1234 21.4256 17.1362 24.644 17.1362H46.1001C46.4204 17.1362 46.7406 17.1362 47.0608 17.1586C47.594 17.1842 47.9063 17.4388 47.9063 18.0008C47.9063 19.7622 47.9063 21.5123 47.9063 23.2672C47.9063 24.0278 47.3747 24.0678 46.8015 24.0678C43.1923 24.0614 39.58 24.0582 35.9645 24.0582H30.7734V24.0662Z" fill="#B8B8B8"/>
<path d="M0 50.6791C0.28963 48.892 1.58371 47.8075 2.80386 46.6859C5.67962 44.0525 8.55538 41.4356 11.4311 38.8351C12.7437 37.6396 13.8653 37.7382 14.9375 39.1494C15.4613 39.8396 15.9173 40.579 16.4165 41.2816C17.2905 42.5333 18.3431 43.6502 19.5408 44.5969C20.4836 45.3302 20.5453 45.9588 19.6887 46.7414C16.4658 49.6993 13.286 52.7189 9.95218 55.5535C6.61835 58.3882 1.13388 56.4656 0.123254 52.1396C0.0862803 51.9794 0.0493048 51.8192 0.00616836 51.6651L0 50.6791Z" fill="#808080"/>
<path d="M35.5073 34.5153C35.5229 34.8661 35.4577 35.2159 35.3168 35.5375C35.1758 35.8592 34.9628 36.1442 34.6943 36.3704C34.4257 36.5967 34.1087 36.7583 33.7678 36.8426C33.4269 36.927 33.0712 36.9319 32.7281 36.857C32.1689 36.7662 31.5964 36.8052 31.0547 36.9708C30.513 37.1364 30.0166 37.4242 29.6038 37.8121C27.6996 39.4821 25.8201 41.1706 23.9837 42.9022C22.5356 44.2703 21.5557 44.3689 19.9782 43.1611C19.04 42.3798 18.2346 41.4516 17.5933 40.4126C16.8573 39.159 15.93 38.0279 14.8449 37.0603C14.3581 36.6721 14.3951 36.1914 14.9251 35.6676C15.8987 34.7186 16.9032 33.8189 17.8953 32.8823L21.1059 29.912C21.4753 29.5993 21.7562 29.1951 21.9205 28.7399C22.0849 28.2846 22.127 27.7943 22.0426 27.3177C21.8987 26.8485 21.9256 26.3436 22.1185 25.8924C22.3113 25.4412 22.6578 25.0729 23.0963 24.8527C23.5648 24.5762 24.1063 24.4487 24.649 24.4872C25.1916 24.5257 25.7097 24.7284 26.1344 25.0684C27.4591 26.0303 28.7343 27.0587 29.955 28.1496C31.6496 29.6594 33.2395 31.2862 34.8294 32.9069C35.047 33.1139 35.2196 33.3636 35.3362 33.6404C35.4529 33.9171 35.5111 34.215 35.5073 34.5153Z" fill="#808080"/>
</g>
<defs>
<clipPath id="clip0_6515_40893">
<rect width="60.8091" height="60.8091" fill="white" transform="translate(0.269531 0.269653)"/>
</clipPath>
</defs>
</svg>
