<svg width="61" height="61" viewBox="0 0 61 61" fill="none" xmlns="http://www.w3.org/2000/svg">
<g clip-path="url(#clip0_16990_10903)">
<g clip-path="url(#clip1_16990_10903)">
<path d="M43.2705 21.4587C43.2815 22.0128 43.0781 22.5498 42.7027 22.9575C42.5293 23.1504 42.5098 23.3035 42.6371 23.5409C43.1432 24.482 43.5743 25.4583 43.8437 26.4963C43.8969 26.6994 44.0046 26.7861 44.2202 26.8165C45.6792 27.0212 46.3907 27.8365 46.4071 29.3158C46.4175 30.201 46.4175 31.0861 46.4071 31.9713C46.3922 33.0601 45.487 34.0262 44.3655 34.1191C44.0335 34.1472 43.8922 34.2605 43.8117 34.5784C43.5641 35.5547 43.1564 36.4708 42.6745 37.3518C42.5308 37.6158 42.5324 37.7947 42.7316 38.0407C43.4806 38.9662 43.4712 40.1205 42.6605 40.9906C42.006 41.6935 41.3413 42.3871 40.6298 43.0369C39.6988 43.8859 38.4086 43.9585 37.4674 43.0674C37.3409 42.9471 37.2331 42.944 37.0847 43.0244C36.0935 43.5732 35.0434 44.0082 33.9544 44.3209C33.7638 44.3764 33.6974 44.4865 33.6802 44.6856C33.5592 46.0501 32.7071 46.8452 31.3371 46.8147C30.4413 46.7944 29.5517 46.9053 28.652 46.8343C27.3117 46.728 26.5432 46.0462 26.4018 44.7067C26.38 44.4927 26.3042 44.3764 26.0988 44.3162C25.0216 44.0092 23.9836 43.5781 23.0059 43.0314C22.8497 42.9416 22.7349 42.9627 22.5904 43.083C21.5603 43.9421 20.4684 43.914 19.4569 43.0455C18.715 42.4082 18.0831 41.6631 17.3974 40.9719C16.6078 40.1752 16.6101 38.8975 17.349 38.0133C17.5426 37.779 17.5489 37.6189 17.4075 37.3627C16.9132 36.461 16.5203 35.5073 16.236 34.519C16.1579 34.2558 16.0384 34.1488 15.7533 34.1238C14.6427 34.0254 13.8054 33.2764 13.7094 32.1627C13.6149 31.0692 13.5649 29.9524 13.7203 28.8527C13.8921 27.6304 14.563 26.9782 15.7822 26.822C16.0704 26.7853 16.1727 26.6596 16.2508 26.4034C16.5409 25.3892 16.9509 24.4133 17.4724 23.4964C17.595 23.2863 17.5575 23.1676 17.4044 22.9934C16.5648 22.039 16.6156 20.769 17.5114 19.8693C18.1159 19.2593 18.7095 18.6384 19.3273 18.0417C19.9599 17.4301 20.6933 17.1045 21.6001 17.331C21.958 17.4098 22.2865 17.5876 22.5482 17.8441C22.7107 18.0089 22.8607 18.0315 23.0645 17.9159C24.0144 17.3728 25.0296 16.9529 26.0855 16.6663C26.3105 16.6077 26.3878 16.4835 26.4081 16.2539C26.5315 14.8598 27.5468 14.0311 28.9605 14.1053C29.7525 14.1467 30.5483 14.1178 31.3418 14.1233C32.7 14.1319 33.5732 14.9262 33.6849 16.2742C33.7029 16.496 33.7911 16.6038 33.9919 16.6585C35.0715 16.9572 36.1107 17.3865 37.0863 17.937C37.1389 17.9734 37.2022 17.9913 37.2662 17.9878C37.3301 17.9842 37.391 17.9595 37.4393 17.9175C38.7913 16.9576 39.7496 17.0326 40.9664 18.2135C41.5538 18.7837 42.1138 19.3851 42.6784 19.9755C43.0594 20.3752 43.2715 20.9065 43.2705 21.4587ZM30.0016 22.4318C25.5638 22.4318 21.9484 26.048 21.95 30.4811C21.9515 34.9142 25.606 38.5968 30.0305 38.5702C34.5854 38.5421 38.1149 34.8705 38.104 30.492C38.093 25.9894 34.5237 22.4295 30.0016 22.4318Z" fill="#5353F7"/>
<path d="M30.0406 3.34342e-05H32.0713C32.5051 -0.00192096 32.935 0.0818256 33.3363 0.246469C33.7376 0.411112 34.1024 0.653409 34.4098 0.959442C34.7172 1.26548 34.9612 1.62922 35.1276 2.02979C35.2941 2.43036 35.3797 2.85985 35.3797 3.29362C35.386 4.63282 35.386 5.97254 35.3797 7.31278C35.3688 9.15054 33.984 10.6001 32.1471 10.6485C30.7412 10.685 29.3354 10.685 27.9295 10.6485C26.109 10.6025 24.8054 9.29503 24.7078 7.35105C24.6375 5.89834 24.6125 4.43705 24.7351 2.98434C24.8796 1.26608 26.2925 0.00159549 28.0108 3.34342e-05H30.0406Z" fill="#5353F7"/>
<path d="M30.0289 60.7936C29.4439 60.7936 28.8574 60.7569 28.274 60.7998C27.8218 60.8363 27.3669 60.7793 26.9377 60.6323C26.5085 60.4854 26.1141 60.2517 25.7791 59.9457C25.4442 59.6398 25.1758 59.2681 24.9906 58.8539C24.8055 58.4397 24.7076 57.9919 24.7031 57.5383C24.6719 56.0699 24.6125 54.5985 24.7367 53.1333C24.8812 51.4236 26.3034 50.156 28.017 50.1544C29.3708 50.1544 30.7246 50.1544 32.0783 50.1544C32.9474 50.155 33.7813 50.498 34.3992 51.109C35.0172 51.7201 35.3695 52.5501 35.3797 53.4191C35.3954 54.7968 35.393 56.1761 35.3797 57.5539C35.3664 58.416 35.0153 59.2384 34.4018 59.8443C33.7884 60.4501 32.9616 60.791 32.0994 60.7936H30.0289Z" fill="#5353F7"/>
<path d="M55.1694 25.0671C55.781 25.0671 56.3925 25.0671 57.0041 25.0671C58.9855 25.0742 60.4093 26.4472 60.4523 28.4341C60.4809 29.7603 60.4809 31.0881 60.4523 32.4174C60.4101 34.3434 58.9683 35.7266 57.0353 35.7281C55.7208 35.7281 54.4071 35.7281 53.0927 35.7281C52.6589 35.7312 52.2288 35.6478 51.8276 35.483C51.4263 35.3182 51.0618 35.0753 50.7553 34.7682C50.4489 34.4612 50.2066 34.0963 50.0426 33.6947C49.8785 33.2931 49.796 32.8629 49.7999 32.4291C49.7941 31.0753 49.7941 29.7215 49.7999 28.3677C49.7948 27.5047 50.1305 26.6746 50.7341 26.0578C51.3377 25.4409 52.1603 25.0871 53.0232 25.0734C53.7378 25.0538 54.454 25.0734 55.1694 25.0734V25.0671Z" fill="#5353F7"/>
<path d="M6.4419 37.6549C6.95973 37.6549 7.31275 37.9158 7.52441 38.5047C7.99667 39.8145 8.58069 41.0813 9.27001 42.2911C11.5677 46.3021 14.9767 49.5627 19.086 51.6798C20.0003 52.1478 20.9418 52.5607 21.9055 52.9162C22.129 52.9929 22.3212 53.1405 22.4529 53.3367C22.5847 53.5328 22.6486 53.7667 22.6349 54.0026C22.6379 54.2383 22.567 54.4691 22.4321 54.6624C22.2972 54.8557 22.1051 55.0019 21.8828 55.0804C21.7117 55.1461 21.5233 55.1516 21.3486 55.096C18.7678 54.2645 16.3475 52.9997 14.1913 51.3557C11.8115 49.5525 9.75993 47.353 8.12658 44.8536C6.96956 43.0902 6.02573 41.1957 5.31488 39.2099C5.02746 38.418 5.60152 37.6541 6.4419 37.6549Z" fill="#5353F7"/>
<path d="M54.7703 38.9561C54.7644 39.1522 54.7212 39.3455 54.643 39.5254C53.4332 42.7633 51.607 45.7358 49.2656 48.2784C46.9602 50.8034 44.1575 52.8244 41.0336 54.2142C40.335 54.5312 39.6183 54.8069 38.8873 55.0398C38.2953 55.2249 37.758 55.0164 37.5346 54.4798C37.2847 53.8807 37.4846 53.2301 38.0337 52.9748C38.4804 52.7647 38.9514 52.6077 39.4059 52.4147C41.8901 51.3635 44.1777 49.898 46.1712 48.0808C48.3737 46.0798 50.1138 43.7336 51.4572 41.0883C51.8758 40.2651 52.2023 39.4005 52.5506 38.5453C52.8716 37.7572 53.744 37.5417 54.3829 38.0579C54.6703 38.2883 54.7516 38.6085 54.7703 38.9561Z" fill="#5353F7"/>
<path d="M38.5538 5.69127C38.9498 5.67643 39.2724 5.83576 39.595 5.96385C44.1616 7.77818 47.9582 10.6102 50.9378 14.5317C52.4499 16.5241 53.6706 18.7215 54.5633 21.058C54.6657 21.3243 54.7742 21.5899 54.7703 21.8851C54.7633 22.4412 54.422 22.8661 53.862 23.0066C53.619 23.0614 53.3646 23.0325 53.14 22.9246C52.9155 22.8167 52.734 22.6362 52.6248 22.4123C52.4265 21.989 52.2757 21.5438 52.0922 21.1127C50.8067 18.0718 48.908 15.3287 46.5148 13.0546C44.1216 10.7805 41.2853 9.02413 38.1829 7.89533C37.9214 7.80513 37.7014 7.62341 37.5634 7.38368C37.4255 7.14395 37.3789 6.8624 37.4323 6.59102C37.5401 6.0318 37.9806 5.68815 38.5538 5.69127Z" fill="#5353F7"/>
<path d="M17.4216 4.07075C17.0155 3.68414 16.5828 3.29519 16.1782 2.87969C15.8314 2.52276 15.726 2.09867 15.9439 1.62381C16.1673 1.13879 16.5726 0.893548 17.099 0.920883C17.3885 0.937904 17.6602 1.06604 17.8574 1.27858C18.9165 2.33609 19.9803 3.38737 21.03 4.45581C21.5423 4.97676 21.5368 5.67889 21.0237 6.20062C19.9823 7.25552 18.9345 8.30497 17.8801 9.34894C17.388 9.83864 16.6507 9.85348 16.197 9.40048C15.7283 8.93187 15.7283 8.23831 16.2157 7.71971C16.5461 7.36981 16.896 7.03788 17.231 6.69501C17.281 6.64425 17.3708 6.58489 17.3091 6.50288C17.2795 6.46383 17.1943 6.45914 17.1334 6.45445C17.0295 6.44664 16.9249 6.45445 16.821 6.45445C13.6318 6.45445 10.4431 6.45445 7.25498 6.45445C6.76918 6.45445 6.38959 6.27951 6.18262 5.82261C5.97565 5.36571 6.0436 4.93458 6.36695 4.54719C6.62625 4.23478 6.97849 4.18478 7.35494 4.18556C10.6353 4.19337 13.9156 4.19936 17.1959 4.20352C17.2552 4.19884 17.3271 4.21837 17.4216 4.07075Z" fill="#5353F7"/>
<path d="M1.21841 29.2768C1.51598 29.2674 1.79871 29.3986 2.03927 29.6454C2.47586 30.093 2.93667 30.5171 3.35452 30.9802C3.63178 31.2926 3.80829 31.1809 4.04495 30.942C5.30813 29.6658 6.57756 28.3961 7.85323 27.1329C8.39995 26.5901 9.10288 26.5729 9.58555 27.0634C10.0464 27.532 10.0159 28.2349 9.48792 28.7691C7.86339 30.403 6.23442 32.032 4.60104 33.656C4.02073 34.2332 3.40607 34.2644 2.8117 33.6943C1.95258 32.8656 1.11609 32.0049 0.292892 31.1356C-0.0398252 30.785 -0.082002 30.3437 0.130437 29.9008C0.341315 29.4705 0.694338 29.2713 1.21841 29.2768Z" fill="#5353F7"/>
<path d="M30.0094 36.5123C26.6877 36.5123 23.94 33.8068 23.9767 30.4859C24.0174 26.758 27.0938 24.3985 30.0461 24.4352C33.4194 24.4759 36.0889 27.1392 36.0866 30.539C36.085 33.8552 33.3787 36.5123 30.0094 36.5123Z" fill="#5353F7"/>
</g>
</g>
<defs>
<clipPath id="clip0_16990_10903">
<rect width="60.8091" height="60.8091" fill="white"/>
</clipPath>
<clipPath id="clip1_16990_10903">
<rect width="60.4773" height="60.81" fill="white"/>
</clipPath>
</defs>
</svg>
