<svg width="47" height="47" viewBox="0 0 47 47" fill="none" xmlns="http://www.w3.org/2000/svg">
<g clip-path="url(#clip0_39028_358243)">
<g clip-path="url(#clip1_39028_358243)">
<path d="M20.6054 8.85789C20.6054 6.86813 20.6054 4.87868 20.6054 2.88954C20.6054 2.21117 20.4994 2.1066 19.8424 2.10197C19.6596 2.10197 19.4768 2.1103 19.2941 2.09271C18.8847 2.05385 18.6032 1.75862 18.595 1.37548C18.5885 1.18802 18.6509 1.00477 18.77 0.861181C18.8892 0.717588 19.0567 0.623846 19.2402 0.598081C19.3916 0.57819 19.5445 0.571379 19.6971 0.577721C23.3682 0.577721 27.0384 0.577721 30.7077 0.577721C30.8901 0.566718 31.0731 0.581672 31.2514 0.622145C31.6361 0.736903 31.8226 1.01639 31.7869 1.42638C31.7531 1.82063 31.5256 2.04459 31.1473 2.08716C30.9069 2.114 30.6611 2.09457 30.4162 2.10289C29.9437 2.11955 29.7866 2.26763 29.7765 2.75072C29.7637 3.4911 29.771 4.23147 29.771 4.97185C29.771 7.06989 29.7774 9.167 29.7656 11.265C29.7656 11.6399 29.8487 11.7842 30.2526 11.9129C30.8695 12.1054 31.2076 11.8944 31.5704 11.4501C32.3087 10.5487 33.0727 9.66768 33.8494 8.79866C34.0907 8.52842 33.9563 8.33593 33.833 8.10271C33.5728 7.60723 33.5035 7.03156 33.6386 6.4873C33.7736 5.94303 34.1034 5.46895 34.564 5.15694C35.0227 4.84206 35.5791 4.70786 36.1287 4.77963C36.6782 4.85139 37.1829 5.12416 37.5477 5.54656C38.3765 6.51831 38.2403 8.05458 37.2159 8.83753C36.897 9.08185 36.8577 9.28916 36.9829 9.64732C37.3841 10.7958 37.7606 11.9527 38.1261 13.1123C38.2312 13.4454 38.3774 13.6018 38.753 13.6379C39.7911 13.7379 40.5505 14.4385 40.7442 15.3917C40.8499 15.8691 40.8034 16.3681 40.6115 16.8171C40.4195 17.2661 40.092 17.6418 39.6759 17.8905C38.4405 18.6494 36.7919 17.9765 36.3862 16.5152C36.282 16.1386 36.1066 16.0016 35.7465 15.9359C34.6381 15.7332 33.5342 15.5037 32.433 15.264C32.0784 15.1862 31.828 15.2371 31.6106 15.5638C31.4771 15.7628 31.3061 15.9332 31.1074 16.065C30.9087 16.1968 30.6862 16.2875 30.4527 16.332C30.0817 16.4116 29.9876 16.6031 30.0507 16.9567C30.5259 19.6248 31.3949 22.1393 32.8369 24.4391C33.5241 25.5348 34.3602 26.5214 35.0401 27.619C37.8273 32.1186 37.2772 37.7621 33.6895 41.6352C31.6416 43.8462 29.167 45.2446 26.1733 45.5222C23.0563 45.8165 20.2444 44.8901 17.8457 42.8818C14.7551 40.2905 13.4091 36.8931 13.6521 32.8544C13.7357 31.558 14.0509 30.2877 14.5824 29.1053C14.7094 28.8184 14.7012 28.6342 14.4353 28.4436C14.1847 28.2614 13.9937 28.0074 13.887 27.7143C13.7792 27.4256 13.5937 27.3256 13.293 27.3284C12.0749 27.3404 10.8568 27.3386 9.63772 27.3284C9.37728 27.3284 9.22924 27.4209 9.1077 27.6625C8.63983 28.6028 7.67575 29.1358 6.76467 28.9896C5.68636 28.8166 4.98363 28.0919 4.81457 26.9702C4.60622 25.5885 5.80881 24.3382 7.28189 24.4613C7.67118 24.4946 7.84663 24.3826 8.02391 24.0578C8.63435 22.938 9.26854 21.8302 9.91187 20.7261C10.0608 20.4707 10.0462 20.3078 9.85064 20.0783C9.01175 19.1019 9.07846 17.7933 9.9868 16.9224C10.4076 16.521 10.9653 16.2996 11.5434 16.3046C12.1215 16.3095 12.6753 16.5404 13.0894 16.949C13.5035 17.3576 13.7457 17.9123 13.7656 18.4975C13.7855 19.0826 13.5815 19.6529 13.1961 20.0894C12.9503 20.367 12.9631 20.5697 13.1322 20.8584C13.7837 21.969 14.4225 23.0953 15.0594 24.2188C15.1609 24.3974 15.2687 24.4965 15.4926 24.4622C16.0482 24.3845 16.5892 24.4391 17.0762 24.7547C17.3504 24.9314 17.4235 24.7001 17.5213 24.54C18.4891 22.9857 19.2461 21.3066 19.772 19.548C20.3292 17.6542 20.6103 15.6881 20.6063 13.712C20.6063 12.0924 20.6063 10.4728 20.6063 8.85326L20.6054 8.85789ZM29.5508 21.013C29.5316 20.7057 29.6468 20.2902 29.1725 20.2634C28.7293 20.2384 28.7695 20.628 28.7457 20.9325C28.6543 22.0727 28.1901 23.0314 27.3988 23.8422C26.7947 24.4604 26.092 24.9472 25.3883 25.4395C25.2211 25.5571 25.063 25.5941 24.8857 25.4701C23.2135 24.2966 21.553 23.1184 21.4735 20.7576C21.4653 20.5086 21.3767 20.2356 21.0514 20.2615C20.726 20.2874 20.6977 20.5475 20.6959 20.8122C20.6929 21.8545 21.028 22.869 21.6499 23.6996C22.2786 24.5724 23.1029 25.2304 23.9738 25.8282C24.2689 26.0318 24.2972 26.179 23.9829 26.4011C23.3254 26.8488 22.7132 27.3612 22.1552 27.9309C20.3358 29.8457 20.1704 32.6693 21.7669 34.7794C22.3499 35.5475 23.0956 36.1315 23.8687 36.6803C24.3512 37.0208 24.353 37.0764 23.8623 37.4142C22.9612 38.0333 22.1324 38.7293 21.5183 39.6538C20.9671 40.4583 20.6795 41.4178 20.6959 42.3969C20.7004 42.6301 20.7416 42.8374 21.0249 42.8596C21.3081 42.8818 21.4297 42.6995 21.4717 42.445C21.4862 42.3531 21.4948 42.2604 21.4973 42.1674C21.5232 41.4536 21.7517 40.7625 22.1552 40.1767C22.8571 39.1105 23.8751 38.4026 24.8967 37.6937C25.0996 37.5521 25.2686 37.6363 25.4368 37.7621C25.9275 38.1277 26.4338 38.4738 26.9053 38.8625C27.9937 39.7575 28.6735 40.8874 28.7512 42.3377C28.7667 42.6283 28.8335 42.8754 29.1862 42.8531C29.5143 42.8319 29.5517 42.5811 29.5517 42.3164C29.5477 41.2746 29.2072 40.2628 28.5822 39.4354C27.9635 38.5932 27.1548 37.9667 26.3223 37.3651C25.9211 37.0754 25.9248 37.0051 26.3223 36.7006C26.7582 36.3647 27.2023 36.038 27.6226 35.6826C30.09 33.5975 30.2453 30.1039 27.9745 27.8161C27.4532 27.2965 26.8855 26.8271 26.2784 26.414C25.9878 26.2151 25.9494 26.0642 26.2629 25.8375C26.7326 25.4969 27.1904 25.1369 27.6281 24.7547C28.7549 23.7727 29.4786 22.5641 29.5508 21.013ZM36.2272 14.9197C36.4255 14.9382 36.5397 14.8272 36.6375 14.6745C36.7545 14.4949 36.8696 14.3043 37.0524 14.1886C37.2552 14.0563 37.2781 13.8961 37.2031 13.675C36.7462 12.3515 36.3131 11.0235 35.8589 9.70007C35.8183 9.58194 35.7474 9.47687 35.6535 9.39564C35.5596 9.3144 35.4461 9.25992 35.3245 9.23779C35.2029 9.21566 35.0778 9.22666 34.9618 9.26968C34.8458 9.31269 34.7432 9.38617 34.6646 9.48258C33.9554 10.3063 33.2874 11.1706 32.5253 11.9397C31.977 12.4904 31.6663 12.9938 32.0556 13.7657C32.1598 13.973 32.2201 14.1358 32.4723 14.1766C32.8771 14.2413 33.2765 14.3357 33.6785 14.4163L36.2272 14.9197ZM11.5037 26.2252C11.8693 26.2252 12.2348 26.1938 12.6003 26.2326C13.2875 26.3058 13.823 26.216 14.0944 25.4303C14.195 25.1387 14.2525 24.9527 14.0944 24.6843C13.4273 23.5451 12.7758 22.3966 12.1197 21.2508C11.7971 20.6891 11.1611 20.6872 10.8348 21.2582C10.2865 22.218 9.78393 23.2073 9.18995 24.1392C8.81345 24.7334 8.63343 25.2313 9.12324 25.8569C9.306 26.0855 9.42846 26.2354 9.72362 26.2271C10.3158 26.2151 10.9098 26.2252 11.5037 26.2252ZM16.0729 35.7094C15.7795 35.703 15.6159 35.9695 15.7183 36.3573C16.0878 37.7606 16.718 39.0798 17.5752 40.2442C17.7305 40.459 17.9407 40.5496 18.1673 40.4016C18.394 40.2535 18.3675 40.0129 18.2423 39.825C17.4554 38.6515 16.8494 37.3636 16.4448 36.0056C16.4217 35.9227 16.3733 35.8492 16.3065 35.7959C16.2397 35.7425 16.1579 35.7119 16.0729 35.7085V35.7094ZM16.0847 33.9825C16.0847 33.4421 15.9129 33.1274 15.6123 33.1875C15.1143 33.2875 15.2815 33.6808 15.3043 34.002C15.3043 34.0177 15.3043 34.0325 15.3043 34.0482C15.3189 34.2981 15.4268 34.4638 15.6964 34.4508C15.9906 34.436 16.0847 34.2435 16.0866 33.9816L16.0847 33.9825Z" fill="#E39F1E"/>
<path d="M21.5002 31.5931C21.4235 29.8606 22.425 28.7241 23.6157 27.7015C23.7537 27.5821 23.9036 27.4747 24.0535 27.3692C25.3483 26.4641 24.9042 26.4928 26.2028 27.3859C26.7065 27.7326 27.1668 28.14 27.5735 28.5992C29.1955 30.426 29.1361 32.9711 27.4291 34.7249C26.8178 35.3542 26.1022 35.8521 25.3931 36.3592C25.2103 36.4916 25.0376 36.5027 24.8503 36.3685C23.9529 35.7308 23.0546 35.0941 22.3711 34.2047C21.7826 33.4366 21.4573 32.5778 21.5002 31.5931ZM25.1098 32.0179C25.8409 32.0179 26.5719 32.0179 27.303 32.0179C27.5918 32.0179 27.886 31.991 27.9016 31.6125C27.9189 31.1933 27.5927 31.1655 27.2975 31.1646C25.8354 31.1572 24.3733 31.159 22.9112 31.1646C22.6224 31.1646 22.3144 31.2173 22.3044 31.5764C22.2943 31.9633 22.5996 32.0234 22.9167 32.0225C23.6477 32.016 24.3788 32.0188 25.1098 32.0179ZM25.0797 30.005V29.9994C25.521 29.9994 25.9624 30.0068 26.4029 29.9994C26.6524 29.9929 26.8041 29.855 26.7949 29.5894C26.7978 29.5386 26.7899 29.4877 26.7718 29.4402C26.7536 29.3928 26.7257 29.3498 26.6897 29.3142C26.6538 29.2786 26.6107 29.2512 26.5635 29.2338C26.5162 29.2165 26.4658 29.2096 26.4157 29.2137C25.5628 29.2069 24.7099 29.2069 23.857 29.2137C23.5828 29.2137 23.4375 29.3784 23.4476 29.6579C23.4576 29.9374 23.655 30.0077 23.8899 30.0087C24.2892 30.0068 24.684 30.005 25.0797 30.005ZM25.1391 33.1654C24.7288 33.1654 24.3166 33.1599 23.9091 33.1654C23.6505 33.1701 23.4522 33.2802 23.4567 33.5717C23.4567 33.8401 23.655 33.9512 23.8853 33.9549C24.7053 33.9666 25.5256 33.9666 26.3462 33.9549C26.5939 33.9549 26.8031 33.8466 26.7931 33.5458C26.783 33.245 26.5756 33.1645 26.3243 33.1608C25.9295 33.1608 25.5338 33.1664 25.1391 33.1664V33.1654Z" fill="#E39F1E"/>
</g>
</g>
<defs>
<clipPath id="clip0_39028_358243">
<rect width="46.375" height="46.375" fill="white"/>
</clipPath>
<clipPath id="clip1_39028_358243">
<rect width="36" height="45" fill="white" transform="translate(4.79102 0.578125)"/>
</clipPath>
</defs>
</svg>
