<svg width="47" height="47" viewBox="0 0 47 47" fill="none" xmlns="http://www.w3.org/2000/svg">
<g clip-path="url(#clip0_39141_315501)">
<path d="M2.79178 21.3537V1.71492C2.79178 0.948241 2.79178 0.946427 3.5385 0.946427C11.1599 0.946427 18.7814 0.944007 26.4028 0.939168C26.6104 0.928879 26.8177 0.966299 27.0086 1.04856C27.1996 1.13081 27.3691 1.25572 27.5043 1.41369C30.0284 4.12414 32.5689 6.82037 35.1257 9.50239C35.2486 9.62178 35.3451 9.76554 35.4092 9.92444C35.4733 10.0833 35.5034 10.2539 35.4977 10.4251C35.4759 13.343 35.4732 16.261 35.4596 19.1798C35.4596 19.6334 35.4133 20.0871 35.4169 20.5408C35.4169 20.8538 35.2736 20.9599 34.986 20.9944C33.3325 21.1763 31.7816 21.8857 30.5628 23.0177C28.5667 24.8541 27.6875 27.1587 28.0223 29.8371C28.4515 33.3085 30.4213 35.5876 33.7212 36.7181C34.0333 36.8252 34.163 36.9903 34.1413 37.3088C34.1258 37.5656 34.1258 37.8232 34.1413 38.08C34.1548 38.2145 34.1386 38.3504 34.094 38.478C34.0493 38.6056 33.9772 38.7219 33.8827 38.8186C33.6147 39.1118 33.4727 39.4986 33.4871 39.8956C33.4871 40.4091 33.4807 40.9235 33.4871 41.438C33.4916 41.732 33.3909 41.8916 33.0679 41.8835C30.4984 41.8544 27.928 41.8735 25.3557 41.8254C22.906 41.7782 20.4563 41.8018 18.0065 41.7891C13.153 41.7631 8.30008 41.7344 3.44777 41.7029C2.79904 41.7029 2.78906 41.692 2.78906 41.0415C2.79027 34.4786 2.79118 27.916 2.79178 21.3537ZM23.7834 13.9636C23.7834 16.1702 23.7834 18.3765 23.7834 20.5825C23.7834 21.2022 23.9186 21.331 24.5265 21.3328C25.5082 21.3365 26.4902 21.3365 27.4725 21.3328C28.0369 21.3328 28.1838 21.1986 28.1848 20.6451C28.189 16.1878 28.189 11.7301 28.1848 7.27221C28.1848 6.77591 28.0604 6.66159 27.5587 6.65887C26.5607 6.65252 25.5626 6.65887 24.5646 6.65887C23.8587 6.65887 23.7816 6.73418 23.7807 7.43734C23.7794 9.61066 23.7804 11.7861 23.7834 13.9636ZM16.9613 15.5968C16.9613 17.2889 16.9613 18.982 16.9613 20.6778C16.9613 21.2131 17.0765 21.3319 17.591 21.3356C18.6335 21.3428 19.6778 21.3356 20.7194 21.3401C21.1367 21.3401 21.3218 21.1641 21.3209 20.7404C21.3146 17.3398 21.3209 13.9401 21.3155 10.5394C21.3155 10.0368 21.2057 9.93608 20.6885 9.93336C19.6905 9.92701 18.6924 9.92882 17.6944 9.93336C17.0357 9.93336 16.9586 10.0096 16.9577 10.6592C16.9577 12.3002 16.9589 13.9443 16.9613 15.5914V15.5968ZM14.507 17.5929C14.507 16.5812 14.5115 15.5705 14.507 14.5588C14.507 14.0208 14.409 13.9301 13.8655 13.9237C12.8372 13.9189 11.8108 13.9189 10.7861 13.9237C10.2544 13.9237 10.1555 14.0235 10.151 14.5661C10.1468 16.6039 10.1468 18.6415 10.151 20.6787C10.151 21.2094 10.2617 21.3138 10.7934 21.3201C11.8041 21.3262 12.8152 21.3262 13.8265 21.3201C14.4063 21.3201 14.5025 21.2176 14.5043 20.6224C14.5097 19.6189 14.507 18.6073 14.507 17.5929ZM15.7001 32.0192C17.3006 32.0192 18.9011 32.0192 20.5016 32.0146C20.8292 32.0146 21.2883 32.1226 21.291 31.5955C21.2937 31.0683 20.8373 31.1708 20.5071 31.1699C17.3206 31.1633 14.1341 31.1633 10.9476 31.1699C10.7822 31.1651 10.6167 31.1782 10.454 31.2089C10.3709 31.2253 10.2964 31.2709 10.244 31.3375C10.1916 31.4041 10.1647 31.4872 10.1682 31.5719C10.1601 31.7787 10.2499 31.9348 10.4495 31.9838C10.5968 32.0147 10.7473 32.0275 10.8977 32.0219C12.4982 32.0261 14.1002 32.0273 15.7038 32.0255L15.7001 32.0192ZM15.7564 35.1567H10.9522C10.8007 35.1529 10.6493 35.1584 10.4985 35.173C10.2889 35.1993 10.1818 35.3363 10.1664 35.5423C10.151 35.7482 10.2354 35.9052 10.4386 35.9524C10.6152 35.9902 10.7952 36.009 10.9757 36.0086C14.1489 36.0086 17.3215 36.0086 20.4935 36.0086C20.6885 36.0086 20.8863 36.0195 21.0732 35.937C21.1516 35.9065 21.217 35.8498 21.2582 35.7765C21.2994 35.7032 21.3139 35.6178 21.2992 35.535C21.2846 35.349 21.1921 35.2129 21.007 35.1784C20.8568 35.1572 20.705 35.1493 20.5533 35.1548L15.7564 35.1567ZM15.7763 27.9744C17.3796 27.9744 18.9828 27.9798 20.5851 27.9698C20.8773 27.9698 21.3046 28.086 21.2928 27.5833C21.2819 27.1179 20.88 27.1977 20.5724 27.1787H20.527C17.3357 27.1787 14.145 27.1787 10.9549 27.1787C10.7892 27.1729 10.6234 27.1851 10.4604 27.215C10.3697 27.2324 10.2891 27.2838 10.235 27.3587C10.1809 27.4335 10.1573 27.5262 10.1691 27.6178C10.1782 27.8383 10.3061 27.9453 10.5148 27.9617C10.6654 27.9735 10.817 27.9735 10.9685 27.9735L15.7763 27.9744Z" fill="#21409A"/>
<path d="M36.0735 36.0636C35.1312 36.0549 34.1998 35.8603 33.3329 35.4909C32.4659 35.1215 31.6804 34.5845 31.0215 33.9108C30.3625 33.2371 29.8431 32.4399 29.4929 31.565C29.1428 30.6901 28.9688 29.7546 28.9811 28.8123C29.0319 25.1087 32.0723 21.9231 35.9229 21.9258C36.8638 21.9224 37.796 22.1045 38.6664 22.4618C39.5368 22.8191 40.3281 23.3445 40.9952 24.008C41.6622 24.6715 42.1919 25.4601 42.5538 26.3285C42.9157 27.197 43.1028 28.1283 43.1043 29.0691C43.1028 29.9903 42.9196 30.9021 42.5653 31.7523C42.2109 32.6026 41.6924 33.3747 41.0394 34.0243C40.3864 34.674 39.6116 35.1885 38.7595 35.5384C37.9074 35.8884 36.9947 36.0668 36.0735 36.0636ZM35.4557 31.9362C35.7578 31.9444 35.9093 31.7312 36.059 31.5198C37.0921 30.0844 38.1262 28.6496 39.1611 27.2155C39.5295 26.7046 39.5776 26.3916 39.3099 26.1766C39.025 25.9467 38.6984 26.0904 38.33 26.6076C37.4499 27.8361 36.5653 29.0573 35.6916 30.2949C35.4992 30.5671 35.3613 30.6197 35.1036 30.3457C34.5973 29.8013 34.0484 29.3068 33.5222 28.786C33.2817 28.5483 33.0104 28.404 32.731 28.6699C32.4361 28.9502 32.5631 29.2542 32.8099 29.5046C33.5421 30.2468 34.2816 30.9826 35.0201 31.7194C35.0749 31.7824 35.1416 31.8339 35.2163 31.8711C35.291 31.9084 35.3724 31.9305 35.4557 31.9362Z" fill="#21409A"/>
<path d="M37.6524 43.8946C37.6524 44.3637 37.6588 44.8319 37.6524 45.3001C37.6461 45.6975 37.4428 45.9234 37.0354 45.9279C36.4166 45.9334 35.797 45.9343 35.1773 45.9279C34.7726 45.9279 34.5576 45.6984 34.5548 45.3028C34.5415 43.4882 34.5337 41.6735 34.5312 39.8589C34.5312 39.5214 34.7127 39.3708 35.0475 39.3735C35.6826 39.3735 36.3178 39.3681 36.9529 39.3735C37.4383 39.379 37.5807 39.5123 37.588 39.9932C37.5952 41.2925 37.588 42.5917 37.588 43.8901L37.6524 43.8946Z" fill="#21409A"/>
<path d="M36.0133 38.3369H35.9226C35.2321 38.3369 34.9327 37.8833 35.1967 37.2372C35.2021 37.2236 35.204 37.2037 35.2139 37.1964C35.6676 36.8934 36.1712 37.083 36.6502 37.0721C36.9369 37.0658 36.9133 37.3443 36.9224 37.5575C36.9487 38.3206 36.9288 38.3369 36.0133 38.3369Z" fill="#21409A"/>
<path d="M24.5835 13.9631C24.5835 12.0124 24.5835 10.0623 24.5835 8.11274C24.5835 7.48579 24.618 7.45494 25.2576 7.45312C25.7712 7.45312 26.2856 7.45312 26.8001 7.45312C27.3372 7.45766 27.3889 7.50756 27.3898 8.06012C27.3898 10.1016 27.3898 12.1427 27.3898 14.1836C27.3898 16.0889 27.3817 17.9943 27.3962 19.8996C27.3962 20.3197 27.2782 20.5075 26.8273 20.4821C26.2688 20.4508 25.709 20.4508 25.1506 20.4821C24.7078 20.5066 24.5726 20.3333 24.5762 19.906C24.5953 17.9244 24.5835 15.9438 24.5835 13.9631Z" fill="#21409A"/>
<path d="M20.5207 15.6346C20.5207 17.0536 20.5052 18.4726 20.5297 19.8908C20.5379 20.3535 20.3782 20.5087 19.9264 20.4787C19.4301 20.446 18.9283 20.4715 18.432 20.4705C17.7751 20.4705 17.7688 20.4651 17.7688 19.8227C17.7688 17.197 17.7615 14.5703 17.7688 11.9436C17.7733 10.5427 17.5755 10.7405 18.9955 10.7242C19.313 10.7197 19.6306 10.7423 19.9463 10.7187C20.3728 10.687 20.5334 10.8467 20.527 11.2876C20.5125 12.7357 20.5207 14.1856 20.5207 15.6346Z" fill="#21409A"/>
<path d="M10.9556 17.5857C10.9556 16.8009 10.9638 16.0161 10.9556 15.2312C10.9502 14.9019 11.0817 14.773 11.4093 14.7776C12.0281 14.793 12.6468 14.7912 13.2656 14.7776C13.5741 14.7712 13.7039 14.8946 13.703 15.2022C13.6987 16.8172 13.6987 18.4319 13.703 20.0463C13.703 20.353 13.5759 20.4791 13.2675 20.4728C12.6641 20.4601 12.0589 20.4537 11.4528 20.4728C11.0826 20.4855 10.9375 20.3539 10.9456 19.9783C10.9674 19.1853 10.9556 18.386 10.9556 17.5857Z" fill="#21409A"/>
</g>
<defs>
<clipPath id="clip0_39141_315501">
<rect width="40.3101" height="45" fill="white" transform="translate(2.79102 0.933594)"/>
</clipPath>
</defs>
</svg>
