<svg width="47" height="47" viewBox="0 0 47 47" fill="none" xmlns="http://www.w3.org/2000/svg">
<g clip-path="url(#clip0_39118_314914)">
<g clip-path="url(#clip1_39118_314914)">
<path d="M42.4308 29.1115C42.4308 31.4349 42.4308 33.7583 42.4308 36.0818C42.4308 37.5909 41.8285 38.7821 40.513 39.5669C39.9138 39.9184 39.23 40.0995 38.5353 40.0904C35.8669 40.0904 33.1969 40.0976 30.5301 40.0848C30.3457 40.0791 30.1624 40.1135 29.9926 40.1856C29.8228 40.2577 29.6708 40.3658 29.5468 40.5023C27.9692 42.0959 26.3844 43.6831 24.7924 45.2639C24.704 45.3524 24.6227 45.5181 24.4737 45.4432C24.3382 45.3747 24.398 45.2042 24.398 45.0775C24.394 43.6839 24.398 42.2887 24.394 40.8959C24.394 40.2729 24.2155 40.0936 23.5837 40.0928C21.5662 40.0928 19.548 40.0928 17.5281 40.0928C15.2692 40.0928 13.5832 38.4323 13.5769 36.1822C13.5665 32.1329 13.5769 28.0836 13.5769 24.0344C13.5769 23.5292 13.6 23.5093 14.0836 23.5037C15.6103 23.487 15.6023 23.4958 16.713 24.6192C18.3342 26.2606 19.9628 27.8948 21.5989 29.5218C21.7909 29.7139 22.0037 29.8836 22.3033 29.7609C22.6028 29.6382 22.6427 29.3712 22.6435 29.098C22.6475 27.4247 22.6435 25.7515 22.6475 24.0782C22.6475 23.5085 22.6475 23.5069 23.2283 23.5069C24.9677 23.5069 26.7071 23.5069 28.4457 23.5069C30.9412 23.5021 32.9077 21.8743 33.3626 19.4226C33.4083 19.1197 33.4252 18.8132 33.4128 18.5071C33.4128 18.225 33.5116 18.092 33.8064 18.0936C35.5187 18.1023 37.2326 18.0354 38.9425 18.127C40.7663 18.2242 42.4484 19.7302 42.4364 22.1046C42.4213 24.4384 42.4308 26.7753 42.4308 29.1115ZM36.047 21.8536C34.2032 21.8536 32.7985 23.1109 32.4615 24.9985C32.3714 25.4997 32.5483 25.9084 32.9124 25.9419C33.2766 25.9754 33.4463 25.7403 33.4925 25.1674C33.5722 24.1834 34.3108 23.2846 35.2821 22.9914C36.3004 22.683 37.3928 22.9994 38.0198 23.7826C38.7895 24.7443 38.7736 25.9889 37.9832 27.055C37.5346 27.6613 36.8932 28.0589 36.3609 28.5753C35.8032 29.1155 35.451 29.7433 35.4191 30.5306C35.4056 30.8493 35.4868 31.1202 35.8669 31.1608C36.247 31.2015 36.3888 30.9513 36.4175 30.6294C36.4757 29.9728 36.8239 29.4979 37.3171 29.098C37.7282 28.7633 38.1497 28.4366 38.5027 28.0382C39.5186 26.8925 39.9576 25.5873 39.3903 24.1085C38.8349 22.6663 37.5625 21.8536 36.047 21.8536ZM22.4307 37.1518H26.3294C26.8728 37.1518 27.4162 37.1497 27.9596 37.1455C28.2696 37.1455 28.4329 36.9558 28.4417 36.673C28.4512 36.371 28.2823 36.1766 27.9636 36.1399C27.8841 36.1334 27.8043 36.1313 27.7246 36.1336H17.1473C17.0408 36.1256 16.9338 36.1307 16.8285 36.1487C16.556 36.218 16.38 36.3877 16.3999 36.6857C16.4182 36.9598 16.5815 37.1192 16.8604 37.1423C16.9919 37.1526 17.125 37.1518 17.2588 37.1518H22.4307ZM22.3511 33.9559H27.4879C28.1349 33.9559 28.3078 33.8556 28.3198 33.4779C28.3317 33.0851 28.1134 32.9424 27.4871 32.9424C24.0626 32.9424 20.638 32.9424 17.2134 32.9424C17.0802 32.933 16.9463 32.9408 16.815 32.9655C16.5624 33.0317 16.3847 33.1926 16.4015 33.4739C16.4182 33.7552 16.5815 33.9097 16.854 33.944C16.9865 33.9564 17.1195 33.9604 17.2524 33.9559H22.3511ZM35.4183 33.2771C35.4183 33.7305 35.5697 33.9424 35.902 33.9472C36.2342 33.952 36.4231 33.7177 36.4279 33.2994C36.4326 32.8811 36.2398 32.6261 35.9267 32.6237C35.5912 32.6181 35.4151 32.8492 35.4128 33.2731L35.4183 33.2771Z" fill="#E75C20"/>
<path d="M17.9823 0.478141C21.4619 0.478141 24.9414 0.521168 28.4202 0.461409C28.9443 0.453282 29.4648 0.550275 29.9508 0.746656C30.4368 0.943038 30.8786 1.23483 31.25 1.60479C31.6213 1.97475 31.9148 2.41538 32.113 2.90066C32.3113 3.38594 32.4102 3.90602 32.4041 4.43019C32.3826 9.13122 32.4041 13.8323 32.3961 18.5333C32.3961 20.4631 31.1077 22.0575 29.2966 22.3841C28.9943 22.427 28.6888 22.4435 28.3835 22.4335C26.4585 22.4373 24.5332 22.4373 22.6076 22.4335C21.7312 22.4335 21.579 22.5841 21.5782 23.4423C21.5782 24.7833 21.5782 26.125 21.5782 27.466C21.5782 27.5903 21.6411 27.7624 21.4985 27.827C21.3559 27.8915 21.2698 27.7282 21.1798 27.6405C19.5998 26.0653 18.0158 24.4948 16.4517 22.9036C16.3051 22.7441 16.1253 22.6187 15.925 22.5361C15.7247 22.4535 15.5088 22.4158 15.2924 22.4256C12.6765 22.4431 10.0599 22.3889 7.44482 22.4479C5.5182 22.4917 3.92702 21.0248 3.64735 19.4488C3.58287 19.0828 3.55008 18.712 3.54934 18.3405C3.54297 13.7462 3.54934 9.15114 3.54297 4.55608C3.54297 3.16729 4.00351 2.00637 5.15407 1.18011C5.77835 0.718771 6.53471 0.470935 7.31096 0.473361C10.8662 0.481329 14.4233 0.482922 17.9823 0.478141ZM17.9496 19.4623H25.4792C25.6251 19.4623 25.7717 19.4663 25.9167 19.4544C26.2099 19.4297 26.3947 19.2791 26.3868 18.9723C26.3788 18.6655 26.1932 18.5181 25.9007 18.507C25.6219 18.4958 25.343 18.4863 25.0641 18.503C24.6801 18.5277 24.555 18.3596 24.5598 17.9851C24.5757 16.7636 24.5653 15.5414 24.5653 14.3199C24.5653 13.6963 24.5653 13.0721 24.5653 12.4474C24.5653 12.1781 24.6745 12.1016 24.9048 12.2658C25.0992 12.4044 25.2808 12.5614 25.4824 12.6881C25.9884 13.0068 26.3812 12.798 26.3932 12.21C26.4027 11.7319 26.3987 11.2539 26.3932 10.7758C26.3812 9.27863 26.5645 9.71766 25.3693 8.81331C23.0953 7.09066 20.7894 5.40944 18.4994 3.70671C18.0604 3.38003 17.8835 3.37047 17.4373 3.70193C16.6819 4.26552 15.9263 4.82858 15.1704 5.39111C13.392 6.71218 11.6125 8.03246 9.83199 9.35193C9.65032 9.48659 9.5324 9.6563 9.5316 9.88578C9.5316 10.6961 9.51327 11.5064 9.53797 12.316C9.55232 12.7805 9.95947 12.9797 10.3634 12.7415C10.5746 12.6041 10.7783 12.4557 10.9738 12.2968C11.2128 12.1176 11.3586 12.1375 11.3586 12.4769C11.3586 14.3494 11.3586 16.2218 11.3586 18.0943C11.3586 18.3803 11.2335 18.5054 10.9499 18.5014C10.6184 18.5014 10.2854 18.4958 9.95469 18.5173C9.68618 18.5341 9.55152 18.7221 9.54594 18.9731C9.54037 19.2241 9.67423 19.4074 9.93796 19.4464C10.0967 19.4639 10.2565 19.4697 10.416 19.4639L17.9496 19.4623Z" fill="#E75C20"/>
<path d="M12.3847 14.8069C12.3847 13.771 12.3926 12.7352 12.3791 11.6994C12.3691 11.5684 12.3941 11.4371 12.4513 11.3188C12.5085 11.2006 12.5961 11.0996 12.705 11.0261C14.3915 9.78153 16.0732 8.53005 17.7502 7.27166C17.9303 7.13701 18.0522 7.17844 18.2076 7.29397C19.4293 8.20549 20.6548 9.11436 21.8839 10.0206C22.3214 10.3441 22.754 10.6739 23.1994 10.9863C23.3114 11.0563 23.4025 11.155 23.4635 11.2721C23.5244 11.3892 23.5529 11.5205 23.546 11.6524C23.5381 13.7503 23.546 15.8475 23.5404 17.947C23.5404 18.4513 23.4887 18.5007 22.997 18.5047C21.1257 18.5047 19.2537 18.5047 17.3813 18.5047C16.8849 18.5047 16.8459 18.4625 16.8451 17.947C16.8451 16.5128 16.8451 15.0786 16.8451 13.6443C16.8451 13.0332 16.6753 12.8651 16.0634 12.8611C15.4395 12.8571 14.8157 12.8563 14.1918 12.8611C13.5679 12.8659 13.4364 13.0061 13.4348 13.6101C13.4348 15.057 13.4348 16.504 13.4348 17.951C13.4348 18.4418 12.9687 18.7015 12.5392 18.4553C12.3504 18.347 12.3902 18.1581 12.3894 17.9924C12.3823 16.9311 12.3847 15.869 12.3847 14.8069Z" fill="#E75C20"/>
<path d="M10.5578 10.5913C10.4782 10.2336 10.6901 9.99771 11.0112 9.76186C13.2348 8.12739 15.4496 6.4807 17.6556 4.82179C17.8899 4.6465 18.0604 4.65766 18.293 4.82896C20.5559 6.52027 22.823 8.20733 25.0944 9.89014C25.347 10.0774 25.5039 10.7801 25.3493 11.0542C25.229 11.2686 25.0928 11.1148 24.9892 11.0407C24.4824 10.6774 23.9821 10.3053 23.4817 9.93237C21.7893 8.67345 20.0946 7.41772 18.4102 6.14764C18.0914 5.90861 17.8373 5.91897 17.5209 6.15641C15.4169 7.73298 13.3083 9.30105 11.1953 10.8606C11.0997 10.9323 11.0032 11.0032 10.9084 11.075C10.6511 11.2678 10.557 11.1634 10.5578 10.8845V10.5913Z" fill="#E75C20"/>
<path d="M14.4493 16.1638C14.4493 15.5407 14.4565 14.9176 14.4493 14.2953C14.4446 14.0053 14.5721 13.9017 14.8517 13.8866C15.8318 13.8324 15.8318 13.826 15.831 14.7886C15.831 15.8618 15.8222 16.9359 15.8366 18.0084C15.8413 18.3661 15.7138 18.504 15.3521 18.508C14.4509 18.5175 14.4517 18.5295 14.4509 17.6315V16.1638H14.4493Z" fill="#E75C20"/>
</g>
</g>
<defs>
<clipPath id="clip0_39118_314914">
<rect width="46.375" height="46.375" fill="white"/>
</clipPath>
<clipPath id="clip1_39118_314914">
<rect width="38.8942" height="45" fill="white" transform="translate(3.53906 0.464844)"/>
</clipPath>
</defs>
</svg>
