<svg width="62" height="62" viewBox="0 0 62 62" fill="none" xmlns="http://www.w3.org/2000/svg">
<g clip-path="url(#clip0_14088_28206)">
<path d="M55.0401 23.8569C53.4557 19.1589 50.5351 15.0252 46.6362 11.9625C30.1508 -1.06892 6.45943 8.25925 3.18789 29.0561C3.01154 30.1567 3.07234 31.2878 2.96288 32.4006C2.87167 33.3614 2.5433 34.2796 1.37576 34.2249C0.208217 34.1701 0.0318694 33.258 0.00754567 32.2547C-0.278259 20.9867 7.5844 9.53625 18.5727 5.17621C22.2315 3.69545 26.1481 2.9564 30.095 3.00199C34.0419 3.04758 37.9404 3.8769 41.564 5.44178C45.1877 7.00667 48.4644 9.27593 51.2037 12.1178C53.943 14.9596 56.0904 18.3174 57.5211 21.9961C58.0927 23.4312 58.5913 23.7778 59.7406 22.6042C59.9717 22.367 60.2758 21.9475 60.671 22.2819C60.9508 22.513 60.7318 22.89 60.671 23.1819C59.9859 25.967 59.2967 28.7541 58.6035 31.5432C58.5184 31.902 58.4515 32.4006 58.0866 32.4796C57.5758 32.5891 57.4299 32.0357 57.2231 31.683C55.8671 29.3966 54.511 27.1102 53.1793 24.8055C52.9361 24.3798 52.3584 23.8812 52.7719 23.413C53.1854 22.9447 53.6415 23.5467 54.0914 23.644C54.286 23.717 54.4928 23.7535 55.0401 23.8569Z" fill="#EC0C24"/>
<path d="M29.8287 33.0695C26.4295 33.0695 23.0302 33.033 19.631 33.0695C18.3236 33.0695 17.9101 32.5891 17.8614 31.2878C17.8006 29.6034 18.1168 28.3142 19.7404 27.469C20.6941 26.8897 21.6082 26.2477 22.4769 25.5474C24.2039 24.3312 25.718 22.6225 28.2477 23.9724C28.7209 24.1668 29.2318 24.252 29.7425 24.2214C30.2531 24.1909 30.7503 24.0455 31.1969 23.7961C32.3766 23.188 33.2645 23.4799 34.2374 24.1549C36.3049 25.5474 38.4454 26.8426 40.5312 28.2108C41.5406 28.8676 42.0575 31.5189 41.419 32.5283C41.0359 33.1364 40.4096 33.0391 39.8379 33.0452C36.5178 33.0756 33.1732 33.0695 29.8287 33.0695Z" fill="#EC0C24"/>
<path d="M23.3281 16.207C23.3528 15.6713 23.4076 15.1373 23.4923 14.6077C24.1795 11.3301 27.1409 8.95852 29.932 9.39635C33.1428 9.89499 35.6724 13.5071 35.2529 17.034C35.1705 17.72 35.0135 18.3949 34.7846 19.0468C33.7873 21.8744 31.2455 23.7474 28.8435 23.4677C26.1375 23.1514 23.8024 20.7191 23.4133 17.7759C23.3281 17.3381 23.3281 16.8273 23.3281 16.207Z" fill="#EC0C24"/>
<path d="M44.9093 17.8976C45.0271 19.7488 44.4673 21.5795 43.3343 23.0482C42.827 23.7526 42.1568 24.3239 41.3809 24.7132C40.6049 25.1026 39.7463 25.2984 38.8783 25.2841C38.0103 25.2698 37.1587 25.0457 36.3961 24.6309C35.6334 24.2161 34.9825 23.6231 34.4987 22.9022C34.2428 22.635 34.0892 22.2863 34.0647 21.9171C34.0403 21.548 34.1465 21.182 34.3649 20.8834C35.0059 19.9003 35.4255 18.7897 35.5945 17.6283C35.7636 16.467 35.6781 15.2828 35.3439 14.1578C35.046 13.045 35.4656 12.4612 36.329 11.9504C39.8195 9.87685 44.3133 12.5585 44.8424 17.0402C44.8844 17.3241 44.9067 17.6106 44.9093 17.8976Z" fill="#EC0C24"/>
<path d="M19.5517 11.2571C20.3504 11.2338 21.1423 11.4093 21.8564 11.7679C23.0057 12.2908 23.5408 12.9476 23.1151 14.3766C22.7803 15.4487 22.6923 16.5827 22.8576 17.6936C23.0229 18.8046 23.4373 19.8638 24.0698 20.792C24.6779 21.7345 24.5259 22.4034 23.8753 23.2244C23.4355 23.793 22.8863 24.2678 22.2601 24.6207C21.6338 24.9736 20.9432 25.1975 20.2291 25.2791C19.5149 25.3607 18.7916 25.2985 18.1018 25.0959C17.4121 24.8934 16.77 24.5548 16.2133 24.1C12.5647 21.1507 12.8262 14.7718 16.7058 12.1692C17.5306 11.5649 18.5293 11.2448 19.5517 11.2571Z" fill="#EC0C24"/>
<path d="M12.7229 33.0634C11.7135 33.0634 10.7041 33.0634 9.68248 33.0634C9.07438 33.0634 8.46629 33.1121 8.24737 32.3581C8.02846 31.604 8.02847 30.9108 8.66088 30.4486C10.9716 28.746 13.3128 27.0859 15.66 25.4379C16.4262 24.9028 17.1073 25.5048 17.7519 25.7724C18.5424 26.0947 19.9045 25.5778 20.0566 26.3075C20.2268 27.1528 18.8951 27.4811 18.2323 27.998C17.2776 28.7095 17.46 29.6764 17.4478 30.6128C17.4478 33.0452 17.4478 33.0452 14.9668 33.0756H12.7351L12.7229 33.0634Z" fill="#EC0C24"/>
<path d="M46.5938 33.0694C46.4338 33.0786 46.2734 33.0786 46.1134 33.0694C44.8973 32.9965 43.5108 33.489 42.5135 32.814C41.3703 32.0418 42.0574 30.5519 41.948 29.3783C41.8325 28.0952 40.7318 27.8946 39.9717 27.2925C39.6251 27.0067 38.9501 26.9034 39.0656 26.3318C39.1812 25.7602 39.8257 26.1007 40.1541 25.9C42.1912 24.6352 43.7175 25.7662 45.3168 26.873C46.9161 27.9797 48.6066 29.0256 50.291 30.0472C50.672 30.2434 50.9748 30.5635 51.1494 30.9548C51.3241 31.3461 51.3602 31.7853 51.2518 32.1999C51.0512 33.264 50.1633 33.0269 49.464 33.0573C48.5093 33.0998 47.5485 33.0694 46.5938 33.0694Z" fill="#EC0C24"/>
<path d="M8.19867 35.3073H12.5222C13.3979 35.2992 14.2453 35.6173 14.8994 36.1995C15.5536 36.7817 15.9678 37.5865 16.0613 38.4572C16.1742 39.3852 15.9191 40.3204 15.3508 41.0626C14.7825 41.8049 13.9461 42.295 13.0209 42.4281C12.6003 42.4646 12.178 42.4768 11.756 42.4645C9.15946 42.4645 6.55682 42.501 3.95417 42.501C3.31566 42.5226 2.68395 42.3641 2.13124 42.0437C1.57853 41.7232 1.12711 41.2538 0.828571 40.6889C0.593215 40.2805 0.440646 39.8297 0.379589 39.3623C0.318532 38.8949 0.350183 38.42 0.472729 37.9649C0.595275 37.5097 0.806321 37.0831 1.0938 36.7096C1.38127 36.336 1.73954 36.0227 2.14813 35.7877C2.66794 35.4886 3.25718 35.3313 3.85688 35.3316C5.31022 35.3316 6.75749 35.3194 8.19867 35.3073ZM8.19867 41.4612C9.69458 41.4612 11.1905 41.4612 12.6864 41.4308C13.0471 41.4118 13.3996 41.316 13.7203 41.1497C14.041 40.9835 14.3224 40.7506 14.5458 40.4668C14.7692 40.1829 14.9294 39.8546 15.0156 39.5039C15.1019 39.1531 15.1121 38.788 15.0458 38.4329C14.9566 37.818 14.6448 37.2572 14.1695 36.8571C13.6943 36.4569 13.0886 36.2451 12.4675 36.262L3.86904 36.3106C3.6949 36.3095 3.52128 36.3299 3.35216 36.3714C2.71274 36.5068 2.14906 36.8811 1.77615 37.4178C1.40323 37.9546 1.2492 38.6134 1.34545 39.2599C1.42544 39.8784 1.72844 40.4464 2.19758 40.8573C2.66672 41.2682 3.26971 41.4938 3.89336 41.4916C5.34671 41.4673 6.78789 41.4673 8.22908 41.4612H8.19867Z" fill="#EC0C24"/>
<path d="M1.97184 38.9193C1.96515 38.384 2.16818 37.8673 2.53751 37.4798C2.90684 37.0923 3.41316 36.8647 3.94815 36.8457C4.48229 36.8358 4.99896 37.0361 5.38682 37.4035C5.77468 37.7709 6.0027 38.2759 6.02174 38.8098C6.03563 39.0843 5.99436 39.3587 5.90035 39.6169C5.80634 39.8751 5.6615 40.1118 5.47441 40.3131C5.28733 40.5144 5.06178 40.6761 4.81111 40.7887C4.56044 40.9012 4.28976 40.9624 4.01504 40.9686C3.47308 40.9654 2.95432 40.7482 2.57167 40.3644C2.18901 39.9806 1.97343 39.4612 1.97184 38.9193Z" fill="#EC0C24"/>
<path d="M11.0688 40.2024C11.0012 40.2031 10.9342 40.1894 10.8723 40.1621C10.8104 40.1349 10.7551 40.0947 10.71 40.0443C10.406 39.7463 10.1019 39.4362 9.80397 39.1443C9.71262 39.0521 9.66138 38.9275 9.66138 38.7977C9.66138 38.6679 9.71262 38.5433 9.80397 38.4511C9.84676 38.4031 9.89922 38.3646 9.95791 38.3383C10.0166 38.312 10.0802 38.2984 10.1445 38.2984C10.2088 38.2984 10.2724 38.312 10.3311 38.3383C10.3898 38.3646 10.4423 38.4031 10.485 38.4511C10.6492 38.5909 10.8012 38.749 10.9533 38.9071C11.1053 39.0653 11.1114 38.9984 11.2026 38.9071L12.1634 37.7883C12.2221 37.7143 12.3012 37.6593 12.391 37.6301C12.4808 37.6009 12.5771 37.5988 12.6681 37.6241C12.7578 37.6466 12.8391 37.6948 12.9017 37.7629C12.9644 37.831 13.0058 37.9159 13.0208 38.0072C13.0367 38.0827 13.0339 38.1609 13.0127 38.2351C12.9915 38.3092 12.9525 38.3771 12.8992 38.4328C12.4309 38.974 11.9627 39.5213 11.4884 40.0625C11.4348 40.1177 11.3687 40.1593 11.2957 40.1836C11.2226 40.208 11.1448 40.2144 11.0688 40.2024Z" fill="#EC0C24"/>
<path d="M7.97367 50.1387C6.55681 50.1387 5.13387 50.1387 3.71701 50.1387C2.87863 50.1103 2.07912 49.7783 1.46725 49.2044C0.855376 48.6306 0.472812 47.854 0.390734 47.0192C0.318257 46.5268 0.351195 46.0245 0.487363 45.5458C0.623532 45.0671 0.859825 44.6227 1.18061 44.2421C1.50139 43.8616 1.89935 43.5535 2.34814 43.3382C2.79693 43.123 3.28631 43.0055 3.7839 42.9936L12.1513 42.9449C12.9843 42.9559 13.7858 43.2649 14.4105 43.816C15.0352 44.3671 15.4418 45.1238 15.5566 45.9489C15.716 46.8749 15.5032 47.8264 14.9645 48.5963C14.4258 49.3661 13.6049 49.8921 12.6803 50.0596C12.5356 50.0839 12.3892 50.0961 12.2425 50.0961L7.97367 50.1387ZM7.97367 49.1597H12.0297C12.1984 49.1566 12.3669 49.1444 12.5344 49.1232C12.8709 49.0612 13.1918 48.9331 13.4785 48.7463C13.7653 48.5596 14.0122 48.3179 14.205 48.0352C14.3978 47.7525 14.5326 47.4344 14.6018 47.0993C14.671 46.7642 14.6731 46.4186 14.608 46.0827C14.5129 45.4908 14.2106 44.9518 13.7551 44.562C13.2996 44.1722 12.7204 43.9569 12.1209 43.9544C11.3182 43.9544 10.5094 43.9544 9.6885 43.9544C7.69395 43.9544 5.6994 43.9544 3.71093 43.9909C3.3016 44.0073 2.90218 44.1217 2.54624 44.3246C2.1903 44.5274 1.88823 44.8126 1.66541 45.1564C1.44258 45.5002 1.30551 45.8924 1.2657 46.3001C1.2259 46.7079 1.28453 47.1192 1.43666 47.4996C1.60132 47.9854 1.91253 48.4083 2.32744 48.7099C2.74235 49.0116 3.24056 49.1772 3.75349 49.184L7.97367 49.1597Z" fill="#EC0C24"/>
<path d="M9.99857 46.5265C9.99031 45.994 10.1915 45.4796 10.5589 45.094C10.9263 44.7084 11.4304 44.4826 11.9627 44.4651C12.4955 44.4826 13.0003 44.7082 13.3686 45.0936C13.737 45.479 13.9396 45.9934 13.9329 46.5265C13.9444 47.0627 13.744 47.5818 13.3751 47.9712C13.0063 48.3605 12.4988 48.5887 11.9627 48.6062C11.4267 48.5903 10.9188 48.3624 10.5506 47.9725C10.1824 47.5826 9.98384 47.0626 9.99857 46.5265Z" fill="#EC0C24"/>
<path d="M3.05424 47.5604C3.05337 47.4924 3.06641 47.425 3.09255 47.3623C3.11869 47.2995 3.15739 47.2428 3.20626 47.1955C3.34612 47.0253 3.4799 46.8611 3.63193 46.703C3.78395 46.5449 3.71706 46.5266 3.63193 46.4293C3.54679 46.3321 3.3522 46.1192 3.21842 45.9611C3.12112 45.8622 3.0666 45.729 3.0666 45.5902C3.0666 45.4514 3.12112 45.3182 3.21842 45.2192C3.26745 45.172 3.32619 45.136 3.39056 45.1138C3.45492 45.0916 3.52336 45.0837 3.59109 45.0906C3.65882 45.0976 3.72423 45.1192 3.78274 45.154C3.84126 45.1888 3.89148 45.236 3.9299 45.2922L4.29475 45.7179C4.36164 45.803 4.41029 45.8334 4.49542 45.7179C4.58055 45.6023 4.73866 45.426 4.86636 45.2801C4.90109 45.2245 4.94754 45.1772 5.00245 45.1415C5.05736 45.1057 5.11942 45.0824 5.18428 45.0731C5.24914 45.0639 5.31525 45.0689 5.37797 45.0878C5.4407 45.1067 5.49852 45.1391 5.54742 45.1828C5.60009 45.2274 5.64304 45.2824 5.67361 45.3443C5.70418 45.4062 5.72172 45.4738 5.72514 45.5427C5.72856 45.6117 5.71779 45.6807 5.6935 45.7453C5.6692 45.8099 5.63191 45.8689 5.58391 45.9185C5.43797 46.101 5.27987 46.2773 5.12784 46.4476C5.05487 46.5266 5.04879 46.5814 5.12784 46.6604C5.29203 46.8368 5.45013 47.0131 5.60216 47.2016C5.6961 47.2962 5.74883 47.4241 5.74883 47.5574C5.74883 47.6907 5.6961 47.8185 5.60216 47.9131C5.55556 47.9589 5.49964 47.9942 5.43821 48.0166C5.37677 48.0389 5.31125 48.0478 5.24608 48.0426C5.18092 48.0374 5.11763 48.0183 5.06051 47.9865C5.00338 47.9547 4.95376 47.911 4.91501 47.8584C4.78731 47.7185 4.65961 47.5726 4.53799 47.4205C4.41637 47.2685 4.39813 47.3172 4.31908 47.4205C4.24002 47.5239 4.05151 47.7489 3.90557 47.9009C3.84309 47.973 3.75879 48.0227 3.6655 48.0424C3.5722 48.0622 3.47501 48.0509 3.38869 48.0104C3.2938 47.9783 3.21095 47.918 3.15119 47.8376C3.09144 47.7572 3.05762 47.6605 3.05424 47.5604Z" fill="#EC0C24"/>
<path d="M57.8737 36.1951H18.5118C18.1592 36.1951 17.8733 36.4809 17.8733 36.8336V38.0862C17.8733 38.4389 18.1592 38.7247 18.5118 38.7247H57.8737C58.2264 38.7247 58.5122 38.4389 58.5122 38.0862V36.8336C58.5122 36.4809 58.2264 36.1951 57.8737 36.1951Z" fill="#EC0C24"/>
<path d="M40.543 39.0471H18.5118C18.1592 39.0471 17.8733 39.333 17.8733 39.6856V40.9383C17.8733 41.2909 18.1592 41.5768 18.5118 41.5768H40.543C40.8957 41.5768 41.1815 41.2909 41.1815 40.9383V39.6856C41.1815 39.333 40.8957 39.0471 40.543 39.0471Z" fill="#EC0C24"/>
<path d="M57.9165 43.8693H18.5545C18.2019 43.8693 17.916 44.1551 17.916 44.5078V45.7604C17.916 46.1131 18.2019 46.3989 18.5545 46.3989H57.9165C58.2691 46.3989 58.555 46.1131 58.555 45.7604V44.5078C58.555 44.1551 58.2691 43.8693 57.9165 43.8693Z" fill="#EC0C24"/>
<path d="M40.5858 46.7273H18.5545C18.2019 46.7273 17.916 47.0132 17.916 47.3658V48.6185C17.916 48.9711 18.2019 49.257 18.5545 49.257H40.5858C40.9384 49.257 41.2243 48.9711 41.2243 48.6185V47.3658C41.2243 47.0132 40.9384 46.7273 40.5858 46.7273Z" fill="#EC0C24"/>
<path d="M8.19851 50.6616H12.5221C13.3996 50.6539 14.2486 50.9736 14.903 51.5584C15.5575 52.1431 15.9704 52.9508 16.0612 53.8237C16.1739 54.751 15.9187 55.6855 15.3503 56.4268C14.7818 57.168 13.9455 57.6569 13.0207 57.7885C12.6001 57.825 12.1778 57.8372 11.7559 57.825C9.16133 57.825 6.56071 57.8392 3.95402 57.8676C3.32183 57.8841 2.69741 57.7253 2.14999 57.4087C1.60257 57.092 1.15355 56.6299 0.852731 56.0737C0.617376 55.6653 0.464815 55.2145 0.403759 54.7471C0.342702 54.2796 0.374353 53.8048 0.496899 53.3496C0.619445 52.8944 0.830482 52.4679 1.11796 52.0943C1.40543 51.7207 1.76371 51.4075 2.1723 51.1724C2.69211 50.8734 3.28135 50.7161 3.88105 50.7164C5.31007 50.686 6.75733 50.6738 8.19851 50.6616ZM8.19851 56.8155C9.69442 56.8155 11.1903 56.8155 12.6862 56.8155C13.047 56.7966 13.3995 56.7007 13.7201 56.5345C14.0408 56.3682 14.3223 56.1354 14.5457 55.8515C14.7691 55.5677 14.9292 55.2394 15.0155 54.8886C15.1017 54.5379 15.112 54.1727 15.0457 53.8176C14.9565 53.2028 14.6447 52.642 14.1694 52.2418C13.6941 51.8416 13.0884 51.6299 12.4673 51.6467L3.85064 51.6954C3.67667 51.6971 3.50338 51.7175 3.33376 51.7562C2.69433 51.8916 2.13066 52.2658 1.75775 52.8026C1.38483 53.3394 1.2308 53.9982 1.32705 54.6447C1.41039 55.2662 1.71894 55.8355 2.1942 56.2446C2.66946 56.6538 3.27835 56.8742 3.90537 56.8642C5.34655 56.8216 6.78773 56.8216 8.22892 56.8155H8.19851Z" fill="#EC0C24"/>
<path d="M1.97177 54.2738C1.96663 53.7389 2.17018 53.2232 2.53919 52.836C2.9082 52.4488 3.41361 52.2207 3.94808 52.2002C4.48325 52.1903 5.00079 52.3915 5.38882 52.7601C5.77686 53.1288 6.00419 53.6354 6.02167 54.1704C6.03473 54.4443 5.99282 54.7181 5.89843 54.9756C5.80404 55.2331 5.65908 55.4691 5.47207 55.6697C5.28507 55.8703 5.05982 56.0315 4.80957 56.1437C4.55932 56.2559 4.28915 56.3169 4.01497 56.3231C3.47302 56.3198 2.95426 56.1027 2.5716 55.7189C2.18895 55.3351 1.97337 54.8157 1.97177 54.2738Z" fill="#EC0C24"/>
<path d="M11.0688 55.5568C11.001 55.5588 10.9336 55.5456 10.8716 55.5182C10.8095 55.4909 10.7543 55.45 10.71 55.3987C10.406 55.1007 10.1019 54.7906 9.80397 54.4987C9.71262 54.4065 9.66138 54.2819 9.66138 54.1521C9.66138 54.0223 9.71262 53.8977 9.80397 53.8055C9.84727 53.7583 9.89989 53.7206 9.95851 53.6948C10.0171 53.6691 10.0805 53.6558 10.1445 53.6558C10.2085 53.6558 10.2719 53.6691 10.3305 53.6948C10.3891 53.7206 10.4418 53.7583 10.485 53.8055C10.6492 53.9453 10.8012 54.1034 10.9533 54.2615C11.1053 54.4196 11.1114 54.3527 11.2026 54.2615C11.5188 53.8845 11.8411 53.5136 12.1634 53.1426C12.2208 53.067 12.2996 53.0103 12.3896 52.98C12.4796 52.9496 12.5766 52.947 12.6681 52.9724C12.7578 52.9949 12.8391 53.0431 12.9017 53.1112C12.9644 53.1793 13.0058 53.2642 13.0208 53.3555C13.0367 53.431 13.0339 53.5092 13.0127 53.5834C12.9915 53.6575 12.9525 53.7254 12.8992 53.7811C12.4309 54.3284 11.9627 54.8696 11.4884 55.4108C11.4354 55.4671 11.3695 55.5098 11.2965 55.5352C11.2234 55.5606 11.1453 55.568 11.0688 55.5568Z" fill="#EC0C24"/>
<path d="M57.9165 51.5494H18.5545C18.2019 51.5494 17.916 51.8353 17.916 52.1879V53.4406C17.916 53.7932 18.2019 54.0791 18.5545 54.0791H57.9165C58.2691 54.0791 58.555 53.7932 58.555 53.4406V52.1879C58.555 51.8353 58.2691 51.5494 57.9165 51.5494Z" fill="#EC0C24"/>
<path d="M40.5858 54.4015H18.5545C18.2019 54.4015 17.916 54.6874 17.916 55.04V56.2927C17.916 56.6453 18.2019 56.9312 18.5545 56.9312H40.5858C40.9384 56.9312 41.2243 56.6453 41.2243 56.2927V55.04C41.2243 54.6874 40.9384 54.4015 40.5858 54.4015Z" fill="#EC0C24"/>
</g>
<defs>
<clipPath id="clip0_14088_28206">
<rect width="60.8091" height="60.8091" fill="white" transform="translate(0.269775 0.269653)"/>
</clipPath>
</defs>
</svg>
