<svg width="62" height="62" viewBox="0 0 62 62" fill="none" xmlns="http://www.w3.org/2000/svg">
<path d="M22.611 6.10124C21.856 6.10124 21.2224 6.12628 20.5907 6.10124C19.3254 6.03962 18.4972 5.21725 18.5011 4.06555C18.5011 2.86955 19.3755 2.01059 20.6755 2.00867C27.4547 1.99711 34.2339 1.99711 41.0132 2.00867C42.3228 2.00867 43.2029 2.84452 43.2241 4.03088C43.2453 5.21725 42.3883 6.0531 41.0748 6.10124C40.472 6.12436 39.8692 6.10124 39.1874 6.10124C39.1585 6.4325 39.1161 6.70406 39.1161 6.97754C39.1161 11.9349 39.1026 16.8922 39.1315 21.8495C39.1438 22.3166 39.2866 22.7709 39.5437 23.161C44.7976 30.9186 50.0656 38.6628 55.3478 46.3934C56.4571 48.0208 57.3064 49.7483 57.6242 51.7205C58.0768 54.5285 56.8789 57.0534 54.3771 58.3976C52.8728 59.1948 51.1935 59.6045 49.4911 59.5898C37.0843 59.6078 24.6775 59.602 12.2707 59.5725C11.0901 59.5495 9.91906 59.3549 8.79446 58.9947C5.02351 57.8391 3.23048 54.6286 4.31092 50.8307C4.73456 49.3585 5.38428 47.9609 6.23684 46.6881C11.4888 38.8573 16.8294 31.0881 22.1122 23.2785C22.4147 22.8073 22.5801 22.2611 22.5898 21.7012C22.6264 16.8402 22.611 11.9791 22.611 7.1162V6.10124ZM16.4596 38.9825H45.2656C44.994 38.5607 44.8014 38.2429 44.5915 37.9367C41.7681 33.7863 38.964 29.6225 36.1001 25.4991C35.3268 24.3972 34.9284 23.0758 34.9638 21.7301C34.9927 16.8671 34.9638 12.0023 34.9908 7.13931C34.9908 6.36895 34.8117 6.07043 33.9855 6.09354C31.9068 6.14747 29.8281 6.14747 27.7494 6.09354C26.927 6.07236 26.7363 6.36124 26.7402 7.13546C26.771 11.9349 26.7267 16.7342 26.7729 21.5336C26.811 23.0425 26.353 24.5222 25.4691 25.7456C22.6495 29.79 19.9051 33.8711 17.1356 37.9425C16.9257 38.241 16.7331 38.5588 16.4596 38.9825Z" fill="#69A54B"/>
</svg>
