<svg width="62" height="62" viewBox="0 0 62 62" fill="none" xmlns="http://www.w3.org/2000/svg">
<path d="M10.7497 53.4582C11.0058 51.9812 11.2902 50.2814 11.5848 48.5816C12.1946 45.0556 12.8094 41.5295 13.4294 38.0035C13.479 37.8119 13.4734 37.6103 13.4133 37.4217C13.3533 37.2331 13.2412 37.0654 13.0899 36.9378C9.45589 33.4292 5.84746 29.8925 2.20956 26.3904C1.131 25.3516 0.719818 24.1449 1.19633 22.741C1.65747 21.3832 2.71938 20.7107 4.12971 20.5109C9.12541 19.8025 14.1275 19.0685 19.1296 18.364C19.5856 18.2999 19.8316 18.1078 20.0263 17.703C22.285 13.0916 24.5557 8.48574 26.8384 3.88542C27.7056 2.1382 29.5988 1.52463 31.3332 2.38671C32.0595 2.74666 32.4951 3.36023 32.8409 4.06347C35.0634 8.57498 37.3012 13.0801 39.5057 17.6005C39.7504 18.1027 40.0514 18.3115 40.5996 18.3883C45.539 19.0775 50.4732 19.7999 55.41 20.5096C57.8771 20.8644 59.24 22.9985 58.3023 25.121C58.0694 25.5981 57.7497 26.0278 57.3596 26.3879C53.7815 29.8891 50.1905 33.3806 46.5868 36.8622C46.2102 37.2247 46.0744 37.5513 46.1718 38.0842C47.0556 43.0543 47.9207 48.0287 48.767 53.0073C48.9988 54.3625 48.7016 55.5589 47.536 56.4146C46.3408 57.2908 45.1022 57.2703 43.811 56.5927C39.343 54.2344 34.8635 51.9005 30.4007 49.5359C29.9498 49.2977 29.6155 49.3143 29.1736 49.5474C24.7107 51.9095 20.2398 54.2579 15.7607 56.5927C14.2556 57.3817 13.0259 57.2485 11.7988 56.1994C11.0251 55.5384 10.7663 54.6661 10.7497 53.4582ZM53.9292 24.4869L53.8075 24.2743C53.6497 24.2255 53.4893 24.1853 53.3271 24.1539C48.7157 23.4775 44.1043 22.791 39.4814 22.1415C37.9839 21.9302 36.9617 21.2141 36.2931 19.8281C34.2948 15.6842 32.2286 11.5711 30.1881 7.4439C30.0805 7.22486 29.9613 7.01222 29.7961 6.70095C29.6296 7.01478 29.5168 7.21333 29.4118 7.417C27.3469 11.6031 25.2641 15.7778 23.2235 19.9716C22.6048 21.2436 21.63 21.9186 20.2645 22.1121C16.1536 22.7047 12.0438 23.3025 7.93541 23.9054C7.20911 24.0117 6.48537 24.136 5.75779 24.2512L5.65019 24.46C5.86207 24.599 6.06487 24.7513 6.25736 24.9161C9.51226 28.0787 12.739 31.2696 16.0246 34.3951C17.2274 35.5402 17.6079 36.8058 17.3056 38.4237C16.4845 42.907 15.7402 47.4057 14.9678 51.8993C14.9307 52.1119 14.9179 52.3297 14.8833 52.6435C15.2112 52.4847 15.42 52.3873 15.6237 52.2823C19.6215 50.1815 23.6373 48.1128 27.6044 45.9557C29.1031 45.1422 30.443 45.1294 31.9442 45.9441C35.9152 48.0974 39.9284 50.1713 43.925 52.2695C44.144 52.3847 44.3695 52.4885 44.7115 52.6537C44.6641 52.3053 44.641 52.0812 44.6026 51.8595C43.8251 47.3468 43.0655 42.8301 42.2546 38.3225C41.9792 36.7853 42.3392 35.5569 43.4894 34.4591C46.802 31.2965 50.062 28.0774 53.3528 24.8866C53.5339 24.7382 53.7267 24.6045 53.9292 24.4869V24.4869Z" fill="#FFCB66"/>
<path d="M53.9289 24.487C53.7279 24.6073 53.5368 24.7435 53.3576 24.8943C50.0707 28.0852 46.8107 31.2991 43.4943 34.4669C42.3414 35.5646 41.984 36.7918 42.2595 38.3302C43.0703 42.8379 43.8299 47.3545 44.6074 51.8673C44.6459 52.0889 44.6689 52.313 44.7163 52.6615C44.3743 52.4924 44.1489 52.3886 43.9298 52.2772C39.9332 50.1751 35.9175 48.1051 31.9491 45.9519C30.4478 45.1372 29.1079 45.15 27.6092 45.9634C23.6383 48.1205 19.6263 50.1905 15.6285 52.29C15.4248 52.3976 15.216 52.4924 14.8881 52.6512C14.9227 52.3374 14.9355 52.1196 14.9727 51.907C15.7412 47.4134 16.4893 42.916 17.3104 38.4314C17.6063 36.8136 17.2259 35.548 16.0294 34.4028C12.7438 31.2734 9.51709 28.0826 6.2622 24.9238C6.06971 24.759 5.86691 24.6067 5.65503 24.4678L5.76263 24.259C6.48765 24.1437 7.21138 24.0194 7.94024 23.9131C12.0495 23.3153 16.1592 22.7176 20.2694 22.1198C21.6298 21.9187 22.6046 21.2436 23.2233 19.9716C25.2638 15.7778 27.3466 11.6032 29.4154 7.41832C29.5166 7.21465 29.6293 7.0161 29.7997 6.70227C29.9649 7.01354 30.084 7.22618 30.1916 7.44522C32.2283 11.5712 34.2945 15.6843 36.2928 19.8282C36.9614 21.2141 37.9836 21.9302 39.4811 22.1416C44.0989 22.791 48.7129 23.4776 53.3269 24.1539C53.4891 24.1853 53.6494 24.2255 53.8072 24.2743L53.9289 24.487Z" fill="#FFCB66"/>
</svg>
