<svg width="61" height="61" viewBox="0 0 61 61" fill="none" xmlns="http://www.w3.org/2000/svg">
<g clip-path="url(#clip0_18636_15224)">
<path d="M29.9267 59.9973H4.81929C1.71682 59.9973 -0.00134277 58.2696 -0.00134277 55.1508V7.59599C-0.00134277 4.45688 1.72497 2.73463 4.87222 2.73056C6.20631 2.73056 7.54175 2.71563 8.87584 2.73056C9.38749 2.7387 9.6372 2.58264 9.59241 2.03299C9.55849 1.62585 9.61549 1.2187 9.5802 0.811551C9.52863 0.232044 9.7417 -0.0325944 10.3416 0.00540608C10.7936 0.0319245 11.2467 0.0319245 11.6987 0.00540608C12.2877 -0.0285229 12.4967 0.233399 12.4927 0.810192C12.4737 2.89072 12.4845 4.97124 12.4927 7.05312C12.4927 8.15106 12.4927 8.15515 13.5621 8.15244C15.0401 8.15244 14.9328 8.27185 14.9342 6.81426C14.9342 4.82331 14.9491 2.83371 14.9274 0.842763C14.9193 0.233398 15.1378 -0.0366645 15.758 0.00676456C16.1646 0.0360094 16.5728 0.0360094 16.9794 0.00676456C17.6092 -0.0420932 17.8589 0.176404 17.848 0.849555C17.81 2.99794 17.8616 5.14632 17.8182 7.2947C17.8046 7.99907 18.0448 8.18635 18.7152 8.16735C20.5854 8.11306 20.3438 8.3655 20.3642 6.54962C20.3723 5.64575 20.3642 4.74053 20.3642 3.8353C20.3642 2.74279 20.3805 2.72652 21.4499 2.72516H40.3769C40.784 2.72516 41.1912 2.7143 41.5983 2.72516C42.0054 2.73602 42.1778 2.56906 42.1642 2.1592C42.148 1.63941 42.1765 1.11826 42.1642 0.599826C42.152 0.192678 42.3393 0.0175993 42.7274 0.0175993C43.2486 0.0175993 43.7697 0.0352662 44.2882 0.00812304C44.888 -0.0244488 45.0753 0.25784 45.0699 0.822418C45.0536 2.94773 45.0699 5.07304 45.0699 7.20107C45.0699 8.14158 45.0821 8.15108 46.0199 8.15108C47.6892 8.15108 47.5128 8.30848 47.5128 6.66632C47.5128 4.72151 47.5304 2.77535 47.5128 0.830536C47.506 0.210314 47.7462 -0.03531 48.3556 0.00404759C48.7845 0.031189 49.2147 0.031189 49.6435 0.00404759C50.223 -0.0325957 50.4375 0.189982 50.4307 0.788489C50.4022 2.95994 50.4402 5.1314 50.4063 7.30285C50.3968 7.94343 50.5773 8.18227 51.2436 8.16463C53.2047 8.10898 52.9292 8.38177 52.9496 6.46818C52.9591 5.45031 52.9618 4.43244 52.9496 3.41593C52.9496 2.93007 53.1545 2.70751 53.6417 2.7238C54.5225 2.7523 55.406 2.65998 56.2828 2.7957C58.4542 3.12956 59.9308 4.78395 60.0041 6.97711C60.0041 7.11283 60.0041 7.24855 60.0041 7.38426C60.0041 23.3743 60.0041 39.3634 60.0041 55.3517C60.0041 57.4838 58.9306 59.1137 57.1228 59.7435C56.5178 59.9329 55.885 60.0187 55.2513 59.9973C46.8016 59.9955 38.3601 59.9955 29.9267 59.9973ZM8.41576 29.2549V40.7188C8.41576 40.7867 8.41576 40.8545 8.41576 40.9224C8.46055 42.9283 9.78513 44.4904 11.7503 44.7591C12.3393 44.8392 12.4737 45.1024 12.5157 45.6331C12.8197 49.4779 16.689 52.3062 20.4673 51.4689C23.4192 50.8161 25.3762 48.6582 25.7752 45.6019C25.8363 45.1364 25.9217 44.7876 26.5257 44.7876C28.4013 44.812 30.2782 44.8025 32.1552 44.7876C32.6397 44.7876 32.8338 45.002 32.8623 45.4784C32.998 47.3037 33.7607 48.84 35.1694 50.0031C37.1658 51.6507 39.4363 52.0294 41.8521 51.1445C44.2366 50.2705 45.6345 48.475 46.0783 46.0049C46.3185 44.6573 46.2357 44.8052 47.4843 44.7835H47.6879C49.8729 44.7509 51.5436 43.1549 51.5571 40.9835C51.5852 36.7555 51.5852 32.5275 51.5571 28.2995C51.5463 26.6709 50.9138 25.2635 49.801 24.08C48.3841 22.5763 46.6062 21.9181 44.5718 21.9086C42.7166 21.895 40.8627 21.9086 39.0075 21.9086C38.0968 21.9086 38.0955 21.9086 38.0928 21.0251C38.0928 20.052 38.0928 19.0803 38.0928 18.1072C38.0643 15.5096 36.3284 13.7738 33.7254 13.7711C26.7157 13.7602 19.7073 13.7711 12.6976 13.7643C10.0294 13.7643 8.35469 15.7226 8.40219 18.0637C8.46869 21.7932 8.4144 25.5241 8.41576 29.2549Z" fill="#531BC2"/>
<path d="M10.8559 29.2427C10.8559 25.6462 10.8559 22.0507 10.8559 18.456C10.8559 16.8274 11.3798 16.3008 13.0084 16.2981C14.3425 16.2981 15.6766 16.3171 17.0106 16.29C17.6119 16.2778 17.8467 16.4691 17.8372 17.1043C17.8046 19.4332 17.8263 21.762 17.8222 24.0909C17.8222 24.4818 17.8548 24.8604 18.057 25.2038C18.4452 25.8647 19.2092 26.0181 19.934 25.5539C20.8283 24.9812 21.72 24.4004 22.5859 23.7896C23.0134 23.487 23.3418 23.4435 23.7924 23.7733C24.6297 24.3881 25.5228 24.9256 26.3886 25.5024C26.846 25.8077 27.3088 25.9801 27.8449 25.6978C28.3809 25.4155 28.5017 24.9418 28.5004 24.3854C28.4949 21.9887 28.4949 19.591 28.5004 17.1925C28.5004 16.37 28.5736 16.3008 29.3934 16.2968C30.8184 16.2968 32.2434 16.2859 33.6671 16.2968C34.9523 16.309 35.5494 16.8898 35.5508 18.1669C35.5589 25.064 35.5621 31.9611 35.5603 38.8582C35.5683 39.0715 35.5259 39.2836 35.4366 39.4775C35.3472 39.6713 35.2134 39.8414 35.0459 39.9738C34.4476 40.462 33.9616 41.0735 33.6209 41.7666C33.4431 42.1493 33.1676 42.2701 32.7591 42.2687C30.452 42.2551 28.1448 42.2551 25.8376 42.2687C25.4169 42.2687 25.1835 42.1058 24.9853 41.7489C23.7829 39.5774 21.8923 38.3642 19.4549 38.2447C16.8356 38.1172 14.7713 39.2911 13.402 41.5413C13.0735 42.0841 12.7492 42.3719 12.1249 42.247C11.5006 42.1221 11.0853 41.7869 10.955 41.1681C10.8843 40.7909 10.8516 40.4076 10.8573 40.024C10.8528 36.432 10.8523 32.8383 10.8559 29.2427ZM14.9274 35.3662C14.9185 35.2306 14.9185 35.0946 14.9274 34.9591C15.0088 34.3198 14.7591 34.085 14.0968 34.1095C12.2579 34.176 12.5076 33.838 12.4832 35.7258C12.4832 35.7923 12.4832 35.8616 12.4832 35.9281C12.437 36.4356 12.6379 36.7003 13.1767 36.6528C13.3327 36.6392 13.4915 36.6528 13.649 36.6528C14.9274 36.6555 14.9274 36.6555 14.9274 35.3662ZM16.556 35.339C16.556 36.6555 16.556 36.6555 17.8046 36.6555C18.9975 36.6555 18.9989 36.6555 18.9975 35.4178C18.9975 33.9561 19.079 34.1312 17.7489 34.1257C16.5574 34.119 16.5574 34.1244 16.5574 35.339H16.556ZM21.9127 34.1176C20.6288 34.1176 20.6288 34.1176 20.6275 35.1721C20.6275 36.6473 20.6275 36.6474 21.7838 36.6487C23.069 36.6487 23.0717 36.6487 23.069 35.5032C23.0649 34.0063 23.1939 34.1285 21.9195 34.1244L21.9127 34.1176Z" fill="#531BC2"/>
<path d="M40.9875 28.2737C40.9875 29.2454 40.9794 30.2172 40.9875 31.1889C40.9984 32.0643 41.2074 32.3465 42.0407 32.6261C44.1619 33.3373 46.2818 34.0538 48.4112 34.7392C48.9201 34.9034 49.1441 35.1572 49.1346 35.7055C49.1088 37.2649 49.1346 38.827 49.121 40.385C49.1061 41.7666 48.5863 42.1846 47.2305 42.285C46.1094 42.3732 45.4852 41.9946 44.8446 41.0419C43.4576 38.9817 41.3933 38.0656 38.8894 38.2841C38.3261 38.333 38.0751 38.2448 38.0751 37.5974C38.0986 33.4608 38.0986 29.3242 38.0751 25.1875C38.0751 24.6284 38.2664 24.4017 38.8202 24.4316C39.2721 24.4588 39.7253 24.4588 40.1773 24.4316C40.8125 24.3895 41.0065 24.6922 40.9916 25.2853C40.9645 26.2787 40.9835 27.2749 40.9835 28.271L40.9875 28.2737Z" fill="#531BC2"/>
<path d="M23.335 44.9003C23.3621 47.1151 21.3644 49.1251 19.1359 49.1251C16.9306 49.1251 14.9735 47.1803 14.9437 44.96C14.9152 42.7736 16.8532 40.788 19.0722 40.7338C21.2911 40.6795 23.3065 42.6677 23.335 44.9003ZM17.8263 45.002C17.8263 46.2384 17.8263 46.256 18.6406 46.2384C20.6302 46.1963 20.3316 46.6618 20.3587 44.3316C20.3587 43.9122 20.1986 43.6951 19.7616 43.7127C19.5594 43.7222 19.3544 43.7127 19.1536 43.7127C17.6512 43.7155 17.8399 43.6164 17.8263 45.002Z" fill="#531BC2"/>
<path d="M39.4729 40.7338C41.6864 40.7161 43.7005 42.7247 43.6923 44.941C43.6842 47.1572 41.7339 49.0979 39.5177 49.1251C37.3015 49.1522 35.2847 47.1355 35.301 44.9179C35.3173 42.7003 37.2662 40.7514 39.4729 40.7338ZM39.4186 46.2425C40.807 46.2289 40.7106 46.4243 40.7147 44.9247C40.7147 44.7442 40.7025 44.5623 40.7147 44.3818C40.7514 43.8865 40.522 43.6747 40.0361 43.71C39.857 43.7222 39.6765 43.71 39.4933 43.71C38.0004 43.71 38.1877 43.6245 38.1863 45.017C38.185 46.4094 38.037 46.2303 39.4186 46.2425Z" fill="#531BC2"/>
<path d="M49.1251 30.1439C49.1251 30.6406 49.1251 31.1373 49.1251 31.6368C49.1251 32.0616 48.9894 32.2733 48.5035 32.1091C46.9848 31.5975 45.458 31.1034 43.9312 30.6162C43.5716 30.5009 43.4291 30.2756 43.4304 29.9132C43.4304 28.3104 43.4304 26.7062 43.4304 25.1021C43.4304 24.5918 43.7019 24.4615 44.1565 24.4412C47.202 24.3054 49.121 26.1322 49.1319 29.1912C49.1319 29.5074 49.1319 29.825 49.1319 30.1412L49.1251 30.1439Z" fill="#531BC2"/>
<path d="M25.9665 19.2567C25.9665 20.0479 25.9665 20.8391 25.9665 21.6303C25.9665 22.0049 25.8213 22.0755 25.5173 21.8746C25.045 21.5639 24.5673 21.2558 24.1004 20.9423C23.5101 20.5474 22.9211 20.5351 22.3266 20.9341C21.8544 21.2449 21.3766 21.5571 20.9071 21.8624C20.5841 22.0701 20.375 21.9697 20.3723 21.591C20.3601 20.0072 20.3642 18.4248 20.3723 16.841C20.3723 16.4786 20.5786 16.3062 20.9301 16.2981C22.423 16.2981 23.9159 16.2981 25.4087 16.2981C25.8539 16.2981 25.9869 16.5329 25.9788 16.9454C25.9557 17.7177 25.9679 18.4872 25.9665 19.2567Z" fill="#531BC2"/>
</g>
<defs>
<clipPath id="clip0_18636_15224">
<rect width="59.9851" height="60" fill="white"/>
</clipPath>
</defs>
</svg>
