<svg width="47" height="47" viewBox="0 0 47 47" fill="none" xmlns="http://www.w3.org/2000/svg">
<g clip-path="url(#clip0_39141_315507)">
<path d="M2.50488 20.1998C2.50488 15.2784 2.50488 10.357 2.50488 5.43563C2.49957 4.9723 2.53486 4.50939 2.61034 4.05221C2.91042 2.39268 4.39355 1.09555 6.09046 0.984335C6.59954 0.951739 7.11053 0.932564 7.6244 0.932564C14.111 0.928729 20.5983 0.928729 27.0862 0.932564C27.5656 0.932564 28.045 0.945026 28.5243 0.978581C30.7543 1.13389 32.2249 2.69851 32.2336 4.94285C32.2451 7.77009 32.2336 10.5993 32.2336 13.4265C32.2336 16.1109 32.2336 18.7953 32.2336 21.4797C32.2336 22.1009 32.2154 22.123 31.6171 22.0185C30.4684 21.8028 29.2888 21.8122 28.1437 22.0463C27.6835 22.1421 27.579 21.9734 27.5924 21.5602C27.6126 20.9543 27.5857 20.3465 27.6001 19.7386C27.6097 19.3082 27.4151 19.1299 26.9942 19.1347C26.1953 19.1442 25.3964 19.1442 24.5974 19.1347C24.1737 19.1289 23.9906 19.313 23.9944 19.7406C24.0049 20.9706 23.9944 22.2006 24.0011 23.4306C24.0074 23.5727 23.9789 23.7141 23.9181 23.8426C23.8573 23.9711 23.766 24.0827 23.6521 24.1679C22.2201 25.3644 21.1704 26.9548 20.6332 28.7419C20.4932 29.2021 20.2746 29.366 19.8202 29.3171C19.5326 29.2893 19.2449 29.3171 18.9573 29.3171C18.6026 29.3114 18.4224 29.4763 18.4224 29.8358C18.4224 31.2576 18.4224 32.6793 18.4224 34.1011C18.4224 34.4731 18.6314 34.6188 18.9621 34.6284C19.3935 34.6418 19.825 34.6485 20.2564 34.637C20.5517 34.6284 20.7242 34.7329 20.8316 35.0205C21.4129 36.5165 22.3396 37.8538 23.5361 38.9234C23.6119 38.9915 23.7499 39.0481 23.6799 39.188C23.6301 39.2839 23.516 39.2695 23.423 39.2743C23.33 39.2791 23.2313 39.2743 23.1354 39.2743C17.6541 39.2743 12.1738 39.2743 6.69445 39.2743C4.65144 39.2743 3.12901 38.1613 2.65061 36.332C2.54072 35.8816 2.4898 35.4188 2.49913 34.9553C2.49913 30.0339 2.49913 25.1125 2.49913 20.1912L2.50488 20.1998ZM16.3755 28.5272C16.3755 26.7056 16.3755 24.8841 16.3755 23.0625C16.3755 22.4623 16.2432 22.3377 15.6364 22.3339C14.901 22.3339 14.1667 22.3272 13.4313 22.3339C12.9117 22.3396 12.7832 22.4671 12.7832 22.9964C12.7794 26.6548 12.7794 30.3136 12.7832 33.9726C12.7832 34.476 12.9337 34.6294 13.4438 34.6389C14.1628 34.6514 14.8818 34.6476 15.6009 34.6389C16.2547 34.6332 16.3755 34.5086 16.3765 33.8423C16.3778 32.0686 16.3774 30.2953 16.3755 28.5224V28.5272ZM7.13834 30.6104C7.13834 31.7283 7.13258 32.8471 7.13834 33.9659C7.13834 34.4712 7.30036 34.637 7.79697 34.6418C8.54796 34.6533 9.29863 34.6533 10.049 34.6418C10.6367 34.6332 10.7929 34.4798 10.7949 33.8959C10.8013 31.7062 10.8013 29.5172 10.7949 27.3288C10.7949 26.7468 10.628 26.58 10.0567 26.5714C9.33762 26.5599 8.61859 26.5608 7.89955 26.5714C7.29748 26.5791 7.14121 26.7392 7.13258 27.3527C7.13258 28.4322 7.13738 29.5185 7.13834 30.6056V30.6104ZM17.4071 9.36635C14.26 9.36635 11.1122 9.36635 7.96379 9.36635C7.65988 9.36635 7.23804 9.28198 7.23517 9.75655C7.23517 10.257 7.67234 10.1266 7.96283 10.1276C14.2424 10.1346 20.5219 10.1346 26.8015 10.1276C27.1169 10.1276 27.5761 10.2234 27.5589 9.72299C27.5435 9.26377 27.1035 9.36635 26.8025 9.36539C23.6707 9.36603 20.5389 9.36635 17.4071 9.36635ZM17.3572 5.61491H8.06254C7.88709 5.61491 7.71165 5.61491 7.53716 5.63217C7.45568 5.63113 7.37708 5.66226 7.3184 5.71879C7.25971 5.77532 7.22567 5.8527 7.22366 5.93416C7.20724 6.02218 7.22538 6.11315 7.2743 6.18814C7.32322 6.26314 7.39917 6.31639 7.48635 6.33682C7.64212 6.37094 7.80154 6.38543 7.96091 6.37996C14.2366 6.37996 20.5124 6.37996 26.7881 6.37996C27.1121 6.37996 27.5646 6.44803 27.5551 5.96772C27.5436 5.50849 27.0939 5.6197 26.7967 5.6197C23.6464 5.61203 20.4999 5.61044 17.3572 5.61491ZM12.4975 13.9394C13.9807 13.9394 15.4638 13.9442 16.9469 13.9394C17.2786 13.9394 17.7676 14.0525 17.7704 13.5454C17.7704 13.0037 17.2662 13.1274 16.9229 13.1264C13.9567 13.1187 10.9904 13.1187 8.02419 13.1264C7.86409 13.1208 7.70381 13.1278 7.54483 13.1475C7.45092 13.164 7.36608 13.2138 7.30585 13.2877C7.24561 13.3616 7.214 13.4547 7.21679 13.5501C7.21958 13.6454 7.2566 13.7365 7.32106 13.8067C7.38552 13.877 7.47312 13.9217 7.56784 13.9327C7.71098 13.9449 7.85468 13.9493 7.9983 13.9461L12.4975 13.9394Z" fill="#08A6FF"/>
<path d="M29.9191 22.6758C34.8296 22.6691 38.8418 26.6612 38.8505 31.5602C38.8591 36.4592 34.8239 40.5443 29.9258 40.5117C25.2137 40.481 21.0271 36.7497 21.0098 31.54C20.9973 26.6736 25.0431 22.6815 29.9191 22.6758ZM32.8489 29.7233C32.8322 29.6609 32.8043 29.6021 32.7665 29.5498C32.4789 29.243 32.2171 29.381 31.9909 29.6274C31.0954 30.6053 30.1147 31.4979 29.1838 32.4393C28.9355 32.6905 28.7456 32.7729 28.481 32.4719C28.2816 32.2457 28.041 32.0558 27.8224 31.8459C27.622 31.6541 27.4025 31.5046 27.1628 31.75C26.9557 31.9657 27.0449 32.1968 27.2309 32.3856C27.6335 32.7959 28.0403 33.2018 28.4513 33.6032C28.7044 33.8515 28.9652 33.8314 29.2087 33.5888C30.3592 32.4384 31.5096 31.2879 32.6601 30.1374C32.7216 30.0878 32.7707 30.0246 32.8035 29.9527C32.8362 29.8808 32.8518 29.8022 32.8489 29.7233Z" fill="#08A6FF"/>
<path d="M41.2778 45.9259C40.2577 45.9527 39.4639 45.5903 38.8628 44.8579C37.6366 43.3652 36.4391 41.8504 35.2197 40.3519C34.9781 40.0557 34.9924 39.8822 35.3251 39.6808C36.4065 39.0193 37.2425 38.0999 37.9539 37.0655C38.1888 36.7222 38.3566 36.6628 38.6979 36.9437C40.1148 38.1105 41.5577 39.2446 42.9814 40.4037C44.8988 41.9606 44.6323 44.6719 42.4733 45.6766C42.1022 45.8594 41.6909 45.9452 41.2778 45.9259Z" fill="#08A6FF"/>
<path d="M24.8241 21.5837C24.8241 21.1695 24.8241 20.7553 24.8241 20.3374C24.8241 20.0814 24.943 19.9539 25.2076 19.9654H25.2546C27.0963 19.998 26.7358 19.6778 26.7789 21.3967C26.7755 21.4606 26.7755 21.5246 26.7789 21.5885C26.8537 22.1301 26.707 22.5127 26.1078 22.6498C25.8653 22.7063 25.6457 22.8616 25.4176 22.9757C24.8653 23.2518 24.8222 23.225 24.8184 22.5865C24.8184 22.2519 24.8184 21.9154 24.8184 21.5818L24.8241 21.5837Z" fill="#08A6FF"/>
<path d="M19.1874 31.9424C19.1874 31.4794 19.1874 31.0173 19.1874 30.5542C19.1874 30.0911 19.5249 30.1535 19.8259 30.1381C20.1586 30.1209 20.3053 30.2618 20.2545 30.5906C20.104 31.5177 20.196 32.4342 20.3504 33.3498C20.3906 33.5885 20.3906 33.8349 20.0541 33.8042C19.7339 33.7745 19.244 34.0238 19.197 33.4255C19.1587 32.9337 19.1894 32.4371 19.1894 31.9424H19.1874Z" fill="#08A6FF"/>
<path d="M15.5521 28.4962C15.5521 30.0752 15.5406 31.66 15.5598 33.2342C15.5598 33.6675 15.4256 33.8324 14.9846 33.8219C13.3413 33.7854 13.6117 34.0193 13.604 32.4701C13.5896 29.5824 13.5992 26.6948 13.604 23.8072C13.604 23.1754 13.6242 23.1495 14.2444 23.1552C15.7784 23.1706 15.5406 22.9539 15.555 24.4754C15.5636 25.8157 15.5521 27.1559 15.5521 28.4962Z" fill="#08A6FF"/>
<path d="M9.9688 30.6818C9.9688 31.5283 9.95634 32.3749 9.97455 33.2214C9.98318 33.6423 9.84609 33.8513 9.39933 33.8196C9.06474 33.7957 8.72823 33.8091 8.39268 33.812C8.11657 33.812 7.97852 33.6825 7.97852 33.4064C7.97852 31.5529 7.97852 29.6994 7.97852 27.8459C7.97852 27.5756 8.11274 27.4394 8.39651 27.4471C8.7474 27.4567 9.10021 27.4643 9.4511 27.4471C9.82595 27.426 9.97168 27.5928 9.96976 27.9533C9.96305 28.8631 9.96976 29.7748 9.96976 30.6847L9.9688 30.6818Z" fill="#08A6FF"/>
</g>
<defs>
<clipPath id="clip0_39141_315507">
<rect width="41.7672" height="45" fill="white" transform="translate(2.5 0.933594)"/>
</clipPath>
</defs>
</svg>
