<svg width="47" height="47" viewBox="0 0 47 47" fill="none" xmlns="http://www.w3.org/2000/svg">
<g clip-path="url(#clip0_39028_358262)">
<g clip-path="url(#clip1_39028_358262)">
<path d="M26.3023 11.4541C27.4347 11.434 28.5666 11.5154 29.6845 11.6974C30.0399 11.7526 30.1562 11.6884 30.1207 11.2981C29.862 8.50589 30.283 5.69242 31.3476 3.09945C31.7217 2.19331 32.1772 1.32322 32.7086 0.499934C33.2417 -0.339539 34.1691 -0.63273 35.0709 -0.267355C35.4881 -0.101177 35.8339 0.206871 36.0476 0.602903C36.2613 0.998936 36.3294 1.45774 36.24 1.89905C36.1725 2.23591 36.2631 2.46405 36.4737 2.7011C39.2336 5.82075 41.9909 8.94367 44.7456 12.0699C44.8138 12.1552 44.9037 12.2206 45.0057 12.2591C45.1078 12.2977 45.2183 12.308 45.3257 12.2891C46.3029 12.2 47.2295 12.7872 47.4259 13.6989C47.6284 14.6409 47.4676 15.4598 46.3403 16.0097C43.5516 17.3723 40.6127 17.8464 37.5335 17.563C36.8107 17.5038 36.0922 17.4008 35.3818 17.2546C35.0336 17.1789 34.9376 17.2805 34.9438 17.6236C34.9616 18.8257 34.974 20.0297 34.7546 21.2194C34.7111 21.4573 34.8541 21.534 35.0016 21.6356C37.5984 23.4277 39.0651 25.9131 39.3956 29.0411C39.6808 31.7404 38.9105 34.1769 37.227 36.2738C35.0247 39.0159 32.085 40.284 28.6149 39.9739C24.3505 39.5889 21.4623 37.2389 19.9405 33.2313C19.7673 32.7742 19.5541 32.5558 19.0805 32.5229C18.7269 32.4879 18.3766 32.4245 18.0331 32.333C17.716 32.2573 17.604 32.2992 17.6955 32.6681C17.9596 33.6745 18.0827 34.7129 18.0615 35.7533C17.9638 38.7262 16.9875 41.3899 15.2098 43.7577C14.6048 44.5598 13.6773 44.7817 12.836 44.3815C12.4126 44.1924 12.0694 43.8593 11.867 43.4411C11.6647 43.0229 11.6161 42.5464 11.7299 42.0957C11.8054 41.782 11.6544 41.6171 11.4909 41.4318C10.2667 40.041 9.04011 38.6517 7.81116 37.2638C6.31746 35.576 4.82613 33.8866 3.33717 32.1958C3.14261 31.9739 2.9596 31.8696 2.6531 31.9026C2.20738 31.9459 1.76035 31.8344 1.38679 31.5867C1.01323 31.339 0.73579 30.9701 0.600891 30.5418C0.319268 29.6676 0.637315 28.706 1.42888 28.256C4.96028 26.2536 8.64981 25.5994 12.5694 26.9968C13.1913 27.2169 13.1531 27.208 13.1149 26.5254C12.8893 22.5285 13.5502 18.7589 16.1302 15.5436C17.779 13.4886 20.0063 12.3773 22.5346 11.8203C23.7707 11.543 25.0362 11.42 26.3023 11.4541ZM40.3222 13.5626C41.3768 13.5064 42.4428 13.3531 43.4725 12.9976C44.2374 12.7302 44.2321 12.7302 43.7017 12.1358C42.587 10.8882 41.4771 9.63402 40.372 8.37333C38.9292 6.74013 37.487 5.10634 36.0455 3.47195C35.6785 3.05845 35.659 3.06647 35.4236 3.53611C34.9097 4.57509 34.5582 5.6872 34.3815 6.83341C34.3559 6.95464 34.3615 7.08041 34.3977 7.19889C34.4339 7.31737 34.4996 7.42466 34.5885 7.51068C35.2574 8.24322 35.9104 8.99179 36.5696 9.73858C37.6108 10.9149 38.6523 12.0912 39.6941 13.2676C39.854 13.4449 40.021 13.624 40.3222 13.5626ZM7.49311 30.5311C6.42465 30.6339 5.37472 30.8797 4.37127 31.2619C3.82224 31.4766 3.82224 31.4838 4.20958 31.9196C5.34081 33.1939 6.46908 34.4692 7.59439 35.7453C9.06558 37.4088 10.5338 39.0759 11.9991 40.7465C12.2203 40.9996 12.3136 40.9604 12.4548 40.685C12.8484 39.9168 13.1327 39.1076 13.4374 38.3038C13.7324 37.5241 13.6329 36.9118 12.9799 36.3869C12.8401 36.2549 12.7117 36.1112 12.5961 35.9574L8.06524 30.8297C7.89733 30.6363 7.72676 30.4447 7.49311 30.5311ZM23.1841 15.1319C21.9927 15.3805 20.9098 15.8582 19.9858 16.6656C19.7797 16.8438 19.929 16.9891 20.0418 17.1174C21.2719 18.5201 22.5044 19.9204 23.7393 21.3183C23.8948 21.4965 24.0352 21.5117 24.2359 21.3816C25.2016 20.7711 26.2714 20.3451 27.3915 20.1251C27.6581 20.068 27.7273 19.9932 27.5248 19.7686C26.2177 18.2946 24.9147 16.8186 23.6158 15.3404C23.5674 15.2718 23.5023 15.2167 23.4268 15.1802C23.3513 15.1438 23.2677 15.1271 23.1841 15.1319ZM31.3654 19.1831C31.3476 18.455 31.2152 17.7385 31.153 17.0158C31.0837 16.2138 30.7328 15.7272 29.9093 15.6345C29.7662 15.6185 29.633 15.5329 29.4926 15.4883C27.9823 15.0036 26.4294 14.8592 24.8534 14.9064C24.7548 14.9064 24.6233 14.9064 24.5753 15.0089C24.5211 15.1256 24.6481 15.1871 24.713 15.2638C25.7853 16.49 26.8985 17.6833 27.921 18.9505C28.4843 19.6474 29.0688 20.1028 30.0017 19.9441C30.1553 19.9183 30.3233 19.9825 30.4849 19.9985C31.3742 20.0841 31.3742 20.0832 31.3654 19.1831ZM19.2111 17.579C19.0779 17.579 19.0077 17.6824 18.9348 17.7733C18.2807 18.602 17.7891 19.5476 17.4859 20.5599C17.4502 20.6576 17.4432 20.7634 17.4656 20.8649C17.4879 20.9664 17.5387 21.0594 17.612 21.133C18.5993 22.2386 19.5822 23.3481 20.5606 24.4614C20.7747 24.7056 20.9098 24.7119 21.0937 24.424C21.6048 23.6036 22.2537 22.8781 23.0117 22.2799C23.2001 22.1311 23.2462 22.0179 23.0659 21.8156C21.871 20.4788 20.6859 19.1332 19.4963 17.7911C19.4146 17.7064 19.3426 17.6075 19.2111 17.579ZM16.8124 25.8258C16.7654 26.4336 16.8702 27.1554 16.9013 27.8817C16.9164 28.1927 17.0328 28.3745 17.3579 28.4262C17.8981 28.5153 18.4347 28.6187 18.9713 28.7221C19.2964 28.7853 19.4697 28.6713 19.5212 28.3309C19.6448 27.4923 19.8915 26.6766 20.2532 25.9105C20.3634 25.6788 20.3332 25.4987 20.1644 25.3054C19.276 24.3099 18.4009 23.3056 17.5161 22.3075C17.4317 22.2121 17.3544 22.0535 17.2078 22.0856C17.0425 22.1221 17.0905 22.3039 17.071 22.4269C16.8822 23.5506 16.796 24.6891 16.8133 25.8285L16.8124 25.8258ZM8.86836 30.5088C9.5009 31.2138 10.0686 31.8376 10.6301 32.4614C11.6263 33.5783 12.6204 34.6964 13.6124 35.8157C13.6782 35.8888 13.7341 36.0011 13.8594 35.9627C13.9438 35.9378 13.9385 35.8451 13.9482 35.7738C14.0939 34.3221 14.1046 32.874 13.8852 31.4267C13.8478 31.1799 13.7252 31.0703 13.4996 31.0132C12.6993 30.7997 11.8832 30.6507 11.0592 30.5677C10.3582 30.5097 9.65726 30.4117 8.86924 30.5115L8.86836 30.5088ZM34.2464 8.38402C34.1614 9.75057 34.2353 11.1224 34.4668 12.4718C34.4799 12.56 34.5196 12.6422 34.5806 12.7072C34.6415 12.7722 34.7209 12.8169 34.8079 12.8354C35.9701 13.1799 37.1655 13.3998 38.374 13.4913C38.4681 13.4984 38.6076 13.5421 38.6405 13.4093C38.6547 13.3487 38.573 13.2542 38.517 13.1909C37.124 11.6189 35.7274 10.0487 34.2464 8.38402ZM29.2892 31.2574C29.7244 31.2529 30.1534 31.1536 30.5465 30.9663C30.9397 30.7791 31.2876 30.5083 31.5661 30.1729C31.6852 30.0356 31.7749 29.8592 31.6097 29.697C31.4444 29.5348 31.2845 29.6578 31.1477 29.7745C31.0109 29.8913 30.9114 29.9991 30.7852 30.1016C30.0132 30.7254 29.1772 30.8626 28.2675 30.4251C27.9124 30.2438 27.5836 30.0147 27.2903 29.7442C27.1312 29.6043 26.9456 29.5419 26.7803 29.7228C26.6151 29.9037 26.7519 30.0508 26.8771 30.1809C27.507 30.8464 28.3747 31.2336 29.2892 31.2574ZM26.1291 25.48C26.1922 25.7144 25.9941 26.1858 26.4365 26.193C26.8789 26.2001 26.7101 25.7474 26.719 25.48C26.751 24.4739 27.3142 23.6977 28.271 23.376C28.6224 23.2616 28.9911 23.2103 29.3602 23.2245C29.5459 23.2299 29.736 23.1987 29.7369 22.9572C29.7369 22.7317 29.5717 22.6622 29.3815 22.6444C27.9583 22.5089 26.114 23.4509 26.1291 25.48ZM24.474 25.7073C24.351 25.7271 24.2381 25.7876 24.1533 25.8793C22.8633 27.0235 22.9024 29.2871 24.2342 30.3983C24.4047 30.5409 24.6064 30.7379 24.8036 30.4955C24.9813 30.2736 24.7965 30.0945 24.6259 29.9305C23.5936 28.9413 23.5163 27.6135 24.4189 26.4897C24.5313 26.3722 24.6295 26.2418 24.7112 26.1012C24.8294 25.8668 24.6979 25.742 24.474 25.7073ZM25.8866 33.5049C26.3093 33.4885 26.7245 33.3885 27.1086 33.2106C27.4926 33.0328 27.8379 32.7806 28.1245 32.4685C28.2648 32.3206 28.4372 32.1325 28.2186 31.9338C28.0001 31.7351 27.8411 31.9187 27.6856 32.0586C27.5639 32.1664 27.4422 32.2742 27.3142 32.3749C26.4818 33.0344 25.6041 33.0273 24.7068 32.53C24.45 32.3874 24.2199 32.1958 23.9774 32.0274C23.8077 31.9097 23.6265 31.8269 23.4701 32.0274C23.328 32.2136 23.4515 32.3607 23.5847 32.489C24.2081 33.0923 25.0256 33.4525 25.8901 33.5049H25.8866ZM27.8366 34.8292C26.8949 34.8247 25.8955 35.2846 25.4139 35.8888C25.2922 36.0421 25.2247 36.2025 25.3722 36.3673C25.5428 36.5563 25.6894 36.4288 25.8262 36.305C25.8919 36.2452 25.9532 36.1811 26.0181 36.1214C26.8514 35.3532 27.8153 35.2044 28.8467 35.682C29.1671 35.8341 29.4741 36.0129 29.7645 36.2167C29.919 36.3228 30.1074 36.3762 30.2291 36.1757C30.3384 35.9975 30.27 35.8309 30.1012 35.715C29.3869 35.224 28.6184 34.8675 27.8402 34.8292H27.8366ZM36.4026 32.2983C36.381 31.9443 36.3181 31.594 36.2151 31.2547C36.145 31.0409 36.0543 30.7851 35.7709 30.8617C35.4404 30.9509 35.5515 31.2307 35.611 31.4561C35.9664 32.8089 35.579 33.8623 34.4374 34.6117C34.2598 34.7285 34.0386 34.8434 34.1709 35.0903C34.3211 35.3764 34.5583 35.2213 34.7466 35.1161C35.8251 34.511 36.3235 33.5548 36.4061 32.2983H36.4026ZM28.096 27.9209C28.096 28.0368 28.0907 28.1107 28.096 28.1883C28.112 28.3665 28.1405 28.5795 28.367 28.5786C28.6086 28.5786 28.5971 28.3531 28.6131 28.1776C28.6211 28.0885 28.622 27.9993 28.6335 27.9102C28.7881 26.7383 29.4384 25.9987 30.5489 25.7465C30.7954 25.7003 31.0442 25.6676 31.2943 25.6485C31.4924 25.6262 31.7092 25.6084 31.6834 25.3383C31.6603 25.0986 31.4631 25.0434 31.2552 25.0496C29.5743 25.1022 28.2391 26.0023 28.0996 27.9209H28.096ZM34.5512 24.9097C34.5512 24.7315 34.5911 24.5211 34.3308 24.506C34.0927 24.4917 34.0501 24.6762 34.0377 24.8678C34.0377 24.9266 34.0332 24.9863 34.027 25.046C33.8609 26.5779 33.151 27.29 31.4506 27.6179C31.2268 27.6616 31.0189 27.7222 31.058 27.9913C31.0971 28.2605 31.3245 28.2462 31.5448 28.2221C33.3492 28.0207 34.5174 26.7366 34.5547 24.9097H34.5512ZM33.1297 33.8124C33.1395 33.6065 33.0018 33.4889 32.8632 33.3793C32.5293 33.1075 32.1422 32.9092 31.727 32.7972C31.3118 32.6851 30.8777 32.6618 30.453 32.7287C29.8179 32.8135 29.2288 33.1068 28.7774 33.5628C28.6522 33.6885 28.582 33.8409 28.7161 33.9951C28.8503 34.1492 29.0075 34.1118 29.1559 34.0138C29.2447 33.9576 29.3158 33.8828 29.3993 33.8222C30.0576 33.3463 30.7755 33.16 31.5741 33.3846C31.9572 33.4997 32.3113 33.6957 32.6127 33.9594C32.7184 34.0485 32.8357 34.1109 32.9769 34.061C33.0256 34.0415 33.0668 34.0068 33.0943 33.962C33.1218 33.9172 33.1342 33.8648 33.1297 33.8124ZM24.6055 25.0701C24.8107 25.0763 25.5499 24.4338 25.557 24.2235C25.5659 23.9882 25.4282 23.8162 25.207 23.9321C24.8832 24.1058 24.5996 24.346 24.3745 24.637C24.2262 24.8268 24.3674 25.0648 24.6055 25.0701ZM24.6659 34.962C24.8774 34.9156 24.9715 34.7615 24.8649 34.5458C24.7247 34.265 24.516 34.0243 24.2581 33.8462C24.0316 33.6921 23.853 33.8079 23.7953 34.0574C23.75 34.2517 24.4252 34.9566 24.6659 34.9566V34.962ZM32.5931 23.6229C32.4439 23.2913 32.0947 23.1363 31.8202 22.9099C31.7969 22.8858 31.7689 22.8665 31.738 22.8534C31.7071 22.8403 31.6739 22.8335 31.6403 22.8335C31.6068 22.8335 31.5735 22.8403 31.5426 22.8534C31.5117 22.8665 31.4838 22.8858 31.4604 22.9099C31.433 22.9352 31.4109 22.9656 31.3953 22.9995C31.3797 23.0334 31.3709 23.07 31.3695 23.1073C31.3681 23.1446 31.3741 23.1818 31.3871 23.2167C31.4001 23.2517 31.4199 23.2837 31.4453 23.3109C31.6612 23.548 31.8948 23.7824 32.1898 23.9125C32.3915 23.9954 32.5665 23.9169 32.5931 23.6193V23.6229ZM25.7053 27.5324C25.5277 27.5671 25.4006 27.6999 25.5197 27.9254C25.6587 28.204 25.8541 28.4505 26.0936 28.649C26.281 28.7987 26.4649 28.7452 26.5378 28.5055C26.6106 28.2658 26.0225 27.5306 25.7053 27.5288V27.5324ZM30.6324 28.8967C30.6449 28.6294 30.0105 28.0421 29.768 28.0804C29.5015 28.1223 29.4606 28.33 29.5699 28.5109C29.7408 28.7734 29.9819 28.9824 30.2655 29.1142C30.4761 29.2158 30.5942 29.0794 30.6324 28.8967ZM32.0627 30.8573C31.8175 30.9206 31.7651 31.1113 31.8851 31.3189C32.0361 31.5726 32.2454 31.7864 32.4954 31.9427C32.698 32.0702 32.8721 31.9802 32.9218 31.744C32.968 31.5364 32.3133 30.8573 32.0627 30.8573ZM33.9648 29.6346C33.9906 29.8271 34.1212 29.9599 34.3202 29.8538C34.6124 29.7095 34.8444 29.4661 34.9749 29.1668C35.0549 28.9698 34.9465 28.8174 34.7173 28.8148C34.4881 28.8121 33.9586 29.3913 33.9648 29.6373V29.6346ZM23.2303 30.5757C22.9549 30.5757 22.4405 31.2672 22.5107 31.5078C22.517 31.5452 22.5326 31.5803 22.556 31.6101C22.5795 31.6398 22.61 31.6631 22.6448 31.6778C22.6796 31.6926 22.7175 31.6983 22.7551 31.6944C22.7927 31.6906 22.8287 31.6773 22.8598 31.6558C23.1437 31.492 23.3631 31.2357 23.4817 30.9295C23.5679 30.7272 23.4159 30.6042 23.2303 30.5757ZM31.8158 35.2828C31.6559 35.2828 31.5608 35.338 31.5208 35.469C31.4702 35.6321 31.8424 36.3655 32.0041 36.4279C32.14 36.4814 32.2333 36.4137 32.3088 36.3148C32.4608 36.1151 32.3168 35.9476 32.2315 35.7801C32.1267 35.5849 32.0832 35.3202 31.8175 35.2828H31.8158Z" fill="#622FB2"/>
</g>
</g>
<defs>
<clipPath id="clip0_39028_358262">
<rect width="46.375" height="46.375" fill="white"/>
</clipPath>
<clipPath id="clip1_39028_358262">
<rect width="47" height="45" fill="white" transform="translate(0.5 -0.421875)"/>
</clipPath>
</defs>
</svg>
