<svg width="62" height="62" viewBox="0 0 62 62" fill="none" xmlns="http://www.w3.org/2000/svg">
<g clip-path="url(#clip0_4252_29085)">
<g clip-path="url(#clip1_4252_29085)">
<path d="M34.5083 28.2157C35.0855 27.8497 35.6908 27.5165 36.2398 27.1129C37.3674 26.3147 38.3089 25.282 38.9998 24.0857C39.6907 22.8894 40.1146 21.5578 40.2425 20.1822C40.2407 19.9709 40.313 19.7656 40.4467 19.6019C40.5803 19.4382 40.7671 19.3265 40.9745 19.2859C44.7981 18.1899 48.8968 18.6073 52.421 20.4515C55.9453 22.2958 58.6246 25.4254 59.9038 29.1917C60.457 30.8643 60.7374 32.6151 60.7344 34.3768C60.7344 36.0614 60.7344 37.7507 60.7344 39.4353C60.7344 39.9515 60.5983 40.1626 60.0399 40.1579C55.7322 40.1392 51.4246 40.1392 47.1169 40.1579C46.9268 40.1866 46.7331 40.1398 46.5771 40.0276C46.421 39.9153 46.315 39.7466 46.2816 39.5573C44.4047 33.9968 40.6507 30.2944 35.0573 28.516C34.879 28.4503 34.6725 28.4456 34.5083 28.2157Z" fill="#329AA8"/>
<path d="M26.2261 28.2579C26.1088 28.4315 25.9117 28.4409 25.7569 28.4972C20.1259 30.2804 16.372 33.9702 14.495 39.5667C14.4661 39.7489 14.3667 39.9124 14.2184 40.0221C14.0701 40.1318 13.8847 40.1789 13.702 40.1533C9.37555 40.1533 5.04912 40.1533 0.722687 40.1533C0.206518 40.1533 0.0235133 39.9843 0.0375906 39.4776C0.0938999 37.2862 -0.0562589 35.0948 0.126746 32.9081C0.262959 30.905 0.798517 28.9493 1.7019 27.1563C2.60527 25.3632 3.85822 23.769 5.38698 22.4675C6.92972 21.105 8.73409 20.0715 10.6898 19.4301C12.6455 18.7887 14.7115 18.5528 16.7615 18.737C17.8643 18.8216 18.9539 19.0326 20.0086 19.3657C20.1427 19.3958 20.2623 19.4709 20.3477 19.5784C20.4331 19.686 20.4791 19.8196 20.4779 19.957C20.8392 23.5983 22.6739 26.2496 25.8789 27.9764C25.9767 28.0285 26.0694 28.0898 26.1557 28.1594C26.198 28.1782 26.2261 28.2204 26.2261 28.2579Z" fill="#329AA8"/>
<path d="M41.6408 50.3687C41.8051 50.2467 41.974 50.1387 42.1101 50.0027C42.3542 49.8093 42.5403 49.5524 42.6479 49.2602C42.7555 48.968 42.7805 48.6517 42.7201 48.3462C42.5652 47.5391 42.4057 46.732 42.218 45.9296C42.1442 45.4854 41.9068 45.0848 41.5525 44.8069C41.1981 44.529 40.7525 44.3938 40.3035 44.428C40.1096 44.4613 39.9102 44.4303 39.7357 44.3396C39.5611 44.249 39.4211 44.1037 39.3368 43.926C39.2159 43.7092 39.0677 43.509 38.8957 43.33C38.7489 43.1853 38.6559 42.9948 38.632 42.79C38.6081 42.5853 38.6548 42.3785 38.7644 42.2038C38.965 41.8257 39.0151 41.3857 38.9045 40.9722C38.794 40.5587 38.531 40.2024 38.1684 39.9749C37.4458 39.4681 36.7044 38.9942 35.9442 38.5672C35.5959 38.3535 35.1819 38.2732 34.779 38.3414C34.376 38.4096 34.0115 38.6215 33.7528 38.9379C33.6224 39.1205 33.4353 39.2549 33.2206 39.3203C33.0059 39.3856 32.7757 39.3782 32.5656 39.2992C32.3125 39.2284 32.0533 39.1813 31.7914 39.1584C31.633 39.1496 31.4814 39.0915 31.3577 38.9922C31.234 38.8929 31.1444 38.7574 31.1016 38.6047C30.7215 37.6193 30.1068 37.197 29.051 37.3518C28.1424 37.4794 27.244 37.6707 26.3622 37.9243C25.9685 38.0389 25.6296 38.2921 25.4079 38.6371C25.1863 38.9821 25.0969 39.3956 25.1563 39.8013C25.1958 39.995 25.1681 40.1963 25.0776 40.3721C24.9872 40.5479 24.8394 40.6875 24.6589 40.7679C24.5219 40.8319 24.394 40.914 24.2788 41.0119C24.0909 41.2185 23.8373 41.3538 23.5611 41.3949C23.2849 41.4359 23.003 41.3802 22.7631 41.2372C22.0076 40.8759 21.2334 41.1668 20.6656 41.9598C20.1426 42.6908 19.6586 43.4489 19.2156 44.231C19.0405 44.5577 18.9831 44.9347 19.0532 45.2988C19.1233 45.6628 19.3165 45.9916 19.6004 46.2299C19.7975 46.3729 19.9419 46.5767 20.0115 46.81C20.081 47.0432 20.0718 47.2929 19.9852 47.5204C19.9183 47.7551 19.8727 47.9954 19.8491 48.2383C19.8442 48.398 19.7868 48.5516 19.6859 48.6754C19.585 48.7992 19.4461 48.8864 19.2907 48.9234C18.9994 49.0011 18.7334 49.1538 18.5194 49.3662C18.3053 49.5786 18.1506 49.8433 18.0707 50.1341C18.0555 50.2438 17.9978 50.3432 17.91 50.4108C17.8222 50.4783 17.7114 50.5087 17.6014 50.4954C16.8506 50.4954 16.1045 50.4954 15.3538 50.4954C15.0675 50.4954 14.9361 50.3968 14.9455 50.1059C15.03 47.3374 14.7062 44.5547 15.1801 41.805C15.7561 38.5093 17.3891 35.4907 19.8322 33.205C22.2753 30.9194 25.3959 29.4909 28.7225 29.1354C30.9373 28.862 33.1852 29.0871 35.3017 29.7943C37.4183 30.5014 39.3501 31.6727 40.9557 33.2225C42.4967 34.6272 43.725 36.3404 44.5609 38.2506C45.3968 40.1609 45.8216 42.2256 45.8077 44.3107C45.8077 46.1877 45.8077 48.0647 45.8077 49.9417C45.8077 50.3828 45.6857 50.5282 45.2399 50.5188C44.0434 50.4954 42.8468 50.5188 41.6549 50.5188L41.6408 50.3687Z" fill="#329AA8"/>
<path d="M30.3977 10.3937C32.1274 10.3939 33.8179 10.9082 35.2546 11.8713C36.6913 12.8345 37.8092 14.203 38.4663 15.803C39.1234 17.403 39.29 19.1622 38.945 20.8571C38.6 22.552 37.7588 24.1061 36.5285 25.3219C35.2982 26.5376 33.7342 27.3602 32.0354 27.685C30.3365 28.0099 28.5793 27.8223 26.9873 27.1462C25.3952 26.4701 24.0401 25.336 23.0941 23.8879C22.1481 22.4399 21.654 20.7433 21.6744 19.0138C21.7016 16.7181 22.6326 14.5258 24.2656 12.9121C25.8986 11.2984 28.1019 10.3936 30.3977 10.3937Z" fill="#329AA8"/>
<path d="M15.6304 17.4418C13.8835 17.4687 12.1684 16.9722 10.7059 16.0164C9.2433 15.0606 8.10012 13.6891 7.42337 12.0783C6.74194 10.4311 6.57809 8.61545 6.9536 6.87282C7.32912 5.13019 8.22621 3.54316 9.52558 2.32275C10.8146 1.13404 12.4303 0.358798 14.1641 0.0970087C15.898 -0.164781 17.6705 0.098892 19.253 0.85402C20.8369 1.61035 22.1558 2.82691 23.0373 4.34469C23.9189 5.86247 24.322 7.61088 24.1942 9.36142C24.1344 9.88193 24.0467 10.3988 23.9314 10.9099C23.8337 11.4279 23.576 11.9022 23.1947 12.266C22.4085 13.0478 21.7723 13.9671 21.3177 14.9783C20.9282 15.8229 20.0977 16.1655 19.3375 16.5456C18.1979 17.1541 16.9222 17.4625 15.6304 17.4418Z" fill="#329AA8"/>
<path d="M45.2586 17.4465C43.3702 17.4555 41.5314 16.842 40.0266 15.7009C39.7677 15.5136 39.561 15.2632 39.4259 14.9736C38.9154 13.8475 38.1938 12.8297 37.3003 11.9751C37.1711 11.8428 37.0747 11.6821 37.0187 11.5059C36.3669 9.57097 36.4137 7.46882 37.1509 5.56483C37.8882 3.66083 39.2693 2.07535 41.0542 1.08396C46.1361 -1.58604 51.9782 0.854034 53.6863 6.34419C54.2067 8.21891 54.0879 10.2136 53.3486 12.0133C52.6094 13.813 51.2918 15.3152 49.6038 16.2828C48.29 17.0628 46.7865 17.4654 45.2586 17.4465Z" fill="#329AA8"/>
<path d="M34.3628 59.5002C34.4942 59.9694 34.2033 60.2416 33.673 60.3448C33.0114 60.4668 32.3545 60.6076 31.6975 60.7624C31.6094 60.7998 31.5139 60.8171 31.4183 60.8129C31.3226 60.8087 31.2291 60.7832 31.1445 60.7382C31.06 60.6932 30.9865 60.6299 30.9296 60.5529C30.8726 60.4759 30.8336 60.3872 30.8153 60.2932C30.7042 59.8989 30.4708 59.5501 30.1486 59.2971C29.8264 59.0441 29.4322 58.8999 29.0228 58.8854C28.7073 58.8451 28.3941 58.7887 28.0843 58.7165C27.7532 58.6332 27.4047 58.6508 27.0836 58.7671C26.7626 58.8833 26.4835 59.0928 26.2824 59.3688C26.2281 59.4619 26.1536 59.5418 26.0643 59.6024C25.9751 59.663 25.8734 59.7029 25.7668 59.7191C25.6601 59.7353 25.5512 59.7274 25.448 59.696C25.3448 59.6646 25.2499 59.6105 25.1703 59.5377C24.5932 59.1529 24.0066 58.7822 23.42 58.4162C23.3373 58.3758 23.2641 58.3184 23.2051 58.2477C23.1462 58.177 23.1029 58.0946 23.0781 58.0059C23.0532 57.9173 23.0475 57.8244 23.0611 57.7333C23.0748 57.6423 23.1075 57.5552 23.1573 57.4777C23.3433 57.1381 23.4196 56.7492 23.376 56.3645C23.3323 55.9797 23.1707 55.6179 22.9133 55.3286C22.7415 55.1078 22.5847 54.8758 22.444 54.6341C22.2737 54.2932 22.0015 54.0138 21.6651 53.8347C21.3287 53.6556 20.945 53.5856 20.567 53.6346C20.4611 53.6573 20.3514 53.6565 20.2458 53.6322C20.1402 53.608 20.0412 53.5609 19.9557 53.4942C19.8703 53.4276 19.8005 53.343 19.7512 53.2464C19.702 53.1499 19.6746 53.0437 19.6708 52.9354C19.5488 52.2926 19.4127 51.6497 19.2625 51.0115C19.2248 50.9171 19.2082 50.8154 19.214 50.7138C19.2199 50.6123 19.2479 50.5132 19.2963 50.4237C19.3446 50.3342 19.4121 50.2563 19.4938 50.1957C19.5755 50.1352 19.6696 50.0933 19.7693 50.073C20.1083 49.9783 20.4119 49.7858 20.6422 49.5196C20.8725 49.2534 21.0194 48.9253 21.0644 48.5761C21.1442 48.1069 21.2568 47.6611 21.3131 47.1966C21.3605 46.8889 21.3235 46.5741 21.2062 46.2857C21.0888 45.9973 20.8955 45.7462 20.6468 45.5589C20.5533 45.5046 20.4733 45.4297 20.413 45.3398C20.3527 45.25 20.3136 45.1477 20.2987 45.0405C20.2838 44.9334 20.2934 44.8243 20.3269 44.7214C20.3604 44.6185 20.4168 44.5246 20.492 44.4468C20.872 43.8884 21.2287 43.3159 21.5853 42.7434C21.6232 42.6585 21.6786 42.5825 21.7481 42.5206C21.8175 42.4587 21.8992 42.4122 21.988 42.3843C22.0767 42.3563 22.1703 42.3475 22.2627 42.3585C22.3551 42.3695 22.4441 42.3999 22.5238 42.4478C22.878 42.6486 23.2878 42.7289 23.6916 42.6764C24.0953 42.6239 24.471 42.4416 24.7621 42.1569C24.9836 41.9884 25.2138 41.8318 25.4519 41.6876C25.7669 41.5163 26.0241 41.2555 26.1911 40.9382C26.3581 40.6209 26.4275 40.2612 26.3904 39.9045C26.3608 39.7939 26.3572 39.6779 26.3797 39.5656C26.4022 39.4533 26.4502 39.3477 26.5201 39.2569C26.5899 39.1662 26.6798 39.0927 26.7826 39.0423C26.8854 38.9919 26.9985 38.9658 27.113 38.966C27.7606 38.8534 28.3987 38.6986 29.0369 38.5578C29.1275 38.5229 29.2244 38.5076 29.3213 38.5128C29.4182 38.5179 29.513 38.5435 29.5993 38.5878C29.6857 38.6321 29.7618 38.6941 29.8225 38.7698C29.8833 38.8455 29.9274 38.9331 29.9519 39.027C30.0647 39.3885 30.2841 39.7074 30.5814 39.9419C30.8787 40.1764 31.24 40.3155 31.6177 40.3409C31.9698 40.388 32.3191 40.4538 32.6642 40.538C32.9929 40.6248 33.3402 40.6099 33.6603 40.4951C33.9804 40.3803 34.2581 40.1711 34.4567 39.8951C34.5124 39.7972 34.5901 39.7134 34.6835 39.6504C34.777 39.5874 34.8838 39.5468 34.9955 39.5318C35.1072 39.5168 35.2209 39.5278 35.3277 39.564C35.4344 39.6001 35.5314 39.6605 35.611 39.7403C36.1866 40.1251 36.7669 40.5036 37.3519 40.8758C37.4336 40.9127 37.5066 40.9665 37.566 41.0336C37.6254 41.1007 37.6699 41.1797 37.6965 41.2653C37.7231 41.3509 37.7313 41.4412 37.7204 41.5302C37.7095 41.6191 37.6799 41.7048 37.6335 41.7815C37.4324 42.1458 37.3539 42.5652 37.4097 42.9777C37.4655 43.3901 37.6525 43.7736 37.9432 44.0714C38.1496 44.3154 38.2998 44.6016 38.4828 44.8597C38.6608 45.1505 38.9201 45.3828 39.2287 45.5279C39.5372 45.673 39.8815 45.7246 40.219 45.6762C40.3186 45.6485 40.4232 45.6437 40.5249 45.6622C40.6266 45.6807 40.7228 45.7219 40.8064 45.7829C40.8899 45.8438 40.9585 45.9229 41.0071 46.0141C41.0557 46.1053 41.0831 46.2064 41.0871 46.3097C41.2326 47.0042 41.3827 47.7174 41.5282 48.3978C41.5558 48.4828 41.5655 48.5727 41.5564 48.6616C41.5474 48.7505 41.52 48.8366 41.4758 48.9143C41.4316 48.992 41.3718 49.0597 41.3 49.113C41.2282 49.1662 41.1461 49.2039 41.0589 49.2237C40.6794 49.3262 40.3416 49.5453 40.0932 49.8501C39.8448 50.1548 39.6984 50.5299 39.6747 50.9224C39.635 51.256 39.5739 51.5867 39.4917 51.9125C39.3933 52.2384 39.3978 52.5866 39.5044 52.9099C39.6111 53.2331 39.8147 53.5157 40.0876 53.7191C40.1894 53.7778 40.2763 53.859 40.3418 53.9566C40.4073 54.0541 40.4496 54.1653 40.4655 54.2818C40.4813 54.3982 40.4703 54.5167 40.4333 54.6282C40.3963 54.7397 40.3342 54.8412 40.2518 54.925C39.853 55.4881 39.4917 56.0841 39.121 56.6659C39.0839 56.7427 39.031 56.8108 38.9658 56.8657C38.9006 56.9206 38.8245 56.9611 38.7426 56.9846C38.6606 57.0081 38.5746 57.014 38.4902 57.0019C38.4059 56.9899 38.325 56.9601 38.2529 56.9146C37.8712 56.7058 37.4313 56.6285 37.0013 56.6947C36.5713 56.7608 36.1751 56.9667 35.8738 57.2806C35.5125 57.5997 35.0338 57.7499 34.7335 58.1769C34.5847 58.3605 34.475 58.5726 34.4113 58.8002C34.3475 59.0277 34.331 59.266 34.3628 59.5002ZM30.3883 43.8321C29.2393 43.8295 28.1151 44.1666 27.1571 44.801C26.1991 45.4355 25.45 46.339 25.004 47.3979C24.558 48.4568 24.435 49.624 24.6504 50.7527C24.8658 51.8813 25.41 52.9211 26.2147 53.7414C27.0194 54.5616 28.0486 55.1257 29.1729 55.3628C30.2972 55.5998 31.4665 55.4992 32.5338 55.0736C33.6011 54.6479 34.5188 53.9163 35.1715 52.9707C35.8242 52.025 36.1828 50.9075 36.2023 49.7586C36.2211 48.9847 36.0844 48.2149 35.8004 47.4947C35.5163 46.7745 35.0906 46.1187 34.5484 45.5661C34.0063 45.0134 33.3587 44.5752 32.6441 44.2773C31.9296 43.9795 31.1625 43.8281 30.3883 43.8321Z" fill="#329AA8"/>
<path d="M30.4492 45.0381C31.6714 45.0566 32.8369 45.5571 33.6919 46.4306C34.547 47.3041 35.0225 48.48 35.0149 49.7024C35.0065 50.617 34.7268 51.5087 34.2114 52.2643C33.6959 53.02 32.9678 53.6057 32.1193 53.9474C31.2708 54.289 30.3399 54.3712 29.4447 54.1835C28.5494 53.9958 27.7299 53.5467 27.0901 52.893C26.4502 52.2393 26.0187 51.4105 25.8501 50.5114C25.6816 49.6123 25.7836 48.6834 26.1433 47.8424C26.503 47.0013 27.1041 46.2859 27.8706 45.7867C28.6371 45.2875 29.5345 45.027 30.4492 45.0381Z" fill="#329AA8"/>
</g>
</g>
<defs>
<clipPath id="clip0_4252_29085">
<rect width="60.8091" height="60.8091" fill="white" transform="translate(0.269775 0.269653)"/>
</clipPath>
<clipPath id="clip1_4252_29085">
<rect width="60.7484" height="60.8" fill="white"/>
</clipPath>
</defs>
</svg>
