<svg width="61" height="61" viewBox="0 0 61 61" fill="none" xmlns="http://www.w3.org/2000/svg">
<g clip-path="url(#clip0_7224_42103)">
<path d="M53.6625 1.01036C52.2506 0.345009 50.7822 -0.0434719 49.1964 0.0971349C50.8649 0.0174094 52.5304 -0.105803 54.1713 0.218897C57.5473 0.890041 59.8709 3.86888 59.8782 7.5377C59.8927 14.181 59.8782 20.8243 59.8782 27.4691C59.8782 35.7799 59.8782 44.0907 59.8782 52.4014C59.8782 55.6934 58.1576 58.3258 55.2845 59.4767C53.9988 59.9928 52.629 59.987 51.2838 59.9913C43.9432 60.0174 36.6027 60.0029 29.2621 60.0029C22.111 60.0029 14.9598 60.0029 7.8087 60.0029C5.84745 60.0029 4.03986 59.6028 2.48883 58.2808C0.884176 56.9081 0.0158916 55.1701 0.0129925 53.0929C-0.0111668 37.7527 -0.0111668 22.4116 0.0129925 7.0695C0.0172904 5.43746 0.59515 3.85887 1.64552 2.60977C2.6959 1.36066 4.15193 0.520534 5.75903 0.236293C6.56499 0.0807859 7.38362 0.000232859 8.20443 -0.0043335C20.9837 0.00339747 33.7635 0.00726321 46.5437 0.00726321C48.5644 0.00726321 50.4706 0.40879 52.0752 1.78297C53.8147 3.28036 54.6714 5.17348 54.6728 7.44928C54.6815 19.8913 54.6854 32.3328 54.6844 44.7739C54.6844 47.4082 54.6883 50.0416 54.696 52.674C54.696 53.1088 54.6685 53.5437 55.1671 53.8336C55.3033 53.3202 55.3686 52.7905 55.3614 52.2594C55.3614 37.3038 55.3638 22.3493 55.3686 7.39565C55.3686 5.12564 54.5279 3.20933 52.7522 1.74238C52.6594 1.66555 52.5347 1.62932 52.4797 1.5206C53.6683 1.89893 54.97 3.56012 55.4237 5.11115C55.6433 5.9279 55.7448 6.77189 55.7252 7.61743C55.7252 20.301 55.7035 32.9846 55.747 45.6683C55.7557 48.1325 55.8267 50.5967 55.8426 53.061C55.8426 53.2233 55.8049 53.4002 55.9876 53.5843C56.1601 53.3408 56.1108 53.0755 56.1108 52.8334C56.1224 37.614 56.1296 22.3937 56.1325 7.17241C56.1325 4.74731 55.0758 2.85709 53.145 1.42928C53.0493 1.35825 52.9566 1.28432 52.8667 1.20315C52.8565 1.19445 52.8667 1.16256 52.8667 1.05819C54.4649 1.90839 55.663 3.35499 56.2007 5.08361C56.4582 5.91586 56.5801 6.78413 56.5616 7.65512C56.5616 22.8271 56.566 37.9991 56.5746 53.1712C56.5687 53.3623 56.5808 53.5535 56.6109 53.7423C56.7564 53.2115 56.8291 52.6634 56.8269 52.113C56.8269 37.2067 56.8317 22.3009 56.8414 7.39565C56.8414 5.31554 56.163 3.51519 54.6337 2.06563C54.4838 1.9096 54.3425 1.74556 54.2104 1.57423C54.5134 1.63656 54.712 1.84965 54.9251 2.04679C56.5833 3.56447 57.2864 5.47209 57.2864 7.67831C57.2864 22.8697 57.2941 38.061 57.3096 53.2523C57.3096 53.4843 57.2327 53.7466 57.4545 54.0148C57.6111 53.5582 57.5676 53.1697 57.5719 52.7885C57.6314 46.8236 57.6111 40.8601 57.6546 34.8952C57.7212 25.6716 57.6241 16.4452 57.5951 7.22025C57.6061 6.92998 57.5959 6.6393 57.5647 6.35052C57.1791 3.90947 56.0137 2.02504 53.6625 1.01036ZM30.7885 13.4765C30.0863 13.4639 29.3845 13.5178 28.6924 13.6374C22.2071 14.7666 17.0424 20.7823 18.4252 28.191C20.0111 36.6839 29.4912 40.9021 37.2173 36.8883C37.7855 36.5984 38.2856 35.8939 38.9017 36.0345C39.5177 36.1751 39.8787 36.9231 40.373 37.3826C40.3904 37.3985 40.4049 37.4188 40.4223 37.4348C40.7209 37.7015 40.8339 37.9856 40.6469 38.3929C40.3744 38.9873 40.5426 39.5381 40.9818 39.9875C43.3784 42.4411 45.7803 44.8894 48.1875 47.3323C48.8761 48.0281 49.6371 47.9948 50.3517 47.2947C50.9228 46.7395 51.4809 46.1698 52.0361 45.5958C52.8203 44.784 52.842 43.9868 52.0578 43.1794C49.7183 40.7717 47.3598 38.3813 45.0159 35.978C44.6028 35.5533 44.0737 35.3503 43.5663 35.5678C42.8952 35.8577 42.5343 35.5562 42.1472 35.1198C41.9238 34.8635 41.6815 34.6241 41.4224 34.4038C41.0195 34.0689 40.9673 33.808 41.3253 33.3383C43.4127 30.6088 44.178 27.4937 43.691 24.1192C42.8039 17.8977 37.4753 13.4649 30.79 13.4678L30.7885 13.4765ZM6.9868 17.1946C8.461 17.1946 9.93375 17.2033 11.4079 17.1946C12.1994 17.1874 12.4748 16.9323 12.4893 16.164C12.5125 15.0536 12.4893 13.9418 12.498 12.83C12.498 12.1473 12.1878 11.7864 11.4978 11.7849C8.4784 11.7849 5.45897 11.7733 2.43955 11.7849C1.6278 11.7849 1.38717 12.0748 1.37847 12.9156C1.36833 13.9302 1.36978 14.9449 1.37847 15.9596C1.37847 16.9352 1.63794 17.1845 2.63959 17.1903C4.08769 17.2004 5.53725 17.1946 6.9868 17.1946ZM6.85634 38.2349C8.49579 38.2349 10.1352 38.2219 11.7747 38.2422C12.298 38.2422 12.5212 38.0639 12.4995 37.529C12.4719 36.5651 12.5125 35.5996 12.4647 34.6371C12.4081 33.4775 11.7254 32.8064 10.5643 32.7933C8.15418 32.7663 5.74309 32.7663 3.33102 32.7933C2.15399 32.8107 1.40457 33.6094 1.37847 34.7792C1.35673 35.6939 1.39297 36.6114 1.36108 37.5334C1.34224 38.0697 1.54517 38.2581 2.07571 38.2465C3.67312 38.2204 5.26473 38.2349 6.85634 38.2349ZM6.92737 43.6418C5.76773 43.6418 4.60808 43.6418 3.44844 43.6418C3.19042 43.6418 2.84252 43.7056 2.74395 43.407C2.54152 42.8078 2.5334 42.1599 2.72076 41.5559C2.88166 41.0442 3.43249 41.3341 3.80938 41.2732C4.00208 41.2545 4.19596 41.2511 4.3892 41.2631C4.93278 41.2631 4.91394 40.8746 4.91249 40.5035C4.91104 40.1324 4.96467 39.7352 4.40805 39.7367C3.70936 39.7367 3.00777 39.7207 2.31054 39.757C1.68143 39.7903 1.36108 40.1382 1.37123 40.7978C1.38862 41.9067 1.38717 43.017 1.37123 44.1317C1.36253 44.8362 1.73361 45.1667 2.38591 45.1696C5.42708 45.1812 8.46825 45.1812 11.5094 45.1696C12.1429 45.1696 12.4908 44.8362 12.4893 44.1781C12.4893 43.0431 12.4893 41.9096 12.4893 40.776C12.4893 40.0773 12.1284 39.7613 11.4659 39.7425C10.8861 39.7265 10.3063 39.7613 9.72646 39.7251C9.12635 39.6888 8.85673 39.87 8.85673 40.5296C8.85673 41.1717 9.14664 41.2819 9.69747 41.2805C11.2746 41.2805 11.1978 40.9905 11.2166 42.875C11.2166 43.4867 10.9687 43.6737 10.3933 43.6606C9.24376 43.6273 8.08557 43.6418 6.92737 43.6418ZM6.95056 18.7471C5.35605 18.7471 3.76154 18.7471 2.16703 18.7471C1.83074 18.7471 1.40167 18.621 1.37123 19.2066C1.34658 19.7067 1.39007 20.1068 2.00033 20.2358C2.6106 20.3648 3.21216 20.5634 3.81518 20.7345C4.04855 20.8011 4.32687 20.9243 4.47328 20.662C4.7168 20.2271 5.09948 20.2749 5.48796 20.2735C7.56373 20.2735 9.64094 20.2576 11.7211 20.2822C12.3255 20.2822 12.5198 20.0604 12.5198 19.4733C12.5198 18.8863 12.2893 18.7254 11.7384 18.7341C10.1396 18.7645 8.54508 18.7486 6.95056 18.7471ZM6.90563 48.2282C8.50014 48.2282 10.0947 48.2122 11.6892 48.2369C12.2574 48.247 12.5227 48.0919 12.5198 47.4657C12.5169 46.8395 12.2777 46.6772 11.6979 46.68C8.50884 46.6984 5.32271 46.6984 2.13949 46.68C1.51908 46.68 1.36688 46.9192 1.36398 47.4947C1.36108 48.0702 1.57561 48.2485 2.13079 48.2398C3.71806 48.2122 5.31257 48.2282 6.90563 48.2282ZM8.88137 26.7414C8.88137 26.3805 8.88137 26.0166 8.88137 25.66C8.88137 25.2078 8.62625 25.0962 8.23052 25.0962C7.83479 25.0962 7.57677 25.202 7.58257 25.6586C7.59127 26.3312 7.59562 27.0052 7.58257 27.6778C7.57097 28.1417 7.70723 28.3939 8.23342 28.3925C8.75961 28.391 8.91181 28.146 8.89152 27.6793C8.87123 27.3676 8.88137 27.0545 8.88137 26.7414Z" fill="#3E04B1"/>
<path d="M19.5444 25.5745C19.5444 20.259 23.5234 15.7176 28.7853 14.8855C32.644 14.2724 36.1229 15.1 39.0003 17.7658C43.9607 22.3609 43.6041 29.6884 38.2654 33.8935C32.6846 38.2915 23.7698 36.7086 20.5025 29.9609C19.827 28.5999 19.4979 27.0932 19.5444 25.5745ZM22.9726 22.1652C21.9405 23.8771 21.7056 25.6238 22.0173 27.4285C22.5971 30.8045 25.4209 33.3717 29.0969 33.966C32.9165 34.5806 36.7622 32.586 38.3263 29.1709C38.4263 28.952 38.6452 28.736 38.4712 28.4461C35.2822 31.6351 31.6163 32.141 27.6706 30.2117C24.4511 28.6345 22.687 26.0413 22.9726 22.1652Z" fill="#3E04B1"/>
<path d="M6.91435 13.2866C8.09428 13.2866 9.27712 13.3054 10.4571 13.2794C11.0224 13.2663 11.2282 13.4881 11.2224 14.0447C11.2021 15.8755 11.3543 15.6552 9.65545 15.6624C7.60578 15.6711 5.55611 15.645 3.50789 15.6769C2.84544 15.6871 2.61786 15.4566 2.62801 14.7985C2.65265 13.059 2.60482 13.3011 4.09351 13.288C5.03282 13.2793 5.97213 13.2866 6.91435 13.2866Z" fill="#3E04B1"/>
<path d="M6.8913 36.7158C5.73165 36.7158 4.57201 36.6897 3.42251 36.7274C2.80645 36.7463 2.63395 36.4882 2.63106 35.9171C2.62236 34.6125 2.89922 34.3038 4.22557 34.3023C6.081 34.3023 7.93498 34.3023 9.78896 34.3023C11.0225 34.3023 11.6429 35.2779 11.1689 36.4245C11.024 36.7564 10.7558 36.7144 10.5007 36.7144C9.30626 36.7187 8.09588 36.7158 6.8913 36.7158Z" fill="#3E04B1"/>
</g>
<defs>
<clipPath id="clip0_7224_42103">
<rect width="59.8884" height="60" fill="white"/>
</clipPath>
</defs>
</svg>
