<svg width="62" height="62" viewBox="0 0 62 62" fill="none" xmlns="http://www.w3.org/2000/svg">
<g clip-path="url(#clip0_26668_125238)">
<path d="M5.34831 19.8317C5.37894 19.7645 5.36949 19.6928 5.36949 19.6227C5.36949 18.6395 5.35092 17.6559 5.3734 16.6733C5.43174 14.1442 6.32799 11.971 8.20328 10.2437C9.41925 9.12389 10.8682 8.44893 12.4831 8.12139C13.043 8.00797 13.6091 7.96984 14.1801 7.95159C14.6902 7.93529 15.1999 7.93138 15.71 7.92584C16.0404 7.92226 16.2079 8.08097 16.2093 8.40917C16.2127 9.3869 16.2127 10.3646 16.2093 11.3424C16.2093 11.6542 16.0352 11.8205 15.7165 11.8234C15.2169 11.828 14.7166 11.8136 14.2173 11.8289C13.6541 11.8459 13.0883 11.8648 12.547 12.0519C10.7506 12.6727 9.67607 13.9183 9.33679 15.7881C9.2224 16.4191 9.20415 17.0591 9.20415 17.7005C9.20654 29.1889 9.20849 40.6772 9.21001 52.1655C9.21001 53.2736 9.49519 54.3165 10.1473 55.229C10.8836 56.2632 11.9037 56.854 13.134 57.1043C13.5864 57.1938 14.0468 57.2375 14.508 57.2347H38.4624C38.6198 57.2347 38.7775 57.2393 38.9349 57.2347C39.037 57.2327 39.0829 57.2754 39.0891 57.3771C39.121 57.9292 39.1546 58.4812 39.1898 59.0331C39.2283 59.6279 39.2664 60.223 39.3114 60.8174C39.3286 61.0433 39.3192 61.0645 39.0969 61.0645C30.6396 61.0645 22.1822 61.0775 13.7248 61.0547C11.9144 61.0498 10.2767 60.4227 8.8362 59.3208C7.05738 57.9598 5.96015 56.1756 5.54451 53.9681C5.45521 53.4936 5.42262 53.0116 5.40176 52.5292C5.38742 52.1994 5.36591 51.8696 5.34766 51.5401L5.34831 19.8317Z" fill="#01378A"/>
<path d="M29.8577 1.45085C30.0976 1.50658 30.3427 1.4678 30.5858 1.49713C31.4498 1.60109 32.1254 2.02217 32.6651 2.68474C33.0165 3.11592 33.2632 3.61619 33.5718 4.07573C33.9231 4.59718 34.2562 5.132 34.7154 5.57491C35.3702 6.20881 36.1589 6.56307 37.046 6.72048C37.7835 6.85085 38.5282 6.81076 39.271 6.81826C39.4011 6.81575 39.5313 6.82382 39.6601 6.84237C40.2269 6.94015 40.4912 7.23151 40.5577 7.81163C40.6678 8.76883 40.6753 9.72928 40.6431 10.6891C40.6307 11.0502 40.646 11.4162 40.5583 11.7737C40.4329 12.286 40.1239 12.5676 39.6041 12.6406C39.4321 12.6635 39.2587 12.6744 39.0852 12.6732C32.5453 12.6732 26.0054 12.6732 19.4655 12.6732C19.243 12.6776 19.0207 12.6585 18.8022 12.6162C18.2048 12.4888 17.9275 12.1788 17.8535 11.5733C17.8302 11.3739 17.8188 11.1733 17.8193 10.9726C17.8193 10.3919 17.7629 9.81076 17.7994 9.23129C17.8274 8.78708 17.7939 8.34189 17.8493 7.89865C17.9431 7.14906 18.357 6.87203 19.0493 6.81858C19.7086 6.76774 20.3715 6.77915 21.0308 6.7182C22.5952 6.57415 23.8239 5.87084 24.6709 4.532C24.9316 4.11875 25.1682 3.69148 25.3944 3.25802C25.8106 2.45987 26.4171 1.87355 27.3007 1.61543C27.6667 1.51233 28.0458 1.46325 28.426 1.46975C28.5662 1.46975 28.7083 1.49322 28.8464 1.44922L29.8577 1.45085Z" fill="#01378A"/>
<path d="M47.0327 61.4497C46.6286 61.3594 46.4245 61.0857 46.3333 60.7001C46.2645 60.4097 46.1847 60.1223 46.1074 59.8345C46.0279 59.5386 45.8633 59.3043 45.598 59.1449C45.2806 58.9542 44.9602 58.775 44.5773 58.7483C44.2871 58.7242 43.9983 58.8089 43.7671 58.9858C43.551 59.1412 43.322 59.2779 43.0827 59.3942C42.6971 59.5917 42.2812 59.5246 41.9788 59.214C41.6003 58.8251 41.2208 58.4365 40.8404 58.0482C40.4493 57.6512 40.3936 57.2879 40.6651 56.7983C40.828 56.505 41.0037 56.2166 41.1829 55.9317C41.3814 55.6166 41.384 55.3044 41.2132 54.9768C41.0548 54.6741 40.8916 54.3726 40.7987 54.0405C40.7778 53.9662 40.7227 53.9427 40.6569 53.9238C40.2306 53.7967 39.8069 53.6608 39.3787 53.5405C38.8373 53.3883 38.5753 53.0422 38.5822 52.482C38.5887 51.9823 38.5894 51.4825 38.5844 50.9828C38.5779 50.3962 38.7963 50.0882 39.3536 49.9073C39.6586 49.8095 39.9728 49.7509 40.286 49.6792C40.6227 49.6026 40.8466 49.4184 40.9561 49.0854C41.0731 48.7304 41.1653 48.3654 41.3472 48.0343C41.3778 47.9786 41.3501 47.9313 41.3237 47.8821C41.1034 47.4705 40.8876 47.0566 40.6637 46.6469C40.406 46.174 40.4594 45.7699 40.8345 45.3876C41.2145 45.0001 41.5893 44.6054 41.971 44.2205C42.3164 43.8705 42.7111 43.8255 43.14 44.0693C43.5552 44.3052 43.976 44.5317 44.3918 44.7664C44.4209 44.7856 44.4551 44.7956 44.4899 44.7953C44.5247 44.7949 44.5587 44.7842 44.5874 44.7644C44.9165 44.5728 45.2558 44.4059 45.6326 44.3235C45.8441 44.2766 45.9536 44.112 46.0106 43.9125C46.1205 43.5266 46.2319 43.1411 46.3365 42.7533C46.4767 42.2263 46.8358 41.9385 47.3775 41.9538C47.8546 41.9659 48.3308 41.9672 48.8079 41.9538C49.4011 41.9372 49.7612 42.2259 49.916 42.8038C50.0258 43.218 50.15 43.6283 50.2618 44.0422C50.2733 44.0951 50.2995 44.1437 50.3374 44.1824C50.3752 44.2211 50.4233 44.2483 50.4759 44.2609C50.8455 44.3743 51.2037 44.5148 51.5325 44.7221C51.6772 44.8133 51.8209 44.8026 51.9604 44.7087C52.3264 44.4627 52.7273 44.2788 53.1109 44.0641C53.5489 43.819 53.9237 43.8851 54.2734 44.2436C54.6446 44.6246 55.0015 45.0193 55.3919 45.382C55.7537 45.7184 55.8208 46.1558 55.593 46.6C55.3903 46.9963 55.1813 47.3893 54.966 47.7791C54.8881 47.9212 54.8829 48.0464 54.9582 48.1933C55.1293 48.5261 55.2932 48.8634 55.3714 49.234C55.4121 49.4259 55.5399 49.5273 55.7237 49.5755C56.0953 49.6756 56.4652 49.7818 56.8354 49.8864C57.2532 50.0044 57.5152 50.2753 57.6261 50.6941V52.7473C57.5524 53.1266 57.3386 53.3864 56.9664 53.5014C56.5463 53.6318 56.1262 53.7596 55.7022 53.8743C55.5236 53.9225 55.4232 54.0147 55.3799 54.1943C55.3199 54.4423 55.2616 54.6985 55.1055 54.9038C54.8643 55.2213 54.8891 55.5354 55.0644 55.8627C55.2397 56.1899 55.4245 56.5197 55.596 56.8528C55.8404 57.3276 55.7915 57.6288 55.4148 58.0133C55.0158 58.4207 54.6036 58.8154 54.2141 59.2316C53.9638 59.4988 53.4834 59.5933 53.1546 59.4017C52.9062 59.257 52.651 59.1253 52.4112 58.965C52.0243 58.7043 51.6133 58.6788 51.1867 58.86C51.027 58.9285 50.872 59.0075 50.7226 59.0963C50.5731 59.1808 50.4419 59.2941 50.3366 59.4297C50.2313 59.5653 50.154 59.7206 50.1093 59.8863C50.0346 60.1526 49.9711 60.4218 49.9098 60.6913C49.8283 61.0515 49.6683 61.3432 49.2828 61.4491L47.0327 61.4497ZM48.1587 60.0187V60.0118C48.24 60.0077 48.3215 60.0084 48.4028 60.0138C48.5472 60.0301 48.615 59.974 48.6525 59.8303C48.7522 59.4473 48.8698 59.069 48.9784 58.6876C49.0976 58.2656 49.3593 57.9938 49.7905 57.8843C50.2667 57.7634 50.7217 57.5848 51.1349 57.3165C51.5276 57.0613 51.9155 57.0692 52.3157 57.2937C52.6709 57.4929 53.031 57.6829 53.3879 57.8784C53.445 57.911 53.4955 57.9348 53.5434 57.8677C53.6721 57.6871 53.8514 57.561 54.0287 57.4371C54.1688 57.3393 54.1818 57.2351 54.116 57.0894C53.9817 56.7985 53.8273 56.5173 53.6539 56.2479C53.3175 55.7144 53.2986 55.1802 53.6539 54.6454C53.7992 54.4264 53.9185 54.1911 53.9625 53.9323C54.0961 53.1455 54.5693 52.6847 55.3193 52.4781C55.5702 52.4087 55.8212 52.3389 56.0731 52.2731C56.1709 52.248 56.2198 52.203 56.2168 52.0932C56.21 51.8435 56.211 51.5936 56.2168 51.3436C56.2191 51.2432 56.1764 51.1989 56.0848 51.1722C55.7205 51.0653 55.361 50.9391 54.9934 50.8463C54.4836 50.7159 54.1913 50.4073 54.0929 49.8926C54.0335 49.583 53.9485 49.2734 53.767 49.0127C53.3273 48.3801 53.3341 47.7416 53.7018 47.0853C53.8269 46.8627 53.9377 46.6329 54.0603 46.4087C54.1401 46.2617 54.1339 46.1333 54.0104 46.012C53.8595 45.8637 53.7119 45.7119 53.5659 45.5587C53.5118 45.5023 53.4661 45.5183 53.4081 45.5512C53.0865 45.7324 52.7563 45.9002 52.4421 46.0925C51.9836 46.3728 51.5351 46.38 51.0769 46.0994C50.7379 45.8914 50.3863 45.7122 49.989 45.6376C49.8394 45.6092 49.7035 45.5375 49.5735 45.4557C49.1684 45.2005 48.9868 44.7987 48.8601 44.3636C48.7841 44.1029 48.7176 43.8421 48.6508 43.5775C48.6264 43.4797 48.583 43.4298 48.4722 43.4334C48.2337 43.4413 47.9944 43.4393 47.7552 43.4367C47.6636 43.4367 47.62 43.4716 47.5955 43.5605C47.4916 43.937 47.3713 44.3101 47.2752 44.6872C47.1533 45.1656 46.8665 45.4652 46.3838 45.5763C45.9598 45.6737 45.5565 45.8452 45.1923 46.0831C44.7125 46.3937 44.2145 46.3839 43.7381 46.0694C43.4561 45.8833 43.1605 45.7243 42.8682 45.558C42.7825 45.5095 42.7251 45.5134 42.6573 45.5877C42.4944 45.7683 42.3243 45.9462 42.1505 46.117C42.0798 46.1867 42.073 46.2444 42.118 46.3301C42.2894 46.6446 42.438 46.9728 42.6254 47.2772C42.9321 47.7762 42.9321 48.2517 42.6045 48.7396C42.4442 48.9781 42.3001 49.235 42.2568 49.5218C42.1505 50.2293 41.751 50.6774 41.0835 50.9056C40.7957 51.0033 40.5018 51.0819 40.2065 51.1516C40.0856 51.1803 40.0354 51.2494 40.0475 51.3573C40.0745 51.6014 40.0589 51.8461 40.0592 52.0896C40.0592 52.2017 40.1012 52.2526 40.2075 52.2851C40.5878 52.3953 40.9642 52.5195 41.3452 52.6274C41.7689 52.747 42.0208 53.0184 42.1209 53.4421C42.2345 53.9406 42.4269 54.4178 42.6909 54.8556C42.9223 55.234 42.9256 55.6101 42.7131 55.9963C42.5064 56.3721 42.3109 56.754 42.1049 57.1301C42.0616 57.2093 42.0583 57.2637 42.1235 57.3306C42.2711 57.4818 42.4132 57.6392 42.5573 57.7943C42.6414 57.8849 42.7343 57.9029 42.8506 57.8501C43.1193 57.733 43.379 57.5963 43.6276 57.441C44.2468 57.0411 44.7357 57.0379 45.3507 57.4505C45.5557 57.5887 45.7743 57.7044 46.0165 57.7454C46.7175 57.865 47.1288 58.2923 47.3306 58.948C47.4261 59.259 47.5088 59.5741 47.5913 59.8883C47.6193 59.9936 47.6584 60.0444 47.7836 60.0232C47.9087 60.002 48.0339 60.0187 48.1587 60.0187Z" fill="#01378A"/>
<path d="M49.1722 28.8747C49.1722 24.8553 49.1793 20.8362 49.1676 16.8161C49.164 15.6728 48.8691 14.6031 48.1703 13.6737C47.4533 12.7197 46.4808 12.1618 45.3329 11.8955C44.5834 11.7211 43.8198 11.6924 43.0516 11.7514C42.9975 11.7557 42.9431 11.7583 42.8886 11.7583C42.449 11.7583 42.2339 11.5539 42.2319 11.1133C42.2287 10.2389 42.2319 9.36415 42.2319 8.48973C42.2319 8.18729 42.3574 7.93373 42.7625 7.91906C44.4716 7.85584 46.1448 8.01423 47.7411 8.67224C49.5988 9.43781 50.9963 10.7255 51.9753 12.4694C52.5593 13.51 52.8797 14.6357 53.0107 15.8207C53.1189 16.8014 53.0609 17.784 53.0697 18.7657C53.132 25.7173 53.0883 32.669 53.1023 39.6206C53.1023 40.0769 53.1 40.5332 53.0981 40.9895C53.0981 41.2062 53.087 41.216 52.8644 41.2176L49.3938 41.2251C49.1731 41.2251 49.1725 41.2251 49.1725 40.997L49.1722 28.8747Z" fill="#01378A"/>
<path d="M26.916 35.2809C26.916 29.4528 26.916 23.6248 26.916 17.7969C26.916 17.3139 26.9277 16.8312 27.0115 16.3537C27.0842 15.9408 27.3726 15.6876 27.7689 15.6837C28.2154 15.6791 28.4752 15.8919 28.5674 16.3335C28.6744 16.8433 28.7284 17.3627 28.7284 17.8836C28.7264 29.4312 28.7264 40.9787 28.7284 52.5261C28.7284 52.8791 28.7248 53.2324 28.6583 53.5798C28.5918 53.9272 28.4439 54.2375 28.0544 54.3053C27.5004 54.4031 27.0236 54.2672 26.9408 53.5293C26.9082 53.236 26.9212 52.9427 26.9212 52.6493C26.9212 46.8592 26.9212 41.0689 26.9212 35.2783L26.916 35.2809Z" fill="#01378A"/>
<path d="M11.889 20.1386C11.889 19.7749 11.889 19.4112 11.889 19.0474C11.889 17.7021 12.8687 16.6683 14.2141 16.5562C14.8864 16.5005 15.5268 16.5712 16.1161 16.9105C16.8976 17.3605 17.2766 18.071 17.3118 18.951C17.3444 19.7423 17.3219 20.5359 17.3164 21.3282C17.3167 21.5735 17.2709 21.8167 17.1815 22.0452C17.1248 22.1869 17.1623 22.2573 17.2793 22.3346C17.4882 22.4708 17.6844 22.6279 17.8894 22.7684C17.9783 22.83 18.0015 22.8818 17.9219 22.974C17.7199 23.208 17.5228 23.4464 17.3307 23.6891C17.2584 23.78 17.2004 23.7738 17.1153 23.7093C16.9253 23.5649 16.7242 23.4348 16.5375 23.2856C16.4335 23.2028 16.3586 23.2093 16.2517 23.2823C15.2919 23.9384 13.6643 23.9015 12.7644 23.1497C12.1957 22.6748 11.9242 22.0556 11.8903 21.3291C11.874 20.9319 11.8894 20.5349 11.889 20.1386ZM15.814 21.2708C15.8218 21.2473 15.8276 21.2232 15.8312 21.1988C15.8312 20.4713 15.8361 19.7439 15.829 19.0152C15.826 18.8074 15.7646 18.6047 15.652 18.4302C15.3707 17.9853 14.772 17.792 14.1906 17.9586C13.7017 18.0984 13.381 18.5208 13.3758 19.0507C13.3703 19.7508 13.3758 20.4521 13.3726 21.1512C13.3683 22.0888 14.1375 22.5223 15.0021 22.3186C15.0321 22.3114 15.0735 22.2958 15.0829 22.2733C15.1018 22.227 15.0504 22.2124 15.021 22.1918C14.833 22.054 14.6452 21.9155 14.4536 21.7825C14.3705 21.7245 14.3679 21.6736 14.4318 21.5983C14.6319 21.3626 14.8292 21.1245 15.0236 20.8839C15.0927 20.7986 15.154 20.7914 15.2413 20.8592C15.4245 20.9987 15.6122 21.1267 15.814 21.2708Z" fill="#01378A"/>
<path d="M38.7508 21.3062C36.7686 21.3062 34.7863 21.3062 32.8039 21.3062C32.5703 21.3113 32.3372 21.2797 32.1133 21.2127C31.7363 21.0915 31.5453 20.8086 31.543 20.3794C31.5404 19.9599 31.7275 19.6819 32.0941 19.548C32.3548 19.4528 32.6273 19.4407 32.8962 19.4401C36.416 19.4338 39.9358 19.4323 43.4557 19.4355C43.9709 19.4355 44.4868 19.4114 45.0018 19.4613C45.1752 19.4736 45.3452 19.5157 45.5043 19.5858C45.8628 19.7523 45.9743 20.0635 45.9635 20.4302C45.9531 20.7786 45.8048 21.0471 45.4655 21.1798C45.225 21.2753 44.9718 21.3043 44.7159 21.3046C42.727 21.3066 40.7387 21.3071 38.7508 21.3062Z" fill="#01378A"/>
<path d="M38.7055 39.9042C40.6229 39.9042 42.5403 39.9048 44.4575 39.9061C44.7182 39.9061 44.9789 39.9133 45.2344 39.9648C45.6809 40.0548 45.9133 40.3152 45.9335 40.7395C45.9567 41.2316 45.7588 41.5288 45.3166 41.6693C45.0383 41.7576 44.7482 41.7648 44.463 41.7651C40.9054 41.7727 37.3479 41.7747 33.7905 41.771C33.2814 41.771 32.7694 41.8036 32.2639 41.7104C31.6056 41.5875 31.2914 40.8979 31.6349 40.321C31.8213 40.0088 32.1391 39.9511 32.4669 39.9299C33.3293 39.8755 34.1943 39.9091 35.0556 39.9048C36.2723 39.8996 37.4889 39.9042 38.7055 39.9042Z" fill="#01378A"/>
<path d="M38.7357 33.0264C40.7453 33.0264 42.7551 33.0271 44.7651 33.0287C44.9769 33.0242 45.1882 33.0524 45.3915 33.1121C45.7542 33.2271 45.9416 33.4677 45.9651 33.8552C45.9911 34.2788 45.8275 34.581 45.4834 34.7325C45.278 34.8199 45.057 34.8643 44.8338 34.8629C43.6883 34.874 42.543 34.8873 41.3978 34.8893C38.8991 34.893 36.4005 34.893 33.9018 34.8893C33.4518 34.8893 33.0017 34.8749 32.5516 34.8612C32.4433 34.8552 32.336 34.8381 32.2312 34.8101C31.728 34.6866 31.5009 34.3561 31.5468 33.8216C31.5843 33.3744 31.8809 33.0997 32.3684 33.0521C32.6171 33.028 32.8661 33.0195 33.1157 33.0195C34.9895 33.0208 36.8632 33.0208 38.7367 33.0195L38.7357 33.0264Z" fill="#01378A"/>
<path d="M38.755 36.4766C40.7539 36.4766 42.7529 36.4766 44.7518 36.4766C44.9799 36.4766 45.208 36.4925 45.4258 36.5675C45.7761 36.6871 45.9596 36.9482 45.9681 37.3337C45.9775 37.7613 45.8123 38.0452 45.4697 38.1843C45.231 38.2774 44.9764 38.323 44.7202 38.3186C40.7284 38.3212 36.7369 38.322 32.7456 38.3209C32.5774 38.3189 32.4099 38.2988 32.246 38.2609C31.6763 38.1364 31.4964 37.7274 31.5557 37.218C31.5994 36.836 31.8252 36.6151 32.1945 36.5336C32.3748 36.4947 32.5588 36.476 32.7433 36.4779C34.7466 36.4777 36.7505 36.4772 38.755 36.4766Z" fill="#01378A"/>
<path d="M38.754 29.5977C40.7577 29.5977 42.7615 29.5977 44.7654 29.5977C44.9671 29.5977 45.1669 29.6065 45.3615 29.6628C45.7447 29.774 45.9429 30.0243 45.9631 30.4186C45.9862 30.871 45.8132 31.1627 45.4329 31.3119C45.1809 31.4097 44.9143 31.4351 44.6507 31.4355C40.7191 31.4411 36.7876 31.4431 32.856 31.4413C32.6116 31.4464 32.3678 31.4141 32.1331 31.3455C31.7254 31.2174 31.5308 30.916 31.5436 30.4434C31.555 30.0197 31.7525 29.7668 32.1628 29.6553C32.3097 29.6163 32.4612 29.5971 32.6132 29.5983C34.6606 29.5985 36.7075 29.5983 38.754 29.5977Z" fill="#01378A"/>
<path d="M44.2556 17.7161C40.7325 17.7161 37.2091 17.7229 33.686 17.7083C33.1949 17.7063 32.6978 17.7373 32.2086 17.6564C31.8176 17.5913 31.578 17.3488 31.5422 17.0017C31.492 16.5158 31.652 16.2058 32.0395 16.0442C32.1855 15.9849 32.3404 15.9502 32.4977 15.9415C33.1046 15.9011 33.7127 15.9144 34.3202 15.9138C37.817 15.9099 41.3136 15.9091 44.81 15.9115C45.0165 15.9088 45.2219 15.9419 45.4171 16.0093C45.83 16.1573 45.9985 16.4522 45.965 16.9639C45.9425 17.3106 45.6981 17.5688 45.3112 17.6535C44.9996 17.7216 44.6835 17.6783 44.3696 17.6903C44.3315 17.6903 44.2934 17.6903 44.2556 17.6903V17.7161Z" fill="#01378A"/>
<path d="M18.5652 28.7392C16.6486 28.7392 14.732 28.7392 12.8155 28.7392C12.6255 28.7409 12.436 28.7207 12.2507 28.679C11.853 28.5857 11.6614 28.353 11.6314 27.9294C11.6041 27.5464 11.8009 27.2277 12.1503 27.0931C12.3125 27.0301 12.4847 26.997 12.6587 26.9953C12.8161 26.9953 12.9735 26.9953 13.1309 26.9953C16.2685 26.9526 19.406 26.9679 22.5435 26.966C23.1246 26.966 23.7054 26.966 24.2865 26.9722C24.5081 26.9748 24.7314 26.9868 24.9432 27.0667C25.3467 27.2182 25.5442 27.5451 25.4934 27.9753C25.4415 28.412 25.1831 28.6597 24.7366 28.7112C24.5262 28.7343 24.3147 28.7452 24.103 28.7438C22.2571 28.7403 20.4111 28.7388 18.5652 28.7392Z" fill="#01378A"/>
<path d="M36.1242 25.188C36.222 25.0013 36.2963 24.8592 36.3686 24.7151C36.6896 24.0747 37.0087 23.433 37.3313 22.7923C37.4526 22.5521 37.6247 22.3745 37.916 22.364C38.2674 22.3513 38.4975 22.499 38.633 22.8399C38.7187 23.0566 38.7862 23.2805 38.8612 23.5015C39.249 24.653 39.6371 25.8046 40.0253 26.9561C40.0432 27.0089 40.04 27.0949 40.1101 27.0972C40.1801 27.0995 40.1889 27.0167 40.2147 26.9669C40.725 25.9415 41.2348 24.9159 41.7438 23.8899C41.9638 23.4467 42.3113 23.216 42.8151 23.2508C43.112 23.2714 43.3773 23.2094 43.6279 23.0321C43.9177 22.8272 44.3449 22.8992 44.6128 23.1651C44.9081 23.4584 44.9713 23.8987 44.766 24.2406C44.5092 24.6692 43.977 24.7947 43.5471 24.53C43.4819 24.4899 43.4239 24.4407 43.3597 24.3997C43.0612 24.2103 42.7366 24.2911 42.5746 24.6037C42.4348 24.8735 42.3109 25.1515 42.175 25.4234C41.8165 26.1423 41.4562 26.8603 41.094 27.5773C41.0412 27.6782 40.9829 27.7762 40.9193 27.8706C40.5406 28.4478 39.5981 28.4709 39.2223 27.7878C39.1675 27.688 39.1216 27.5835 39.0851 27.4756C38.7235 26.4066 38.3636 25.3371 38.0053 24.267C38.0028 24.256 37.9996 24.2451 37.9959 24.2344C37.9695 24.178 37.9731 24.0835 37.8981 24.0822C37.8391 24.0822 37.8287 24.1699 37.8026 24.2211C37.5513 24.7148 37.3066 25.2112 37.053 25.703C36.7923 26.2068 36.3856 26.3874 35.8331 26.2619C35.4952 26.1844 35.282 25.9637 35.1667 25.6515C35.0164 25.2448 34.8831 24.8315 34.743 24.4202C34.6667 24.1947 34.6367 24.1758 34.4171 24.2432C33.9305 24.3915 33.4393 24.341 32.9505 24.268C32.753 24.2387 32.6086 23.9946 32.622 23.7645C32.6353 23.5344 32.824 23.3124 33.0583 23.2831C33.2787 23.2554 33.5016 23.2293 33.7235 23.2534C33.9797 23.2808 34.1853 23.2023 34.3701 23.0217C34.7586 22.6424 35.2256 22.7388 35.4456 23.2345C35.4675 23.2841 35.486 23.3352 35.5033 23.3867C35.649 23.8127 35.7934 24.239 35.9397 24.665C35.9915 24.8243 36.0492 24.9817 36.1242 25.188Z" fill="#01378A"/>
<path d="M18.6953 20.1361C18.722 19.6374 18.6728 19.1382 18.7302 18.6392C18.8521 17.5784 19.6261 16.7691 20.6886 16.5961C21.1931 16.5136 21.693 16.5012 22.1878 16.6453C23.0781 16.904 23.6081 17.5252 23.9034 18.3752C23.9581 18.5336 23.9917 18.7011 24.0337 18.8621C24.0549 18.9446 24.0386 18.997 23.9359 18.9964C23.5179 18.9933 23.0998 18.9933 22.6815 18.9964C22.5922 18.9964 22.5606 18.9495 22.5388 18.8729C22.4885 18.6833 22.4015 18.5054 22.2826 18.3495C21.9472 17.9228 21.4655 17.8133 20.9161 17.9838C20.4748 18.1207 20.1961 18.5378 20.1912 19.0557C20.1843 19.7673 20.1843 20.4788 20.1912 21.1904C20.1965 21.8318 20.5393 22.2486 21.1347 22.3549C21.7374 22.4624 22.2497 22.175 22.4775 21.6024C22.6124 21.2628 22.6127 21.2624 22.9872 21.2628H23.9161C24.0024 21.2628 24.064 21.2761 24.0415 21.3931C23.8336 22.4608 23.2088 23.4043 22.0708 23.6654C21.4052 23.8245 20.706 23.7651 20.0768 23.4959C19.2732 23.1547 18.8667 22.5061 18.7383 21.6656C18.6572 21.1578 18.7211 20.6468 18.6953 20.1361Z" fill="#01378A"/>
<path d="M36.1964 43.353H39.8629C39.917 43.353 39.9715 43.353 40.0259 43.353C40.4926 43.3745 40.7429 43.63 40.7527 44.0977C40.7556 44.2173 40.7569 44.3369 40.7527 44.4562C40.7351 44.8923 40.4571 45.1732 40.0203 45.1928C39.8303 45.2009 39.64 45.1957 39.45 45.1957C37.87 45.1957 36.2887 45.2433 34.71 45.2195C33.9447 45.2081 33.1782 45.1944 32.4143 45.1947C31.9697 45.1947 31.7259 44.9884 31.6536 44.5507C31.6233 44.3625 31.6233 44.1706 31.6536 43.9823C31.724 43.542 31.9469 43.3546 32.4012 43.353C33.2268 43.3498 34.0523 43.353 34.8781 43.353H36.1964Z" fill="#01378A"/>
<path d="M35.7146 48.6487H32.5377C31.9184 48.6487 31.7248 48.4792 31.6486 47.8626C31.6252 47.657 31.6433 47.4487 31.7017 47.2502C31.7864 46.9504 31.9725 46.8073 32.2844 46.806C33.11 46.8031 33.9352 46.806 34.7614 46.806H39.0793C39.5607 46.806 39.7311 46.9484 39.8178 47.4236C39.8613 47.6594 39.8523 47.9018 39.7914 48.1337C39.7018 48.4779 39.4655 48.6425 39.0392 48.648C38.5126 48.6552 37.9859 48.6519 37.4589 48.6523H35.7159L35.7146 48.6487Z" fill="#01378A"/>
<path d="M20.01 32.0642C18.9564 32.0642 17.9027 32.0642 16.8487 32.0642C16.6532 32.0687 16.4581 32.044 16.2699 31.9909C15.9146 31.8834 15.736 31.6187 15.7344 31.2104C15.7324 30.774 15.8925 30.5299 16.2601 30.4116C16.3896 30.3709 16.5243 30.3489 16.66 30.3464C18.3482 30.3011 20.0364 30.3304 21.7249 30.3223C22.3054 30.3193 22.8862 30.3223 23.4663 30.3477C24.3387 30.3855 24.4362 31.049 24.2586 31.5861C24.1849 31.8094 24.004 31.9329 23.7821 31.9906C23.6142 32.0358 23.4413 32.0592 23.2675 32.0603H20.0084L20.01 32.0642Z" fill="#01378A"/>
<path d="M20.0196 36.8218C18.9767 36.8218 17.9338 36.8218 16.8909 36.8218C16.6899 36.8248 16.4894 36.8017 16.2944 36.753C15.9561 36.6637 15.7443 36.3971 15.7335 36.0589C15.7179 35.57 15.8639 35.3093 16.2384 35.1789C16.3664 35.1333 16.5011 35.1094 16.637 35.1082C17.8472 35.1006 19.0575 35.0922 20.2679 35.0831C20.5557 35.0811 20.8438 35.073 21.1313 35.0831C21.9017 35.1137 22.6722 35.0997 23.4426 35.1088C23.9067 35.1144 24.2274 35.3259 24.3014 35.7078C24.4135 36.286 24.2017 36.7335 23.5518 36.7889C22.6904 36.8622 21.8268 36.8088 20.9641 36.8215C20.6492 36.826 20.3341 36.8215 20.0189 36.8215L20.0196 36.8218Z" fill="#01378A"/>
<path d="M20.0313 41.0571C18.9343 41.0571 17.837 41.0571 16.7396 41.0571C16.593 41.0567 16.4471 41.0368 16.3058 40.9978C15.931 40.8974 15.7384 40.6393 15.7345 40.2306C15.7299 39.7642 15.8942 39.5159 16.2856 39.4018C16.4154 39.3622 16.5504 39.3416 16.6861 39.3409C16.9957 39.3409 17.3054 39.3428 17.615 39.3409C18.505 39.3334 19.3954 39.306 20.2848 39.3207C21.3219 39.3376 22.3583 39.337 23.395 39.3415C23.5145 39.3434 23.6333 39.3603 23.7486 39.3917C24.1537 39.497 24.3284 39.7502 24.3261 40.2163C24.3241 40.6513 24.1387 40.9007 23.7395 41.0014C23.5706 41.0419 23.3972 41.061 23.2236 41.0581C22.1598 41.0566 21.0957 41.0562 20.0313 41.0571Z" fill="#01378A"/>
<path d="M34.8536 50.2347C35.6899 50.2347 36.5264 50.2347 37.3631 50.2347C37.8389 50.2347 38.025 50.4241 38.0505 50.9048C38.0632 51.144 38.0716 51.3813 38.0133 51.6143C37.9292 51.9503 37.7653 52.0653 37.4215 52.0758C35.7825 52.1269 34.1428 52.0953 32.5035 52.0996C32.4057 52.0996 32.3079 52.0839 32.2118 52.0833C31.9064 52.0813 31.7461 51.8633 31.6929 51.613C31.6258 51.3101 31.6258 50.9962 31.6929 50.6933C31.7685 50.3599 31.9211 50.237 32.2652 50.237C33.1269 50.2331 33.9903 50.2347 34.8536 50.2347Z" fill="#01378A"/>
<path d="M11.9863 35.9762C11.9863 35.0546 12.6835 34.3584 13.6045 34.3594C13.8154 34.3588 14.0243 34.4002 14.2191 34.4811C14.4138 34.5621 14.5905 34.6809 14.7389 34.8308C14.8873 34.9807 15.0044 35.1586 15.0833 35.3542C15.1623 35.5498 15.2015 35.7591 15.1988 35.97C15.1949 36.7868 14.547 37.5491 13.5924 37.5631C12.7144 37.5758 11.9857 36.8422 11.9863 35.9762ZM12.6205 35.9472C12.6205 36.5159 13.0276 36.9341 13.583 36.936C14.1276 36.936 14.5767 36.5045 14.5858 35.9687C14.5949 35.4329 14.1318 34.9672 13.594 34.9672C13.0403 34.9672 12.6205 35.388 12.6205 35.9472Z" fill="#01378A"/>
<path d="M13.0282 32.5508C12.8298 32.5508 12.7001 32.4697 12.6176 32.3227C12.4194 31.9674 12.2247 31.6106 12.0332 31.2521C11.9472 31.0891 11.9778 30.9496 12.101 30.861C12.2242 30.7723 12.3732 30.7854 12.4986 30.9072C12.631 31.0353 12.7594 31.168 12.8826 31.3049C13.0165 31.4505 13.0507 31.4558 13.1994 31.3205C13.6641 30.897 14.1287 30.4734 14.5933 30.0495C14.6404 30.0047 14.6906 29.9633 14.7435 29.9256C14.8758 29.8353 15.0082 29.8441 15.1134 29.9455C15.2187 30.0468 15.2347 30.1785 15.1294 30.3115C14.914 30.583 14.6884 30.847 14.4649 31.1122C14.1298 31.5105 13.7915 31.9058 13.4575 32.3047C13.3372 32.4452 13.1977 32.5466 13.0282 32.5508Z" fill="#01378A"/>
<path d="M13.0043 41.5487C12.8325 41.5601 12.7051 41.4734 12.6226 41.3274C12.4201 40.9687 12.2223 40.6073 12.0292 40.2431C11.9483 40.0903 11.9803 39.955 12.0979 39.8634C12.2156 39.7718 12.3671 39.7761 12.4949 39.8999C12.6389 40.0391 12.7745 40.1877 12.9091 40.3363C12.9958 40.4341 13.0721 40.438 13.1698 40.3484C13.6246 39.9293 14.0809 39.5123 14.5387 39.0975C14.5947 39.0464 14.6508 38.9949 14.7114 38.9496C14.8744 38.8283 14.9995 38.8303 15.1168 38.9496C15.2263 39.063 15.2306 39.1846 15.1051 39.3433C14.9239 39.5734 14.7323 39.795 14.5432 40.0186C14.1795 40.4494 13.8151 40.8798 13.4501 41.3098C13.3351 41.4486 13.2028 41.5539 13.0043 41.5487Z" fill="#01378A"/>
<path d="M42.4575 51.7248C42.4168 49.2694 44.0379 46.9225 46.4496 46.1843C48.4187 45.5804 50.2213 45.962 51.788 47.3113C52.8909 48.261 53.5407 49.4871 53.7079 50.9247C53.9983 53.4189 53.0753 55.3779 50.9501 56.7301C49.9852 57.3522 48.8366 57.6256 47.6949 57.5051C45.3562 57.2705 43.7592 56.0036 42.8522 53.8549C42.5695 53.1814 42.4349 52.4549 42.4575 51.7248ZM48.115 47.3384C46.9587 47.3436 45.9509 47.7415 45.1378 48.5576C44.0157 49.6849 43.6132 51.0557 43.9111 52.6181C44.2979 54.6453 46.1993 56.2768 48.4246 56.1034C49.4102 56.0268 50.2709 55.6631 50.9827 54.9865C52.1269 53.8986 52.5738 52.5565 52.3352 50.9973C52.007 48.8493 50.1747 47.311 48.115 47.3384Z" fill="#01378A"/>
<path d="M51.9934 51.5725C51.9934 53.6557 50.7014 55.2853 48.8685 55.6995C47.2136 56.0737 45.4484 55.2279 44.648 53.6789C44.3741 53.1469 44.2148 52.5633 44.1803 51.9659C44.05 49.9814 45.4439 48.2082 47.3599 47.8304C48.9546 47.5159 50.6473 48.3017 51.4664 49.7667C51.8135 50.3862 51.9875 51.0491 51.9934 51.5725ZM45.542 51.785C45.5348 51.8828 45.5553 52.0132 45.5713 52.1497C45.7584 53.7297 47.4153 54.757 48.9177 54.2254C50.2465 53.7542 50.9263 52.283 50.4573 50.9011C50.0767 49.7774 48.9435 49.0083 47.7849 49.1667C46.5282 49.3371 45.5429 50.455 45.542 51.785Z" fill="#01378A"/>
<path d="M47.4206 53.3123C47.2251 53.3371 47.0875 53.2387 46.9969 53.0754C46.7679 52.6567 46.5437 52.2351 46.3243 51.8105C46.2265 51.6205 46.2669 51.4774 46.426 51.3699C46.5749 51.2692 46.7088 51.2881 46.8597 51.4432C47.0106 51.5983 47.1671 51.7652 47.316 51.9321C47.4177 52.0461 47.507 52.0465 47.6181 51.9412C48.1305 51.4558 48.645 50.9729 49.1616 50.4925C49.232 50.4248 49.3064 50.3614 49.3846 50.3029C49.527 50.1995 49.6613 50.2083 49.7828 50.3195C49.8398 50.3679 49.876 50.4363 49.8839 50.5106C49.8919 50.5849 49.871 50.6594 49.8255 50.7187C49.7053 50.8921 49.5684 51.0547 49.4344 51.218C48.931 51.8301 48.4266 52.4413 47.9212 53.0516C47.7922 53.2074 47.6471 53.3322 47.4206 53.3123Z" fill="#01378A"/>
</g>
<defs>
<clipPath id="clip0_26668_125238">
<rect width="60.8091" height="60.8091" fill="white" transform="translate(0.617188 0.71875)"/>
</clipPath>
</defs>
</svg>
