<svg width="62" height="62" viewBox="0 0 62 62" fill="none" xmlns="http://www.w3.org/2000/svg">
<g clip-path="url(#clip0_26668_125946)">
<path d="M52.9212 25.5201C52.9212 31.2351 52.9311 36.9502 52.9093 42.6652C52.9093 43.4584 53.0779 43.974 53.7858 44.4737C55.3262 45.5539 56.4773 47.1018 57.0685 48.8878C57.6597 50.6739 57.6594 52.6029 57.0677 54.3888C55.8045 58.095 52.2966 60.6015 48.4436 60.4687C45.6416 60.3715 43.3373 59.1896 41.6478 56.9409C41.4702 56.6707 41.2236 56.4528 40.9335 56.3098C40.6434 56.1669 40.3204 56.1041 39.9979 56.1279C35.8336 56.1576 31.6693 56.1675 27.5049 56.1279C26.5868 56.1279 26.3151 56.4095 26.3151 57.3177C26.333 59.7945 25.5953 60.4905 23.1225 60.4905C17.804 60.4905 12.4856 60.4905 7.16716 60.4905C5.03741 60.4905 4.24222 59.6973 4.24023 57.5477C4.24023 52.9881 4.24023 48.4272 4.24023 43.8649C4.24023 41.7213 5.02352 40.9459 7.17113 40.94C8.02977 40.94 8.89238 40.8924 9.74904 40.94C10.6057 40.9876 10.8873 40.6366 10.8 39.8434C10.7862 39.5792 10.7862 39.3144 10.8 39.0502C10.8 28.8707 10.8 18.6952 10.8 8.52369C10.8 4.98996 12.4955 3.29448 16.0273 3.28853C17.2825 3.28853 18.5378 3.27267 19.795 3.28853C20.38 3.28853 20.6695 3.13188 20.7647 2.4755C20.963 1.09929 21.7284 0.492486 23.1443 0.480588C28.9611 0.470012 34.778 0.470012 40.5948 0.480588C41.973 0.480588 42.7107 1.05566 42.9308 2.40411C43.0518 3.14774 43.4047 3.3044 44.0611 3.29052C45.3818 3.26077 46.7025 3.27466 48.0271 3.29052C51.0948 3.31432 52.9113 5.09903 52.9212 8.16278C52.9351 13.9571 52.9212 19.7356 52.9212 25.5201ZM12.4777 26.7238C12.4777 28.5085 12.4777 30.2932 12.4777 32.0779C12.4869 36.5727 12.4995 41.0676 12.5153 45.5624C12.5153 46.7105 12.6918 46.8712 13.8459 46.8791C14.8692 46.8791 15.8944 46.8593 16.9176 46.8791C17.6732 46.897 18.0063 46.5757 17.9924 45.8162C17.9706 44.6601 17.9924 43.504 17.9924 42.3459C17.9924 40.9697 18.0261 40.94 19.3587 40.938C20.6913 40.936 22.0675 40.938 23.4239 40.938C25.5041 40.938 26.3191 41.7312 26.3369 43.8035C26.3528 45.7865 26.3806 47.7695 26.325 49.7525C26.2993 50.6825 26.6582 50.9423 27.5426 50.9423C31.1438 50.9086 34.7469 50.8947 38.348 50.9423C39.4149 50.9601 39.8908 50.6786 40.1506 49.5542C40.9319 46.1692 43.1251 44.0137 46.4625 43.1213C47.4104 42.8675 47.7079 42.4966 47.7059 41.5349C47.6722 31.0249 47.6841 20.515 47.6841 10.005C47.6751 9.83986 47.6751 9.67437 47.6841 9.50924C47.7594 8.79932 47.4858 8.48006 46.7342 8.51774C45.7764 8.56335 44.8166 8.55343 43.8588 8.51774C43.254 8.49791 42.79 8.63672 42.4033 9.14833C41.9492 9.74324 41.2452 9.87809 40.5313 9.87809C34.7476 9.87809 28.9644 9.87809 23.182 9.87809C22.5752 9.87809 21.8871 9.83842 21.5361 9.34267C20.9412 8.48601 20.1321 8.49196 19.2616 8.52171C18.6012 8.56444 17.9389 8.56444 17.2785 8.52171C16.3406 8.43445 16.0094 8.75967 16.0213 9.73531C16.0709 13.5348 16.0411 17.3362 16.0411 21.1356C16.0411 27.3147 16.0411 33.4944 16.0411 39.6748C16.0411 40.0833 15.8428 40.6366 16.3108 40.8646C16.9176 41.1502 16.8542 41.6182 16.8562 42.106C16.8562 42.8338 16.8562 43.5595 16.8562 44.2873C16.8562 45.7369 16.8443 45.7448 15.3411 45.7528C13.6357 45.7627 13.6357 45.7627 13.6338 44.0652C13.6338 43.6349 13.6238 43.2046 13.6338 42.7763C13.6476 42.2508 13.4355 41.5627 13.8063 41.2434C14.5301 40.6267 14.3556 39.889 14.3556 39.1632C14.3635 28.952 14.3635 18.7402 14.3556 8.52765C14.3556 7.08006 14.5737 6.86589 16.0173 6.85796C17.2072 6.85796 18.397 6.84011 19.5868 6.85796C20.2491 6.86985 20.729 6.82226 20.729 5.93387C20.729 5.09109 20.3423 4.94236 19.6304 4.96616C18.3771 4.99987 17.1199 4.96616 15.8627 4.97608C13.378 4.97608 12.4578 5.89421 12.4559 8.38884C12.4678 14.4992 12.475 20.6108 12.4777 26.7238ZM51.2436 24.9847C51.2436 19.3344 51.2436 13.6861 51.2436 8.03983C51.2436 6.0707 50.1906 4.99591 48.281 4.97409C46.8274 4.95625 45.3739 4.99194 43.9183 4.96021C43.2362 4.94633 42.9764 5.20809 42.9823 5.88827C42.9823 6.53869 43.1707 6.86986 43.8866 6.85399C45.2073 6.82226 46.528 6.83615 47.8526 6.85399C49.0781 6.86986 49.3538 7.15144 49.3557 8.39875C49.3557 11.5359 49.3557 14.675 49.3557 17.8121C49.3557 25.7719 49.3557 33.7324 49.3557 41.6935C49.3557 42.7386 49.6829 43.0816 50.7062 43.042C51.6342 43.0063 51.2218 42.2488 51.2237 41.8323C51.2634 36.2145 51.2436 30.6006 51.2436 24.9847ZM33.3013 54.4998C35.2169 54.4998 37.1325 54.5117 39.052 54.4998C39.5041 54.4998 40.1784 54.6664 40.109 53.8613C40.0554 53.2228 40.0019 52.5585 39.0084 52.5704C35.1118 52.608 31.2152 52.5981 27.3185 52.5704C26.5888 52.5704 26.327 52.8162 26.327 53.548C26.327 54.2797 26.6721 54.5177 27.3602 54.5097C29.3392 54.4859 31.3203 54.4978 33.3013 54.4998ZM47.6226 51.797C47.3132 52.1281 46.9305 52.5267 46.5557 52.9352C46.288 53.2267 46.1135 53.5638 46.4724 53.8811C46.7778 54.1528 47.0911 53.9823 47.3529 53.7463C47.5337 53.6017 47.6992 53.4389 47.8467 53.2604C48.4039 52.5029 48.8957 52.5763 49.4866 53.2604C49.8138 53.6412 50.256 54.3908 50.8252 53.8454C51.4736 53.2228 50.6606 52.7766 50.2679 52.4395C49.5501 51.8267 49.5778 51.3409 50.2997 50.8035C50.4527 50.6783 50.5929 50.5381 50.7181 50.3851C50.9759 50.1035 51.2118 49.7743 50.8886 49.4332C50.5118 49.0366 50.1767 49.3321 49.8674 49.6018C48.6776 50.6389 48.6776 50.6389 47.456 49.6018C47.4045 49.5582 47.3589 49.5126 47.3053 49.4729C47.0257 49.2607 46.7302 49.0981 46.4308 49.4193C46.1314 49.7406 46.3059 50.0361 46.5319 50.2958C46.7917 50.5933 47.0812 50.865 47.3529 51.1545C47.4476 51.2308 47.5218 51.3295 47.5689 51.4417C47.616 51.5538 47.6344 51.6759 47.6226 51.797ZM15.008 54.2678C16.0947 54.2678 17.1893 54.2678 18.2681 54.2678C18.6349 54.2678 19.0613 54.2341 19.0613 53.7403C19.0613 53.2466 18.6785 53.1732 18.2958 53.1712C16.1224 53.1712 13.9491 53.1712 11.7757 53.1712C11.391 53.1712 10.9825 53.2624 10.9825 53.7205C10.9666 54.2936 11.4584 54.2658 11.8451 54.2718C12.9001 54.2777 13.955 54.2678 15.008 54.2678ZM15.0536 50.1392C13.9689 50.1392 12.8842 50.1392 11.7975 50.1392C11.4366 50.1392 10.9924 50.1531 10.9825 50.6429C10.9726 51.1327 11.4088 51.2378 11.8272 51.2378C13.9649 51.2378 16.1026 51.2378 18.2403 51.2378C18.6647 51.2378 19.089 51.1227 19.0553 50.6052C19.0216 50.1233 18.5695 50.1332 18.2106 50.1293C17.1556 50.1312 16.1066 50.1372 15.0536 50.1392Z" fill="#FF9500"/>
<path d="M35.4897 34.5105H27.7757C27.4791 34.5198 27.1821 34.5072 26.8874 34.4728C26.4551 34.4113 26.1338 34.1674 26.116 33.7093C26.0981 33.2512 26.4095 32.9835 26.8358 32.9003C27.1288 32.853 27.4256 32.8344 27.7222 32.8447C32.8648 32.8447 38.0081 32.8447 43.152 32.8447C43.8124 32.8447 44.7384 32.6643 44.7642 33.6637C44.7979 34.7226 43.852 34.4946 43.2056 34.4986C40.6336 34.5224 38.0616 34.5105 35.4897 34.5105Z" fill="#FF9500"/>
<path d="M35.4278 25.6021C32.7507 25.6021 30.0749 25.6021 27.4005 25.6021C26.8056 25.6021 26.1512 25.6021 26.1294 24.8446C26.1076 24.0514 26.8036 23.9542 27.4164 23.9523C32.7665 23.943 38.1174 23.943 43.4689 23.9523C43.6339 23.9532 43.7985 23.9691 43.9607 23.9998C44.4624 24.099 44.853 24.337 44.7856 24.918C44.7261 25.4494 44.3216 25.5962 43.8496 25.5982C42.3637 25.5982 40.8771 25.5982 39.3898 25.5982L35.4278 25.6021Z" fill="#FF9500"/>
<path d="M35.5346 15.1482C38.1112 15.1482 40.6891 15.1482 43.2683 15.1482C43.5652 15.1334 43.8629 15.1487 44.1567 15.1938C44.3406 15.2129 44.5102 15.3015 44.6308 15.4417C44.7514 15.5818 44.8137 15.7627 44.8052 15.9474C44.8171 16.1155 44.7673 16.2822 44.6651 16.4162C44.5628 16.5502 44.4152 16.6422 44.2499 16.6751C43.8643 16.7597 43.4708 16.8029 43.076 16.804C37.9915 16.812 32.9071 16.812 27.8227 16.804C27.1306 16.804 26.1292 16.9627 26.1609 15.9196C26.1906 14.9559 27.1524 15.1601 27.8167 15.1561C30.3847 15.1403 32.9587 15.1482 35.5346 15.1482Z" fill="#FF9500"/>
<path d="M32.8813 29.7717H27.3289C26.734 29.7717 26.1074 29.742 26.1133 28.9646C26.1133 28.2785 26.7082 28.1476 27.2595 28.1456C31.055 28.1337 34.8505 28.1337 38.646 28.1456C39.1953 28.1456 39.7862 28.2745 39.7664 28.9805C39.7465 29.6864 39.1893 29.7737 38.6182 29.7737L32.8813 29.7717Z" fill="#FF9500"/>
<path d="M32.9665 19.3165H38.509C39.1039 19.3165 39.7345 19.3502 39.7702 20.0959C39.8059 20.8415 39.1475 20.9426 38.5804 20.9446C34.8523 20.9578 31.1243 20.9578 27.3962 20.9446C26.831 20.9446 26.1509 20.901 26.137 20.1514C26.1211 19.3264 26.8112 19.3145 27.4299 19.3165H32.9665Z" fill="#FF9500"/>
<path d="M32.8747 38.6775H27.3222C26.88 38.6775 26.4517 38.6358 26.2038 38.1996C25.8905 37.6542 26.2812 37.0911 27.0783 37.0455C28.0322 36.9899 28.9919 37.0197 29.9478 37.0197H37.8679C38.1642 37.0121 38.4607 37.0193 38.7563 37.0415C39.2778 37.0931 39.8013 37.2398 39.7676 37.8803C39.7379 38.497 39.2501 38.6735 38.7067 38.6735C36.7594 38.6735 34.8127 38.6735 32.8667 38.6735L32.8747 38.6775Z" fill="#FF9500"/>
<path d="M23.5007 34.2832C23.4591 34.6798 23.1973 34.9455 22.9237 35.1775C22.4279 35.5999 22.4259 35.9708 22.9395 36.3832C23.0622 36.4938 23.1707 36.619 23.2628 36.756C23.5324 37.113 23.5959 37.4838 23.2489 37.8229C22.9018 38.162 22.4755 38.1957 22.18 37.8764C21.4939 37.1328 20.899 37.0019 20.197 37.8506C19.9214 38.1798 19.4613 38.1759 19.1321 37.8506C19.0477 37.7804 18.9803 37.692 18.9348 37.592C18.8893 37.4921 18.867 37.3831 18.8694 37.2733C18.8719 37.1635 18.8992 37.0557 18.9491 36.9579C18.999 36.8601 19.0704 36.7748 19.1579 36.7084C19.9392 36.0739 19.9511 35.5464 19.1718 34.9019C19.0757 34.8325 18.9969 34.7418 18.9417 34.6368C18.8865 34.5319 18.8564 34.4156 18.8537 34.2971C18.851 34.1785 18.8758 34.061 18.9262 33.9536C18.9766 33.8463 19.0511 33.7521 19.144 33.6784C19.5406 33.3095 19.9809 33.4285 20.2823 33.7835C20.9129 34.5271 21.4721 34.6084 22.0829 33.7835C22.19 33.6316 22.3511 33.5264 22.5332 33.4896C22.7154 33.4527 22.9047 33.4869 23.0625 33.5852C23.1925 33.6502 23.3021 33.7497 23.3794 33.8728C23.4567 33.9959 23.4986 34.1379 23.5007 34.2832Z" fill="#FF9500"/>
<path d="M19.6659 15.7391C19.832 15.747 19.994 15.7938 20.1386 15.8758C20.2833 15.9577 20.4067 16.0726 20.4988 16.211C20.9688 16.7861 21.3892 16.7762 21.8591 16.211C22.1387 15.8759 22.4917 15.6003 22.9795 15.7787C23.5744 15.9969 23.6835 16.677 23.1025 17.2164C22.5215 17.7558 22.3311 18.2079 23.0668 18.785C23.4852 19.1122 23.7212 19.592 23.2651 20.066C22.7753 20.5756 22.2736 20.3416 21.9087 19.8935C21.3753 19.2391 20.939 19.2688 20.4234 19.9074C20.0863 20.3238 19.6064 20.5598 19.1365 20.1215C18.6665 19.6833 18.8291 19.1736 19.2535 18.8345C20.013 18.2238 19.8682 17.73 19.2039 17.1827C19.0573 17.0692 18.9538 16.9092 18.9102 16.729C18.8665 16.5488 18.8855 16.3592 18.9639 16.1912C19.0169 16.0504 19.1137 15.9304 19.2401 15.849C19.3666 15.7676 19.5159 15.729 19.6659 15.7391Z" fill="#FF9500"/>
<path d="M18.9045 28.4383C18.9005 28.2882 18.9331 28.1394 18.9994 28.0046C19.0657 27.8699 19.1638 27.7533 19.2852 27.6649C19.9198 27.1632 19.9714 26.6913 19.3031 26.1698C19.167 26.0735 19.0586 25.9431 18.989 25.7917C18.9194 25.6402 18.8909 25.4731 18.9065 25.3072C18.9088 25.1741 18.9488 25.0444 19.0218 24.9332C19.0948 24.8219 19.1978 24.7336 19.319 24.6785C19.4841 24.5915 19.6751 24.5666 19.8571 24.6084C20.039 24.6503 20.1999 24.7561 20.3105 24.9066C20.8776 25.6125 21.3972 25.7494 22.0159 24.9522C22.3331 24.5437 22.8091 24.4267 23.2295 24.8193C23.7094 25.2635 23.5527 25.7533 23.1204 26.0964C22.3807 26.6913 22.4462 27.1692 23.1402 27.7363C23.5368 28.0556 23.7014 28.5295 23.2711 28.938C23.1916 29.0259 23.0933 29.0948 22.9836 29.1397C22.874 29.1846 22.7556 29.2044 22.6373 29.1975C22.519 29.1907 22.4037 29.1574 22.2999 29.1001C22.1962 29.0429 22.1066 28.9631 22.0377 28.8667C21.4091 28.1171 20.8895 28.1984 20.3045 28.8984C20.1827 29.0381 20.0167 29.1319 19.8342 29.1644C19.6518 29.1968 19.4637 29.1659 19.3011 29.0768C19.1784 29.0227 19.0749 28.9328 19.0042 28.8189C18.9334 28.7049 18.8987 28.5723 18.9045 28.4383Z" fill="#FF9500"/>
</g>
<defs>
<clipPath id="clip0_26668_125946">
<rect width="53.2776" height="60" fill="white" transform="translate(4.24414 0.488281)"/>
</clipPath>
</defs>
</svg>
