<svg width="62" height="62" viewBox="0 0 62 62" fill="none" xmlns="http://www.w3.org/2000/svg">
<g clip-path="url(#clip0_7644_41985)">
<g clip-path="url(#clip1_7644_41985)">
<path d="M15.0203 45.383C17.7937 47.6615 21.0236 49.3186 24.492 50.2425C24.7002 50.2998 24.9111 50.3492 25.1193 50.4013C25.8194 50.5783 26.3739 50.9219 26.1422 51.747C25.9392 52.4757 25.3249 52.5278 24.669 52.4029C22.4284 51.9273 20.2659 51.1388 18.2452 50.0603C15.1208 48.4183 12.3537 46.172 10.1046 43.4517C7.85553 40.7315 6.16926 37.5915 5.14374 34.2141C4.11821 30.8368 3.77384 27.2894 4.13065 23.7778C4.48745 20.2663 5.53831 16.8606 7.2222 13.7586C14.0755 1.00471 30.515 -3.79491 43.2506 3.26657C56.7359 10.7445 61.1529 27.5484 53.0399 40.7005C49.2788 46.8016 43.7842 50.5757 36.8763 52.3456C36.5003 52.4403 36.1135 52.485 35.7258 52.4783C35.527 52.4759 35.3353 52.4033 35.1848 52.2732C35.0343 52.1432 34.9346 51.9642 34.9033 51.7678C34.794 51.3071 34.9033 50.8698 35.364 50.672C35.8436 50.4805 36.3369 50.3256 36.8398 50.2087C54.7994 45.4923 61.0852 23.0377 48.196 9.69037C38.6046 -0.239442 23.0136 -0.460682 13.2113 9.18282C3.87496 18.3916 3.70577 33.9384 12.8287 43.3424C13.5121 44.0715 14.2443 44.7533 15.0203 45.383Z" fill="#F29B25"/>
<path d="M52.6912 38.0613C52.9931 44.1727 50.1508 48.6548 45.3772 52.1166C43.943 53.1577 42.4594 54.126 41.0096 55.1437C39.8488 55.9636 38.7244 56.8303 38.0268 58.1499C37.7524 58.5892 37.4157 58.9864 37.0273 59.329C35.7259 60.646 34.1642 61.19 32.4229 60.5211C30.6816 59.8522 30.0803 58.3139 29.906 56.596C29.6222 53.5299 30.5723 50.8099 32.3865 48.3633C34.2761 45.8177 36.413 43.5116 38.982 41.6324C39.3975 41.3233 39.8401 41.0524 40.3043 40.8229C41.0044 40.4819 41.7749 40.0733 42.4776 40.7162C43.1804 41.3591 42.8577 42.1555 42.6833 42.9103C42.6546 43.0353 42.5818 43.1524 42.5609 43.2773C42.4776 43.7979 41.7645 44.4018 42.3006 44.7844C42.8368 45.167 43.3808 44.4694 43.8884 44.1831C44.3959 43.8968 44.612 43.345 44.8358 42.8271C45.6167 41.0441 46.3975 39.2638 47.1471 37.473C47.7184 36.1142 48.5627 34.8872 49.6276 33.8681C50.9603 32.5849 52.0873 32.9259 52.4907 34.7062C52.7666 35.815 52.6339 36.9446 52.6912 38.0613Z" fill="#F29B25"/>
<path d="M16.3061 45.3153C15.9469 44.3418 15.6423 43.5089 15.3378 42.6682C15.0957 41.9863 15.002 41.2783 15.5981 40.7343C16.2488 40.1331 16.9776 40.4272 17.6543 40.7343C18.6173 41.2245 19.5038 41.8523 20.2858 42.5979C23.5602 45.5287 26.6966 48.5584 27.8757 53.0093C28.2843 54.5345 28.3962 56.0572 27.9798 57.6111C27.0948 60.7969 23.9714 61.8016 21.405 59.6907C21.0406 59.3888 20.6112 59.0869 20.4081 58.6861C19.2056 56.3175 16.9854 55.1019 14.9214 53.6938C12.7116 52.1816 10.5226 50.6433 8.80209 48.5376C5.39759 44.3731 4.8536 39.55 5.62924 34.4589C5.84788 33.0273 6.9723 32.6525 8.11495 33.5765C9.19219 34.4551 10.0473 35.575 10.6111 36.8457C11.4127 38.6156 12.3029 40.3595 12.9276 42.1919C13.4976 43.8551 14.6819 44.6438 16.3061 45.3153Z" fill="#F29B25"/>
<path d="M30.3512 29.6801C29.9269 29.006 30.0909 28.4334 30.0909 27.8946C30.0753 24.9612 30.0623 22.0278 30.0909 19.0944C30.0909 18.2381 29.8436 18.0377 29.029 18.3136C26.3637 19.1985 23.7114 20.0705 21.0174 20.8774C20.0908 21.1559 19.8514 21.6738 19.8566 22.577C19.8878 27.9284 19.8722 33.2799 19.8722 38.6287C19.8722 38.9749 19.854 39.321 19.8722 39.6698C19.9008 40.3752 19.5781 40.7109 18.8727 40.7109C18.1673 40.7109 17.8706 40.3882 17.8706 39.6698C17.881 33.4126 17.881 27.1563 17.8706 20.9008C17.8706 20.2761 18.1829 19.9716 18.7321 19.7816C22.8967 18.337 27.043 16.9002 31.1815 15.414C31.9623 15.1303 32.4829 15.591 33.1024 15.8331C34.2216 16.2651 35.0103 16.8742 35.4449 17.6915C35.7052 18.173 35.6714 18.9018 35.7052 20.3256C35.7052 20.6613 35.7052 20.932 35.7052 21.1064C35.6584 23.1887 35.6844 24.2897 35.1508 25.1174C34.6365 25.8631 33.9115 26.4386 33.0686 26.7702C31.8712 27.2673 31.2778 28.6 30.3512 29.6801Z" fill="#F29B25"/>
<path d="M38.706 26.5802C42.4514 26.5672 45.4343 29.4953 45.4109 33.1601C45.3874 36.7078 42.3213 39.7193 38.745 39.7063C37.0015 39.6961 35.3316 39.0017 34.0951 37.7725C32.8586 36.5432 32.1543 34.8775 32.1338 33.1341C32.1317 32.2713 32.3004 31.4166 32.6302 30.6194C32.96 29.8221 33.4443 29.0979 34.0552 28.4887C34.6662 27.8795 35.3916 27.3972 36.1898 27.0696C36.988 26.742 37.8432 26.5757 38.706 26.5802ZM43.5316 31.7858C43.5217 31.6716 43.4802 31.5624 43.4117 31.4704C43.3432 31.3785 43.2504 31.3074 43.1438 31.2653C42.9815 31.2028 42.8037 31.1925 42.6352 31.2359C42.4668 31.2793 42.3161 31.3742 42.2042 31.5073C41.4025 32.2882 40.6034 33.069 39.807 33.8499C38.1516 35.4845 38.1516 35.4845 36.4077 33.8733C36.2827 33.7562 36.1474 33.6312 36.0276 33.5271C35.6632 33.2382 35.2468 33.0508 34.8668 33.423C34.4868 33.7952 34.7262 34.2195 35.036 34.5396C35.7596 35.2762 36.5144 35.9842 37.2328 36.726C37.8965 37.4106 38.4691 37.3038 39.099 36.6609C40.3666 35.3595 41.668 34.1154 42.9512 32.84C43.2323 32.5641 43.5238 32.3038 43.5316 31.778V31.7858Z" fill="#F29B25"/>
<path d="M44.2269 19.3208C44.2712 21.0908 44.2061 22.8607 44.2269 24.628C44.2269 25.4349 43.9979 25.7629 43.1676 25.4349C42.1191 25.0282 40.9989 24.8387 39.875 24.8779C38.9354 24.9039 38.5892 24.5083 38.5996 23.5765C38.636 20.1668 38.5762 16.7571 38.6308 13.3499C38.6517 12.2255 38.3445 12.0303 37.3008 12.3895C34.042 13.5191 30.7599 14.5759 27.4751 15.6326C27.0638 15.7654 26.4626 16.2807 26.2075 15.4556C25.9993 14.7737 26.4678 14.4483 27.0612 14.2375C31.113 12.7695 35.1647 11.2946 39.2165 9.81269C39.8099 9.59666 40.3097 9.65132 40.7469 10.1198C40.8031 10.1865 40.8689 10.2444 40.9421 10.2916C42.9567 11.4473 43.3237 12.3374 43.8053 13.173C44.1879 13.8471 44.2087 15.0288 44.2529 17.3895C44.2738 18.566 44.2009 18.2901 44.2269 19.3208Z" fill="#F29B25"/>
<path d="M28.4197 22.6082C28.7191 23.7483 28.1126 24.3781 26.8086 24.6384C25.4161 24.8987 24.0522 25.3308 22.6831 25.716C21.9725 25.9164 21.6602 25.716 21.5925 24.9508C21.4233 23.1001 21.5925 22.7956 23.313 22.2256C24.4192 21.8586 25.5228 21.489 26.6316 21.1324C28.4171 20.5598 28.4197 20.565 28.4197 22.6082Z" fill="#F29B25"/>
<path d="M25.0128 39.1831H23.4511C21.6811 39.1831 21.0538 38.2617 21.6291 36.549C21.7592 36.0909 22.0611 35.9633 22.4828 35.9347C24.159 35.8202 25.8353 35.6987 27.5115 35.5703C28.1101 35.5261 28.4042 35.789 28.3938 36.3902C28.3938 36.4319 28.3938 36.4761 28.3938 36.5178C28.6073 39.1206 28.5578 39.1752 25.9003 39.1752L25.0128 39.1831Z" fill="#F29B25"/>
<path d="M28.2949 27.2074C28.6801 28.7691 28.0086 29.235 26.8217 29.3911C25.5489 29.5629 24.2995 29.9117 23.0268 30.0965C22.553 30.1668 21.7592 30.6249 21.6499 29.7581C21.5405 28.8914 21.0512 27.6499 22.1939 27.2412C23.968 26.5893 25.805 26.1235 27.6754 25.8513C28.9326 25.6795 28.1153 26.9341 28.2949 27.2074Z" fill="#F29B25"/>
<path d="M28.3961 32.4235C28.6564 33.7874 28.1358 34.334 26.7485 34.3314C25.4705 34.3314 24.1925 34.5917 22.9146 34.7192C22.3732 34.7686 21.6522 34.9248 21.6314 34.0997C21.6105 33.2746 21.0483 32.0955 22.2664 31.778C24.05 31.313 25.8713 31.0073 27.709 30.8644C28.823 30.7811 28.2009 31.8977 28.3961 32.4235Z" fill="#F29B25"/>
</g>
</g>
<defs>
<clipPath id="clip0_7644_41985">
<rect width="60.8091" height="60.8091" fill="white" transform="translate(0.269531 0.269653)"/>
</clipPath>
<clipPath id="clip1_7644_41985">
<rect width="53.1082" height="60.81" fill="white" transform="translate(4)"/>
</clipPath>
</defs>
</svg>
