<svg width="61" height="61" viewBox="0 0 61 61" fill="none" xmlns="http://www.w3.org/2000/svg">
<g clip-path="url(#clip0_7214_41875)">
<path d="M54.6601 39.7C54.6337 43.0896 54.1184 46.4576 53.1301 49.7C52.2343 52.622 50.4948 55.2139 48.1301 57.15C46.839 58.1599 45.4028 58.969 43.8701 59.55C43.7664 59.5828 43.6572 59.5944 43.549 59.5841C43.4407 59.5738 43.3357 59.5418 43.2401 59.49C41.4143 58.8091 39.743 57.7701 38.3245 56.434C36.906 55.098 35.7689 53.4918 34.9801 51.71C34.0298 49.5441 33.3901 47.2548 33.0801 44.91C32.7968 42.8215 32.6432 40.7175 32.6201 38.61C32.6004 38.4731 32.6311 38.3337 32.7065 38.2178C32.782 38.1019 32.8969 38.0174 33.0301 37.98C36.3399 36.5852 39.7252 35.3766 43.1701 34.36C43.4614 34.28 43.7688 34.28 44.0601 34.36C47.5353 35.3795 50.9478 36.6016 54.2801 38.02C54.3943 38.0507 54.4927 38.1234 54.5558 38.2235C54.6188 38.3235 54.6418 38.4437 54.6201 38.56C54.6401 38.9 54.6601 39.24 54.6601 39.7ZM52.5101 40.59C52.4899 40.3872 52.4899 40.1828 52.5101 39.98C52.5701 39.68 52.4501 39.54 52.1801 39.44C49.5301 38.38 46.8601 37.38 44.1101 36.58C43.8202 36.49 43.5099 36.49 43.2201 36.58C40.4901 37.39 37.8301 38.38 35.2201 39.43C35.1029 39.4542 34.9998 39.5231 34.9326 39.622C34.8654 39.721 34.8394 39.8422 34.8601 39.96C34.9201 41.03 34.9701 42.09 35.0801 43.15C35.2596 45.3529 35.72 47.5238 36.4501 49.61C37.008 51.2918 37.9132 52.8374 39.1071 54.1467C40.301 55.456 41.7568 56.4997 43.3801 57.21C43.4788 57.2617 43.5886 57.2887 43.7001 57.2887C43.8115 57.2887 43.9213 57.2617 44.0201 57.21C44.7342 56.8781 45.4228 56.4937 46.0801 56.06C48.4486 54.4481 50.2089 52.0893 51.0801 49.36C51.9727 46.5199 52.4543 43.5666 52.5101 40.59Z" fill="#8E9818"/>
<path d="M43.22 51.98C42.9577 51.9762 42.7023 51.8956 42.4855 51.748C42.2686 51.6005 42.0998 51.3925 42 51.15C41.61 50.26 41.22 49.37 40.82 48.48C40.4252 47.6444 39.9425 46.8532 39.38 46.12C39.2526 45.9963 39.1538 45.8463 39.0904 45.6804C39.027 45.5146 39.0006 45.3369 39.013 45.1598C39.0254 44.9827 39.0762 44.8104 39.1621 44.655C39.2479 44.4996 39.3667 44.3648 39.51 44.26C39.6538 44.157 39.8169 44.0843 39.9896 44.0461C40.1623 44.0079 40.3409 44.0051 40.5147 44.0378C40.6885 44.0705 40.8539 44.1381 41.0009 44.2364C41.1479 44.3347 41.2734 44.4618 41.37 44.61C41.9862 45.3633 42.513 46.1854 42.94 47.06C43.01 47.21 43.04 47.43 43.24 47.43C43.44 47.43 43.48 47.21 43.55 47.07C44.3828 45.417 45.4431 43.8888 46.7 42.53C47.1054 42.1094 47.5435 41.7215 48.01 41.37C48.1392 41.2678 48.2873 41.1921 48.4458 41.1473C48.6043 41.1026 48.7701 41.0896 48.9336 41.1091C49.0972 41.1286 49.2553 41.1802 49.3988 41.2611C49.5423 41.3419 49.6685 41.4502 49.77 41.58C49.967 41.8345 50.0564 42.1561 50.019 42.4758C49.9817 42.7955 49.8204 43.0878 49.57 43.29C47.22 45.21 45.92 47.85 44.65 50.51C44.4 51.03 44.26 51.63 43.65 51.87C43.5088 51.9146 43.3652 51.9513 43.22 51.98Z" fill="#8E9818"/>
<path d="M6.02008 31.1V9.41001C5.97831 8.98555 6.03102 8.55711 6.1744 8.15542C6.31779 7.75374 6.54831 7.38877 6.84942 7.0867C7.15053 6.78464 7.51476 6.55296 7.91599 6.4083C8.31722 6.26365 8.74549 6.20959 9.17008 6.25001H16.5101C17.1501 6.25001 17.1901 6.25001 17.1701 6.94001C17.0866 7.90451 17.3373 8.86839 17.8801 9.67001C18.2178 10.1278 18.6621 10.4964 19.1744 10.7438C19.6866 10.9913 20.2515 11.1101 20.8201 11.09C24.3301 11.09 27.8201 11.09 31.3501 11.09C31.841 11.1096 32.3306 11.0253 32.7867 10.8426C33.2428 10.66 33.6552 10.3831 33.997 10.03C34.3387 9.67698 34.602 9.25576 34.7697 8.79393C34.9374 8.33209 35.0057 7.84005 34.9701 7.35001C34.9701 6.20001 34.8201 6.26001 36.0401 6.26001H42.8901C43.3001 6.21744 43.7144 6.26245 44.1057 6.39206C44.4969 6.52167 44.8562 6.73292 45.1597 7.01182C45.4632 7.29073 45.704 7.63092 45.8661 8.00988C46.0282 8.38883 46.1079 8.7979 46.1001 9.21001V31.51C46.1001 32.12 46.1001 32.11 45.4701 32.06C44.9283 32.0101 44.3841 31.99 43.8401 32C43.4101 32 43.2701 31.87 43.2701 31.43C43.2701 26.31 43.2701 21.1867 43.2701 16.06V15.53C43.2701 14.99 43.1601 14.89 42.6201 14.88H9.77008C8.85008 14.88 8.84008 14.88 8.84008 15.82V52.15C8.84008 53.05 8.84008 53.07 9.75008 53.07H29.9001C30.1396 53.0323 30.3848 53.0771 30.5956 53.197C30.8063 53.3169 30.9701 53.5048 31.0601 53.73C31.3773 54.3559 31.7559 54.9488 32.1901 55.5C32.2701 55.61 32.4501 55.7 32.3601 55.86C32.2701 56.02 32.0901 55.94 31.9601 55.95H9.17008C8.7545 55.9865 8.33593 55.9332 7.94275 55.7937C7.54957 55.6542 7.19098 55.4319 6.89128 55.1416C6.59158 54.8514 6.35779 54.5002 6.20575 54.1117C6.05371 53.7232 5.98698 53.3065 6.01008 52.89C6.02341 45.6233 6.02675 38.36 6.02008 31.1Z" fill="#8E9818"/>
<path d="M24.5246 28.391C24.5246 27.9029 24.4996 27.4134 24.5319 26.9209C24.5687 26.3578 24.3643 26.1314 23.7792 26.1505C22.7501 26.1872 21.7297 26.1505 20.7065 26.1666C20.2037 26.1769 19.9934 25.9755 20.0008 25.4815C20.0125 24.7258 20.0214 23.9687 20.0008 23.213C19.9831 22.6249 20.2639 22.4456 20.805 22.4544C21.8047 22.472 22.8059 22.4412 23.8057 22.4632C24.3408 22.475 24.5408 22.2618 24.5408 21.7281C24.5172 20.7284 24.5496 19.7272 24.5319 18.7274C24.5216 18.1967 24.7363 17.9821 25.267 18.0012C26.0227 18.0296 26.7789 18.0296 27.5355 18.0012C28.0898 17.9806 28.2603 18.2349 28.2486 18.7495C28.2295 19.6507 28.2486 20.5549 28.2486 21.4561C28.2486 22.4529 28.2486 22.4529 29.2777 22.4559C30.1804 22.4559 31.0831 22.4706 31.9844 22.4559C32.5313 22.4456 32.7974 22.6499 32.7768 23.2277C32.7503 23.9579 32.7503 24.6896 32.7768 25.4227C32.7974 26.0108 32.5313 26.1843 31.9799 26.1681C31.0052 26.1402 30.0275 26.1975 29.0543 26.149C28.3853 26.1284 28.2045 26.3828 28.2295 27.0105C28.2706 28.0088 28.2295 29.01 28.2427 30.0097C28.2515 30.5037 28.0575 30.7213 27.5532 30.7095C26.774 30.686 25.9918 30.686 25.217 30.7051C24.7054 30.7198 24.5158 30.4861 24.529 30.0009C24.5437 29.4643 24.529 28.9277 24.529 28.3837L24.5246 28.391Z" fill="#8E9818"/>
<path d="M23.0575 44.3867C20.5964 44.3867 18.1371 44.3867 15.6761 44.3867C15.0038 44.3867 14.3928 44.293 14.3145 43.4625C14.2584 42.8226 14.7638 42.4413 15.6761 42.4413C20.4268 42.4345 25.177 42.4345 29.9265 42.4413C30.5818 42.4413 31.4685 43.4625 31.3681 44.0973C31.3017 44.5296 30.9273 44.3747 30.6873 44.3764C28.1463 44.3918 25.6019 44.3867 23.0575 44.3867Z" fill="#8E9818"/>
<path d="M22.6997 35.8889H15.7524C15.3831 35.8889 15.0154 35.8889 14.6989 35.654C14.5579 35.5572 14.4474 35.4222 14.3805 35.2648C14.3136 35.1075 14.293 34.9343 14.321 34.7656C14.334 34.5806 14.4078 34.4052 14.5309 34.2666C14.6541 34.1281 14.8197 34.0342 15.0018 33.9997C15.3077 33.9493 15.6179 33.9305 15.9277 33.9435C20.6149 33.9435 25.3037 33.935 29.9909 33.9554C30.3534 33.9554 30.9168 33.678 31.0597 34.2652C31.2027 34.8524 30.3789 35.8752 29.8088 35.882C28.4251 35.8957 27.0414 35.882 25.6577 35.882L22.6997 35.8889Z" fill="#8E9818"/>
<path d="M22.5352 38.1833C24.7647 38.1833 26.996 38.2089 29.2255 38.1697C29.9812 38.1561 30.1922 38.4386 30.2007 39.1586C30.2093 39.8785 29.9625 40.1457 29.2221 40.1406C24.7341 40.1168 20.2443 40.1287 15.7563 40.127C15.5858 40.1335 15.415 40.1261 15.2457 40.1048C14.6773 40.0129 14.2858 39.7202 14.3147 39.1007C14.3437 38.4812 14.7487 38.2004 15.3359 38.1935C16.6345 38.1782 17.9331 38.1935 19.2317 38.1833H22.5352Z" fill="#8E9818"/>
<path d="M21.0136 48.628C19.2084 48.628 17.4027 48.628 15.5963 48.628C14.9445 48.628 14.3913 48.4816 14.3182 47.714C14.2569 47.0945 14.7436 46.6928 15.581 46.6928C19.2209 46.6815 22.8603 46.6815 26.499 46.6928C27.3143 46.6928 27.8606 47.12 27.7942 47.6987C27.704 48.4305 27.1815 48.6399 26.5143 48.6365C24.6847 48.6228 22.8466 48.628 21.0136 48.628Z" fill="#8E9818"/>
<path d="M31.8017 46.7C32.3447 46.8038 32.7225 47.1067 32.7174 47.6513C32.7247 47.7797 32.7044 47.9082 32.6576 48.028C32.6108 48.1478 32.5388 48.2561 32.4464 48.3456C32.3541 48.4351 32.2435 48.5036 32.1223 48.5465C32.001 48.5894 31.872 48.6057 31.7439 48.5942C31.6226 48.6009 31.5014 48.5816 31.3882 48.5376C31.2751 48.4935 31.1727 48.4258 31.0879 48.3389C31.0031 48.252 30.9379 48.148 30.8966 48.0338C30.8553 47.9196 30.839 47.7979 30.8486 47.6769C30.852 47.0846 31.2401 46.7816 31.8017 46.7Z" fill="#8E9818"/>
<path d="M12.8882 35.8598C12.3657 35.7508 11.9998 35.4598 12.0032 34.9084C12.0032 34.3178 12.3759 33.9604 12.9648 33.9774C13.0855 33.9729 13.2059 33.9937 13.3181 34.0385C13.4303 34.0833 13.5319 34.1511 13.6164 34.2375C13.7009 34.3239 13.7663 34.427 13.8086 34.5402C13.8508 34.6534 13.8689 34.7741 13.8617 34.8948C13.8549 35.4734 13.4635 35.7832 12.8882 35.8598Z" fill="#8E9818"/>
<path d="M13.8873 39.1192C13.792 39.6911 13.4822 40.0825 12.8985 40.0723C12.7778 40.0766 12.6575 40.0556 12.5455 40.0105C12.4334 39.9655 12.332 39.8975 12.2479 39.811C12.1637 39.7244 12.0986 39.6211 12.0567 39.5078C12.0149 39.3946 11.9972 39.2738 12.0049 39.1533C12.0049 38.5627 12.3674 38.2053 12.958 38.2155C13.5077 38.2257 13.7937 38.5984 13.8873 39.1192Z" fill="#8E9818"/>
<path d="M13.8898 43.3877C13.8132 43.9374 13.5341 44.3153 12.9878 44.3459C12.3972 44.3782 12.0244 44.0293 12.004 43.4405C11.9924 43.3202 12.0061 43.1988 12.0441 43.0841C12.0822 42.9694 12.1439 42.8639 12.2251 42.7745C12.3064 42.6851 12.4055 42.6136 12.516 42.5647C12.6265 42.5159 12.7461 42.4907 12.8669 42.4908C13.4524 42.4567 13.7587 42.8618 13.8898 43.3877Z" fill="#8E9818"/>
<path d="M13.8857 47.7004C13.7819 48.2263 13.4857 48.5939 12.9394 48.5922C12.3539 48.5922 11.9897 48.2263 12.005 47.634C11.9996 47.5132 12.0196 47.3926 12.0636 47.2801C12.1077 47.1675 12.1749 47.0654 12.2608 46.9804C12.3468 46.8954 12.4496 46.8294 12.5627 46.7866C12.6758 46.7438 12.7966 46.7252 12.9173 46.732C13.4993 46.7337 13.804 47.1319 13.8857 47.7004Z" fill="#8E9818"/>
<path d="M29.495 48.6179C28.9061 48.5447 28.5436 48.2367 28.5317 47.6886C28.5188 47.5597 28.5348 47.4295 28.5786 47.3076C28.6224 47.1856 28.6928 47.0749 28.7848 46.9836C28.8767 46.8923 28.9879 46.8227 29.1101 46.7798C29.2324 46.7369 29.3627 46.7217 29.4916 46.7355C30.0362 46.7492 30.38 47.1219 30.3732 47.6818C30.3664 48.2418 29.9919 48.5226 29.495 48.6179Z" fill="#8E9818"/>
<path d="M26.0002 8.79998H21.1702C19.8502 8.79998 19.4302 8.36998 19.4302 7.03998V5.33999C19.4302 4.27999 19.9302 3.75998 20.9702 3.86998C21.2944 3.92792 21.6287 3.88172 21.9251 3.73801C22.2215 3.5943 22.4648 3.36046 22.6202 3.06999C22.8512 2.73956 23.1599 2.47097 23.5191 2.28788C23.8783 2.10478 24.2771 2.01279 24.6802 2.01998C25.5602 2.01998 26.4302 2.01998 27.3102 2.01998C27.808 2.03365 28.2952 2.16745 28.7302 2.40999C29.164 2.6498 29.5316 2.99337 29.8002 3.40999C29.8912 3.55663 30.0187 3.67721 30.1702 3.75998C30.3302 3.83083 30.5061 3.85842 30.6802 3.83999C30.9961 3.81019 31.3142 3.81019 31.6302 3.83999C31.9123 3.85801 32.1759 3.98697 32.3633 4.1987C32.5507 4.41044 32.6466 4.68773 32.6302 4.96999C32.6302 5.80998 32.6302 6.65999 32.6302 7.49999C32.6565 7.6614 32.6471 7.82662 32.6027 7.98403C32.5583 8.14143 32.48 8.28721 32.3733 8.41111C32.2665 8.53502 32.1339 8.63404 31.9848 8.70122C31.8357 8.7684 31.6737 8.80211 31.5102 8.79998C30.7446 8.85788 29.9758 8.85788 29.2102 8.79998C28.1402 8.79998 27.0802 8.79998 26.0002 8.79998ZM27.2802 4.14999C27.2886 3.99582 27.2612 3.8418 27.2002 3.69998C27.141 3.55365 27.0525 3.42094 26.9402 3.30999C26.8287 3.20084 26.6959 3.11575 26.5502 3.05999C26.4084 2.99894 26.2543 2.97156 26.1002 2.97999C25.9437 2.97811 25.7885 3.00818 25.6441 3.06836C25.4996 3.12855 25.369 3.21757 25.2602 3.32999C25.1509 3.44069 25.0647 3.57189 25.0063 3.71605C24.948 3.8602 24.9187 4.01447 24.9202 4.16999C24.9202 4.32769 24.9507 4.48391 25.0102 4.62998C25.0693 4.77888 25.1616 4.91228 25.2802 5.01998C25.3932 5.13164 25.5277 5.21932 25.6755 5.27774C25.8233 5.33617 25.9813 5.36414 26.1402 5.35998C26.298 5.36105 26.4544 5.33044 26.6002 5.26998C26.7453 5.21406 26.8755 5.12503 26.9802 5.00998C27.0942 4.89849 27.1799 4.76135 27.2302 4.60998C27.2807 4.46219 27.3011 4.30579 27.2902 4.14999H27.2802Z" fill="#8E9818"/>
</g>
<defs>
<clipPath id="clip0_7214_41875">
<rect width="48.67" height="57.61" fill="white" transform="translate(6 2)"/>
</clipPath>
</defs>
</svg>
