<svg width="62" height="62" viewBox="0 0 62 62" fill="none" xmlns="http://www.w3.org/2000/svg">
<g clip-path="url(#clip0_32291_85043)">
<g clip-path="url(#clip1_32291_85043)">
<path d="M3.7832 5.06528C4.09379 4.82706 4.35686 4.85904 4.60666 4.85904C15.6951 4.85904 26.785 4.85904 37.8764 4.85904C38.0875 4.85904 38.3694 4.77302 38.4799 5.00904C38.575 5.21197 38.3373 5.36307 38.2356 5.53071C36.6893 8.06076 35.9797 10.7794 36.256 13.7396C36.3422 14.6407 36.3157 14.676 35.4083 14.6771H16.345C15.1159 14.6771 14.8617 14.9329 14.8617 16.1682V38.1159C14.8617 39.3467 15.1159 39.6015 16.3505 39.6015H42.2656C42.3584 39.6015 42.4502 39.6015 42.5419 39.6015C43.4483 39.5872 43.7577 39.2773 43.7577 38.3563C43.7577 34.1844 43.7577 30.0125 43.7577 25.8406C43.7577 25.6752 43.7655 25.5098 43.7577 25.3443C43.739 24.9396 43.8838 24.8028 44.2861 24.9737C45.5793 25.5252 46.9112 25.9377 48.326 26.027C48.5879 26.0436 48.7316 26.1803 48.7427 26.445C48.7493 26.6093 48.7537 26.7759 48.7537 26.9402C48.7537 33.4841 48.7537 40.028 48.7537 46.5718C48.7537 47.4707 48.7537 47.4707 47.8341 47.4707C39.5075 47.4707 31.1808 47.4707 22.8542 47.4707C20.9122 47.4707 19.515 48.438 18.927 50.1772C18.7832 50.6337 18.7146 51.1105 18.7236 51.5889C18.7236 52.5264 18.7314 53.4639 18.7181 54.4002C18.6894 56.4406 17.2337 58.2968 15.2276 58.8703C13.1639 59.4603 10.9003 58.6376 9.78613 56.9082C9.20552 56.0075 8.90657 54.9548 8.9273 53.8841C8.94057 39.6037 8.94278 25.3237 8.93393 11.0441C8.93393 8.46001 7.79657 6.57626 5.42237 5.47667C4.90758 5.23563 4.35102 5.09595 3.7832 5.06528ZM18.6982 11.6573C19.5449 11.6573 20.3927 11.6573 21.2404 11.6573C21.9843 11.6573 22.5082 11.2437 22.4927 10.6978C22.4773 10.1728 22.0307 9.85739 21.2769 9.84415H21.1664C19.5084 9.84415 17.8504 9.84415 16.1925 9.84415C15.9724 9.84138 15.7528 9.86433 15.5381 9.91253C15.374 9.94852 15.225 10.0339 15.1111 10.1572C14.9972 10.2805 14.9241 10.4357 14.9015 10.6018C14.8407 10.9448 15.012 11.2062 15.2673 11.4158C15.5227 11.6253 15.7946 11.6584 16.0974 11.6573C16.9684 11.6551 17.8328 11.6573 18.6982 11.6573ZM17.2414 44.4267C17.7001 44.4267 18.1599 44.4455 18.6175 44.4267C19.1801 44.3969 19.5504 44.0275 19.5537 43.5389C19.5516 43.3059 19.4593 43.0828 19.2962 42.9161C19.133 42.7494 18.9117 42.6521 18.6783 42.6444C17.7255 42.6091 16.7695 42.6091 15.8167 42.6444C15.2983 42.6643 14.8827 43.1319 14.8893 43.5709C14.8971 44.0352 15.2872 44.3947 15.8653 44.4256C16.3229 44.4455 16.7827 44.4256 17.2414 44.4267ZM23.9661 44.4267C24.4248 44.4267 24.8835 44.4421 25.3422 44.4267C25.9524 44.4002 26.3624 44.0363 26.3602 43.5576C26.3602 43.0977 25.9181 42.651 25.3654 42.6345C24.4491 42.6069 23.5295 42.6047 22.6132 42.6345C22.3705 42.6345 22.1376 42.7305 21.9657 42.9014C21.7937 43.0724 21.6967 43.3044 21.6958 43.5466C21.7069 44.0363 22.0771 44.3947 22.6431 44.4223C23.0841 44.4443 23.5251 44.4267 23.9661 44.4278V44.4267Z" fill="#00AEEF"/>
<path d="M14.4258 60.8207C17.7483 60.4501 19.9092 57.9873 20.3812 55.6017C20.6487 54.2551 20.5238 52.8919 20.5481 51.5353C20.5536 51.2045 20.5536 50.8736 20.6752 50.5582C20.8178 50.1761 21.0758 49.8477 21.4136 49.6183C21.7514 49.3889 22.1523 49.2699 22.5608 49.2777C32.558 49.2777 42.5555 49.2777 52.5534 49.2777C53.5481 49.2777 54.4567 49.9681 54.491 50.8935C54.5573 52.689 54.712 54.5021 54.4136 56.2822C53.9637 58.9446 51.4923 60.9883 48.7765 60.9916C37.6188 61.0063 26.4611 61.0082 15.3034 60.9971C15.0003 61.0179 14.6972 60.957 14.4258 60.8207Z" fill="#00AEEF"/>
<path d="M37.9943 12.6753C37.9943 6.19139 43.1892 0.984594 49.6652 1.00003C56.2529 1.01547 61.3815 6.51454 61.3008 12.7305C61.2113 19.145 56.0948 24.3021 49.6387 24.3021C48.1069 24.3091 46.5889 24.0131 45.1725 23.4312C43.756 22.8493 42.4692 21.993 41.3864 20.9119C40.3037 19.8307 39.4464 18.5462 38.8641 17.1324C38.2819 15.7187 37.9863 14.2038 37.9943 12.6753ZM48.5511 16.5818V16.5884C47.9609 16.5884 47.3706 16.5653 46.7826 16.595C46.2299 16.6215 45.8243 17.0362 45.8365 17.4906C45.8497 17.9682 46.2366 18.3465 46.7937 18.3817C47.2164 18.4126 47.6409 18.4126 48.0637 18.3817C48.5986 18.3365 48.7755 18.5505 48.7644 19.0744C48.7489 19.8905 49.0695 20.2809 49.6487 20.2688C50.2135 20.2578 50.4931 19.8762 50.5141 19.0898C50.5169 19.0531 50.5169 19.0162 50.5141 18.9795C50.471 18.5505 50.639 18.3277 51.0822 18.1987C52.4716 17.7961 53.5139 16.3557 53.4487 15.0168C53.4178 14.2566 53.1328 13.5286 52.639 12.949C52.1452 12.3693 51.471 11.9713 50.7241 11.8184C50.1715 11.7081 49.6188 11.7511 49.0739 11.7224C48.8567 11.716 48.6435 11.6625 48.449 11.5657C48.2546 11.4689 48.0835 11.3311 47.9478 11.1617C47.8121 10.9924 47.7148 10.7956 47.6629 10.5851C47.6109 10.3745 47.6055 10.1552 47.647 9.94235C47.7674 9.27399 48.4461 8.72916 49.2165 8.71482C50.2842 8.69828 51.353 8.71482 52.4219 8.70049C53.0187 8.69056 53.441 8.30013 53.4366 7.81817C53.4321 7.3362 53.0088 6.97776 52.4086 6.94908C52.1699 6.93805 51.93 6.94908 51.6902 6.94908C50.6324 6.94908 50.6346 6.94908 50.502 5.90243C50.483 5.7569 50.4416 5.61516 50.3793 5.48222C50.3152 5.33774 50.2091 5.21585 50.0746 5.13244C49.9402 5.04903 49.7836 5.00796 49.6254 5.01459C49.4673 5.01361 49.3122 5.05854 49.1791 5.14391C49.0461 5.22929 48.9408 5.35143 48.8761 5.49546C48.7743 5.69358 48.7328 5.91709 48.7567 6.13845C48.8208 6.70975 48.6384 7.01305 48.0272 7.19834C46.7008 7.60089 45.7204 9.08871 45.8166 10.3681C45.8645 11.107 46.1547 11.8098 46.6425 12.3678C47.1303 12.9259 47.7885 13.3084 48.5157 13.4562C49.0098 13.5566 49.5105 13.5323 50.0013 13.5422C50.9551 13.5621 51.6294 14.1797 51.636 15.0444C51.6437 15.9487 50.985 16.5576 49.978 16.5708C49.5083 16.5862 49.0297 16.5818 48.5511 16.5818Z" fill="#00AEEF"/>
<path d="M7.12429 16.0992C7.12429 17.9742 7.10992 19.8491 7.13424 21.724C7.13976 22.2226 6.99055 22.4134 6.4799 22.4045C5.06179 22.3825 3.64368 22.4111 2.22557 22.3924C1.84208 22.3914 1.46254 22.315 1.10863 22.1676C0.754725 22.0203 0.433372 21.8048 0.162922 21.5335C-0.107527 21.2622 -0.321777 20.9404 -0.467593 20.5865C-0.613408 20.2326 -0.687935 19.8535 -0.686918 19.4708C-0.694655 16.5128 -0.705708 13.5538 -0.686918 10.5958C-0.674759 8.98333 0.138747 7.82088 1.58007 7.16575C3.02139 6.51063 4.41629 6.68599 5.67744 7.6786C6.67222 8.46276 7.12208 9.50169 7.11987 10.7535C7.1206 12.5358 7.12208 14.3177 7.12429 16.0992Z" fill="#00AEEF"/>
<path d="M33.1138 32.0231C30.4445 32.0231 27.7741 32.0109 25.1037 32.033C24.5687 32.033 24.3907 31.8565 24.4095 31.3337C24.442 30.4514 24.442 29.5691 24.4095 28.6868C24.3918 28.1783 24.593 28.0074 25.086 28.0118C26.8545 28.0272 28.623 28.0173 30.3915 28.0173C33.983 28.0173 37.5737 28.0173 41.1638 28.0173C41.9375 28.0173 41.9375 28.0228 41.943 28.775C41.943 29.6386 41.9187 30.5033 41.9519 31.3657C41.9707 31.8697 41.7982 32.0341 41.2887 32.0275C38.5652 32.0131 35.8395 32.0231 33.1138 32.0231Z" fill="#00AEEF"/>
<path d="M33.1674 33.8336C35.8555 33.8336 38.5447 33.8468 41.2361 33.8215C41.7965 33.8159 41.9811 33.9869 41.9546 34.5439C41.9126 35.4052 41.9104 36.2721 41.9546 37.1335C41.9855 37.7125 41.7512 37.8481 41.2196 37.8459C37.351 37.8305 33.4824 37.8382 29.6138 37.8382C28.104 37.8382 26.5941 37.8261 25.0821 37.8437C24.5891 37.8437 24.3879 37.6772 24.4056 37.1677C24.4355 36.2853 24.4366 35.403 24.4056 34.5207C24.3868 33.9979 24.5648 33.817 25.0998 33.8204C27.7901 33.8446 30.4793 33.8336 33.1674 33.8336Z" fill="#00AEEF"/>
<path d="M33.1246 26.2572C30.491 26.2572 27.8578 26.2572 25.225 26.2572C24.4424 26.2572 24.4192 26.2307 24.4181 25.4509C24.4181 24.5686 24.427 23.6863 24.4181 22.804C24.4126 22.4113 24.5585 22.247 24.9708 22.247C29.924 22.2558 34.8773 22.2558 39.8305 22.247C39.9683 22.241 40.1057 22.265 40.2332 22.3173C40.3608 22.3697 40.4753 22.4492 40.5689 22.5503C40.696 22.6838 40.8165 22.8426 40.9745 22.922C41.8952 23.3808 42.0743 24.1572 41.9505 25.0815C41.9284 25.2458 41.9284 25.4123 41.9505 25.5767C42.0223 26.1281 41.7648 26.266 41.2519 26.2627C38.5384 26.2461 35.8315 26.2572 33.1246 26.2572Z" fill="#00AEEF"/>
<path d="M31.5112 20.4411C29.3758 20.4411 27.2414 20.4267 25.106 20.451C24.5743 20.4576 24.3897 20.28 24.4096 19.754C24.4428 18.9113 24.4163 18.0654 24.4196 17.2173C24.4196 16.4706 24.4527 16.4353 25.1933 16.4342C28.451 16.4342 31.7087 16.4342 34.9664 16.4342C35.5191 16.4342 36.1447 16.2412 36.5923 16.5302C37.04 16.8191 37.0488 17.4963 37.2898 17.9871C37.6059 18.629 37.8933 19.2863 38.2945 19.8841C38.3818 20.0142 38.5653 20.14 38.4747 20.3142C38.3708 20.5127 38.1431 20.43 37.9718 20.4311C35.8179 20.4414 33.6644 20.4447 31.5112 20.4411Z" fill="#00AEEF"/>
<path d="M19.6312 20.4404C18.821 20.4404 18.0119 20.4305 17.1995 20.4404C16.8171 20.447 16.6734 20.2849 16.6778 19.9143C16.6874 18.9225 16.6874 17.9299 16.6778 16.9365C16.6778 16.5858 16.837 16.4336 17.1774 16.4336H22.1513C22.4287 16.4336 22.6023 16.5373 22.6001 16.8549C22.5927 17.9019 22.5927 18.9486 22.6001 19.9949C22.6001 20.3401 22.4243 20.436 22.117 20.436C21.2881 20.4349 20.4591 20.4393 19.6312 20.4404Z" fill="#00AEEF"/>
<path d="M19.7211 22.2521C20.4948 22.2521 21.2685 22.2631 22.0422 22.2465C22.4302 22.2377 22.6137 22.3568 22.6059 22.7781C22.586 23.7708 22.5905 24.7634 22.6059 25.756C22.6059 26.1111 22.4633 26.2567 22.1185 26.2567C20.4804 26.2567 18.8424 26.2567 17.2043 26.2567C16.8329 26.2567 16.6793 26.0879 16.6837 25.7174C16.6936 24.7248 16.6914 23.7321 16.6837 22.7395C16.6837 22.391 16.8329 22.2443 17.1844 22.2499C18.0277 22.2598 18.8744 22.2521 19.7211 22.2521Z" fill="#00AEEF"/>
<path d="M19.5741 32.022C18.8003 32.022 18.0266 32.0109 17.2529 32.0275C16.8694 32.0352 16.6693 31.9172 16.6759 31.4992C16.6903 30.5066 16.6859 29.514 16.6759 28.5214C16.6759 28.1695 16.8373 28.0195 17.1766 28.0195H22.1505C22.4733 28.0195 22.6037 28.1739 22.6004 28.4982C22.5893 29.5084 22.5849 30.5187 22.6004 31.529C22.607 31.9304 22.4125 32.0275 22.0577 32.0231C21.2309 32.0142 20.4019 32.022 19.5741 32.022Z" fill="#00AEEF"/>
<path d="M19.6679 33.8341C20.4593 33.8341 21.2518 33.8451 22.0421 33.8286C22.4334 33.8197 22.6114 33.9455 22.6036 34.3624C22.5837 35.355 22.5882 36.3476 22.6036 37.3402C22.6036 37.6975 22.4555 37.8376 22.114 37.8376C20.4759 37.8376 18.8379 37.8376 17.1998 37.8376C16.8682 37.8376 16.6814 37.713 16.6836 37.3523C16.6902 36.3421 16.6902 35.3318 16.6836 34.3215C16.6836 33.9708 16.8361 33.8297 17.1854 33.8352C18.0122 33.8418 18.8401 33.8341 19.6679 33.8341Z" fill="#00AEEF"/>
</g>
</g>
<defs>
<clipPath id="clip0_32291_85043">
<rect width="60.8091" height="60.8171" fill="white" transform="translate(0.269531 0.273438)"/>
</clipPath>
<clipPath id="clip1_32291_85043">
<rect width="62" height="60" fill="white" transform="translate(-0.697266 1)"/>
</clipPath>
</defs>
</svg>
