<svg width="62" height="62" viewBox="0 0 62 62" fill="none" xmlns="http://www.w3.org/2000/svg">
<g clip-path="url(#clip0_32291_85021)">
<path d="M54.9875 31.0446C54.9875 39.2239 54.9875 47.4033 54.9875 55.5826C54.9875 57.2046 54.5439 58.632 53.2859 59.7471C52.3923 60.5394 51.3572 60.966 50.1721 60.9735C47.9037 60.9863 45.6363 60.9735 43.3679 60.9735C32.9741 60.9735 22.5803 60.9403 12.1866 60.9959C9.38988 61.0109 6.99502 58.8736 6.99609 55.8456C7.00038 42.5163 7.00288 29.1871 7.0036 15.8578C7.0036 14.3962 7.48257 13.1163 8.55302 12.0557C11.7104 8.93294 14.8536 5.79663 17.9824 2.64679C19.1022 1.52413 20.4137 1.00985 22.0189 1.0152C31.234 1.04513 40.4491 1.08042 49.6642 1.00023C52.5959 0.974566 55.009 3.13327 54.9961 6.3462C54.965 14.579 54.9875 22.8118 54.9875 31.0446ZM29.5924 48.7205C32.1791 48.7205 34.7657 48.7141 37.3524 48.728C37.7756 48.728 37.9642 48.6211 37.9535 48.1603C37.9299 47.0216 37.9353 45.8829 37.9535 44.7388C37.9599 44.3422 37.8464 44.1636 37.4177 44.1636C32.2087 44.1743 27 44.1743 21.7917 44.1636C21.3631 44.1636 21.2313 44.3304 21.2367 44.7346C21.2527 45.8198 21.2367 46.9061 21.242 47.9913C21.242 48.7109 21.2474 48.7152 21.9471 48.7152L29.5924 48.7205ZM29.5924 54.8149C32.1801 54.8149 34.7668 54.8075 37.3534 54.8224C37.7821 54.8224 37.9642 54.7155 37.9535 54.2557C37.9299 53.1153 37.9299 51.9748 37.9535 50.8343C37.9621 50.3842 37.7906 50.2527 37.3577 50.2538C32.183 50.2644 27.0093 50.2644 21.8367 50.2538C21.3577 50.2538 21.2184 50.4344 21.2281 50.8846C21.2484 51.9538 21.2281 53.023 21.2345 54.0922C21.2345 54.8117 21.2345 54.8149 21.9396 54.8149H29.5924ZM29.5806 32.4955C27.0468 32.4955 24.5127 32.4955 21.9781 32.4955C21.2634 32.4955 21.2377 32.5201 21.2356 33.2001C21.2356 34.2511 21.2517 35.3021 21.227 36.3521C21.2152 36.8332 21.3792 37.0107 21.8699 37.0096C27.0282 36.9968 32.1858 36.9968 37.3427 37.0096C37.8206 37.0096 37.9599 36.8279 37.9503 36.3767C37.9267 35.3449 37.9439 34.3121 37.9428 33.276C37.9428 32.4955 37.9428 32.4934 37.1799 32.4923L29.5806 32.4955ZM29.601 42.6347C32.1898 42.6347 34.7786 42.6261 37.3674 42.6422C37.811 42.6422 37.9642 42.4967 37.9535 42.0573C37.9299 41.0779 37.9321 40.0975 37.9535 39.1181C37.9631 38.6904 37.8464 38.5193 37.3824 38.5204C32.1876 38.534 26.9925 38.534 21.7971 38.5204C21.3813 38.5204 21.2217 38.6562 21.2302 39.0743C21.2484 40.0184 21.2302 40.9625 21.2356 41.9065C21.2356 42.624 21.2442 42.6315 21.9428 42.6315C24.4966 42.6329 27.0497 42.6329 29.602 42.6315L29.601 42.6347ZM19.2168 3.92982L9.93421 13.1538H10.3885C12.5316 13.1538 14.6746 13.1538 16.8177 13.1538C18.4014 13.1538 19.1911 12.3679 19.1943 10.7898C19.1986 8.63428 19.1986 6.47878 19.1943 4.32328C19.1922 4.14473 19.2468 3.9619 19.2179 3.92234L19.2168 3.92982ZM16.6891 48.7291C17.527 48.7291 18.365 48.7173 19.2029 48.7344C19.564 48.7419 19.7162 48.6275 19.7108 48.2469C19.6937 47.0544 19.6937 45.8622 19.7108 44.6704C19.7162 44.2909 19.564 44.1765 19.204 44.1786C17.561 44.1907 15.9201 44.1907 14.2814 44.1786C13.9021 44.1786 13.7263 44.2962 13.7306 44.6971C13.7442 45.8726 13.7442 47.0487 13.7306 48.2255C13.7253 48.6307 13.9042 48.7473 14.2825 48.7387C15.084 48.7077 15.8876 48.7205 16.6902 48.7205L16.6891 48.7291ZM16.7416 50.2709C15.9219 50.2709 15.1011 50.2816 14.2771 50.2655C13.8989 50.2591 13.721 50.3863 13.7263 50.7873C13.7403 51.8565 13.7263 52.9257 13.736 53.9949C13.7446 54.5968 13.9803 54.8171 14.6039 54.8214C16.1373 54.831 17.6706 54.8214 19.204 54.831C19.5694 54.831 19.7108 54.7166 19.7054 54.3402C19.6897 53.1477 19.6897 51.9559 19.7054 50.7648C19.7108 50.3863 19.5576 50.2655 19.1975 50.2719C18.3832 50.2719 17.5624 50.2623 16.7427 50.2623L16.7416 50.2709ZM16.732 37.0128C17.5517 37.0128 18.3725 37.0128 19.1965 37.0128C19.5008 37.0128 19.714 36.9551 19.7108 36.5777C19.7015 35.3659 19.7015 34.1563 19.7108 32.9488C19.7108 32.6281 19.5683 32.5051 19.2597 32.5051C17.6728 32.5105 16.0858 32.5051 14.5 32.5051C13.9985 32.5051 13.7435 32.7735 13.7413 33.2707C13.7413 34.3399 13.7478 35.4091 13.7349 36.4782C13.7349 36.8653 13.8892 37.0225 14.276 37.0128C15.0925 36.9893 15.9133 36.9979 16.7341 36.9989L16.732 37.0128ZM16.732 42.6454C17.5345 42.6454 18.3392 42.6315 19.1375 42.6454C19.5319 42.655 19.7226 42.5588 19.7097 42.1108C19.6819 41.0801 19.6894 40.0483 19.7097 39.0176C19.7172 38.6402 19.5704 38.5258 19.2061 38.5279C17.5678 38.5407 15.9283 38.5439 14.2889 38.5279C13.8689 38.5279 13.721 38.6733 13.7285 39.086C13.7467 40.0814 13.7499 41.0769 13.7285 42.0723C13.7178 42.5245 13.9021 42.6593 14.3317 42.6464C15.1322 42.6144 15.9348 42.6315 16.7341 42.6315L16.732 42.6454ZM18.5246 21.1781C18.8343 21.3096 18.8611 21.5202 18.9382 21.6902C19.324 22.5317 19.6947 23.3795 20.0848 24.2189C20.2766 24.6305 20.5637 24.9673 21.0749 24.8454C21.586 24.7235 21.766 24.3258 21.766 23.8297C21.766 22.1746 21.766 20.5191 21.766 18.8633C21.766 18.4356 21.6588 18.0656 21.1531 18.0175C20.7534 17.9801 20.5187 18.3073 20.5102 18.8836C20.5027 19.6844 20.5102 20.4874 20.5027 21.2861C20.5027 21.4026 20.5402 21.5726 20.3784 21.5993C20.2166 21.6261 20.2091 21.4379 20.163 21.331C19.7744 20.4713 19.3876 19.611 19.0025 18.7499C18.8021 18.2987 18.5396 17.9256 17.9674 18.0143C17.4606 18.0934 17.2174 18.4655 17.212 19.137C17.2063 20.6338 17.2063 22.1289 17.212 23.6222C17.2002 23.8364 17.2084 24.0512 17.2367 24.2638C17.3042 24.6123 17.526 24.8582 17.8956 24.8454C18.2364 24.8336 18.4421 24.5952 18.5064 24.267C18.532 24.09 18.5403 23.9109 18.5311 23.7324C18.53 22.9016 18.5289 22.0676 18.5289 21.1642L18.5246 21.1781ZM46.3125 21.4208C46.3125 21.9907 46.291 22.5605 46.3125 23.1315C46.3543 24.0788 47.0111 24.7994 47.9498 24.87C48.6794 24.914 49.411 24.9169 50.141 24.8786C50.6468 24.8582 50.9372 24.391 50.7368 23.9826C50.5846 23.6746 50.3007 23.5795 49.9792 23.5773C49.391 23.5773 48.8005 23.5838 48.2134 23.5709C47.654 23.5581 47.5833 23.4223 47.5544 22.722C47.534 22.2505 47.6776 22.0259 48.178 22.0441C48.7834 22.0655 49.391 22.0559 49.9996 22.0441C50.5257 22.0334 50.8289 21.7854 50.7968 21.3898C50.7561 20.9076 50.41 20.7942 49.9996 20.7921C49.3567 20.7921 48.7138 20.7921 48.0708 20.7921C47.9123 20.7921 47.699 20.8231 47.6422 20.6574C47.5099 20.304 47.5099 19.9148 47.6422 19.5614C47.7494 19.261 48.0505 19.2557 48.3237 19.2557C48.8595 19.2557 49.3952 19.2557 49.931 19.2557C50.5139 19.246 50.8311 19.0194 50.8011 18.6141C50.7625 18.0966 50.3821 18.0079 49.9589 18.0047C49.3524 18.0047 48.7459 17.9919 48.1373 18.0047C47.0379 18.0325 46.35 18.72 46.3157 19.8223C46.3082 20.3388 46.3167 20.8733 46.3167 21.4069L46.3125 21.4208ZM33.9621 21.4678C33.9621 21.0947 33.9696 20.7194 33.9621 20.3484C33.9278 18.9702 32.9977 18.0079 31.7001 17.9961C30.425 17.9876 29.4574 18.9584 29.4167 20.3259C29.3942 21.0744 29.3931 21.8228 29.4167 22.5712C29.4585 23.8543 30.4668 24.8753 31.6765 24.8839C32.8863 24.8925 33.8914 23.881 33.9567 22.5894C33.9857 22.2024 33.9664 21.8281 33.9664 21.4539L33.9621 21.4678ZM27.849 19.8009C27.849 19.3968 27.8747 18.9852 27.8405 18.5789C27.8397 18.5019 27.8233 18.4259 27.7922 18.3555C27.7611 18.2851 27.7159 18.2218 27.6595 18.1694C27.603 18.1169 27.5365 18.0765 27.4639 18.0506C27.3913 18.0247 27.3141 18.0138 27.2372 18.0186C26.8836 18.0186 26.68 18.2442 26.635 18.5842C26.5993 18.8134 26.5936 19.0463 26.6178 19.277C26.7829 20.5708 26.38 21.7362 25.8174 22.8631C25.7638 22.97 25.7488 23.1304 25.5892 23.1165C25.5479 23.1016 25.5106 23.0775 25.4802 23.046C25.4497 23.0145 25.4269 22.9764 25.4135 22.9348C25.092 22.0569 24.5562 21.2476 24.6259 20.2479C24.6572 19.7135 24.6504 19.1775 24.6055 18.6441C24.5809 18.2955 24.3698 18.025 23.9937 18.0122C23.6176 17.9994 23.3508 18.2421 23.3443 18.5938C23.3229 19.5561 23.1493 20.5344 23.4622 21.4603C23.7995 22.4182 24.1931 23.3554 24.6409 24.267C25.0352 25.0945 26.141 25.1555 26.5203 24.3322C27.1708 22.8899 28.0837 21.501 27.8533 19.787L27.849 19.8009ZM13.4124 24.8721V24.8593C13.9481 24.8593 14.4839 24.8796 15.0197 24.8518C15.3754 24.8336 15.6326 24.6326 15.6476 24.2488C15.6626 23.865 15.4086 23.6714 15.0722 23.5806C14.9321 23.5454 14.7866 23.5375 14.6436 23.557C14.1614 23.6126 14.0253 23.3849 14.036 22.9348C14.0585 21.9725 14.0424 21.0102 14.0424 20.0479C14.0424 19.2567 14.0424 19.2567 14.8214 19.2214C15.3572 19.1979 15.6722 18.967 15.639 18.5799C15.5951 18.071 15.2275 17.9683 14.7957 17.9683C13.9385 17.9683 13.0813 17.9683 12.2241 17.9683C11.4901 17.9683 11.175 18.1587 11.174 18.5895C11.1729 19.0204 11.4611 19.2065 12.2198 19.2118C12.6312 19.2118 12.7973 19.3626 12.7898 19.7774C12.7727 20.6852 12.7898 21.5951 12.7898 22.5007C12.7898 23.4277 12.7898 23.4234 11.8651 23.556C11.4751 23.6116 11.1697 23.7944 11.19 24.236C11.2104 24.6775 11.504 24.8529 11.9133 24.8582C12.4137 24.8775 12.9131 24.8721 13.4124 24.8721ZM37.2988 17.9844H36.1748C35.4247 17.9844 35.1161 18.1555 35.0915 18.5735C35.0657 19.0076 35.3679 19.215 36.163 19.2289C36.5498 19.2385 36.7052 19.3829 36.6987 19.7721C36.6848 20.6616 36.6987 21.5512 36.6912 22.4451C36.6912 22.7787 36.8091 23.1561 36.6023 23.4351C36.3955 23.7142 36.0301 23.5132 35.7451 23.5752C35.3818 23.6533 35.1022 23.835 35.0968 24.2392C35.0904 24.5941 35.3208 24.8411 35.6519 24.8497C36.7741 24.8796 37.8971 24.8796 39.0207 24.8497C39.3326 24.8433 39.5286 24.5984 39.5565 24.2745C39.5744 24.1306 39.538 23.9852 39.4545 23.8666C39.3709 23.7481 39.2461 23.6648 39.1043 23.6329C38.9169 23.5768 38.7208 23.5554 38.5257 23.5699C38.1142 23.5987 37.9439 23.4405 37.9503 23.0203C37.9653 21.9351 37.9631 20.8488 37.9503 19.7635C37.9503 19.369 38.1153 19.2097 38.4978 19.2364C38.6225 19.2437 38.7476 19.2409 38.8718 19.2279C39.2447 19.1936 39.5501 19.0493 39.5586 18.6291C39.5683 18.1768 39.2554 18.009 38.8568 17.9951C38.3339 17.9716 37.8163 17.9844 37.2988 17.9844ZM43.0936 46.4389C43.0936 45.8337 43.0882 45.2285 43.0936 44.6212C43.0936 44.3101 42.9693 44.1679 42.6479 44.1711C41.7392 44.1789 40.8302 44.1789 39.9208 44.1711C39.5994 44.1711 39.4794 44.3026 39.4826 44.6191C39.4911 45.8284 39.4933 47.0376 39.4826 48.2469C39.4826 48.5858 39.5897 48.7291 39.9465 48.7227C40.838 48.7077 41.7292 48.7077 42.62 48.7227C42.965 48.7227 43.1043 48.5912 43.0979 48.2512C43.0936 47.6481 43.099 47.043 43.0936 46.4389ZM48.2476 46.4613C48.2476 45.8562 48.2412 45.251 48.2476 44.6437C48.253 44.3037 48.1041 44.1668 47.7644 44.17C46.8729 44.1807 45.9803 44.1829 45.0856 44.17C44.7352 44.1647 44.6195 44.3112 44.6227 44.6501C44.6355 45.8594 44.6334 47.0697 44.6227 48.28C44.6227 48.6008 44.7405 48.7269 45.0631 48.7227C45.9731 48.7105 46.8825 48.7105 47.7912 48.7227C48.1126 48.7227 48.2455 48.589 48.2423 48.2768C48.2476 47.6716 48.2519 47.0665 48.2519 46.457L48.2476 46.4613ZM39.4879 52.5076C39.4879 53.131 39.4976 53.7532 39.4879 54.3755C39.4815 54.6963 39.6122 54.8192 39.9315 54.8149C40.8416 54.8028 41.751 54.8028 42.6596 54.8149C42.9865 54.8149 43.1022 54.6717 43.1011 54.3637C43.0947 53.152 43.0947 51.9402 43.1011 50.7285C43.1011 50.3874 42.9586 50.2505 42.6189 50.2548C41.7274 50.2641 40.8345 50.2641 39.9401 50.2548C39.5854 50.2548 39.474 50.4099 39.4826 50.7424C39.5029 51.3336 39.4922 51.9206 39.4922 52.5076H39.4879ZM44.6312 52.5023C44.6312 53.1256 44.6409 53.7479 44.6312 54.3702C44.6248 54.6909 44.7384 54.8203 45.0684 54.8149C45.8699 54.8021 46.6757 54.8149 47.4751 54.8064C47.9669 54.8 48.2401 54.5402 48.2434 54.043C48.2509 52.9396 48.2434 51.8372 48.2519 50.7285C48.2519 50.3874 48.103 50.2516 47.7665 50.2548C46.875 50.2634 45.9835 50.2655 45.0877 50.2548C44.7363 50.2548 44.6173 50.4013 44.627 50.737C44.6495 51.3283 44.6387 51.9153 44.6387 52.5023H44.6312ZM39.4879 34.7536C39.4879 35.3235 39.504 35.8945 39.4826 36.4643C39.4697 36.8482 39.6026 37.0182 40.0033 37.0096C40.8605 36.994 41.7178 36.994 42.575 37.0096C42.9736 37.0171 43.1054 36.8396 43.1022 36.4601C43.0893 35.3196 43.0893 34.1791 43.1022 33.0386C43.1022 32.6559 42.9629 32.488 42.5664 32.4944C41.7092 32.5083 40.852 32.5105 39.9948 32.4944C39.5886 32.4869 39.4665 32.6666 39.4804 33.0451C39.5061 33.6085 39.4911 34.1784 39.4911 34.7483L39.4879 34.7536ZM44.6312 34.7654C44.6312 35.3524 44.6377 35.9415 44.6312 36.5264C44.6312 36.8236 44.7137 37.0054 45.0481 37.0032C45.9749 37.0032 46.9018 37.0032 47.834 37.0032C48.1233 37.0032 48.2519 36.8503 48.2519 36.5691C48.2519 35.4486 48.2519 34.3238 48.2455 33.2076C48.2455 32.7607 47.984 32.5147 47.5372 32.5094C46.7175 32.4976 45.8978 32.5094 45.0781 32.5019C44.762 32.5019 44.6302 32.6388 44.6366 32.9553C44.6473 33.5508 44.6387 34.1613 44.6387 34.7601L44.6312 34.7654ZM39.4879 40.5487C39.4879 41.0993 39.4976 41.6499 39.4879 42.2006C39.4794 42.5213 39.6165 42.6422 39.9326 42.6389C40.8405 42.6283 41.7485 42.6283 42.6564 42.6389C42.9779 42.6389 43.1011 42.4989 43.1 42.1888C43.0936 41.1196 43.0915 40.0579 43.1 38.9919C43.1 38.6455 42.9543 38.5236 42.6168 38.529C41.7263 38.5418 40.8359 38.5439 39.9455 38.529C39.5919 38.5225 39.4751 38.669 39.4858 39.0058C39.504 39.5126 39.4922 40.028 39.4922 40.5433L39.4879 40.5487ZM44.6312 40.5487C44.6312 41.0833 44.6484 41.6179 44.6259 42.1525C44.6109 42.5278 44.7641 42.6518 45.1284 42.6443C46.0007 42.6286 46.8732 42.6286 47.7462 42.6443C48.118 42.6507 48.2541 42.4978 48.2509 42.1386C48.2401 41.1079 48.2401 40.0768 48.2509 39.0454C48.2509 38.6968 48.1437 38.5225 47.7601 38.53C46.8693 38.5471 45.9789 38.5471 45.0888 38.53C44.733 38.5236 44.6173 38.6701 44.628 39.0069C44.6505 39.5126 44.6387 40.029 44.6377 40.5444L44.6312 40.5487ZM45.0866 4.84826C43.4986 4.84826 41.9106 4.84184 40.3226 4.84826C39.8319 4.84826 39.4772 5.15084 39.5169 5.51864C39.5661 5.96771 39.8747 6.14626 40.3012 6.16016C40.3902 6.16016 40.4791 6.16016 40.568 6.16016C43.5476 6.16016 46.5275 6.16016 49.5077 6.16016C49.7034 6.16571 49.8992 6.15066 50.0917 6.11525C50.2257 6.09212 50.3474 6.02308 50.4358 5.92002C50.5242 5.81697 50.5738 5.68636 50.5761 5.55072C50.5964 5.26845 50.4389 5.08348 50.2085 4.94769C50.0135 4.83222 49.7971 4.84077 49.5838 4.84077C48.0851 4.84434 46.5861 4.84683 45.0866 4.84826ZM40.6709 21.4571C40.6023 22.6332 40.927 23.6639 41.9974 24.3792C42.6918 24.8422 43.4633 24.8892 44.2551 24.8743C44.8466 24.8636 45.1906 24.6294 45.1981 24.2328C45.2056 23.8361 44.8488 23.5196 44.2776 23.572C42.5782 23.7281 41.7971 23.0107 41.9267 21.1535C41.9342 21.0466 41.9267 20.9396 41.9342 20.8327C42.0071 19.9015 42.6843 19.2642 43.6197 19.2353C43.9773 19.2409 44.335 19.2281 44.6912 19.1969C44.837 19.1843 44.9721 19.1155 45.0677 19.005C45.1634 18.8946 45.2121 18.7513 45.2034 18.6056C45.2034 18.3041 45.0266 18.1116 44.7416 18.0218C43.4054 17.6016 41.6438 18.3148 40.9998 19.5475C40.6902 20.1303 40.6462 20.7696 40.6709 21.4571ZM46.9189 9.90983C47.8469 9.90983 48.7738 9.91624 49.7049 9.90983C50.2803 9.90983 50.5814 9.67567 50.5836 9.26831C50.5836 8.88126 50.2417 8.60113 49.7146 8.59899C47.8572 8.59187 46.0024 8.59187 44.1501 8.59899C43.6144 8.59899 43.2672 8.86736 43.2629 9.2512C43.2586 9.63504 43.5983 9.90555 44.1405 9.90983C45.0641 9.91089 45.9921 9.90448 46.9189 9.90448V9.90983Z" fill="#FF671D"/>
<path d="M32.7121 21.3991C32.7121 21.7722 32.7271 22.1475 32.7121 22.5185C32.681 23.144 32.2834 23.5482 31.7177 23.5514C31.1519 23.5546 30.7126 23.1622 30.6912 22.5506C30.6654 21.805 30.6654 21.0587 30.6912 20.3117C30.7137 19.6606 31.1519 19.2286 31.7166 19.2425C32.2813 19.2564 32.6938 19.6894 32.7153 20.3363C32.7271 20.6913 32.7153 21.0473 32.7153 21.4055L32.7121 21.3991Z" fill="#FF671D"/>
</g>
<defs>
<clipPath id="clip0_32291_85021">
<rect width="48" height="60" fill="white" transform="translate(7 1)"/>
</clipPath>
</defs>
</svg>
