<svg width="62" height="62" viewBox="0 0 62 62" fill="none" xmlns="http://www.w3.org/2000/svg">
<g clip-path="url(#clip0_7643_41958)">
<path d="M37.4932 0.00305176C40.2768 0.00305176 43.0604 0.00305176 45.844 0.00305176C46.7304 0.00305176 47.7599 0.0186026 47.7879 1.24712C47.8159 2.47564 46.7926 2.56272 45.9 2.54095C42.8178 2.46941 43.1009 2.61248 43.1009 5.46451C43.1009 9.69122 43.1226 13.9179 43.0822 18.1447C43.0497 19.3804 43.3736 20.5994 44.0153 21.656C46.1924 25.2825 48.2606 28.9618 50.3631 32.6256C51.2028 34.0905 51.1593 34.1807 49.4021 34.1807C44.8674 34.1807 40.3297 34.1154 35.7951 34.2118C34.0441 34.2491 32.7502 33.7546 31.6399 32.383C30.3772 30.8279 30.1906 30.8621 28.7692 32.3208C27.8362 33.2539 27.0711 34.2367 25.544 33.1668C24.7447 32.6069 24.67 32.2337 25.1272 31.45C27.0742 28.1096 28.9776 24.7413 30.9619 21.4197C31.5867 20.4118 31.9104 19.2464 31.8949 18.0607C31.8452 13.4732 31.8327 8.88569 31.8949 4.29819C31.9167 2.92972 31.4502 2.39788 30.1128 2.54717C29.6498 2.58656 29.1841 2.57927 28.7226 2.5254C27.8517 2.44764 26.9187 2.32324 26.984 1.19736C27.0368 0.214543 27.8579 0.0341542 28.6852 0.0123831C29.3539 -0.00316777 30.0257 0.0123831 30.6944 0.0123831L37.4932 0.00305176Z" fill="#E6BE09"/>
<path d="M21.9021 30.6508C21.5444 32.1156 22.1136 33.0487 23.7682 33.2073C23.8717 33.2168 23.9711 33.2521 24.0575 33.3099C26.1226 34.6877 28.0447 35.061 29.6215 32.5884C29.7035 32.4959 29.8074 32.4254 29.9237 32.3836C30.04 32.3417 30.165 32.3298 30.2871 32.3489C31.1482 32.8258 31.8624 33.5292 32.3523 34.383C32.7193 35.0703 31.9075 35.4871 31.4721 35.8261C30.1378 36.8649 29.634 37.9565 30.8718 39.3965C31.0017 39.5601 31.0884 39.7537 31.1238 39.9595C31.525 42.034 32.514 43.1941 34.8839 42.8426C36.3333 42.628 36.0658 43.897 36.1062 44.7865C36.1498 45.7195 36.1062 46.5997 34.8031 46.5499C34.5449 46.5499 34.2806 46.5904 34.0286 46.5499C32.5389 46.326 31.6711 46.92 31.4814 48.444C31.4642 48.5988 31.4121 48.7477 31.329 48.8794C29.9854 50.8544 29.7739 52.6427 32.0786 54.1139C32.1992 54.1721 32.3003 54.264 32.3698 54.3784C32.4393 54.4929 32.4742 54.625 32.4703 54.7589C32.4663 54.8927 32.4237 55.0226 32.3476 55.1327C32.2715 55.2429 32.1651 55.3287 32.0413 55.3797C31.2233 55.8369 30.6728 57.8678 29.6153 56.6238C27.8239 54.4653 26.3217 54.879 24.1197 55.8431C22.4215 56.5833 21.5507 57.2645 21.8461 59.1274C22.0825 60.5892 21.2241 60.8225 19.98 60.8225C18.736 60.8225 18.0113 60.5115 18.2383 59.171C18.5649 57.2458 17.8713 56.1199 15.8777 55.8991C15.7221 55.8806 15.5742 55.8216 15.4485 55.728C13.6322 54.3409 12.1766 54.6644 10.7833 56.4714C9.72579 57.8461 9.16908 56.3221 8.5035 55.8182C7.78505 55.2771 7.25943 54.6053 8.28579 53.8619C10.0244 52.6179 10.5127 51.1779 9.03223 49.3988C9.00101 49.3571 8.98167 49.3076 8.97625 49.2558C8.68078 47.1129 7.56423 46.1674 5.3218 46.5219C3.93155 46.7396 3.96576 45.6511 3.96887 44.6776C3.97198 43.7041 3.90667 42.6093 5.31247 42.8115C7.53624 43.1536 8.68389 42.2517 8.97625 40.087C8.99047 39.984 9.03119 39.8865 9.09443 39.804C10.5407 38.0436 9.9404 36.6938 8.29823 35.4777C7.16613 34.6473 7.88769 33.9973 8.58436 33.4032C9.28104 32.8092 9.80044 31.59 10.8983 32.9118C11.1907 33.2664 11.5857 33.5339 11.878 33.8947C12.5467 34.7126 13.2403 34.8277 14.1609 34.2461C14.8349 33.7654 15.5985 33.4248 16.4064 33.2446C18.0206 32.9958 18.3036 32.069 18.2414 30.6476C18.1606 28.738 19.5912 27.8485 21.3329 28.6291C22.3095 29.0552 21.7777 29.8857 21.9021 30.6508ZM13.4145 44.6776C13.4016 45.5552 13.5638 46.4265 13.8913 47.2408C14.2189 48.055 14.7054 48.7959 15.3223 49.4201C15.9393 50.0443 16.6744 50.5394 17.4848 50.8764C18.2952 51.2134 19.1646 51.3857 20.0422 51.3831C23.79 51.3831 26.8846 48.3289 26.8846 44.6434C26.8527 42.8458 26.1123 41.1336 24.8246 39.879C23.5368 38.6244 21.8058 37.9291 20.008 37.9441C19.1303 37.9443 18.2616 38.1197 17.4525 38.4599C16.6435 38.8001 15.9105 39.2984 15.2964 39.9255C14.6824 40.5525 14.1996 41.2958 13.8765 42.1118C13.5533 42.9279 13.3962 43.8001 13.4145 44.6776Z" fill="#E6BE09"/>
<path d="M41.1322 51.4515C38.3983 51.4515 35.6645 51.4701 32.9307 51.4515C31.2543 51.4359 31.3756 51.3519 31.7643 49.8155C32.3117 47.7348 33.4594 46.9697 35.5245 47.3274C36.5105 47.4984 36.9645 46.9759 36.9023 45.99C36.8868 45.7319 36.9023 45.4737 36.9023 45.2156C36.9023 42.1521 36.9023 42.121 33.8357 42.0028C32.9618 41.9686 32.5015 41.6451 32.3086 40.8209C32.2278 40.4726 32.0256 40.1522 31.9478 39.8039C31.7643 38.9517 30.57 38.2084 31.3258 37.3157C32.318 36.1401 33.2323 34.8743 35.1949 34.9271C40.1929 35.064 45.2003 34.9987 50.2045 34.952C51.2589 34.952 51.9182 35.263 52.4221 36.2147C53.3924 38.0342 54.4997 39.779 55.5011 41.5798C57.9893 46.046 55.5011 50.9103 50.3942 51.2991C47.3183 51.5323 44.2112 51.3426 41.1166 51.3426L41.1322 51.4515Z" fill="#E6BE09"/>
</g>
<defs>
<clipPath id="clip0_7643_41958">
<rect width="60.8091" height="60.8091" fill="white" transform="translate(0.269531 0.269653)"/>
</clipPath>
</defs>
</svg>
