<svg width="62" height="62" viewBox="0 0 62 62" fill="none" xmlns="http://www.w3.org/2000/svg">
<g clip-path="url(#clip0_12610_1130)">
<path d="M30.4042 4.42595C29.45 4.42595 28.4881 4.42595 27.5454 4.42595C26.6027 4.42595 25.9474 3.87796 25.8172 3.12303C25.7299 2.70325 25.81 2.26597 26.0405 1.90445C26.271 1.54293 26.6337 1.28576 27.0511 1.18781C27.1265 1.15474 27.2067 1.13404 27.2887 1.12649C29.403 0.973167 31.526 0.9847 33.6385 1.16098C33.925 1.17423 34.2026 1.2649 34.4416 1.42334C34.6807 1.58178 34.8724 1.80206 34.9962 2.06074C35.12 2.31943 35.1714 2.60685 35.1449 2.89242C35.1184 3.178 35.015 3.45105 34.8456 3.68252C34.6815 3.92877 34.4567 4.12862 34.1929 4.26284C33.9292 4.39707 33.6353 4.46116 33.3396 4.44895C32.3778 4.42212 31.3814 4.42595 30.4042 4.42595Z" fill="#2B908F"/>
<path d="M18.8542 4.3914C17.7045 4.3914 16.5549 4.3914 15.4282 4.3914C14.2173 4.3914 13.3934 3.79742 13.2401 2.90454C13.106 2.13811 13.8034 1.37168 14.9109 1.13026C15.1625 1.07306 15.4193 1.04224 15.6773 1.03829C17.7965 1.03829 19.9195 1.01146 22.0386 1.03829C23.5447 1.06128 24.4414 1.73957 24.4376 2.77041C24.4376 3.71694 23.6328 4.36457 22.372 4.3914C21.2032 4.41056 20.0268 4.3914 18.8542 4.3914Z" fill="#2B908F"/>
<path d="M42.5328 4.37997C41.318 4.37997 40.1032 4.37997 38.8923 4.37997C37.6813 4.37997 36.8038 3.75917 36.6505 2.95442C36.4972 2.14967 37.2138 1.38325 38.3021 1.12649C38.4623 1.08173 38.6267 1.05348 38.7927 1.04219C41.2222 1.04219 43.6518 1.01153 46.0737 1.04219C46.4483 1.02755 46.8209 1.10475 47.1588 1.26705C47.4968 1.42936 47.79 1.67185 48.0127 1.9734C48.7562 3.05789 47.8173 4.30716 46.1733 4.36464C44.9585 4.41063 43.7438 4.36464 42.529 4.36464L42.5328 4.37997Z" fill="#2B908F"/>
<path d="M-0.996176 31.2892C-0.996176 24.7669 -0.996176 18.2459 -0.996176 11.7262C-1.0302 9.07913 -0.0365699 6.522 1.77581 4.59242C3.58818 2.66284 6.07811 1.51113 8.7221 1.37943C9.77976 1.31428 10.504 1.73965 10.7953 2.59805C10.9047 2.94455 10.8968 3.31747 10.7728 3.65902C10.6487 4.00057 10.4156 4.29169 10.1093 4.48729C9.64947 4.79769 9.10914 4.77853 8.59946 4.83601C4.87847 5.26521 2.38376 8.032 2.38376 11.7951C2.38376 24.8244 2.38376 37.8421 2.38376 50.8483C2.38376 54.8912 5.30384 57.8075 9.35056 57.8266L28.8944 57.9186C29.2329 57.8943 29.5711 57.969 29.8678 58.1337C30.1645 58.2984 30.4068 58.5459 30.5652 58.846C30.7144 59.1078 30.7855 59.4068 30.7698 59.7077C30.7542 60.0086 30.6526 60.2987 30.4771 60.5436C30.3635 60.7523 30.198 60.9283 29.9966 61.0545C29.7953 61.1806 29.5648 61.2528 29.3274 61.2641C26.4917 61.2296 10.1361 61.471 7.3272 61.0303C2.60602 60.2869 -0.980852 55.9911 -0.988516 51.2162C-1.00129 44.579 -1.00384 37.9366 -0.996176 31.2892Z" fill="#2B908F"/>
<path d="M61.6896 13.6997C61.6896 14.7689 61.7087 34.4507 61.6896 35.5237C61.6704 36.5967 61.0458 37.3171 60.0418 37.3286C59.0377 37.3401 58.3326 36.6542 58.325 35.5045C58.325 33.6153 58.325 13.1096 58.325 11.2165C58.3283 9.53089 57.701 7.905 56.5664 6.65838C55.4319 5.41177 53.872 4.6346 52.1936 4.47963C51.8985 4.44897 51.6034 4.40682 51.3083 4.36466C50.9105 4.31645 50.5424 4.12933 50.269 3.83628C49.9956 3.54324 49.8344 3.16309 49.8138 2.76283C49.8058 2.36005 49.942 1.96766 50.1977 1.65639C50.4535 1.34513 50.812 1.13546 51.2087 1.0652C52.1859 0.885093 53.1248 1.12268 54.079 1.36411C56.2515 1.9264 58.1766 3.19249 59.5535 4.96457C60.9304 6.73665 61.6816 8.91491 61.6896 11.159C61.6934 12.0059 61.6896 12.8528 61.6896 13.6997Z" fill="#2B908F"/>
<path d="M26.572 10.289C28.0398 10.289 50.3312 10.289 51.7874 10.289C52.6458 10.289 53.1977 10.9405 53.2092 11.9445C53.2207 12.9485 52.6727 13.6575 51.8219 13.6613C48.852 13.6613 25.0699 13.6613 22.1 13.6613C21.5558 13.6613 21.1266 13.3701 20.8737 12.6726C20.774 12.3982 20.7333 12.1058 20.7545 11.8145C20.7756 11.5233 20.858 11.2398 20.9963 10.9827C21.0896 10.7657 21.2474 10.5828 21.4483 10.4587C21.6492 10.3346 21.8834 10.2754 22.1191 10.289C23.6022 10.3082 25.0967 10.289 26.572 10.289Z" fill="#2B908F"/>
<path d="M13.6461 25.9165C12.4122 25.8475 11.2281 26.0123 10.0669 25.8015C9.09358 25.6291 8.3923 24.9278 8.39996 24.1652C8.40763 23.4026 9.10891 22.7205 10.0899 22.5442C10.3245 22.4939 10.563 22.4644 10.8027 22.4561C12.7188 22.4561 49.2658 22.4944 51.1665 22.5135C51.7906 22.4846 52.4062 22.6669 52.9139 23.0309C53.17 23.2111 53.361 23.4693 53.4584 23.767C53.5558 24.0646 53.5543 24.3858 53.4543 24.6825C53.2703 25.3148 52.7377 25.7057 51.9674 25.8513C50.722 26.0774 14.8149 25.8322 13.6461 25.9165Z" fill="#2B908F"/>
<path d="M25.507 16.5546H43.1539C43.7556 16.5546 44.1426 17.206 44.1465 18.21C44.1503 19.2141 43.7632 19.923 43.1769 19.9268C41.0999 19.9268 24.4532 19.9268 22.3761 19.9268C21.9929 19.9268 21.694 19.6356 21.5177 18.9381C21.3771 18.379 21.4064 17.7906 21.6021 17.2482C21.7937 16.7117 22.0657 16.5469 22.3876 16.5507C23.4261 16.5584 24.4685 16.5546 25.507 16.5546Z" fill="#2B908F"/>
<path d="M41.2224 56.7H25.2692C24.0506 56.7 24.0468 56.7 24.043 55.4891C24.043 55.033 24.043 54.577 24.043 54.121C24.043 53.8183 24.1656 53.5423 24.499 53.5538C25.4034 53.5768 25.3152 52.9637 25.3152 52.3774C25.3152 47.5463 25.3152 42.7153 25.3152 37.8843C25.3152 37.639 25.3152 37.3938 25.3152 37.1523C25.3574 36.7078 25.1313 36.0755 25.9092 36.0678C26.6182 36.0678 26.4955 36.6465 26.4917 37.0757C26.4917 37.6237 26.714 37.8421 27.2581 37.8421C29.7413 37.8153 29.3581 38.0797 29.3428 35.8762C29.3428 34.627 29.5842 33.3547 28.9902 32.1246C28.7335 31.5881 28.9711 31.0708 29.7797 31.0861C31.5424 31.1167 33.3052 31.0861 35.068 31.0861C35.8344 31.0861 36.2406 31.5843 35.8344 32.1744C35.2366 33.0903 35.4512 34.0406 35.4167 34.9872C35.3822 35.8034 35.4167 36.6273 35.4167 37.4474C35.4167 37.9954 35.6466 38.2138 36.1831 38.1947C38.6779 38.1679 38.2027 38.4208 38.2448 36.2978C38.264 35.447 38.2448 34.5963 38.2448 33.7456C38.2892 33.2651 38.1526 32.7854 37.8616 32.4005C37.3519 31.7605 37.7543 31.0937 38.5859 31.0861C40.3487 31.0708 42.1114 31.0708 43.8742 31.0861C44.6943 31.0861 45.0545 31.7682 44.5448 32.4273C44.2874 32.7604 44.1606 33.1761 44.1885 33.5961C44.1885 34.8722 44.1885 36.1522 44.1885 37.4283C44.1885 37.9686 44.3724 38.1947 44.9281 38.1947C47.4228 38.164 46.9782 38.4361 47.0166 36.2211C47.0166 35.4011 47.0166 34.581 47.0166 33.7609C47.0533 33.2793 46.9351 32.7986 46.6793 32.389C46.1965 31.6762 46.5567 31.0937 47.4151 31.0861C49.1472 31.0708 50.8793 31.0708 52.6115 31.0861C53.4162 31.0861 53.7611 31.4693 53.4469 32.1476C52.8606 33.3854 53.1173 34.65 53.102 35.8992C53.0752 38.0644 52.7494 37.8153 55.133 37.8153C55.7078 37.8153 55.9722 37.6275 55.9492 37.0259C55.9492 36.5852 55.8611 36.0257 56.5662 36.0563C57.2713 36.087 57.1219 36.6618 57.1219 37.0872C57.1219 42.1609 57.1219 47.2359 57.1219 52.3122C57.1219 52.9254 57.1219 53.2971 57.9458 53.6151C58.9536 53.9984 58.2524 55.2208 58.3826 56.0639C58.4631 56.6004 58.0339 56.6885 57.6162 56.6885C57.3403 56.6885 57.0682 56.6885 56.7961 56.6885L41.2224 56.7ZM41.2224 53.5117H54.7153C55.9837 53.5117 55.9876 53.5117 55.9876 52.2739C55.9876 48.4162 55.9876 44.5573 55.9876 40.6971C55.9876 38.827 56.1907 39.0492 54.2631 38.9841C53.3932 38.9573 53.1135 39.2293 53.1135 40.1337C53.1595 43.3527 53.1135 46.5717 53.1135 49.7945C53.1799 50.6188 52.9622 51.441 52.4965 52.1244C52.1028 52.6366 51.5573 53.0114 50.9379 53.1951C50.3185 53.3789 49.657 53.3622 49.0476 53.1476C47.8175 52.7376 47.0549 51.6608 47.0434 50.1892C47.0434 47.1503 47.0434 44.1115 47.0434 41.0764C47.0434 39.1949 47.2273 39.4439 45.3113 39.3673C44.4031 39.3328 44.1923 39.6739 44.2038 40.5169C44.2459 43.7359 44.2229 46.9549 44.2038 50.1777C44.2038 52.0938 43.0541 53.2434 41.2607 53.2626C39.4673 53.2818 38.2563 52.113 38.2525 50.1586C38.2525 46.8744 38.2525 43.5941 38.2525 40.3138C38.2525 39.5972 38.0264 39.2945 37.3098 39.375C37.0681 39.4056 36.8234 39.4056 36.5817 39.375C35.6658 39.2408 35.3784 39.6087 35.3937 40.5246C35.4435 43.7129 35.4282 46.9051 35.3937 50.1049C35.3937 52.021 34.2211 53.2319 32.4736 53.2664C30.5576 53.3047 29.362 52.1168 29.3428 50.0359C29.3121 46.9396 29.3428 43.8394 29.3428 40.7392C29.3428 38.8231 29.5306 39.0569 27.557 38.9918C26.7101 38.9611 26.4649 39.2523 26.4687 40.0839C26.507 44.1715 26.507 48.2732 26.4687 52.3889C26.4687 53.2588 26.714 53.5385 27.6183 53.5385C32.1479 53.4887 36.6775 53.5117 41.1917 53.5117H41.2224ZM30.3621 35.9644C30.3621 37.0565 30.3621 38.1487 30.3621 39.2408C30.3621 39.7658 30.5231 40.0303 31.0902 40.0073C31.9678 39.9843 32.8492 39.9843 33.7267 40.0073C34.3054 40.0264 34.451 39.7429 34.4472 39.2408C34.4472 37.1178 34.4472 34.9948 34.4472 32.8718C34.4472 32.2625 34.1904 32.0709 33.6233 32.1054C32.8569 32.1322 32.0444 32.1399 31.2589 32.1054C30.5997 32.0748 30.3238 32.3047 30.3545 32.9906C30.3928 33.9487 30.3583 34.9489 30.3621 35.9644ZM52.1171 36.1062C52.1171 35.014 52.1171 33.9219 52.1171 32.8297C52.1171 32.2779 51.8987 32.0633 51.3507 32.0824C50.4693 32.0824 49.5918 32.0824 48.7104 32.0824C48.2735 32.0824 48.0244 32.2319 48.0282 32.7109C48.0282 34.9259 48.0282 37.1408 48.0282 39.3558C48.0282 39.8233 48.239 40.0111 48.6912 40.0034C49.5726 40.0034 50.454 39.9766 51.3315 40.0034C51.937 40.0264 52.1286 39.762 52.098 39.1872C52.098 38.1564 52.121 37.114 52.1171 36.0947V36.1062ZM43.2113 36.1292C43.2113 35.037 43.2113 33.9448 43.2113 32.8565C43.2113 32.3315 43.0312 32.0671 42.4717 32.0901C41.6554 32.0901 40.8353 32.0901 40.0191 32.0901C39.4788 32.0901 39.2527 32.3009 39.2527 32.8565C39.2527 35.0063 39.2527 37.1562 39.2527 39.306C39.2527 39.8731 39.5171 40.0456 40.0191 40.0303C40.7855 40.0111 41.5941 40.0034 42.3797 40.0303C42.966 40.0494 43.1998 39.8195 43.1844 39.2332C43.1921 38.1755 43.2113 37.1447 43.2113 36.1177V36.1292Z" fill="#2B908F"/>
<path d="M17.9614 28.2732C20.2224 28.2732 22.4871 28.2732 24.7481 28.2732C26.0663 28.2732 26.8481 29.0818 26.8749 30.3655C26.8955 30.6594 26.8541 30.9543 26.7534 31.2311C26.6528 31.508 26.4952 31.7606 26.2907 31.9726C26.0862 32.1847 25.8395 32.3514 25.5665 32.4621C25.2935 32.5727 25.0003 32.6248 24.7059 32.615C20.1406 32.638 15.5753 32.638 11.0099 32.615C10.7151 32.6281 10.4209 32.5788 10.1465 32.4702C9.87215 32.3616 9.62385 32.1962 9.41793 31.9849C9.21201 31.7735 9.05312 31.521 8.9517 31.2439C8.85027 30.9668 8.80861 30.6714 8.82944 30.377C8.82944 29.0818 9.69933 28.2425 11.0521 28.2349C13.3513 28.2349 15.6506 28.2349 17.9499 28.2349L17.9614 28.2732Z" fill="#2B908F"/>
<path d="M14.8078 39.3635C13.501 39.3635 12.1904 39.3635 10.8837 39.3635C10.6009 39.3675 10.3204 39.3125 10.0602 39.202C9.7999 39.0914 9.56559 38.9277 9.37223 38.7214C9.17888 38.5151 9.03075 38.2706 8.93731 38.0037C8.84388 37.7368 8.80721 37.4534 8.82965 37.1715C8.82965 35.8992 9.66505 35.0217 10.922 35.0178C13.5406 35.0178 16.1567 35.0178 18.7702 35.0178C20.0539 35.0178 20.8549 35.8532 20.8817 37.137C20.9047 38.4821 20.0961 39.329 18.7357 39.3443C17.3753 39.3596 16.1183 39.3443 14.8078 39.3443V39.3635Z" fill="#2B908F"/>
<path d="M13.8033 46.0811C12.7227 46.0811 11.642 46.0811 10.5614 46.0811C9.48071 46.0811 8.84074 45.1921 8.82924 43.9428C8.81775 42.6935 9.50753 41.7125 10.5345 41.7125C12.7303 41.678 14.9223 41.678 17.1143 41.7125C18.149 41.7355 18.8081 42.6897 18.7889 43.9581C18.7698 45.2266 18.149 46.0313 17.0492 46.0543C15.9493 46.0773 14.8917 46.0543 13.811 46.0543L13.8033 46.0811Z" fill="#2B908F"/>
<path d="M14.8688 48.4992C16.2139 48.4992 13.0639 48.48 14.4128 48.4992C15.6391 48.5298 16.3672 49.3499 16.3787 50.6107C16.3902 51.8714 15.6122 52.8026 14.4626 52.8256C11.7303 52.8869 13.4931 52.8869 10.7608 52.8256C9.61113 52.8026 8.82171 51.768 8.8447 50.5762C8.83287 50.3054 8.87557 50.035 8.97027 49.781C9.06496 49.527 9.20972 49.2947 9.39594 49.0977C9.58217 48.9008 9.80606 48.7433 10.0543 48.6345C10.3026 48.5258 10.5702 48.468 10.8412 48.4647C12.1901 48.4302 13.5237 48.4647 14.8841 48.4647L14.8688 48.4992Z" fill="#2B908F"/>
<path d="M18.6126 15.4471C18.2294 16.0832 17.8462 16.7232 17.5051 17.3632C17.4148 17.5468 17.2717 17.6992 17.0942 17.8009C16.9167 17.9027 16.7128 17.949 16.5088 17.9341C15.8803 17.9341 15.2518 17.9341 14.6234 17.9341C14.5151 17.9223 14.4058 17.9458 14.3119 18.001C14.218 18.0562 14.1445 18.1403 14.1022 18.2407C13.7994 18.7925 13.4737 19.329 13.1671 19.877C13.0771 20.06 12.9346 20.212 12.7578 20.3137C12.5811 20.4154 12.3781 20.4621 12.1746 20.448C11.4082 20.448 10.6686 20.448 9.91368 20.448C9.72246 20.4597 9.53202 20.4151 9.36586 20.3197C9.1997 20.2244 9.06509 20.0825 8.97864 19.9115C8.59542 19.2601 8.23137 18.6048 7.829 17.961C7.71283 17.7918 7.65065 17.5914 7.65065 17.3862C7.65065 17.1809 7.71283 16.9805 7.829 16.8113C8.1509 16.2748 8.4498 15.7192 8.77936 15.1865C8.84555 15.1002 8.88143 14.9945 8.88143 14.8857C8.88143 14.7769 8.84555 14.6712 8.77936 14.5849C8.4498 14.0522 8.15089 13.4965 7.82516 12.96C7.71 12.7905 7.64844 12.5902 7.64844 12.3852C7.64844 12.1802 7.71 11.98 7.82516 11.8104C8.20837 11.1551 8.59159 10.4883 8.9748 9.8292C9.06009 9.66366 9.19179 9.52656 9.35377 9.43468C9.51575 9.3428 9.70099 9.30012 9.88685 9.31186C10.2701 9.31186 10.6763 9.31186 11.071 9.31186C11.4657 9.31186 11.8106 9.31186 12.1785 9.31186C12.3765 9.29728 12.5743 9.3429 12.746 9.44275C12.9176 9.54259 13.0551 9.692 13.1403 9.87136C13.4622 10.4385 13.7803 11.021 14.129 11.5613C14.18 11.629 14.2444 11.6855 14.3183 11.727C14.3922 11.7686 14.4739 11.7944 14.5582 11.8027C15.2097 11.8296 15.865 11.8219 16.5203 11.8027C16.7179 11.7908 16.9146 11.8375 17.0858 11.9371C17.2569 12.0366 17.3948 12.1845 17.4821 12.3622C17.8475 13.006 18.2166 13.6447 18.5896 14.2783C18.7093 14.4487 18.7755 14.651 18.7796 14.8592C18.7837 15.0674 18.7255 15.2721 18.6126 15.4471Z" fill="#2B908F"/>
<path d="M52.3318 16.0564C53.6769 16.0564 50.5269 16.0564 51.872 16.0564C53.0983 16.0871 53.8302 16.8228 53.8379 17.9226C53.8489 18.1792 53.8073 18.4353 53.7154 18.675C53.6236 18.9148 53.4836 19.1333 53.304 19.3168C53.1244 19.5003 52.9091 19.6451 52.6714 19.7421C52.4336 19.8391 52.1785 19.8863 51.9218 19.8809C49.1857 19.9307 50.9484 19.9307 48.2161 19.8809C47.9586 19.881 47.7037 19.8293 47.4666 19.7287C47.2295 19.6281 47.0151 19.4808 46.8363 19.2955C46.6574 19.1102 46.5178 18.8907 46.4256 18.6503C46.3335 18.4098 46.2908 18.1532 46.3001 17.8958C46.3001 16.8343 47.1201 16.0564 48.2966 16.0334C49.6417 16.0027 50.9791 16.0334 52.3395 16.0334L52.3318 16.0564Z" fill="#2B908F"/>
</g>
<defs>
<clipPath id="clip0_12610_1130">
<rect width="60.8091" height="60.8091" fill="white" transform="translate(0.269531 0.269653)"/>
</clipPath>
</defs>
</svg>
