<svg width="35" height="36" viewBox="0 0 35 36" fill="none" xmlns="http://www.w3.org/2000/svg">
<path d="M19.243 18.3465C19.243 18.182 19.243 18.021 19.243 17.8565C19.243 14.99 19.243 12.12 19.2465 9.2535C19.2465 9.1485 19.2045 9.1065 19.124 9.068C18.662 8.844 18.4485 8.4765 18.473 7.9585C18.4975 7.4405 18.9595 6.961 19.481 6.9575C20.5275 6.9505 21.5705 6.954 22.617 6.954C23.954 6.954 25.2875 6.9645 26.6245 6.9505C27.2055 6.9435 27.7375 7.4895 27.7095 8.0915C27.6885 8.515 27.4855 8.8405 27.0935 9.026C26.9745 9.082 26.9185 9.152 26.9185 9.2885C26.922 12.162 26.929 15.0355 26.915 17.909C26.9115 18.3465 27.013 18.735 27.1775 19.127C27.405 19.666 27.615 20.2085 27.832 20.751C28.1855 21.626 28.539 22.501 28.889 23.3795C29.2565 24.2965 29.617 25.217 29.9845 26.134C30.338 27.0195 30.6985 27.905 31.0555 28.7905C31.29 29.3785 31.521 29.9665 31.7555 30.558C31.9375 31.013 32.1195 31.4715 32.298 31.9265C32.536 32.5285 32.151 33.2425 31.521 33.386C31.3425 33.428 31.164 33.4385 30.9855 33.4385C25.655 33.4385 20.3245 33.4385 14.994 33.435C14.518 33.435 14.1365 33.239 13.909 32.8015C13.832 32.651 13.783 32.4865 13.7865 32.315C13.79 32.203 13.7585 32.1575 13.6325 32.182C13.349 32.2415 13.0655 32.2905 12.782 32.3395C12.663 32.3605 11.3575 32.406 11.1335 32.3885C10.332 32.3325 9.548 32.1785 8.7815 31.9195C7.6965 31.552 6.72 30.9955 5.845 30.264C5.292 29.7985 4.802 29.27 4.375 28.682C3.983 28.1465 3.6505 27.576 3.3845 26.9705C3.1815 26.505 3.0205 26.0255 2.898 25.532C2.73 24.8495 2.6355 24.16 2.625 23.46C2.611 22.5535 2.7475 21.668 3.003 20.7965C3.3775 19.5155 4.011 18.3815 4.886 17.3805C5.544 16.628 6.307 15.9945 7.182 15.4975C7.3535 15.3995 7.5285 15.312 7.707 15.228C7.826 15.172 7.8855 15.0985 7.8855 14.9515C7.882 11.6335 7.882 8.319 7.8855 5.001C7.8855 4.854 7.84 4.805 7.6895 4.8015C7.182 4.7875 6.7095 4.329 6.6605 3.8425C6.5905 3.1775 7.07 2.705 7.497 2.614C7.665 2.579 7.8295 2.565 8.001 2.565C9.688 2.565 11.3715 2.565 13.0585 2.565C13.8915 2.565 14.7245 2.5545 15.561 2.5685C16.394 2.5825 16.842 3.314 16.6915 3.9475C16.5795 4.4235 16.142 4.7945 15.6555 4.8015C15.5085 4.8015 15.463 4.8365 15.4665 4.994C15.47 8.3225 15.47 11.651 15.4665 14.976C15.4665 15.088 15.498 15.137 15.5995 15.186C16.6425 15.6865 17.5525 16.369 18.3365 17.2125C18.6375 17.538 18.9105 17.888 19.1625 18.252C19.18 18.2905 19.1975 18.3325 19.243 18.3465ZM17.0835 23.8625C17.164 23.6665 17.2375 23.4915 17.3075 23.313C17.5595 22.6865 17.8115 22.0565 18.067 21.43C18.13 21.2725 18.1335 21.1255 18.074 20.968C17.766 20.1455 17.318 19.407 16.7265 18.7595C16.0055 17.965 15.1515 17.363 14.1435 16.992C13.58 16.782 13.2405 16.453 13.244 15.718C13.2615 12.162 13.251 8.6025 13.251 5.0465C13.251 4.8085 13.251 4.8085 13.006 4.8085C12.124 4.8085 11.2455 4.8085 10.3635 4.8085C10.1185 4.8085 10.1185 4.8085 10.1185 5.064C10.1185 8.655 10.1185 12.246 10.1185 15.8335C10.1185 16.362 9.863 16.7365 9.366 16.929C8.778 17.1565 8.2215 17.4365 7.707 17.8075C7.231 18.154 6.8075 18.5495 6.4295 19.001C6.0025 19.512 5.67 20.0825 5.4005 20.688C5.138 21.283 4.9805 21.906 4.9035 22.5465C4.83 23.1695 4.8405 23.796 4.9455 24.4225C5.0435 24.9965 5.1975 25.553 5.4285 26.085C5.8695 27.1 6.5345 27.947 7.392 28.647C8.3615 29.445 9.4745 29.9245 10.7065 30.0995C11.4205 30.201 12.1415 30.1905 12.859 30.061C13.524 29.9385 14.1575 29.7355 14.763 29.431C14.847 29.389 14.896 29.3295 14.931 29.242C15.0395 28.9515 15.1585 28.6645 15.274 28.374C15.512 27.779 15.75 27.184 15.9915 26.589C15.589 27.0615 15.141 27.471 14.623 27.807C13.9755 28.227 13.265 28.4895 12.509 28.6015C11.774 28.7065 11.0425 28.661 10.318 28.4615C9.3555 28.1955 8.533 27.7055 7.847 26.988C7.021 26.127 6.5345 25.105 6.391 23.922C6.272 22.9525 6.412 22.018 6.797 21.1185C6.8705 20.94 6.9685 20.8805 7.1645 20.8805C9.604 20.8875 12.047 20.884 14.4865 20.884C15.12 20.884 15.757 20.884 16.3905 20.884C16.4815 20.884 16.562 20.8875 16.6075 20.989C16.8315 21.4825 16.9925 21.997 17.0695 22.536C17.1325 22.97 17.136 23.4075 17.0835 23.8625ZM23.1 31.195C23.8595 31.195 24.6225 31.195 25.382 31.195C26.733 31.195 28.0875 31.195 29.4385 31.1985C29.575 31.1985 29.61 31.1775 29.5505 31.034C29.3125 30.46 29.085 29.879 28.8505 29.3015C28.5635 28.5805 28.2765 27.863 27.9895 27.142C27.7515 26.5435 27.51 25.945 27.272 25.3465C26.9885 24.636 26.705 23.9255 26.4215 23.2185C26.18 22.6165 25.9385 22.0145 25.697 21.409C25.4415 20.772 25.1895 20.1315 24.927 19.4945C24.7765 19.127 24.682 18.7595 24.6855 18.3535C24.6995 15.3645 24.6925 12.3755 24.6925 9.3865C24.6925 9.1695 24.689 9.166 24.472 9.1625C23.674 9.1625 22.8725 9.1625 22.0745 9.1625C21.938 9.1625 21.8015 9.1695 21.665 9.1625C21.504 9.152 21.4445 9.2185 21.462 9.376C21.4725 9.453 21.4725 9.53 21.4725 9.607C21.4725 12.5855 21.4725 15.5605 21.4725 18.539C21.4725 18.7385 21.4585 18.9415 21.3815 19.134C21.126 19.7605 20.881 20.3905 20.629 21.0205C20.398 21.605 20.167 22.186 19.9325 22.7705C19.6455 23.488 19.355 24.209 19.0645 24.9265C18.8265 25.525 18.5885 26.1235 18.3505 26.722C18.067 27.4325 17.78 28.1395 17.4965 28.8465C17.2165 29.5465 16.94 30.2465 16.6565 30.943C16.562 31.1775 16.569 31.195 16.814 31.195C18.907 31.195 21.0035 31.195 23.1 31.195ZM11.8825 22.7775C11.928 22.207 11.3715 21.7065 10.8325 21.7065C10.2445 21.7065 9.765 22.221 9.772 22.767C9.779 23.369 10.227 23.831 10.8395 23.8345C11.4415 23.8415 11.9245 23.299 11.8825 22.7775ZM12.7435 24.0795C12.3165 24.0795 11.9945 24.384 11.991 24.8005C11.991 25.2205 12.299 25.546 12.7295 25.574C13.118 25.5985 13.4855 25.217 13.4855 24.8215C13.4855 24.4085 13.153 24.0795 12.7435 24.0795ZM11.921 26.5435C11.921 26.127 11.655 25.854 11.242 25.8505C10.843 25.847 10.514 26.169 10.5245 26.547C10.535 26.9075 10.878 27.261 11.2385 27.2505C11.5885 27.2365 11.9455 26.9635 11.921 26.5435Z" fill="#5F9643"/>
<path d="M27.083 29.9945C26.7085 29.9945 26.3305 29.97 25.956 30.0015C25.5885 30.033 25.2245 30.012 24.8605 30.0155C22.8305 30.033 20.8005 30.0225 18.7705 30.0225C18.7425 30.0225 18.7145 30.0225 18.69 30.0225C18.515 30.0155 18.494 29.9875 18.5605 29.8265C18.8615 29.081 19.159 28.339 19.46 27.5935C19.782 26.7885 20.1075 25.9835 20.4225 25.175C20.4785 25.0315 20.5555 24.993 20.7025 24.993C22.2075 24.9965 23.7125 24.993 25.2175 24.9965C25.774 24.9965 25.6445 24.9195 25.851 25.4305C26.2115 26.316 26.5685 27.198 26.915 28.0905C27.139 28.668 27.377 29.242 27.6115 29.816C27.6815 29.991 27.657 30.0225 27.4645 30.026C27.3385 30.026 27.2125 30.026 27.0865 30.026C27.083 30.012 27.083 30.0015 27.083 29.9945Z" fill="#5F9643"/>
</svg>
