<svg width="62" height="62" viewBox="0 0 62 62" fill="none" xmlns="http://www.w3.org/2000/svg">
<g clip-path="url(#clip0_30392_74960)">
<path d="M7.29337 36.0374C7.46454 35.7579 7.39153 35.4928 7.39153 35.2422C7.39631 25.283 7.39631 15.3237 7.39153 5.3645C7.39153 4.20192 7.51123 3.08392 8.36232 2.17313C9.19307 1.28885 10.2297 0.996094 11.3908 0.996094C16.2588 0.996094 21.1267 0.996094 25.9947 0.996094H41.5562C43.0919 0.996094 44.3824 1.47799 45.1473 2.92369C45.5315 3.65617 45.5902 4.45372 45.5878 5.26331C45.5818 6.90779 45.5878 6.89333 47.2421 6.9114C49.4542 6.93549 51.6711 6.81261 53.8808 6.98248C55.5567 7.11259 56.9153 8.56552 56.986 10.2582C56.9931 10.4594 56.986 10.6606 56.986 10.8606C56.986 24.6541 56.9895 38.4464 56.9967 52.2376C56.9967 52.9122 56.8088 53.4086 56.324 53.8809C54.1007 56.0478 51.8946 58.2308 49.7056 60.4299C49.5289 60.6179 49.3147 60.7661 49.077 60.865C48.8393 60.9638 48.5836 61.0109 48.3266 61.0033C39.8276 60.9949 31.3287 61.0033 22.8297 60.9913C20.2417 60.9913 18.8496 59.5359 18.8472 56.9361C18.8472 56.5144 18.8208 56.0928 18.8532 55.6723C18.8927 55.1687 18.6927 55.0157 18.2008 55.0193C15.8677 55.0398 13.5323 55.0314 11.1993 55.0278C8.97401 55.0278 7.59143 53.8411 7.45617 51.6111C7.33646 49.5908 7.4035 47.5584 7.39153 45.532C7.39153 44.6682 7.37357 43.8044 7.39153 42.9418C7.4035 42.4815 7.25267 42.178 6.88518 41.8732C4.42766 39.8335 3.50594 37.2421 4.22656 34.0917C4.3307 33.6351 4.51265 33.2183 5.04294 33.1893C5.55527 33.1604 5.73123 33.558 5.89643 33.9724C6.21723 34.7495 6.61225 35.4759 7.29337 36.0374ZM20.3638 33.9556C20.3638 40.7825 20.3638 47.6093 20.3638 54.4362C20.3638 55.3603 20.3506 56.2843 20.3638 57.2072C20.389 58.6023 21.2017 59.4082 22.5711 59.4155C23.9872 59.4239 25.4033 59.4155 26.8194 59.4155C33.6425 59.4155 40.4656 59.4082 47.2888 59.4287C47.8945 59.4287 48.0896 59.2588 48.0656 58.6456C48.0201 57.5035 48.0501 56.3566 48.0525 55.2133C48.0525 53.2544 49.1849 52.1051 51.13 52.081C52.2672 52.0701 53.4044 52.081 54.5416 52.081C55.4693 52.081 55.4705 52.081 55.4705 51.1702V10.9389C55.4705 9.1956 54.7798 8.50407 53.0417 8.50407H22.8225C22.6238 8.50407 22.4239 8.50407 22.224 8.5113C21.8329 8.53723 21.4588 8.68158 21.1508 8.9254C20.8427 9.16923 20.6151 9.50112 20.4979 9.87749C20.3882 10.3052 20.3415 10.7469 20.359 11.1883C20.3638 18.7774 20.3654 26.3665 20.3638 33.9556ZM5.57323 36.4783C5.68216 37.6577 6.00416 38.5553 6.60028 39.3853C7.70874 40.9286 9.22179 41.7491 11.0999 41.8924C11.6266 41.9322 11.981 42.1406 12.036 42.702C12.0779 43.1333 12.2671 43.0128 12.4957 42.8526C13.4617 42.1767 14.4229 41.4949 15.3997 40.8347C15.7337 40.6094 15.6666 40.4732 15.3817 40.2732C14.4241 39.6179 13.4733 38.9557 12.5292 38.2866C12.2491 38.089 12.109 38.0517 12.036 38.4806C11.9259 39.1348 11.5835 39.3637 10.9419 39.2986C10.6056 39.2637 10.2692 39.2203 9.93762 39.1528C8.21149 38.8059 6.79779 37.9204 5.57323 36.4783Z" fill="#2857B2"/>
<path d="M37.9758 49.5979H22.8932H22.3545C21.8589 49.5919 21.5297 49.3425 21.5274 48.8449C21.525 48.3474 21.8769 48.104 22.3557 48.0835C22.7543 48.0564 23.1542 48.0564 23.5527 48.0835C24.083 48.1329 24.2351 47.9269 24.2327 47.4004C24.2123 43.7067 24.2219 40.0141 24.2219 36.3168C24.2219 36.1156 24.2147 35.9144 24.2315 35.7144C24.2698 35.2458 24.5331 34.959 24.9976 34.9518C26.2744 34.9325 27.5512 34.9325 28.8281 34.9518C29.3871 34.9602 29.6469 35.3132 29.666 35.853C29.6828 36.3541 29.6744 36.8565 29.6744 37.3589C29.6744 40.69 29.6888 44.0223 29.6624 47.3583C29.6624 47.9607 29.8695 48.1016 30.4249 48.0968C30.9612 48.0968 31.2186 47.9908 31.203 47.3739C31.1635 45.8499 31.1874 44.3235 31.191 42.7959C31.191 41.7116 31.4364 41.4707 32.4814 41.4707C33.5265 41.4707 34.5547 41.4623 35.5937 41.4707C36.3742 41.4803 36.6328 41.7466 36.6352 42.5272C36.6352 44.1729 36.6507 45.8186 36.628 47.4667C36.628 47.9414 36.7788 48.0992 37.248 48.0884C38.6605 48.0522 38.4798 48.2305 38.4834 46.8836C38.4918 44.2139 38.4834 41.5442 38.4834 38.8745C38.4834 37.8384 38.7132 37.6131 39.7606 37.6107C40.7578 37.6107 41.7561 37.6107 42.7532 37.6107C43.6773 37.6107 43.9299 37.8661 43.9311 38.7865C43.9311 41.6369 43.9467 44.4874 43.9203 47.3402C43.9203 47.9161 44.0783 48.1052 44.6601 48.092C46.0139 48.0594 46.0139 48.092 46.0139 46.7053C46.0139 42.4911 46.0139 38.2745 46.0139 34.0555C46.0139 33.011 46.2378 32.7869 47.2768 32.7845C48.3745 32.7845 49.471 32.7772 50.5675 32.7845C51.3599 32.7905 51.5993 33.0338 51.6005 33.835C51.6005 38.3118 51.6005 42.7879 51.6005 47.2631C51.6005 48.0691 51.6005 48.0691 52.3786 48.0715C52.7377 48.0715 53.0968 48.0619 53.4559 48.0715C53.997 48.0956 54.3633 48.4197 54.3226 48.8582C54.2771 49.3654 53.9527 49.581 53.4655 49.5883C52.7281 49.5883 51.9903 49.5883 51.2522 49.5883L37.9758 49.5979Z" fill="#2857B2"/>
<path d="M46.1421 27.9621C46.0595 26.3092 47.1512 25.0165 48.6056 24.9418C50.1893 24.8599 51.433 25.9502 51.5623 27.532C51.682 28.9416 50.4682 30.2957 48.9803 30.3981C48.4578 30.4316 47.9381 30.2989 47.4947 30.0186C47.2434 29.8656 47.0375 29.8355 46.7849 30.0186C45.9075 30.6475 45.0205 31.2619 44.1335 31.8776C44.0311 31.9372 43.9512 32.0291 43.9062 32.1391C43.8612 32.2492 43.8535 32.3711 43.8845 32.4859C44.0856 33.7317 43.6259 34.7075 42.557 35.34C41.488 35.9725 40.4478 35.8219 39.4973 35.0593C39.2579 34.8665 39.0652 34.8328 38.8007 34.9762C38.4841 35.1461 38.1579 35.2974 37.8239 35.4291C37.1176 35.7074 36.6388 36.0171 36.555 36.9628C36.4209 38.4675 34.8552 39.4036 33.3517 39.0976C33.0044 39.0251 32.675 38.8832 32.3831 38.6803C32.0911 38.4774 31.8426 38.2176 31.6522 37.9164C31.4618 37.6151 31.3334 37.2785 31.2745 36.9264C31.2157 36.5743 31.2276 36.2138 31.3096 35.8665C31.4293 35.3544 31.3264 35.0593 30.9373 34.7364C30.2466 34.1617 29.5883 33.5449 28.949 32.9112C28.5995 32.5655 28.3062 32.451 27.7975 32.6402C26.3431 33.1775 24.7822 32.3317 24.3428 30.8415C24.2399 30.4891 24.2085 30.1196 24.2505 29.7548C24.2924 29.3899 24.4069 29.0374 24.587 28.718C24.7672 28.3986 25.0094 28.119 25.2991 27.8958C25.5889 27.6726 25.9203 27.5104 26.2737 27.4188C28.2129 26.9224 30.0276 28.6681 29.5691 30.6294C29.4494 31.1378 29.5476 31.4463 29.9282 31.7715C30.6895 32.4197 31.4197 33.104 32.1487 33.7883C32.3774 34.0027 32.5641 34.0714 32.8837 33.9389C33.8413 33.5449 34.7666 33.6377 35.5866 34.2931C35.8763 34.5232 36.1193 34.593 36.4449 34.3991C36.6715 34.2722 36.9076 34.1635 37.1511 34.0738C37.9531 33.7594 38.4798 33.3678 38.6402 32.339C38.9192 30.5475 40.9146 29.7295 42.5103 30.5981C42.8383 30.7764 43.0609 30.7824 43.3626 30.5584C44.0808 30.021 44.8301 29.5199 45.5699 29.0078C45.9709 28.7295 46.4509 28.4994 46.1421 27.9621Z" fill="#2857B2"/>
<path d="M41.8684 11.2038H51.2053C51.405 11.1938 51.6051 11.2002 51.8038 11.223C52.1808 11.2869 52.4107 11.5206 52.4322 11.9146C52.4514 12.0872 52.406 12.2608 52.3048 12.4016C52.2037 12.5424 52.0541 12.6402 51.8852 12.676C51.6709 12.7215 51.4515 12.7382 51.2328 12.7253C44.9683 12.7253 38.7038 12.7253 32.4393 12.7253C32.2208 12.7361 32.0018 12.7175 31.7881 12.6699C31.429 12.5663 31.2052 12.2989 31.2351 11.9109C31.2394 11.737 31.3072 11.5707 31.4255 11.4438C31.5439 11.317 31.7045 11.2384 31.8767 11.223C32.0754 11.2014 32.2755 11.195 32.4752 11.2038H41.8684Z" fill="#2857B2"/>
<path d="M41.9883 19.8385H32.7711C32.5713 19.8508 32.3707 19.8423 32.1726 19.8132C31.7788 19.73 31.5286 19.4831 31.5394 19.059C31.5502 18.6349 31.798 18.3976 32.2014 18.3361C32.3798 18.317 32.5595 18.3118 32.7388 18.3205H51.2307C51.3109 18.3205 51.3911 18.3205 51.4701 18.3205C52.0961 18.3349 52.4277 18.5879 52.4277 19.0626C52.4373 19.5553 52.0913 19.8348 51.4353 19.8409C50.5974 19.8481 49.7595 19.8409 48.9216 19.8409L41.9883 19.8385Z" fill="#2857B2"/>
<path d="M32.5573 21.8371C35.1286 21.8371 37.7006 21.8371 40.2734 21.8371C41.1748 21.8371 41.5603 22.0889 41.5447 22.6528C41.5303 23.1925 41.1592 23.425 40.2866 23.425C35.0995 23.425 29.9155 23.425 24.7347 23.425C23.8501 23.425 23.418 23.16 23.418 22.6347C23.418 22.1094 23.8309 21.8383 24.7275 21.8371C27.3355 21.8355 29.9454 21.8355 32.5573 21.8371Z" fill="#2857B2"/>
<path d="M31.3319 14.7279H37.8558C37.9755 14.7279 38.0952 14.7279 38.2149 14.7279C38.9391 14.746 39.3461 15.0435 39.3293 15.5411C39.3126 16.023 38.9271 16.3049 38.2292 16.3061C35.1768 16.3133 32.1244 16.3061 29.0731 16.3061C27.6163 16.3061 26.1607 16.3061 24.7039 16.3061C24.4652 16.3087 24.2269 16.2833 23.9941 16.2302C23.6242 16.1386 23.4051 15.8772 23.4207 15.4893C23.421 15.3155 23.4834 15.1476 23.5967 15.0164C23.7099 14.8852 23.8663 14.7995 24.0372 14.7749C24.2529 14.7374 24.4719 14.7217 24.6908 14.7279C26.9037 14.7263 29.1174 14.7263 31.3319 14.7279Z" fill="#2857B2"/>
<path d="M46.7404 14.7263C48.2343 14.7263 49.733 14.7263 51.2233 14.7263C51.4417 14.7198 51.6601 14.7409 51.8733 14.7889C52.0427 14.8209 52.194 14.9156 52.2975 15.0543C52.4009 15.193 52.4491 15.3657 52.4323 15.5383C52.4379 15.7011 52.3847 15.8605 52.2826 15.9869C52.1805 16.1134 52.0364 16.1983 51.8769 16.2262C51.6442 16.2778 51.4066 16.3036 51.1683 16.3033C48.1996 16.3081 45.2314 16.3081 42.2635 16.3033C41.4256 16.3033 41.0078 16.0274 41.0078 15.5106C41.0078 14.9937 41.4184 14.7239 42.2587 14.7227C43.7526 14.7235 45.2465 14.7247 46.7404 14.7263Z" fill="#2857B2"/>
<path d="M47.8538 21.837C48.9683 21.837 50.0839 21.837 51.2055 21.837C51.4238 21.832 51.6419 21.8526 51.8555 21.8985C52.0207 21.9356 52.1683 22.0283 52.2741 22.1613C52.3799 22.2942 52.4375 22.4594 52.4375 22.6297C52.4375 22.8001 52.3799 22.9653 52.2741 23.0982C52.1683 23.2311 52.0207 23.3238 51.8555 23.361C51.6213 23.4069 51.383 23.4275 51.1445 23.4225C48.9148 23.4225 46.6843 23.4225 44.453 23.4225C44.1948 23.428 43.937 23.4005 43.6857 23.3405C43.5277 23.3049 43.3876 23.2135 43.2908 23.0829C43.1939 22.9523 43.1468 22.7911 43.1578 22.6285C43.1484 22.4658 43.1966 22.3049 43.294 22.1745C43.3913 22.0442 43.5314 21.9527 43.6893 21.9165C43.9008 21.8618 44.1186 21.8359 44.3369 21.8394C45.5028 21.8334 46.6783 21.837 47.8538 21.837Z" fill="#2857B2"/>
<path d="M26.7068 18.3152C27.4633 18.3152 28.2199 18.3092 28.9812 18.3152C29.6216 18.3224 29.928 18.567 29.9388 19.0537C29.9496 19.5404 29.6252 19.8283 29.0147 19.832C27.4625 19.8416 25.91 19.8416 24.357 19.832C23.7669 19.832 23.4078 19.5151 23.4162 19.0561C23.4245 18.5971 23.7753 18.3212 24.3858 18.3152C25.1543 18.3092 25.9311 18.3152 26.7068 18.3152Z" fill="#2857B2"/>
<path d="M26.4702 12.7292C25.7723 12.7292 25.0756 12.7389 24.3778 12.7292C23.7792 12.7184 23.4201 12.4196 23.4141 11.9642C23.4082 11.5088 23.7613 11.2149 24.3718 11.2125C25.746 11.2052 27.1206 11.2052 28.4956 11.2125C29.1108 11.2125 29.4532 11.492 29.4532 11.9606C29.4532 12.4292 29.112 12.7196 28.5075 12.7304C27.8252 12.7377 27.1477 12.7292 26.4702 12.7292Z" fill="#2857B2"/>
</g>
<defs>
<clipPath id="clip0_30392_74960">
<rect width="60.8091" height="60.8171" fill="white" transform="translate(0.513672 0.316406)"/>
</clipPath>
</defs>
</svg>
