<svg width="62" height="62" viewBox="0 0 62 62" fill="none" xmlns="http://www.w3.org/2000/svg">
<g clip-path="url(#clip0_4052_28920)">
<path d="M24.774 60.785H2.30197C1.01731 60.785 1.01923 60.785 1.01923 59.5407C1.01923 40.1143 1.01282 20.6905 1 1.26925C1 0.294215 1.25578 0.0153579 2.22505 0.0192042C11.9254 0.0384357 21.6219 0.0384368 31.3242 0.0384368C32.6281 0.0384368 32.6435 0.0576687 32.6435 1.40003C32.6435 4.98991 32.6435 8.5753 32.6435 12.1562C32.6435 13.864 32.8358 14.0524 34.4993 14.0544C38.7572 14.0544 43.0144 14.0544 47.271 14.0544C48.5422 14.0544 48.5768 14.087 48.5768 15.3332C48.5768 17.8949 48.5576 20.4565 48.5903 23.0258C48.5903 23.8105 48.3172 24.072 47.5364 24.1163C40.54 24.5144 34.8436 30.2838 34.5744 37.1937C34.3147 44.3093 39.3418 50.4634 46.2902 51.4942C46.4825 51.5231 46.6748 51.5673 46.8671 51.5981C48.5807 51.8635 48.5845 51.8635 48.5883 53.5809C48.5883 55.5655 48.546 57.5522 48.6095 59.5426C48.6403 60.5042 48.3249 60.9292 47.3537 60.7927C47.3217 60.7898 47.2895 60.7898 47.2575 60.7927L24.774 60.785ZM23.2912 21.9008H27.3298H38.2668C39.0361 21.9008 39.638 21.6393 39.6265 20.7796C39.6149 19.9757 39.0207 19.7276 38.3053 19.7084C38.1456 19.7084 37.9841 19.7084 37.8245 19.7084C28.1998 19.7084 18.5744 19.7084 8.94838 19.7084C8.59822 19.6933 8.24753 19.7211 7.90411 19.7911C7.66356 19.8326 7.4474 19.963 7.2985 20.1565C7.14959 20.3499 7.07883 20.5922 7.10023 20.8354C7.09505 21.0792 7.1795 21.3165 7.33759 21.5022C7.49568 21.688 7.71641 21.8093 7.95796 21.8431C8.30469 21.9017 8.65686 21.9217 9.008 21.9027L23.2912 21.9008ZM24.5278 56.506H40.0842C40.4352 56.5242 40.7871 56.5055 41.1342 56.4502C41.3752 56.4149 41.5938 56.2894 41.7459 56.0991C41.8979 55.9089 41.9721 55.668 41.9535 55.4252C41.9634 55.1814 41.8766 54.9435 41.712 54.7634C41.5474 54.5833 41.3183 54.4756 41.0746 54.4636C40.7253 54.4264 40.3738 54.4122 40.0226 54.4213C29.6876 54.4213 19.3526 54.4213 9.01761 54.4213C8.69837 54.4213 8.3772 54.4213 8.05604 54.4482C7.46755 54.5059 7.09446 54.8232 7.09446 55.4367C7.09446 56.0502 7.42909 56.3983 8.01373 56.479C8.33299 56.5139 8.65436 56.5254 8.9753 56.5137L24.5278 56.506ZM20.6969 25.6375C16.8301 25.6375 12.9633 25.6375 9.09646 25.6375C8.77569 25.6261 8.45452 25.635 8.13489 25.6644C7.53486 25.7433 7.10023 26.0337 7.09831 26.701C7.09639 27.3683 7.48294 27.6991 8.10027 27.7703C8.51285 27.8148 8.92767 27.8353 9.34263 27.8318C16.9814 27.8318 24.6195 27.8318 32.257 27.8318C32.6395 27.8393 33.0215 27.7979 33.3935 27.7087C33.6163 27.6592 33.8125 27.5282 33.9434 27.3413C34.0744 27.1544 34.1307 26.9253 34.1013 26.6991C34.1067 26.4559 34.0231 26.219 33.8662 26.0331C33.7093 25.8472 33.49 25.725 33.2493 25.6894C32.9658 25.6438 32.6784 25.6271 32.3916 25.6394C28.494 25.6356 24.5958 25.6349 20.6969 25.6375ZM21.1662 51.3173H33.5455C33.7686 51.3173 33.9936 51.3173 34.2166 51.2962C34.8609 51.25 35.2301 50.9115 35.2244 50.2538C35.2186 49.5961 34.809 49.2922 34.1782 49.2441C33.9551 49.2307 33.7301 49.223 33.507 49.223C25.2823 49.223 17.057 49.223 8.83107 49.223C8.4799 49.2072 8.12828 49.2415 7.7868 49.3249C7.56443 49.377 7.36971 49.5106 7.24114 49.6993C7.11258 49.8881 7.05955 50.1182 7.09254 50.3442C7.13485 50.85 7.3964 51.1885 7.90988 51.2635C8.22883 51.3024 8.55027 51.3172 8.87145 51.3077L21.1662 51.3173ZM18.918 39.5707H28.6049C28.9568 39.5707 29.3107 39.5822 29.6607 39.5553C30.3011 39.5034 30.7838 39.2265 30.7954 38.511C30.8069 37.7956 30.3357 37.4956 29.6992 37.4033C29.4137 37.3725 29.1264 37.3628 28.8395 37.3745H8.89453C8.57573 37.3574 8.25604 37.3793 7.94257 37.4399C7.38678 37.5783 7.05985 37.9456 7.09254 38.5514C7.12139 39.1149 7.47717 39.4207 7.98873 39.513C8.30708 39.5587 8.62904 39.5742 8.9503 39.5592L18.918 39.5707ZM18.8295 43.3093H9.04261C8.7219 43.3005 8.40096 43.3082 8.08104 43.3324C7.50409 43.3901 7.14639 43.717 7.09062 44.3132C7.03485 44.9094 7.37332 45.2863 7.92911 45.419C8.27363 45.4859 8.62451 45.5143 8.9753 45.5036C15.5307 45.5036 22.0873 45.5036 28.6453 45.5036C28.964 45.5213 29.2837 45.5 29.5972 45.4402C30.1492 45.3036 30.4973 44.944 30.4511 44.3343C30.4488 44.0741 30.3461 43.8249 30.1644 43.6385C29.9828 43.4522 29.7362 43.3432 29.4761 43.3343C29.1903 43.3088 28.9032 43.3004 28.6164 43.3093H18.8295ZM19.7219 33.6474H30.5646C31.9666 33.6474 32.4608 33.3647 32.4397 32.5801C32.4185 31.83 31.9358 31.5589 30.605 31.5569H8.92915C8.60782 31.5414 8.28575 31.5575 7.96757 31.605C7.39063 31.7204 7.06754 32.0897 7.10408 32.6916C7.13677 33.2493 7.46563 33.5647 8.0195 33.6186C8.33682 33.6493 8.65798 33.6455 8.98107 33.6455L19.7219 33.6474Z" fill="#839D1C"/>
<path d="M43.2056 48.1961C43.2575 47.4268 43.2902 46.7345 43.3556 46.046C43.3834 45.8504 43.3575 45.651 43.2806 45.4691C43.2061 45.2874 43.0846 45.1287 42.9286 45.0094C42.4937 44.6299 42.0856 44.2205 41.7074 43.7844C41.6091 43.6574 41.4804 43.557 41.3333 43.4925C41.1861 43.428 41.0252 43.4014 40.8651 43.4151C40.0593 43.4728 39.2516 43.5113 38.4438 43.5709C38.3695 43.5879 38.2915 43.5761 38.2255 43.5379C38.1595 43.4997 38.1104 43.438 38.0881 43.3651C37.84 42.7439 37.5842 42.1247 37.3188 41.5151C37.2906 41.4619 37.2837 41.4 37.2996 41.342C37.3147 41.2835 37.3519 41.2331 37.4034 41.2016C38.0227 40.6746 38.6131 40.1285 39.2304 39.6034C39.3583 39.5015 39.4587 39.3693 39.5227 39.2188C39.5855 39.0675 39.6099 38.903 39.5939 38.74C39.565 38.1207 39.5689 37.4995 39.5939 36.8803C39.6086 36.7163 39.5829 36.5512 39.5189 36.3995C39.4541 36.2489 39.353 36.1167 39.2246 36.0148C38.6054 35.4879 38.015 34.9437 37.4034 34.4148C37.3539 34.3863 37.3169 34.3403 37.2996 34.2859C37.283 34.2313 37.2871 34.1724 37.3111 34.1205C37.5791 33.4795 37.8445 32.8384 38.1073 32.1974C38.1261 32.139 38.1658 32.0897 38.2188 32.0589C38.2715 32.0297 38.3331 32.0208 38.3919 32.0339C39.24 32.0993 40.0881 32.1512 40.9363 32.2012C41.0769 32.2051 41.2165 32.1762 41.344 32.1166C41.4708 32.0571 41.5821 31.9689 41.669 31.8589C42.0824 31.4108 42.5171 30.9589 42.9767 30.5454C43.1099 30.437 43.2138 30.2968 43.2786 30.1377C43.3449 29.9792 43.3707 29.8067 43.3537 29.6358C43.2921 28.8473 43.2556 28.0549 43.196 27.2664C43.1801 27.2012 43.1897 27.1325 43.2229 27.0741C43.2572 27.0135 43.3137 26.9687 43.3806 26.9491C44.0306 26.6914 44.6729 26.4183 45.323 26.1683C45.3675 26.1642 45.4123 26.1708 45.4537 26.1876C45.495 26.2029 45.5319 26.228 45.5614 26.2606C46.1127 26.8812 46.6576 27.5011 47.1961 28.1203C47.2961 28.2394 47.4234 28.3324 47.5673 28.3915C47.7117 28.4499 47.8681 28.4723 48.0231 28.4569C48.6423 28.4357 49.2635 28.4338 49.8827 28.4569C50.0414 28.4748 50.202 28.453 50.3501 28.3934C50.4995 28.333 50.6316 28.2365 50.7347 28.1126C51.2559 27.4934 51.802 26.8972 52.3309 26.2856C52.3671 26.2275 52.4231 26.1844 52.4886 26.1645C52.5529 26.1472 52.6213 26.1541 52.6809 26.1837C53.3066 26.4465 53.9297 26.7062 54.5502 26.9626C54.6095 26.9794 54.6599 27.0188 54.6906 27.0722C54.7234 27.1242 54.7345 27.1871 54.7214 27.2472C54.6656 28.0165 54.6348 28.7857 54.5675 29.5434C54.5349 29.7416 54.5561 29.9448 54.6291 30.1319C54.7023 30.3186 54.8237 30.4826 54.981 30.607C55.4254 31.0003 55.8454 31.4203 56.2388 31.8647C56.3385 31.9845 56.4659 32.0782 56.6099 32.1378C56.754 32.1974 56.9106 32.2205 57.0657 32.2051C57.8927 32.1435 58.7177 32.0916 59.5658 32.0435C59.6033 32.044 59.6402 32.0532 59.6735 32.0705C59.7065 32.0878 59.7349 32.1129 59.7562 32.1435C60.0459 32.8141 60.3267 33.4898 60.5985 34.1705C60.6022 34.2146 60.5949 34.2588 60.5774 34.2994C60.562 34.3412 60.537 34.3787 60.5043 34.409C59.9062 34.9379 59.3158 35.4687 58.7119 35.9783C58.5675 36.0881 58.4536 36.2331 58.3811 36.3995C58.3098 36.5654 58.2814 36.7466 58.2984 36.9264C58.3331 37.5341 58.3196 38.1457 58.2984 38.7553C58.2845 38.9114 58.3089 39.0686 58.3696 39.213C58.429 39.3572 58.5235 39.4841 58.6446 39.5823C59.2523 40.1015 59.8427 40.6381 60.4466 41.1631C60.5582 41.2612 60.6216 41.3554 60.5601 41.4997C60.3043 42.1208 60.0504 42.7401 59.8043 43.3747C59.7855 43.447 59.7393 43.5091 59.6754 43.5478C59.6112 43.5859 59.5349 43.5982 59.462 43.5824C58.6638 43.5267 57.8638 43.4844 57.0657 43.4247C56.8984 43.4097 56.73 43.4371 56.5761 43.5043C56.4221 43.5715 56.2876 43.6764 56.1849 43.8094C55.7831 44.2576 55.3568 44.6833 54.9079 45.0844C54.7847 45.1798 54.6869 45.3042 54.6232 45.4464C54.5594 45.5886 54.5317 45.7444 54.5425 45.8998C54.5983 46.7268 54.6522 47.5653 54.6906 48.3999C54.6911 48.4526 54.6792 48.5046 54.656 48.5519C54.6326 48.599 54.5983 48.6398 54.556 48.6711C53.9367 48.9519 53.304 49.2134 52.679 49.4846C52.6482 49.4997 52.615 49.5095 52.5809 49.5134C52.5473 49.5202 52.5126 49.5202 52.479 49.5134C52.447 49.503 52.4175 49.486 52.3925 49.4634C52.366 49.4414 52.3438 49.4147 52.3271 49.3846C51.8232 48.7634 51.3059 48.1442 50.802 47.5249C50.7025 47.3908 50.5688 47.2858 50.4149 47.2208C50.261 47.1559 50.0925 47.1334 49.927 47.1557C49.1808 47.2114 48.4327 47.3018 47.6827 47.1557C47.5322 47.1213 47.3749 47.1331 47.2312 47.1893C47.0875 47.2456 46.964 47.3437 46.8769 47.471C46.3788 48.0903 45.8672 48.6922 45.3749 49.3115C45.3572 49.3459 45.3322 49.3761 45.3018 49.4C45.2714 49.4231 45.2368 49.44 45.1999 49.45C45.1624 49.4577 45.1238 49.4577 45.0864 49.45C45.0486 49.4443 45.0125 49.4306 44.9806 49.4096C44.5152 49.2038 44.0518 48.9826 43.5767 48.7903C43.2863 48.6576 43.094 48.4884 43.2056 48.1961ZM48.975 43.894C49.9801 43.8943 50.9695 43.6454 51.8548 43.1696C52.7401 42.6938 53.4936 42.0059 54.0478 41.1675C54.6021 40.3292 54.9399 39.3664 55.0309 38.3655C55.122 37.3646 54.9634 36.3568 54.5695 35.4321C54.1772 34.5054 53.5613 33.6904 52.777 33.06C51.9926 32.4296 51.0643 32.0034 50.0749 31.8195C49.0855 31.6357 48.066 31.6999 47.1076 32.0065C46.1491 32.3131 45.2816 32.8524 44.5825 33.5763C44.0262 34.153 43.5896 34.8342 43.2978 35.5805C43.0061 36.3268 42.8649 37.1234 42.8825 37.9245C42.9103 39.5193 43.5649 41.0391 44.7048 42.1548C45.8447 43.2706 47.3781 43.8926 48.9731 43.8863L48.975 43.894Z" fill="#839D1C"/>
<path d="M42.7515 0.038502C44.3189 0.038502 45.8862 0.0673497 47.4517 0.0269636C48.2479 0.00773209 48.6056 0.236588 48.596 1.1097C48.5536 3.89057 48.5825 6.67337 48.5786 9.45424C48.5786 9.70425 48.6729 10.0312 48.444 10.1735C48.1267 10.3658 47.9248 10.0158 47.7286 9.84464C44.8118 7.29455 41.9053 4.7406 39.0091 2.18281C38.5302 1.75972 38.0321 1.35586 37.5705 0.915458C37.3609 0.713527 36.9032 0.571214 37.0724 0.205815C37.2244 -0.119197 37.6494 0.0385031 37.9552 0.0365799C39.5533 0.0231179 41.1534 0.0365799 42.7515 0.0365799V0.038502Z" fill="#839D1C"/>
<path d="M40.6823 11.962C39.0495 11.962 37.4129 11.9466 35.7859 11.962C35.0955 11.962 34.8244 11.7043 34.8244 11.0004C34.8494 8.15219 34.8244 5.30401 34.8359 2.4539C34.8359 2.23659 34.7609 1.95004 34.9628 1.82696C35.2474 1.65387 35.4244 1.95388 35.6032 2.10966C39.0457 5.12259 42.4836 8.14066 45.9171 11.1638C46.094 11.3196 46.4075 11.4696 46.269 11.7696C46.1306 12.0697 45.8171 11.962 45.5728 11.962C43.9459 11.962 42.315 11.962 40.6823 11.962Z" fill="#839D1C"/>
</g>
<defs>
<clipPath id="clip0_4052_28920">
<rect width="60.8091" height="60.8091" fill="white" transform="translate(0.269775 0.269653)"/>
</clipPath>
</defs>
</svg>
