<svg width="61" height="61" viewBox="0 0 61 61" fill="none" xmlns="http://www.w3.org/2000/svg">
<g clip-path="url(#clip0_18631_15091)">
<path d="M23.4507 0C25.6803 0 27.7462 0.475196 29.5085 1.96202C31.5224 3.65915 32.3916 5.92865 32.6738 8.42842C33.1078 12.2886 32.1614 15.8253 29.8306 18.944C28.3491 20.9286 26.3884 22.2584 23.9033 22.514C21.8841 22.7216 20.1217 21.8564 18.6256 20.5466C15.9634 18.2079 14.6696 15.1651 14.2543 11.6962C14.0956 10.3748 14.1293 9.0374 14.3541 7.72562C15.1954 2.76999 18.4499 0.00665543 23.4507 0Z" fill="#2B908F"/>
<path d="M10.7735 46.6838C7.97821 46.6838 5.18293 46.6838 2.38765 46.6838C1.96037 46.6838 1.6449 46.6253 1.64623 46.0915C1.64623 42.7465 1.59565 39.4001 1.99498 36.0684C2.23191 34.1038 3.16234 32.6462 4.95265 31.7012C6.41203 30.9525 7.94407 30.3548 9.52493 29.9175C10.7375 29.5648 11.9528 29.22 13.1548 28.8313C13.6287 28.6783 13.8749 28.8034 14.1212 29.22C15.1674 30.9957 16.2389 32.7567 17.3158 34.5151C17.7763 35.2671 17.9068 35.2831 18.6202 34.8239C20.0724 33.8921 19.6505 34.0585 20.5809 35.1593C21.3796 36.1097 21.5526 37.0561 21.2904 38.2741C20.738 40.8497 20.3387 43.4653 19.9034 46.0582C19.8155 46.576 19.548 46.6878 19.0821 46.6852C16.3161 46.6772 13.5515 46.6838 10.7735 46.6838Z" fill="#2B908F"/>
<path d="M29.4592 46.6838C28.9055 46.6838 28.3491 46.6598 27.7967 46.6838C27.3042 46.7104 27.0819 46.5201 26.9981 46.0262C26.624 43.7301 26.222 41.4393 25.8294 39.1458C25.8147 39.058 25.8001 38.9701 25.7828 38.8796C25.3103 36.4837 25.3182 36.4837 26.7705 34.5323C27.0527 34.1529 27.2883 34.1463 27.6503 34.3992C29.1145 35.3988 29.032 35.5306 30.0902 33.7589C30.998 32.2362 31.9058 30.7121 32.7989 29.18C33.0066 28.8233 33.2395 28.6662 33.6601 28.802C35.7899 29.4888 37.9769 30 40.0707 30.7986C41.2123 31.2351 42.284 31.836 43.252 32.5823C43.4929 32.7673 43.8256 32.9723 43.7604 33.305C43.6952 33.6378 43.2932 33.5713 43.0257 33.6205C37.4884 34.6055 32.7084 39.641 32.0269 45.2169C31.8486 46.6811 31.8485 46.6811 30.3883 46.6811L29.4592 46.6838Z" fill="#2B908F"/>
<path d="M39.0377 13.7981C38.9978 13.2656 38.6624 12.9328 38.4254 12.5695C38.1885 12.2061 38.1592 11.9319 38.5066 11.647C38.6027 11.5535 38.6917 11.453 38.7729 11.3462C39.7459 10.256 39.7459 10.256 40.9745 11.0001C41.0317 11.0347 41.085 11.0746 41.1449 11.1039C41.9076 11.478 44.1425 10.3878 44.3102 9.55721C44.3528 9.34024 44.394 9.12195 44.4233 8.90232C44.4766 8.503 44.6895 8.31531 45.0889 8.32064C45.2659 8.32064 45.4429 8.32064 45.6213 8.32064C47.2892 8.30733 47.0269 8.32064 47.2931 9.63708C47.3837 10.0803 47.5873 10.3585 48.0079 10.5023C48.2636 10.5764 48.5112 10.6763 48.7467 10.8005C49.6265 11.3209 50.4491 11.3409 51.2278 10.6035C51.5353 10.3119 51.8228 10.3878 52.0757 10.7006C52.1346 10.7668 52.1972 10.8294 52.2634 10.8883C53.3828 11.9878 53.3829 11.9878 52.6321 13.3149C52.5953 13.3706 52.5632 13.4294 52.5363 13.4906C52.2967 14.1215 53.4427 16.3018 54.0963 16.4549C54.3119 16.5041 54.5316 16.5454 54.7512 16.5734C55.2304 16.6333 55.4593 16.8928 55.4274 17.38C55.4194 17.4905 55.4274 17.601 55.4274 17.7128C55.4274 19.4232 55.5059 19.2622 54.0271 19.5124C53.9822 19.5189 53.9377 19.5282 53.894 19.5403C53.1872 19.76 52.31 22.124 52.696 22.7576C53.4254 23.9476 53.4254 23.9476 52.4298 24.9326C51.6897 25.6687 51.6698 25.6966 50.7939 25.0657C50.2748 24.689 49.7982 24.6477 49.2525 24.9326C49.0399 25.0535 48.8138 25.1491 48.579 25.2174C47.7058 25.4384 47.1946 25.9349 47.1707 26.8826C47.156 27.431 46.8219 27.6626 46.2842 27.6134C46.195 27.6054 46.1058 27.6134 46.018 27.6134C44.599 27.6134 44.5924 27.6214 44.2742 26.2543C44.1851 25.875 44.008 25.6114 43.6273 25.4903C43.3708 25.418 43.123 25.3176 42.8886 25.1908C41.9781 24.6584 41.1103 24.5585 40.297 25.3678C40.2505 25.4168 40.1916 25.4522 40.1266 25.4703C39.272 25.6261 39.1043 24.7702 38.6025 24.4055C38.3363 24.2138 37.9982 23.9023 38.3483 23.519C39.1469 22.6471 38.9991 21.7886 38.5586 20.7796C38.2125 19.9876 37.8571 19.4312 36.9413 19.4019C36.349 19.3846 36.1187 19.0572 36.1999 18.4835C36.2052 18.4175 36.2052 18.3511 36.1999 18.2851C36.1999 16.813 36.1999 16.8116 37.5815 16.4216C37.7759 16.3684 38.0008 16.3311 38.094 16.1448C38.4704 15.3888 38.7859 14.6041 39.0377 13.7981ZM40.0254 17.955C40.0254 21.0684 42.6317 23.6933 45.7371 23.7053C48.8918 23.7173 51.5286 21.0897 51.514 17.9497C51.4994 14.8563 48.8518 12.2101 45.7677 12.2127C42.6836 12.2154 40.0281 14.8749 40.0254 17.955Z" fill="#2B908F"/>
<path d="M45.7704 59.9974C38.8567 60.1385 32.964 54.3709 32.932 47.2056C32.9014 40.1975 38.7675 34.3913 45.801 34.3953C52.7785 34.3953 58.622 40.1748 58.5954 47.207C58.5674 54.6078 52.5323 60.1291 45.7704 59.9974ZM56.8929 47.2189C57.0487 41.1079 51.8867 36.0458 45.7677 36.0378C39.6847 36.0245 34.552 41.0959 34.5866 47.1617C34.6239 53.9742 40.2477 58.4759 45.7677 58.3841C52.0078 58.2829 56.8942 53.4697 56.8929 47.2229V47.2189Z" fill="#2B908F"/>
<path d="M23.4454 30.1837C23.287 30.0812 23.1299 29.9987 22.9955 29.8908C21.6538 28.8033 20.3187 27.7052 18.9716 26.6244C18.6482 26.3582 18.6043 26.1359 18.8612 25.7924C19.4128 25.0601 19.7088 24.1669 19.7037 23.2501C19.7037 22.7469 19.9034 22.687 20.3187 22.8787C22.3912 23.8344 24.4743 23.8531 26.5522 22.8987C27.0207 22.683 27.239 22.7389 27.243 23.3153C27.234 24.2327 27.5273 25.1276 28.0776 25.8617C28.2759 26.1279 28.2839 26.3156 28.0177 26.5272C26.6107 27.6759 25.2118 28.834 23.8061 29.988C23.6922 30.0643 23.5714 30.1298 23.4454 30.1837Z" fill="#2B908F"/>
<path d="M23.5159 36.9457C24.1589 36.8259 24.4051 37.12 24.5076 37.7536C24.9855 40.682 25.5073 43.5984 26.0171 46.5188C26.0575 46.6912 26.0543 46.8709 26.0079 47.0417C25.9614 47.2126 25.873 47.3691 25.7508 47.4972C25.1026 48.1947 24.461 48.8975 23.8341 49.6136C23.5679 49.9171 23.3469 49.9464 23.0754 49.6362C22.3899 48.8536 21.6977 48.0775 21.0069 47.3002C20.7659 47.034 20.8365 46.7305 20.8924 46.4203C21.4048 43.5239 21.9293 40.6288 22.4085 37.7257C22.527 37.0215 22.8943 36.8458 23.5159 36.9457Z" fill="#2B908F"/>
<path d="M32.2971 27.9369C32.2532 28.0181 32.1946 28.1365 32.1267 28.2497C31.1311 29.9215 30.1221 31.5854 29.1464 33.2692C28.8643 33.7577 28.5954 33.8016 28.1508 33.4848C27.0966 32.7541 26.0211 32.0499 24.9562 31.3551C24.5569 31.0889 24.4317 30.8652 24.8763 30.5059C26.4071 29.2688 27.9267 28.0185 29.4353 26.7549C29.7987 26.45 30.1195 26.4247 30.5135 26.6617C31.006 26.9572 31.5171 27.2221 32.0176 27.5069C32.1627 27.5855 32.3344 27.6693 32.2971 27.9369Z" fill="#2B908F"/>
<path d="M22.3579 30.844C22.3579 31.0836 22.2248 31.1674 22.0917 31.2513C20.9323 32.026 19.7676 32.7927 18.6122 33.5714C18.2715 33.8016 18.0572 33.7045 17.8602 33.381C16.8264 31.6542 15.7859 29.9304 14.7388 28.2097C14.5338 27.8717 14.587 27.6467 14.9451 27.4643C15.4775 27.1981 16.01 26.9079 16.5224 26.6124C16.6591 26.5172 16.8247 26.4726 16.9907 26.4865C17.1567 26.5003 17.3126 26.5717 17.4316 26.6883C18.961 27.9622 20.501 29.2174 22.0345 30.4939C22.151 30.6022 22.2591 30.7192 22.3579 30.844Z" fill="#2B908F"/>
<path d="M23.4614 35.8607C22.5775 36.1522 22.1303 35.5945 21.707 34.9543C20.5556 33.2079 20.4252 33.7337 22.1742 32.4332C23.1326 31.7211 23.8434 31.7384 24.7738 32.4611C26.3831 33.7084 26.4337 33.0761 25.2024 35.0048C24.7845 35.6597 24.3079 36.103 23.4614 35.8607Z" fill="#2B908F"/>
<path d="M45.777 13.3215C46.3879 13.316 46.9937 13.4323 47.5591 13.6638C48.1244 13.8953 48.6379 14.2372 49.0695 14.6695C49.5011 15.1018 49.8421 15.6159 50.0726 16.1817C50.3031 16.7474 50.4185 17.3534 50.4119 17.9643C50.4137 19.198 49.9289 20.3827 49.0627 21.2611C48.1964 22.1396 47.0187 22.641 45.785 22.6564C43.2826 22.671 41.041 20.4321 41.0623 17.9404C41.0836 15.4046 43.212 13.3201 45.777 13.3215Z" fill="#2B908F"/>
<path d="M45.7637 57.3312C40.1465 57.3312 35.6874 52.8494 35.6754 47.2149C35.6648 41.7575 39.9349 37.1705 45.777 37.0814C51.3183 36.9962 55.8667 41.6523 55.8653 47.2295C55.871 48.5577 55.6135 49.8738 55.1079 51.1019C54.6022 52.3301 53.8583 53.4459 52.9192 54.385C51.9801 55.3242 50.8642 56.068 49.6361 56.5737C48.408 57.0793 47.0919 57.3368 45.7637 57.3312ZM46.3241 44.7617C46.3241 44.1854 46.3241 43.609 46.3241 43.0313C46.3241 42.6227 46.5158 42.5268 46.8765 42.6493C47.2074 42.7482 47.509 42.9265 47.7552 43.1688C48.0013 43.411 48.1845 43.7097 48.2888 44.0389C48.4126 44.409 48.6096 44.7258 49.0528 44.5567C49.4961 44.3877 49.4016 44.003 49.2778 43.6516C48.9397 42.6905 48.2941 41.9531 47.3237 41.7202C46.4572 41.5125 46.2136 41.0946 46.3095 40.2866C46.3561 39.8993 46.2762 39.4707 45.7504 39.488C45.2246 39.5053 45.2752 39.9578 45.3058 40.2959C45.3751 41.068 45.1394 41.4606 44.3128 41.7016C42.1658 42.3285 41.5761 44.9827 43.1521 46.5653C43.6022 46.9956 44.143 47.3194 44.7348 47.5131C45.0263 47.6182 45.2672 47.762 45.2672 48.1054C45.2752 49.1916 45.2805 50.2777 45.2672 51.3626C45.2672 51.7473 45.0383 51.8684 44.6842 51.7366C43.9814 51.4704 43.4649 51.0218 43.22 50.299C43.0869 49.9317 42.9738 49.5004 42.468 49.6907C41.9621 49.8811 42.1072 50.3363 42.2417 50.7143C42.621 51.7792 43.3997 52.4447 44.4553 52.7469C45.0742 52.9239 45.3191 53.2367 45.3045 53.8783C45.2952 54.2776 45.0582 54.9671 45.7917 54.9525C46.4692 54.9392 46.3241 54.287 46.3002 53.857C46.2642 53.2594 46.4798 52.9865 47.0708 52.8587C48.3367 52.5845 49.1607 51.8218 49.3656 50.5014C49.556 49.2808 49.0582 48.0215 47.7817 47.573C46.3175 47.0592 46.1617 46.1301 46.3175 44.8855C46.3229 44.8445 46.326 44.8031 46.3268 44.7617H46.3241Z" fill="#2B908F"/>
<path d="M45.2898 44.5594C45.2898 45.0452 45.2992 45.5311 45.2898 46.0156C45.2818 46.3404 45.1474 46.5054 44.78 46.3923C44.0293 46.1593 43.3611 45.3527 43.3158 44.59C43.2706 43.8273 43.8057 43.0233 44.5471 42.7092C45.0982 42.4762 45.2765 42.576 45.2992 43.1697C45.3165 43.6316 45.2992 44.1015 45.2992 44.5594H45.2898Z" fill="#2B908F"/>
<path d="M46.3308 49.9463C46.3308 49.4805 46.3308 49.0146 46.3308 48.55C46.3308 48.2838 46.4346 48.1507 46.7394 48.196C47.5114 48.3291 48.3048 49.2196 48.3487 50.0315C48.3953 50.8967 47.8402 51.5916 46.9577 51.8112C46.5304 51.919 46.3188 51.8019 46.3268 51.3427C46.3347 50.8834 46.3308 50.4122 46.3308 49.9463Z" fill="#2B908F"/>
</g>
<defs>
<clipPath id="clip0_18631_15091">
<rect width="56.9438" height="60" fill="white" transform="translate(1.65155)"/>
</clipPath>
</defs>
</svg>
