<svg width="61" height="61" viewBox="0 0 61 61" fill="none" xmlns="http://www.w3.org/2000/svg">
<g clip-path="url(#clip0_18631_14979)">
<path d="M0 30.0207C0 20.8937 0 11.7667 0 2.63969C0 0.704484 0.713046 -0.00427246 2.67392 -0.00427246H40.2543C42.1582 -0.00427246 42.8883 0.723029 42.8912 2.60975C42.8912 3.01476 42.8327 3.42832 42.9026 3.8205C43.068 4.74603 42.6074 5.20952 41.8273 5.55178C40.8704 5.97105 39.9392 6.45023 39.0036 6.91513C37.3251 7.74797 36.4951 9.13271 36.4823 10.9795C36.4566 14.3764 36.4566 17.7743 36.4823 21.1732C36.4937 23.0528 37.338 24.4447 39.0493 25.2875C40.1574 25.8351 41.2583 26.3941 42.3706 26.9303C42.7657 27.1214 42.9126 27.3952 42.9068 27.8316C42.8869 29.2577 42.8869 30.6838 42.9068 32.1099C42.9068 32.5691 42.7771 32.8686 42.3507 33.0711C41.2583 33.593 40.1802 34.1478 39.0921 34.6797C37.328 35.5354 36.4894 36.9743 36.4851 38.9109C36.4766 42.2385 36.4766 45.566 36.4851 48.8936C36.4851 50.8317 37.3294 52.2635 39.0949 53.122C40.0932 53.6083 41.0914 54.1202 42.1068 54.588C42.6944 54.8575 42.9767 55.2283 42.9126 55.9085C42.8484 56.5888 42.9126 57.2391 42.8926 57.9051C42.8541 59.1187 42.0227 59.9444 40.8105 59.9914C40.4069 60.0071 40.0019 59.9914 39.5983 59.9914H2.66252C0.723035 59.9914 0.0114112 59.2784 0.0114112 57.3218C0.00380535 48.2233 0 39.1229 0 30.0207ZM24.6814 17.1131C27.4109 17.1131 30.1419 17.1131 32.8714 17.1131C33.6658 17.1131 34.182 16.6753 34.172 16.0863C34.1635 15.5159 33.6672 15.0881 32.9171 15.0881C27.4095 15.0776 21.9015 15.0776 16.3929 15.0881C15.6414 15.0881 15.1437 15.5159 15.128 16.0763C15.1123 16.6653 15.63 17.0832 16.42 17.116C16.6083 17.116 16.7994 17.116 16.9905 17.116L24.6814 17.1131ZM24.6443 25.7709H24.2821C21.6467 25.7709 19.0055 25.7709 16.3772 25.7795C15.6271 25.7795 15.1294 26.2073 15.1223 26.7777C15.1152 27.3482 15.6114 27.7632 16.353 27.8045C16.5427 27.8145 16.7338 27.8045 16.9234 27.8045H22.4068C25.8978 27.8045 29.3875 27.8045 32.8771 27.8045C33.6672 27.8045 34.1834 27.3582 34.1606 26.7678C34.1449 26.1973 33.6501 25.8123 32.8957 25.7695C32.706 25.7609 32.5163 25.7695 32.3252 25.7695L24.6443 25.7709ZM24.6443 36.4666C22.0089 36.4666 19.3739 36.4666 16.7395 36.4666C16.4557 36.4601 16.1722 36.4884 15.8952 36.5508C15.681 36.5903 15.4876 36.704 15.3488 36.872C15.2101 37.0399 15.1349 37.2513 15.1365 37.4692C15.1294 37.9455 15.4118 38.2763 15.8696 38.4061C16.1215 38.4708 16.381 38.5015 16.6411 38.4974C18.4451 38.5059 20.2491 38.4974 22.0602 38.4974C25.6697 38.4974 29.2777 38.4974 32.8871 38.4974C33.6772 38.4974 34.1934 38.0524 34.1706 37.4635C34.1549 36.893 33.6601 36.5051 32.9071 36.4652C32.7402 36.4652 32.5748 36.4652 32.408 36.4652L24.6443 36.4666ZM24.6443 47.1623C21.8905 47.1623 19.1353 47.1538 16.3815 47.1623C15.6328 47.1623 15.1351 47.5901 15.1266 48.1606C15.118 48.731 15.6157 49.146 16.3573 49.1888C16.5455 49.1988 16.7366 49.1888 16.9277 49.1888H22.2699C25.8066 49.1888 29.3447 49.1888 32.8814 49.1888C33.6715 49.1888 34.1877 48.7438 34.1649 48.1534C34.1478 47.583 33.6529 47.1965 32.9 47.1552C32.7103 47.1466 32.5206 47.1552 32.3295 47.1552L24.6443 47.1623ZM7.55686 17.0603C7.91196 17.0304 8.16723 16.8265 8.40539 16.5869C9.26105 15.7312 10.1167 14.8756 10.9724 14.0199C11.4744 13.5165 11.9991 13.0345 12.4726 12.504C13.0316 11.8794 12.7393 10.9966 11.9578 10.8668C11.53 10.797 11.2447 11.0365 10.9595 11.3118C10.121 12.1503 9.28244 12.986 8.44675 13.8274C7.53405 14.7458 7.53691 14.7472 6.60139 13.8017C6.45878 13.6506 6.30619 13.4923 6.14789 13.3511C5.62452 12.8862 5.10256 12.8662 4.70753 13.3126C4.27971 13.7932 4.36813 14.2695 4.79168 14.7002C5.45481 15.3776 6.12935 16.0435 6.80104 16.7124C6.99874 16.9222 7.27028 17.047 7.55829 17.0603H7.55686ZM12.7821 22.5095C12.7739 22.321 12.7125 22.1388 12.6049 21.9838C12.4974 21.8288 12.3482 21.7075 12.1746 21.6338C11.7096 21.4242 11.346 21.6239 11.0251 21.9433C10.0183 22.9416 9.0072 23.9484 8.01464 24.9652C7.67523 25.3117 7.3943 25.3331 7.06487 24.9652C6.77965 24.65 6.47446 24.3477 6.16072 24.0596C5.63877 23.5776 5.13679 23.5605 4.72037 23.9883C4.30395 24.4161 4.3282 24.9096 4.82733 25.4287C5.45006 26.079 6.08656 26.716 6.73686 27.3396C7.31728 27.8987 7.7608 27.9101 8.33551 27.3396C9.68745 26.0091 11.0194 24.6614 12.3614 23.3223C12.5981 23.1132 12.7486 22.8234 12.7835 22.5095H12.7821ZM12.7821 33.2051C12.7723 33.0256 12.7152 32.8519 12.6165 32.7016C12.5178 32.5513 12.3811 32.4298 12.2202 32.3495C11.7924 32.1356 11.4273 32.2539 11.1164 32.5577C10.352 33.3021 9.60046 34.0594 8.84748 34.8138C7.57113 36.0973 7.57113 36.0973 6.25057 34.8394C6.23345 34.8238 6.21777 34.8066 6.19923 34.791C5.64305 34.2804 5.12823 34.249 4.70468 34.7011C4.28113 35.1532 4.33389 35.6167 4.84729 36.1429C5.47192 36.7903 6.10653 37.4264 6.75683 38.0524C7.32726 38.6029 7.77506 38.5986 8.35691 38.0239C9.70599 36.6934 11.0408 35.3457 12.3813 34.0052C12.6128 33.7974 12.7566 33.5093 12.7835 33.1994L12.7821 33.2051ZM12.7821 43.8809C12.7688 43.7034 12.7092 43.5325 12.609 43.3853C12.5089 43.2381 12.3719 43.1198 12.2116 43.0423C11.7838 42.8355 11.4202 42.9696 11.1093 43.2719C10.3477 44.0178 9.59618 44.775 8.84177 45.5294C7.5697 46.8044 7.57113 46.8129 6.2962 45.5779L6.14361 45.4353C5.69724 45.0246 5.22663 44.9433 4.75317 45.374C4.31108 45.7747 4.32534 46.301 4.81449 46.8115C5.45338 47.477 6.10653 48.1306 6.77394 48.7724C7.32584 49.3015 7.77221 49.3043 8.32126 48.7724C9.6903 47.4261 11.0408 46.0628 12.3985 44.7037C12.5143 44.5981 12.6079 44.4704 12.6738 44.3281C12.7397 44.1859 12.7765 44.0319 12.7821 43.8752V43.8809Z" fill="#5E9BD7"/>
<path d="M48.2818 21.7807C48.2818 23.5633 48.2818 25.346 48.2818 27.1286C48.2818 27.883 48.1848 27.9414 47.5089 27.5835C44.902 26.2068 42.2993 24.8254 39.701 23.4393C38.8867 23.0114 38.5074 22.3184 38.5088 21.4042C38.5088 18.148 38.5088 14.8918 38.5088 11.6355C38.5088 10.8412 38.5901 10.7798 39.3074 11.1321C41.7546 12.3471 44.1461 13.6891 46.6475 14.7758C48.0194 15.3704 48.4487 16.1548 48.3118 17.5766C48.1777 18.9671 48.2818 20.3789 48.2818 21.7807Z" fill="#5E9BD7"/>
<path d="M48.2818 49.5353C48.2818 51.3422 48.2818 53.1491 48.2818 54.9545C48.2818 55.6818 48.182 55.746 47.5573 55.4165C44.9295 54.0304 42.306 52.638 39.6867 51.2395C38.8995 50.8202 38.5116 50.1528 38.5102 49.2672C38.5102 45.9644 38.5202 42.6602 38.4988 39.3573C38.4988 38.6642 38.7655 38.6628 39.2632 38.9124C41.5544 40.0647 43.8485 41.2141 46.1455 42.3607C46.2838 42.453 46.4309 42.5313 46.5847 42.5945C48.0679 42.9782 48.4643 43.9408 48.3146 45.4039C48.172 46.7673 48.2818 48.1577 48.2818 49.5353Z" fill="#5E9BD7"/>
<path d="M50.2199 21.688C50.2199 19.9054 50.2199 18.1228 50.2199 16.3416C50.2199 15.9466 50.2484 15.6143 50.6805 15.3989C53.4257 14.037 56.1595 12.6523 58.8976 11.2775C59.0873 11.182 59.2898 11.1092 59.4838 11.0194C59.8688 10.8426 60 10.9994 59.9971 11.3816C59.9971 12.2843 59.9971 13.1885 59.9971 14.0912C59.9971 16.4913 59.9872 18.89 59.9971 21.2901C59.9971 22.2884 59.6121 23.0171 58.7137 23.4892C56.1695 24.8297 53.6382 26.1888 51.0969 27.5321C50.2698 27.9685 50.217 27.9286 50.2156 26.9617C50.2165 25.2047 50.218 23.4469 50.2199 21.688Z" fill="#5E9BD7"/>
<path d="M50.2198 49.4883C50.2198 47.8483 50.2598 46.2083 50.2027 44.5697C50.1756 43.7554 50.4124 43.3105 51.201 42.9425C53.564 41.8316 55.8743 40.6052 58.206 39.4272C58.5454 39.2561 58.8891 39.0921 59.237 38.9409C59.9629 38.6272 59.99 38.6471 60.0028 39.413C60.0028 39.4372 60.0028 39.46 60.0028 39.4843C60.0028 42.6915 59.9943 45.9017 60.0028 49.1075C60.0028 50.1058 59.6107 50.8303 58.7194 51.3023C56.1524 52.6528 53.6011 54.0233 51.0384 55.3781C50.3254 55.7574 50.2327 55.7046 50.2298 54.906C50.2156 53.0992 50.2198 51.2937 50.2198 49.4883Z" fill="#5E9BD7"/>
<path d="M58.9033 8.96724C58.8463 9.18686 58.6566 9.25247 58.4912 9.33661C56.3245 10.4176 54.1578 11.4967 51.9911 12.5738C51.268 12.9346 50.5436 13.2869 49.8348 13.6733C49.6635 13.7782 49.4669 13.8347 49.266 13.8367C49.065 13.8387 48.8674 13.7862 48.6939 13.6848C45.9416 12.2929 43.1778 10.9224 40.4226 9.53767C40.1374 9.39507 39.6796 9.32377 39.6539 8.98008C39.624 8.5822 40.1146 8.5708 40.3898 8.43104C42.8427 7.18036 45.3127 5.96247 47.7584 4.70038C48.7752 4.17558 49.7264 4.177 50.7432 4.70038C53.2774 5.99955 55.833 7.26733 58.3771 8.53941C58.5839 8.63924 58.8335 8.70056 58.9033 8.96724Z" fill="#5E9BD7"/>
<path d="M49.2116 32.0957C49.745 32.0572 50.1842 32.2383 50.6106 32.4536C53.2023 33.7476 55.7911 35.0448 58.3771 36.3454C58.5824 36.4481 58.8919 36.5066 58.8848 36.7733C58.8777 37.0399 58.5696 37.0984 58.3643 37.2011C55.5221 38.6272 52.6741 40.0419 49.8362 41.4794C49.6639 41.5814 49.4678 41.6364 49.2675 41.6386C49.0672 41.6409 48.8699 41.5904 48.6953 41.4922C45.9002 40.0789 43.0951 38.6856 40.2928 37.2852C40.2053 37.2484 40.1209 37.2045 40.0404 37.154C39.875 37.0385 39.6012 36.9929 39.6368 36.7262C39.6653 36.5108 39.8992 36.4723 40.0646 36.3896C42.0764 35.3723 44.0896 34.357 46.1041 33.3435C46.8457 32.9718 47.5935 32.61 48.3474 32.2582C48.6148 32.125 48.914 32.0688 49.2116 32.0957Z" fill="#5E9BD7"/>
</g>
<defs>
<clipPath id="clip0_18631_14979">
<rect width="60" height="60" fill="white"/>
</clipPath>
</defs>
</svg>
