<svg width="61" height="61" viewBox="0 0 61 61" fill="none" xmlns="http://www.w3.org/2000/svg">
<g clip-path="url(#clip0_18631_15023)">
<path d="M5.99526 23.6846C5.99526 18.0282 5.99526 12.3718 5.99526 6.71536C5.99526 5.04214 6.76013 4.27852 8.43709 4.27603C9.58001 4.27603 10.7234 4.27603 11.8671 4.27603C12.6507 4.27603 12.6307 4.29225 12.5322 5.04339C12.3325 6.55315 12.3937 8.0754 12.4835 9.58641C12.5446 10.6108 13.322 11.2085 14.4225 11.2209C15.795 11.2409 17.1675 11.2209 18.54 11.2209H31.7661C33.3345 11.2209 34.0918 10.4923 34.0644 8.94257C34.0407 7.53263 34.2229 6.11395 33.9059 4.71648C33.8336 4.39956 33.9908 4.28102 34.2603 4.28227C35.7364 4.28227 37.2162 4.22986 38.686 4.32219C39.7391 4.38957 40.509 5.36156 40.509 6.44335C40.5156 16.486 40.5202 26.5286 40.5227 36.5713C40.5227 37.1203 40.3368 37.2937 39.7977 37.285C38.1757 37.2588 36.5536 37.27 34.9316 37.2775C32.9876 37.2874 32.1678 38.1184 32.1666 40.0662C32.1666 42.5616 32.1491 45.0571 32.1778 47.5526C32.1853 48.1553 31.9869 48.3462 31.393 48.3424C28.3152 48.3208 25.2375 48.3208 22.1597 48.3424C21.6032 48.3424 21.3637 48.1328 21.2039 47.6062C20.0473 43.7832 16.4538 40.8685 12.4922 40.4679C10.3911 40.2533 8.38842 40.5303 6.50933 41.5198C5.91915 41.8305 5.99901 41.4137 5.99776 41.0856C5.99776 38.3206 5.99776 35.5552 5.99776 32.7893L5.99526 23.6846ZM13.2621 13.4394C12.4111 13.4394 11.5589 13.4294 10.7092 13.4394C10.0666 13.4494 9.8358 13.669 9.8358 14.3029C9.82499 15.9665 9.82499 17.6268 9.8358 19.2838C9.8358 19.9501 10.0853 20.1984 10.7379 20.2047C12.4016 20.2196 14.0623 20.2196 15.7201 20.2047C16.3091 20.2047 16.5936 19.9077 16.6035 19.3163C16.6173 17.6343 16.6035 15.9474 16.6035 14.2717C16.6035 13.7089 16.3091 13.4344 15.7513 13.4344L13.2621 13.4394ZM9.83455 34.2642C9.83455 35.0752 9.82582 35.8862 9.83455 36.696C9.84454 37.4247 10.0354 37.6518 10.7516 37.6618C12.4136 37.6842 14.0769 37.6743 15.7426 37.6618C16.319 37.6618 16.616 37.3735 16.616 36.7721C16.6073 35.1501 16.616 33.528 16.616 31.906C16.616 31.2584 16.3889 31.0188 15.7626 31.0138C14.0798 30.9988 12.3962 30.9988 10.7117 31.0138C10.0691 31.0138 9.85452 31.2447 9.84454 31.8872C9.81834 32.6833 9.83455 33.4744 9.83455 34.2642ZM13.1822 22.2535C12.3525 22.2535 11.5215 22.2447 10.6868 22.2535C10.013 22.2634 9.83955 22.4294 9.83455 23.1144C9.82333 24.7751 9.83455 26.4371 9.83455 28.1053C9.83455 28.6618 10.1028 28.9638 10.6655 28.965C12.3691 28.97 14.0723 28.97 15.775 28.965C16.334 28.965 16.6123 28.6606 16.6123 28.1041C16.6123 26.4221 16.6123 24.7398 16.6123 23.057C16.6123 22.523 16.344 22.2547 15.8037 22.2572C14.9216 22.2559 14.0494 22.2535 13.176 22.2535H13.1822ZM28.5057 16.2281H35.3683C36.2068 16.2281 36.616 16.016 36.5574 15.5656C36.4663 14.8581 35.8911 14.9417 35.3982 14.9417C30.8032 14.9417 26.2082 14.9417 21.6132 14.9417C21.4047 14.9324 21.1958 14.9428 20.9893 14.9729C20.6737 15.0328 20.4553 15.2299 20.4478 15.5668C20.4403 15.9037 20.6525 16.1108 20.9606 16.1907C21.1663 16.2284 21.3758 16.2414 21.5845 16.2294C23.8862 16.2294 26.1912 16.229 28.4995 16.2281H28.5057ZM28.5057 23.767C26.1799 23.767 23.8541 23.767 21.5296 23.767C21.0642 23.767 20.4416 23.6746 20.4665 24.3796C20.489 25.0409 21.0904 24.9785 21.567 24.9785C26.197 24.9785 30.8269 24.9785 35.4569 24.9785C35.6657 24.9901 35.8751 24.9767 36.0807 24.9386C36.3902 24.86 36.5973 24.6516 36.5798 24.3147C36.5586 24.0028 36.349 23.8331 36.0508 23.7932C35.8436 23.771 35.6352 23.7627 35.4269 23.7682C33.1103 23.7657 30.7999 23.7653 28.4957 23.767H28.5057ZM27.3828 32.4013H21.3262C20.8658 32.4013 20.4528 32.5261 20.4528 33.0639C20.4528 33.563 20.8583 33.6877 21.2938 33.6877H21.5433C25.3889 33.6877 29.2348 33.6877 33.0812 33.6877C33.29 33.6976 33.4993 33.6837 33.705 33.6465C33.9833 33.5817 34.2041 33.4145 34.2166 33.0963C34.2391 32.7494 34.0382 32.541 33.7337 32.4587C33.5109 32.4105 33.2827 32.3917 33.055 32.4026C31.1617 32.3992 29.2689 32.3988 27.3765 32.4013H27.3828ZM30.2725 17.4284H24.7825C24.3433 17.4284 23.949 17.5619 23.9565 18.0648C23.964 18.5676 24.3458 18.7061 24.7887 18.7136H24.9759C28.4887 18.7136 32.0011 18.7136 35.513 18.7136C35.6995 18.7223 35.8863 18.7055 36.0683 18.6637C36.2141 18.6341 36.3446 18.5533 36.4361 18.4359C36.5277 18.3185 36.5742 18.1723 36.5674 18.0236C36.5674 17.673 36.3178 17.5133 36.0084 17.4534C35.8233 17.4272 35.6361 17.4184 35.4494 17.4272C33.7192 17.4264 31.9915 17.4272 30.2663 17.4297L30.2725 17.4284ZM30.3174 26.1626C28.4683 26.1626 26.6191 26.1626 24.77 26.1626C24.3308 26.1626 23.9477 26.3148 23.9589 26.8177C23.9689 27.2706 24.322 27.4328 24.7413 27.4415C24.8461 27.4415 24.9497 27.4415 25.0532 27.4415C28.5228 27.4415 31.9923 27.4415 35.4619 27.4415C35.6892 27.4517 35.9168 27.4273 36.1369 27.3692C36.2622 27.3309 36.3715 27.2525 36.448 27.1462C36.5246 27.0398 36.5641 26.9112 36.5606 26.7802C36.557 26.6492 36.5106 26.523 36.4284 26.4209C36.3463 26.3188 36.2329 26.2465 36.1057 26.215C35.9036 26.1718 35.6971 26.153 35.4906 26.1589C33.7599 26.1664 32.0356 26.1689 30.3112 26.1701L30.3174 26.1626ZM29.1471 34.9891C27.6722 34.9891 26.1978 34.9891 24.7238 34.9891C24.337 34.9891 23.9752 35.1139 23.9602 35.5456C23.9477 36.0048 24.3021 36.1695 24.7188 36.1944C24.8436 36.2019 24.9684 36.2019 25.0932 36.2019H33.1298C33.3166 36.2087 33.5037 36.1991 33.6888 36.1732C34.0058 36.1171 34.2229 35.9411 34.2278 35.5918C34.2328 35.2424 34.0145 35.0652 33.6938 35.0141C33.5084 34.9909 33.3215 34.9822 33.1348 34.9879C31.8014 34.992 30.4701 34.9949 29.1408 34.9966L29.1471 34.9891Z" fill="#E6BE09"/>
<path d="M45.9691 57.985C42.2059 57.985 38.4427 57.985 34.6795 57.985C33.5566 57.985 33.2122 57.6468 33.2109 56.5451C33.2109 50.9519 33.2109 45.3587 33.2109 39.7655C33.2109 38.7199 33.6002 38.3281 34.6371 38.3256C36.7994 38.3256 38.9618 38.3331 41.1253 38.3181C41.6244 38.3181 41.8291 38.3917 41.8041 39.0069C41.733 40.8136 41.7467 42.6253 41.7841 44.432C41.8066 45.555 42.6813 46.3723 43.8791 46.4047C45.3132 46.443 46.7476 46.443 48.1825 46.4047C49.4839 46.3685 50.3037 45.5063 50.29 44.1975C50.2738 42.3907 50.391 40.579 50.2214 38.7773C50.1839 38.3805 50.4297 38.3293 50.7205 38.3281H53.1535C54.5672 38.3281 55.9809 38.3281 57.3959 38.3281C58.3279 38.3281 58.7284 38.7311 58.7297 39.6619C58.7297 45.3383 58.7297 51.0147 58.7297 56.6911C58.7297 57.6256 58.3479 57.985 57.3809 57.985C53.5778 57.9883 49.7738 57.9883 45.9691 57.985ZM50.9326 53.2323H49.9344C48.8351 53.2323 47.7358 53.2323 46.6366 53.2411C46.271 53.2411 45.9553 53.3995 45.9291 53.7976C45.9029 54.1956 46.1787 54.384 46.538 54.4738C46.6384 54.4991 46.7415 54.5121 46.845 54.5125C49.5413 54.5125 52.2389 54.52 54.9353 54.5125C55.402 54.5125 55.8711 54.3615 55.8512 53.8063C55.8312 53.2511 55.3521 53.2336 54.9129 53.2336L50.9326 53.2323ZM51.9308 50.8704H48.8114C48.3897 50.8704 47.9492 50.9365 47.928 51.4393C47.9068 51.9422 48.3023 52.1493 48.7702 52.1505C50.8456 52.158 52.9206 52.158 54.9952 52.1505C55.4618 52.1505 55.8599 51.9522 55.8474 51.4481C55.8349 50.944 55.397 50.8691 54.974 50.8691L51.9308 50.8704Z" fill="#E6BE09"/>
<path d="M11.3406 41.4174C16.3141 41.224 20.6512 45.5174 20.65 50.7105C20.65 55.558 16.5324 60.0923 11.2146 59.9962C6.07012 59.9039 2.01747 55.8512 2 50.6506C1.98004 45.0533 6.81253 41.1379 11.3406 41.4174ZM7.4102 50.9214C7.40146 51.0462 7.55244 51.267 7.75706 51.4592C8.36222 52.0269 8.98859 52.5734 9.5613 53.1723C9.97804 53.609 10.3099 53.5778 10.7092 53.1723C11.6363 52.2515 12.5946 51.3619 13.5204 50.4398C13.9895 49.9706 14.4325 49.4765 14.9328 49.0373C15.2398 48.769 15.4007 48.3835 15.1062 48.0479C14.7906 47.6873 14.3925 47.7983 14.0606 48.1015C13.8111 48.3224 13.5703 48.5482 13.3382 48.7853C12.3974 49.751 11.4529 50.7143 10.5283 51.695C10.2338 52.0082 10.0167 52.0294 9.71726 51.7037C9.29678 51.2458 8.84385 50.8191 8.39342 50.3874C8.30429 50.2985 8.19104 50.2378 8.06771 50.2127C7.94438 50.1877 7.81641 50.1994 7.69967 50.2464C7.46385 50.3325 7.42767 50.5409 7.4102 50.9227V50.9214Z" fill="#E6BE09"/>
<path d="M23.2028 10.184C20.3538 10.184 17.5057 10.184 14.6583 10.184C13.7088 10.184 13.4854 9.95569 13.4829 9.00491C13.4829 7.86199 13.4829 6.71906 13.4829 5.57488C13.4929 4.03892 14.5597 2.95463 16.1032 2.88725C17.6466 2.81987 17.6292 2.82611 17.6441 1.26519C17.6529 0.224576 17.8625 0.00622559 18.8744 0.00622559C21.7858 0.00622559 24.6972 0.00622559 27.6086 0.00622559C28.5756 0.00622559 28.7777 0.220841 28.8027 1.16538C28.8164 1.70066 28.5781 2.35821 28.9175 2.73628C29.2568 3.11434 29.9406 2.85356 30.4709 2.88975C31.1522 2.93152 31.7929 3.2278 32.266 3.71985C32.7391 4.21189 33.01 4.86377 33.025 5.54619C33.045 6.73154 33.0362 7.91689 33.025 9.10099C33.025 9.91452 32.7505 10.1853 31.9357 10.1878C29.0244 10.1894 26.1134 10.1882 23.2028 10.184Z" fill="#E6BE09"/>
<path d="M49.2544 41.773C49.2544 42.604 49.2619 43.435 49.2544 44.2685C49.2469 45.0171 48.9324 45.3652 48.2125 45.374C46.7593 45.3923 45.3036 45.3923 43.8454 45.374C43.1379 45.3652 42.8185 45.0383 42.8123 44.3321C42.7998 42.6502 42.7998 40.9682 42.8123 39.2863C42.8123 38.6075 43.0843 38.338 43.7618 38.333C45.2774 38.3197 46.7934 38.3197 48.3098 38.333C49.0023 38.333 49.2381 38.5825 49.2481 39.2838C49.2631 40.1123 49.2544 40.942 49.2544 41.773Z" fill="#E6BE09"/>
<path d="M15.3159 16.8882C15.3159 17.406 15.3084 17.925 15.3159 18.4429C15.3159 18.781 15.1774 18.9307 14.8355 18.9282C13.7541 18.9207 12.6765 18.9207 11.6026 18.9282C11.2645 18.9282 11.1135 18.7847 11.116 18.4454C11.121 17.364 11.121 16.2863 11.116 15.2125C11.116 14.8756 11.2607 14.7246 11.6013 14.7258C12.6786 14.7325 13.7558 14.7325 14.833 14.7258C15.1736 14.7258 15.3209 14.8718 15.3159 15.21C15.3084 15.7702 15.3159 16.3292 15.3159 16.8882Z" fill="#E6BE09"/>
<path d="M13.2147 36.3854C12.7156 36.3854 12.2165 36.3741 11.7174 36.3854C11.3106 36.3978 11.1022 36.2606 11.1097 35.8139C11.1272 34.797 11.121 33.7801 11.1097 32.7632C11.1097 32.4375 11.2258 32.2416 11.5689 32.2404C12.6694 32.2404 13.7695 32.2404 14.8692 32.2404C15.1699 32.2404 15.3134 32.4001 15.3121 32.7108C15.3055 33.7705 15.3055 34.829 15.3121 35.8863C15.3121 36.2256 15.1649 36.3853 14.8267 36.3779C14.2877 36.3716 13.7475 36.3779 13.2047 36.3779L13.2147 36.3854Z" fill="#E6BE09"/>
<path d="M15.3171 25.5898C15.3171 26.1288 15.3059 26.6679 15.3171 27.2119C15.3283 27.5862 15.1599 27.7459 14.803 27.7459H11.63C11.2744 27.7459 11.106 27.585 11.111 27.2131C11.1222 26.1351 11.1185 25.0558 11.111 23.9777C11.111 23.6433 11.2582 23.4786 11.5951 23.4786C12.6765 23.4786 13.755 23.4786 14.8305 23.4786C15.1699 23.4786 15.3171 23.6371 15.3121 23.9777C15.3096 24.5105 15.3159 25.0495 15.3171 25.5898Z" fill="#E6BE09"/>
</g>
<defs>
<clipPath id="clip0_18631_15023">
<rect width="56.7384" height="60" fill="white" transform="translate(2)"/>
</clipPath>
</defs>
</svg>
