<svg width="62" height="62" viewBox="0 0 62 62" fill="none" xmlns="http://www.w3.org/2000/svg">
<path d="M34.8721 48.9104C34.2091 48.9436 33.735 48.99 33.2509 48.99H7.5174C5.33923 48.99 5.25966 48.99 5.36575 46.7919C5.49836 44.0568 5.66413 41.3117 6.02882 38.5998C6.44323 35.4966 8.04122 32.9306 10.7697 31.4387C13.6375 29.8772 16.7108 28.6836 19.7443 27.4603C20.2184 27.2647 21.0207 27.5697 21.5545 27.8614C25.2776 29.9103 28.9477 29.8772 32.6873 27.8614C33.3206 27.5299 34.3185 27.3608 34.9517 27.6128C37.9582 28.7449 40.8971 30.0489 43.7539 31.5182C45.08 32.2277 45.9984 33.6633 47.0228 34.9761C43.2798 35.1452 40.1568 36.3851 37.7399 39.0971C35.323 41.809 34.4279 45.0945 34.8721 48.9104Z" fill="#316494"/>
<path d="M42.7051 57.2982C42.755 56.5556 42.7869 55.8868 42.8508 55.2201C42.8763 55.032 42.8514 54.8406 42.7788 54.6653C42.7063 54.4899 42.5885 54.337 42.4376 54.2219C42.0178 53.8547 41.6236 53.4592 41.2578 53.0381C41.1628 52.9156 41.0388 52.8187 40.8969 52.7563C40.755 52.6939 40.5998 52.6679 40.4453 52.6808C39.6667 52.7367 38.8862 52.7746 38.1056 52.8325C38.0338 52.8483 37.9586 52.8366 37.8951 52.7996C37.8315 52.7626 37.7841 52.7031 37.7623 52.6329C37.5227 52.034 37.2752 51.4351 37.0276 50.8462C37.0006 50.7946 36.994 50.7347 37.0092 50.6785C37.0244 50.6222 37.0602 50.5738 37.1095 50.5428C37.7084 50.0337 38.2793 49.5067 38.8742 48.9996C38.9981 48.9008 39.0953 48.7724 39.1567 48.6262C39.2181 48.4801 39.2417 48.3209 39.2256 48.1632C39.1976 47.5643 39.2016 46.9654 39.2256 46.3665C39.2402 46.2083 39.2154 46.0489 39.1534 45.9026C39.0913 45.7563 38.9941 45.6276 38.8702 45.5281C38.2713 45.019 37.7004 44.492 37.1095 43.9809C37.0617 43.9536 37.0261 43.9091 37.0097 43.8565C36.9934 43.8039 36.9977 43.7471 37.0217 43.6975C37.2785 43.08 37.5347 42.4631 37.7902 41.8469C37.8078 41.7908 37.846 41.7433 37.8971 41.7141C37.9481 41.6848 38.0084 41.6759 38.0657 41.6892C38.8842 41.7531 39.7027 41.803 40.5231 41.8509C40.6587 41.855 40.7933 41.8271 40.916 41.7695C41.0388 41.7119 41.1463 41.6263 41.2298 41.5195C41.6291 41.0863 42.0503 40.6511 42.4935 40.2519C42.6225 40.1466 42.7232 40.0107 42.7863 39.8566C42.8494 39.7025 42.873 39.5351 42.8548 39.3695C42.7949 38.6069 42.759 37.8423 42.7011 37.0798C42.685 37.0147 42.6948 36.9459 42.7283 36.8879C42.7618 36.8299 42.8164 36.787 42.8808 36.7683C43.5076 36.5188 44.1285 36.2553 44.7573 36.0137C44.7999 36.0099 44.8428 36.016 44.8827 36.0315C44.9225 36.0471 44.9582 36.0718 44.9868 36.1036C45.5199 36.7025 46.0469 37.3014 46.5659 37.9002C46.6626 38.0151 46.7859 38.1045 46.9251 38.1609C47.0643 38.2173 47.2151 38.2388 47.3644 38.2236C47.9633 38.2037 48.5622 38.2017 49.1611 38.2236C49.3146 38.2412 49.4702 38.2201 49.6135 38.1623C49.7568 38.1044 49.8833 38.0116 49.9816 37.8923C50.4866 37.2934 51.0137 36.7184 51.5247 36.1275C51.5589 36.0708 51.6132 36.029 51.6769 36.0105C51.7405 35.992 51.8088 35.9981 51.8681 36.0277C52.467 36.2832 53.0658 36.5348 53.6647 36.7823C53.7216 36.7995 53.77 36.8372 53.8006 36.8881C53.8313 36.939 53.8419 36.9995 53.8304 37.0578C53.7765 37.7964 53.7466 38.5371 53.6807 39.2757C53.65 39.4671 53.6708 39.6632 53.741 39.8438C53.8112 40.0245 53.9282 40.1833 54.08 40.3038C54.5085 40.6844 54.9132 41.0911 55.2917 41.5215C55.3876 41.6377 55.5106 41.7285 55.6498 41.786C55.7891 41.8434 55.9403 41.8657 56.0902 41.8509C56.8887 41.791 57.6873 41.7411 58.5017 41.6952C58.5378 41.6952 58.5734 41.7039 58.6053 41.7205C58.6373 41.7372 58.6648 41.7614 58.6854 41.791C58.9662 42.4405 59.2377 43.0933 59.4999 43.7494C59.5028 43.7921 59.496 43.8349 59.4801 43.8746C59.4642 43.9144 59.4396 43.95 59.4081 43.9789C58.8391 44.49 58.2702 45.003 57.6853 45.4961C57.5455 45.6016 57.4354 45.7414 57.3655 45.9019C57.2955 46.0624 57.2682 46.2383 57.286 46.4124C57.3179 46.9993 57.306 47.5902 57.286 48.1791C57.2719 48.3294 57.2948 48.4808 57.353 48.62C57.4111 48.7593 57.5026 48.8821 57.6194 48.9777C58.2063 49.4787 58.7772 49.9978 59.3601 50.5048C59.4679 50.5987 59.5298 50.6825 59.47 50.8302C59.2224 51.4291 58.9769 52.028 58.7393 52.6409C58.7214 52.7106 58.6768 52.7705 58.6153 52.8078C58.5537 52.8451 58.48 52.8568 58.4099 52.8405C57.6374 52.7866 56.8648 52.7467 56.0942 52.6888C55.9325 52.6744 55.7698 52.701 55.6211 52.7663C55.4724 52.8315 55.3427 52.9333 55.2438 53.0621C54.8558 53.4953 54.4439 53.9065 54.0101 54.2938C53.8913 54.3864 53.7969 54.5067 53.7354 54.6441C53.6738 54.7816 53.6468 54.932 53.6568 55.0823C53.7107 55.8808 53.7625 56.6913 53.8005 57.4938C53.8004 57.5445 53.7887 57.5944 53.7662 57.6398C53.7437 57.6851 53.711 57.7247 53.6707 57.7554C53.0718 58.0268 52.461 58.2784 51.8561 58.5399C51.8267 58.5556 51.7946 58.5654 51.7614 58.5687C51.7283 58.5721 51.6948 58.5688 51.6629 58.5591C51.631 58.5495 51.6013 58.5337 51.5756 58.5126C51.5498 58.4914 51.5284 58.4655 51.5127 58.4361C51.0256 57.8372 50.5266 57.2383 50.0395 56.6394C49.9423 56.5128 49.8134 56.4142 49.6658 56.3535C49.5182 56.2929 49.3571 56.2724 49.199 56.2941C48.4784 56.348 47.7557 56.4358 47.0311 56.2941C46.8856 56.2625 46.7341 56.2747 46.5956 56.3291C46.4571 56.3834 46.3377 56.4775 46.2525 56.5995C45.7714 57.1984 45.2763 57.7793 44.8012 58.3782C44.7836 58.4107 44.7596 58.4393 44.7305 58.4622C44.7015 58.485 44.668 58.5016 44.6322 58.511C44.5965 58.5203 44.5592 58.5222 44.5226 58.5166C44.4861 58.5109 44.4511 58.4978 44.4199 58.478C43.9707 58.2784 43.5236 58.0648 43.0644 57.8791C42.783 57.7434 42.5973 57.5797 42.7051 57.2982ZM48.2767 53.1419C49.0499 53.1401 49.8152 52.9859 50.5287 52.6882C51.2423 52.3905 51.8902 51.9551 52.4354 51.4069C52.9807 50.8587 53.4125 50.2085 53.7064 49.4933C54.0002 48.7781 54.1502 48.0121 54.1478 47.2389C54.1437 46.4612 53.9854 45.6921 53.6819 44.9761C53.3785 44.2601 52.936 43.6113 52.3801 43.0675C51.8242 42.5237 51.1659 42.0955 50.4434 41.8079C49.7209 41.5202 48.9485 41.3788 48.1709 41.3918C47.3974 41.4024 46.6336 41.5661 45.9236 41.8734C45.2137 42.1808 44.5716 42.6257 44.0345 43.1825C43.4974 43.7393 43.0758 44.3969 42.7942 45.1174C42.5126 45.838 42.3765 46.6072 42.3937 47.3806C42.4199 48.9215 43.052 50.3901 44.1531 51.4684C45.2542 52.5467 46.7356 53.1479 48.2767 53.1419V53.1419Z" fill="#316494"/>
<path d="M47.5078 51.5649V42.9609C46.0445 43.1126 44.0063 44.514 43.8845 47.0593C43.8303 48.1241 44.1695 49.1716 44.8377 50.0025C45.5058 50.8333 46.4562 51.3894 47.5078 51.5649V51.5649ZM49.033 51.5649C51.1051 51.2994 52.7521 49.2552 52.6542 47.1032C52.5464 44.6697 50.63 43.1605 49.033 42.9729V51.5649Z" fill="#316494"/>
<path d="M39.1166 14.3449C39.1193 17.5923 37.8359 20.7086 35.5471 23.0123C33.2583 25.3161 30.1503 26.6197 26.903 26.6381C20.1099 26.6944 14.5633 21.0319 14.5998 14.0796C14.6329 7.48214 20.1894 1.9787 26.8367 1.95881C28.4587 1.95698 30.0651 2.27688 31.5627 2.90001C33.0604 3.52313 34.4195 4.4371 35.5616 5.58902C36.7036 6.74093 37.6059 8.10792 38.2161 9.61086C38.8263 11.1138 39.1324 12.7228 39.1166 14.3449V14.3449Z" fill="#316494"/>
</svg>
