<svg width="62" height="62" viewBox="0 0 62 62" fill="none" xmlns="http://www.w3.org/2000/svg">
<path d="M5.78138 13.4981H12.8847V14.8194C12.8847 15.4786 12.8847 16.1378 12.8847 16.7971C12.8847 17.6211 13.2803 18.0057 14.0961 18.0057H32.5741C33.4586 18.0057 33.824 17.6349 33.824 16.7421C33.824 15.7643 33.824 14.7864 33.824 13.8085C33.824 13.7124 33.824 13.619 33.8404 13.5009H40.9218V21.0629C40.7433 20.8624 40.5949 20.6976 40.4521 20.5328C39.7855 19.7637 39.1199 18.9936 38.4552 18.2227C38.321 18.0613 38.1408 17.9446 37.9386 17.8881C37.7364 17.8317 37.5218 17.8382 37.3235 17.9068C35.7227 18.3283 34.1875 18.9679 32.7609 19.8076C32.5819 19.8975 32.4338 20.0389 32.3359 20.2137C32.238 20.3885 32.1947 20.5886 32.2116 20.7883C32.2418 21.3788 32.2747 21.9694 32.3105 22.6039H10.1956V24.6586H32.2995C31.8407 25.1393 31.4424 25.5705 31.0249 25.9825C30.9247 26.0439 30.8058 26.0672 30.6898 26.0485C29.5499 25.9853 28.4099 25.9194 27.2727 25.8397C27.0374 25.8125 26.7995 25.8606 26.5932 25.9771C26.3869 26.0936 26.2229 26.2724 26.1245 26.488C25.4382 27.6875 24.8926 28.9623 24.4984 30.2869C24.4243 30.5396 24.3034 30.5972 24.0562 30.5972C19.5751 30.5972 15.095 30.5972 10.6158 30.5972H10.1983V32.6464H10.5939C15.3679 32.6464 20.1437 32.6464 24.9214 32.6464C25.045 32.6414 25.1684 32.6615 25.284 32.7054C25.3997 32.7493 25.5052 32.8161 25.5944 32.9019C26.1438 33.399 26.6931 33.8715 27.2425 34.3714C27.3537 34.4936 27.418 34.6513 27.4238 34.8164C27.4485 35.3658 27.4485 35.8932 27.4238 36.4288C27.4199 36.5752 27.3622 36.715 27.2617 36.8216C26.6547 37.371 26.0339 37.9204 25.4076 38.4532C25.3062 38.5318 25.1815 38.5743 25.0533 38.5741C23.5837 38.5741 22.1141 38.5576 20.6418 38.5576C19.414 38.5576 18.1889 38.5769 16.9611 38.5796H10.1983V40.6233H10.6103C13.3105 40.6233 16.0107 40.6425 18.7136 40.6425C20.5008 40.6425 22.2899 40.6342 24.0809 40.6178C24.13 40.6096 24.1802 40.6116 24.2285 40.6235C24.2767 40.6355 24.3221 40.6572 24.3617 40.6873C24.4013 40.7174 24.4343 40.7552 24.4588 40.7985C24.4832 40.8418 24.4986 40.8897 24.5039 40.9391C24.9052 42.283 25.4659 43.5741 26.174 44.7847C26.2664 44.9732 26.4139 45.1292 26.5968 45.2322C26.7797 45.3351 26.9895 45.3803 27.1986 45.3616C28.3715 45.2902 29.5416 45.216 30.7145 45.1473C30.8185 45.1285 30.9258 45.145 31.0194 45.194C31.4672 45.606 31.8984 46.0373 32.3352 46.4603L32.2912 46.5372H10.1901V48.5754H32.3187C32.2995 48.9654 32.2857 49.3088 32.2693 49.6549C32.2652 49.7644 32.2542 49.8736 32.2363 49.9818C32.0907 50.7701 32.4121 51.2948 33.1345 51.6052C34.3816 52.1408 35.6067 52.7039 36.8702 53.2203C37.524 53.495 37.8591 53.3439 38.3041 52.7973C38.9963 51.9458 39.6775 51.0943 40.4054 50.262C40.5016 50.1493 40.7295 50.1521 40.9356 50.0889V57.7004H5.77588L5.78138 13.4981Z" fill="#2AB0FB"/>
<path d="M34.3242 49.4104C34.3929 48.3886 34.4368 47.4684 34.5247 46.551C34.5597 46.2922 34.5255 46.0288 34.4257 45.7876C34.3258 45.5463 34.1638 45.3358 33.9561 45.1775C33.3785 44.6722 32.8361 44.128 32.3327 43.5487C32.2021 43.3801 32.0314 43.2468 31.8362 43.1609C31.6409 43.075 31.4273 43.0393 31.2148 43.057C30.1435 43.1339 29.0695 43.1861 27.9955 43.2657C27.8966 43.2875 27.7932 43.2713 27.7057 43.2205C27.6182 43.1696 27.553 43.0877 27.523 42.9911C27.1934 42.167 26.8528 41.3429 26.5121 40.5326C26.475 40.4616 26.4659 40.3792 26.4868 40.3018C26.5077 40.2244 26.5569 40.1578 26.6248 40.1151C27.4488 39.4147 28.2344 38.6895 29.053 37.9918C29.2235 37.8558 29.3572 37.6791 29.4416 37.478C29.5261 37.2769 29.5587 37.0578 29.5364 36.8409C29.498 36.0168 29.5035 35.1927 29.5364 34.3687C29.5565 34.151 29.5224 33.9317 29.4371 33.7304C29.3518 33.529 29.2179 33.352 29.0475 33.215C28.2234 32.5146 27.4378 31.7894 26.6248 31.0862C26.559 31.0486 26.51 30.9874 26.4875 30.915C26.4651 30.8426 26.471 30.7644 26.5039 30.6962C26.8573 29.8465 27.2099 28.9977 27.5614 28.1498C27.5857 28.0726 27.6382 28.0073 27.7084 27.967C27.7787 27.9268 27.8616 27.9146 27.9405 27.9328C29.0667 28.0207 30.1929 28.0894 31.3219 28.1553C31.5084 28.1609 31.6936 28.1225 31.8625 28.0433C32.0314 27.9641 32.1793 27.8463 32.2943 27.6993C32.8437 27.1033 33.4232 26.5045 34.033 25.9551C34.2106 25.8103 34.3491 25.6233 34.436 25.4112C34.5228 25.1992 34.5552 24.9688 34.5302 24.741C34.4478 23.6917 34.3984 22.6396 34.3187 21.5903C34.2966 21.5008 34.31 21.4062 34.3561 21.3263C34.4022 21.2465 34.4774 21.1875 34.5659 21.1618C35.4284 20.8185 36.2827 20.4559 37.148 20.1235C37.2066 20.1182 37.2657 20.1266 37.3205 20.148C37.3753 20.1695 37.4244 20.2034 37.4638 20.2471C38.1972 21.0712 38.9224 21.8952 39.6366 22.7193C39.7697 22.8773 39.9393 23.0004 40.1308 23.078C40.3223 23.1555 40.5298 23.1851 40.7353 23.1643C41.5594 23.1368 42.3835 23.1341 43.2075 23.1643C43.4188 23.1885 43.6328 23.1595 43.83 23.0798C44.0271 23.0002 44.2013 22.8725 44.3365 22.7083C45.0314 21.8843 45.7566 21.0932 46.4598 20.2801C46.5068 20.202 46.5816 20.1445 46.6692 20.119C46.7567 20.0936 46.8506 20.102 46.9322 20.1428C47.7563 20.4943 48.5803 20.8405 49.4044 21.1811C49.4826 21.2047 49.5493 21.2566 49.5914 21.3267C49.6336 21.3967 49.6482 21.4799 49.6324 21.5601C49.5582 22.5765 49.517 23.5955 49.4264 24.6119C49.3842 24.8752 49.4128 25.145 49.5093 25.3936C49.6059 25.6423 49.7669 25.8607 49.9758 26.0265C50.5654 26.5503 51.1223 27.1098 51.6431 27.7021C51.775 27.862 51.9442 27.9869 52.1358 28.066C52.3274 28.145 52.5356 28.1757 52.7418 28.1553C53.8406 28.0729 54.9393 28.0042 56.06 27.9411C56.1096 27.941 56.1586 27.953 56.2026 27.976C56.2466 27.9989 56.2844 28.0322 56.3127 28.0729C56.6991 28.9666 57.0727 29.8648 57.4334 30.7676C57.4374 30.8263 57.4281 30.8852 57.4062 30.9399C57.3844 30.9946 57.3505 31.0436 57.3071 31.0835C56.5242 31.7867 55.7414 32.4926 54.9366 33.1711C54.7443 33.3162 54.5927 33.5085 54.4965 33.7294C54.4003 33.9503 54.3626 34.1922 54.3872 34.4319C54.4311 35.2394 54.4147 36.0525 54.3872 36.8628C54.3677 37.0695 54.3994 37.2779 54.4794 37.4695C54.5593 37.6611 54.6852 37.8301 54.8459 37.9616C55.6535 38.651 56.4391 39.3652 57.2412 40.0629C57.3895 40.192 57.4747 40.3074 57.3922 40.5106C57.0516 41.3347 56.7138 42.1588 56.3869 43.002C56.3622 43.098 56.301 43.1804 56.2162 43.2317C56.1315 43.2831 56.0301 43.2992 55.9337 43.2767C54.8706 43.2026 53.8076 43.1476 52.7473 43.068C52.5248 43.0481 52.3009 43.0848 52.0963 43.1746C51.8918 43.2644 51.7132 43.4044 51.5772 43.5816C51.0433 44.1777 50.4766 44.7435 49.8796 45.2764C49.7161 45.4038 49.5863 45.5693 49.5016 45.7585C49.4168 45.9476 49.3797 46.1546 49.3934 46.3614C49.4676 47.4602 49.539 48.5754 49.5912 49.6796C49.5911 49.7493 49.5749 49.818 49.544 49.8804C49.513 49.9428 49.468 49.9972 49.4126 50.0395C48.5886 50.413 47.7481 50.7591 46.9158 51.119C46.8754 51.1406 46.8311 51.1541 46.7855 51.1587C46.7399 51.1632 46.6938 51.1587 46.6499 51.1455C46.606 51.1322 46.5652 51.1104 46.5298 51.0814C46.4943 51.0523 46.4649 51.0166 46.4433 50.9761C45.7731 50.1521 45.0863 49.328 44.4161 48.504C44.2824 48.3298 44.105 48.1941 43.9019 48.1106C43.6988 48.0271 43.4772 47.9989 43.2597 48.0288C42.2681 48.1029 41.2737 48.2238 40.2766 48.0288C40.0765 47.9854 39.868 48.0021 39.6774 48.0769C39.4868 48.1517 39.3226 48.2812 39.2053 48.449C38.5434 49.2731 37.8621 50.0724 37.2084 50.8965C37.1842 50.9413 37.1511 50.9806 37.1111 51.012C37.0711 51.0434 37.0251 51.0663 36.9759 51.0792C36.9267 51.0921 36.8754 51.0947 36.8251 51.0869C36.7748 51.0791 36.7267 51.061 36.6837 51.0338C36.0657 50.7591 35.4504 50.4652 34.8186 50.2098C34.4313 50.023 34.1759 49.7977 34.3242 49.4104ZM41.9907 43.6915C43.0545 43.689 44.1075 43.4768 45.0893 43.0672C46.0712 42.6576 46.9627 42.0585 47.7129 41.3042C48.4631 40.5499 49.0574 39.6551 49.4617 38.6711C49.866 37.687 50.0724 36.6329 50.0691 35.5691C50.0635 34.499 49.8456 33.4407 49.4281 32.4555C49.0105 31.4703 48.4017 30.5776 47.6368 29.8293C46.8719 29.081 45.9661 28.4919 44.972 28.0961C43.9778 27.7003 42.915 27.5057 41.8451 27.5235C40.7807 27.5382 39.7297 27.7634 38.7528 28.1863C37.7759 28.6092 36.8925 29.2214 36.1534 29.9875C35.4144 30.7536 34.8343 31.6585 34.4468 32.65C34.0593 33.6415 33.872 34.6999 33.8957 35.7641C33.9318 37.8843 34.8015 39.9051 36.3166 41.3888C37.8316 42.8725 39.8701 43.6997 41.9907 43.6915Z" fill="#2AB0FB"/>
<path d="M19.6531 3.64801H27.0284C27.0284 3.76612 27.0449 3.88149 27.0449 3.99961C27.0449 5.0077 27.0449 6.01854 27.0449 7.02114C27.0429 7.19702 27.0576 7.37269 27.0888 7.54579C27.1344 7.7742 27.2597 7.97895 27.4424 8.12339C27.6251 8.26784 27.8532 8.34254 28.0859 8.33414C29.1847 8.33414 30.3026 8.33414 31.4096 8.33414H31.7502V15.9484H14.9258V14.7782C14.9258 12.7593 14.9258 10.7404 14.9258 8.72144C14.9258 8.44676 14.989 8.34237 15.2884 8.34787C16.3871 8.36709 17.4611 8.34787 18.5489 8.34787C19.2658 8.34787 19.6476 7.96605 19.6476 7.24913C19.6476 6.17511 19.6476 5.09834 19.6476 4.02158L19.6531 3.64801Z" fill="#2AB0FB"/>
<path d="M40.9327 41.5216V29.6826C38.9193 29.8914 36.1148 31.8197 35.9472 35.3219C35.8726 36.787 36.3394 38.2284 37.2587 39.3717C38.178 40.5149 39.4857 41.2801 40.9327 41.5216ZM43.0313 41.5216C45.8825 41.1562 48.1487 38.3435 48.0141 35.3824C47.8658 32.034 45.2288 29.9573 43.0313 29.6991V41.5216Z" fill="white"/>
<path d="M40.9329 41.5215C39.4879 41.2802 38.1818 40.5166 37.2627 39.3757C36.3436 38.2348 35.8755 36.7961 35.9474 35.3329C36.1149 31.8306 38.9195 29.9023 40.9329 29.6936V41.5215Z" fill="#2AB0FB"/>
<path d="M43.0317 41.5132V29.7018C45.2292 29.96 47.8662 32.0366 48.0145 35.385C48.1491 38.3351 45.883 41.1479 43.0317 41.5132Z" fill="#2AB0FB"/>
</svg>
