<svg width="62" height="58" viewBox="0 0 62 58" fill="none" xmlns="http://www.w3.org/2000/svg">
<path d="M46.0655 24.0588C46.043 25.0539 46.0785 26.0542 46.0134 27.0476C45.9562 27.9221 46.0386 28.8088 46.0933 29.6876C46.1132 30.0156 46.0065 30.1466 45.6968 30.2203C43.2136 30.7933 40.9608 32.1016 39.2325 33.9743C37.3316 36.0097 36.1742 38.4085 35.835 41.1822C35.4203 44.5492 36.1725 47.6413 38.1376 50.4184C38.3406 50.7047 38.3232 50.8965 38.1376 51.1802C36.4111 53.8401 33.9984 55.4478 30.8404 55.7783C28.1726 56.0551 25.7824 55.2638 23.7401 53.5009C23.0122 52.88 22.3891 52.1459 21.8948 51.3268C21.5174 50.696 20.9474 50.3915 20.2377 50.2709C16.1664 49.5769 12.096 48.879 8.02653 48.1775C7.89841 48.1541 7.7733 48.1165 7.65347 48.0655C6.59155 47.6318 6.45274 47.0175 7.25698 46.215C10.2172 43.26 12.1056 39.7319 12.9223 35.6305C13.2174 34.1122 13.3748 32.5703 13.3925 31.0237C13.4385 28.3064 13.4116 25.5875 13.4463 22.8685C13.4619 21.6139 13.4767 20.3577 13.789 19.1231C14.3876 16.7598 15.6508 14.7852 17.2845 13.0188C19.2009 10.9436 21.4627 9.4262 24.2251 8.72173C24.6797 8.60547 24.8237 8.29574 24.8636 7.86109C24.9912 6.48858 25.3555 5.18895 26.4582 4.27105C27.9869 2.99831 29.7429 2.6374 31.6082 3.38438C33.3659 4.08886 34.3445 5.45442 34.5406 7.34748C34.636 8.27319 34.7948 8.48054 35.7136 8.77031C40.1217 10.1584 43.3665 12.8705 45.1624 17.1858C45.7792 18.6702 45.9996 20.2466 46.0586 21.8439C46.0915 22.583 46.0655 23.3213 46.0655 24.0588ZM29.8331 12.6935C26.798 12.707 23.8611 13.7711 21.5217 15.7049C19.4942 17.394 18.5025 19.5977 18.4071 22.2212C18.388 22.7722 18.7064 23.1114 19.2218 23.1504C19.7813 23.1921 20.0746 22.9561 20.1683 22.38C20.2056 22.1518 20.2316 21.9219 20.2603 21.6929C20.4615 20.0801 21.0307 18.6182 22.2453 17.5103C25.0215 14.9735 28.3227 14.1398 32.0029 14.6855C33.0831 14.846 34.0929 15.2424 35.0906 15.6728C35.6979 15.933 36.1118 15.7482 36.3486 15.1635C36.5707 14.6126 36.4354 14.3011 35.7942 14.0166C33.8977 13.1767 31.9205 12.6814 29.8331 12.6892V12.6935ZM24.1886 50.8826C24.2121 50.9494 24.2411 51.0141 24.2754 51.076C24.3439 51.168 24.416 51.2591 24.4914 51.3459C26.0652 53.1383 28.0554 53.9191 30.43 53.7872C32.4463 53.6779 34.0912 52.8329 35.4082 51.3276C35.5036 51.2175 35.6988 51.1021 35.6094 50.9381C35.5392 50.8088 35.3422 50.8808 35.2034 50.88C31.6787 50.88 28.1538 50.88 24.6285 50.88L24.1886 50.8826ZM29.7811 7.95652C30.5619 7.95652 31.3427 7.93396 32.1235 7.9652C32.5634 7.98342 32.6545 7.79168 32.5885 7.42123C32.3786 6.28123 31.6776 5.57328 30.6139 5.21324C29.0219 4.6736 27.1532 5.811 26.9909 7.39954C26.9397 7.90186 26.9848 7.95479 27.4794 7.95652C28.2454 7.95826 29.0106 7.95652 29.7811 7.95652Z" fill="#ED9200"/>
<path d="M60.9982 42.9451C60.9982 43.2487 61.0043 43.5524 60.9982 43.856C60.9766 44.7514 60.4109 45.4177 59.532 45.579C59.2952 45.6215 59.1356 45.7083 59.0714 45.9608C58.9043 46.575 58.6622 47.1662 58.3504 47.7211C58.2775 47.8365 58.2407 47.971 58.2445 48.1074C58.2484 48.2439 58.2928 48.3761 58.3721 48.4872C58.8874 49.3226 58.8059 50.0089 58.124 50.7246C57.685 51.1845 57.2399 51.6408 56.774 52.0729C56.0669 52.7279 55.2931 52.7843 54.4845 52.2524C54.2936 52.1266 54.1374 52.0998 53.931 52.2134C53.3361 52.5427 52.7057 52.8029 52.0518 52.989C51.7846 53.0636 51.6917 53.2328 51.6405 53.4792C51.4384 54.4457 50.93 54.8508 49.9479 54.8673C49.2131 54.8795 48.4826 54.9879 47.7434 54.8769C46.9391 54.7563 46.4481 54.3763 46.278 53.5703C46.2008 53.2077 46.0299 53.0385 45.682 52.9413C45.0836 52.771 44.5084 52.5277 43.9694 52.2169C43.749 52.0911 43.5938 52.1136 43.3847 52.2559C42.6203 52.7765 41.9098 52.7218 41.1992 52.1449C40.5919 51.6503 40.0801 51.0561 39.5595 50.4765C39.065 49.9265 39.0485 49.1821 39.4988 48.508C39.6888 48.2243 39.6949 48.0022 39.5326 47.7176C39.2454 47.1987 39.0178 46.6489 38.8542 46.0788C38.7674 45.7846 38.6182 45.6241 38.2955 45.5678C37.4739 45.4255 36.9533 44.8373 36.929 44.0122C36.9091 43.3077 36.8232 42.6076 36.9056 41.8944C37.0218 40.8837 37.4105 40.3658 38.3978 40.1506C38.4977 40.1378 38.5914 40.0949 38.6663 40.0276C38.7413 39.9604 38.7941 39.872 38.8177 39.7741C39.01 39.1215 39.2718 38.4915 39.5986 37.8949C39.652 37.8098 39.6784 37.7105 39.6742 37.6102C39.67 37.5098 39.6355 37.413 39.5751 37.3327C38.9939 36.4018 39.0693 35.7364 39.8302 34.9633C40.2362 34.5512 40.6423 34.1391 41.0561 33.7366C41.81 33.0026 42.5691 32.9263 43.4385 33.5084C43.5101 33.5676 43.5988 33.6023 43.6916 33.6073C43.7843 33.6123 43.8763 33.5873 43.9538 33.5362C44.5619 33.2053 45.2042 32.9418 45.8694 32.7501C45.9596 32.7292 46.0416 32.6819 46.1048 32.6142C46.168 32.5466 46.2096 32.4616 46.2243 32.3701C46.5114 31.2275 47.1404 30.753 48.3195 30.8241C48.8981 30.8597 49.4751 30.8502 50.0546 30.8658C50.8641 30.8892 51.4705 31.3586 51.6232 32.1567C51.6978 32.5437 51.8835 32.718 52.2453 32.8178C52.8292 32.9861 53.3917 33.2217 53.9214 33.5197C54.0112 33.5773 54.1163 33.6065 54.223 33.6034C54.3296 33.6003 54.4329 33.5651 54.5192 33.5023C55.4735 32.9323 56.1051 33.007 56.8989 33.773C57.3362 34.1947 57.7628 34.6267 58.1786 35.0692C58.8076 35.7381 58.8727 36.5744 58.34 37.3249C58.2055 37.514 58.1725 37.6719 58.2784 37.8775C58.5977 38.51 58.9057 39.1485 59.0887 39.8365C59.1416 40.0317 59.2744 40.1055 59.4583 40.1515C60.5445 40.4204 60.9861 40.9774 61 42.0836C61.0017 42.3664 60.9982 42.6562 60.9982 42.9451ZM48.9545 37.0724C45.7054 37.0672 43.1574 39.6179 43.1131 42.8453C43.0741 45.7525 45.4087 48.7292 48.9259 48.7127C52.2756 48.6962 54.7812 46.1213 54.7664 42.8713C54.7491 39.2752 51.8757 37.0377 48.9545 37.0724Z" fill="#ED9200"/>
<path d="M1 30.4945C1.02603 27.5195 1.96475 25.0088 3.88123 22.8736C4.00543 22.7327 4.13782 22.5991 4.27771 22.4737C4.75141 22.0599 5.16872 22.0399 5.59296 22.4025C6.04323 22.786 6.15342 23.3048 5.83241 23.7907C5.61292 24.1264 5.32228 24.4153 5.06721 24.7277C3.70386 26.3934 2.98899 28.496 3.05452 30.6475C3.12006 32.799 3.96157 34.8542 5.42378 36.4339C5.53223 36.551 5.63634 36.6707 5.73785 36.7931C6.18899 37.3396 6.16209 37.8194 5.65803 38.268C5.19908 38.6749 4.72365 38.6436 4.24735 38.1673C2.10529 36.0192 1.05119 33.4104 1 30.4945Z" fill="#ED9200"/>
<path d="M5.84372 30.72C5.84372 28.0418 6.64016 26.1053 8.28075 24.5289C8.76399 24.0639 9.22381 24.0344 9.66887 24.4066C10.2128 24.8604 10.2267 25.4347 9.67755 26.0247C9.09732 26.6336 8.64846 27.3553 8.35883 28.145C7.65696 30.1031 8.01787 31.9277 9.07545 33.6576C9.31577 34.0524 9.58819 34.4272 9.82851 34.8219C10.1512 35.3537 10.1252 35.6817 9.76084 36.0304C9.57909 36.2095 9.33938 36.3178 9.08487 36.3357C8.83037 36.3537 8.57782 36.2802 8.37271 36.1285C8.01787 35.8725 7.73938 35.5351 7.47564 35.1915C6.36774 33.7539 5.81856 32.1289 5.84372 30.72Z" fill="#ED9200"/>
<path d="M58.55 30.2342C58.5092 31.2918 58.4415 32.299 58.1561 33.2785C58.0268 33.7227 57.9973 33.7296 57.6425 33.4138C57.3189 33.1258 57.0083 32.8178 56.656 32.5688C56.3732 32.3702 56.3203 32.1507 56.3715 31.8331C56.6552 30.0676 56.4973 28.3515 55.7642 26.704C55.3694 25.8337 54.8332 25.0349 54.1774 24.3398C54.016 24.1747 53.8675 23.9975 53.7332 23.8098C53.413 23.3352 53.4434 22.9769 53.8121 22.5509C54.3023 21.9861 54.7595 21.9375 55.287 22.4589C57.2096 24.3468 58.2984 26.6294 58.4875 29.3284C58.5109 29.6451 58.5317 29.9618 58.55 30.2342Z" fill="#ED9200"/>
<path d="M53.7046 29.9852C53.7236 30.8258 53.7245 30.8241 52.9324 30.5578C52.6906 30.4621 52.4414 30.3867 52.1872 30.3322C51.7594 30.2645 51.5564 30.0719 51.5148 29.6112C51.3881 28.1927 50.773 26.9859 49.823 25.9379C49.4031 25.4737 49.3788 24.9428 49.7362 24.5342C50.2091 23.9963 50.7209 23.9763 51.2753 24.5081C52.5255 25.69 53.3508 27.2514 53.623 28.9501C53.6542 29.1358 53.6837 29.3215 53.6993 29.508C53.7141 29.6659 53.7046 29.8264 53.7046 29.9852Z" fill="#ED9200"/>
<path d="M44.4622 42.8713C44.4674 40.3623 46.4169 38.3989 48.8999 38.4024C51.4636 38.4024 53.4573 40.3866 53.4503 42.9225C53.4425 45.3587 51.4341 47.361 48.9389 47.3619C46.2746 47.3628 44.3329 45.1001 44.4622 42.8713Z" fill="#ED9200"/>
</svg>
