<svg width="62" height="61" viewBox="0 0 62 61" fill="none" xmlns="http://www.w3.org/2000/svg">
<g clip-path="url(#clip0_24925_38653)">
<path d="M9.01332 29.9626C9.01332 21.4209 9.01332 12.8792 9.01332 4.3375C9.01332 1.14772 10.1745 -0.0107422 13.3402 -0.0107422H47.6191C50.5366 -0.0107422 51.7858 1.20111 51.7885 4.09193C51.7885 18.0523 51.7885 32.0135 51.7885 45.9756C51.7885 47.764 51.6924 47.8574 49.92 47.8654C47.6084 47.8654 45.2968 47.8414 42.9799 47.8814C40.8445 47.9161 39.8088 48.9758 39.7767 51.1192C39.7447 53.5643 39.726 56.012 39.7767 58.4571C39.8008 59.6129 39.3817 59.9919 38.2206 59.9866C29.7269 59.9492 21.2333 59.9706 12.7423 59.9626C10.3853 59.9626 9.04269 58.6279 9.00532 56.2256C8.96795 52.7555 9.00532 49.2855 9.00532 45.8154L9.01332 29.9626ZM34.1339 15.7673H34.1045C34.1045 14.6569 34.1739 13.5412 34.0885 12.4361C33.9577 10.6877 32.8687 10.0337 30.509 9.94566C27.5461 9.83088 26.401 10.4662 26.2382 12.3934C26.0918 14.6562 26.0856 16.9258 26.2195 19.1894C26.2782 20.7109 27.3646 21.5917 28.9955 21.6745C32.2627 21.856 33.6561 21.3008 34.0378 19.6298C34.1105 19.2364 34.1418 18.8365 34.1312 18.4366C34.1366 17.5478 34.1286 16.6589 34.1286 15.7673H34.1339ZM30.2768 38.4562C34.0965 38.4562 37.9189 38.4562 41.7387 38.4562C42.4887 38.4562 43.6072 38.7231 43.5858 37.538C43.5644 36.3528 42.4087 36.7078 41.6986 36.7052C34.0565 36.6785 26.417 36.6865 18.7749 36.6891C18.3756 36.6842 17.9763 36.702 17.579 36.7425C17.0879 36.8013 16.7035 37.0655 16.7355 37.594C16.7459 37.8206 16.8432 38.0345 17.0073 38.1912C17.1714 38.3478 17.3896 38.4351 17.6164 38.4349C17.9714 38.4696 18.3264 38.4642 18.6841 38.4642L30.2768 38.4562ZM18.0568 21.6771C20.1736 21.6771 21.5963 20.2491 21.5269 18.159C21.4708 16.3092 20.3764 15.2682 18.0168 14.8678C17.1653 14.7237 16.5941 14.2886 16.5113 13.4317C16.4312 12.6309 16.901 12.0571 17.6645 11.8515C18.5533 11.6086 19.2313 11.9663 19.6344 12.7964C19.7305 12.994 19.7678 13.2209 19.8452 13.4291C20.0161 13.8908 20.3284 14.1925 20.8489 14.1177C21.3694 14.043 21.5242 13.6186 21.5349 13.1354C21.548 12.6439 21.4281 12.1578 21.1879 11.7287C20.3871 10.29 18.7562 9.63869 17.0505 10.0951C15.6225 10.4768 14.6722 11.8275 14.7069 13.4237C14.7389 15.0707 15.7079 16.2265 17.3762 16.6108C17.8171 16.6699 18.2521 16.7673 18.6761 16.9018C19.5063 17.2541 19.9654 17.8654 19.6104 18.8077C19.531 19.0155 19.4092 19.2044 19.2528 19.3626C19.0964 19.5207 18.9087 19.6446 18.7018 19.7262C18.4949 19.8078 18.2732 19.8454 18.051 19.8366C17.8287 19.8278 17.6107 19.7729 17.4109 19.6752C16.7889 19.3735 16.5514 18.8237 16.3672 18.2071C16.3427 18.0968 16.2965 17.9926 16.2311 17.9005C16.1657 17.8084 16.0826 17.7303 15.9865 17.6708C15.8905 17.6114 15.7836 17.5718 15.672 17.5543C15.5604 17.5368 15.4464 17.5418 15.3368 17.5691C14.787 17.6732 14.7069 18.1163 14.6935 18.5888C14.6428 20.193 16.2204 21.6611 18.0515 21.6691L18.0568 21.6771ZM39.5151 15.746C39.5151 17.2114 39.4965 18.6822 39.5151 20.137C39.5151 20.7749 39.3897 21.6371 40.396 21.589C41.3223 21.5437 41.2529 20.7322 41.2635 20.0676C41.2742 19.4029 41.2635 18.7329 41.2635 18.0709C41.2635 16.2024 41.2635 16.2024 43.132 16.0716C45.0005 15.9409 46.1056 14.8384 46.0949 13.0287C46.0842 11.2189 44.9525 10.0925 43.0973 9.99105C42.3446 9.95101 41.5892 9.99103 40.8364 9.97501C39.8808 9.95366 39.4751 10.4128 39.5018 11.3577C39.5312 12.8125 39.5125 14.2752 39.5098 15.738L39.5151 15.746ZM35.2203 31.2438C37.7508 31.2438 40.2919 31.2438 42.8171 31.2438C43.439 31.2438 44.0369 31.081 44.0209 30.3202C44.0075 29.6342 43.4336 29.5195 42.8678 29.4848C42.7343 29.4848 42.6008 29.4848 42.4674 29.4848C37.7143 29.4848 32.9603 29.4848 28.2054 29.4848C27.5488 29.4848 26.6839 29.41 26.6813 30.3416C26.6813 31.3533 27.5888 31.2492 28.2828 31.2545C30.5918 31.2438 32.9034 31.2358 35.2149 31.2358L35.2203 31.2438ZM33.4639 43.9175C32.0892 43.9175 30.7119 43.9175 29.3372 43.9175C28.7713 43.9175 28.2028 44.0697 28.1734 44.745C28.144 45.4203 28.6592 45.6472 29.2411 45.6499C31.9922 45.6499 34.7434 45.6499 37.4945 45.6499C38.0284 45.6499 38.4902 45.407 38.5195 44.8198C38.5515 44.1257 38.039 43.9282 37.4518 43.9229C36.1225 43.9042 34.7905 43.9122 33.4586 43.9095L33.4639 43.9175ZM21.1158 45.6552C22.357 45.6552 23.5983 45.6552 24.8368 45.6552C25.3973 45.6552 25.7924 45.3883 25.7951 44.7931C25.7977 44.1978 25.3787 43.9362 24.8341 43.9336C22.4852 43.9211 20.1371 43.9211 17.7899 43.9336C17.2561 43.9336 16.7649 44.1257 16.7435 44.7343C16.7195 45.383 17.1893 45.6633 17.7952 45.6686C18.8896 45.6606 20.0054 45.6499 21.1105 45.6472L21.1158 45.6552ZM20.291 31.2251C21.1799 31.2251 22.0688 31.2518 22.9603 31.2251C23.0841 31.2332 23.2082 31.2145 23.3242 31.1703C23.4401 31.1262 23.5452 31.0576 23.6323 30.9692C23.7194 30.8809 23.7865 30.7748 23.829 30.6582C23.8715 30.5416 23.8884 30.4173 23.8785 30.2936C23.8785 29.7303 23.4621 29.5221 22.9816 29.5141C21.2484 29.4928 19.5169 29.4928 17.7872 29.5141C17.2534 29.5141 16.7916 29.757 16.7889 30.3603C16.7863 30.9636 17.2267 31.2171 17.7659 31.2358C18.596 31.2411 19.4422 31.2171 20.2857 31.2171L20.291 31.2251Z" fill="#4173CD"/>
<path d="M41.5385 54.907C41.5385 53.7058 41.5385 52.5064 41.5385 51.3088C41.5385 50.2251 42.0723 49.6619 43.1721 49.6619C45.5744 49.6619 47.9768 49.6619 50.3631 49.6619C50.6968 49.6619 51.1292 49.5444 51.3027 49.9635C51.4575 50.3399 51.2066 50.6655 50.969 50.9164C49.807 52.1443 48.6343 53.3561 47.4509 54.552C45.9846 56.0361 44.5129 57.5149 43.0359 58.9883C42.7263 59.298 42.3686 59.709 41.9042 59.5435C41.3703 59.354 41.5625 58.7855 41.5518 58.3691C41.5198 57.2159 41.5358 56.0601 41.5385 54.907Z" fill="#4173CD"/>
<path d="M32.3535 15.9223C32.3535 16.5896 32.3535 17.257 32.3535 17.9216C32.3375 19.6513 32.0492 19.9102 30.1727 19.9209C28.2962 19.9316 27.9412 19.654 27.9278 17.975C27.9145 16.4215 27.9439 14.8653 27.9278 13.3118C27.9118 12.244 28.403 11.7449 29.452 11.7556C29.9859 11.7556 30.5197 11.7396 31.0536 11.7689C31.8944 11.8143 32.3588 12.2494 32.3588 13.1249C32.3588 14.0565 32.3588 14.9934 32.3588 15.9223H32.3535Z" fill="#4173CD"/>
<path d="M42.462 11.7582C43.4337 11.7288 44.2424 11.9477 44.2878 12.962C44.3332 14.0778 43.487 14.2807 42.5555 14.318C41.6799 14.3554 41.2609 14.0271 41.2609 13.0928C41.2609 12.1586 41.5198 11.6194 42.462 11.7582Z" fill="#4173CD"/>
</g>
<defs>
<clipPath id="clip0_24925_38653">
<rect width="42.7938" height="60" fill="white" transform="translate(9)"/>
</clipPath>
</defs>
</svg>
