<svg width="62" height="62" viewBox="0 0 62 62" fill="none" xmlns="http://www.w3.org/2000/svg">
<g clip-path="url(#clip0_30392_74970)">
<path d="M11 21.0258C11.0106 11.4621 18.1767 3.03819 27.7522 1.33118C30.4701 0.840517 33.2602 0.895555 35.9561 1.49302C38.652 2.09048 41.1985 3.21812 43.4437 4.80871C45.6889 6.39929 47.5869 8.42024 49.0244 10.751C50.4619 13.0818 51.4096 15.6747 51.8108 18.3751C52.4353 22.5027 51.4589 26.3219 49.629 29.9947C47.6443 33.9838 45.0377 37.5756 42.2803 41.0602C38.9552 45.2663 35.3325 49.2279 31.9056 53.3464C31.6198 53.6889 31.4319 53.783 31.0985 53.383C27.1013 48.5692 22.8381 43.9723 19.0751 38.9676C16.6128 35.6934 14.3264 32.3134 12.6804 28.5478C11.5452 25.9533 10.9961 23.5876 11 21.0258ZM31.5166 4.36092C28.1297 4.35523 24.8173 5.34208 21.9984 7.1966C19.1795 9.05112 16.9808 11.69 15.6806 14.7792C14.3803 17.8685 14.0369 21.2694 14.6938 24.5515C15.3507 27.8336 16.9785 30.8495 19.371 33.2175C21.7635 35.5855 24.8134 37.1992 28.1346 37.8545C31.4558 38.5098 34.8992 38.1772 38.029 36.8987C41.1588 35.6202 43.8344 33.4534 45.7172 30.6723C47.6 27.8913 48.6054 24.6211 48.6062 21.2754C48.6165 19.0541 48.1817 16.8527 47.327 14.798C46.4722 12.7434 45.2143 10.8762 43.6258 9.30393C42.0372 7.73167 40.1494 6.48546 38.0712 5.63711C35.9929 4.78876 33.7653 4.35503 31.5166 4.36092Z" fill="#E75C20"/>
<path d="M31.4894 61.0015H15.027C14.114 61.0015 14.0902 60.9597 14.4858 60.1441C16.1808 56.6504 17.885 53.1605 19.56 49.6563C19.8101 49.1335 20.1078 48.8983 20.7125 48.9165C22.0555 48.9571 23.4011 48.9414 24.7454 48.9165C24.9524 48.9036 25.1595 48.9414 25.3481 49.0267C25.5367 49.112 25.7011 49.2421 25.8264 49.4054C27.3877 51.2666 28.9768 53.1043 30.5407 54.963C31.3346 55.904 31.6429 55.9066 32.4328 54.9695C34.0034 53.1161 35.5912 51.2758 37.1458 49.4158C37.2705 49.252 37.4341 49.1211 37.6222 49.0347C37.8103 48.9483 38.0171 48.909 38.2242 48.9205C39.6135 48.9414 41.0023 48.9414 42.3908 48.9205C42.879 48.9126 43.1476 49.1008 43.3553 49.5322C45.0754 53.1109 46.8153 56.6804 48.546 60.25C48.8781 60.9349 48.8357 60.9937 48.026 60.995L31.4894 61.0015Z" fill="#E75C20"/>
<path d="M31.4671 5.75781C40.1284 5.75781 47.1939 12.7008 47.2032 21.228C47.2111 29.7813 40.1138 36.808 31.4764 36.8002C22.8641 36.791 15.7748 29.7813 15.7734 21.2698C15.7721 12.7361 22.8284 5.76173 31.4671 5.75781ZM31.4883 31.257C33.8029 31.257 36.1166 31.257 38.4295 31.257C39.4337 31.257 39.5899 31.1054 39.5899 30.1303C39.5899 27.1699 39.5978 24.2094 39.5899 21.2489C39.5899 20.7836 39.6785 20.4229 40.0715 20.1118C41.048 19.3393 41.5772 17.1592 40.782 15.9188C39.9577 14.634 39.267 13.2655 38.5499 11.9179C38.2998 11.4474 37.9571 11.2762 37.4385 11.2775C33.4691 11.2862 29.5027 11.2862 25.5395 11.2775C25.0195 11.2775 24.6808 11.4552 24.432 11.9232C23.7242 13.2511 23.0401 14.5987 22.2317 15.8665C21.3756 17.2089 21.9406 19.342 22.9157 20.1144C23.3127 20.4255 23.396 20.7889 23.3934 21.2529C23.3801 24.1702 23.3868 27.0862 23.3934 30.0035C23.3934 31.1564 23.4966 31.257 24.69 31.257H31.4883Z" fill="#E75C20"/>
<path d="M31.4958 29.872C29.5111 29.872 27.5264 29.8576 25.5417 29.8811C24.9687 29.8876 24.7663 29.6877 24.7716 29.1217C24.7928 26.6619 24.7875 24.202 24.7716 21.7434C24.7716 21.2598 24.9158 21.0494 25.4464 21.0285C25.9005 21.0163 26.3468 20.9086 26.7555 20.7125C27.1641 20.5164 27.5257 20.2365 27.8161 19.8913C28.0807 19.5816 28.2501 19.5907 28.5544 19.8574C30.379 21.452 32.59 21.4546 34.3948 19.8691C34.6832 19.6169 34.8539 19.5515 35.1344 19.8796C35.4339 20.2332 35.8067 20.5192 36.2275 20.7186C36.6484 20.9179 37.1076 21.0258 37.5742 21.035C38.0307 21.0546 38.1974 21.2245 38.1961 21.6624C38.1873 24.1894 38.1873 26.7141 38.1961 29.2367C38.1961 29.7857 37.9103 29.8798 37.4446 29.8772C35.4572 29.8654 33.4791 29.872 31.4958 29.872ZM31.5341 22.7015C30.4994 22.7015 29.4661 22.6924 28.4314 22.7015C27.742 22.7093 27.5052 22.9368 27.4933 23.5916C27.4814 24.8085 27.4933 26.0253 27.4933 27.2422C27.4933 27.8395 27.7725 28.1257 28.3732 28.1244C30.4637 28.1244 32.5534 28.1244 34.6422 28.1244C35.2094 28.1244 35.4921 27.8426 35.4903 27.2788C35.4903 26.0619 35.4996 24.8451 35.4903 23.6282C35.4824 22.9394 35.2336 22.7133 34.5125 22.7028C33.5135 22.6937 32.5238 22.7015 31.5341 22.7015Z" fill="#E75C20"/>
<path d="M31.4698 16.1423C30.8307 16.1423 30.1917 16.1279 29.5526 16.1488C29.0789 16.1632 28.9069 15.9946 29.0313 15.5253C29.2359 14.7472 29.4278 13.966 29.6068 13.1818C29.6889 12.825 29.8715 12.6734 30.2512 12.6799C31.0874 12.6956 31.925 12.6917 32.7652 12.6799C33.1092 12.6799 33.2852 12.825 33.3619 13.153C33.5485 13.9582 33.7483 14.7607 33.9547 15.5606C34.0685 16.0024 33.8912 16.1566 33.4545 16.1462C32.7916 16.1305 32.1301 16.1423 31.4698 16.1423Z" fill="#E75C20"/>
<path d="M37.0942 16.1414C35.1995 16.1074 35.6877 16.4355 35.1651 14.4998C35.0473 14.0593 34.9494 13.6136 34.8436 13.1692C34.7668 12.8424 34.8753 12.6621 35.2405 12.6856C35.2842 12.6856 35.3291 12.6856 35.3728 12.6856C37.7386 12.7483 37.0598 12.2778 38.2189 14.3194C38.4557 14.7363 38.678 15.1611 38.9175 15.5755C39.1332 15.9519 39.0498 16.1453 38.5933 16.1427C38.1368 16.1401 37.7081 16.1414 37.0942 16.1414Z" fill="#E75C20"/>
<path d="M25.6241 16.1436H25.0948C23.728 16.1436 23.728 16.1436 24.375 14.9869C24.7257 14.3595 25.0856 13.7374 25.4243 13.1034C25.4861 12.9642 25.5913 12.8481 25.7246 12.7719C25.8578 12.6957 26.0122 12.6635 26.1652 12.68C26.6707 12.697 27.1774 12.6983 27.6829 12.68C28.1274 12.663 28.2121 12.8656 28.1169 13.2459C27.925 14.004 27.7199 14.7608 27.5691 15.5267C27.4712 16.0038 27.2198 16.1802 26.7448 16.1489C26.3743 16.1227 25.9985 16.1436 25.6241 16.1436Z" fill="#E75C20"/>
<path d="M31.4972 17.5313C32.2011 17.5313 32.9037 17.5313 33.6063 17.5313C34.0562 17.5313 34.1356 17.7234 33.9596 18.1064C33.5706 18.973 32.4896 19.6448 31.4456 19.6043C30.3487 19.5624 29.5218 19.0644 29.0137 18.0868C28.8046 17.6855 28.9727 17.5287 29.3895 17.5313C30.0921 17.5339 30.7946 17.5313 31.4972 17.5313Z" fill="#E75C20"/>
<path d="M25.2889 17.5315C25.7493 17.5315 26.2151 17.5393 26.6702 17.5315C27.1254 17.5236 27.2961 17.7367 27.1809 18.185C26.9772 18.9823 26.1436 19.6149 25.2756 19.6227C24.4077 19.6306 23.5556 19.011 23.3558 18.2124C23.2499 17.7968 23.3399 17.5302 23.844 17.538C24.3256 17.538 24.8072 17.5315 25.2889 17.5315Z" fill="#E75C20"/>
<path d="M37.7459 17.5314C38.209 17.5314 38.6721 17.5314 39.1352 17.5314C39.6446 17.5236 39.7293 17.7928 39.6195 18.2124C39.4131 18.9966 38.6112 19.5979 37.7446 19.6149C36.8779 19.6319 36.0245 19.0084 35.8035 18.2059C35.6871 17.7785 35.7877 17.5236 36.2905 17.5314C36.7933 17.5393 37.2603 17.5314 37.7459 17.5314Z" fill="#E75C20"/>
<path d="M31.4513 26.7445C30.8122 26.7445 30.1745 26.7314 29.5367 26.7445C29.0948 26.7575 28.8751 26.5863 28.8937 26.138C28.906 25.6596 28.906 25.1804 28.8937 24.7003C28.8831 24.248 29.1159 24.0846 29.5446 24.0859C30.8422 24.092 32.1406 24.092 33.44 24.0859C33.8753 24.0859 34.0936 24.2624 34.083 24.7094C34.0706 25.186 34.0706 25.6653 34.083 26.1472C34.0949 26.602 33.8673 26.7576 33.4307 26.7458C32.7718 26.7314 32.1115 26.7445 31.4513 26.7445Z" fill="#E75C20"/>
</g>
<defs>
<clipPath id="clip0_30392_74970">
<rect width="41" height="60" fill="white" transform="translate(11 1)"/>
</clipPath>
</defs>
</svg>
