<svg width="61" height="61" viewBox="0 0 61 61" fill="none" xmlns="http://www.w3.org/2000/svg">
<g clip-path="url(#clip0_18721_345)">
<g clip-path="url(#clip1_18721_345)">
<path d="M29.1751 28.6978C27.4251 28.6421 25.7279 28.2332 24.0233 27.8843C21.5097 27.3699 18.9917 26.9023 16.4019 27.0724C15.5826 27.1266 14.7588 27.1867 13.9733 27.4271C13.5336 27.5634 13.2932 27.474 13.0675 27.0753C12.0239 25.2315 10.9569 23.4023 9.89724 21.5688C9.13656 20.2497 8.3832 18.9306 7.60347 17.6261C7.39388 17.2759 7.40559 17.0399 7.70166 16.7365C9.71548 14.645 10.8895 12.0845 11.8246 9.37737C12.5765 7.20232 13.1437 4.95399 14.2547 2.91085C14.4144 2.61771 14.5668 2.11939 14.8541 2.15896C15.1795 2.2044 15.0212 2.71006 15.0754 3.00905C15.4946 5.33214 16.3594 7.50572 17.3194 9.6412C19.5756 14.6643 22.3961 19.4143 25.7264 23.7995C26.9781 25.4484 28.3016 27.0372 29.9915 28.2728C30.0941 28.3475 30.2715 28.4105 30.204 28.5761C30.1366 28.7418 29.971 28.6905 29.8376 28.6949C29.6207 28.7022 29.4023 28.6978 29.1751 28.6978Z" fill="#14AC75"/>
<path d="M21.5111 11.3794C21.0439 11.3526 20.577 11.438 20.1495 11.6286C19.7831 11.8001 19.5925 11.6858 19.4284 11.3457C18.5898 9.66428 17.8441 7.93806 17.1947 6.17486C16.7345 4.88801 16.2977 3.59236 16.1687 2.21756C16.1365 1.92894 16.1409 1.63739 16.1819 1.34988C16.3285 0.511522 16.8239 0.227188 17.6315 0.567222C18.2852 0.841302 18.8275 1.29126 19.339 1.77346C21.2561 3.57477 22.8112 5.67361 24.2959 7.82961C26.2542 10.6726 28.0039 13.6537 29.5312 16.7497C30.9236 19.5681 32.2456 22.4232 32.829 25.5437C32.942 26.027 32.9609 26.5276 32.8847 27.0181C32.7381 27.7934 32.2984 28.0573 31.5509 27.8037C30.8694 27.5721 30.3359 27.109 29.8229 26.6312C27.9908 24.9413 26.5002 22.967 25.0756 20.9327C24.7722 20.493 24.331 20.084 24.2343 19.6048C24.1288 19.0757 24.8352 18.8719 25.1137 18.4703C26.1778 16.9519 26.2936 15.3734 25.505 13.7274C24.825 12.2896 23.2699 11.378 21.5111 11.3794Z" fill="#14AC75"/>
<path d="M-1 25.5993C-0.904732 23.2543 0.0919253 21.5365 2.06325 20.4006C3.38235 19.6399 4.70145 18.8998 6.02055 18.1244C6.35765 17.9251 6.49689 18.0394 6.65958 18.3194C7.98063 20.6146 9.3051 22.9074 10.633 25.1977C11.061 25.9306 11.4758 26.6854 11.9272 27.4094C12.1749 27.8052 12.1866 28.0309 11.7176 28.2888C10.2622 29.0803 8.86247 29.9773 7.39094 30.7336C3.88946 32.5349 -0.453307 30.1883 -0.909129 26.2867C-0.936977 26.0288 -0.978015 25.7752 -1 25.5993Z" fill="#14AC75"/>
<path d="M16.1907 38.2803C16.1907 39.5437 15.5297 40.5404 14.3718 40.9962C13.2623 41.4359 12.2539 41.2028 11.3863 40.4011C9.22293 38.4034 7.79684 35.9572 7.02004 33.127C6.79286 32.296 6.80752 32.2887 7.57113 31.9545C8.91515 31.355 10.1229 30.5093 11.4185 29.8205C11.952 29.5376 11.9813 29.5479 12.1088 30.0784C12.6828 32.4266 13.8231 34.5984 15.43 36.4043C15.9254 36.9641 16.22 37.5856 16.1907 38.2803Z" fill="#14AC75"/>
<path d="M34.0456 16.5709C33.6264 16.6105 33.2571 16.5137 33.0636 16.096C32.854 15.6431 33.2102 15.1638 33.7818 15.1316C35.0247 15.0598 36.2734 15.0026 37.5119 14.944C38.1934 14.9117 38.875 14.8736 39.5638 14.859C40.1985 14.8458 40.5532 15.1155 40.5546 15.5713C40.5561 16.0271 40.2205 16.2807 39.6225 16.3041C37.7611 16.3979 35.9021 16.4869 34.0456 16.5709Z" fill="#14AC75"/>
<path d="M32.1299 10.868C31.7239 10.846 31.4762 10.6774 31.3736 10.3535C31.2592 9.99298 31.4161 9.71157 31.7224 9.52689C32.4244 9.10332 33.1338 8.69146 33.8432 8.28108C34.834 7.70751 35.8263 7.13687 36.82 6.56917C37.3066 6.29069 37.7258 6.33614 37.95 6.69377C38.1743 7.05139 38.0453 7.52773 37.5631 7.80914C35.8815 8.78625 34.195 9.75895 32.5036 10.7273C32.3839 10.7863 32.2587 10.8334 32.1299 10.868Z" fill="#14AC75"/>
<path d="M27.9368 6.56761C27.3783 6.55881 27.0779 5.98134 27.3857 5.4493C27.7623 4.80001 28.1771 4.17417 28.5802 3.54394C29.2036 2.56682 29.8289 1.58971 30.4562 0.612602C30.5017 0.540784 30.5471 0.466025 30.6028 0.40007C30.8959 -0.00445446 31.2565 -0.105585 31.6112 0.106936C31.9893 0.337046 32.0758 0.732779 31.8061 1.17248C31.343 1.9273 30.8593 2.67185 30.3829 3.41934C29.8231 4.29874 29.2588 5.16935 28.7033 6.04729C28.5142 6.33896 28.3076 6.572 27.9368 6.56761Z" fill="#14AC75"/>
<path d="M49.7415 43.3837C49.7415 38.719 49.7415 34.0538 49.7415 29.3881C49.7415 26.7191 51.4152 25.0526 54.0842 25.0468C55.1835 25.0468 56.2827 25.0468 57.382 25.0468C59.8487 25.0599 61.543 26.7323 61.5459 29.1814C61.5518 38.6838 61.5518 48.1857 61.5459 57.6871C61.5459 59.2437 60.8043 59.9912 59.2668 59.9941C56.8739 59.9941 54.48 59.9941 52.0851 59.9941C50.4845 59.9941 49.74 59.2613 49.74 57.6725C49.739 52.9101 49.7395 48.1471 49.7415 43.3837Z" fill="#14AC75"/>
<path d="M46.0156 47.1945C46.0156 50.7121 46.0156 54.2297 46.0156 57.7473C46.0156 59.2804 45.3077 59.9927 43.782 59.9942C41.3392 59.9942 38.8964 59.9942 36.4536 59.9942C35.051 59.9942 34.2449 59.2247 34.2419 57.8308C34.2302 50.7956 34.2302 43.7629 34.2419 36.7326C34.2419 34.5253 36.0227 32.8192 38.2374 32.7929C39.5076 32.7772 40.7778 32.7772 42.0481 32.7929C44.3257 32.8178 46.0054 34.5121 46.0054 36.7971C46.0215 40.2648 46.0156 43.7326 46.0156 47.1945Z" fill="#14AC75"/>
<path d="M18.7982 49.0998C18.7982 46.293 18.7982 43.4863 18.7982 40.681C18.7982 38.3858 20.4486 36.7017 22.7453 36.6563C24.0155 36.6299 25.2857 36.6299 26.556 36.6563C28.8556 36.7046 30.5705 38.4341 30.5763 40.7279C30.588 46.3902 30.588 52.0521 30.5763 57.7135C30.5763 59.2554 29.8098 59.9999 28.2679 60.0014C25.8759 60.0014 23.482 60.0014 21.0861 60.0014C19.5017 60.0014 18.7968 59.3037 18.7953 57.7384C18.7943 54.8559 18.7953 51.9764 18.7982 49.0998Z" fill="#14AC75"/>
<path d="M3.26514 52.0854C3.26514 50.2284 3.25634 48.3728 3.26514 46.5158C3.27833 44.1708 4.95359 42.4867 7.2796 42.4633C8.52542 42.4506 9.77124 42.4506 11.0171 42.4633C13.3343 42.4852 15.0535 44.1825 15.0638 46.4968C15.0799 50.2577 15.074 54.02 15.0638 57.7824C15.0638 59.2305 14.2869 59.9926 12.8359 59.997C10.3697 60.0029 7.9025 60.0029 5.43431 59.997C4.04047 59.997 3.26953 59.2129 3.26367 57.7985C3.25781 55.8961 3.26514 53.9907 3.26514 52.0854Z" fill="#14AC75"/>
</g>
</g>
<defs>
<clipPath id="clip0_18721_345">
<rect width="60.8091" height="60.8091" fill="white" transform="translate(0.090332)"/>
</clipPath>
<clipPath id="clip1_18721_345">
<rect width="62.5503" height="60" fill="white" transform="translate(-1)"/>
</clipPath>
</defs>
</svg>
