<svg width="61" height="61" viewBox="0 0 61 61" fill="none" xmlns="http://www.w3.org/2000/svg">
<g clip-path="url(#clip0_18721_315)">
<path d="M27.3378 0.00870582H46.8863C47.7986 0.00870582 47.8023 0.00871927 47.8023 0.899678C47.8023 9.54611 47.8053 18.1926 47.8111 26.839C47.8198 27.0653 47.7795 27.2909 47.693 27.5002C47.6064 27.7096 47.4758 27.8978 47.3099 28.052C41.0243 34.3175 34.745 40.5893 28.4719 46.8674C28.1725 47.1587 27.9625 47.5296 27.8667 47.9363C27.3278 50.1255 26.7715 52.3096 26.2201 54.4963C25.8843 55.8296 26.586 56.5451 27.9243 56.2156C30.1135 55.6767 32.2977 55.1178 34.4881 54.5865C34.8941 54.4863 35.2632 54.2725 35.552 53.97C39.3723 50.1422 43.1955 46.3164 47.0217 42.4928C47.1394 42.375 47.2522 42.2509 47.3775 42.1407C47.5981 41.9477 47.7535 41.9715 47.7911 42.291C47.8019 42.4365 47.8053 42.5825 47.8011 42.7284C47.8011 48.1794 47.8011 53.63 47.8011 59.0801C47.8011 60.0024 47.8011 60.0037 46.855 60.0037H10.8294H10.3908C10.1277 60.0037 9.96604 59.906 10.1127 59.6278C10.7517 58.4022 10.6515 57.0764 10.6515 55.7632C10.6515 53.0281 10.6515 50.2925 10.6515 47.5566C10.6515 45.1293 9.55627 43.4664 7.327 42.5442C6.93603 42.3812 6.76435 42.1507 6.79192 41.7422C6.8032 41.5755 6.79192 41.4076 6.79192 41.2409V1.19665C6.79192 1.02999 6.80445 0.862069 6.79192 0.695406C6.74931 0.194163 6.95607 -0.00633881 7.47862 0.00117983C9.23297 0.0237358 10.9873 0.00870582 12.7417 0.00870582H27.3378ZM9.55501 34.8977C9.54749 36.1972 9.9698 37.3337 10.867 38.2598C12.4484 39.8888 14.0549 41.5041 15.6614 43.1143C16.5599 44.0166 17.4721 44.9038 18.3894 45.7872C19.2332 46.6176 20.3612 47.096 21.5447 47.1255C22.5483 47.1674 23.5412 46.9069 24.3949 46.3777C25.2486 45.8485 25.9236 45.0751 26.3324 44.1577C26.7412 43.2402 26.865 42.2211 26.6877 41.2325C26.5103 40.2439 26.0401 39.3313 25.3379 38.6132C23.5994 36.8371 21.8451 35.0781 20.0748 33.3363C19.2578 32.5306 18.5222 31.6359 17.5975 30.9454C15.9847 29.7399 14.2228 29.5093 12.4121 30.3928C10.565 31.2938 9.62142 32.8376 9.55501 34.8977ZM26.6637 11.4345H34.4893C35.5983 11.4345 36.1008 11.0586 36.1071 10.2366C36.1134 9.41454 35.6134 9.07369 34.468 9.07369C29.2718 9.07369 24.0756 9.07369 18.8794 9.07369C18.628 9.06367 18.3762 9.07792 18.1275 9.11628C17.5574 9.22655 17.2052 9.70526 17.2228 10.2967C17.2226 10.5707 17.3229 10.8352 17.5046 11.0403C17.6864 11.2453 17.937 11.3767 18.209 11.4095C18.4376 11.4318 18.6673 11.4398 18.8969 11.4333L26.6637 11.4345ZM26.7464 21.8554C24.9294 21.8554 23.1128 21.8554 21.2966 21.8554C20.2941 21.8554 19.2917 21.8491 18.2892 21.8679C18.0445 21.8569 17.8043 21.9358 17.6138 22.0898C17.4233 22.2438 17.2958 22.4622 17.2554 22.7037C17.13 23.2701 17.3218 23.7325 17.8368 24.0345C18.0792 24.1601 18.3513 24.2173 18.6238 24.1999C23.9896 24.1999 29.3562 24.1999 34.7237 24.1999C34.9958 24.2172 35.2673 24.1572 35.5069 24.027C35.7312 23.9078 35.9091 23.7169 36.0122 23.4848C36.1153 23.2527 36.1377 22.9927 36.0758 22.7463C35.9692 22.2225 35.6322 21.9055 35.0733 21.8691C34.8653 21.8541 34.656 21.8566 34.4467 21.8566L26.7464 21.8554ZM26.7288 15.4645C24.4348 15.4645 22.14 15.4645 19.8443 15.4645C19.3217 15.4645 18.7992 15.452 18.2792 15.4846C18.0165 15.4976 17.767 15.6037 17.5755 15.784C17.384 15.9643 17.2629 16.2069 17.234 16.4683C17.1576 17.076 17.4396 17.5134 18.0298 17.7214C18.3314 17.8068 18.6455 17.8398 18.9583 17.8191H34.3578C34.6911 17.8191 35.0257 17.8291 35.3465 17.7076C35.5945 17.6196 35.8047 17.4488 35.9417 17.224C36.0786 16.9992 36.1339 16.7341 36.0983 16.4733C36.0081 15.9257 35.6961 15.561 35.1196 15.4908C34.8696 15.469 34.6186 15.4611 34.3678 15.467C31.8206 15.4637 29.2747 15.4624 26.7301 15.4633L26.7288 15.4645ZM12.6063 11.4195C12.857 11.4195 13.1076 11.437 13.3582 11.4195C13.6415 11.4079 13.9099 11.2891 14.109 11.0872C14.3081 10.8853 14.4232 10.6153 14.4309 10.3318C14.4647 9.69398 14.0775 9.16893 13.4447 9.10878C12.9075 9.05741 12.3666 9.05741 11.8294 9.10878C11.2141 9.16642 10.8269 9.66767 10.8445 10.2692C10.862 10.8707 11.263 11.3456 11.8645 11.412C12.1115 11.4277 12.3591 11.4298 12.6063 11.4182V11.4195ZM12.6853 21.8629C12.4347 21.8629 12.184 21.8466 11.9334 21.8629C11.2705 21.9168 10.867 22.3165 10.8394 22.9243C10.8177 23.2088 10.9018 23.4914 11.0758 23.7176C11.2497 23.9438 11.5012 24.0978 11.7818 24.1498C12.3581 24.2528 12.9484 24.2498 13.5236 24.141C14.1364 24.0157 14.4898 23.4518 14.4208 22.8265C14.3582 22.2601 13.9447 21.8942 13.3081 21.8566C13.1026 21.8516 12.8933 21.8616 12.6853 21.8616V21.8629ZM12.659 17.8417C12.9486 17.8271 13.237 17.7941 13.5223 17.7427C14.1664 17.5873 14.4785 17.1412 14.4233 16.5159C14.3707 15.9232 13.9421 15.5134 13.3031 15.4783C12.8258 15.4534 12.3476 15.4568 11.8708 15.4883C11.6073 15.5012 11.3577 15.6105 11.1694 15.7953C10.9811 15.9801 10.8673 16.2276 10.8495 16.4908C10.8106 17.0685 11.0412 17.4933 11.6089 17.7113C11.9497 17.8354 12.3043 17.8116 12.659 17.8354V17.8417Z" fill="#731644"/>
<path d="M51.6106 34.4216C51.5817 34.6021 51.4452 34.7073 51.3286 34.8239C48.5668 37.5807 45.8062 40.3409 43.0468 43.1044C42.6834 43.4703 42.4466 43.4114 42.1233 43.0793C41.206 42.137 40.2787 41.1997 39.3326 40.2899C38.9805 39.9491 38.9905 39.7148 39.3326 39.3689C42.1011 36.6171 44.858 33.8548 47.6031 31.0821C47.8663 30.8177 48.0781 30.7237 48.3826 31.0357C49.375 32.0508 50.3875 33.0407 51.39 34.0532C51.5003 34.156 51.6118 34.2575 51.6106 34.4216Z" fill="#731644"/>
<path d="M29.3541 53.4037C29.0734 53.44 28.9869 53.2859 29.0521 53.0277C29.423 51.5716 29.7989 50.1168 30.1799 48.6632C30.24 48.4338 30.4305 48.281 30.5909 48.1193C32.6422 46.0655 34.6998 44.0179 36.7412 41.9553C37.072 41.6207 37.295 41.5568 37.6522 41.9315C38.5895 42.9127 39.5569 43.8663 40.5343 44.8136C40.8413 45.1131 40.8538 45.3236 40.5406 45.6344C38.4195 47.7355 36.3059 49.8453 34.1998 51.9639C34.0447 52.1347 33.8458 52.2599 33.6247 52.326L29.5596 53.3623C29.4932 53.3761 29.4318 53.3874 29.3541 53.4037Z" fill="#731644"/>
<path d="M5.66909 53.4525H7.67407C8.11266 53.4525 8.31565 53.6568 8.31064 54.1054C8.29811 55.1906 8.34948 56.2783 8.28933 57.3634C8.19786 59.0589 7.06881 60.0651 5.42473 59.995C3.99745 59.9386 3.01627 58.8008 3.00875 57.1905C3.00875 56.4813 2.99872 55.7708 3.00875 55.0602C3.03381 53.3322 2.72179 53.4475 4.60395 53.4437H5.66909V53.4525Z" fill="#731644"/>
<path d="M54.3273 25.4606C55.4551 25.4606 56.247 26.032 56.7182 26.9944C57.1894 27.9568 57.0741 28.9405 56.356 29.745C55.5378 30.6635 54.633 31.4993 53.7721 32.3865C53.5215 32.6372 53.3248 32.6146 53.0867 32.374C52.0842 31.3648 51.0792 30.3623 50.0717 29.3665C49.8035 29.1021 49.8023 28.8966 50.0717 28.6347C50.9113 27.8202 51.7296 26.9844 52.5691 26.1711C52.7999 25.9413 53.0743 25.76 53.3763 25.638C53.6783 25.5159 54.0016 25.4556 54.3273 25.4606Z" fill="#731644"/>
<path d="M5.6002 51.1005C4.91224 51.1005 4.22178 51.093 3.53508 51.1005C3.16667 51.1005 3.00501 50.9489 3.00752 50.5779C3.01629 49.3687 2.97368 48.1569 3.02757 46.9439C3.08396 45.7121 4.14408 44.7109 5.40095 44.5956C6.0081 44.5482 6.61315 44.7106 7.11494 45.0556C7.61673 45.4007 7.98486 45.9076 8.15779 46.4915C8.36456 47.2071 8.29188 47.9414 8.30065 48.6695C8.30817 49.2534 8.28311 49.8374 8.30065 50.4238C8.32195 50.9413 8.10015 51.1281 7.59139 51.1055C6.92599 51.0754 6.25683 51.098 5.58642 51.098L5.6002 51.1005Z" fill="#731644"/>
<path d="M14.3682 32.26C15.2366 32.26 15.8719 32.4981 16.3857 33.0119C17.1864 33.8051 17.9771 34.6096 18.7779 35.404C19.0085 35.6334 19.1538 35.8288 18.8493 36.1308C17.8886 37.0874 16.9383 38.0548 15.9985 39.033C15.605 39.4453 15.3118 39.4165 14.9246 39.0004C14.1727 38.1909 13.3457 37.4491 12.5938 36.6384C11.8419 35.8276 11.7016 34.8514 12.1527 33.8452C12.6038 32.8389 13.4146 32.3189 14.3682 32.26Z" fill="#731644"/>
<path d="M24.3893 42.1933C24.3179 43.1958 23.8881 44.0366 22.8981 44.4902C21.8831 44.9577 20.8844 44.8662 20.0473 44.0867C19.1701 43.2785 18.3644 42.4076 17.5123 41.5805C17.2128 41.2911 17.2466 41.058 17.5211 40.7923C18.5235 39.8182 19.521 38.8417 20.5135 37.8626C20.7804 37.5969 20.9984 37.612 21.2541 37.8688C22.0723 38.7009 22.9132 39.5129 23.7202 40.3575C24.1851 40.8437 24.3618 41.4652 24.3893 42.1933Z" fill="#731644"/>
</g>
<defs>
<clipPath id="clip0_18721_315">
<rect width="54.0014" height="60" fill="white" transform="translate(3)"/>
</clipPath>
</defs>
</svg>
