<svg width="62" height="61" viewBox="0 0 62 61" fill="none" xmlns="http://www.w3.org/2000/svg">
<g clip-path="url(#clip0_25667_45532)">
<path d="M12.5966 23.362C12.5966 16.2421 12.5966 9.11774 12.5966 1.98886C12.5966 0.225015 12.8216 -0.00671387 14.6214 -0.00671387C22.1927 -0.00671387 29.7671 -0.00671387 37.3444 -0.00671387C38.854 -0.00671387 38.8585 -0.00671194 38.863 1.46466C38.863 3.67622 38.863 5.88777 38.863 8.09933C38.8743 9.95091 39.8439 10.9633 41.6933 10.9926C43.9791 11.0286 46.2671 11.0376 48.5529 10.9926C49.5046 10.9701 49.8826 11.249 49.8803 12.2592C49.8533 23.1663 49.8533 34.0733 49.8803 44.9803C49.8803 45.959 49.5586 46.283 48.5777 46.2807C36.9957 46.2537 25.4137 46.2537 13.8317 46.2807C12.8013 46.2807 12.5808 45.8758 12.5853 44.9466C12.6078 37.7607 12.5966 30.5614 12.5966 23.362ZM31.018 29.477C35.4366 29.477 39.8574 29.4477 44.2761 29.4972C45.3762 29.5084 45.7047 29.1125 45.6979 28.0551C45.6687 23.6725 45.6979 19.2808 45.7114 14.9095C45.7114 13.5911 45.5472 13.4336 44.1996 13.4314C35.5108 13.4314 26.8221 13.4314 18.1333 13.4314C16.689 13.4314 16.5585 13.5708 16.5585 15.067C16.5585 19.3746 16.5585 23.6815 16.5585 27.9876C16.5585 29.4342 16.6057 29.4747 18.1041 29.4747C22.4027 29.4792 26.7073 29.48 31.018 29.477ZM31.1372 38.7169H44.0668C44.4034 38.7233 44.7401 38.7083 45.0747 38.6719C45.2277 38.6637 45.3714 38.5961 45.4753 38.4835C45.5791 38.3708 45.6348 38.2221 45.6304 38.069C45.6304 37.6977 45.374 37.5492 45.0455 37.52C44.7845 37.4953 44.5213 37.4953 44.2603 37.4953H17.9466C17.6845 37.4911 17.4224 37.5016 17.1614 37.5267C17.0856 37.5261 17.0105 37.5414 16.9409 37.5715C16.8712 37.6017 16.8087 37.646 16.7572 37.7017C16.7058 37.7574 16.6665 37.8233 16.642 37.895C16.6174 37.9668 16.6081 38.0429 16.6147 38.1184C16.6135 38.194 16.6276 38.269 16.6562 38.339C16.6848 38.4089 16.7273 38.4723 16.7812 38.5254C16.835 38.5784 16.8991 38.6199 16.9695 38.6474C17.0399 38.6749 17.1151 38.6878 17.1907 38.6854C17.5259 38.7146 17.8656 38.7169 18.2031 38.7169H31.1372ZM31.2385 32.4984C26.8176 32.4984 22.3967 32.4984 17.9759 32.5119C17.4719 32.5119 16.653 32.2735 16.6597 33.1104C16.6597 33.9091 17.4652 33.6773 17.9894 33.7358C18.0636 33.7358 18.1378 33.7358 18.2143 33.7358H44.0668C44.4036 33.7442 44.7404 33.7277 45.0747 33.6863C45.2281 33.6834 45.3741 33.6201 45.4811 33.5101C45.5881 33.4002 45.6474 33.2525 45.6462 33.0991C45.6462 32.7302 45.392 32.5704 45.0657 32.5389C44.7299 32.5093 44.3927 32.4966 44.0556 32.5007L31.2385 32.4984ZM23.8141 43.6642H28.5387C29.1754 43.6642 29.8121 43.6642 30.4488 43.644C30.811 43.6327 31.1575 43.5 31.1822 43.0973C31.2092 42.6158 30.8312 42.4921 30.4263 42.4583C30.2778 42.4471 30.127 42.4448 29.9763 42.4448C25.8952 42.4448 21.8133 42.4448 17.7306 42.4448C17.2672 42.4448 16.6237 42.3278 16.6372 43.0545C16.6507 43.7812 17.2897 43.6485 17.7621 43.6507C19.769 43.6687 21.7938 43.662 23.8186 43.6642H23.8141Z" fill="#5994FE"/>
<path d="M31.1687 51.4327H5.86289C4.32177 51.4327 4.30377 51.4147 4.30377 49.8579C4.30377 38.1589 4.30377 26.4599 4.30377 14.761C4.30377 12.1084 5.58166 10.8373 8.23643 10.8148C8.79797 10.8392 9.36037 10.8354 9.92153 10.8036C11.0464 10.6821 11.4177 11.2198 11.3232 12.2457C11.3164 12.3581 11.3164 12.4708 11.3232 12.5831C11.3232 14.7002 11.3232 14.7362 9.26009 14.7632C8.44341 14.7745 8.24993 15.1052 8.24993 15.8476C8.26493 26.0077 8.26118 36.1671 8.23868 46.3257C8.23868 47.4821 8.83263 47.4641 9.64931 47.4641C23.5576 47.4521 37.4659 47.4521 51.3742 47.4641C54.0019 47.4641 54.0019 47.4641 54.0019 44.8723C54.0019 35.3511 54.0019 25.827 54.0019 16.2998C54.0019 14.7924 54.0019 14.7925 52.5531 14.7835C50.9512 14.7835 50.9512 14.7835 50.9399 13.1478C50.9219 10.3761 51.0142 10.853 53.2392 10.8216C53.9862 10.8103 54.7354 10.7698 55.4733 10.9768C57.0639 11.4268 57.9773 12.6191 57.9841 14.401C57.9998 18.4506 57.9841 22.5003 57.9841 26.5499C57.9841 34.3492 57.9841 42.1486 57.9841 49.9479C57.9841 51.4305 57.9841 51.4395 56.47 51.4395L31.1687 51.4327Z" fill="#5994FE"/>
<path d="M31.0292 59.9977C23.3799 59.9977 15.7305 59.9977 8.08121 59.9977C4.03157 59.9977 1.81101 57.6444 2.00674 53.6398C2.04274 52.9266 2.28572 52.6431 3.00566 52.6454C9.53009 52.6589 16.0545 52.6589 22.5789 52.6454C23.3529 52.6454 23.7826 53.0728 24.0818 53.633C24.8445 55.0661 25.9761 55.4779 27.578 55.3969C30.2778 55.2596 32.9775 55.3114 35.6773 55.3834C36.701 55.4126 37.4276 55.1201 37.8911 54.2337C38.566 52.9558 39.565 52.5981 41.0093 52.6184C46.9331 52.7061 52.8568 52.6791 58.7828 52.6341C59.8874 52.6341 60.2856 52.9086 60.2699 54.0762C60.2204 57.7997 58.0741 60.0022 54.3169 60.0045C46.5521 60.006 38.7895 60.0037 31.0292 59.9977Z" fill="#5994FE"/>
<path d="M40.0532 4.5739C40.0532 3.34101 40.0532 2.09912 40.0532 0.875227C40.0532 0.665995 39.9992 0.369023 40.2781 0.321777C40.3671 0.326527 40.4543 0.348855 40.5346 0.38747C40.6149 0.426084 40.6868 0.48022 40.7461 0.546758C43.5598 3.34701 46.3669 6.15252 49.1671 8.96327C49.6328 9.42898 49.4461 9.71471 48.8611 9.71471C46.3571 9.71471 43.8553 9.69896 41.3513 9.65396C40.4289 9.63596 40.0487 9.05101 40.0532 8.16684C40.0577 6.96769 40.0532 5.7708 40.0532 4.5739Z" fill="#5994FE"/>
<path d="M32.6895 24.0369C32.2013 22.7882 32.2148 21.4698 31.9718 20.2122C31.7649 19.1503 31.6389 18.0704 31.4499 17.0017C31.3892 16.6485 31.3622 16.2008 30.8717 16.1513C30.3812 16.1018 30.253 16.5068 30.0955 16.842C29.4566 18.1919 28.8356 19.562 28.1944 20.9164C28.0729 21.1774 27.9964 21.5711 27.6455 21.5531C27.3778 21.5418 27.2923 21.2021 27.1955 20.9546C26.1426 18.0299 25.6207 18.9073 24.1088 20.2392C23.2966 20.9591 22.3742 21.0716 21.3843 20.9996C20.2391 20.9164 18.8015 21.4991 18.0231 20.6937C17.2986 19.9467 17.7981 18.5429 17.7846 17.4314C17.7463 14.6169 17.7711 14.6169 20.5316 14.6169H43.1466C44.6135 14.6169 44.6382 14.6462 44.6472 16.1401C44.6472 17.3774 44.6247 18.6148 44.6472 19.8522C44.663 20.6577 44.3255 21.0244 43.5223 21.0064C42.5482 20.9861 41.574 21.0064 40.5976 21.0064C39.9227 21.0064 39.3332 21.0761 38.9935 21.7758C38.701 22.3833 38.3883 22.1695 38.1093 21.7398C37.7021 21.1121 37.3129 20.4687 36.8832 19.8567C36.296 19.0198 35.7875 19.0266 35.2678 19.9017C34.6761 20.9006 34.1429 21.9266 33.5715 22.9457C33.3487 23.3192 33.2227 23.7781 32.6895 24.0369Z" fill="#5994FE"/>
<path d="M31.2024 28.2755C27.1528 28.2755 23.1031 28.2507 19.0535 28.2935C18.0838 28.2935 17.7036 28.0168 17.7553 27.0133C17.8273 25.7827 17.8026 24.5386 17.7553 23.3057C17.7306 22.5182 18.0568 22.2303 18.8195 22.2663C19.6429 22.3023 20.4709 22.228 21.2943 22.282C22.6869 22.3742 23.9693 22.2483 24.957 21.0829C25.4789 20.4642 25.8231 20.7791 26.0706 21.3933C26.3518 22.0863 26.6601 22.7702 26.9705 23.4497C27.1123 23.7556 27.29 24.0661 27.6927 24.0683C28.0954 24.0706 28.2484 23.7421 28.3857 23.4317C28.8896 22.3067 29.3778 21.1661 29.8953 20.0457C30.0078 19.805 30.0258 19.3708 30.4397 19.4698C30.7322 19.5395 30.703 19.886 30.7412 20.1447C31.0382 22.1065 31.3397 24.0661 31.6254 26.0279C31.6816 26.4149 31.7176 26.8199 32.1698 26.9031C32.622 26.9863 32.82 26.5904 33.0023 26.2732C33.8437 24.8108 34.6874 23.3484 35.4928 21.8703C35.8978 21.1234 36.2352 21.1436 36.6604 21.8343C37.0317 22.4417 37.4141 23.0424 37.8236 23.6341C38.3973 24.4508 38.7528 24.4261 39.34 23.6184C39.6797 23.1504 39.8034 22.381 40.4919 22.3405C41.7251 22.2805 42.9607 22.2903 44.1928 22.3697C44.5842 22.3922 44.609 22.8602 44.6135 23.1954C44.6247 24.5813 44.6135 25.9672 44.6135 27.3553C44.6135 28.199 44.105 28.2957 43.4279 28.2935C39.3715 28.2665 35.2926 28.2732 31.2024 28.2755Z" fill="#5994FE"/>
</g>
<defs>
<clipPath id="clip0_25667_45532">
<rect width="58.2677" height="60" fill="white" transform="translate(2)"/>
</clipPath>
</defs>
</svg>
