<svg width="62" height="62" viewBox="0 0 62 62" fill="none" xmlns="http://www.w3.org/2000/svg">
<g clip-path="url(#clip0_7645_42111)">
<g clip-path="url(#clip1_7645_42111)">
<path d="M28.6454 0.00648727C34.5914 0.00648727 40.5374 -0.00854649 46.4834 0.0114978C50.5703 0.0250992 53.6993 1.79544 55.8083 5.29817C56.7546 6.87308 57.2128 8.61836 57.2221 10.446C57.2507 15.9989 57.2335 21.5519 57.2343 27.1049C57.2343 27.1529 57.2343 27.2008 57.2343 27.2481C57.2278 27.3297 57.245 27.4313 57.1627 27.475C57.0488 27.5366 56.9937 27.422 56.9307 27.3612C56.3938 26.8353 55.7925 26.3794 55.1411 26.0046C53.816 25.253 52.4014 24.9265 50.8809 25.1499C50.6707 25.1915 50.4652 25.2541 50.2674 25.3367C50.0792 25.4083 49.9954 25.3496 49.9968 25.1527C49.9968 25.0339 49.9968 24.9143 49.9968 24.7948C49.9968 20.1474 49.9968 15.5 49.9968 10.8526C49.9968 10.0966 49.8537 9.38004 49.4471 8.73863C48.8629 7.81802 47.9981 7.35486 46.9258 7.26108C46.7246 7.24318 46.5206 7.25034 46.318 7.25034C34.51 7.25034 22.7013 7.24867 10.8919 7.24533C10.0329 7.24533 9.23254 7.3749 8.53457 7.90822C7.74712 8.50955 7.34051 9.31204 7.26606 10.2906C7.25031 10.5054 7.25532 10.7201 7.25532 10.9349C7.25532 22.7205 7.25365 34.5058 7.25031 46.2908C7.25031 47.1348 7.35984 47.9295 7.8681 48.6289C8.55533 49.5724 9.52605 49.9754 10.6514 49.9833C13.5585 50.0055 16.4657 49.9926 19.3735 49.9933C21.2443 49.9933 23.1151 49.9933 24.9859 49.9933C25.4226 49.9933 25.4226 50.0012 25.2873 50.4064C24.8885 51.5961 25.0861 52.7651 25.4534 53.9141C25.8113 55.0344 26.4842 55.9737 27.2724 56.8348C27.3576 56.9279 27.5337 57.0074 27.4871 57.1376C27.4284 57.2951 27.2366 57.2343 27.102 57.2343C23.4912 57.2372 19.8806 57.2372 16.2702 57.2343C14.3997 57.2343 12.5284 57.2615 10.6578 57.2278C7.60037 57.1727 4.9488 56.1168 2.84272 53.8633C1.01153 51.9018 0.0415323 49.5538 0.0236356 46.8707C-0.00929423 41.6871 0.0136146 36.5028 0.0136146 31.3192C0.0136146 24.4078 0.0148069 17.4963 0.0171931 10.5848C0.0222042 7.58966 1.09099 5.01469 3.25076 2.93653C5.22727 1.03089 7.629 0.0286787 10.3815 0.0172248C16.4664 -0.0142733 22.5563 0.00720314 28.6454 0.00648727Z" fill="#232323"/>
<path d="M33.9595 21.5046C31.1361 21.5046 28.3129 21.5046 25.49 21.5046C24.9947 21.5046 24.9854 21.4968 24.9854 21.0114C24.9854 18.9268 24.9854 16.8422 24.9854 14.7576C24.9854 14.2944 25.014 14.2629 25.4643 14.2629C31.1349 14.2629 36.8053 14.2629 42.4754 14.2629C42.9107 14.2629 42.945 14.2987 42.945 14.7304C42.945 16.8274 42.945 18.9242 42.945 21.0207C42.945 21.491 42.9293 21.5054 42.4654 21.5054C39.6301 21.5049 36.7948 21.5046 33.9595 21.5046Z" fill="#232323"/>
<path d="M21.5055 17.8816C21.5055 18.9554 21.4969 20.0249 21.5105 21.0966C21.5141 21.4066 21.4046 21.5118 21.0953 21.5111C18.952 21.5015 16.8089 21.5015 14.6661 21.5111C14.3447 21.5111 14.2581 21.3851 14.2588 21.088C14.266 18.9571 14.266 16.826 14.2588 14.6946C14.2588 14.3703 14.3733 14.2551 14.6969 14.2565C16.8283 14.2656 18.9592 14.2656 21.0896 14.2565C21.4239 14.2565 21.5191 14.3839 21.512 14.7025C21.4962 15.7627 21.5055 16.8221 21.5055 17.8816Z" fill="#232323"/>
<path d="M21.5055 28.634C21.5055 29.6934 21.4976 30.7529 21.5098 31.8124C21.5134 32.1174 21.4139 32.234 21.0996 32.2326C18.9573 32.224 16.8144 32.224 14.6711 32.2326C14.3554 32.2326 14.2574 32.1159 14.2588 31.8138C14.266 29.6829 14.266 27.552 14.2588 25.4211C14.2588 25.104 14.3612 24.9759 14.6883 24.9773C16.8192 24.9873 18.9501 24.9873 21.081 24.9773C21.4103 24.9773 21.5105 25.0961 21.5105 25.419C21.4955 26.4906 21.5055 27.5623 21.5055 28.634Z" fill="#232323"/>
<path d="M21.5053 39.3248C21.5053 40.3747 21.5053 41.4232 21.5053 42.4703C21.5053 42.9234 21.4866 42.9442 21.0507 42.9449C18.9417 42.9449 16.8328 42.9399 14.7231 42.9506C14.3895 42.9506 14.2564 42.8482 14.2578 42.5018C14.2688 40.3809 14.2688 38.2598 14.2578 36.1384C14.2578 35.827 14.3538 35.6932 14.6873 35.6946C16.8206 35.706 18.9537 35.706 21.0865 35.6946C21.4287 35.6946 21.5103 35.8313 21.5067 36.1427C21.4974 37.2036 21.5053 38.2638 21.5053 39.3248Z" fill="#232323"/>
<path d="M30.4155 24.983C32.0582 24.983 33.7011 24.983 35.3443 24.983C35.4924 24.983 35.6886 24.9279 35.763 25.1004C35.874 25.3581 35.7029 25.4583 35.4767 25.5142C34.6049 25.7235 33.7775 26.0869 33.0334 26.5872C31.4177 27.661 30.3203 29.1307 29.7054 30.9648C29.5959 31.2912 29.5064 31.6255 29.4248 31.9598C29.3761 32.1581 29.2651 32.2319 29.0668 32.2319C27.8169 32.229 26.5668 32.229 25.3164 32.2319C25.068 32.2319 24.9785 32.123 24.9785 31.8868C24.9814 29.7077 24.9814 27.5288 24.9785 25.3502C24.9785 25.031 25.1518 24.9823 25.4123 24.983C27.0817 24.9851 28.7483 24.983 30.4155 24.983Z" fill="#232323"/>
<path d="M60.8251 44.7797C60.8251 45.5306 60.8065 46.283 60.8323 47.0332C60.8502 47.5415 60.6383 47.7147 60.1458 47.7018C59.223 47.6775 58.2981 47.7262 57.3775 47.6839C56.8127 47.6582 56.512 47.835 56.3674 48.3998C56.1798 49.1511 55.8754 49.8683 55.4654 50.5252C55.2507 50.8631 55.2836 51.0822 55.5678 51.3549C56.3123 52.0665 57.0167 52.821 57.7655 53.5283C58.117 53.8604 58.0991 54.0895 57.7605 54.4188C56.6371 55.5112 55.5291 56.6194 54.4367 57.7433C54.1031 58.0862 53.8748 58.0891 53.5462 57.7433C52.8382 56.9952 52.088 56.2865 51.3707 55.5477C51.1309 55.3008 50.9376 55.2027 50.6011 55.4146C49.9066 55.8454 49.1499 56.1668 48.3576 56.3674C47.8443 56.5013 47.6875 56.7826 47.7061 57.2937C47.7405 58.2587 47.7061 59.2266 47.719 60.1916C47.7262 60.6211 47.5651 60.8158 47.1184 60.8122C45.5521 60.7993 43.9853 60.7993 42.418 60.8122C41.9298 60.8122 41.7229 60.6211 41.7344 60.12C41.7566 59.1335 41.7215 58.1449 41.7473 57.1584C41.7587 56.7153 41.5984 56.5013 41.1689 56.3903C40.3603 56.1703 39.5832 55.8477 38.8566 55.4303C38.528 55.2478 38.3312 55.2936 38.0828 55.5513C37.3533 56.3087 36.5909 57.0346 35.8636 57.792C35.5772 58.0883 35.3711 58.1027 35.0761 57.797C33.9517 56.6454 32.813 55.5074 31.66 54.383C31.32 54.053 31.3794 53.8397 31.6865 53.5454C32.4138 52.8468 33.106 52.1137 33.8341 51.4157C34.1204 51.1401 34.2192 50.9218 33.993 50.541C33.5678 49.8181 33.2465 49.039 33.0388 48.2266C32.9299 47.8092 32.7059 47.6875 32.3043 47.6947C31.3386 47.7119 30.3714 47.6718 29.4065 47.709C28.7994 47.7333 28.619 47.4742 28.6269 46.9115C28.6462 45.4304 28.6512 43.9485 28.6269 42.4681C28.6168 41.9176 28.7901 41.6928 29.3635 41.7143C30.3063 41.7494 31.2527 41.7014 32.1962 41.7322C32.6866 41.748 32.9435 41.5769 33.0703 41.0994C33.2734 40.3078 33.5933 39.551 34.0195 38.8537C34.2221 38.5273 34.1627 38.3254 33.9064 38.0791C33.1662 37.3633 32.4575 36.6131 31.7115 35.9029C31.3779 35.5851 31.3321 35.3574 31.6879 35.0124C32.8285 33.9071 33.9522 32.7841 35.0589 31.6435C35.3818 31.3121 35.6023 31.3522 35.9022 31.665C36.6145 32.4088 37.3647 33.1168 38.0777 33.8605C38.3419 34.1362 38.5509 34.2034 38.901 33.9837C39.6133 33.537 40.4007 33.242 41.2082 33.0144C41.6034 32.9027 41.7602 32.6865 41.7523 32.2749C41.733 31.2662 41.7616 30.2569 41.7415 29.2482C41.7315 28.7722 41.9255 28.6039 42.3858 28.6082C43.9316 28.6235 45.4772 28.6235 47.0225 28.6082C47.5537 28.6032 47.7384 28.8302 47.7262 29.3477C47.7011 30.3127 47.7369 31.2806 47.7126 32.2456C47.7011 32.6872 47.8722 32.9099 48.291 33.0266C49.0991 33.2489 49.8758 33.5727 50.6025 33.9901C50.9283 34.1791 51.1273 34.129 51.3757 33.8713C52.1059 33.1139 52.8675 32.388 53.5949 31.6313C53.8812 31.3343 54.0867 31.3192 54.3859 31.6249C55.5108 32.7765 56.6495 33.9145 57.802 35.0389C58.142 35.3689 58.0833 35.5822 57.7762 35.8764C57.0489 36.5751 56.3567 37.3082 55.6286 38.0068C55.3423 38.2817 55.2442 38.5008 55.4697 38.8816C55.8854 39.5849 56.2011 40.3426 56.4075 41.133C56.5271 41.5883 56.7798 41.7437 57.2415 41.7308C58.2065 41.7036 59.1743 41.7394 60.1386 41.7172C60.6397 41.7057 60.8394 41.9119 60.8308 42.4001C60.8144 43.1904 60.8244 43.9829 60.8251 44.7797ZM44.7432 38.959C41.68 39.0406 39.0685 41.2748 39.0098 44.562C38.9518 47.8822 41.307 50.3742 44.7117 50.4257C47.7742 50.4737 50.3133 48.1349 50.4644 44.8491C50.609 41.6957 47.9853 39.0434 44.7432 38.959Z" fill="#232323"/>
</g>
</g>
<defs>
<clipPath id="clip0_7645_42111">
<rect width="60.8091" height="60.8091" fill="white" transform="translate(0.269531 0.269653)"/>
</clipPath>
<clipPath id="clip1_7645_42111">
<rect width="60.8336" height="60.81" fill="white"/>
</clipPath>
</defs>
</svg>
