<svg width="47" height="47" viewBox="0 0 47 47" fill="none" xmlns="http://www.w3.org/2000/svg">
<g clip-path="url(#clip0_35461_213407)">
<path d="M9.37457 46.3941C5.20092 46.3677 1.66624 43.3324 1.09508 39.1955C0.696223 36.2878 1.6128 33.8061 3.71159 31.7512C5.04856 30.4398 6.36558 29.1124 7.68899 27.7898C9.04032 26.4395 10.3901 25.0874 11.7382 23.7334C13.2661 22.2034 14.7937 20.6728 16.3211 19.1417C17.8136 17.6508 19.3133 16.167 20.8042 14.6745C22.2952 13.182 23.7797 11.6831 25.2714 10.1914C26.5007 8.96209 27.7396 7.74318 28.9649 6.51071C29.1587 6.31527 29.2752 6.35116 29.4515 6.52666C30.8613 7.95032 32.2756 9.36839 33.6945 10.7809C35.0283 12.1104 36.3637 13.4399 37.7006 14.7695C38.7512 15.8192 39.7915 16.8802 40.8476 17.9244C41.051 18.1262 41.0367 18.2435 40.8396 18.4405C39.1171 20.1487 37.4002 21.8641 35.6888 23.5866C34.1795 25.0985 32.671 26.6118 31.1634 28.1264C29.6743 29.6155 28.1802 31.1045 26.681 32.5936C25.1988 34.0758 23.7186 35.5598 22.2401 37.0456C20.8893 38.397 19.5369 39.7467 18.1829 41.0949C17.197 42.0784 16.2245 43.0788 15.2194 44.0416C13.8091 45.3921 12.1283 46.1747 10.1675 46.3215C9.90345 46.3414 9.63941 46.3693 9.37457 46.3941ZM27.1421 23.234C28.2742 23.287 29.407 23.1476 30.4925 22.8216C31.4801 22.538 32.3882 22.0283 33.1449 21.3331C33.3331 21.1607 33.4217 20.9454 33.2486 20.7356C33.0755 20.5258 32.8457 20.576 32.6399 20.718C32.5768 20.7671 32.5171 20.8204 32.4612 20.8776C32.0369 21.266 32.0193 21.266 31.6205 20.8728C30.886 20.141 30.1524 19.4084 29.4196 18.6751C29.2472 18.5028 29.047 18.3648 28.8308 18.565C28.6011 18.7788 28.6633 19.0181 28.8675 19.2295C28.9226 19.2869 28.9784 19.3443 29.0343 19.401C29.6852 20.0498 30.3345 20.6981 30.9823 21.3458C31.275 21.6386 31.2663 21.684 30.8722 21.8627C30.297 22.1228 29.6716 22.1978 29.0686 22.3533C28.2557 22.5631 27.5449 22.4802 27.044 21.7152C27.0354 21.7051 27.0258 21.696 27.0152 21.688C26.8557 21.5285 26.665 21.4064 26.4497 21.562C26.2343 21.7176 26.2462 21.9521 26.3914 22.1611C26.551 22.386 26.4337 22.4371 26.2319 22.4443C25.953 22.4441 25.6745 22.422 25.3991 22.3781C25.143 22.3477 25.0393 22.2297 25.0002 21.9792C24.8957 21.3179 24.9204 20.6534 24.9204 19.9897C24.9204 19.5111 24.9021 19.0324 24.9954 18.5586C25.0513 18.2762 25.1414 18.202 25.3648 18.4358C25.6408 18.7229 25.928 19.0005 26.2096 19.2821C26.409 19.4808 26.6403 19.594 26.8701 19.3619C27.0998 19.1298 26.9714 18.9303 26.7815 18.7413C26.3954 18.3568 26.0388 17.9388 25.6264 17.5862C25.2826 17.291 25.289 16.9983 25.4533 16.6337C25.7501 15.9764 26.0723 15.339 26.5885 14.8197C26.7879 14.6195 26.8796 14.357 26.6603 14.1496C26.4098 13.9103 26.1816 14.0818 25.9846 14.3012C25.3434 15.0158 24.8657 15.8616 24.5846 16.7797C24.0645 18.3943 24.0852 20.0543 24.1913 21.7168C24.2129 22.0638 24.1913 22.2002 23.7925 22.1531C22.2329 21.9704 20.6686 21.8763 19.1075 22.1411C17.6221 22.3932 16.2692 22.9389 15.1875 24.0277C14.1776 25.0464 13.6623 26.3172 13.3966 27.6972C13.1103 29.1858 13.1573 30.6903 13.332 32.1828C13.4246 32.9805 13.5291 33.0363 12.5008 32.9502C10.7881 32.8066 9.10015 32.9199 7.47999 33.5477C6.70904 33.8463 6.00631 34.2975 5.41391 34.8743C5.22804 35.0538 5.19215 35.2404 5.35727 35.4327C5.5224 35.6249 5.72821 35.6161 5.92445 35.4654C6.00422 35.4008 6.08399 35.3234 6.16376 35.2532C6.72803 34.7658 7.38146 34.3925 8.08785 34.1539C8.33116 34.067 8.51303 34.1053 8.69412 34.2951C9.08819 34.7091 9.49742 35.1088 9.90505 35.5092C10.1045 35.7047 10.331 35.8826 10.5911 35.6193C10.8511 35.3561 10.6525 35.1351 10.4611 34.9397C10.1922 34.6645 9.90983 34.4028 9.64419 34.1244C9.45992 33.9314 9.49343 33.8053 9.77901 33.7654C10.6894 33.6488 11.6098 33.6317 12.5239 33.7144C13.5426 33.8069 13.541 33.8317 13.6599 34.8368C13.675 34.9668 13.7397 35.1232 13.6184 35.2133C13.4716 35.3226 13.3855 35.1519 13.2842 35.0825C13.1182 34.9692 12.9603 34.9604 12.8183 35.1112C12.6899 35.246 12.6261 35.4079 12.7385 35.5802C12.8127 35.7064 12.9083 35.8187 13.0209 35.9121C13.5753 36.3237 13.833 36.8366 13.6184 37.5283C13.6172 37.5415 13.6172 37.5549 13.6184 37.5682C13.5246 38.2936 13.3424 39.0049 13.076 39.6861C12.9922 39.9039 12.8741 40.0849 12.6205 39.8225C12.1211 39.308 11.6146 38.8006 11.1048 38.2949C10.8511 38.0428 10.5927 37.7939 10.3262 37.5546C10.2954 37.5234 10.2587 37.4986 10.2183 37.4816C10.1778 37.4647 10.1344 37.456 10.0905 37.456C10.0467 37.456 10.0032 37.4647 9.96276 37.4816C9.92229 37.4986 9.88559 37.5234 9.85479 37.5546C9.81684 37.5826 9.78489 37.6179 9.76082 37.6584C9.73675 37.6989 9.72105 37.7439 9.71465 37.7906C9.70826 37.8373 9.71129 37.8848 9.72358 37.9303C9.73587 37.9758 9.75716 38.0184 9.78619 38.0556C9.86981 38.1752 9.96492 38.2863 10.0702 38.3874C10.6509 38.9721 11.2364 39.5521 11.8172 40.136C12.4266 40.7494 12.4274 40.7526 11.9265 41.4307C11.7669 41.6421 11.7374 41.8495 11.952 42.029C12.1546 42.1973 12.3405 42.1271 12.5104 41.9492C12.8994 41.5483 13.2309 41.0954 13.4956 40.6035C14.1824 39.3183 14.4177 37.9263 14.472 36.492C14.4889 35.7745 14.4622 35.0565 14.3922 34.3422C14.3683 34.0574 14.4999 33.9593 14.7727 33.9944C15.1548 34.043 15.5369 34.0949 15.9206 34.1188C17.6804 34.2281 19.4306 34.2281 21.1129 33.5852C22.5648 33.0268 23.7079 32.111 24.437 30.7038C25.3257 28.9895 25.4741 27.1548 25.3704 25.2793C25.3376 24.6835 25.277 24.0876 25.2108 23.4949C25.1757 23.2005 25.3049 23.1391 25.553 23.1758C26.0787 23.2603 26.6116 23.2165 27.1421 23.234ZM29.6437 26.3371C29.6437 25.387 28.9258 24.6356 28.0108 24.6308C27.1166 24.6252 26.3771 25.3719 26.3707 26.2869C26.3635 27.2529 27.0791 27.9948 28.0244 28.0028C28.9082 28.0091 29.6413 27.2545 29.6437 26.3371ZM10.1148 31.6722C11.0027 31.6786 11.7605 30.9232 11.7685 30.025C11.7734 29.8022 11.7338 29.5808 11.652 29.3735C11.5703 29.1663 11.448 28.9775 11.2924 28.818C11.1368 28.6586 10.9509 28.5319 10.7457 28.4452C10.5405 28.3584 10.3201 28.3135 10.0973 28.3131C9.21183 28.3131 8.45321 29.0661 8.43805 29.9587C8.434 30.4081 8.6082 30.8407 8.92248 31.1619C9.23677 31.483 9.66553 31.6666 10.1148 31.6722ZM29.1332 13.2682C29.5558 13.2654 29.9602 13.0958 30.2583 12.7962C30.5564 12.4966 30.724 12.0914 30.7246 11.6687C30.7246 10.7346 30.0394 10.0669 29.0965 10.0733C28.1679 10.0789 27.4891 10.7633 27.4955 11.6863C27.5026 12.5909 28.207 13.2721 29.1332 13.2682ZM4.97676 38.6307C4.07774 38.6235 3.41484 39.2505 3.40606 40.1185C3.3995 40.3281 3.43537 40.537 3.51154 40.7325C3.5877 40.928 3.70258 41.106 3.84928 41.256C3.99597 41.406 4.17147 41.5248 4.36522 41.6052C4.55897 41.6857 4.76698 41.7262 4.97676 41.7243C5.81277 41.7298 6.50439 41.0239 6.50519 40.1623C6.50359 39.2689 5.87499 38.6379 4.97676 38.6307ZM10.2576 42.1494C10.2616 41.3198 9.712 40.7407 8.91269 40.7335C8.55124 40.736 8.20522 40.8803 7.94918 41.1355C7.69314 41.3906 7.54757 41.7361 7.54381 42.0976C7.53583 42.9113 8.09423 43.488 8.89993 43.496C9.68727 43.5032 10.2536 42.9424 10.2576 42.1494ZM30.3872 17.0828C30.7285 17.086 31.0572 16.954 31.3014 16.7156C31.5457 16.4772 31.6856 16.1518 31.6907 15.8105C31.6932 15.6376 31.6615 15.4658 31.5973 15.3052C31.5332 15.1446 31.4379 14.9983 31.317 14.8747C31.196 14.7511 31.0518 14.6526 30.8927 14.585C30.7335 14.5174 30.5625 14.4819 30.3896 14.4807C30.0445 14.4807 29.7136 14.6178 29.4696 14.8618C29.2256 15.1058 29.0885 15.4367 29.0885 15.7818C29.0885 16.1268 29.2256 16.4578 29.4696 16.7017C29.7136 16.9457 30.0445 17.0828 30.3896 17.0828H30.3872ZM32.904 24.5686C32.9096 23.8323 32.3719 23.2619 31.6579 23.2468C31.3096 23.2388 30.972 23.3682 30.7183 23.607C30.4645 23.8458 30.3149 24.1749 30.3018 24.5231C30.2859 25.2299 30.8786 25.8282 31.6101 25.8449C31.7799 25.85 31.949 25.8206 32.1071 25.7585C32.2652 25.6964 32.4091 25.6029 32.5301 25.4835C32.651 25.3642 32.7465 25.2216 32.8108 25.0644C32.875 24.9071 32.9067 24.7385 32.904 24.5686ZM22.9254 19.4385C22.9254 18.703 22.3757 18.1406 21.6586 18.1374C21.486 18.1328 21.3142 18.1627 21.1533 18.2253C20.9924 18.2878 20.8456 18.3818 20.7214 18.5018C20.5973 18.6217 20.4982 18.7652 20.4301 18.9238C20.362 19.0825 20.3262 19.2531 20.3248 19.4257C20.3168 20.1261 20.9327 20.738 21.6466 20.7388C21.9879 20.7335 22.3133 20.5942 22.5526 20.3508C22.7919 20.1075 22.9258 19.7798 22.9254 19.4385ZM18.0473 36.4936C18.0553 35.7518 17.5232 35.2109 16.7766 35.2005C15.9733 35.1894 15.4548 35.6792 15.4444 36.4577C15.441 36.6275 15.4715 36.7962 15.5341 36.954C15.5967 37.1118 15.6902 37.2556 15.8091 37.3768C15.9279 37.498 16.0698 37.5943 16.2263 37.6601C16.3829 37.7258 16.5509 37.7596 16.7207 37.7596C17.4211 37.774 18.0433 37.1837 18.0505 36.4936H18.0473Z" fill="#08A6FF"/>
<path d="M32.3086 5.88252C32.3074 5.8089 32.2858 5.73707 32.2462 5.67498C32.2066 5.61289 32.1506 5.56296 32.0845 5.53073C32.0149 5.48893 31.9332 5.47215 31.8528 5.48318C31.7724 5.4942 31.6982 5.53237 31.6425 5.59135C31.3888 5.82508 31.1384 6.0644 30.9014 6.31488C30.7156 6.51112 30.5624 6.52149 30.3694 6.32126C29.8979 5.83386 29.4169 5.35603 28.9335 4.88537C28.7636 4.71865 28.7652 4.58384 28.9335 4.41632C30.0274 3.32983 31.1176 2.23962 32.2041 1.14569C32.4522 0.893607 32.607 1.01805 32.7952 1.20631C34.2497 2.66507 35.7058 4.12223 37.1635 5.57779L46.0429 14.4548C46.492 14.9031 46.4928 14.9031 46.0429 15.3522C45.0457 16.3485 44.0414 17.3361 43.0586 18.346C42.7978 18.6141 42.6287 18.6077 42.383 18.342C41.9681 17.8937 41.535 17.4645 41.0883 17.0434C40.8394 16.8112 40.8585 16.6389 41.0986 16.4243C41.326 16.2209 41.535 15.996 41.7432 15.7726C41.9211 15.5811 41.9554 15.3666 41.7528 15.1735C41.5501 14.9805 41.3475 15.0515 41.1672 15.2413C40.9383 15.4806 40.6998 15.7136 40.4668 15.9505C40.3073 16.114 40.1581 16.1164 39.9882 15.9449C39.5335 15.479 39.0748 15.0164 38.6066 14.5641C38.4223 14.3862 38.463 14.2561 38.6273 14.1006C38.8666 13.8716 39.1004 13.6339 39.3301 13.3938C39.5224 13.1928 39.5694 12.9678 39.3421 12.7676C39.1275 12.5769 38.9296 12.6631 38.7518 12.8474C38.5428 13.0691 38.3242 13.2821 38.1136 13.5031C37.9237 13.7033 37.7578 13.728 37.5488 13.5031C37.1292 13.058 36.6976 12.6256 36.2517 12.206C36.026 11.9946 36.0595 11.8295 36.2557 11.642C36.4767 11.4314 36.6976 11.2208 36.9154 11.0038C37.1109 10.8116 37.1874 10.593 36.9657 10.3792C36.7439 10.1655 36.5349 10.2556 36.3458 10.459C36.1376 10.6816 35.9199 10.8954 35.7077 11.1131C35.533 11.2918 35.3742 11.3357 35.1724 11.1235C34.7432 10.6699 34.3018 10.2279 33.8482 9.7977C33.6424 9.60226 33.6591 9.44352 33.8482 9.26244C34.0771 9.04147 34.3021 8.81572 34.531 8.59475C34.7193 8.41367 34.7879 8.21185 34.5933 8.00284C34.3986 7.79384 34.1864 7.83213 33.9958 8.01242C33.7453 8.25173 33.498 8.49105 33.2611 8.74312C33.0952 8.91862 32.9643 8.91304 32.7968 8.74312C32.3525 8.28524 31.9034 7.83213 31.4407 7.38701C31.2309 7.18599 31.2732 7.02804 31.4567 6.85174C31.6776 6.64035 31.889 6.41938 32.11 6.20878C32.2097 6.12435 32.2794 6.00988 32.3086 5.88252Z" fill="#08A6FF"/>
<path d="M13.9953 30.2264C13.9953 29.8946 13.9953 29.5619 13.9953 29.2301C13.9953 29.1407 13.9817 29.0298 14.0862 28.9852C14.1907 28.9405 14.2577 29.0306 14.3215 29.0936C14.6624 29.4292 15.0009 29.7672 15.337 30.1075C15.5333 30.3062 15.7471 30.4386 15.9928 30.2128C16.2528 29.9735 16.1068 29.7669 15.913 29.5707C15.4511 29.1128 14.9996 28.6445 14.5305 28.1946C14.2761 27.9505 14.1899 27.7048 14.2801 27.3435C14.4675 26.5949 14.7801 25.8835 15.2046 25.2391C15.4104 24.92 15.5716 24.8969 15.8428 25.1761C16.8551 26.2131 17.8857 27.2294 18.91 28.2536C18.9946 28.3382 19.0799 28.4212 19.1653 28.5057C19.3791 28.7163 19.6136 28.8248 19.8545 28.5648C20.0954 28.3047 19.8904 28.13 19.7189 27.9577C18.7154 26.9504 17.7097 25.9435 16.7019 24.9367C16.5615 24.7964 16.4219 24.6536 16.2815 24.5124C16.122 24.3528 16.1515 24.2132 16.3246 24.0816C17.0705 23.5152 17.9256 23.2041 18.8246 22.9871C19.0097 22.9433 19.1254 23.0446 19.241 23.161C19.6819 23.603 20.1236 24.0446 20.5661 24.486C20.6602 24.5802 20.7527 24.6767 20.8548 24.7605C21.0511 24.92 21.2641 24.975 21.4563 24.7652C21.6486 24.5554 21.5592 24.3664 21.3973 24.1989C21.0551 23.8463 20.7041 23.5025 20.3602 23.1539C20.2877 23.0813 20.1672 23.0206 20.2087 22.897C20.2549 22.7566 20.3985 22.7678 20.5134 22.763C21.6821 22.727 22.8517 22.7983 24.0074 22.976C24.2635 23.0127 24.3775 23.1435 24.4007 23.39C24.4254 23.654 24.4637 23.9165 24.4948 24.1805C24.5036 24.2603 24.5235 24.3472 24.4326 24.3903C24.3416 24.4334 24.2802 24.3696 24.2212 24.3177C24.0329 24.1582 23.8423 24.1175 23.6628 24.3217C23.4833 24.5259 23.5543 24.7413 23.7218 24.9264C23.8148 25.0393 23.9193 25.1423 24.0337 25.2335C24.5546 25.6092 24.695 26.1158 24.62 26.7316C24.5251 27.5078 24.5044 28.2943 24.2467 29.045C24.08 29.5324 24.0537 29.5539 23.6995 29.2045C22.9616 28.4786 22.2357 27.7399 21.5018 27.0092C21.3899 26.8962 21.2693 26.7922 21.1412 26.6981C20.9817 26.5848 20.8165 26.5816 20.6714 26.7276C20.605 26.7856 20.5632 26.8667 20.5545 26.9544C20.5457 27.0421 20.5707 27.1299 20.6243 27.1999C20.7166 27.3294 20.8207 27.4501 20.9354 27.5604C21.761 28.3893 22.5819 29.2221 23.4203 30.0373C23.6652 30.2767 23.6947 30.4713 23.5 30.7553C23.0857 31.3758 22.55 31.906 21.9254 32.314C21.686 32.4688 21.5153 32.4736 21.3023 32.2526C20.4201 31.3496 19.5195 30.4641 18.6268 29.5715C18.4425 29.3872 18.2391 29.1726 17.9838 29.4056C17.7078 29.6576 17.8666 29.9153 18.0788 30.1291C18.8653 30.9212 19.6583 31.7078 20.444 32.4999C20.7727 32.8317 20.7519 32.89 20.2892 33.0168C19.493 33.2256 18.6775 33.352 17.8554 33.3941C17.2332 33.434 16.7809 33.2346 16.4084 32.7727C16.3361 32.6773 16.2523 32.5913 16.1587 32.5166C15.9856 32.3882 15.7853 32.3499 15.6059 32.4911C15.4264 32.6323 15.4304 32.8102 15.5468 32.9905C15.7136 33.2465 15.5668 33.2992 15.353 33.2753C15.0626 33.2434 14.7746 33.1899 14.4867 33.1389C14.2529 33.0974 14.2266 32.9059 14.1963 32.7177C14.0517 31.8953 13.9844 31.0613 13.9953 30.2264Z" fill="#08A6FF"/>
<path d="M27.1445 26.3246C27.1445 26.0966 27.2351 25.8779 27.3964 25.7167C27.5577 25.5554 27.7764 25.4648 28.0045 25.4648C28.2325 25.4648 28.4513 25.5554 28.6125 25.7167C28.7738 25.8779 28.8644 26.0966 28.8644 26.3246C28.8644 26.7975 28.4783 27.2018 28.0236 27.2154C27.5689 27.229 27.1509 26.8095 27.1445 26.3246Z" fill="#08A6FF"/>
<path d="M10.1317 30.8855C9.67142 30.8943 9.22789 30.4708 9.21512 30.0082C9.20236 29.5457 9.62914 29.1134 10.0926 29.0943C10.5473 29.0767 10.9805 29.5153 10.9781 29.9899C10.9797 30.4397 10.568 30.8767 10.1317 30.8855Z" fill="#08A6FF"/>
<path d="M29.0862 10.8517C29.5936 10.8453 29.9047 11.1523 29.9063 11.662C29.9104 11.8815 29.8273 12.0937 29.6752 12.2521C29.5232 12.4105 29.3146 12.5023 29.095 12.5073C28.6754 12.5073 28.2885 12.1197 28.2766 11.6923C28.2706 11.5829 28.2873 11.4736 28.3255 11.371C28.3636 11.2684 28.4226 11.1747 28.4985 11.0959C28.5745 11.017 28.6658 10.9546 28.767 10.9126C28.8681 10.8706 28.9768 10.8499 29.0862 10.8517Z" fill="#08A6FF"/>
<path d="M5.72266 40.1605C5.71973 40.3677 5.63548 40.5656 5.48806 40.7113C5.34064 40.857 5.14185 40.9391 4.93452 40.9397C4.54444 40.9269 4.18945 40.5513 4.18945 40.1525C4.19308 39.9523 4.27274 39.7609 4.41229 39.6173C4.55184 39.4736 4.74082 39.3884 4.9409 39.3789C5.04371 39.3784 5.14561 39.3982 5.24069 39.4373C5.33578 39.4764 5.42217 39.534 5.49487 39.6067C5.56757 39.6793 5.62513 39.7657 5.66423 39.8608C5.70333 39.9558 5.72319 40.0577 5.72266 40.1605Z" fill="#08A6FF"/>
<path d="M8.88969 42.7048C8.81378 42.7039 8.73882 42.6879 8.66912 42.6579C8.59942 42.6278 8.53638 42.5842 8.48364 42.5296C8.4309 42.475 8.3895 42.4105 8.36185 42.3399C8.33419 42.2692 8.32082 42.1937 8.32251 42.1179C8.32014 42.0382 8.33483 41.9591 8.36561 41.8856C8.39638 41.8121 8.44252 41.7461 8.50093 41.6919C8.55933 41.6378 8.62866 41.5967 8.70424 41.5716C8.77983 41.5464 8.85992 41.5377 8.93915 41.546C9.28296 41.5644 9.48957 41.7949 9.4792 42.1474C9.47921 42.2233 9.46372 42.2984 9.43369 42.3682C9.40365 42.4379 9.3597 42.5008 9.30452 42.553C9.24934 42.6052 9.18409 42.6456 9.11276 42.6717C9.04143 42.6978 8.96553 42.7091 8.88969 42.7048Z" fill="#08A6FF"/>
<path d="M30.8824 15.7754C30.8816 15.9094 30.8293 16.038 30.7364 16.1346C30.6434 16.2312 30.517 16.2885 30.3831 16.2946C30.2484 16.2931 30.1198 16.2384 30.0254 16.1425C29.9309 16.0466 29.8783 15.9172 29.8789 15.7826C29.8949 15.4747 30.0664 15.2873 30.3783 15.2666C30.6471 15.2482 30.88 15.4947 30.8824 15.7754Z" fill="#08A6FF"/>
<path d="M31.5984 25.0346C31.324 25.0259 31.1373 24.8624 31.0982 24.5561C31.0671 24.3105 31.3319 24.0529 31.6008 24.0393C31.7345 24.035 31.8645 24.0836 31.9626 24.1745C32.0608 24.2654 32.119 24.3914 32.1249 24.525C32.136 24.8217 31.9398 25.0275 31.5984 25.0346Z" fill="#08A6FF"/>
<path d="M22.1477 19.4178C22.1174 19.7368 21.9435 19.9043 21.63 19.9122C21.3452 19.9202 21.0939 19.6881 21.1123 19.4242C21.1338 19.1123 21.3237 18.9289 21.6284 18.9297C21.9331 18.9305 22.1166 19.1099 22.1477 19.4178Z" fill="#08A6FF"/>
<path d="M16.7488 36.9657C16.4736 36.9712 16.2231 36.7416 16.2327 36.472C16.2439 36.1634 16.4018 35.9704 16.7249 35.9688C17.048 35.9672 17.2187 36.1466 17.2514 36.4473C17.2777 36.7009 17.0097 36.9609 16.7488 36.9657Z" fill="#08A6FF"/>
</g>
<defs>
<clipPath id="clip0_35461_213407">
<rect width="46.375" height="46.375" fill="white" transform="translate(0.458984 0.101562)"/>
</clipPath>
</defs>
</svg>
