<svg width="47" height="47" viewBox="0 0 47 47" fill="none" xmlns="http://www.w3.org/2000/svg">
<g clip-path="url(#clip0_35461_213389)">
<g clip-path="url(#clip1_35461_213389)">
<path d="M17.6785 43.0786C13.05 42.9052 9.31094 41.0414 6.6148 37.2238C5.17294 35.1776 4.41292 32.8814 4.27372 30.3842C4.06679 26.6716 5.21388 23.4077 7.70383 20.6642C9.8402 18.3136 12.514 16.9024 15.6687 16.3784C18.3485 15.9318 20.8697 16.3784 23.3105 17.4815C23.743 17.6765 23.7422 17.7122 23.4504 18.0769C22.6749 19.0384 22.1787 20.1945 22.016 21.4189C21.9469 22.0274 21.6738 22.5946 21.2411 23.0281L20.3739 23.8968C19.4903 24.7817 19.4494 26.1163 20.2801 26.9723C21.1109 27.8282 22.485 27.791 23.3849 26.9135C23.801 26.5078 24.168 26.053 24.6504 25.7129C24.9868 25.4776 25.3758 25.3284 25.7833 25.2782C27.0897 25.0959 28.2748 24.6344 29.2819 23.7687C29.5052 23.5774 29.6273 23.6132 29.7501 23.8767C30.6828 25.8774 31.2099 27.9801 31.0617 30.1833C30.7692 34.5405 28.8725 38.0604 25.3151 40.6335C23.508 41.9442 21.3829 42.7474 19.1606 42.9595C18.6693 43.0101 18.1802 43.0912 17.6785 43.0786ZM6.86714 27.0757C6.79271 27.0757 6.73092 27.0757 6.66914 27.0757C6.40488 27.0862 6.19423 27.1874 6.17934 27.4762C6.16594 27.7464 6.36618 27.8684 6.59917 27.9228C7.18648 28.0515 7.18723 28.0471 7.18499 28.647V28.9447C7.18499 29.6608 7.18499 29.6593 6.50165 29.8379C6.28578 29.8945 6.15105 30.0255 6.16966 30.2629C6.18678 30.4788 6.31854 30.5964 6.52845 30.6247C6.62705 30.6387 6.7269 30.6419 6.8262 30.6343C7.1113 30.6113 7.27953 30.7155 7.28921 31.0214C7.29771 31.1078 7.31163 31.1935 7.33089 31.2782C7.42022 31.8416 7.57207 32.4199 6.76219 32.6179C6.56865 32.6656 6.57088 32.8889 6.61331 33.0645C6.65574 33.2402 6.80685 33.3221 6.9855 33.3094C7.13334 33.2991 7.27896 33.2677 7.41799 33.2164C7.62939 33.1352 7.75593 33.1881 7.87727 33.3823C8.06039 33.6756 8.26509 33.9629 8.55242 34.1669C8.77573 34.3232 8.807 34.5033 8.64398 34.699C8.33655 35.0712 8.45937 35.4218 8.65366 35.5104C8.92833 35.6347 9.15537 35.5185 9.38315 35.0749C9.50969 34.8271 9.65261 34.7199 9.93697 34.8167C10.4377 34.9809 10.9801 34.9651 11.4704 34.772C11.8426 34.6328 12.0785 34.6976 12.2892 35.0571C12.5296 35.4672 12.7671 35.5364 12.9993 35.366C13.2457 35.1851 13.242 34.9744 12.9852 34.5896C12.951 34.5375 12.9197 34.4839 12.881 34.4356C12.7492 34.2673 12.7716 34.1229 12.9309 33.9838C13.1889 33.7489 13.3956 33.4633 13.5383 33.1449C13.6924 32.8241 13.8405 32.5725 14.27 32.6239C14.4799 32.6499 14.6504 32.4877 14.6645 32.2577C14.6772 32.0403 14.5707 31.826 14.3474 31.8223C13.9067 31.8133 13.8561 31.5498 13.8487 31.2112C13.847 31.0374 13.8273 30.8643 13.7899 30.6946C13.7117 30.3597 13.7899 30.1736 14.174 30.1736C14.3817 30.1736 14.5097 30.0203 14.5238 29.8059C14.538 29.5915 14.3936 29.4159 14.2045 29.4166C13.6752 29.4166 13.6909 29.0847 13.7125 28.7199C13.7229 28.5473 13.7169 28.3731 13.7221 28.1989C13.74 27.6466 13.74 27.6407 14.2953 27.5849C14.4993 27.5648 14.6176 27.4695 14.6548 27.2752C14.6958 27.0638 14.6132 26.8487 14.4152 26.8368C13.8941 26.8041 13.8688 26.4542 13.8338 26.0731C13.8209 25.8996 13.7788 25.7295 13.7095 25.57C13.5658 25.2589 13.5934 25.04 13.9328 24.8793C13.9763 24.8609 14.0155 24.8338 14.0481 24.7996C14.0806 24.7654 14.1058 24.7248 14.122 24.6805C14.1382 24.6362 14.1451 24.589 14.1422 24.5418C14.1394 24.4947 14.1269 24.4487 14.1055 24.4066C14.0139 24.1833 13.8316 24.1342 13.6149 24.1766C13.5413 24.1881 13.4709 24.2147 13.408 24.2548C13.1594 24.4342 12.9487 24.3731 12.75 24.1714C12.6932 24.1054 12.6245 24.0506 12.5475 24.0099C12.124 23.8305 11.92 23.5827 12.1441 23.0981C12.2364 22.8979 12.0964 22.7066 11.8813 22.6344C11.6662 22.5622 11.4897 22.627 11.3878 22.8435C11.353 22.9094 11.3246 22.9785 11.3029 23.0497C11.2285 23.3474 11.0543 23.4576 10.7536 23.3772C10.6688 23.3555 10.58 23.3555 10.4953 23.3772C10.1379 23.4725 9.96228 23.3303 9.89975 22.9768C9.84541 22.6746 9.68313 22.4558 9.33402 22.5518C9.01319 22.6381 9.04669 22.9105 9.06977 23.1621C9.07468 23.2127 9.08516 23.2627 9.10103 23.311C9.19482 23.5938 9.11219 23.7903 8.83231 23.9064C8.74071 23.9464 8.6591 24.0061 8.59336 24.0813C8.34995 24.359 8.11026 24.4662 7.78199 24.1803C7.60631 24.0315 7.37928 24.0553 7.22073 24.2548C7.06217 24.4542 7.14182 24.65 7.29516 24.8205C7.35194 24.8854 7.41672 24.943 7.48796 24.9916C7.67256 25.1145 7.71127 25.2596 7.61897 25.4673C7.45215 25.8429 7.35964 26.2473 7.34653 26.6582C7.33164 26.9879 7.19169 27.1368 6.86714 27.0757ZM28.0254 33.4627C28.1847 33.4627 28.3232 33.4188 28.3931 33.2625C28.4966 33.034 28.4132 32.833 28.2398 32.6968C27.9324 32.4534 27.8542 32.2048 28.1199 31.8855C28.1669 31.8267 28.196 31.7557 28.2041 31.6808C28.242 31.2908 28.481 31.203 28.8264 31.2283C29.0988 31.2484 29.3474 31.1673 29.3474 30.842C29.3474 30.5033 29.1047 30.4036 28.8115 30.4267C28.4713 30.4535 28.3001 30.3403 28.1586 29.9957C27.9822 29.5655 27.8281 29.2291 28.2919 28.8792C28.4787 28.7385 28.4705 28.4557 28.2777 28.2838C28.0849 28.1118 27.8639 28.1617 27.6755 28.3314C27.63 28.3735 27.5876 28.4191 27.549 28.4676C27.3748 28.679 27.1984 28.7021 26.9326 28.583C26.4704 28.3761 26.0245 28.2153 26.1377 27.5558C26.1726 27.3526 25.9746 27.232 25.7617 27.2313C25.5488 27.2306 25.4044 27.3377 25.3717 27.5528C25.3542 27.6881 25.3482 27.8245 25.3538 27.9607C25.3583 28.1744 25.2853 28.3165 25.0561 28.3612C24.9464 28.3828 24.8422 28.4266 24.7501 28.4899C24.4204 28.7244 24.1546 28.6961 23.8986 28.3627C23.7296 28.1394 23.4713 28.0649 23.2472 28.2719C23.0075 28.4952 23.082 28.775 23.3001 28.9566C23.638 29.2372 23.6589 29.5112 23.3991 29.8394C23.3695 29.8799 23.3508 29.9273 23.3447 29.9771C23.2971 30.3545 23.0656 30.4564 22.718 30.4237C22.4612 30.4014 22.2431 30.4654 22.2237 30.7862C22.2051 31.0898 22.3458 31.2402 22.7187 31.2238C23.076 31.2075 23.2398 31.3213 23.3968 31.6704C23.6097 32.1364 23.6834 32.4691 23.2301 32.8167C23.0522 32.9529 23.0619 33.2052 23.2375 33.3823C23.4132 33.5595 23.6164 33.5424 23.8048 33.3876C23.892 33.3178 23.9729 33.2406 24.0467 33.1568C24.2067 32.9685 24.3534 32.9618 24.5946 33.0623C25.0672 33.2595 25.493 33.4263 25.3985 34.0783C25.3709 34.2666 25.5697 34.4028 25.7863 34.3946C26.0029 34.3864 26.1808 34.2882 26.1585 34.0649C26.1012 33.5379 26.3074 33.2461 26.8329 33.1717C26.8935 33.1563 26.9492 33.1256 26.9944 33.0824C27.2058 32.9105 27.3718 32.9745 27.5378 33.1568C27.6666 33.3049 27.7969 33.4672 28.0254 33.4627ZM21.326 20.5451C21.3602 20.0367 21.16 19.6087 20.7759 19.2745C20.2615 18.828 19.7434 18.3866 19.2052 17.9698C18.5212 17.4398 17.6301 17.4986 17.0056 18.1008C16.7927 18.3062 16.6081 18.5414 16.4138 18.7654C15.7282 19.5581 15.8295 20.6597 16.6461 21.3303C16.9805 21.6052 17.3108 21.8849 17.6368 22.1692C18.5249 22.9418 19.2827 23.0907 20.059 22.6314C20.4312 22.4081 20.6389 22.0285 20.9158 21.7144C21.0599 21.5575 21.1705 21.3729 21.2411 21.1719C21.3116 20.9709 21.3405 20.7576 21.326 20.5451ZM20.3419 37.8937C20.3419 37.7694 20.3479 37.6458 20.3419 37.5215C20.2764 36.3358 19.5834 35.5066 18.2844 35.6294C17.6934 35.6853 17.1024 35.7351 16.5106 35.7865C15.7454 35.852 15.0896 36.4854 15.0166 37.2506C14.9733 37.7076 15.0027 38.1686 15.1037 38.6164C15.3151 39.5714 16.0788 40.0887 17.054 39.9688C17.5319 39.91 18.0142 39.8743 18.4958 39.8535C19.7189 39.8036 20.3739 39.1151 20.3419 37.8937ZM12.5423 39.0459C12.5341 39.0049 12.5423 38.9119 12.5021 38.8635C12.1367 38.4264 11.6687 38.0865 11.1399 37.8743C11.0626 37.8441 10.9766 37.8453 10.9001 37.8775C10.8236 37.9098 10.7628 37.9706 10.7305 38.047C10.6861 38.1236 10.6694 38.2131 10.6829 38.3005C10.6964 38.388 10.7395 38.4682 10.8049 38.5278C11.171 38.8621 11.5718 39.1563 12.0004 39.4054C12.2713 39.5654 12.5252 39.3897 12.5423 39.0459ZM24.5268 37.7805C24.5209 37.619 24.4568 37.4873 24.2968 37.4359C24.2035 37.4004 24.1016 37.3944 24.0048 37.4188C23.908 37.4431 23.821 37.4967 23.7556 37.5721C23.513 37.8349 23.2681 38.0931 23.0261 38.3589C22.8475 38.5524 22.7604 38.7653 22.9807 38.9752C23.1832 39.1687 23.4132 39.1508 23.606 38.9536C23.8822 38.6715 24.1449 38.3767 24.4114 38.0857C24.4496 38.0456 24.4795 37.9983 24.4993 37.9465C24.5191 37.8948 24.5285 37.8396 24.5268 37.7842V37.7805ZM18.041 33.3831C18.3492 33.3831 18.571 33.1047 18.4214 32.8695C18.2656 32.5993 18.048 32.3697 17.7865 32.1996C17.6272 32.1051 17.4768 32.1401 17.3354 32.2421C17.2742 32.2858 17.2274 32.3467 17.2009 32.4171C17.1744 32.4874 17.1694 32.5641 17.1865 32.6373C17.2274 32.9157 17.7716 33.3868 18.041 33.3868V33.3831ZM11.6647 20.2831C11.9624 20.193 12.2862 20.0404 12.4947 19.7345C12.5966 19.5857 12.5639 19.4011 12.4381 19.2537C12.3941 19.1923 12.3302 19.1482 12.2573 19.1288C12.1844 19.1093 12.107 19.1159 12.0384 19.1473C11.7771 19.258 11.538 19.4151 11.3327 19.611C11.2738 19.6675 11.2348 19.7415 11.2214 19.8219C11.208 19.9024 11.2209 19.985 11.2582 20.0576C11.323 20.2072 11.4473 20.2801 11.6647 20.2868V20.2831ZM15.9441 23.1844C15.9267 22.9961 15.8993 22.8087 15.8622 22.6232C15.8538 22.5734 15.8354 22.5258 15.8082 22.4833C15.7809 22.4407 15.7455 22.404 15.7038 22.3754C15.6622 22.3468 15.6152 22.3269 15.5657 22.3168C15.5162 22.3067 15.4651 22.3066 15.4156 22.3166C15.3145 22.3213 15.219 22.3643 15.1485 22.4369C15.078 22.5095 15.0378 22.6062 15.036 22.7073C15.032 22.9183 15.0648 23.1283 15.1327 23.3281C15.1975 23.5514 15.3516 23.6526 15.5794 23.6199C15.8399 23.5841 15.9292 23.4085 15.9441 23.1844ZM17.6346 29.5618C18.0917 29.5536 18.4921 29.273 18.478 28.9924C18.4631 28.6946 18.2547 28.6284 18.0135 28.6306C17.5765 28.6306 17.2319 28.8829 17.2527 29.1814C17.2706 29.436 17.4359 29.5439 17.6346 29.5618Z" fill="#DB2121"/>
<path d="M1.29407 29.5977C1.29407 26.2565 2.19924 23.1847 4.09666 20.4277C5.62582 18.1984 7.68153 16.3809 10.0815 15.1364C12.4907 13.8542 15.1849 13.2018 17.9138 13.2399C20.6509 13.2734 23.228 13.9842 25.6241 15.3239C25.8698 15.4609 25.8787 15.583 25.6814 15.7705C25.3093 16.1315 24.9371 16.5 24.5746 16.8736C24.4346 17.0188 24.3148 17.0515 24.1212 16.9481C21.8792 15.768 19.3545 15.2309 16.8263 15.3961C14.18 15.5636 11.7675 16.4196 9.57828 17.9239C7.24241 19.5249 5.51768 21.6246 4.44876 24.2424C3.60549 26.2923 3.26402 28.5139 3.45278 30.7224C3.60492 32.7058 4.17412 34.6347 5.12316 36.3829C6.32155 38.5979 8.08523 40.4559 10.2348 41.7681C11.9711 42.8416 13.9209 43.5229 15.9479 43.7643C18.4724 44.0881 21.0373 43.7132 23.3634 42.6806C26.1921 41.4398 28.3716 39.4547 29.9304 36.8005C30.9876 35.0111 31.6356 33.0099 31.8278 30.9405C32.0476 28.7475 31.7414 26.5338 30.9345 24.4828C30.7633 24.0451 30.5623 23.6157 30.3576 23.1936C30.2549 22.9837 30.2609 22.8319 30.4321 22.6659C30.7983 22.3136 31.1574 21.9536 31.5092 21.5859C31.7102 21.376 31.8285 21.4303 31.9558 21.6603C33.021 23.6209 33.7021 25.6923 33.9441 27.9238C34.2314 30.575 33.8406 33.1176 32.8863 35.5806C31.8672 38.211 30.246 40.4261 28.0888 42.24C25.8929 44.1078 23.2227 45.331 20.374 45.774C17.2201 46.2824 14.1547 45.9348 11.2025 44.665C8.0652 43.3148 5.59014 41.1962 3.77732 38.3092C2.37045 36.0711 1.53004 33.626 1.35511 30.971C1.33948 30.7365 1.30747 30.5021 1.29631 30.2676C1.28589 30.0451 1.29407 29.821 1.29407 29.5977Z" fill="#DB2121"/>
<path d="M21.8047 26.7711C21.3254 26.7048 20.9115 26.4994 20.6681 25.9925C20.4247 25.4856 20.5371 25.051 20.8691 24.6475C21.0267 24.456 21.2011 24.2789 21.3901 24.1183C22.3318 23.3241 22.7799 22.297 22.9578 21.0919C23.1603 19.7194 23.9441 18.6535 24.946 17.7336C25.1388 17.5564 25.2564 17.6919 25.3815 17.8169C25.8643 18.2983 26.3469 18.7803 26.8293 19.2631C26.8967 19.3359 26.9686 19.4045 27.0444 19.4686C27.2543 19.636 27.4791 19.6762 27.6749 19.4634C27.8707 19.2505 27.7992 19.0555 27.6183 18.8679C27.0802 18.3201 26.5531 17.7611 26.0001 17.2304C25.7894 17.028 25.7693 16.8917 25.98 16.6848C26.3782 16.2948 26.7623 15.8891 27.1434 15.4813C27.3295 15.2818 27.4799 15.2825 27.6645 15.4813C27.9421 15.779 28.2421 16.0618 28.5287 16.3536C28.7252 16.5523 28.9545 16.658 29.1815 16.4489C29.422 16.2256 29.3438 15.9822 29.1294 15.7686C28.8317 15.4708 28.5384 15.1664 28.2362 14.8754C28.0687 14.7161 28.0397 14.5777 28.2176 14.4087C28.6642 13.981 29.1108 13.5498 29.5575 13.1151C29.7175 12.958 29.8344 13.025 29.9654 13.1545C30.3011 13.4857 30.6353 13.8177 30.9852 14.1333C31.1482 14.2822 31.3522 14.3023 31.5204 14.1296C31.6886 13.9569 31.7065 13.7574 31.5457 13.5617C31.4777 13.4734 31.4051 13.3886 31.3283 13.3078C31.1169 13.0987 30.8996 12.8962 30.6867 12.6893C30.3606 12.3737 30.3591 12.3172 30.6696 12.0045C31.0373 11.6324 31.4139 11.2773 31.7697 10.8948C31.9849 10.6611 32.1524 10.6856 32.3541 10.8948C32.637 11.1925 32.9295 11.4753 33.222 11.7597C33.4319 11.9644 33.6687 12.0031 33.8719 11.7708C34.0751 11.5386 33.9508 11.3287 33.7751 11.1471C33.4818 10.8449 33.1885 10.542 32.8819 10.2539C32.7002 10.0857 32.7092 9.95618 32.8819 9.79094C33.3009 9.38529 33.717 8.97666 34.122 8.55761C34.3073 8.36632 34.4465 8.39684 34.6177 8.5725C35.112 9.07789 35.6145 9.57509 36.1154 10.0745C36.1906 10.1568 36.2753 10.2298 36.3678 10.2919C36.5725 10.4139 36.7779 10.4087 36.935 10.2122C37.0839 10.0291 37.0504 9.84007 36.8911 9.67558C36.4683 9.24089 36.0395 8.81142 35.616 8.37599C34.8522 7.59148 34.8783 7.83339 35.5884 7.09949C35.9681 6.70723 36.3626 6.32912 36.737 5.93165C36.9171 5.73962 37.0474 5.70836 37.2506 5.91602C38.6094 7.2945 39.9755 8.66504 41.3492 10.0276C41.6395 10.3142 41.4616 10.4653 41.268 10.6588C38.2836 13.6396 35.2998 16.6211 32.3169 19.6033C31.1653 20.7495 30.0569 21.9397 28.8451 23.0272C28.0263 23.7596 27.0764 24.2471 25.9911 24.3833C24.8857 24.5225 23.9969 25.0137 23.2667 25.834C23.1022 26.0193 22.925 26.1935 22.7456 26.3632C22.4928 26.6102 22.1579 26.7554 21.8047 26.7711Z" fill="#DB2121"/>
<path d="M44.2105 1.00089C45.1038 1.00089 45.8623 1.48395 46.1295 2.16426C46.4161 2.89295 46.3409 3.58665 45.773 4.15829C45.0926 4.8438 45.307 4.88846 44.5671 4.1501C43.9545 3.53976 43.35 2.92123 42.7314 2.31684C42.5654 2.15458 42.5826 2.04889 42.7314 1.88886C43.1833 1.40729 43.6537 0.977815 44.2105 1.00089Z" fill="#DB2121"/>
<path d="M40.8474 8.10728C40.7724 8.10947 40.6978 8.09506 40.6289 8.06509C40.5601 8.03511 40.4987 7.99029 40.4492 7.93385C40.0696 7.56169 39.6907 7.18953 39.323 6.80174C39.0699 6.53751 39.1063 6.26881 39.3594 6.01723C39.7197 5.65921 40.0755 5.29524 40.4403 4.9402C40.7291 4.65885 40.9651 4.64247 41.2509 4.90894C41.6484 5.2811 42.028 5.67559 42.4025 6.07231C42.6116 6.29561 42.622 6.54495 42.4025 6.76899C42.0213 7.1605 41.6328 7.54308 41.2427 7.92492C41.1922 7.98004 41.1313 8.02455 41.0634 8.05586C40.9956 8.08717 40.9221 8.10465 40.8474 8.10728Z" fill="#DB2121"/>
<path d="M43.7639 6.12529C43.6322 6.12157 43.5689 6.03821 43.5004 5.96973C42.7717 5.24327 42.0481 4.51161 41.3142 3.79036C41.1288 3.60875 41.134 3.47998 41.3194 3.3006C42.0273 2.61955 41.8911 2.64188 42.5394 3.29018C43.1349 3.88564 43.7096 4.50044 44.3066 5.09366C44.512 5.29835 44.5247 5.46582 44.3021 5.64595C44.113 5.80151 43.9828 6.02555 43.7639 6.12529Z" fill="#DB2121"/>
<path d="M37.4043 4.6703C37.4246 4.53926 37.4843 4.41751 37.5755 4.32121C37.979 3.92424 38.3839 3.52727 38.7903 3.1303C39.0203 2.90701 39.2489 2.91891 39.4692 3.14295C39.6769 3.3536 39.8786 3.57019 40.0863 3.78083C40.2121 3.90886 40.23 4.01008 40.0818 4.15299C39.5533 4.65392 39.0233 5.1541 38.5484 5.70862C38.4799 5.789 38.3846 5.8679 38.2961 5.78305C37.9857 5.48532 37.6313 5.22779 37.4333 4.83032C37.4153 4.77885 37.4055 4.72484 37.4043 4.6703Z" fill="#DB2121"/>
<path d="M42.5943 9.8771C42.3948 9.86147 42.2593 9.75206 42.1313 9.63445C41.3944 8.96457 41.3958 8.96457 42.0926 8.26788C42.4432 7.9188 42.7968 7.57269 43.1347 7.21095C43.2769 7.05837 43.3796 7.03678 43.5277 7.19458C43.7384 7.41787 43.9684 7.62777 44.1806 7.85256C44.3592 8.04161 44.3771 8.26491 44.1984 8.45322C43.7816 8.89162 43.3491 9.31589 42.9181 9.74089C42.8289 9.82199 42.7146 9.87006 42.5943 9.8771Z" fill="#DB2121"/>
<path d="M7.99023 29.1409C8.04457 28.052 8.07658 26.9869 8.35051 25.9485C8.50478 25.3741 8.87102 24.8795 9.37546 24.5643C9.87989 24.2491 10.485 24.1368 11.069 24.25C12.3679 24.5165 13.2433 25.6962 13.0275 26.9385C12.7797 28.3939 12.7772 29.8804 13.02 31.3367C13.2068 32.5075 12.3374 33.676 11.1323 33.9418C9.94721 34.2008 8.71005 33.4952 8.36689 32.3586C8.04904 31.2987 8.05648 30.2045 7.99023 29.1409Z" fill="#DB2121"/>
<path d="M27.5088 30.8144C27.5043 31.7456 26.6855 32.568 25.7759 32.5554C25.3254 32.5423 24.8973 32.3562 24.5804 32.0357C24.2635 31.7153 24.0823 31.2851 24.0742 30.8345C24.0742 29.8818 24.8566 29.0884 25.7937 29.0898C26.6848 29.0906 27.5133 29.9227 27.5088 30.8144Z" fill="#DB2121"/>
<path d="M20.5196 20.5758C20.532 20.7509 20.4789 20.9243 20.3707 21.0626C19.6129 22.0116 19.2943 22.604 18.0408 21.4005C17.7557 21.1273 17.4289 20.8996 17.1282 20.6428C16.7746 20.3406 16.6816 19.8903 16.9332 19.5099C17.1331 19.2131 17.3666 18.9403 17.6292 18.6971C17.9574 18.3919 18.2775 18.3681 18.643 18.6279C19.2318 19.0576 19.7893 19.5287 20.3112 20.0376C20.383 20.1068 20.4388 20.1907 20.4748 20.2837C20.5108 20.3766 20.5261 20.4763 20.5196 20.5758Z" fill="#DB2121"/>
<path d="M17.0567 39.1482C16.1634 39.1616 15.9728 38.9994 15.8537 38.1144C15.8374 37.9916 15.8143 37.8695 15.8061 37.7422C15.7562 37.0039 16.0547 36.6592 16.7894 36.5923C17.2696 36.5491 17.7497 36.5 18.2298 36.4508C19.0002 36.3719 19.2868 36.6377 19.4461 37.3954C19.7357 38.7761 19.097 39.0031 18.0906 39.0485C17.7452 39.0679 17.4013 39.1155 17.0567 39.1482Z" fill="#DB2121"/>
</g>
</g>
<defs>
<clipPath id="clip0_35461_213389">
<rect width="46.375" height="46.375" fill="white" transform="translate(0.333984 0.101562)"/>
</clipPath>
<clipPath id="clip1_35461_213389">
<rect width="45" height="45" fill="white" transform="translate(1.29102 1)"/>
</clipPath>
</defs>
</svg>
