<svg width="47" height="47" viewBox="0 0 47 47" fill="none" xmlns="http://www.w3.org/2000/svg">
<g clip-path="url(#clip0_36880_401559)">
<path d="M23.4863 38.9962C17.2683 38.9962 11.05 38.9981 4.83132 39.0019C3.80382 39.0019 2.89812 38.7276 2.14775 38.0252C1.43815 37.3602 1.04129 36.5416 1.01239 35.5624C1.00791 35.4178 1.00534 35.2729 1.00465 35.1276C1.00465 27.0363 1.0031 18.9451 1 10.8541C1 10.0775 1.12076 9.34341 1.55581 8.68704C2.25406 7.63367 3.23924 7.0653 4.51549 7.00698C4.5929 7.00339 4.67031 7.00698 4.74772 7.00698C17.2443 7.00698 29.7411 7.00595 42.2384 7.00391C43.494 7.00391 44.5091 7.46997 45.2729 8.45324C45.808 9.14184 46.0005 9.94044 45.999 10.7999C45.9948 13.4517 45.9948 16.1032 45.999 18.7546C45.999 24.2368 45.9998 29.719 46.0016 35.2013C46.0016 36.3938 45.6088 37.4011 44.6758 38.1762C44.09 38.6736 43.3518 38.9601 42.581 38.9891C42.3746 38.9978 42.1682 38.9988 41.9617 38.9988L23.4863 38.9962ZM23.491 8.97148H16.0337C12.318 8.97148 8.60227 8.96688 4.88655 8.98018C4.54439 8.98018 4.17076 9.03441 3.86782 9.17868C3.22479 9.48563 2.98017 10.0601 2.9812 10.7564C2.98568 13.5272 2.98568 16.2983 2.9812 19.0698C2.9812 24.4244 2.98292 29.7791 2.98636 35.1337C2.98636 35.4187 3.00288 35.7256 3.10661 35.985C3.40439 36.7284 4.00664 37.0358 4.79727 37.0358C11.136 37.0331 17.4751 37.0331 23.8145 37.0358C29.9211 37.0358 36.0279 37.0343 42.1351 37.0312C42.4061 37.0312 42.6966 37.0123 42.9438 36.9156C43.6565 36.6358 44.0111 36.0812 44.0111 35.324C44.0142 27.113 44.0142 18.902 44.0111 10.6909C44.0126 10.6398 44.0116 10.5885 44.008 10.5375C43.9522 9.98136 43.7117 9.53475 43.2302 9.22268C42.8798 8.99604 42.4902 8.97251 42.0913 8.97251C35.8925 8.97183 29.6924 8.97148 23.491 8.97148Z" fill="#464E5F"/>
<path d="M23.483 36.1071H4.82957C4.3135 36.1071 4.04462 35.9388 3.94089 35.5443C3.91957 35.4443 3.9109 35.3421 3.91508 35.2399C3.91508 27.0811 3.91508 18.9224 3.91508 10.7639C3.91508 10.1746 4.18654 9.90188 4.7759 9.89062C4.86208 9.89062 4.94826 9.89062 5.03393 9.89062H41.9285C42.04 9.89062 42.152 9.89062 42.2634 9.89062C42.8001 9.91109 43.0664 10.1787 43.0664 10.7092C43.0664 18.9018 43.0664 27.0946 43.0664 35.2875C43.0664 35.8436 42.7816 36.1061 42.1891 36.1061L23.483 36.1071ZM30.2472 26.0635C28.0972 26.0635 25.9469 26.0644 23.7963 26.0661C23.6162 26.0661 23.4939 26.0395 23.4221 25.8441C23.2157 25.2762 22.8106 24.8874 22.2393 24.6771C22.0876 24.6214 22.0329 24.5359 22.0329 24.3743C22.039 23.2058 22.039 22.0377 22.0329 20.8699C22.0329 20.6862 22.101 20.5911 22.2677 20.5261C23.3561 20.0999 23.8345 18.9775 23.3726 17.9083C23.2952 17.7287 23.3107 17.6269 23.449 17.4924C24.1064 16.8542 24.7565 16.2089 25.3992 15.5565C25.554 15.3974 25.6799 15.3923 25.8693 15.4885C26.2722 15.6954 26.7402 15.7402 27.1755 15.6133C28.3228 15.2889 28.8863 14.2785 28.5896 13.1321C28.3388 12.1646 27.1446 11.5078 26.1852 11.8081C24.974 12.1856 24.4223 13.2983 24.8754 14.4775C24.9389 14.6433 24.91 14.7333 24.7902 14.849C24.1162 15.5058 23.4486 16.1685 22.7874 16.837C22.649 16.9772 22.5376 16.9905 22.3668 16.9102C22.0092 16.735 21.6024 16.6847 21.2123 16.7674C20.4852 16.9245 19.9866 17.3409 19.7054 18.0259C19.6692 18.1134 19.5428 18.2214 19.4571 18.2224C18.4425 18.236 17.4276 18.236 16.4123 18.2224C16.323 18.2224 16.1904 18.1201 16.1543 18.0341C15.8271 17.2345 15.1221 16.7291 14.2964 16.7275C13.89 16.7304 13.4941 16.8561 13.1615 17.0877C12.829 17.3193 12.5755 17.6459 12.4349 18.0239C12.3802 18.1661 12.3183 18.2342 12.1645 18.2331C11.6397 18.229 11.1148 18.228 10.5905 18.2331C10.4279 18.2331 10.3841 18.1584 10.3841 18.0132C10.3877 17.28 10.3794 16.5469 10.3939 15.8133C10.4022 15.7602 10.4231 15.7097 10.4547 15.666C10.4864 15.6222 10.5279 15.5865 10.576 15.5616C11.6164 15.1784 12.1392 14.1015 11.7816 13.0502C11.4869 12.1805 10.6318 11.6633 9.65175 11.7564C8.83171 11.8347 8.05709 12.5857 7.94871 13.4073C7.82692 14.3379 8.36157 15.2434 9.22289 15.5401C9.40145 15.6015 9.44223 15.6936 9.44171 15.8573C9.43758 16.5567 9.43346 17.256 9.44171 17.9548C9.44481 18.1671 9.37359 18.2377 9.16045 18.2347C8.47252 18.2249 7.78408 18.2285 7.09616 18.2321C6.46345 18.2352 6.53983 18.1544 6.5357 18.7949C6.5357 19.1571 6.5357 19.1576 6.90263 19.1581C8.62287 19.1581 10.3431 19.1572 12.0634 19.1555C12.2559 19.1555 12.3632 19.1949 12.4422 19.4021C12.6486 19.9434 13.0336 20.3342 13.594 20.5302C13.7618 20.5885 13.8046 20.6929 13.8041 20.8596C13.7979 22.0274 13.7979 23.1956 13.8041 24.364C13.8041 24.5497 13.739 24.6388 13.5718 24.7002C13.0145 24.9048 12.6367 25.2992 12.4313 25.842C12.3611 26.0277 12.2595 26.0666 12.0886 26.0656C11.538 26.061 10.9879 26.0656 10.4372 26.0656C9.39629 26.0656 8.35589 26.06 7.31497 26.0697C7.07551 26.0697 6.96301 26.0062 6.9852 25.752C7.00223 25.5576 6.98882 25.3601 6.98882 25.1642C6.98882 24.5078 6.98882 24.515 6.31792 24.516C6.10272 24.516 6.03873 24.5896 6.04027 24.7989C6.04905 25.8134 6.0444 26.8284 6.0444 27.8429C6.0444 28.5499 6.04441 28.5448 6.75194 28.5366C6.92792 28.534 6.99656 28.4854 6.99037 28.3048C6.9785 27.9467 6.99036 27.5886 6.9852 27.2305C6.9821 27.0591 7.04403 26.9818 7.22414 26.9824C8.8668 26.9854 10.5095 26.9824 12.1521 26.9911C12.2028 26.9968 12.2514 27.0143 12.294 27.0421C12.3365 27.0699 12.3719 27.1073 12.3973 27.1512C12.6269 27.7303 13.0165 28.1467 13.6064 28.3647C13.7452 28.4158 13.8051 28.4905 13.802 28.6461C13.7917 29.1489 13.7953 29.6524 13.802 30.1552C13.802 30.3062 13.7679 30.3911 13.6002 30.453C12.5877 30.8265 12.0855 31.8854 12.4096 32.9301C12.6945 33.8479 13.7674 34.4388 14.7371 34.2132C15.569 34.0193 16.2054 33.2811 16.2544 32.4528C16.3096 31.5258 15.8023 30.7354 14.9451 30.4438C14.7903 30.3926 14.7444 30.3179 14.7459 30.1701C14.7506 29.7015 14.7604 29.2318 14.7418 28.7637C14.733 28.535 14.7934 28.4174 15.0236 28.3345C15.5737 28.1339 15.9432 27.7441 16.1414 27.2013C16.2012 27.0391 16.2962 26.9788 16.4686 26.9793C17.4491 26.9837 18.4296 26.9837 19.4102 26.9793C19.565 26.9793 19.6465 27.033 19.6981 27.1722C19.7958 27.451 19.9559 27.7042 20.1665 27.9128C20.3771 28.1214 20.6327 28.2799 20.914 28.3764C21.0533 28.4276 21.1122 28.5038 21.1096 28.6578C21.1003 29.152 21.1029 29.6467 21.1096 30.1414C21.1096 30.3108 21.0451 30.387 20.8794 30.453C20.176 30.7359 19.7348 31.2434 19.6151 32.0016C19.4731 32.8974 19.999 33.8111 20.832 34.117C21.7428 34.4511 22.8075 34.1431 23.2317 33.322C23.451 32.8969 23.7049 32.8314 24.126 32.8355C26.1728 32.8549 28.2201 32.8442 30.2673 32.8442C30.4134 32.8442 30.5403 32.835 30.6182 33.0207C31.0528 34.0541 32.1933 34.5232 33.2218 34.1057C34.2292 33.6965 34.6963 32.5347 34.2591 31.5058C34.191 31.3457 34.222 31.2398 34.3412 31.1222C35.3523 30.1256 36.3599 29.1258 37.3638 28.1227C37.5109 27.9748 37.6152 27.9764 37.7767 28.1027C38.1371 28.389 38.5949 28.5266 39.055 28.4869C40.3638 28.3882 41.1854 27.2182 40.8432 25.9648C40.6306 25.1851 39.8931 24.6065 39.0447 24.5538C38.2479 24.5027 37.3979 25.0235 37.1264 25.7648C37.0377 26.0073 36.9138 26.0681 36.6749 26.0676C34.5306 26.0605 32.3889 26.0635 30.2472 26.0635ZM35.5973 11.7421C34.0319 11.7421 32.4665 11.7421 30.9011 11.7421C30.3819 11.7421 30.2358 11.8822 30.2353 12.3882C30.2353 14.6218 30.2353 16.8558 30.2353 19.09C30.2353 19.5883 30.3974 19.7464 30.9016 19.7464C34.0228 19.7464 37.144 19.7464 40.2652 19.7464C40.7591 19.7464 40.9299 19.5761 40.9299 19.0875C40.9299 16.8546 40.9299 14.6215 40.9299 12.3882C40.9299 11.8935 40.7838 11.7451 40.2905 11.7446C38.7264 11.7422 37.162 11.7414 35.5973 11.7421Z" fill="#464E5F"/>
<path d="M30.2605 26.9845H36.6056C36.6743 26.9781 36.7435 26.9793 36.812 26.988C36.8829 26.9983 36.9488 27.0303 37.0004 27.0796C37.0195 27.1032 36.9694 27.2039 36.9276 27.2484C36.7759 27.4106 36.6149 27.5646 36.4569 27.7212C35.5394 28.6302 34.6197 29.5368 33.7073 30.4505C33.5798 30.5779 33.4771 30.604 33.3053 30.5288C32.1849 30.0218 30.9959 30.5149 30.5861 31.6578C30.5175 31.8487 30.4277 31.9136 30.2187 31.9136C28.0856 31.9048 25.9535 31.9048 23.8225 31.9136C23.6207 31.9136 23.5128 31.8809 23.439 31.6578C23.2414 31.071 22.8295 30.6582 22.2366 30.4479C22.0817 30.3937 22.0363 30.3098 22.0368 30.1671C22.0368 29.6555 22.0296 29.1439 22.0451 28.6323C22.0526 28.5828 22.0717 28.5356 22.1008 28.4947C22.1299 28.4537 22.1683 28.4201 22.2128 28.3965C22.8089 28.1657 23.2243 27.7611 23.4416 27.1686C23.5102 26.9819 23.6387 26.9865 23.7879 26.9865C25.9451 26.9858 28.1026 26.9851 30.2605 26.9845Z" fill="#464E5F"/>
<path d="M14.7521 22.6177C14.7521 22.0299 14.7598 21.441 14.7474 20.8537C14.7438 20.6757 14.812 20.5923 14.9694 20.5365C15.5458 20.3319 15.9354 19.9354 16.1465 19.3691C16.2012 19.2207 16.2884 19.1552 16.4525 19.1563C17.4407 19.1607 18.4291 19.1607 19.4179 19.1563C19.5763 19.1563 19.6496 19.2187 19.7012 19.3537C19.9226 19.9364 20.3288 20.3324 20.9161 20.5616C21.0038 20.5959 21.0982 20.7468 21.0993 20.8445C21.1117 22.029 21.1117 23.2135 21.0993 24.398C21.0924 24.451 21.0732 24.5017 21.0432 24.5461C21.0132 24.5905 20.9732 24.6274 20.9264 24.6538C20.335 24.8902 19.9154 25.2867 19.6961 25.8816C19.6445 26.0259 19.55 26.0668 19.4019 26.0663C18.4221 26.0619 17.4415 26.0619 16.4603 26.0663C16.2879 26.0663 16.1981 25.9983 16.1383 25.8381C15.9365 25.3 15.5659 24.9127 15.022 24.7091C14.8192 24.6328 14.734 24.5361 14.7428 24.3054C14.7665 23.7432 14.7521 23.1799 14.7521 22.6177Z" fill="#464E5F"/>
<path d="M39.9842 26.526C39.9839 26.8013 39.8738 27.0653 39.678 27.2604C39.4821 27.4555 39.2163 27.566 38.9386 27.5676C38.6655 27.5604 38.4057 27.4495 38.2128 27.2577C38.0199 27.0659 37.9087 26.808 37.9023 26.5372C37.9016 26.262 38.0099 25.9975 38.2039 25.8006C38.3979 25.6037 38.6621 25.4901 38.9397 25.4844C39.2174 25.4856 39.4833 25.5959 39.6791 25.7912C39.8749 25.9864 39.9846 26.2507 39.9842 26.526Z" fill="#464E5F"/>
<path d="M21.5817 17.6641C21.859 17.6712 22.1223 17.7857 22.3153 17.9831C22.5083 18.1805 22.6155 18.4451 22.6139 18.72C22.6051 19.2689 22.119 19.7432 21.5657 19.7432C21.0022 19.7432 20.5135 19.2541 20.5176 18.6949C20.5235 18.4192 20.6383 18.1568 20.8373 17.964C21.0363 17.7713 21.3036 17.6636 21.5817 17.6641Z" fill="#464E5F"/>
<path d="M13.2559 18.694C13.255 18.5577 13.2815 18.4227 13.334 18.2967C13.3865 18.1708 13.4638 18.0565 13.5614 17.9605C13.6591 17.8646 13.7751 17.789 13.9026 17.7381C14.0301 17.6872 14.1666 17.6621 14.304 17.6642C14.577 17.6691 14.8371 17.7795 15.0291 17.9719C15.221 18.1643 15.3296 18.4234 15.3315 18.694C15.3333 18.9694 15.2251 19.2343 15.0304 19.4307C14.8357 19.6271 14.5705 19.7392 14.2927 19.7423C14.0151 19.7393 13.75 19.6273 13.5556 19.4307C13.3612 19.2342 13.2534 18.9692 13.2559 18.694Z" fill="#464E5F"/>
<path d="M13.2559 26.529C13.2542 26.2541 13.3626 25.9898 13.5572 25.794C13.7519 25.5981 14.0169 25.4868 14.2942 25.4844C14.5718 25.4884 14.8366 25.601 15.0308 25.7976C15.2251 25.9942 15.3332 26.2589 15.3315 26.5342C15.3283 26.805 15.2192 27.064 15.0273 27.2569C14.8354 27.4497 14.5756 27.5612 14.3025 27.5681C14.0253 27.5659 13.7601 27.4557 13.5643 27.2613C13.3684 27.0669 13.2576 26.8038 13.2559 26.529Z" fill="#464E5F"/>
<path d="M14.2924 31.2619C14.4298 31.26 14.5662 31.2856 14.6935 31.337C14.8208 31.3884 14.9363 31.4646 15.0333 31.5612C15.1302 31.6577 15.2066 31.7726 15.2579 31.899C15.3092 32.0253 15.3343 32.1607 15.3318 32.2969C15.3324 32.4309 15.3063 32.5638 15.2548 32.6878C15.2034 32.8118 15.1277 32.9245 15.0322 33.0194C14.9366 33.1142 14.8231 33.1894 14.698 33.2406C14.573 33.2918 14.439 33.3179 14.3038 33.3175C14.1667 33.3206 14.0303 33.2964 13.9027 33.2463C13.7752 33.1962 13.6592 33.1212 13.5614 33.0258C13.4637 32.9304 13.3863 32.8164 13.3339 32.6908C13.2815 32.5651 13.255 32.4303 13.2562 32.2943C13.2528 32.1582 13.2773 32.0229 13.3281 31.8965C13.3789 31.7701 13.455 31.6552 13.5519 31.5587C13.6487 31.4622 13.7642 31.3862 13.8915 31.3352C14.0188 31.2842 14.1552 31.2592 14.2924 31.2619Z" fill="#464E5F"/>
<path d="M8.88339 13.695C8.88958 13.1087 9.34372 12.6779 9.94598 12.6877C10.525 12.6969 10.9595 13.1481 10.9518 13.7262C10.9527 13.8606 10.9263 13.9938 10.8743 14.1179C10.8224 14.242 10.7458 14.3545 10.6492 14.4487C10.5526 14.543 10.4378 14.6171 10.3118 14.6666C10.1858 14.7161 10.0511 14.7401 9.91553 14.7371C9.77779 14.7392 9.64105 14.7135 9.51361 14.6616C9.38617 14.6098 9.27069 14.5328 9.17418 14.4353C9.07766 14.3379 9.00212 14.222 8.95213 14.0947C8.90214 13.9675 8.87876 13.8315 8.88339 13.695Z" fill="#464E5F"/>
<path d="M22.6163 26.5147C22.6215 27.0749 22.1359 27.5645 21.5728 27.5671C21.0098 27.5696 20.5175 27.078 20.5195 26.5224C20.5216 25.9668 21.0005 25.4926 21.5517 25.4844C21.8294 25.4855 22.0957 25.5936 22.2944 25.7859C22.4931 25.9782 22.6086 26.2396 22.6163 26.5147Z" fill="#464E5F"/>
<path d="M21.5759 31.2658C21.7135 31.2647 21.8499 31.2908 21.9771 31.3427C22.1043 31.3946 22.2197 31.4712 22.3167 31.5679C22.4136 31.6647 22.49 31.7797 22.5415 31.9061C22.593 32.0326 22.6184 32.1679 22.6163 32.3043C22.6117 32.5751 22.4998 32.8332 22.3047 33.0229C22.1096 33.2125 21.8471 33.3185 21.5739 33.3178C21.4364 33.3197 21.2999 33.2946 21.1722 33.2439C21.0446 33.1932 20.9284 33.1179 20.8303 33.0223C20.7323 32.9268 20.6543 32.8129 20.6009 32.6873C20.5476 32.5617 20.5199 32.4268 20.5195 32.2905C20.5203 32.1542 20.5483 32.0194 20.6019 31.894C20.6555 31.7685 20.7337 31.6548 20.832 31.5595C20.9302 31.4642 21.0466 31.3892 21.1743 31.3388C21.302 31.2883 21.4385 31.2635 21.5759 31.2658Z" fill="#464E5F"/>
<path d="M32.4458 31.2619C32.5829 31.2593 32.7192 31.284 32.8466 31.3346C32.9739 31.3852 33.0897 31.4607 33.1871 31.5565C33.2845 31.6523 33.3614 31.7665 33.4134 31.8924C33.4654 32.0182 33.4914 32.1532 33.4898 32.2892C33.4898 32.4249 33.4626 32.5593 33.4097 32.6846C33.3568 32.8098 33.2792 32.9233 33.1816 33.0185C33.084 33.1138 32.9683 33.1888 32.8412 33.2392C32.714 33.2897 32.578 33.3145 32.4411 33.3124C32.1679 33.3136 31.9053 33.2074 31.711 33.017C31.5167 32.8267 31.4064 32.5677 31.4043 32.2969C31.4034 32.1609 31.4296 32.0261 31.4816 31.9003C31.5336 31.7744 31.6102 31.6601 31.7071 31.5638C31.8039 31.4676 31.9191 31.3913 32.0459 31.3395C32.1727 31.2877 32.3086 31.2613 32.4458 31.2619Z" fill="#464E5F"/>
<path d="M26.6907 12.6877C26.8279 12.6849 26.9643 12.7095 27.0918 12.7601C27.2192 12.8106 27.3351 12.8861 27.4325 12.982C27.5299 13.0779 27.6068 13.1923 27.6586 13.3183C27.7104 13.4444 27.7361 13.5794 27.7342 13.7155C27.7348 13.8518 27.7078 13.9869 27.6548 14.1126C27.6018 14.2384 27.5239 14.3524 27.4257 14.4478C27.3274 14.5432 27.2109 14.6181 27.083 14.6681C26.9551 14.718 26.8183 14.742 26.6809 14.7387C26.4076 14.7391 26.1452 14.6323 25.9511 14.4417C25.757 14.2511 25.6468 13.992 25.6446 13.7211C25.6432 13.5847 25.6693 13.4494 25.7215 13.3232C25.7736 13.197 25.8506 13.0823 25.9481 12.9861C26.0456 12.8898 26.1615 12.8138 26.289 12.7625C26.4165 12.7113 26.5531 12.6859 26.6907 12.6877Z" fill="#464E5F"/>
<path d="M35.5818 12.6804C36.9488 12.6804 38.3169 12.685 39.6825 12.6763C39.9111 12.6763 39.9952 12.7275 39.9921 12.9735C39.9818 14.8231 39.9818 16.6724 39.9921 18.5212C39.9921 18.7607 39.9142 18.8195 39.6825 18.819C36.9573 18.8118 34.2322 18.8101 31.5074 18.8139C31.1683 18.8139 31.1673 18.8139 31.1673 18.4696C31.1673 16.6457 31.1709 14.8224 31.1621 12.9986C31.1621 12.7546 31.2313 12.6743 31.481 12.6758C32.8481 12.686 34.2152 12.6809 35.5818 12.6804ZM36.6294 17.3359H38.0744C38.7489 17.3359 38.7391 17.3359 38.7453 16.6764C38.7453 16.4457 38.6663 16.3894 38.4465 16.3915C37.3725 16.4012 36.2991 16.3956 35.2252 16.3956C34.53 16.3956 34.5357 16.3956 34.5403 17.0765C34.5403 17.2699 34.5919 17.3451 34.8035 17.3405C35.4094 17.3292 36.0199 17.3379 36.6304 17.3379L36.6294 17.3359ZM36.6454 14.1533H35.1751C34.5341 14.1533 34.5429 14.1533 34.5357 14.7861C34.5357 15.0092 34.6007 15.0803 34.8288 15.0782C35.9126 15.068 36.9963 15.0782 38.0801 15.0721C38.8335 15.0675 38.7246 15.1959 38.7391 14.3994C38.7427 14.2065 38.6627 14.1482 38.478 14.1507C37.869 14.1599 37.2559 14.1553 36.6454 14.1553V14.1533ZM32.9457 17.3359C33.0316 17.33 33.1178 17.33 33.2037 17.3359C33.4617 17.3712 33.5242 17.2535 33.5211 17.0151C33.5128 16.3935 33.5211 16.391 32.8703 16.3946C32.3651 16.3946 32.4244 16.3362 32.4255 16.8228C32.4265 17.4275 32.3537 17.3272 32.9457 17.3379V17.3359ZM32.9699 14.1533C32.884 14.1585 32.7978 14.1585 32.7119 14.1533C32.4895 14.1267 32.4141 14.2106 32.4167 14.4377C32.4244 15.0752 32.4167 15.0757 33.0509 15.0752H33.1283C33.5139 15.0752 33.5164 15.0752 33.5139 14.6991C33.5113 14.0817 33.5856 14.162 32.9699 14.1553V14.1533Z" fill="#464E5F"/>
</g>
<defs>
<clipPath id="clip0_36880_401559">
<rect width="45" height="32" fill="white" transform="translate(1 7)"/>
</clipPath>
</defs>
</svg>
