<svg width="48" height="47" viewBox="0 0 48 47" fill="none" xmlns="http://www.w3.org/2000/svg">
<g clip-path="url(#clip0_35461_213380)">
<path d="M2.00021 20.3829C2.01589 13.9161 4.72129 8.8151 9.82625 4.91515C11.8625 3.35988 13.9588 1.9353 16.4695 1.25568C16.7198 1.18079 16.9742 1.12057 17.2314 1.07532C19.567 0.713294 20.7864 1.7288 20.9105 4.097C20.9693 5.23274 20.8099 6.35672 20.7145 7.48201C20.6047 8.78243 20.6727 10.0476 21.1066 11.2722C21.2686 11.7283 21.2033 12.0563 20.8778 12.4484C19.2363 14.4089 18.3946 16.7274 18.047 19.225C17.5098 23.0034 18.2117 26.5439 20.2688 29.7839C20.5903 30.2896 20.5224 30.534 20.0898 30.8974C18.2266 32.4704 16.4484 34.1413 14.7626 35.903C14.3875 36.2951 14.0373 36.4088 13.5001 36.2677C6.717 34.4941 2.85757 29.0977 2.1296 22.7211C2.03979 21.945 1.99659 21.1642 2.00021 20.3829ZM11.456 7.02719C9.65634 7.02719 7.49726 8.74322 7.10386 10.5024C6.98101 11.0487 6.94834 11.6277 7.49595 11.9714C8.04356 12.3151 8.58072 12.089 9.02639 11.6695C9.25259 11.4664 9.46685 11.2504 9.66811 11.0225C10.1839 10.4321 10.8144 9.95271 11.5214 9.61365C12.0136 9.38195 12.4714 9.08331 12.8819 8.72623C13.4648 8.18645 13.3707 7.61531 12.6532 7.29903C12.2814 7.11466 11.871 7.02148 11.456 7.02719Z" fill="#1A9A54"/>
<path d="M32.2149 7.96336C37.3931 8.1202 41.659 10.0689 44.4768 14.5543C47.0044 18.5771 46.9756 22.8456 45.1734 27.1338C43.6926 30.6625 41.2198 33.2764 37.6205 34.6814C30.2114 37.5881 20.6013 33.9809 18.7141 24.7486C17.9299 20.9349 18.4083 17.3316 20.3818 13.9793C21.9213 11.3654 24.3235 9.78525 27.1374 8.80896C28.7711 8.24436 30.4571 7.90585 32.2149 7.96336ZM31.9653 11.845C30.8348 11.8306 30.8387 11.8319 30.9197 10.9301C30.938 10.7354 31.0949 10.4322 30.7694 10.3995C30.508 10.3734 30.4871 10.6766 30.4479 10.8883C30.4322 10.9733 30.4283 11.0608 30.4165 11.1497C30.3211 11.8215 29.8376 12.2227 29.1397 12.0646C28.5855 11.9339 28.9005 11.4333 28.8861 11.0817C28.8861 10.9968 28.9096 10.9092 28.9083 10.8204C28.9083 10.6609 28.877 10.5002 28.6822 10.4819C28.5202 10.4675 28.4613 10.6047 28.4208 10.7302C28.3777 10.8539 28.3595 10.9849 28.3672 11.1157C28.4979 12.0201 28.1973 12.6723 27.3217 13.02C27.2637 13.05 27.21 13.0878 27.1622 13.1324C26.2761 13.7963 26.2761 13.7976 25.7455 12.7769C25.6945 12.6802 25.6501 12.5638 25.5194 12.5756C25.3508 12.5913 25.3299 12.7324 25.3299 12.8657C25.3208 13.1957 25.4256 13.5188 25.6266 13.7806C25.9245 14.14 25.8801 14.4341 25.5978 14.7556C25.4919 14.8939 25.4 15.0423 25.3233 15.1987C24.8581 16.022 24.8594 16.022 24.0987 15.5084C23.9615 15.4169 23.8269 15.2183 23.657 15.4195C23.4871 15.6208 23.6727 15.741 23.7968 15.8574C23.8974 15.9721 24.0206 16.0647 24.1589 16.1292C24.6816 16.303 24.7966 16.6376 24.6294 17.1382C24.5716 17.3483 24.5465 17.5661 24.5549 17.7838C24.5549 18.27 24.3693 18.402 23.9014 18.2073C23.657 18.1066 23.2923 17.7067 23.1329 18.0988C22.9865 18.4595 23.5158 18.5196 23.7798 18.6712C23.8399 18.6974 23.902 18.7188 23.9654 18.7353C24.5196 18.9365 24.9313 19.5417 24.8372 20.1442C24.7548 20.6669 24.2582 20.3376 23.9798 20.4787C23.9432 20.497 23.8935 20.4931 23.8491 20.5088C23.6844 20.5742 23.4949 20.6395 23.5668 20.8682C23.6282 21.063 23.7955 20.9989 23.9589 20.978C25.1155 20.7911 25.4344 21.0407 25.5403 22.2235C25.5743 22.5973 25.5874 23.026 25.2475 23.239C24.9077 23.4521 24.6294 23.0704 24.3327 22.9175C24.087 22.7868 23.9014 22.2366 23.6374 22.5463C23.3734 22.8561 23.8988 23.0835 24.0909 23.3436C24.232 23.5357 24.679 23.5736 24.5248 23.8847C24.3706 24.1957 24.002 24.363 23.6583 24.4074C23.342 24.444 23.1081 24.1892 22.8911 23.9696C22.746 23.8245 22.6114 23.5122 22.3853 23.6912C22.1239 23.9017 22.4062 24.1108 22.5435 24.2885C22.623 24.3925 22.7162 24.4852 22.8205 24.5643C23.0819 24.7669 23.061 24.9564 22.8872 25.2308C22.5212 25.7967 22.2337 25.3615 21.9279 25.1838C21.7972 25.1067 21.6495 24.9917 21.5175 25.1328C21.3489 25.3132 21.5044 25.4608 21.6377 25.5667C21.827 25.7112 22.0261 25.8422 22.2337 25.9588C22.7486 26.2581 22.6741 26.79 22.5513 27.1769C22.4206 27.5886 21.9736 27.4004 21.6456 27.2971C21.6042 27.2833 21.5644 27.2653 21.5266 27.2435C21.3829 27.1717 21.2182 27.1128 21.128 27.2854C21.0182 27.5036 21.2182 27.5899 21.3633 27.6774C21.6851 27.87 22.0666 27.9375 22.435 27.867C23.1081 27.748 23.2192 28.3505 23.3198 28.7047C23.4439 29.1373 22.9277 29.0079 22.6755 29.0837C22.6322 29.0903 22.5885 29.0942 22.5448 29.0955C22.4141 29.1138 22.2651 29.136 22.2638 29.3033C22.2638 29.5059 22.4298 29.5294 22.5853 29.5464C22.9186 29.5856 23.2309 29.485 23.5498 29.4157C24.0125 29.3151 24.2621 29.6771 24.398 29.9816C24.5457 30.3188 24.1484 30.4129 23.9223 30.5632C23.7498 30.6769 23.3198 30.6024 23.4649 30.9553C23.5956 31.2807 23.9288 31.0611 24.1536 30.9736C24.3502 30.8822 24.5364 30.7701 24.7091 30.639C24.8398 30.5527 24.9705 30.4469 25.126 30.541C25.5089 30.7801 26.0748 30.9122 26.1951 31.3251C26.3023 31.6911 25.7703 31.8479 25.4671 32.0374L25.4122 32.0714C25.2711 32.1603 25.16 32.2766 25.2632 32.4439C25.2824 32.4709 25.3068 32.4939 25.335 32.5113C25.3632 32.5288 25.3947 32.5404 25.4274 32.5455C25.4602 32.5507 25.4937 32.5492 25.5258 32.5411C25.558 32.5331 25.5883 32.5187 25.6148 32.4988C25.8762 32.3498 26.2095 32.2374 26.3754 32.0126C26.8146 31.4166 27.3165 31.6401 27.8353 31.7943C28.2862 31.925 28.3254 32.2479 28.179 32.6177C28.0971 32.7707 27.9937 32.9111 27.8719 33.0346C27.7765 33.1523 27.634 33.2738 27.8 33.4267C27.9386 33.5483 28.0902 33.4646 28.2156 33.3705C28.3431 33.2849 28.4493 33.1713 28.5261 33.0383C28.6029 32.9053 28.6483 32.7566 28.6587 32.6034C28.6757 32.1734 28.8247 32.0165 29.2886 32.0191C30.2584 32.0191 30.2597 31.9878 30.0271 32.9654C29.9957 33.0961 29.9552 33.2268 30.1068 33.3065C30.137 33.3206 30.1698 33.3285 30.2032 33.3295C30.2366 33.3305 30.2698 33.3248 30.3009 33.3125C30.332 33.3003 30.3602 33.2819 30.3839 33.2584C30.4076 33.2349 30.4263 33.2068 30.4388 33.1758C30.6328 32.8842 30.7464 32.5465 30.7681 32.1969C30.7664 32.068 30.797 31.9406 30.857 31.8265C30.917 31.7124 31.0046 31.6151 31.1118 31.5434C32.0097 30.8899 32.0071 30.8899 32.6436 31.8388C32.722 31.9551 32.7887 32.0688 32.9442 32.0165C33.0997 31.9643 33.0932 31.8218 33.0749 31.6885C33.0222 31.3634 32.8659 31.0641 32.6292 30.835C32.411 30.6285 32.3574 30.4207 32.5142 30.1411C32.6487 29.8902 32.7603 29.6278 32.8475 29.3569C32.9638 29.0145 33.1428 28.9648 33.4278 29.1752C33.5532 29.2623 33.6883 29.3347 33.8303 29.3909C34.0002 29.4601 34.2224 29.6431 34.3531 29.4105C34.5191 29.1164 34.2067 29.0641 34.0316 28.9648C33.0749 28.4263 33.0657 28.425 33.216 27.3847C33.2696 27.0214 33.0853 26.5326 33.3663 26.3208C33.748 26.0346 34.0446 26.5221 34.374 26.6881C34.5047 26.7508 34.6262 26.7966 34.7203 26.6619C34.8144 26.5273 34.7203 26.4084 34.6276 26.3182C34.3769 26.0749 34.0806 25.8835 33.7558 25.7549C33.5441 25.6713 33.3637 25.5811 33.3637 25.3027C33.3442 24.6906 33.4791 24.0834 33.7558 23.537C33.9336 23.1972 34.1191 23.222 34.3544 23.4677C34.5839 23.6999 34.7828 23.9603 34.9464 24.2428C35.0262 24.3852 35.119 24.61 35.3307 24.4963C35.5712 24.3656 35.4496 24.1487 35.3503 23.9853C35.206 23.7422 35.0425 23.511 34.8615 23.2939C34.3139 22.6522 34.3087 22.6561 34.9922 22.1294C35.9071 21.4198 35.9384 21.4328 36.4298 22.5032C36.5605 22.7777 36.6285 23.3357 36.9631 23.1854C37.3983 22.9907 36.9722 22.5803 36.8507 22.3019C36.3972 21.2655 36.3815 21.2721 37.3486 20.6578C37.3675 20.6471 37.3854 20.6349 37.4022 20.6212C37.8636 20.1781 38.1537 20.4134 38.4269 20.8538C38.5576 21.0669 38.5994 21.5687 38.9274 21.3766C39.2555 21.1845 38.9274 20.8055 38.7967 20.5258C38.765 20.4685 38.7287 20.4139 38.6883 20.3624C38.4007 19.9298 38.5014 19.4868 38.9496 19.2528C39.3156 19.062 39.4724 19.4868 39.7495 19.5469C39.956 19.5913 40.2095 19.7625 40.335 19.5221C40.4605 19.2816 40.1638 19.2345 40.0083 19.1417C39.3639 18.7588 39.1522 17.9851 39.6802 17.3734C40.0867 16.9029 40.3847 17.5459 40.7258 17.7198C40.7438 17.7324 40.76 17.7474 40.7742 17.7642C40.8905 17.8714 41.0355 17.9838 41.1754 17.8675C41.3649 17.7106 41.2198 17.5472 41.1048 17.4205C40.7837 17.0942 40.3977 16.8391 39.9717 16.6716C39.4868 16.4573 39.4489 15.9554 39.5077 15.5541C39.5613 15.213 39.9678 15.349 40.2409 15.3725C40.3034 15.3899 40.3684 15.3961 40.433 15.3908C40.5139 15.3718 40.5859 15.3257 40.6369 15.2601C40.7049 15.1503 40.6369 15.0562 40.5415 14.9843C40.4731 14.9283 40.3935 14.8877 40.3081 14.8651C40.2226 14.8426 40.1333 14.8386 40.0462 14.8536C39.3051 15.0131 38.8438 14.638 38.3811 14.1204C37.8021 13.4669 37.8061 13.2421 38.5968 12.8344C38.7471 12.7573 38.9889 12.7285 38.9261 12.5103C38.8516 12.2593 38.5942 12.3286 38.4229 12.3913C38.2243 12.4658 37.9786 12.5638 37.8792 12.7272C37.5028 13.3532 37.0716 13.2252 36.5854 12.9023C36.4548 12.8228 36.3135 12.7625 36.1658 12.7233C35.5882 12.5534 35.6431 12.2685 35.9802 11.8855C36.1345 11.7143 36.5448 11.5366 36.2782 11.2869C36.0116 11.0373 35.7973 11.4176 35.5999 11.6006C35.5028 11.689 35.4226 11.7945 35.3634 11.9117C35.1961 12.2423 34.9491 12.3247 34.6066 12.2123C34.3792 12.1378 34.1427 12.0933 33.9126 12.0306C33.3428 11.8764 33.2801 11.6947 33.5428 11.1523C33.6565 10.9184 34.1348 10.6518 33.7323 10.4191C33.433 10.2453 33.2853 10.7223 33.1089 10.9511C33.0668 11.0017 33.0357 11.0604 33.0174 11.1236C32.8736 11.7588 32.4868 11.9901 31.9653 11.845Z" fill="#1A9A54"/>
<path d="M12.0825 45.9228C10.1835 45.9228 9.04125 44.2343 9.68035 42.5052C10.0829 41.4204 10.7873 40.5238 11.5833 39.72C14.4782 36.8003 17.3587 33.8636 20.4849 31.1817C20.8221 30.8929 21.0378 30.8667 21.3358 31.2274C21.916 31.9358 22.5551 32.6037 23.321 33.1068C23.8595 33.4597 23.7798 33.7695 23.4713 34.2073C22.3317 35.8318 21.0456 37.344 19.7883 38.8666C18.6291 40.2794 17.5025 41.7197 16.3471 43.1351C15.546 44.1153 14.6964 45.0459 13.5097 45.5896C13.0557 45.7789 12.5734 45.8915 12.0825 45.9228Z" fill="#1A9A54"/>
<path d="M11.5452 7.52362C11.9282 7.59943 12.5411 7.51317 12.6849 7.99282C12.8156 8.44502 12.251 8.65414 11.9099 8.82273C10.6991 9.41673 9.61893 10.2463 8.73266 11.2628C8.50002 11.5242 8.19158 11.7634 7.81779 11.5608C7.4074 11.3386 7.49105 10.9361 7.5747 10.5727C7.92627 9.04884 9.90891 7.50402 11.5452 7.52362Z" fill="#1A9A54"/>
<path d="M31.571 12.2943C33.7497 12.4001 35.8618 12.7713 37.664 14.1083C39.7107 15.6257 39.7212 18.1703 37.7385 19.7805C37.0053 20.3752 36.1702 20.7986 35.3586 21.26C33.6203 22.2519 32.8205 23.7576 32.8048 25.7219C32.7969 26.7453 32.7577 27.7647 32.5264 28.7697C32.0651 30.7785 30.5398 31.8332 28.5088 31.4542C26.3445 31.0517 24.6638 29.8859 23.5189 27.9986C23.2254 27.536 23.0624 27.0027 23.0471 26.4551C23.0392 25.8421 23.2653 25.352 23.7829 25.0175C24.2024 24.7443 24.6416 24.5025 25.0493 24.2137C25.9067 23.6086 26.2073 22.776 25.9367 21.7632C25.8133 21.2521 25.6494 20.7517 25.4466 20.2667C23.7829 16.5092 27.096 12.6132 30.0772 12.4001C30.5738 12.3701 31.0678 12.2812 31.571 12.2943ZM29.6616 22.4023C30.1304 22.4005 30.59 22.2722 30.992 22.0311C32.3657 21.2442 33.3972 19.9741 33.8856 18.4683C34.5038 16.6268 33.3916 15.4349 31.49 15.8479C29.5622 16.2674 27.692 18.5846 27.6998 20.5464C27.7024 21.7344 28.3807 22.4114 29.6616 22.4023ZM29.3218 26.9125C29.1911 25.9977 28.8264 25.0292 27.8697 24.3836C26.9653 23.7732 25.8688 24.1065 25.4296 25.1011C24.869 26.3702 25.6636 28.2535 26.9679 28.7462C28.2069 29.2141 29.3374 28.4234 29.3218 26.9125Z" fill="#1A9A54"/>
<path d="M33.5818 17.6227C33.5256 19.1701 31.5822 21.5318 30.0687 21.8912C28.9722 22.1526 28.1841 21.6024 28.1645 20.5647C28.1318 18.8003 30.023 16.5405 31.7586 16.27C32.8721 16.0962 33.6184 16.649 33.5818 17.6227Z" fill="#1A9A54"/>
<path d="M28.8377 27.1784C28.8521 28.1338 27.9581 28.6592 27.0315 28.2396C26.2003 27.8619 25.5468 26.5406 25.7533 25.6519C26.0042 24.5736 27.0132 24.2443 27.8444 24.9696C28.4038 25.4584 28.822 26.3903 28.8377 27.1784Z" fill="#1A9A54"/>
</g>
<defs>
<clipPath id="clip0_35461_213380">
<rect width="44.4599" height="44.92" fill="white" transform="translate(2 1)"/>
</clipPath>
</defs>
</svg>
