<svg width="47" height="47" viewBox="0 0 47 47" fill="none" xmlns="http://www.w3.org/2000/svg">
<g clip-path="url(#clip0_35461_213398)">
<path d="M6.333 37.5041C6.3219 37.0908 6.51318 36.7748 6.78814 36.4794C7.2151 36.0251 7.72746 35.6502 8.03658 35.0867C8.40462 34.4129 8.44646 33.7204 8.09294 33.0458C7.31587 31.5694 6.63444 30.0631 6.18954 28.4458C5.87786 27.311 5.01113 26.7508 3.8182 26.7466C3.4476 26.7466 3.07785 26.7517 2.7081 26.7466C1.88321 26.7269 1.30937 26.165 1.29998 25.3453C1.28803 24.2352 1.28803 23.1251 1.29998 22.0151C1.30937 21.1987 1.82941 20.6539 2.64918 20.595C3.0454 20.5668 3.44504 20.5848 3.84467 20.5814C5.06663 20.5711 5.89835 19.9922 6.21601 18.8249C6.63178 17.3454 7.21929 15.9196 7.96655 14.5767C8.58394 13.4427 8.43877 12.5657 7.53959 11.6341C7.24328 11.3284 6.94185 11.0278 6.66518 10.7017C6.18527 10.1278 6.19894 9.42934 6.72239 8.88881C7.53362 8.05028 8.35907 7.22483 9.19876 6.41248C9.72905 5.90014 10.5027 5.91978 11.0518 6.42188C11.419 6.75746 11.7622 7.11952 12.1354 7.44657C12.8288 8.0554 13.6332 8.21935 14.4769 7.84961C15.4742 7.41497 16.4136 6.84456 17.4459 6.46287C18.0744 6.2306 18.7268 6.0769 19.351 5.84208C20.2904 5.48941 20.8386 4.732 20.8668 3.73293C20.8813 3.22058 20.8343 2.70824 20.918 2.1959C21.0341 1.49057 21.4927 1.03544 22.2143 1.01921C23.367 0.993596 24.5196 0.993596 25.6718 1.01921C26.4634 1.03544 26.9911 1.58364 27.0321 2.38546C27.0543 2.81242 27.0321 3.23937 27.0415 3.66632C27.056 4.71407 27.5538 5.47746 28.5469 5.81817C29.7424 6.22975 30.9576 6.58668 32.0899 7.16905C32.4571 7.3569 32.8166 7.55757 33.1854 7.74202C34.2008 8.25009 35.1554 8.10151 35.9615 7.31506C36.2468 7.03669 36.5217 6.74807 36.8103 6.47311C37.3774 5.93174 38.1706 5.87965 38.7351 6.41163C39.5936 7.21886 40.429 8.05198 41.2414 8.91101C41.7332 9.42934 41.6973 10.2397 41.208 10.7785C40.9211 11.0936 40.6103 11.3848 40.308 11.6896C39.5284 12.4838 39.3576 13.4555 39.8811 14.4221C40.6342 15.8157 41.2644 17.2503 41.6982 18.7813C42.0628 20.0682 42.8484 20.5745 44.2062 20.5805C44.5614 20.5805 44.9192 20.566 45.2727 20.595C46.0489 20.6582 46.5442 21.1168 46.6014 21.8912C46.6958 23.0972 46.6932 24.3088 46.5937 25.5144C46.5314 26.247 46.0327 26.7022 45.2992 26.7397C44.9013 26.7602 44.5025 26.7466 44.1037 26.7474C42.9278 26.7474 42.0816 27.2862 41.7529 28.4125C41.2712 30.0623 40.5787 31.6113 39.7888 33.1295C39.3798 33.9168 39.5745 34.8885 40.2004 35.5367C40.536 35.8834 40.8776 36.2258 41.2046 36.581C41.717 37.1386 41.7238 37.9174 41.1969 38.4596C40.4455 39.2375 39.6778 39.9966 38.9101 40.7651C38.1425 41.5336 37.3423 41.4978 36.6199 40.7028C36.304 40.3553 35.9923 40.0009 35.6038 39.7328C34.8352 39.1991 34.024 39.141 33.1948 39.5996C31.7961 40.3723 30.3436 41.0136 28.7912 41.4192C27.7357 41.6942 27.0603 42.5797 27.0398 43.6701C27.0329 44.0544 27.0398 44.4386 27.0398 44.8229C27.0201 45.7502 26.5274 46.313 25.6077 46.348C24.5139 46.389 23.4157 46.3907 22.3218 46.348C21.415 46.3104 20.9633 45.8245 20.8873 44.9168C20.8548 44.5351 20.8753 44.1483 20.871 43.7649C20.8574 42.5285 20.2383 41.7155 19.053 41.4021C17.598 41.0016 16.1979 40.4234 14.8842 39.6807C13.7672 39.0642 12.8143 39.1931 11.904 40.0991C11.641 40.3595 11.3865 40.6285 11.1167 40.8813C10.5189 41.4423 9.85031 41.4961 9.23805 40.9598C8.31279 40.1378 7.43712 39.2615 6.61565 38.3358C6.41697 38.1058 6.3156 37.8075 6.333 37.5041ZM8.65055 23.6418C8.53527 32.0109 15.423 38.9856 23.8837 39.0104C32.3682 39.0334 39.2645 32.1953 39.3004 23.7485C39.3397 15.1881 32.323 8.36281 23.9938 8.34146C15.5741 8.32011 8.5421 15.2871 8.65055 23.6418Z" fill="#41547E"/>
<path d="M17.4913 10.7656C17.7159 10.7656 17.7662 10.9014 17.8226 11.0346C18.3743 12.3643 19.1588 13.5849 20.1393 14.6389C20.2938 14.8097 20.4475 14.9745 20.6166 15.1265C21.0257 15.4937 21.0205 15.5236 20.5902 15.9463C18.843 17.6584 17.6911 19.7035 17.2915 22.1234C16.6613 25.9336 17.7526 29.2296 20.4006 32.0236C20.4942 32.1319 20.5955 32.2332 20.7037 32.3268C20.9727 32.5394 20.9437 32.7187 20.7037 32.9484C19.644 33.9543 18.7602 35.0968 18.1488 36.434C18.0079 36.7423 17.8175 36.7756 17.5357 36.6279C14.0286 34.7937 11.5736 32.0433 10.2825 28.2852C9.56943 26.2094 9.30984 24.0746 9.61298 21.898C10.1356 18.1707 11.7965 15.0539 14.6836 12.6109C15.4573 11.9617 16.2947 11.3924 17.183 10.9116C17.294 10.851 17.4119 10.8032 17.4913 10.7656ZM17.3666 16.8856C17.3734 15.7473 16.5195 14.878 15.3864 14.8678C14.8608 14.868 14.3564 15.0748 13.982 15.4437C13.6077 15.8126 13.3935 16.314 13.3856 16.8395C13.3754 17.9009 14.2967 18.835 15.365 18.8453C15.89 18.8498 16.3954 18.6462 16.7706 18.2789C17.1458 17.9116 17.3601 17.4106 17.3666 16.8856ZM15.0542 27.2563C14.7941 27.2501 14.5354 27.2954 14.2929 27.3895C14.0503 27.4836 13.8288 27.6247 13.6409 27.8046C13.453 27.9846 13.3025 28.1998 13.1981 28.4381C13.0936 28.6763 13.0372 28.9328 13.0321 29.1929C13.0282 29.4603 13.0778 29.7257 13.1779 29.9737C13.278 30.2216 13.4267 30.4471 13.6151 30.6368C13.8036 30.8265 14.028 30.9766 14.2753 31.0784C14.5225 31.1802 14.7876 31.2316 15.055 31.2295C16.0797 31.2295 16.9866 30.3363 17.008 29.3031C17.017 29.0397 16.9733 28.7771 16.8794 28.5308C16.7856 28.2845 16.6435 28.0594 16.4615 27.8688C16.2795 27.6781 16.0613 27.5257 15.8196 27.4206C15.578 27.3154 15.3177 27.2595 15.0542 27.2563Z" fill="#41547E"/>
<path d="M38.406 24.3348C38.3385 28.0459 36.6734 31.6707 33.4533 34.5748C32.543 35.3954 31.5046 36.047 30.415 36.614C30.0828 36.7848 29.9026 36.7139 29.7481 36.3826C29.1708 35.1273 28.3459 34.0488 27.3571 33.0899C26.9096 32.6561 26.9216 32.6629 27.3409 32.236C30.2997 29.1901 31.3987 25.5841 30.4884 21.4315C30.0205 19.2967 28.8959 17.4924 27.3545 15.9503C26.9148 15.5105 26.9096 15.5097 27.3443 15.0904C28.5177 13.964 29.4436 12.6057 30.0632 11.1018C30.2032 10.7602 30.3655 10.7107 30.6754 10.8781C33.1774 12.229 35.1457 14.1229 36.5462 16.6035C37.7886 18.8066 38.4069 21.1694 38.406 24.3348ZM33.525 20.5059C34.7854 20.5537 35.5163 19.5418 35.4941 18.5419C35.4685 17.3755 34.548 16.5506 33.4934 16.5779C32.4046 16.6044 31.4824 17.4865 31.4875 18.5496C31.4918 19.6708 32.3645 20.5084 33.525 20.5059ZM33.5199 30.9107C34.5813 30.9107 35.5462 30.0201 35.501 28.9724C35.4557 27.9579 34.8682 26.958 33.4567 26.9828C32.3636 27.0015 31.4815 27.8597 31.4926 28.9254C31.5001 29.4569 31.7174 29.9639 32.0971 30.3358C32.4769 30.7077 32.9883 30.9144 33.5199 30.9107Z" fill="#41547E"/>
<path d="M22.4604 24.5026C22.9727 24.5026 23.4851 24.5026 23.9974 24.5026C24.2784 24.5026 24.5166 24.4173 24.5098 24.0757C24.503 23.7341 24.2698 23.6598 23.9872 23.659C23.0052 23.659 22.0232 23.659 21.0412 23.659C20.5442 23.659 20.4673 23.5591 20.5433 23.0698C20.8729 20.935 21.9284 19.2161 23.5739 17.8396C23.8301 17.6236 24.0418 17.6022 24.3211 17.8285C25.0822 18.4515 25.7368 19.1941 26.2595 20.0273C26.4892 20.3868 26.42 20.5004 25.9888 20.5029C25.0213 20.5106 24.053 20.5029 23.0855 20.5106C22.673 20.5149 22.4706 20.7822 22.6056 21.1084C22.7097 21.356 22.93 21.3551 23.1461 21.356C24.228 21.356 25.3099 21.3705 26.391 21.35C26.7616 21.3432 26.9648 21.4644 27.0827 21.8205C27.2227 22.2681 27.3188 22.7282 27.3696 23.1945C27.4106 23.5189 27.2842 23.6778 26.9426 23.6641C26.6864 23.6539 26.4303 23.6641 26.1741 23.6641C25.9043 23.6641 25.7386 23.7802 25.7352 24.068C25.7301 24.3729 25.8991 24.5052 26.1878 24.5103C26.4764 24.5155 26.7565 24.5163 27.0417 24.5197C27.2697 24.5197 27.379 24.6333 27.3696 24.8664C27.3354 25.6614 27.1006 26.4034 26.7804 27.1224C26.6805 27.3462 26.4687 27.3427 26.268 27.3436C25.4713 27.3436 24.6746 27.3436 23.877 27.3436C23.5688 27.3436 23.2084 27.2898 23.1768 27.756C23.1538 28.0976 23.3758 28.2436 23.9078 28.2453C24.5055 28.2453 25.1033 28.2393 25.701 28.2496C26.0674 28.2556 26.1203 28.3486 25.9051 28.6518C25.4273 29.3264 24.8517 29.9262 24.1973 30.4313C24.0188 30.5688 23.8736 30.5534 23.7028 30.4168C21.9369 29.0061 20.8328 27.2129 20.522 24.9518C20.4793 24.6376 20.5997 24.5018 20.9165 24.5069C21.4288 24.5155 21.9412 24.5069 22.4536 24.5069L22.4604 24.5026Z" fill="#41547E"/>
<path d="M29.9303 24.6844C29.8756 26.785 28.9423 29.1068 27.1619 31.0887C27.1431 31.1092 27.1226 31.1297 27.103 31.1502C26.214 32.0895 26.2183 32.0835 25.1389 31.3577C24.8828 31.1869 24.8443 31.0579 25.0954 30.8453C26.3763 29.766 27.3156 28.4458 27.8476 26.8567C28.6238 24.5452 28.4547 22.2883 27.3514 20.1109C26.4531 18.3416 25.0356 17.0786 23.3568 16.071C21.2314 14.8047 19.6482 13.0508 18.6756 10.758C18.5253 10.4028 18.5953 10.2226 18.9642 10.1458C19.2964 10.0757 19.6106 9.77175 19.93 9.87764C20.2716 9.99121 20.2596 10.4412 20.4176 10.7315C21.2821 12.3809 22.596 13.7516 24.2073 14.6851C26.372 15.9464 28.0363 17.6653 29.061 19.9674C29.6442 21.2884 29.9474 22.67 29.9303 24.6844Z" fill="#41547E"/>
<path d="M18.0579 24.0521C18.0366 20.978 19.244 18.4308 21.4676 16.3413C21.5718 16.244 21.6871 16.1125 21.8374 16.2013C22.2201 16.4192 22.5907 16.6578 22.9475 16.916C23.1464 17.0646 22.9475 17.1944 22.8382 17.2892C22.2197 17.8344 21.6625 18.4454 21.1764 19.1114C18.9716 22.1778 19.127 26.5669 21.5035 29.4872C22.506 30.7194 23.786 31.5571 25.09 32.4016C26.6739 33.4303 27.9643 34.8518 28.8353 36.5277C29.1623 37.1451 29.1453 37.1596 28.4988 37.3739C27.6449 37.6565 27.6347 37.6625 27.2034 36.9171C26.288 35.3314 24.9491 34.1982 23.4035 33.2658C20.3866 31.4418 18.5882 28.7836 18.0665 25.2877C18.0058 24.8847 18.0579 24.4645 18.0579 24.0521Z" fill="#41547E"/>
<path d="M23.9877 9.21484C24.8447 9.22844 25.6992 9.31183 26.5426 9.46418C26.9312 9.53762 26.9935 9.70926 26.8295 10.0559C26.2267 11.3182 25.3343 12.4203 24.2251 13.2726C24.0543 13.4075 23.9023 13.4289 23.7281 13.294C22.5874 12.4314 21.6736 11.3043 21.0656 10.0098C20.9213 9.69815 20.9802 9.54531 21.3286 9.47699C22.2053 9.31041 23.0953 9.22267 23.9877 9.21484Z" fill="#41547E"/>
<path d="M23.9939 38.1263C23.1913 38.0981 22.4569 38.0828 21.7259 37.9385C21.299 37.8531 21.2486 37.7873 21.4569 37.4167C22.0172 36.4407 22.7685 35.5877 23.666 34.9088C23.8829 34.738 24.0597 34.756 24.2715 34.9242C25.1955 35.6377 25.9672 36.5291 26.5412 37.5457C26.6881 37.8104 26.548 37.8727 26.3405 37.9146C25.5438 38.0742 24.7386 38.111 23.9939 38.1263Z" fill="#41547E"/>
<path d="M29.3204 10.5658C29.1633 10.9074 28.9959 11.3505 28.7679 11.7613C28.1704 12.8454 27.399 13.8242 26.4845 14.6586C26.2659 14.8558 26.1002 14.8994 25.8611 14.7047C25.625 14.5225 25.3777 14.355 25.1208 14.2034C24.8646 14.0463 24.8757 13.9131 25.096 13.7167C25.722 13.1583 26.3188 12.5733 26.8039 11.8765C27.1685 11.3488 27.5024 10.8057 27.727 10.2037C27.8533 9.86217 28.0438 9.76654 28.3794 9.91597C28.6253 10.0261 28.8849 10.1038 29.1376 10.1986C29.2615 10.243 29.3639 10.3122 29.3204 10.5658Z" fill="#41547E"/>
<path d="M23.0187 34.2154C22.9686 34.2771 22.9147 34.3356 22.8573 34.3905C21.8886 35.2104 21.0822 36.2048 20.48 37.3219C20.3357 37.5926 20.1572 37.6498 19.8899 37.5422C19.7319 37.479 19.5697 37.4252 19.4074 37.3714C18.8097 37.1708 18.7738 37.123 19.0616 36.5748C19.6539 35.4205 20.4507 34.3833 21.4133 33.5135C21.6456 33.306 21.8403 33.2838 22.0845 33.4742C22.3287 33.6646 22.5789 33.8098 22.8265 33.9755C22.9085 34.0352 22.9965 34.0822 23.0187 34.2154Z" fill="#41547E"/>
<path d="M15.4088 15.7774C15.6949 15.7813 15.9682 15.8963 16.171 16.098C16.3739 16.2997 16.4903 16.5724 16.4959 16.8584C16.4959 17.4211 15.9715 17.9437 15.3994 17.9437C15.2539 17.9441 15.1099 17.9153 14.9757 17.8591C14.8415 17.8028 14.72 17.7202 14.6184 17.6161C14.5167 17.5121 14.4369 17.3887 14.3838 17.2532C14.3306 17.1178 14.3052 16.9731 14.309 16.8277C14.3201 16.224 14.7897 15.7731 15.4088 15.7774Z" fill="#41547E"/>
<path d="M16.0991 29.2621C16.0916 29.5478 15.9725 29.8191 15.7674 30.0181C15.5624 30.2171 15.2876 30.3279 15.0019 30.3269C14.7157 30.32 14.4436 30.2013 14.2439 29.9962C14.0442 29.7911 13.9328 29.5159 13.9336 29.2297C13.9397 28.9435 14.0546 28.6703 14.2549 28.4658C14.4553 28.2613 14.7261 28.1409 15.0121 28.129C15.5996 28.1213 16.112 28.6533 16.0991 29.2621Z" fill="#41547E"/>
<path d="M34.5581 18.5601C34.5581 19.1997 34.1056 19.6599 33.4924 19.6497C33.2051 19.6408 32.9322 19.5218 32.7301 19.3175C32.5279 19.1131 32.412 18.8389 32.4062 18.5516C32.4062 17.9914 32.94 17.4483 33.5001 17.4415C34.0603 17.4346 34.5581 17.9606 34.5581 18.5601Z" fill="#41547E"/>
<path d="M34.5582 28.9516C34.553 29.534 34.0398 30.0617 33.489 30.0506C32.9383 30.0395 32.4029 29.4879 32.4063 28.9405C32.4129 28.6473 32.5337 28.3683 32.7429 28.1627C32.9522 27.9572 33.2333 27.8413 33.5266 27.8398C34.1389 27.8501 34.5641 28.3129 34.5582 28.9516Z" fill="#41547E"/>
</g>
<defs>
<clipPath id="clip0_35461_213398">
<rect width="46.375" height="46.375" fill="white" transform="translate(0.625 0.101562)"/>
</clipPath>
</defs>
</svg>
