<svg width="62" height="62" viewBox="0 0 62 62" fill="none" xmlns="http://www.w3.org/2000/svg">
<g clip-path="url(#clip0_7644_42053)">
<g clip-path="url(#clip1_7644_42053)">
<path d="M18.3693 50.9959L30.2596 57.4748C30.7529 57.7436 31.2167 57.5779 31.6548 57.3386L43.1549 50.9959C41.5609 50.0866 40.2394 49.2731 38.8626 48.5663C38.3552 48.3535 37.9293 47.9839 37.6471 47.5117C37.365 47.0394 37.2414 46.4892 37.2944 45.9416C37.3508 43.0163 37.3508 40.0897 37.2944 37.1619C37.2686 35.8477 37.714 35.6894 38.7669 36.271C41.5499 37.8098 44.339 39.3363 47.1343 40.8505C47.4675 41.001 47.7472 41.2491 47.9365 41.562C48.1258 41.8748 48.2157 42.2377 48.1945 42.6027C48.1945 45.7134 48.1945 48.824 48.1945 51.9309C48.1945 52.877 48.0435 53.5396 46.8398 53.0353C45.7354 52.5936 44.9734 53.4034 44.1562 53.8599C40.405 55.903 36.6575 57.9644 32.9653 60.118C31.4928 60.9757 30.2449 61.0604 28.7208 60.1732C24.7635 57.8687 20.7216 55.7115 16.7127 53.5028C16.0869 53.1568 15.4832 52.6046 14.688 53.0022C13.5505 53.5691 13.2671 52.9801 13.2671 51.9935C13.2671 48.8866 13.2671 45.7759 13.2671 42.669C13.2671 41.7597 13.6941 41.2296 14.4745 40.8284C17.2207 39.3559 19.9497 37.8589 22.6616 36.3373C23.7659 35.7078 24.3512 35.8256 24.3402 37.2429C24.3181 40.1707 24.3181 43.0972 24.3402 46.0226C24.3756 46.5414 24.2514 47.0587 23.9842 47.5048C23.717 47.951 23.3197 48.3047 22.8456 48.5184C21.4578 49.2179 20.1142 50.0204 18.3693 50.9959Z" fill="#F29B25"/>
<path d="M59.8158 33.7162C56.4807 35.52 53.1896 37.3128 49.8766 39.0908C49.3133 39.3964 48.8053 39.0908 48.3268 38.8184C45.529 37.3128 42.746 35.7888 39.9483 34.2905C38.9581 33.7678 38.774 33.3003 39.871 32.6892C42.6982 31.148 45.529 29.5884 48.3636 28.0104C49.5489 27.3514 50.4655 28.0324 51.419 28.5736C53.116 29.5381 53.1381 29.527 53.1492 27.5428C53.1492 25.8348 53.0939 24.1267 53.1492 22.4223C53.2157 21.9127 53.1136 21.3953 52.8583 20.9492C52.603 20.5031 52.2087 20.1529 51.7356 19.9522C49.1882 18.638 46.6886 17.2281 44.1854 15.8255C43.3424 15.3507 42.8417 15.4795 43.0074 16.4918C43.486 19.4368 41.8036 20.7731 39.4366 21.8554C37.4451 22.7499 35.5677 23.9352 33.6645 25.0286C32.5196 25.6875 31.857 25.6581 31.8754 24.0935C31.9085 21.0455 31.9012 17.9938 31.8754 14.9457C31.8474 14.5809 31.9314 14.2162 32.1162 13.9004C32.3011 13.5847 32.578 13.3329 32.9098 13.1787C35.7149 11.6817 38.504 10.1663 41.2772 8.63243C42.4184 8.00295 43.0884 8.22014 42.9448 9.58219C42.7571 11.3565 43.7068 12.1848 45.1536 12.9321C48.3304 14.596 51.4263 16.4477 54.6069 18.1337C55.8033 18.7668 56.2414 19.6429 56.2303 20.9277C56.2009 23.5487 56.3444 26.1771 56.1935 28.7908C56.0904 30.543 56.5616 31.7137 58.2255 32.3984C58.9034 32.6204 59.4718 33.0914 59.8158 33.7162Z" fill="#F29B25"/>
<path d="M29.5197 19.5546C29.5197 21.1412 29.5197 22.7278 29.5197 24.3144C29.5197 25.2568 29.262 25.7869 28.2423 25.2237C25.3599 23.626 22.4739 22.0357 19.6136 20.3939C18.281 19.6282 18.6822 18.2551 18.6454 17.0808C18.5865 15.1224 18.6049 15.1224 16.8711 16.0795C14.5335 17.3827 12.1996 18.7005 9.82521 19.9779C9.3809 20.1782 9.01016 20.5121 8.76468 20.9331C8.5192 21.3541 8.41122 21.8412 8.45579 22.3265C8.49997 24.2187 8.47788 26.1108 8.45579 27.9993C8.45579 28.9932 8.75397 29.5086 9.70005 28.7834C11.4891 27.414 13.1162 27.7858 14.8942 28.8901C17.0625 30.2448 19.3485 31.4265 21.6051 32.6413C22.7794 33.2745 22.68 33.7457 21.5683 34.3383C18.8196 35.8108 16.0833 37.2993 13.3592 38.8037C12.9978 39.03 12.58 39.15 12.1536 39.15C11.7272 39.15 11.3094 39.03 10.948 38.8037C8.2202 37.3017 5.48505 35.8108 2.72414 34.3862C1.34737 33.672 1.61978 33.0536 2.81985 32.656C5.06171 31.8977 5.65071 30.3994 5.45928 28.1576C5.2605 25.8568 5.49978 23.5229 5.39302 21.2075C5.3194 19.5914 5.90471 18.6306 7.35511 17.8944C10.5025 16.2415 13.5359 14.3972 16.687 12.7811C18.1116 12.0449 18.8957 11.1798 18.6601 9.51591C18.4761 8.12809 19.135 7.93667 20.2651 8.56247C22.9892 10.0718 25.706 11.5737 28.4669 13.0425C28.8243 13.2139 29.1193 13.4926 29.3107 13.8397C29.5021 14.1869 29.5803 14.5851 29.5344 14.9788C29.505 16.5029 29.5344 18.0306 29.5344 19.5546H29.5197Z" fill="#F29B25"/>
<path d="M11.0694 47.3183V52.0634C11.0694 53.1678 10.6498 53.5359 9.59694 52.9432C6.82867 51.4045 4.04935 49.8878 1.27372 48.3564C0.866632 48.1422 0.53016 47.8149 0.30483 47.4139C0.0794991 47.0129 -0.0250782 46.5552 0.00369599 46.0961C0.00369599 43.1733 0.00369599 40.2541 0.00369599 37.3312C0.00369599 35.8587 0.65159 35.8587 1.71914 36.444C4.35489 37.876 6.95751 39.3153 9.61535 40.659C10.7528 41.2406 11.1651 42.0726 11.0878 43.3021C11.0216 44.6384 11.0878 45.9783 11.0878 47.3183H11.0694Z" fill="#F29B25"/>
<path d="M50.5395 46.6374C49.067 42.4923 51.747 40.0922 55.8736 38.4651C57.3461 37.8871 58.6713 36.9926 60.0665 36.2306C60.9537 35.7557 61.4396 35.9471 61.4322 37.0331C61.4322 40.1989 61.4322 43.3648 61.4322 46.5306C61.4322 47.4435 60.9316 48.0031 60.1917 48.3933C57.4639 49.8915 54.7288 51.3677 52.0231 52.8991C50.8377 53.5691 50.5211 53.1384 50.5506 51.9641C50.5616 50.44 50.5395 48.9197 50.5395 46.6374Z" fill="#F29B25"/>
<path d="M41.1267 5.81628C41.0015 6.24698 40.626 6.3611 40.3131 6.53043C37.5301 8.02501 34.7361 9.49749 31.9641 11.0289C31.6301 11.2413 31.2437 11.3569 30.8479 11.3628C30.4521 11.3686 30.0624 11.2645 29.7223 11.062C26.9466 9.52817 24.16 8.02501 21.3622 6.55252C20.1143 5.89358 20.4198 5.41503 21.4285 4.86284C24.1011 3.40508 26.7663 1.9326 29.4241 0.445385C30.2818 -0.0331728 31.1027 -0.162015 32.0009 0.353355C34.806 1.94732 37.6332 3.50448 40.4457 5.09108C40.7438 5.23465 41.1672 5.33404 41.1267 5.81628Z" fill="#F29B25"/>
</g>
</g>
<defs>
<clipPath id="clip0_7644_42053">
<rect width="60.8091" height="60.8091" fill="white" transform="translate(0.269531 0.269653)"/>
</clipPath>
<clipPath id="clip1_7644_42053">
<rect width="61.4321" height="60.81" fill="white"/>
</clipPath>
</defs>
</svg>
