<svg width="47" height="47" viewBox="0 0 47 47" fill="none" xmlns="http://www.w3.org/2000/svg">
<g clip-path="url(#clip0_39141_315513)">
<path d="M0.213927 20.7097C0.213927 14.3527 0.213927 7.99571 0.213927 1.63873C0.213927 0.935555 0.213927 0.933594 0.911214 0.933594H34.1515C34.838 0.933594 34.8566 0.953209 34.8566 1.65638C34.8566 8.39061 34.8566 15.1248 34.8566 21.8591C34.8566 22.5907 34.8154 22.6024 34.1015 22.4475C30.0011 21.5648 26.4951 22.5622 23.7324 25.7976C23.3636 26.2291 22.9949 26.386 22.4388 26.386C17.3078 26.3697 12.1754 26.3697 7.04165 26.386C6.80824 26.386 6.39438 26.2448 6.38751 26.59C6.37967 26.9921 6.8102 26.8313 7.0495 26.8323C12.0335 26.8388 17.0178 26.8388 22.0024 26.8323C22.1662 26.8323 22.329 26.8323 22.4928 26.8323C22.735 26.8323 22.836 26.9411 22.7125 27.1706C22.1651 28.1772 21.7752 29.2617 21.5562 30.3864C21.5465 30.4771 21.5017 30.5605 21.4313 30.6186C21.3609 30.6767 21.2706 30.7049 21.1796 30.6972C21.0168 30.6972 20.853 30.7031 20.6892 30.7031C16.1956 30.7031 11.7017 30.707 7.20739 30.7149C6.92396 30.7149 6.42282 30.5629 6.41301 30.9307C6.40419 31.3514 6.90337 31.1513 7.17208 31.1523C11.6834 31.1647 16.1946 31.167 20.7059 31.1592C21.4366 31.1592 21.4415 31.1592 21.4277 31.9006C21.4101 32.7832 21.4277 33.6659 21.6592 34.5279C21.7847 34.9986 21.5915 35.0957 21.1688 35.0938C19.1907 35.084 17.2136 35.0938 15.2365 35.0938C12.5229 35.0938 9.8102 35.0938 7.09657 35.1055C6.85237 35.1055 6.40026 34.9408 6.40222 35.3017C6.40222 35.694 6.86806 35.542 7.12991 35.542C11.7706 35.5322 16.4114 35.5194 21.056 35.4772C21.6641 35.4772 21.9936 35.6342 22.2211 36.2294C22.7978 37.7407 23.7903 38.9686 25.0103 40.0199C25.126 40.118 25.3427 40.1984 25.2692 40.3857C25.1956 40.573 24.9828 40.4995 24.8279 40.4995C16.8207 40.5034 8.81151 40.5073 0.800394 40.5112C0.310038 40.5112 0.200198 40.3269 0.201178 39.8748C0.214908 33.4877 0.219158 27.0993 0.213927 20.7097ZM23.6873 13.1807C23.6873 15.6162 23.6873 18.0516 23.6873 20.487C23.6873 21.1108 23.7285 21.1471 24.3601 21.149C25.1446 21.149 25.9292 21.1353 26.7138 21.1549C27.1345 21.1657 27.2973 21.0049 27.2963 20.5822C27.2898 15.6466 27.2898 10.7103 27.2963 5.77341C27.2963 5.34974 27.1159 5.18498 26.7079 5.19381C25.9233 5.20558 25.1387 5.19381 24.3542 5.19381C23.7353 5.19381 23.6912 5.2399 23.6902 5.8705C23.6863 8.30659 23.6853 10.7433 23.6873 13.1807ZM13.025 15.3383C13.025 17.0869 13.0348 18.8355 13.0191 20.5832C13.0191 21.0068 13.1603 21.1716 13.5869 21.1588C14.3872 21.1373 15.1884 21.1588 15.9887 21.152C16.6114 21.152 16.6821 21.0794 16.683 20.438C16.683 18.9669 16.683 17.4959 16.683 16.0248C16.683 14.1131 16.683 12.2013 16.683 10.2896C16.683 9.70999 16.5977 9.62761 16.0387 9.62467C15.2384 9.61977 14.4372 9.6433 13.6369 9.61486C13.1652 9.59819 13.0112 9.76981 13.0171 10.2396C13.0377 11.9333 13.025 13.6328 13.025 15.3324V15.3383ZM18.3875 16.27C18.3875 17.7077 18.3954 19.1454 18.3816 20.5851C18.3816 21.0029 18.5268 21.1735 18.9553 21.1618C19.788 21.1402 20.6226 21.148 21.4552 21.1618C21.8279 21.1618 21.9867 21.0049 21.9867 20.6332C21.9822 17.7564 21.9822 14.8813 21.9867 12.0078C21.9867 11.6057 21.8141 11.4557 21.4228 11.4625C20.6059 11.4763 19.789 11.4841 18.971 11.4625C18.5179 11.4488 18.3708 11.6243 18.3767 12.0657C18.3983 13.4544 18.3865 14.8587 18.3875 16.2641V16.27ZM7.72128 17.2919C7.72128 18.3854 7.72913 19.4789 7.72128 20.5724C7.71638 20.9852 7.86937 21.1608 8.29794 21.1529C9.1139 21.132 9.93116 21.132 10.7497 21.1529C11.1636 21.1628 11.3382 21.0235 11.3382 20.591C11.3244 18.421 11.3244 16.2504 11.3382 14.0791C11.3382 13.6417 11.1548 13.5103 10.7497 13.5191C9.95044 13.5358 9.15018 13.5426 8.3509 13.5191C7.87231 13.5034 7.72128 13.7084 7.72913 14.1605C7.73305 15.203 7.7203 16.2474 7.72128 17.2919Z" fill="#1BB6C9"/>
<path d="M41.179 32.2687C41.1712 37.6165 36.8001 41.9778 31.5102 41.9287C26.1731 41.8738 21.9051 37.7117 21.8462 32.2275C21.7894 26.9385 26.2732 22.5322 31.5553 22.5469C36.8776 22.5626 41.1879 26.915 41.179 32.2687ZM36.4932 29.1187C36.4461 28.8804 36.3235 28.8048 36.1401 28.9225C36.0073 29.0171 35.8853 29.126 35.7763 29.2471C33.9639 31.0585 32.1476 32.866 30.349 34.6911C30.0479 34.9961 29.8587 35.002 29.5586 34.6911C28.7691 33.8653 27.9482 33.07 27.1382 32.2648C27.0087 32.1363 26.844 31.9823 26.6743 32.1353C26.4713 32.3178 26.6841 32.458 26.8008 32.5757C27.7433 33.526 28.6936 34.4685 29.6351 35.4197C29.8449 35.6306 30.0205 35.6757 30.2529 35.4433C32.2693 33.4204 34.2882 31.4001 36.3098 29.3825C36.379 29.3004 36.4403 29.2121 36.4932 29.1187Z" fill="#1BB6C9"/>
<path d="M45.1943 43.7411C45.1994 44.1677 45.0765 44.5861 44.8413 44.942C44.6062 45.298 44.2696 45.5752 43.8752 45.7379C43.0034 46.1007 42.1482 45.9438 41.5029 45.2475C40.1995 43.8314 38.9216 42.3907 37.6222 40.9696C37.3731 40.697 37.3868 40.5107 37.684 40.2979C38.4313 39.7673 39.0821 39.1125 39.6081 38.3619C39.8111 38.0736 39.9779 38.0785 40.2319 38.31C41.6814 39.6271 43.1475 40.9245 44.5941 42.2446C44.8011 42.4322 44.9627 42.6644 45.0667 42.9237C45.1706 43.183 45.2143 43.4625 45.1943 43.7411Z" fill="#1BB6C9"/>
<path d="M26.8267 13.1705C26.8267 15.4588 26.8267 17.7452 26.8267 20.0296C26.8267 20.6357 26.7816 20.6768 26.1942 20.6827C25.7372 20.6876 25.2792 20.6827 24.8212 20.6827C24.1749 20.6827 24.1523 20.6592 24.1523 20.0276C24.1523 17.87 24.1523 15.7144 24.1523 13.5608C24.1523 11.16 24.1523 8.75922 24.1523 6.35844C24.1523 5.66115 24.1523 5.65821 24.8712 5.65625C25.2959 5.65625 25.7205 5.65625 26.1461 5.65625C26.7934 5.65625 26.8267 5.68959 26.8267 6.35844C26.8281 8.62977 26.8281 10.9004 26.8267 13.1705Z" fill="#1BB6C9"/>
<path d="M16.1657 15.3759C16.1657 16.9451 16.15 18.5083 16.1755 20.0745C16.1833 20.5551 16.0107 20.712 15.5518 20.6865C15.0477 20.659 14.5406 20.6659 14.0346 20.6865C13.6335 20.7002 13.4834 20.5296 13.4864 20.1353C13.4981 18.8133 13.4864 17.4923 13.4864 16.1703C13.4864 14.3586 13.4864 12.5476 13.4864 10.7372C13.4864 10.1321 13.5334 10.0879 14.1179 10.083C14.624 10.083 15.13 10.0977 15.6351 10.083C16.0421 10.0673 16.1716 10.237 16.1676 10.6342C16.1559 12.2102 16.1657 13.7931 16.1657 15.3759Z" fill="#1BB6C9"/>
<path d="M18.8448 16.2792C18.8448 14.9886 18.8537 13.698 18.839 12.4074C18.8341 12.0151 18.9674 11.8347 19.3744 11.8484C19.9128 11.866 20.4532 11.8611 20.9916 11.8484C21.3535 11.8405 21.534 11.9739 21.533 12.3603C21.5258 14.9586 21.5258 17.5565 21.533 20.154C21.533 20.5267 21.3869 20.6905 21.0103 20.6817C20.4552 20.6689 19.8991 20.6679 19.343 20.6817C18.9586 20.6915 18.8341 20.5208 18.838 20.1482C18.8537 18.8605 18.8448 17.5699 18.8448 16.2792Z" fill="#1BB6C9"/>
<path d="M10.8649 17.3371C10.8649 18.2501 10.8443 19.1641 10.8737 20.0772C10.8894 20.5568 10.703 20.7137 10.2451 20.6901C9.70763 20.6627 9.16627 20.6794 8.6308 20.6813C8.32972 20.6813 8.18262 20.546 8.1836 20.237C8.1836 18.2965 8.1836 16.3557 8.1836 14.4146C8.1836 14.1007 8.33365 13.9811 8.63669 13.985C9.20746 13.9938 9.77922 14.0007 10.349 13.985C10.7285 13.9732 10.8757 14.1252 10.8698 14.5028C10.8541 15.4453 10.8649 16.3917 10.8649 17.3371Z" fill="#1BB6C9"/>
</g>
<defs>
<clipPath id="clip0_39141_315513">
<rect width="44.9912" height="45" fill="white" transform="translate(0.207031 0.933594)"/>
</clipPath>
</defs>
</svg>
