<svg width="47" height="47" viewBox="0 0 47 47" fill="none" xmlns="http://www.w3.org/2000/svg">
<g clip-path="url(#clip0_39141_315519)">
<path d="M42.715 28.0887C42.715 31.5561 42.715 35.0234 42.715 38.4908C42.715 39.4917 42.4704 39.7353 41.4677 39.7353H33.6895C33.0335 39.7353 33.0242 39.7297 33.1404 39.0793C34.1497 33.4566 30.2962 28.1449 24.6125 27.4243C22.0743 27.0799 19.501 27.7282 17.429 29.2341C15.3569 30.74 13.9458 32.9874 13.4897 35.5079C13.2659 36.7551 13.2777 38.0332 13.5244 39.2761C13.5928 39.621 13.4878 39.7353 13.1598 39.7353C10.3794 39.7353 7.59985 39.7353 4.81938 39.7278C4.25711 39.7278 3.94223 39.3811 3.91787 38.8047C3.90756 38.5705 3.91787 38.3362 3.91787 38.1019C3.91787 31.324 3.91787 24.5454 3.91787 17.7662C3.90707 17.5625 3.91146 17.3583 3.93099 17.1552C3.99377 16.7382 4.24961 16.4898 4.66476 16.413C4.74203 16.4019 4.82005 16.3969 4.8981 16.398C6.70208 16.339 6.70208 16.339 7.98407 17.6088C8.45263 18.0708 8.93244 18.5168 9.37477 18.9995C9.70839 19.364 10.0851 19.4971 10.5752 19.4961C18.7595 19.4855 26.9438 19.4818 35.128 19.4849C37.1082 19.4849 36.4925 19.707 37.885 18.3557C38.423 17.8337 38.9609 17.3098 39.4735 16.7625C39.5845 16.6324 39.725 16.5305 39.8832 16.4653C40.0414 16.4001 40.2129 16.3735 40.3834 16.3877C40.7723 16.4092 41.1641 16.3877 41.5548 16.3933C42.4282 16.3933 42.7113 16.6744 42.7113 17.5394C42.7113 20.2571 42.7113 22.9748 42.7113 25.6924L42.715 28.0887ZM23.3061 24.1527C26.4593 24.1527 29.6127 24.1527 32.7664 24.1527C32.9323 24.1527 33.1769 24.2277 33.2434 24.059C33.3943 23.6767 33.3634 23.2522 33.2706 22.8651C33.206 22.599 32.8958 22.718 32.6915 22.7171C26.5102 22.7114 20.3282 22.7114 14.1457 22.7171C13.2311 22.7171 13.3201 22.6233 13.3173 23.5455C13.3173 24.1584 13.3173 24.1593 13.9395 24.1593L23.3061 24.1527Z" fill="#839D1C"/>
<path d="M20.2276 0.9375C22.8666 0.9375 25.5055 0.9375 28.1445 0.9375C28.7658 0.9375 28.7789 0.95343 28.7789 1.5635C28.7789 3.07884 28.7789 4.59324 28.7789 6.10764C28.7789 6.88827 29.0076 7.1188 29.7798 7.12068C31.3101 7.12068 32.8405 7.13286 34.3717 7.11505C34.8047 7.11037 34.978 7.2322 34.9743 7.69795C34.9537 9.94706 34.9574 12.1962 34.9743 14.4453C34.9743 14.8426 34.8609 15.0151 34.4458 15.0029C33.7279 14.9823 33.0094 14.9823 32.2904 15.0029C31.8799 15.0132 31.744 14.8426 31.7468 14.4462C31.7599 12.9159 31.7534 11.3856 31.7468 9.85428C31.7468 9.03711 31.5285 8.81688 30.7272 8.81313C29.926 8.80938 29.1032 8.81313 28.2907 8.81313C27.4782 8.81313 27.2542 9.03148 27.2524 9.8346C27.2524 11.349 27.2524 12.8643 27.2524 14.3787C27.2524 14.9523 27.2102 14.9944 26.6404 14.9954C25.4568 14.9954 25.5674 15.0844 25.5655 13.9523C25.5655 11.8129 25.5655 9.67342 25.5655 7.53395C25.5655 6.70178 25.3481 6.48999 24.5047 6.48624C23.6772 6.48624 22.8497 6.47968 22.0222 6.48624C21.3072 6.49374 21.0739 6.73177 21.072 7.45523C21.0682 9.73558 21.0682 12.0159 21.072 14.2963C21.072 14.971 21.0486 14.9954 20.401 14.9963C19.2961 14.9963 19.3861 15.0703 19.3842 13.988C19.3842 12.8325 19.3842 11.677 19.3842 10.5206C19.3795 9.83179 19.1396 9.58814 18.4527 9.58345C17.5781 9.57283 16.7034 9.57283 15.8287 9.58345C15.1362 9.59095 14.8916 9.83179 14.8916 10.5206C14.8851 11.8166 14.8766 13.1127 14.8916 14.4078C14.8991 14.8529 14.7445 15.0244 14.2956 15.0085C13.5778 14.9832 12.859 14.9954 12.1402 15.0085C11.8131 15.0085 11.6651 14.897 11.666 14.5399C11.6735 10.1667 11.6735 5.79339 11.666 1.42012C11.666 0.944996 11.9322 0.939374 12.2686 0.940311C14.9207 0.942186 17.5737 0.941249 20.2276 0.9375ZM21.7711 2.62433C20.2404 2.62433 18.7098 2.62433 17.1791 2.62433C16.407 2.62433 16.407 2.62433 16.4088 3.38341C16.4088 4.02534 16.4088 4.02721 17.0648 4.02721H26.2927C27.1361 4.02721 27.1155 4.02721 27.1427 3.19785C27.1586 2.7396 26.9956 2.60934 26.5523 2.6159C24.9573 2.63933 23.3642 2.62995 21.7711 2.62995V2.62433Z" fill="#839D1C"/>
<path d="M23.3104 42.0154C22.6928 42.0219 22.0802 41.9053 21.5082 41.6722C20.9363 41.4391 20.4165 41.0944 19.9794 40.6581C19.5422 40.2218 19.1964 39.7028 18.9623 39.1313C18.7281 38.5598 18.6101 37.9474 18.6154 37.3298C18.6201 34.7227 20.7043 32.6751 23.3498 32.6798C23.9631 32.6763 24.5711 32.7944 25.1385 33.0274C25.7059 33.2603 26.2216 33.6035 26.6555 34.0369C27.0895 34.4704 27.4333 34.9856 27.6669 35.5527C27.9005 36.1199 28.0194 36.7277 28.0167 37.341C28.0167 39.9584 25.9466 42.0164 23.3104 42.0154Z" fill="#839D1C"/>
<path d="M23.3191 16.397H36.765C36.8897 16.397 37.0153 16.3913 37.1399 16.397C37.2917 16.4063 37.4979 16.3398 37.5719 16.4954C37.6656 16.6931 37.4238 16.7671 37.3311 16.8983C36.6263 17.8954 35.6752 18.1222 34.4663 18.1166C26.7209 18.0604 18.9755 18.0838 11.2255 18.0988C10.6979 18.0988 10.2958 17.9741 9.95753 17.5656C9.70919 17.2657 9.40837 17.0108 9.13567 16.7315C8.94824 16.5441 9.0129 16.4298 9.26124 16.4082C9.41681 16.3951 9.57331 16.3998 9.72981 16.3998L23.3191 16.397Z" fill="#839D1C"/>
<path d="M10.2241 10.2844C10.2241 11.6732 10.2119 13.0621 10.2316 14.45C10.2363 14.8529 10.106 15.0076 9.69743 15.0019C8.46511 14.986 7.23184 14.9888 5.99952 15.0019C5.62467 15.0019 5.47379 14.8857 5.4766 14.4884C5.48972 11.8522 5.4766 9.2161 5.48503 6.57902C5.48503 5.89304 5.7718 5.60627 6.45028 5.60159C7.52704 5.59315 8.60567 5.61658 9.67962 5.59034C10.1276 5.5791 10.2363 5.75715 10.2307 6.16762C10.21 7.53864 10.2241 8.90966 10.2241 10.2844Z" fill="#839D1C"/>
<path d="M16.0142 38.0471C17.1237 38.0471 17.1237 38.0471 17.4536 39.1127C17.7457 40.0684 18.2671 40.9382 18.9724 41.6462C19.6777 42.3542 20.5455 42.8789 21.5001 43.1746C22.4547 43.4703 23.4671 43.528 24.4491 43.3427C25.4312 43.1574 26.3529 42.7347 27.1341 42.1115C27.4303 41.8763 27.6205 41.8631 27.8745 42.1424C28.1997 42.5004 28.5436 42.8424 28.9053 43.1676C29.2099 43.4488 29.1555 43.6512 28.8585 43.8817C26.4922 45.7138 23.8701 46.4523 20.9528 45.5573C17.6598 44.548 15.6356 42.3158 14.9065 38.9337C14.8896 38.8578 14.8774 38.78 14.8662 38.7031C14.7809 38.0743 14.7997 38.0537 15.4566 38.0471C15.6403 38.0462 15.8277 38.0481 16.0142 38.0471Z" fill="#839D1C"/>
<path d="M31.881 37.0874C31.8716 38.9954 31.448 40.5548 30.5193 41.9605C30.2232 42.4094 30.1763 42.4122 29.793 42.0336C29.4716 41.715 29.1689 41.3776 28.824 41.0824C28.4979 40.8013 28.497 40.5595 28.6994 40.1987C29.5353 38.6993 29.6974 37.1146 29.152 35.498C28.4258 33.3427 26.9517 31.9491 24.7204 31.4009C24.0409 31.2341 24.04 31.2379 24.0391 30.5528C24.0391 30.178 24.0391 29.8031 24.0391 29.4283C24.0391 28.8397 24.1065 28.7723 24.7016 28.8857C26.2188 29.1668 27.6161 29.7366 28.7912 30.7449C30.7958 32.4693 31.8528 34.6537 31.881 37.0874Z" fill="#839D1C"/>
<path d="M22.5956 30.0784C22.5956 31.1898 22.5956 31.1795 21.5648 31.5028C19.2838 32.2254 17.9006 33.7913 17.3346 36.0901C17.2362 36.4921 17.0909 36.6823 16.6561 36.6524C16.1875 36.6186 15.719 36.6392 15.2504 36.6449C14.914 36.6449 14.7771 36.5343 14.8352 36.165C15.3038 33.1466 16.9307 30.978 19.653 29.6248C20.3962 29.2555 21.1918 29.0027 22.0118 28.8751C22.5141 28.7964 22.5834 28.8648 22.5909 29.3737C22.5984 29.6098 22.5956 29.8441 22.5956 30.0784Z" fill="#839D1C"/>
<path d="M36.4095 12.5688C36.4095 11.9447 36.4217 11.3205 36.4048 10.6945C36.3954 10.3581 36.5154 10.2082 36.8602 10.211C37.9848 10.2194 39.1094 10.2035 40.2339 10.2203C40.8187 10.2288 41.1439 10.5558 41.1495 11.1219C41.1607 12.2605 41.1495 13.3991 41.1579 14.5386C41.1579 14.8563 41.0417 14.995 40.7231 14.9931C39.428 14.9888 38.1329 14.9888 36.8378 14.9931C36.5144 14.9931 36.4029 14.8451 36.4095 14.5321C36.4198 13.8761 36.4095 13.2248 36.4095 12.5688Z" fill="#839D1C"/>
<path d="M22.4713 11.4277C22.4713 10.4465 22.4816 9.46443 22.4713 8.48232C22.4657 8.10185 22.565 7.91161 22.9961 7.9266C24.3081 7.97065 24.1563 7.72793 24.1619 9.09614C24.1703 10.8579 24.1619 12.6188 24.1619 14.3797C24.1619 14.9513 24.1188 14.9926 23.549 14.9935C22.3673 14.9935 22.4788 15.0816 22.4751 13.9533C22.4685 13.1108 22.4713 12.2693 22.4713 11.4277Z" fill="#839D1C"/>
<path d="M28.6577 12.5922C28.6577 11.969 28.667 11.3468 28.6577 10.7245C28.6511 10.3787 28.7729 10.2091 29.1421 10.211C30.5328 10.2203 30.3361 10.1069 30.3464 11.3552C30.3557 12.3663 30.3342 13.3784 30.3548 14.3896C30.3632 14.8198 30.232 15.01 29.7719 15.0016C28.5255 14.9772 28.6698 15.0896 28.6605 13.8995C28.6539 13.4637 28.6567 13.0308 28.6577 12.5922Z" fill="#839D1C"/>
<path d="M30.2247 3.84191C30.2247 3.38927 30.2247 2.93758 30.2247 2.48495C30.2247 2.38092 30.1872 2.24691 30.3006 2.18788C30.414 2.12884 30.4983 2.24691 30.5705 2.31907C31.5763 3.31868 32.58 4.32203 33.5815 5.32913C33.6555 5.4041 33.7689 5.48001 33.7267 5.59902C33.6846 5.71804 33.5487 5.71335 33.4409 5.71335C32.4897 5.71335 31.5385 5.71335 30.5874 5.71335C30.3062 5.71335 30.2125 5.55404 30.2209 5.29071C30.2322 4.80903 30.2256 4.32547 30.2247 3.84191Z" fill="#839D1C"/>
<path d="M17.9733 12.9805C17.9733 13.51 17.9733 14.0395 17.9733 14.568C17.9733 14.8595 17.8421 14.9935 17.5498 14.9944C16.071 15.001 16.3034 15.1013 16.2884 13.8652C16.279 13.0714 16.294 12.2777 16.2884 11.4839C16.2884 11.1466 16.4177 11.0154 16.7569 11.0238C18.1383 11.0576 17.9555 10.8251 17.9752 12.1868C17.9752 12.4511 17.9752 12.7163 17.9752 12.9805H17.9733Z" fill="#839D1C"/>
</g>
<defs>
<clipPath id="clip0_39141_315519">
<rect width="38.8018" height="45" fill="white" transform="translate(3.91602 0.933594)"/>
</clipPath>
</defs>
</svg>
