<svg width="47" height="47" viewBox="0 0 47 47" fill="none" xmlns="http://www.w3.org/2000/svg">
<g clip-path="url(#clip0_39028_358281)">
<g clip-path="url(#clip1_39028_358281)">
<path d="M32.886 11.0981C32.9601 11.1637 33.0576 11.2396 33.1438 11.3267C35.4871 13.6666 37.8291 16.007 40.1699 18.3481C40.5234 18.7024 40.5112 18.7389 40.0658 18.9648C37.7773 20.125 36.8509 22.6376 37.8719 24.9581C38.3248 25.989 39.0983 26.7191 40.1024 27.2008C40.4409 27.3639 40.4849 27.5016 40.213 27.7716C37.8341 30.1408 35.459 32.515 33.0876 34.8942C33.0126 34.9692 32.9385 35.091 32.8232 35.0591C32.661 35.0151 32.7182 34.8529 32.7163 34.7386C32.676 32.7565 31.9878 31.0498 30.5402 29.6778C30.2665 29.4173 30.304 29.2448 30.5309 28.9805C31.923 27.3868 32.6937 25.3448 32.7013 23.229C32.7341 20.9798 32.0356 18.9554 30.5656 17.231C30.2908 16.9086 30.2908 16.724 30.5984 16.4297C32.0047 15.0858 32.661 13.4101 32.7135 11.4832C32.7257 11.1252 32.7341 11.0934 32.886 11.0981Z" fill="#2C81D7"/>
<path d="M15.0893 16.847C15.0326 16.9445 14.97 17.0383 14.9018 17.1282C13.569 18.6665 12.8016 20.6136 12.7267 22.6473C12.6329 24.8234 13.2132 26.8159 14.5465 28.5675C15.1277 29.3313 15.1399 29.3491 14.5174 30.0389C13.3192 31.3622 12.7501 32.9245 12.7032 34.6882C12.7032 34.8101 12.751 34.976 12.6348 35.0378C12.4754 35.1231 12.3901 34.9441 12.2972 34.8504C9.94148 32.5043 7.58633 30.1551 5.23181 27.8027C4.97023 27.5422 4.92241 27.3922 5.31525 27.1982C7.00942 26.3613 7.94041 24.9705 7.94041 23.0915C7.94041 21.1909 7.01129 19.7917 5.29744 18.9491C4.92898 18.7673 4.96835 18.6192 5.21587 18.3727C7.58414 16.0142 9.94992 13.6528 12.3132 11.2885C12.3966 11.2051 12.4735 11.0543 12.6141 11.1095C12.7548 11.1648 12.7004 11.3279 12.7023 11.4441C12.7435 13.4122 13.4458 15.0935 14.8587 16.4731C15.0884 16.698 15.0921 16.7158 15.0893 16.847Z" fill="#2C81D7"/>
<path d="M14.1479 39.6335C14.1479 37.9625 14.1395 36.2915 14.1479 34.6205C14.1528 33.1903 14.7237 31.8201 15.7359 30.8092C16.7481 29.7983 18.1193 29.2288 19.5501 29.2251C21.0952 29.2092 22.644 29.3189 24.1854 29.1539C26.8162 28.8728 29.0607 26.7632 29.506 24.154C29.7859 22.5738 29.4358 20.9469 28.5305 19.6216C27.6252 18.2963 26.2368 17.378 24.6626 17.0633C24.0176 16.9321 23.3613 16.9302 22.704 16.9161C21.3165 16.888 19.9186 17.0614 18.5413 16.8224C16.0605 16.3922 14.162 14.1486 14.1498 11.6398C14.132 8.14217 14.1498 4.64365 14.1348 1.14325C14.1348 0.708398 14.281 0.568758 14.702 0.574381C15.9977 0.593125 15.7867 0.507841 15.7896 1.64184C15.7989 4.8742 15.7896 8.10843 15.7952 11.3399C15.8008 13.1936 16.8715 14.6341 18.5825 15.1158C18.9899 15.2278 19.4108 15.2826 19.8332 15.2789C21.098 15.2789 22.3647 15.2714 23.6294 15.2789C27.7547 15.306 31.2386 18.8008 31.2611 22.9244C31.2865 27.4032 27.8494 30.8587 23.3622 30.8671C22.1593 30.8671 20.9555 30.8624 19.7526 30.8671C17.4397 30.8802 15.8008 32.5175 15.7952 34.8351C15.7867 38.1931 15.7952 41.5501 15.7952 44.908C15.7952 45.5538 15.7896 45.5641 15.1389 45.5641C13.9754 45.5641 14.1498 45.5987 14.1451 44.595C14.1413 42.9493 14.147 41.2886 14.1479 39.6335Z" fill="#2C81D7"/>
<path d="M42.0487 26.2017C40.257 26.2017 38.8995 24.8522 38.9004 23.0725C38.9013 21.2928 40.2617 19.9516 42.0581 19.9535C42.4731 19.947 42.8852 20.0231 43.2704 20.1775C43.6556 20.3318 44.0063 20.5614 44.3018 20.8526C44.5974 21.1439 44.8319 21.491 44.9918 21.8739C45.1517 22.2567 45.2338 22.6675 45.2331 23.0824C45.2325 23.4973 45.1493 23.9078 44.9882 24.2902C44.8272 24.6726 44.5915 25.019 44.2951 25.3094C43.9987 25.5998 43.6474 25.8282 43.2617 25.9814C42.876 26.1346 42.4637 26.2095 42.0487 26.2017Z" fill="#2C81D7"/>
<path d="M3.32067 26.2014C2.49191 26.1947 1.69943 25.8607 1.11612 25.2721C0.532811 24.6836 0.206016 23.8884 0.207034 23.0599C0.216409 21.3252 1.63306 19.9466 3.40036 19.9531C5.16766 19.9597 6.5243 21.3289 6.51399 23.1162C6.50368 24.8781 5.12453 26.2098 3.32067 26.2014Z" fill="#2C81D7"/>
<path d="M31.2672 39.6532C31.2672 41.4339 31.255 43.2145 31.2765 44.9877C31.2822 45.4413 31.1284 45.5866 30.6849 45.5791C29.4239 45.5575 29.6236 45.6362 29.6208 44.535C29.612 41.3536 29.612 38.1715 29.6208 34.9888C29.6208 33.5746 29.1642 32.39 27.951 31.5747C27.6829 31.3938 27.6932 31.2645 27.9688 31.1061C28.2349 30.9746 28.4864 30.8154 28.7189 30.6309C29.0611 30.3254 29.2936 30.4285 29.5842 30.7125C30.6915 31.794 31.2653 33.0939 31.2718 34.6411C31.27 36.315 31.2672 37.985 31.2672 39.6532Z" fill="#2C81D7"/>
<path d="M31.2673 6.52037C31.2673 8.19137 31.2673 9.86331 31.2673 11.5343C31.2673 13.1275 30.6392 14.4396 29.4916 15.5221C29.2647 15.7367 29.08 15.8032 28.8081 15.5848C28.5316 15.3807 28.2419 15.195 27.9409 15.0291C27.7327 14.9044 27.6596 14.7807 27.9024 14.6195C29.2469 13.7339 29.6388 12.4265 29.6266 10.8952C29.6013 7.67779 29.6191 4.46043 29.6191 1.24213C29.6191 0.593592 29.6257 0.586094 30.2754 0.586094C31.4398 0.586094 31.2655 0.55048 31.2701 1.55327C31.2739 3.20928 31.2683 4.86435 31.2673 6.52037Z" fill="#2C81D7"/>
<path d="M16.4634 17.6484C16.9669 17.8274 17.4713 17.9586 17.927 18.1873C18.1829 18.3157 17.9026 18.4685 17.8004 18.5678C17.0841 19.2398 16.5028 20.0064 16.1944 20.9464C15.3815 23.4243 15.8437 25.6164 17.701 27.4814C18.1435 27.9256 18.1482 27.9191 17.5398 28.1112C17.4066 28.1543 17.2744 28.2049 17.1441 28.2537C16.3312 28.5685 16.3322 28.5685 15.7818 27.8516C13.5401 24.9266 13.5842 21.0148 15.8962 18.1555C16.0593 17.9558 16.2056 17.7234 16.4634 17.6484Z" fill="#2C81D7"/>
<path d="M22.711 22.2342C24.319 22.2342 25.9269 22.2455 27.5348 22.2267C27.9951 22.2211 28.1742 22.3776 28.178 22.8471C28.1873 23.923 28.2051 23.923 27.1551 23.923H18.0214C17.2788 23.923 17.2507 23.894 17.2441 23.1733C17.2441 23.1414 17.2441 23.1105 17.2441 23.0795C17.2441 22.2558 17.262 22.2361 18.0748 22.2361L22.711 22.2342Z" fill="#2C81D7"/>
<path d="M22.708 20.8322C21.2876 20.8322 19.8672 20.8322 18.4468 20.8322C18.2808 20.8322 18.0596 20.8912 17.978 20.7075C17.8964 20.5239 18.0718 20.3908 18.1796 20.2624C19.1603 19.06 20.3913 18.3608 21.9795 18.3786C22.557 18.3861 23.1355 18.3618 23.7121 18.3861C25.2394 18.4499 26.4029 19.1893 27.3142 20.3748C27.3883 20.4686 27.497 20.5829 27.4389 20.7085C27.3686 20.8584 27.1989 20.8313 27.0639 20.8322C25.6119 20.8322 24.16 20.8322 22.708 20.8322Z" fill="#2C81D7"/>
<path d="M22.744 25.3265C24.1504 25.3265 25.5567 25.3265 26.963 25.3265C27.1281 25.3265 27.3456 25.2656 27.4318 25.4427C27.5181 25.6199 27.3446 25.7604 27.2443 25.887C26.2683 27.0922 25.0382 27.7941 23.45 27.7791C22.9194 27.7745 22.3887 27.7791 21.8562 27.7791C20.2867 27.7613 19.0857 27.0294 18.135 25.8326C18.0506 25.7258 17.9203 25.6021 17.9765 25.4624C18.0469 25.2862 18.2409 25.3293 18.3909 25.3284C19.8417 25.3259 21.2927 25.3253 22.744 25.3265Z" fill="#2C81D7"/>
<path d="M22.7053 2.90905C24.3282 2.90905 25.9521 2.91936 27.575 2.90249C28.0025 2.8978 28.1966 3.00558 28.1816 3.47698C28.1422 4.72907 28.3147 4.54538 27.1118 4.54913C24.0179 4.55756 20.9314 4.54257 17.8403 4.56131C17.364 4.56131 17.2168 4.41979 17.2337 3.94933C17.2731 2.80877 17.1034 2.9128 18.2575 2.90999C19.7398 2.90624 21.223 2.90905 22.7053 2.90905Z" fill="#2C81D7"/>
<path d="M22.6945 7.64523C21.0556 7.64523 19.413 7.63399 17.7779 7.65273C17.3729 7.65273 17.2257 7.53371 17.2369 7.11947C17.2697 5.86176 17.0944 6.00609 18.3226 6.00422C21.3966 5.99859 24.4714 5.99859 27.5473 6.00422C28.1623 6.00422 28.1773 6.01734 28.1735 6.63494C28.167 7.79518 28.2926 7.63774 27.19 7.6443C25.689 7.65086 24.1945 7.64523 22.6945 7.64523Z" fill="#2C81D7"/>
<path d="M22.6594 10.738C21.0365 10.738 19.4136 10.724 17.7897 10.7465C17.3528 10.7521 17.2272 10.5993 17.2347 10.1795C17.2675 8.96863 17.0931 9.0989 18.3063 9.09703C21.3646 9.09266 24.4236 9.09266 27.4831 9.09703C28.1704 9.09703 28.1751 9.09703 28.1713 9.7615C28.1647 10.8749 28.2848 10.7334 27.2019 10.738C25.6877 10.7427 24.1736 10.738 22.6594 10.738Z" fill="#2C81D7"/>
<path d="M22.708 37.0576C21.1004 37.0576 19.4928 37.0576 17.8852 37.0576C17.2551 37.0576 17.2392 37.0454 17.2439 36.4418C17.2514 35.26 17.1145 35.4203 18.2593 35.4184C21.3654 35.4109 24.4715 35.4259 27.5767 35.4062C28.0567 35.4062 28.1983 35.5534 28.1824 36.0201C28.143 37.1588 28.3118 37.051 27.1567 37.0576C25.6735 37.0604 24.1949 37.0576 22.708 37.0576Z" fill="#2C81D7"/>
<path d="M22.7095 40.1523C21.0857 40.1523 19.4627 40.142 17.8398 40.1588C17.4114 40.1588 17.2182 40.0539 17.2332 39.5834C17.2726 38.3322 17.1001 38.5159 18.3039 38.5122C21.3979 38.5037 24.4852 38.5187 27.5754 38.5C28.0527 38.5 28.198 38.6434 28.182 39.1129C28.1417 40.2525 28.3114 40.1485 27.1573 40.1513C25.675 40.1551 24.1946 40.1523 22.7095 40.1523Z" fill="#2C81D7"/>
<path d="M22.7002 43.2452C21.0773 43.2452 19.4544 43.2339 17.8305 43.2527C17.3936 43.2527 17.2183 43.1299 17.2333 42.6688C17.2717 41.4261 17.0992 41.6088 18.3106 41.6051C21.3698 41.5967 24.4291 41.6051 27.4883 41.6051C28.1699 41.6051 28.1746 41.6051 28.1709 42.2611C28.1652 43.322 28.2993 43.2442 27.1958 43.2452C25.6976 43.2464 24.1991 43.2464 22.7002 43.2452Z" fill="#2C81D7"/>
<path d="M22.7156 33.9663C21.1405 33.9663 19.5645 33.9663 17.9894 33.9663C17.8122 33.9663 17.5759 34.0376 17.485 33.8267C17.4034 33.6392 17.5665 33.4734 17.6725 33.3253C18.1412 32.6777 18.776 32.3291 19.5832 32.3281C21.674 32.3281 23.7641 32.3281 25.8536 32.3281C26.6815 32.3281 27.3153 32.7161 27.7793 33.3871C27.8731 33.5221 28.0175 33.6683 27.9153 33.8501C27.8215 34.0094 27.634 33.9645 27.4868 33.9645C25.8977 33.9673 24.3066 33.9654 22.7156 33.9663Z" fill="#2C81D7"/>
<path d="M22.7541 12.1903C24.313 12.1903 25.8724 12.1903 27.4325 12.1903C27.6097 12.1903 27.8441 12.121 27.9332 12.3365C28.0044 12.5071 27.8601 12.6627 27.7616 12.7995C27.2928 13.4471 26.6722 13.8238 25.864 13.8304C23.7589 13.8385 21.6537 13.8385 19.5486 13.8304C18.7048 13.8304 18.0579 13.4246 17.6022 12.7255C17.3472 12.3337 17.4194 12.1978 17.8882 12.1959C19.5064 12.1866 21.1321 12.1903 22.7541 12.1903Z" fill="#2C81D7"/>
</g>
</g>
<defs>
<clipPath id="clip0_39028_358281">
<rect width="46.375" height="46.375" fill="white"/>
</clipPath>
<clipPath id="clip1_39028_358281">
<rect width="45" height="45" fill="white" transform="translate(0.207031 0.578125)"/>
</clipPath>
</defs>
</svg>
