<svg width="47" height="47" viewBox="0 0 47 47" fill="none" xmlns="http://www.w3.org/2000/svg">
<g clip-path="url(#clip0_39141_315525)">
<path d="M0.625726 22.6506C0.625726 16.8255 0.625726 11.0004 0.625726 5.17528C0.625726 2.66552 2.35095 0.93843 4.85607 0.9375C9.90595 0.9375 14.9565 0.9375 20.0076 0.9375C20.7996 0.9375 20.8005 0.937499 20.8005 1.74155C20.8005 5.28868 20.8005 8.83581 20.8005 12.3829C20.8005 14.9234 22.4067 16.5315 24.9602 16.5361C28.538 16.5426 32.1176 16.5361 35.6945 16.5361C36.3721 16.5361 36.4112 16.5724 36.4121 17.237C36.4121 19.282 36.4121 21.327 36.4121 23.372C36.4121 23.9706 36.3675 24.0078 35.7819 24.0022C29.4052 23.9427 24.3588 28.398 23.7462 34.7542C23.4264 38.0689 24.4387 41.0249 26.6417 43.5486C26.743 43.6657 26.8527 43.7763 26.9429 43.9018C27.0331 44.0273 27.2775 44.1147 27.1836 44.3043C27.1111 44.4484 26.9001 44.3768 26.7514 44.3768C19.3938 44.3768 12.0361 44.3768 4.67852 44.3768C2.36954 44.3768 0.630374 42.6228 0.628515 40.3054C0.622318 34.4189 0.621388 28.534 0.625726 22.6506ZM17.7125 23.5216H24.2602C24.4465 23.529 24.633 23.5212 24.818 23.4984C25.2381 23.4277 25.4166 23.1266 25.4361 22.739C25.4565 22.3309 25.2372 22.0585 24.8319 21.9814C24.6323 21.9547 24.4307 21.9466 24.2296 21.9572C19.896 21.9572 15.5622 21.9572 11.2281 21.9572C11.042 21.9493 10.8555 21.9555 10.6703 21.9758C10.2837 22.0344 10.0671 22.2695 10.0364 22.6618C9.99271 23.1991 10.3153 23.5179 10.9343 23.5198C13.1931 23.5216 15.4528 23.517 17.7125 23.517V23.5216ZM16.2058 31.1727H11.9847C11.598 31.1727 11.2104 31.1606 10.8246 31.1829C10.3599 31.2099 10.0485 31.5203 10.0336 31.9349C10.0169 32.3876 10.3022 32.7148 10.7772 32.7845C10.8698 32.7956 10.963 32.7996 11.0561 32.7966C14.4898 32.7966 17.9236 32.7966 21.3573 32.7966C21.4653 32.7996 21.5733 32.7918 21.6798 32.7733C22.1046 32.6869 22.3863 32.3597 22.3649 31.9628C22.3417 31.5324 22.086 31.2851 21.6798 31.2024C21.5117 31.1763 21.3414 31.167 21.1714 31.1745C19.5162 31.169 17.861 31.1668 16.2058 31.168V31.1727Z" fill="#FDB913"/>
<path d="M45.6263 35.7796C45.6263 41.3569 41.0279 45.9395 35.4292 45.9349C29.9449 45.9349 25.2638 41.237 25.2656 35.7443C25.2656 30.1764 29.8864 25.5724 35.4701 25.5742C41.0539 25.5761 45.6272 30.1801 45.6263 35.7796ZM36.2296 37.0085C36.2296 35.8931 36.2296 34.7776 36.2296 33.6622C36.2296 33.5302 36.1756 33.3508 36.3365 33.2903C36.4973 33.2299 36.5772 33.3963 36.672 33.4893C37.0438 33.8611 37.4157 34.2329 37.7875 34.6047C38.216 35.0258 38.7263 35.0909 39.0647 34.773C39.403 34.455 39.3798 33.9364 38.9513 33.5004C37.9907 32.5355 37.0206 31.58 36.0409 30.6337C35.6495 30.2535 35.2368 30.248 34.852 30.6253C33.8611 31.602 32.877 32.5867 31.8998 33.5794C31.5112 33.9736 31.4936 34.4625 31.8207 34.773C32.1479 35.0834 32.6573 35.0369 33.0292 34.68C33.401 34.3231 33.7486 33.955 34.1158 33.5999C34.2441 33.4762 34.3593 33.2401 34.5517 33.3089C34.7618 33.3842 34.6624 33.6361 34.6624 33.809C34.6689 35.947 34.6624 38.0849 34.6698 40.2173C34.6698 40.801 34.9905 41.171 35.4562 41.1663C35.9451 41.1663 36.224 40.8271 36.2277 40.2145C36.2324 39.1446 36.2286 38.0812 36.2296 37.0085Z" fill="#FDB913"/>
<path d="M30.0191 14.9674H25.0926C24.0524 14.9674 23.1684 14.6662 22.6442 13.6828C22.4631 13.3392 22.3714 12.9556 22.3774 12.5673C22.3774 9.09705 22.3774 5.62831 22.3774 2.16112C22.3774 1.99845 22.3095 1.77257 22.4945 1.69635C22.6795 1.62013 22.7957 1.8237 22.9109 1.9371C24.6417 3.64374 26.3695 5.35378 28.0941 7.06724C30.364 9.32974 32.6293 11.5975 34.8899 13.8705C35.0758 14.0565 35.2525 14.2526 35.4226 14.4534C35.5155 14.5658 35.6856 14.683 35.5964 14.8475C35.5072 15.012 35.3222 14.9618 35.1707 14.9637C34.7217 14.9693 34.2718 14.9637 33.8228 14.9637L30.0191 14.9674Z" fill="#FDB913"/>
</g>
<defs>
<clipPath id="clip0_39141_315525">
<rect width="45" height="45" fill="white" transform="translate(0.625 0.933594)"/>
</clipPath>
</defs>
</svg>
