<svg width="61" height="61" viewBox="0 0 61 61" fill="none" xmlns="http://www.w3.org/2000/svg">
<g clip-path="url(#clip0_20837_5592)">
<g clip-path="url(#clip1_20837_5592)">
<path d="M31.0554 3.99997C39.3734 3.99997 47.6913 3.99997 56.0093 3.99997C59.0864 3.99997 61.0001 5.9261 61.0001 9.0235C61.0001 23.1879 61.0001 37.3534 61.0001 51.5199C61.0001 54.5971 59.0724 56.5107 55.9765 56.5107C39.3157 56.5107 22.6548 56.5107 5.99395 56.5107C2.91682 56.5107 1.00317 54.5815 1.00317 51.4856C1.00317 37.3201 1.00317 23.1547 1.00317 8.98919C1.00317 5.91206 2.93086 3.99841 6.02826 3.99841C14.3701 3.99841 22.7125 3.99893 31.0554 3.99997ZM31.018 5.98069H6.38385C4.05846 5.98069 2.98232 7.05058 2.98232 9.36349C2.98232 23.2961 2.98232 37.224 2.98232 51.1472C2.98232 53.4585 4.06002 54.5284 6.38541 54.5284C22.7811 54.5284 39.1779 54.5284 55.5757 54.5284C57.951 54.5284 59.0162 53.4694 59.0162 51.1066C59.0162 37.2042 59.0162 23.3018 59.0162 9.39936C59.0162 7.03655 57.9526 5.98069 55.5726 5.98069H31.018Z" fill="#007AFF"/>
<path d="M23.5131 17.21C18.9132 17.21 14.3139 17.21 9.71514 17.21C7.73443 17.21 6.6193 16.1011 6.6115 14.1375C6.6115 13.5402 6.59903 12.9428 6.6115 12.3455C6.65517 10.814 7.81552 9.6271 9.35331 9.62398C18.7859 9.6115 28.2184 9.6115 37.651 9.62398C39.1919 9.62398 40.3554 10.8062 40.399 12.3377C40.4177 13.013 40.4115 13.6899 40.399 14.3652C40.3741 16.034 39.2153 17.2022 37.5387 17.2068C32.8671 17.2172 28.1919 17.2183 23.5131 17.21Z" fill="#007AFF"/>
<path d="M23.4709 28.4392H9.74626C7.71876 28.4392 6.61611 27.3475 6.60987 25.32C6.60987 24.7491 6.60051 24.1768 6.60987 23.6044C6.64886 22.0292 7.8139 20.8501 9.39847 20.8485C18.804 20.8371 28.2106 20.8371 37.6182 20.8485C39.2012 20.8485 40.3631 22.0323 40.399 23.6106C40.4146 24.2594 40.4099 24.9098 40.399 25.5586C40.3756 27.2742 39.2199 28.4314 37.4918 28.4345C32.8223 28.4449 28.1487 28.4465 23.4709 28.4392Z" fill="#007AFF"/>
<path d="M23.5458 32.0731H37.2704C39.3104 32.0731 40.4083 33.1648 40.4161 35.1829C40.4161 35.7023 40.4161 36.2217 40.4161 36.7426C40.3974 38.5065 39.2495 39.6637 37.4778 39.6653C30.4367 39.6715 23.395 39.6715 16.3528 39.6653C14.0929 39.6653 11.8299 39.6653 9.57159 39.6653C7.79675 39.6653 6.64108 38.5096 6.62236 36.7535C6.62236 36.1562 6.61456 35.5573 6.62236 34.9599C6.6442 33.2443 7.79987 32.0793 9.52169 32.0762C14.1953 32.0668 18.87 32.0658 23.5458 32.0731Z" fill="#007AFF"/>
<path d="M23.5411 43.3023C28.1159 43.3023 32.6908 43.3023 37.2657 43.3023C39.3369 43.3023 40.4114 44.3941 40.4161 46.484C40.4161 46.9784 40.4161 47.4712 40.4161 47.9656C40.399 49.7326 39.2527 50.893 37.484 50.8945C30.9108 50.9018 24.337 50.9018 17.7627 50.8945C15.0599 50.8945 12.3571 50.8945 9.65269 50.8945C7.7406 50.8945 6.62547 49.7591 6.61768 47.8299C6.61768 47.2856 6.61768 46.7382 6.61768 46.1939C6.63951 44.4783 7.79207 43.3086 9.51076 43.3039C14.1875 43.2956 18.8643 43.2951 23.5411 43.3023Z" fill="#007AFF"/>
<path d="M44.0455 30.1735C44.0455 23.8591 44.0455 17.5453 44.0455 11.2319C44.03 10.9464 44.0436 10.66 44.0861 10.3773C44.1906 9.88131 44.5337 9.6271 45.039 9.63022C45.5443 9.63334 45.8843 9.89067 45.9841 10.3866C46.0253 10.669 46.0384 10.9548 46.0231 11.2397C46.0231 23.9246 46.0231 36.6048 46.0231 49.2803C46.0231 49.3848 46.0231 49.4878 46.0231 49.5923C46.0075 50.4703 45.6862 50.8883 45.0281 50.8852C44.3699 50.8821 44.0455 50.4672 44.044 49.5829C44.0429 43.1136 44.0434 36.6438 44.0455 30.1735Z" fill="#007AFF"/>
<path d="M50.68 17.199C49.9189 17.2193 47.7713 15.0639 47.7993 14.3106C47.8 14.1664 47.833 14.0242 47.896 13.8944C47.9589 13.7647 48.0502 13.6507 48.163 13.5609C48.2759 13.4711 48.4074 13.4078 48.548 13.3756C48.6886 13.3434 48.8346 13.3431 48.9753 13.3749C49.2292 13.4341 49.4621 13.5613 49.6491 13.7429C50.7221 14.6647 50.7236 14.6631 51.7155 13.6696C52.2848 13.1004 52.8463 12.5249 53.4311 11.9697C54.016 11.4144 54.6507 11.3364 55.0859 11.7513C55.521 12.1662 55.482 12.8337 54.9299 13.4029C53.8241 14.5352 52.6965 15.6457 51.5767 16.7639C51.4644 16.8932 51.327 16.9984 51.1728 17.0732C51.0187 17.148 50.8511 17.1908 50.68 17.199Z" fill="#007AFF"/>
<path d="M50.6333 28.4282C50.5158 28.4362 50.3978 28.4205 50.2864 28.3822C50.175 28.3439 50.0724 28.2837 49.9845 28.2052C49.3139 27.5564 48.6277 26.9185 48.0163 26.2167C47.9312 26.1248 47.8654 26.0167 47.8228 25.8989C47.7802 25.7811 47.7617 25.656 47.7684 25.5309C47.7751 25.4058 47.8069 25.2833 47.8618 25.1708C47.9167 25.0582 47.9936 24.9577 48.088 24.8754C48.4967 24.4746 48.9786 24.5152 49.4433 24.8146C49.5503 24.8881 49.6492 24.9728 49.7381 25.0673C50.7409 26.1122 50.624 25.9812 51.5831 25.0392C52.207 24.4154 52.823 23.7915 53.4547 23.1755C54.0302 22.6265 54.6899 22.5797 55.1079 23.0195C55.5258 23.4593 55.4619 24.0754 54.9347 24.6165C53.8181 25.7691 52.678 26.8967 51.5317 28.0321C51.4182 28.1575 51.2795 28.2576 51.1247 28.3259C50.9699 28.3942 50.8025 28.429 50.6333 28.4282Z" fill="#007AFF"/>
<path d="M50.6191 39.6575C50.3818 39.6688 50.1497 39.5858 49.9734 39.4267C49.3199 38.8028 48.654 38.179 48.052 37.499C47.6667 37.0654 47.6558 36.518 48.0987 36.0953C48.5417 35.6727 49.0345 35.7741 49.5211 36.0953C49.9594 36.3776 50.1746 37.1668 50.7688 36.9562C51.2367 36.7909 51.5814 36.2575 51.9697 35.8785C52.4906 35.3717 52.9866 34.8398 53.52 34.347C54.0534 33.8542 54.7396 33.8167 55.1092 34.269C55.549 34.804 55.4289 35.3452 54.9782 35.8052C53.8413 36.9625 52.6778 38.1166 51.5221 39.2692C51.4083 39.3949 51.2687 39.4946 51.1129 39.5616C50.9571 39.6286 50.7886 39.6613 50.6191 39.6575Z" fill="#007AFF"/>
<path d="M48.768 47.0564C49.3622 47.047 49.7146 47.4572 50.05 47.844C50.4726 48.3321 50.8048 48.3321 51.2478 47.844C51.9496 47.0813 52.6982 46.3608 53.4452 45.6418C54.0239 45.085 54.6727 45.0289 55.0984 45.4593C55.5242 45.8898 55.4665 46.5354 54.9019 47.1125C53.8102 48.2245 52.7185 49.3287 51.6002 50.4127C50.9265 51.0693 50.3837 51.0646 49.7037 50.4127C49.1407 49.8761 48.5933 49.3209 48.0677 48.7501C47.9216 48.5981 47.8265 48.4045 47.7955 48.196C47.7645 47.9875 47.7991 47.7745 47.8946 47.5866C47.971 47.4214 48.0948 47.2828 48.2504 47.1883C48.406 47.0939 48.5862 47.0479 48.768 47.0564Z" fill="#007AFF"/>
</g>
</g>
<defs>
<clipPath id="clip0_20837_5592">
<rect width="60.8091" height="60.8091" fill="white" transform="translate(0.135498)"/>
</clipPath>
<clipPath id="clip1_20837_5592">
<rect width="60" height="52.5138" fill="white" transform="translate(1 4)"/>
</clipPath>
</defs>
</svg>
