<svg width="62" height="62" viewBox="0 0 62 62" fill="none" xmlns="http://www.w3.org/2000/svg">
<g clip-path="url(#clip0_4253_29138)">
<path d="M56.6208 23.6544C56.6208 24.5311 56.6208 25.4106 56.6208 26.2873C56.6208 26.3563 56.5489 26.4195 56.3333 26.477C55.87 26.5782 55.3961 26.6226 54.922 26.6092C53.8902 26.6092 52.8525 26.6092 51.8235 26.6092C50.6508 26.6092 49.9236 26.4684 49.9121 26.3218C49.9006 26.1752 49.9121 26.0343 49.9121 25.8791V21.0186C49.9149 21.0005 49.9149 20.9821 49.9121 20.964C49.9121 20.9295 50.0069 20.9152 50.2254 20.9152H56.3218C56.5432 20.9152 56.638 20.9152 56.6265 20.964C56.615 21.0129 56.6265 21.0014 56.6265 21.0186L56.6208 23.6544Z" fill="#21CDE4"/>
<path d="M11.8963 21.6596V36.3359C11.8963 36.8677 11.8963 36.8706 11.3646 36.8706H5.64752C5.19338 36.8706 5.18188 36.8706 5.18188 36.4049C5.18188 26.6092 5.18188 16.8135 5.18188 7.01782C5.18188 6.03192 5.80561 4.93968 7.19391 5.00579C8.13382 5.04603 9.0766 5.00579 10.0194 5.00579C10.2638 4.99756 10.5073 5.03915 10.7351 5.12802C10.9629 5.2169 11.1702 5.3512 11.3444 5.52275C11.5187 5.6943 11.6562 5.89952 11.7486 6.12591C11.841 6.3523 11.8864 6.59513 11.8819 6.83961C11.8963 7.96635 11.8819 9.09021 11.8819 10.2169L11.8963 21.6596Z" fill="#21CDE4"/>
<path d="M41.3898 16.3795V26.2068C41.3898 26.6092 41.3898 26.6092 40.8724 26.6092H35.1899C34.6811 26.6092 34.6782 26.6092 34.6782 26.2011C34.6782 20.4294 34.6782 14.6597 34.6782 8.89188C34.6782 8.13593 34.6782 7.37999 34.6782 6.62404C34.6782 5.59503 35.4198 5.01154 36.6903 5.00867H39.4324C40.6568 5.00867 41.3984 5.58353 41.3984 6.5723C41.3984 8.8114 41.3984 11.0505 41.3984 13.2896L41.3898 16.3795Z" fill="#21CDE4"/>
<path d="M27.1246 42.6134C27.1246 46.6777 27.1246 50.743 27.1246 54.8092C27.1438 55.2356 27.0325 55.6578 26.8055 56.0193C26.6596 56.2616 26.4522 56.461 26.2043 56.5973C25.9565 56.7336 25.677 56.802 25.3942 56.7954C24.371 56.7954 23.3477 56.7494 22.3273 56.7954C22.0776 56.8056 21.8284 56.7647 21.5949 56.6754C21.3615 56.5861 21.1487 56.4501 20.9696 56.2758C20.7904 56.1015 20.6487 55.8925 20.553 55.6616C20.4573 55.4307 20.4097 55.1827 20.413 54.9328C20.413 54.8178 20.413 54.7029 20.413 54.5879V30.4435C20.413 30.3286 20.413 30.2136 20.413 30.0986C20.413 29.8831 20.5021 29.7911 20.7234 29.7911C22.7546 29.7911 24.7868 29.7911 26.8199 29.7911C27.0441 29.7911 27.1303 29.8802 27.1274 30.0958C27.1274 30.4062 27.1274 30.7166 27.1274 31.027L27.1246 42.6134Z" fill="#21CDE4"/>
<path d="M27.1246 13.692V20.4754C27.1246 20.9554 27.1246 20.9583 26.6503 20.9583C24.7216 20.9583 22.793 20.9583 20.8643 20.9583C20.5222 20.9583 20.4044 20.8635 20.4073 20.5128C20.4073 16.0116 20.4073 11.5085 20.4073 7.00346C20.4073 5.99745 21.0454 4.92245 22.4193 4.99144C23.3477 5.03168 24.279 4.99144 25.2074 4.99144C25.461 4.97641 25.7148 5.01523 25.9523 5.10535C26.1898 5.19548 26.4055 5.33486 26.5852 5.51433C26.765 5.6938 26.9047 5.9093 26.9952 6.14664C27.0856 6.38398 27.1249 6.63778 27.1102 6.89136C27.1303 9.17071 27.1246 11.4328 27.1246 13.692Z" fill="#21CDE4"/>
<path d="M8.34935 44.5105H3.94013C3.6837 44.5253 3.42702 44.486 3.18676 44.3952C2.94651 44.3043 2.72806 44.1639 2.54562 43.9831C2.36317 43.8023 2.22082 43.5851 2.1278 43.3456C2.03478 43.1062 1.99319 42.8499 2.00572 42.5933C2.00572 41.7119 2.00572 40.8275 2.00572 39.9403C1.99294 39.6863 2.03356 39.4325 2.12495 39.1951C2.21634 38.9578 2.35648 38.7422 2.53632 38.5624C2.71616 38.3825 2.9317 38.2424 3.16904 38.151C3.40638 38.0596 3.66025 38.019 3.91426 38.0318C6.85566 38.0318 9.79513 38.0318 12.7327 38.0318C13.9025 38.0318 14.6441 38.782 14.6527 39.9518C14.6527 40.8371 14.6527 41.7195 14.6527 42.6048C14.6527 43.7546 13.8853 44.5105 12.7212 44.5105H8.34935Z" fill="#21CDE4"/>
<path d="M23.773 28.604C22.2812 28.604 20.7895 28.604 19.2977 28.604C19.0589 28.6145 18.8204 28.5764 18.5967 28.4921C18.373 28.4078 18.1687 28.279 17.9962 28.1135C17.8237 27.948 17.6866 27.7492 17.5931 27.5292C17.4996 27.3091 17.4518 27.0724 17.4524 26.8334C17.4236 25.8705 17.4265 24.9047 17.4524 23.9418C17.4508 23.6995 17.4989 23.4594 17.5937 23.2364C17.6886 23.0134 17.8281 22.8121 18.0037 22.6452C18.1793 22.4782 18.3873 22.3489 18.6148 22.2654C18.8423 22.1819 19.0845 22.146 19.3264 22.1597H28.0356C29.3665 22.1597 30.0276 22.7346 30.1023 24.0568C30.154 25.0024 30.1167 25.9567 30.1023 26.9052C30.0932 27.1448 30.0362 27.3801 29.9348 27.5973C29.8333 27.8144 29.6894 28.0091 29.5116 28.1698C29.3337 28.3306 29.1255 28.4541 28.8991 28.5331C28.6728 28.6121 28.433 28.645 28.1937 28.6298C26.7135 28.5666 25.2418 28.604 23.773 28.604Z" fill="#21CDE4"/>
<path d="M53.258 19.7281H48.7798C48.5406 19.7404 48.3014 19.7033 48.0772 19.6191C47.8529 19.5349 47.6484 19.4055 47.4764 19.2388C47.3044 19.0722 47.1685 18.8719 47.0772 18.6505C46.986 18.4291 46.9413 18.1912 46.9459 17.9517C46.921 16.9936 46.921 16.0288 46.9459 15.0573C46.9489 14.8187 46.9993 14.583 47.0944 14.3641C47.1894 14.1452 47.3271 13.9474 47.4994 13.7823C47.6718 13.6172 47.8753 13.4881 48.0981 13.4025C48.3208 13.3169 48.5585 13.2766 48.797 13.2838H57.7563C57.9957 13.2744 58.2345 13.314 58.4581 13.4001C58.6817 13.4863 58.8853 13.6172 59.0565 13.7849C59.2277 13.9526 59.3628 14.1535 59.4536 14.3752C59.5443 14.597 59.5888 14.835 59.5843 15.0745C59.6016 16.0288 59.5843 16.9802 59.5843 17.9489C59.5745 18.4292 59.3748 18.886 59.029 19.2195C58.6832 19.5529 58.2194 19.7358 57.739 19.7281C56.2472 19.6792 54.7526 19.7281 53.258 19.7281Z" fill="#21CDE4"/>
<path d="M11.8934 50.5667C11.8934 52.024 11.8934 53.4813 11.8934 54.9385C11.8993 55.2156 11.8442 55.4905 11.7319 55.7439C11.6196 55.9972 11.453 56.2227 11.2438 56.4044C10.9517 56.6719 10.5676 56.816 10.1717 56.8068C9.16279 56.8068 8.15964 56.7551 7.14213 56.8068C5.8803 56.8845 5.17609 55.8353 5.17896 54.8523C5.17896 52.8403 5.17896 50.8282 5.17896 48.8162C5.17896 47.8993 5.17896 46.9795 5.17896 46.0626C5.17896 45.7752 5.26808 45.6545 5.57275 45.6573C7.54454 45.6573 9.51824 45.6573 11.4939 45.6573C11.8158 45.6573 11.902 45.7752 11.902 46.0827C11.8876 47.5745 11.902 49.0663 11.902 50.5581L11.8934 50.5667Z" fill="#21CDE4"/>
<path d="M53.2636 12.1111C52.2893 12.1111 51.3149 12.1111 50.3376 12.1111C50.0099 12.1111 49.8978 11.999 49.9007 11.6713C49.9007 10.1106 49.9007 8.54696 49.9007 6.9862C49.9007 5.94569 50.5589 4.94543 51.9127 4.99716C52.8641 5.03165 53.8184 4.99716 54.7698 4.99716C55.0098 4.99023 55.2487 5.03161 55.4723 5.11885C55.696 5.20609 55.8998 5.33741 56.0717 5.505C56.2435 5.67259 56.38 5.87303 56.4728 6.0944C56.5657 6.31577 56.6131 6.55356 56.6122 6.79362C56.6324 8.45498 56.6122 10.1192 56.6122 11.7834C56.6122 12.0881 56.4427 12.1111 56.2156 12.1111H53.2522H53.2636Z" fill="#21CDE4"/>
<path d="M50.0502 55.1858C50.2169 55.8181 49.8432 56.1429 49.1591 56.2723C48.2968 56.4361 47.4575 56.6143 46.6125 56.8155C46.0376 56.9477 45.6525 56.7954 45.4627 56.2406C45.1063 55.1053 44.2843 54.5908 43.1633 54.4528C42.758 54.4039 42.3527 54.3235 41.9532 54.2344C41.5283 54.1246 41.0804 54.1436 40.6664 54.2889C40.2524 54.4343 39.8909 54.6994 39.6279 55.0507C39.1852 55.6054 38.7454 55.6255 38.1907 55.2662C37.4463 54.7719 36.6932 54.2947 35.9372 53.8291C35.8269 53.7778 35.729 53.703 35.6505 53.61C35.572 53.517 35.5148 53.408 35.4828 53.2906C35.4507 53.1732 35.4447 53.0502 35.4651 52.9303C35.4855 52.8103 35.5319 52.6962 35.6009 52.596C36.1011 51.6072 35.9631 50.6874 35.2819 49.8251C35.0576 49.5405 34.8531 49.2409 34.6697 48.9284C34.1264 48.0114 33.3446 47.5372 32.2667 47.6407C31.574 47.7096 31.2406 47.382 31.117 46.7381C30.956 45.9074 30.7864 45.0796 30.5939 44.2576C30.4501 43.6425 30.5939 43.2372 31.2435 43.0274C31.6767 42.9021 32.0636 42.6522 32.3559 42.3088C32.6483 41.9653 32.8331 41.5435 32.8876 41.0958C32.991 40.5037 33.1376 39.9145 33.2095 39.3166C33.2706 38.9194 33.2226 38.513 33.0707 38.141C32.9188 37.7689 32.6688 37.445 32.3472 37.204C31.804 36.7728 31.7723 36.3417 32.146 35.7668C32.6375 35.0511 33.0945 34.3095 33.5544 33.5737C33.8591 33.0908 34.2644 32.9155 34.7818 33.1885C35.8395 33.7462 36.7794 33.5306 37.6561 32.8149C37.9406 32.5914 38.2381 32.385 38.5471 32.1969C38.953 31.9755 39.2844 31.6392 39.4997 31.2301C39.715 30.8209 39.8046 30.3573 39.7572 29.8974C39.6997 29.1789 39.99 28.8282 40.6942 28.7075C41.5249 28.5695 42.347 28.3654 43.1719 28.1815C43.7468 28.0521 44.1434 28.2275 44.3561 28.8196C44.5006 29.2849 44.7824 29.6956 45.1646 29.9977C45.5468 30.2999 46.0114 30.4793 46.4975 30.5125C46.9518 30.5741 47.4027 30.6585 47.8484 30.7655C48.2705 30.8764 48.7162 30.8567 49.1268 30.7089C49.5374 30.5611 49.8934 30.2922 50.1479 29.9377C50.5762 29.3973 51.0476 29.3628 51.5994 29.7279C52.3439 30.2222 53.0883 30.7109 53.8414 31.1909C54.3042 31.4783 54.4508 31.8664 54.2007 32.3636C53.6603 33.4415 53.85 34.4073 54.606 35.3155C54.8675 35.6288 55.063 35.9968 55.3016 36.3302C55.8506 37.0948 56.5835 37.5173 57.5378 37.3822C58.219 37.2845 58.5323 37.5834 58.6588 38.1956C58.8485 39.0924 59.0382 39.9921 59.2336 40.8889C59.2702 40.9988 59.2831 41.1153 59.2716 41.2306C59.2601 41.3459 59.2245 41.4574 59.167 41.558C59.1095 41.6587 59.0314 41.746 58.9379 41.8145C58.8444 41.8829 58.7376 41.9309 58.6243 41.9552C58.143 42.0875 57.7154 42.3676 57.4019 42.7559C57.0883 43.1443 56.9046 43.6213 56.8767 44.1196C56.8247 44.5506 56.745 44.9779 56.6381 45.3987C56.512 45.8193 56.5183 46.2686 56.6561 46.6856C56.7939 47.1026 57.0565 47.4671 57.4084 47.7298C57.9833 48.2011 58.0552 48.6697 57.6212 49.2848C57.1038 50.012 56.641 50.7765 56.161 51.5296C56.1132 51.6285 56.0451 51.7161 55.961 51.7868C55.877 51.8574 55.779 51.9095 55.6734 51.9397C55.5678 51.9698 55.4571 51.9773 55.3484 51.9616C55.2398 51.9459 55.1356 51.9074 55.0429 51.8487C53.8931 51.2738 52.9044 51.4951 51.976 52.3201C51.5103 52.734 50.8895 52.9409 50.5043 53.4698C50.3155 53.7097 50.1778 53.9857 50.0997 54.2808C50.0216 54.5759 50.0047 54.8839 50.0502 55.1858ZM44.9224 34.985C42.9443 34.9704 41.0411 35.7407 39.63 37.127C38.2189 38.5134 37.415 40.4026 37.3945 42.3806C37.3808 43.3734 37.5636 44.3591 37.9324 45.281C38.3011 46.2029 38.8485 47.0428 39.5431 47.7523C40.2376 48.4619 41.0657 49.027 41.9795 49.4153C42.8933 49.8036 43.8749 50.0074 44.8678 50.0148C46.8465 50.0265 48.75 49.2574 50.1652 47.8745C51.5804 46.4915 52.3932 44.6063 52.4272 42.6278C52.4523 41.629 52.2763 40.6352 51.9098 39.7057C51.5433 38.7762 50.9936 37.9298 50.2936 37.2169C49.5935 36.5039 48.7573 35.939 47.8346 35.5556C46.9119 35.1722 45.9215 34.9781 44.9224 34.985Z" fill="#21CDE4"/>
<path d="M44.9798 36.5371C46.5559 36.5614 48.0587 37.207 49.1612 38.3337C50.2636 39.4604 50.8765 40.9768 50.8664 42.5531C50.8032 45.8212 48.0525 48.5116 44.8304 48.4512C43.2674 48.4141 41.7798 47.772 40.6807 46.6601C39.5817 45.5482 38.9569 44.0532 38.938 42.4899C38.9532 40.9003 39.5974 39.3816 40.7298 38.2659C41.8621 37.1503 43.3903 36.5287 44.9798 36.5371Z" fill="#21CDE4"/>
</g>
<defs>
<clipPath id="clip0_4253_29138">
<rect width="57.59" height="51.8615" fill="white" transform="translate(2 5)"/>
</clipPath>
</defs>
</svg>
