<svg width="47" height="47" viewBox="0 0 47 47" fill="none" xmlns="http://www.w3.org/2000/svg">
<g clip-path="url(#clip0_39134_315359)">
<g clip-path="url(#clip1_39134_315359)">
<path d="M22.9322 40.1612C16.7907 40.1612 10.6489 40.1612 4.50678 40.1612C2.46924 40.1612 0.937438 38.9192 0.542573 36.9731C0.496467 36.7167 0.475943 36.4564 0.481301 36.196C0.481301 27.8014 0.481301 19.4071 0.481301 11.0132C0.481301 8.72665 2.14148 7.0402 4.43384 7.0334C9.06912 7.01978 13.7034 7.0334 18.3416 7.0334C26.0392 7.0334 33.7368 7.0334 41.4344 7.0334C43.4992 7.0334 45.0427 8.28023 45.4268 10.2429C45.4728 10.5306 45.491 10.8221 45.4813 11.1133C45.4813 19.4256 45.4813 27.7388 45.4813 36.053C45.4813 38.5214 43.8445 40.1563 41.3566 40.1583C35.2158 40.1635 29.0743 40.1644 22.9322 40.1612ZM22.8622 32.649C28.4194 32.649 33.9771 32.649 39.535 32.649C40.3568 32.649 40.5649 32.439 40.5669 31.6103C40.5708 30.4763 40.5708 29.3416 40.5669 28.2063C40.5669 27.2833 40.3821 27.0995 39.4562 27.0986H29.1469C21.5148 27.0986 13.883 27.0986 6.25158 27.0986C5.37626 27.0986 5.18661 27.2843 5.18175 28.145C5.18175 29.2629 5.18175 30.3807 5.18175 31.4985C5.18175 32.5207 5.30916 32.6481 6.32744 32.6481L22.8622 32.649ZM10.3675 12.1131C10.1078 12.1131 9.84913 12.1131 9.58945 12.1131C8.61688 12.1268 8.02458 12.7132 8.0061 13.6897C7.99832 14.0953 7.99346 14.5008 8.0061 14.9054C8.01777 15.2944 7.86702 15.4734 7.46243 15.4549C7.04228 15.4364 6.61921 15.4374 6.19809 15.4598C5.23816 15.5113 4.62641 16.0647 4.55347 16.9867C4.50962 17.537 4.50962 18.0898 4.55347 18.6401C4.6303 19.5815 5.28679 20.1534 6.23796 20.1651C6.64353 20.1651 7.04909 20.1836 7.45368 20.1651C7.85827 20.1466 8.02361 20.2915 8.00416 20.6951C7.98665 21.0842 7.99832 21.4732 8.00416 21.8622C8.01583 22.9243 8.64216 23.5574 9.69449 23.5681C10.1156 23.573 10.5367 23.5681 10.9588 23.5681C12.0569 23.5623 12.7027 22.9282 12.7318 21.8175C12.7422 21.4129 12.7422 21.0077 12.7318 20.6018C12.725 20.2925 12.8641 20.1622 13.1695 20.1661C13.6558 20.1729 14.1421 20.1787 14.6284 20.1583C15.0299 20.1464 15.4116 19.9807 15.6945 19.6955C15.9774 19.4102 16.1399 19.0272 16.1485 18.6255C16.166 18.1557 16.1582 17.685 16.1543 17.2153C16.1456 16.1201 15.5581 15.5094 14.4523 15.4588C14.0322 15.4403 13.6091 15.4432 13.188 15.453C12.8554 15.4607 12.7221 15.31 12.7299 14.9832C12.7406 14.5456 12.7474 14.1079 12.7231 13.6702C12.6686 12.6977 12.0588 12.1277 11.094 12.1141C10.8538 12.1102 10.6107 12.1131 10.3675 12.1131ZM32.2378 19.2129C32.2451 20.1266 32.5373 21.0153 33.0735 21.7552C33.6097 22.495 34.3634 23.0492 35.2294 23.3405C36.0879 23.6297 37.0155 23.6417 37.8812 23.3749C38.7468 23.108 39.5067 22.5758 40.0534 21.8535C41.1923 20.3353 41.201 18.7198 40.4181 17.0421C39.64 15.38 38.5644 13.9299 37.3623 12.5683C36.8244 11.9575 36.3732 11.9605 35.8266 12.5858C34.8271 13.7141 33.9453 14.9414 33.1948 16.2485C32.6735 17.1627 32.2319 18.1159 32.2378 19.21V19.2129ZM27.4722 36.6171H39.3376C39.5165 36.6171 39.6945 36.6171 39.8725 36.6074C40.2751 36.5821 40.5056 36.3448 40.5358 35.9616C40.564 35.593 40.3539 35.3382 39.9999 35.2507C39.7777 35.2069 39.5511 35.1899 39.3249 35.2001C31.4484 35.2001 23.5705 35.2001 15.6914 35.2001C15.5455 35.2001 15.3996 35.1952 15.2547 35.2069C14.7684 35.2448 14.4494 35.5512 14.463 35.9587C14.4766 36.3662 14.7772 36.6006 15.2673 36.6171C15.3967 36.622 15.526 36.6171 15.6564 36.6171H27.4722ZM24.5544 25.0435H26.7408C27.2757 25.0435 27.8106 25.0435 28.3446 25.0435C28.9845 25.0377 29.2977 24.7945 29.2889 24.3219C29.2802 23.8657 28.9767 23.6411 28.3679 23.6284H28.3193C25.7906 23.6284 23.2619 23.6284 20.7332 23.6284C20.6199 23.622 20.5062 23.6269 20.3938 23.643C20.0407 23.7179 19.8102 23.9153 19.7917 24.2995C19.7713 24.7089 19.9999 24.9326 20.3753 25.0192C20.536 25.0456 20.6991 25.0537 20.8616 25.0435C22.0883 25.0416 23.3177 25.0403 24.5496 25.0396L24.5544 25.0435ZM24.5292 16.3098H28.4652C28.8542 16.3098 29.1819 16.2125 29.2743 15.7778C29.3716 15.3197 29.0487 14.956 28.5099 14.9492C27.4255 14.9356 26.3401 14.9433 25.2547 14.9433C23.7161 14.9433 22.1775 14.9433 20.6389 14.9433C20.0903 14.9433 19.8073 15.1816 19.7956 15.6066C19.783 16.0482 20.0514 16.2991 20.5931 16.303C21.9003 16.3117 23.2123 16.3059 24.5243 16.3059L24.5292 16.3098ZM9.02536 36.6132C9.99793 36.6132 10.9705 36.6191 11.9372 36.6132C12.4887 36.6132 12.7523 36.3886 12.7698 35.949C12.7873 35.5094 12.5004 35.2108 11.945 35.2069C9.972 35.1933 7.99832 35.1933 6.024 35.2069C5.50367 35.2069 5.20509 35.4987 5.20606 35.913C5.20606 36.3468 5.52118 36.6113 6.06582 36.6152C7.05201 36.6181 8.03917 36.6142 9.02536 36.6132ZM23.0586 10.5794C22.2319 10.5794 21.4052 10.5716 20.5795 10.5794C20.0543 10.5862 19.8083 10.8031 19.7888 11.2349C19.7694 11.6667 20.0388 11.975 20.5581 11.9809C22.2109 11.9997 23.8642 11.9997 25.5183 11.9809C26.0386 11.975 26.307 11.6716 26.2856 11.233C26.2642 10.7943 26.0143 10.5862 25.492 10.5804C24.6789 10.5716 23.8688 10.5784 23.0586 10.5794ZM23.0518 20.6767C23.86 20.6767 24.6682 20.6854 25.4764 20.6767C26.0337 20.6679 26.2856 20.4423 26.2856 19.9959C26.2856 19.5494 26.0347 19.3219 25.4774 19.3199C23.861 19.3121 22.2446 19.3121 20.6282 19.3199C20.0621 19.3199 19.8015 19.5417 19.7888 19.9754C19.7762 20.4325 20.0505 20.6737 20.6272 20.6805C21.4354 20.6844 22.2436 20.6767 23.0518 20.6767Z" fill="#98071B"/>
<path d="M22.8877 31.2798H7.38583C6.60777 31.2798 6.60777 31.2798 6.60777 30.5017C6.60777 29.9833 6.61847 29.464 6.60777 28.9456C6.59901 28.6101 6.75657 28.4729 7.07266 28.4729C7.23508 28.4729 7.39652 28.4729 7.55894 28.4729H38.2261C38.372 28.4729 38.5179 28.4788 38.6638 28.4729C39.009 28.4651 39.1598 28.6237 39.1501 28.9757C39.1365 29.5749 39.1335 30.1749 39.1501 30.774C39.1617 31.1553 39.0013 31.2914 38.6317 31.2876C37.5949 31.2769 36.5582 31.2876 35.5195 31.2876L22.8877 31.2798Z" fill="#98071B"/>
<path d="M10.3745 13.4766H10.6663C11.2606 13.4853 11.3102 13.5301 11.315 14.1087C11.3199 14.6427 11.3063 15.1786 11.3218 15.7106C11.3423 16.4487 11.7391 16.8485 12.4734 16.8689C13.0569 16.8845 13.6404 16.8825 14.224 16.8738C14.5916 16.8679 14.7482 17.0226 14.7443 17.397C14.7258 18.9726 14.9077 18.7255 13.4615 18.7469C13.1697 18.7518 12.8779 18.7469 12.5862 18.7469C11.742 18.7606 11.3325 19.1622 11.3218 19.9967C11.3134 20.5472 11.3134 21.0983 11.3218 21.6501C11.3218 21.9924 11.1827 22.1558 10.8297 22.1519C9.22885 22.1325 9.38835 22.3542 9.37765 20.802C9.37765 20.5102 9.37765 20.2184 9.37765 19.9267C9.36112 19.1603 8.97598 18.7693 8.20181 18.7508C7.63578 18.7382 7.06876 18.7333 6.50175 18.7508C6.10203 18.7625 5.95517 18.5884 5.95906 18.2003C5.97365 16.687 5.82193 16.8893 7.22924 16.8738C7.5852 16.8738 7.94214 16.8815 8.29907 16.867C8.95556 16.8397 9.35237 16.4497 9.37474 15.7971C9.39224 15.2632 9.37474 14.7273 9.38154 14.1943C9.38154 13.5135 9.41656 13.4814 10.0915 13.4766H10.3745Z" fill="#98071B"/>
<path d="M33.6465 19.3479C33.6611 18.2577 34.1153 17.465 34.5685 16.6811C35.0713 15.8058 35.6811 15.0122 36.3055 14.2254C36.5 13.9774 36.6624 13.9287 36.8793 14.1913C37.9171 15.445 38.8536 16.7667 39.3924 18.316C39.8126 19.521 39.4314 20.5763 38.522 21.3942C37.6126 22.2121 36.5204 22.36 35.3971 21.8494C34.2738 21.3388 33.7204 20.4304 33.6465 19.3479Z" fill="#98071B"/>
</g>
</g>
<defs>
<clipPath id="clip0_39134_315359">
<rect width="46.375" height="46.375" fill="white"/>
</clipPath>
<clipPath id="clip1_39134_315359">
<rect width="45" height="33.1336" fill="white" transform="translate(0.482422 7.02734)"/>
</clipPath>
</defs>
</svg>
