<svg width="62" height="62" viewBox="0 0 62 62" fill="none" xmlns="http://www.w3.org/2000/svg">
<g clip-path="url(#clip0_7224_42082)">
<path d="M22.2541 44.6258C22.7313 45.6764 22.7264 45.6599 23.7197 45.3955C28.0329 44.2487 32.3468 43.107 36.6613 41.9706C42.6027 40.402 48.5444 38.8369 54.4865 37.2754C54.9336 37.1578 55.1289 36.9994 54.9482 36.5096C54.7854 36.0523 54.6596 35.5827 54.572 35.1052C54.4923 34.6912 54.2999 34.6339 53.9238 34.7349C51.1131 35.4891 48.2976 36.2287 45.483 36.9703L23.1579 42.8647C22.9888 42.9094 22.8168 42.9425 22.6438 42.9814C22.6322 42.923 22.6147 42.8774 22.6244 42.8696C23.5224 42.2029 23.6157 41.2106 23.6682 40.2183C23.7216 39.2075 23.7654 39.1298 24.7577 38.8752C25.8695 38.5885 26.9765 38.2823 28.0902 38.0005C28.4362 37.913 28.5179 37.7556 28.4362 37.4096C28.1573 36.2258 28.168 36.221 26.9784 36.5222C26.1951 36.7215 25.4117 36.9217 24.6313 37.1335C24.2727 37.2307 24.1289 37.1404 24.2426 36.7613C24.2474 36.7458 24.2494 36.7302 24.2533 36.7137C24.608 35.1985 24.3417 35.4668 25.8452 35.0391C26.3311 34.9031 26.8171 34.7758 27.2972 34.6504C27.545 34.5862 27.6257 34.4618 27.5771 34.1926C27.3448 32.8845 27.3526 32.8835 26.0619 33.2091C25.6858 33.3063 25.3077 33.3908 24.9345 33.4958C24.6634 33.5726 24.505 33.4958 24.4224 33.2208C24.354 32.9709 24.2612 32.7284 24.1454 32.4967C23.9218 32.0798 24.1036 31.9282 24.4962 31.8349C25.125 31.6852 25.7441 31.4957 26.3729 31.3431C26.6723 31.2712 26.7675 31.138 26.6859 30.829C26.3068 29.3818 26.51 29.5461 25.1688 29.8687C24.5856 30.0087 24.0122 30.1759 23.4388 30.345C22.6322 30.5821 22.3231 30.4907 21.7983 29.8299C21.2463 29.135 21.2463 29.1379 22.1093 28.9114C23.2201 28.6199 24.3261 28.3128 25.4399 28.0367C25.7811 27.9522 25.8967 27.8103 25.7966 27.4614C25.3797 26.0084 25.6693 26.2077 24.2766 26.5682C22.3976 27.0555 20.5212 27.5495 18.6475 28.0504C17.8865 28.2525 17.141 28.0805 16.3907 27.993C16.0992 27.96 16.0603 27.7238 16.002 27.5071C15.3521 25.0528 14.7003 22.6001 14.0466 20.149C13.2406 17.1174 12.4349 14.0857 11.6295 11.0541C11.4517 10.3845 11.4575 10.3874 12.13 10.2096L42.7093 2.12448C44.0699 1.76488 45.4305 1.42375 46.7912 1.04083C47.1945 0.927121 47.3364 1.04861 47.4345 1.42084C48.7246 6.31523 50.0204 11.207 51.3221 16.0962C53.3831 23.8635 55.4451 31.6308 57.5081 39.398C58.5286 43.2797 59.549 47.1566 60.5928 51.0285C60.7211 51.5047 60.6162 51.6602 60.1419 51.7846C52.6649 53.742 45.1911 55.712 37.7206 57.6947C33.64 58.7754 29.5613 59.8597 25.4846 60.9475C25.0794 61.0564 24.8578 61.0233 24.7674 60.5588C24.6546 59.9757 24.47 59.4003 24.3184 58.822C24.1784 58.2924 24.1872 58.2749 24.7382 58.2749C27.407 58.2749 30.0758 58.2749 32.7446 58.2749C33.6805 58.2749 33.6669 58.2749 33.6786 57.3594C33.7198 55.6316 33.2236 53.9337 32.2586 52.4999C32.005 52.1209 32.1614 52.0529 32.4909 51.9664C34.8215 51.3586 37.1511 50.7438 39.4797 50.1218C45.2462 48.5978 51.0156 47.0752 56.7879 45.5539C57.1767 45.4567 57.2865 45.2818 57.1679 44.8989C57.0105 44.3896 56.889 43.8687 56.7617 43.3507C56.6859 43.0416 56.5469 42.9386 56.2077 43.029C48.0653 45.1917 39.9209 47.3467 31.7746 49.4939C31.1808 49.6514 30.587 49.8088 29.9912 49.9585C29.8513 49.9935 29.6929 50.0391 29.5617 50.0051C28.583 49.7495 27.6092 49.4745 26.6344 49.2062C26.6344 49.1645 26.6344 49.1217 26.6412 49.0799C27.1135 48.9477 27.5849 48.8097 28.0591 48.6853C34.7204 46.9282 41.3814 45.1723 48.042 43.4177C50.5912 42.7452 53.1366 42.0571 55.6868 41.3943C56.0629 41.2971 56.2097 41.1562 56.0823 40.7567C55.9161 40.2338 55.784 39.6983 55.6567 39.1638C55.5867 38.8722 55.4623 38.7751 55.1454 38.8586C48.8606 40.5283 42.5758 42.1922 36.291 43.8502C32.1177 44.9517 27.9435 46.0531 23.7683 47.1546C23.4466 47.2401 23.0151 47.2197 23.1298 47.7844C23.1618 47.9457 22.9869 47.9253 22.8819 47.8699C22.3834 47.6075 22.0228 47.1945 21.6894 46.7561C21.6702 46.7208 21.6583 46.6819 21.6545 46.6418C21.6506 46.6017 21.6549 46.5613 21.6671 46.5229C21.8488 45.9252 22.0364 45.3284 22.2541 44.6258ZM27.5023 15.9193C27.5994 15.896 27.7413 15.8649 27.8813 15.828L37.1142 13.3983C38.6429 12.9911 40.1697 12.5683 41.7043 12.1854C42.0931 12.0882 42.2029 11.922 42.0824 11.542C41.9235 11.0667 41.7937 10.5821 41.6936 10.091C41.6101 9.63711 41.4021 9.56714 40.9861 9.67987C37.6049 10.5876 34.2141 11.4759 30.83 12.3739C29.549 12.7121 28.271 13.061 26.991 13.4012C26.7461 13.4653 26.5634 13.5489 26.6519 13.8609C26.82 14.4518 26.9755 15.0456 27.1378 15.6375C27.1776 15.8017 27.2389 15.9504 27.5003 15.9193H27.5023ZM22.1248 16.1827H22.1161C22.1161 15.7464 22.1161 15.308 22.1161 14.8736C22.1264 14.6132 22.0498 14.3568 21.8984 14.1447C21.0674 13.0523 19.1606 13.2282 18.6008 14.4712C18.1741 15.4169 18.2276 16.3606 18.8059 17.243C19.0177 17.5677 19.2607 17.8709 19.494 18.1799C19.7544 18.523 19.7505 18.8039 19.3802 19.0867C18.8649 19.4757 18.3699 19.891 17.8972 20.3307C17.6989 20.5118 17.5477 20.7385 17.4568 20.9912C17.3658 21.2438 17.3379 21.5148 17.3753 21.7808C17.4161 22.1277 17.5638 22.2541 17.9263 22.1578C20.4862 21.4749 23.0481 20.7998 25.6119 20.1324C26.0094 20.0294 26.0503 19.803 25.8967 19.4823C25.5565 18.7738 24.9831 18.4132 24.2047 18.385C23.7372 18.3695 23.2697 18.3772 22.8061 18.2878C22.3425 18.1984 22.1258 17.9486 22.1258 17.4899C22.1219 17.0555 22.1229 16.6191 22.1229 16.1827H22.1248ZM33.3452 17.9243C33.3763 17.9185 33.4084 17.9146 33.4424 17.9068C35.1607 17.4533 36.8777 16.9998 38.5934 16.5462C38.8431 16.4811 38.8849 16.3314 38.8266 16.1089C38.6659 15.516 38.5088 14.9225 38.3552 14.3284C38.2969 14.1 38.1745 14.0009 37.9325 14.065C36.231 14.5185 34.5289 14.9692 32.8262 15.4169C32.5813 15.481 32.4705 15.6307 32.5347 15.8844C32.694 16.4941 32.856 17.1028 33.0206 17.7105C33.0653 17.8699 33.1625 17.9632 33.3433 17.9243H33.3452ZM42.754 25.2406C42.6568 25.263 42.5508 25.2863 42.442 25.3145C40.5047 25.8283 38.5681 26.3418 36.6321 26.8549C35.5242 27.1465 35.5407 27.1368 35.8089 28.2535C35.9139 28.6879 36.0888 28.787 36.5184 28.6704C38.5448 28.1184 40.5789 27.5955 42.6092 27.06C42.8278 27.0017 43.1116 26.9949 43.2457 26.853C43.6248 26.4487 43.1631 26.057 43.1398 25.6488C43.1291 25.4584 43.0757 25.2095 42.752 25.2406H42.754ZM35.047 28.7453C34.9896 28.5178 34.9245 28.2515 34.8526 27.9852C34.6961 27.3788 34.6728 27.3652 34.0556 27.5294L28.3925 29.0397C27.1465 29.3711 27.1563 29.3682 27.5178 30.5947C27.6072 30.898 27.7433 30.9835 28.0397 30.8999C28.7084 30.7143 29.3828 30.5471 30.0544 30.3693C31.5835 29.9643 33.1126 29.5577 34.6417 29.1496C34.8361 29.1029 35.0897 29.101 35.045 28.7453H35.047ZM44.5976 26.5284C44.6375 26.5177 44.7308 26.4905 44.8241 26.4662C46.7591 25.9569 48.696 25.4525 50.6301 24.9384C52.0102 24.573 51.7604 24.7314 51.5048 23.4874C51.4183 23.0734 51.2521 22.9742 50.8381 23.0889C48.9254 23.6166 47.003 24.1123 45.0855 24.6274C43.5927 25.0288 43.8473 24.7129 44.2021 26.2261C44.2137 26.2738 44.2322 26.3185 44.2478 26.3641C44.2915 26.508 44.3896 26.5702 44.5957 26.5284H44.5976ZM42.4925 23.1822C42.443 23.0005 42.3749 22.7342 42.2982 22.4708C42.1125 21.8381 42.1106 21.843 41.4565 22.0179C39.5672 22.5233 37.6759 23.0199 35.7875 23.5292C34.4434 23.8917 34.596 23.5875 34.9702 25.0434C35.0508 25.3612 35.2073 25.4632 35.53 25.3719C36.1986 25.1775 36.8741 25.0171 37.5457 24.8383C39.0754 24.4333 40.6055 24.0268 42.1359 23.6186C42.3166 23.57 42.5421 23.5506 42.4925 23.1822ZM50.2928 19.6932C50.116 19.7359 50.0013 19.7592 49.8963 19.7903C47.9613 20.3045 46.0282 20.8235 44.0913 21.3317C42.959 21.6291 42.9688 21.6233 43.2759 22.773C43.3731 23.155 43.5402 23.259 43.929 23.156C45.3771 22.7575 46.832 22.3872 48.284 22.0033C49.0177 21.8089 49.7476 21.6039 50.4833 21.4153C50.7827 21.3395 50.9003 21.1675 50.7895 20.8847C50.6281 20.4804 50.7399 19.9439 50.2899 19.6932H50.2928ZM34.1596 25.3855C34.1169 25.2251 34.0566 24.9744 33.9847 24.7265C33.7903 24.054 33.7787 24.0462 33.1226 24.2211C31.2508 24.7187 29.379 25.2134 27.5091 25.7188C26.2398 26.0609 26.2456 26.0648 26.6548 27.3263C26.7393 27.5897 26.8676 27.6597 27.1145 27.5926C27.5819 27.4653 28.0494 27.3419 28.5179 27.2184C30.2815 26.7526 32.0448 26.2864 33.8078 25.8199C33.9818 25.7732 34.2218 25.7732 34.1587 25.3855H34.1596ZM36.5135 30.8397C36.565 31.0486 36.6554 31.3256 36.7001 31.6172C36.7652 32.0263 36.9246 32.1361 37.3561 32.0166C39.2853 31.4743 41.2291 30.9903 43.1583 30.4665C44.6443 30.0641 44.3323 30.345 44.0194 28.9319C44.0126 28.8998 43.9989 28.8706 43.9921 28.8347C43.9387 28.6043 43.8124 28.5169 43.5694 28.581C41.3224 29.1797 39.0748 29.7725 36.8265 30.3595C36.6224 30.413 36.4669 30.5092 36.5135 30.8397ZM35.9207 32.0555C35.8565 31.797 35.7632 31.4869 35.703 31.1701C35.632 30.792 35.4561 30.724 35.0878 30.8241C33.144 31.3557 31.1847 31.8592 29.2341 32.3791C27.9377 32.7232 28.0679 32.4967 28.3731 33.8243C28.4615 34.2072 28.6228 34.3287 29.0155 34.213C29.8532 33.972 30.7017 33.7689 31.5424 33.5454C32.8849 33.1897 34.2267 32.8314 35.5679 32.4705C35.7584 32.416 35.9683 32.3849 35.9207 32.0506V32.0555ZM29.6559 37.5835C29.7706 37.5573 29.897 37.532 30.0223 37.499C32.038 36.9693 34.0556 36.4464 36.0684 35.9061C37.0743 35.6359 36.8828 35.6893 36.6681 34.8428C36.636 34.7175 36.5932 34.594 36.5709 34.4667C36.5145 34.1042 36.3347 34.0517 35.9877 34.145C33.835 34.7281 31.6755 35.2841 29.5189 35.8507C29.4101 35.8798 29.274 35.8876 29.2011 35.9576C28.8123 36.3317 29.2108 36.6991 29.2439 37.0684C29.2691 37.2842 29.2944 37.5748 29.6559 37.5787V37.5835ZM45.3314 29.8746C45.5258 29.8289 45.6502 29.8017 45.7755 29.7686C47.6989 29.2652 49.6213 28.7569 51.5446 28.2564C52.6856 27.9648 52.6701 27.9697 52.3834 26.82C52.2784 26.3972 52.0918 26.3253 51.6962 26.4312C49.6553 26.9842 47.6027 27.5158 45.5549 28.0562C45.414 28.0931 45.277 28.1456 45.1351 28.1738C44.8814 28.2234 44.7463 28.3594 44.8435 28.615C45.0068 29.0368 44.9018 29.5762 45.3314 29.8746ZM46.2615 33.2072C46.4218 33.1634 46.5151 33.1362 46.6084 33.11C48.558 32.5958 50.5067 32.0778 52.4572 31.5686C53.5564 31.2819 53.5263 31.2955 53.2814 30.1982C53.1667 29.6928 52.9548 29.6472 52.5039 29.7696C50.5601 30.3022 48.6057 30.8027 46.6561 31.3168C46.4374 31.3742 46.2236 31.45 46.003 31.4966C45.7114 31.5579 45.622 31.727 45.7299 31.9884C45.9019 32.4024 45.8047 32.9506 46.2615 33.2072ZM45.1652 33.2694C45.1574 33.2276 45.1545 33.211 45.1506 33.1955C45.0836 32.9467 45.0146 32.6979 44.9485 32.4481C44.7862 31.8378 44.7755 31.8261 44.1515 31.9894C42.2476 32.4918 40.3418 32.9836 38.4417 33.4977C37.1472 33.8525 37.2706 33.6348 37.6069 35.0032C37.6885 35.3356 37.8353 35.4464 38.19 35.3433C39.1357 35.0712 40.093 34.8409 41.0444 34.5882C42.2923 34.2578 43.5393 33.9238 44.7852 33.5862C44.9601 33.5395 45.2012 33.5366 45.1652 33.2694ZM28.3906 19.251C29.5899 18.927 30.7885 18.603 31.9865 18.2791C32.2227 18.214 32.1984 18.0293 32.1498 17.8446C31.9972 17.2673 31.8436 16.691 31.694 16.1128C31.6318 15.8727 31.5151 15.7551 31.242 15.829C30.0894 16.1409 28.9338 16.4412 27.7792 16.7464C27.5547 16.8057 27.4546 16.9301 27.5236 17.1731C27.6898 17.763 27.8482 18.3559 28.0096 18.9477C28.0621 19.145 28.1622 19.2743 28.3906 19.251Z" fill="#981E5B"/>
<path d="M16.6929 56.9152H1.60543C0.966902 56.9152 0.953297 56.8899 1.03591 56.299C1.46548 53.2376 3.25665 51.4066 6.18201 50.6116C7.9246 50.1392 9.60984 49.5425 11.092 48.4793C11.1707 48.4219 11.2533 48.3714 11.331 48.3121C12.8248 47.1653 12.7782 46.8212 12.2213 45.3741C11.9297 44.6102 11.6187 43.8424 11.5915 42.9959C11.5759 42.5255 11.2999 42.1455 10.9627 41.8248C10.1492 41.0473 9.9325 40.1026 10.1619 39.0287C10.3378 38.2123 10.3154 37.393 10.2221 36.5689C10.0754 35.2646 10.2532 34.0118 10.9452 32.8757C12.0143 31.1263 13.441 29.8337 15.513 29.4032C16.1934 29.2623 16.8669 29.3653 17.5375 29.477C17.9991 29.5529 18.4539 29.6714 18.9156 29.757C19.8506 29.9053 20.7019 30.3827 21.3161 31.103C21.6407 31.4801 22.0645 31.7707 22.4027 32.1381C23.3027 33.1148 23.499 34.3044 23.1996 35.5396C22.7898 37.2859 22.4953 39.0573 22.3181 40.8422C22.2695 41.2932 22.1238 41.6498 21.6864 41.851C21.4133 41.9774 21.2899 42.2184 21.2432 42.5061C21.0314 43.8142 20.8351 45.1224 20.3287 46.3644C20.1285 46.8582 20.3384 47.2955 20.6961 47.6872C22.1121 49.2422 23.9091 50.0518 25.9335 50.4084C27.2135 50.6349 28.4857 50.8536 29.5781 51.6281C31.2497 52.8148 32.1351 54.4544 32.38 56.4681C32.4179 56.782 32.2828 56.9229 31.9747 56.9142C31.829 56.9142 31.6832 56.9142 31.5374 56.9142L16.6929 56.9152Z" fill="#981E5B"/>
</g>
<defs>
<clipPath id="clip0_7224_42082">
<rect width="59.6433" height="60" fill="white" transform="translate(1 1)"/>
</clipPath>
</defs>
</svg>
