<svg width="62" height="62" viewBox="0 0 62 62" fill="none" xmlns="http://www.w3.org/2000/svg">
<path d="M42.2669 59.6H19.5186C19.5186 59.3157 19.4822 59.0386 19.4822 58.7615C19.4822 50.7413 19.4822 42.7211 19.4822 34.7009C19.4879 31.8954 20.5217 29.1894 22.3879 27.0948C24.2541 25.0001 26.8234 23.6622 29.6095 23.334C32.4109 23.0278 35.2265 23.7683 37.5148 25.4131C39.803 27.0579 41.4021 29.4908 42.0044 32.2438C42.1705 32.9787 42.2609 33.7288 42.2742 34.4821C42.2742 42.6579 42.2742 50.8288 42.2742 58.9949C42.2961 59.1844 42.2815 59.3521 42.2669 59.6ZM23.31 39.2286V45.1199H27.8524V49.5966H33.7436V45.1126H38.2568V39.2797H33.7071V34.7665H27.8159V39.2578L23.31 39.2286Z" fill="#EC0C24"/>
<path d="M17.6592 56.8585H3.07697C3.07697 56.5887 3.02592 56.3627 3.02592 56.1294C3.02592 49.6184 2.9676 43.1002 3.02592 36.5819C2.99496 34.8635 3.47078 33.1741 4.394 31.7244C5.31722 30.2747 6.64694 29.1291 8.2172 28.4304C11.5711 26.7972 14.7792 27.2274 17.8415 29.4147C18.0575 29.543 18.22 29.7449 18.299 29.9833C18.378 30.2217 18.3683 30.4807 18.2716 30.7126C17.9221 32.0599 17.7192 33.4411 17.6665 34.832C17.6082 41.8096 17.6665 48.7945 17.6665 55.7794L17.6592 56.8585Z" fill="#EC0C24"/>
<path d="M58.4383 56.8586H44.1404V55.7868C44.1404 48.9258 44.1841 42.0576 44.1404 35.1967C44.0226 33.5896 43.7616 31.9962 43.3602 30.4356C43.2926 30.2537 43.2914 30.0537 43.3567 29.871C43.4221 29.6883 43.5498 29.5345 43.7175 29.4367C46.634 27.315 49.8056 26.8775 53.1012 28.3868C56.3968 29.896 58.3654 32.55 58.4528 36.1445C58.6205 42.9763 58.5039 49.8154 58.4966 56.6471C58.4852 56.7196 58.4656 56.7905 58.4383 56.8586V56.8586Z" fill="#EC0C24"/>
<path d="M30.8489 2.00023C32.0991 1.99157 33.3387 2.23035 34.4963 2.70281C35.6538 3.17527 36.7065 3.87207 37.5936 4.75309C38.4807 5.63411 39.1848 6.68193 39.6652 7.83621C40.1456 8.99048 40.393 10.2284 40.3929 11.4787C40.3833 13.9896 39.3816 16.3949 37.6062 18.1703C35.8307 19.9458 33.4254 20.9475 30.9145 20.9571C28.4054 20.9418 26.0034 19.9383 24.2291 18.164C22.4549 16.3898 21.4513 13.9878 21.436 11.4787C21.436 8.97616 22.4256 6.57517 24.189 4.79949C25.9524 3.02382 28.3464 2.01755 30.8489 2.00023V2.00023Z" fill="#EC0C24"/>
<path d="M12.2566 25.6162C11.2447 25.6239 10.2413 25.4302 9.30492 25.0463C8.36857 24.6624 7.51798 24.096 6.80273 23.3801C6.08748 22.6641 5.52186 21.813 5.13884 20.8763C4.75583 19.9396 4.56308 18.936 4.57182 17.924C4.57565 15.8947 5.38198 13.9493 6.81488 12.5123C8.24777 11.0753 10.1909 10.2634 12.2202 10.2538C14.2642 10.2576 16.2233 11.0718 17.668 12.5179C19.1126 13.9639 19.925 15.9238 19.9269 17.9678C19.9192 19.9977 19.1079 21.9419 17.6705 23.3752C16.2331 24.8085 14.2866 25.6142 12.2566 25.6162Z" fill="#EC0C24"/>
<path d="M49.3609 25.6161C48.3487 25.6238 47.3451 25.4311 46.4077 25.0491C45.4704 24.6671 44.6179 24.1033 43.8995 23.3903C43.181 22.6773 42.6108 21.8291 42.2217 20.8947C41.8326 19.9603 41.6323 18.9581 41.6323 17.9459C41.6418 15.9163 42.4493 13.9718 43.8803 12.5326C45.3114 11.0933 47.2512 10.2748 49.2807 10.2538C50.293 10.2509 51.2958 10.448 52.2317 10.8338C53.1675 11.2196 54.0179 11.7866 54.734 12.502C55.4501 13.2174 56.0178 14.0673 56.4046 15.0028C56.7913 15.9382 56.9893 16.9409 56.9874 17.9532C56.9922 18.9578 56.7985 19.9534 56.4174 20.8829C56.0363 21.8124 55.4753 22.6575 54.7666 23.3695C54.0579 24.0816 53.2156 24.6466 52.2879 25.0321C51.3602 25.4177 50.3655 25.6161 49.3609 25.6161V25.6161Z" fill="#EC0C24"/>
</svg>
