<svg width="62" height="62" viewBox="0 0 62 62" fill="none" xmlns="http://www.w3.org/2000/svg">
<path d="M23.8146 31.545C29.532 35.3175 39.2888 33.4766 40.1212 28.8771C42.573 28.9144 44.7741 29.7788 46.7457 31.1448C51.6094 34.5145 53.7838 39.2128 53.1969 45.0983C52.9301 47.7476 51.4814 49.7032 48.8748 50.4342C46.8071 51.0052 44.6407 51.2346 42.3623 51.6295C42.2956 52.0723 42.2022 52.7127 42.0955 53.353C41.8462 55.0564 40.9993 56.6157 39.706 57.7521C38.4127 58.8885 36.7574 59.5279 35.036 59.556C28.7912 59.6147 22.5455 59.6147 16.2989 59.556C14.3931 59.5191 12.5773 58.7381 11.2397 57.3801C9.90212 56.022 9.1488 54.1946 9.1408 52.2884C9.1408 50.8531 9.4903 49.415 9.63704 47.9743C9.68067 47.5524 9.63894 47.1259 9.51431 46.7204C7.64674 41.0083 11.0644 33.1138 16.5471 30.5686C16.696 30.5366 16.8487 30.5258 17.0006 30.5365C16.5417 34.968 16.0855 39.3595 15.6293 43.7536C15.5541 44.2344 15.5051 44.7189 15.4825 45.205C15.4825 46.1094 15.2318 46.7257 14.362 47.2433C12.5318 48.3319 11.8541 51.0212 12.6198 53.4383C13.1988 55.2205 14.8502 56.3197 17.0833 56.3197C22.8408 56.3197 28.6 56.3197 34.361 56.3197C37.3545 56.3197 38.9259 54.6016 38.9259 51.3947C38.9259 48.1878 37.3385 46.5203 34.321 46.499C33.1711 46.499 32.0132 46.5523 30.8687 46.4643C30.4845 46.4376 29.9322 46.1361 29.8015 45.8133C27.7685 41.2004 25.7996 36.5661 23.8066 31.9399C23.7532 31.8545 23.7932 31.7585 23.8146 31.545Z" fill="#990E59"/>
<path d="M31.2048 2.00003C34.0008 2.02054 36.6872 3.09037 38.7318 4.99764C40.7764 6.90491 42.0302 9.5105 42.2448 12.2984C42.6664 17.5089 41.4871 22.4366 38.0134 26.5479C34.0889 31.2009 28.118 31.2409 24.3028 26.4839C20.4236 21.6629 19.0629 16.0655 20.5943 10.0466C21.8376 5.16957 26.3224 1.98935 31.2048 2.00003ZM21.6908 16.0762C21.4801 19.8487 24.188 25.9183 28.1233 27.5484C29.3372 28.0393 30.8153 28.3648 32.0852 28.1781C36.7942 27.4844 41.2043 21.1213 40.6387 16.0789L39.3901 16.4257C39.4729 15.753 39.5148 15.0758 39.5155 14.398C39.4847 13.1229 39.3634 11.8515 39.1526 10.5935C38.9285 9.46232 38.2856 9.04878 37.0183 9.58504C33.091 11.2632 29.1024 11.2312 25.1779 9.53168C24.124 9.07546 23.5931 9.44364 23.2409 10.3507C23.0525 10.8001 22.9424 11.2783 22.9154 11.7648C22.8754 13.2935 22.9021 14.8223 22.9021 16.4204L21.6908 16.0762Z" fill="#990E59"/>
<path d="M21.5946 54.2923V50.8956H18.3425V48.3668H21.5909V44.9542H24.1816V48.3585H27.4317V50.8851H24.1871V54.2923H21.5946Z" fill="#990E59"/>
</svg>
