<svg width="62" height="62" viewBox="0 0 62 62" fill="none" xmlns="http://www.w3.org/2000/svg">
<g clip-path="url(#clip0_3291_29348)">
<path d="M3.42969 32.8633C3.42969 24.7757 3.42969 16.6881 3.42969 8.60052C3.42969 6.83706 4.64587 5.62088 6.34852 5.68169C8.53765 5.7425 10.7876 5.68169 13.0375 5.68169C13.8888 5.68169 13.9497 5.7425 13.9497 6.59382C13.9497 7.32353 13.9497 8.11405 13.9497 8.84376C13.9497 9.63428 13.828 9.75589 12.9767 9.8167C11.5173 9.8167 10.1187 9.8167 8.65927 9.8167C7.68632 9.8167 7.5647 9.99913 7.5647 10.9113C7.5647 25.5054 7.5647 40.0996 7.5647 54.6938C7.5647 55.7884 7.62551 55.91 8.72008 55.91C15.3483 55.91 21.9765 55.91 28.6655 55.8492C29.3344 55.8492 29.5776 56.0924 29.2735 56.7005C28.8479 57.6126 28.8479 58.464 29.2127 59.3761C29.3952 59.8626 29.2127 60.045 28.7263 60.045C28.179 60.045 27.6925 60.045 27.1452 60.045C20.2738 60.045 13.4024 60.045 6.47014 60.045C4.40263 60.045 3.42969 59.0721 3.42969 57.0046C3.42969 48.9778 3.42969 40.8901 3.42969 32.8633Z" fill="#EC0C24"/>
<path d="M44.7195 61.0788C41.2534 61.0788 37.7264 61.0788 34.2603 61.0788C32.5577 61.0788 31.4023 59.9234 31.2199 58.464C31.0374 57.4303 31.5847 56.5789 32.132 55.7884C33.8955 53.1128 35.7805 50.498 37.6048 47.8832C38.6386 46.4238 39.7331 45.086 40.7669 43.6266C41.0101 43.2618 41.1926 42.7753 41.1926 42.3496C41.2534 38.9443 41.1926 35.5998 41.2534 32.1945C41.2534 31.6472 41.0709 31.2824 40.6453 30.9783C39.7939 30.2486 39.5507 29.2757 39.9156 28.3027C40.2196 27.5122 41.0709 26.9041 42.1047 26.9041C43.929 26.9041 45.7532 26.9041 47.5775 26.9041C48.6113 26.9041 49.4018 27.4514 49.7058 28.2419C50.0707 29.2149 49.8274 30.1878 49.0977 30.8567C48.6113 31.2824 48.4288 31.708 48.4896 32.3161C48.5505 35.3566 48.5505 38.4578 48.4896 41.4983C48.4896 42.5929 48.7937 43.4442 49.4626 44.3563C51.6517 47.2752 53.8408 50.2548 55.9692 53.2953C56.8205 54.5722 57.5502 55.91 58.2799 57.2478C58.9488 58.464 57.7326 60.7748 56.03 60.9572C55.5435 61.018 55.1178 61.018 54.6314 61.018C51.2261 61.0788 47.9424 61.0788 44.7195 61.0788ZM44.7195 59.5586C48.1856 59.5586 51.6517 59.5586 55.057 59.5586C56.334 59.5586 57.0637 58.3424 56.4556 57.187C56.1516 56.6398 55.8475 56.0925 55.4827 55.5452C52.8071 51.8358 50.0707 48.1265 47.3951 44.4171C47.091 43.9915 46.787 43.3834 46.787 42.8361C46.7262 38.7619 46.787 34.7485 46.7262 30.6743C46.7262 30.127 46.8478 29.8229 47.4559 29.8229C47.8816 29.8229 48.1856 29.5797 48.1856 29.0932C48.1856 28.6068 47.8207 28.3635 47.3951 28.3635C45.5708 28.3635 43.8073 28.3635 41.9831 28.4243C41.7398 28.4243 41.3142 28.85 41.2534 29.0932C41.1317 29.5189 41.4966 29.7621 41.9223 29.8229C42.5304 29.8838 42.652 30.1878 42.652 30.7351C42.652 34.7485 42.652 38.7619 42.5912 42.7145C42.5912 43.2009 42.4087 43.809 42.1047 44.2347C41.1317 45.6333 40.0372 47.0319 39.0034 48.4305C36.9967 51.2277 35.0508 54.0858 33.1049 56.883C32.6793 57.4303 32.5577 58.0384 32.8617 58.6465C33.1658 59.2545 33.7738 59.437 34.5036 59.437C37.9089 59.5586 41.3142 59.5586 44.7195 59.5586Z" fill="#EC0C24"/>
<path d="M25.1386 11.0328C22.159 11.0328 19.1793 11.0328 16.2605 11.0328C15.6524 11.0328 15.4092 10.8504 15.4092 10.2423C15.4092 8.90452 15.4092 7.50591 15.4092 6.16811C15.47 5.01274 16.1389 4.34384 17.2943 4.34384C18.5104 4.34384 19.7266 4.28303 20.9428 4.34384C21.2469 4.34384 21.7333 4.64789 21.8549 4.89112C23.3144 7.3843 27.0237 7.32349 28.4831 4.89112C28.6656 4.58708 29.152 4.34384 29.5777 4.28303C30.7331 4.22222 31.9492 4.22222 33.1654 4.28303C34.1992 4.28303 34.9897 4.95193 34.9897 6.0465C35.0505 7.44511 34.9897 8.84371 34.9897 10.2423C34.9897 10.8504 34.6857 10.972 34.1384 10.972C31.0979 11.0328 28.1183 11.0328 25.1386 11.0328Z" fill="#EC0C24"/>
<g clip-path="url(#clip1_3291_29348)">
<path d="M30.4023 15.472C30.5834 15.7087 30.8134 15.9229 30.9359 16.1874C31.1696 16.6924 31.3522 17.2229 31.5371 17.7489C31.7031 18.2208 31.5371 18.5605 31.0659 18.7161C30.4888 18.9054 29.9064 19.0798 29.3232 19.2503C28.9084 19.3721 28.5507 19.2225 28.4132 18.8874C28.2629 18.5229 28.4132 18.1953 28.825 17.9699C28.8633 17.9488 28.9002 17.9263 28.9618 17.8909C27.8913 17.3024 26.6807 17.0166 25.46 17.0643C23.5813 17.135 21.9281 17.8075 20.6258 19.1752C18.7449 21.1546 18.1159 23.5149 18.926 26.1308C19.7361 28.7466 21.5711 30.384 24.2704 30.9401C24.9993 31.0904 25.7733 31.0356 26.5293 31.0348C26.9494 31.0348 27.3018 31.2565 27.3311 31.636C27.3574 31.9659 27.0846 32.2657 26.7157 32.3048C23.8789 32.6054 21.4449 31.7502 19.5054 29.6581C17.895 27.923 17.2074 25.8302 17.3637 23.4601C17.5981 19.8981 20.238 16.6856 24.09 15.9454C25.8627 15.5942 27.7018 15.8424 29.318 16.651C29.4254 16.7036 29.5352 16.7517 29.72 16.8366C29.4315 16.2482 29.4112 15.7703 30.0281 15.475L30.4023 15.472Z" fill="#EE2D41"/>
<path d="M33.9928 24.4504C33.9702 24.5819 33.9409 24.7127 33.9266 24.8457C33.8823 25.247 33.6118 25.4814 33.2278 25.4469C32.8731 25.4145 32.6409 25.129 32.6552 24.7472C32.6694 24.3655 32.6897 24.004 32.689 23.6328C32.689 23.2255 32.8829 22.9678 33.2451 22.9325C33.6073 22.8971 33.8462 23.0827 33.9357 23.4938C33.9514 23.5644 33.974 23.6328 33.9928 23.7027V24.4504Z" fill="#EE2D41"/>
<path d="M24.3997 22.8304C24.3997 22.1586 24.3997 21.486 24.3997 20.8135C24.3997 20.3468 24.6191 20.0966 25.0129 20.0906C25.4067 20.0845 25.6599 20.3446 25.6644 20.83C25.6742 21.9504 25.6802 23.0716 25.6599 24.192C25.6539 24.5099 25.7351 24.6745 26.0469 24.797C26.7984 25.0931 27.528 25.4312 28.2637 25.7611C28.6575 25.9369 28.8161 26.2931 28.6703 26.6305C28.5245 26.968 28.1442 27.0867 27.7512 26.9154C26.7969 26.5005 25.847 26.0715 24.8882 25.6687C24.5425 25.5184 24.3899 25.2929 24.3967 24.9247C24.408 24.2251 24.3997 23.5278 24.3997 22.8304Z" fill="#EE2D41"/>
<path d="M28.5203 30.7838C28.5789 30.7087 28.6706 30.4975 28.8359 30.3795C29.1643 30.1376 29.5257 29.9407 29.8774 29.731C30.2126 29.5311 30.5627 29.6025 30.7611 29.9039C30.8538 30.0388 30.8894 30.2049 30.8602 30.3659C30.8309 30.527 30.7391 30.6699 30.6048 30.7635C30.2189 31.0334 29.8149 31.2764 29.3957 31.491C28.9569 31.7081 28.521 31.4045 28.5203 30.7838Z" fill="#EE2D41"/>
<path d="M33.3302 20.9471C33.3512 21.3544 33.2002 21.5655 32.9342 21.6572C32.6682 21.7489 32.3713 21.7016 32.2105 21.4318C31.964 21.0192 31.7348 20.5932 31.5342 20.1543C31.4049 19.8793 31.4861 19.611 31.7363 19.4291C31.9866 19.2473 32.2721 19.2165 32.4878 19.4351C32.9236 19.8875 33.1641 20.4564 33.3302 20.9471Z" fill="#EE2D41"/>
<path d="M32.5956 26.5997C33.1014 26.6853 33.402 27.1129 33.2103 27.5443C33.0078 27.9819 32.7714 28.403 32.5032 28.8037C32.3281 29.0735 31.8938 29.1111 31.6345 28.9285C31.5064 28.8382 31.4171 28.7029 31.3845 28.5496C31.3518 28.3964 31.3784 28.2364 31.4587 28.1018C31.6586 27.7321 31.8449 27.3504 32.0824 27.0077C32.2011 26.8349 32.4213 26.7334 32.5956 26.5997Z" fill="#EE2D41"/>
</g>
<path d="M46.9084 16.0801C46.9084 18.6341 46.9084 21.1881 46.9084 23.7421C46.9084 24.6542 46.7868 24.7758 45.8139 24.7758C45.0841 24.7758 44.3544 24.7758 43.6247 24.7758C42.8342 24.7758 42.7126 24.6542 42.7126 23.8637C42.7126 19.7287 42.7126 15.6545 42.7126 11.5195C42.7126 9.45194 42.591 9.75599 40.9491 9.75599C39.7329 9.75599 38.5168 9.75599 37.2398 9.75599C36.4493 9.75599 36.3276 9.57356 36.3276 8.78304C36.3276 7.99253 36.3276 7.1412 36.3276 6.35068C36.3276 5.86421 36.5709 5.62097 37.0573 5.62097C39.5505 5.62097 42.0437 5.62097 44.4761 5.62097C45.8747 5.62097 46.7868 6.77634 46.7868 8.29657C46.9084 10.9722 46.8476 13.5262 46.9084 16.0801Z" fill="#EC0C24"/>
<path d="M25.4429 50.0115C23.1929 50.0115 20.943 50.0115 18.6323 50.0115C18.389 50.0115 18.1458 50.0115 17.9025 50.0115C17.3553 49.9507 16.9296 49.4642 16.9904 48.9777C17.0512 48.3697 17.4161 48.1264 17.9634 48.1264C18.2674 48.0656 18.5106 48.1264 18.8147 48.1264C23.6794 48.1264 28.6049 48.1264 33.4697 48.1264C33.6521 48.1264 33.8953 48.1264 34.0778 48.1872C34.3818 48.248 34.5034 48.4913 34.321 48.7953C33.7737 49.5858 33.2264 50.2547 32.0711 50.1939C29.8819 49.9507 27.632 50.0115 25.4429 50.0115Z" fill="#EC0C24"/>
<path d="M37.6655 37.2417H18.0242C17.4769 37.2417 17.0513 36.816 17.0513 36.2687C17.0513 35.7214 17.4769 35.2958 18.0242 35.2958H37.6655C38.2128 35.2958 38.6385 35.7214 38.6385 36.2687C38.6993 36.7552 38.2128 37.2417 37.6655 37.2417Z" fill="#EC0C24"/>
<path d="M37.6655 43.6874H18.0242C17.4769 43.6874 17.0513 43.2617 17.0513 42.7144C17.0513 42.1672 17.4769 41.7415 18.0242 41.7415H37.6655C38.2128 41.7415 38.6385 42.1672 38.6385 42.7144C38.6993 43.2617 38.2128 43.6874 37.6655 43.6874Z" fill="#EC0C24"/>
<path d="M27.8141 3.06693C27.8141 4.52635 26.5979 5.68172 25.0777 5.68172C23.5575 5.68172 22.4021 4.46554 22.4021 3.00612C22.4021 1.4859 23.6183 0.269714 25.0777 0.269714C26.6587 0.269714 27.8749 1.4859 27.8141 3.06693ZM24.1656 3.00612C24.1656 3.49259 24.7128 4.03988 25.1993 4.03988C25.625 4.03988 26.2331 3.43179 26.1723 2.94531C26.1723 2.45884 25.5642 1.91156 25.1385 1.97237C24.5912 1.97237 24.1048 2.51965 24.1656 3.00612Z" fill="#EC0C24"/>
<path d="M15.0443 36.2687C15.0443 38.0929 15.2267 38.0321 13.2808 38.0321C11.1525 38.0321 11.5782 38.0321 11.5174 36.3295C11.5174 34.2012 11.3958 34.5052 13.3416 34.5052C14.9227 34.5052 15.0443 34.1404 14.9835 36.2079C15.0443 36.2079 15.0443 36.2687 15.0443 36.2687Z" fill="#EC0C24"/>
<path d="M15.0447 42.5928C15.0447 42.8969 15.0447 43.1401 15.0447 43.4442C15.0447 44.2347 14.9839 44.3563 14.1934 44.3563C13.5245 44.3563 12.8556 44.3563 12.1867 44.3563C11.7002 44.3563 11.5178 44.1131 11.5178 43.6874C11.5178 43.0185 11.5178 42.3496 11.5178 41.6199C11.5178 41.0118 11.7611 40.8294 12.3691 40.8294C12.9772 40.8294 13.6461 40.8294 14.2542 40.8294C14.8015 40.8294 14.9839 41.0726 14.9839 41.5591C15.0447 41.9239 15.0447 42.2888 15.0447 42.5928Z" fill="#EC0C24"/>
<path d="M13.3421 47.2751C15.1056 47.3359 15.0447 46.9102 15.0447 48.9777C15.0447 51.106 15.288 50.802 13.1597 50.802C11.2138 50.802 11.5786 50.6804 11.5178 49.221C11.5178 49.1601 11.5178 49.1601 11.5178 49.0993C11.5786 47.0318 11.3354 47.2751 13.3421 47.2751Z" fill="#EC0C24"/>
<path d="M44.6588 58.8288C41.4359 58.8288 38.213 58.8288 34.9901 58.8288C34.7469 58.8288 34.5645 58.8288 34.3213 58.8288C33.6524 58.768 33.4091 58.4031 33.774 57.795C34.5037 56.6397 35.2334 55.5451 36.0239 54.3897C37.3009 52.6263 38.5779 50.8628 39.9157 49.0385C40.2805 48.4912 40.767 48.248 41.4359 48.248C43.625 48.3088 45.8142 48.3088 48.0033 48.3088C48.6722 48.3088 49.0979 48.5521 49.5235 49.0385C51.4694 51.7749 53.4153 54.4505 55.3612 57.1869C55.4828 57.3086 55.5436 57.491 55.6044 57.6126C56.0301 58.4639 55.8477 58.8288 54.8747 58.8288C52.564 58.8288 50.314 58.8288 48.0033 58.8288C46.9087 58.8288 45.7534 58.8288 44.6588 58.8288Z" fill="#EC0C24"/>
</g>
<defs>
<clipPath id="clip0_3291_29348">
<rect width="60.8091" height="60.8091" fill="white" transform="translate(0.450439 0.269714)"/>
</clipPath>
<clipPath id="clip1_3291_29348">
<rect width="16.6509" height="16.8914" fill="white" transform="translate(17.3418 15.472)"/>
</clipPath>
</defs>
</svg>
