<svg width="47" height="47" viewBox="0 0 47 47" fill="none" xmlns="http://www.w3.org/2000/svg">
<g clip-path="url(#clip0_39141_315489)">
<path d="M0.466258 20.2096C0.466258 17.1423 0.466258 14.0758 0.466258 11.01C0.471304 10.3538 0.449316 9.69773 0.400393 9.04469C0.200995 6.6552 1.18445 5.17611 3.04942 5.10203C5.01693 5.02637 6.98566 4.98097 8.95558 4.96583C11.0759 4.94552 13.1962 4.94194 15.3165 4.98375C22.8196 5.1319 30.3219 5.04469 37.8251 5.03513C39.0404 5.03513 40.2611 4.89534 41.4756 4.9503C42.3435 4.98973 43.2169 5.05066 44.0317 5.54767C44.8202 6.02557 45.2506 6.81769 45.2362 7.98137C45.2172 9.55365 45.1757 11.1247 45.1577 12.697C45.1054 17.2574 45.275 21.8117 45.358 26.3685C45.3842 27.8022 45.4022 29.2358 45.2353 30.6516C45.0287 32.4079 44.4656 33.1474 43.1547 33.4784C42.638 33.6095 42.1135 33.6787 41.5875 33.6851C39.2118 33.709 36.8353 33.5298 34.4596 33.5967C30.986 33.6958 27.5123 33.4617 24.0431 33.5704C18.3896 33.7472 12.736 33.666 7.08069 33.6898C5.53242 33.6898 3.98596 33.6349 2.4431 33.4509C1.30896 33.3183 0.458138 32.1809 0.45092 30.6588C0.433777 27.9909 0.45092 25.3219 0.45092 22.654V20.2048L0.466258 20.2096ZM22.8341 32.1809C28.8636 32.1809 34.8936 32.1829 40.9243 32.1869C41.4819 32.2002 42.0343 32.0427 42.5384 31.7269C43.3279 31.2191 43.8332 30.4222 43.8341 29.2119C43.8401 22.6409 43.8401 16.0698 43.8341 9.49869C43.8341 8.53692 43.5192 7.78782 42.9156 7.22868C42.1938 6.56201 41.3763 6.46285 40.5463 6.46285C28.7568 6.45409 16.9673 6.45409 5.17784 6.46285C4.78695 6.46379 4.39667 6.50373 4.01032 6.58232C2.71378 6.84397 1.86656 7.97539 1.86385 9.52139C1.85122 16.0726 1.85122 22.6237 1.86385 29.1749C1.85536 29.6158 1.93244 30.0521 2.08773 30.4423C2.24302 30.8324 2.47131 31.1632 2.75077 31.4031C3.32394 31.9271 4.00688 32.1996 4.70325 32.1821C10.7454 32.1781 16.789 32.1777 22.8341 32.1809Z" fill="#14AC75"/>
<path d="M22.827 41.9285H12.7217C12.1253 41.9285 12.1091 41.9069 12.1055 41.1363C12.1055 40.5593 12.11 39.981 12.1055 39.404C12.1055 39.0312 12.2282 38.8484 12.5151 38.8687C12.6198 38.8771 12.7253 38.8687 12.8309 38.8687H32.8592C33.5864 38.8687 33.5873 38.8687 33.5882 39.8245C33.5882 40.3215 33.5764 40.8197 33.5882 41.3167C33.6008 41.7779 33.4573 41.9464 33.1073 41.9416C31.6186 41.9249 30.1298 41.9356 28.642 41.9356L22.827 41.9285Z" fill="#14AC75"/>
<path d="M21.3135 36.2397C21.3135 35.7224 21.3207 35.2038 21.3135 34.6865C21.3053 34.2648 21.4298 34.07 21.7646 34.0784C22.4864 34.0967 23.2082 34.0967 23.93 34.0784C24.262 34.07 24.3883 34.2576 24.3811 34.6817C24.3727 35.7371 24.3727 36.7921 24.3811 37.8466C24.3811 38.2707 24.2611 38.4619 23.93 38.4535C23.2082 38.4368 22.4864 38.4368 21.7646 38.4535C21.4335 38.4619 21.3008 38.2767 21.3089 37.8502C21.3216 37.3138 21.3135 36.7761 21.3135 36.2397Z" fill="#14AC75"/>
<path d="M42.9944 15.9273C42.9375 18.8771 43.0647 22.1997 43.0666 25.5246C43.0747 26.8577 43.0195 28.19 42.9014 29.5139C42.8112 30.4637 42.4503 31.0312 41.7195 31.1937C41.2593 31.2953 40.8037 31.4123 40.3354 31.4099C38.8918 31.4016 37.4482 31.4004 36.0046 31.3251C35.0446 31.2749 34.0819 31.3813 33.1174 31.3813C24.1869 31.3813 15.2545 31.3785 6.32039 31.3729C5.6455 31.3729 4.967 31.4506 4.29573 31.3C3.86195 31.2174 3.45335 30.9799 3.11377 30.6131C2.96055 30.4497 2.83902 30.2402 2.7593 30.002C2.67957 29.7639 2.64396 29.5039 2.65543 29.2439C2.7637 25.1041 2.74565 20.9631 2.67257 16.8245C2.64009 14.8544 2.61302 12.8819 2.60941 10.9153C2.60762 10.2771 2.67322 9.64176 2.8043 9.02763C2.98475 8.17339 3.39437 7.63217 4.06746 7.42667C5.09422 7.11246 6.13272 7.18772 7.1658 7.25463C8.81873 7.36694 10.4717 7.3526 12.1282 7.35021C18.8644 7.34065 25.5998 7.35021 32.3387 7.30361C33.8563 7.29406 35.3739 7.24029 36.8924 7.24388C38.3802 7.24388 39.8699 7.30003 41.3505 7.45774C42.582 7.58916 42.9917 8.17458 42.9917 9.81855C42.9935 11.7301 42.9944 13.6405 42.9944 15.9273ZM11.0356 24.3502V24.3669C10.3589 24.3669 9.68219 24.349 9.0055 24.3729C8.6446 24.386 8.53272 24.1686 8.53543 23.7277C8.54535 22.1172 9.25723 20.6501 10.3219 20.0874C11.558 19.4338 12.8175 19.7516 13.6927 20.9428C13.7829 21.0623 13.9444 21.1818 13.9011 21.3693C13.8515 21.5856 13.6711 21.4888 13.5466 21.4972C12.6443 21.5294 11.742 21.4016 10.8461 21.6166C10.7035 21.6501 10.4924 21.6369 10.4852 21.8783C10.478 22.1196 10.6729 22.2236 10.8371 22.2666C10.9862 22.298 11.1373 22.3108 11.2882 22.3048C12.1454 22.3048 13.0025 22.3215 13.8587 22.3048C14.2647 22.2941 14.4605 22.4888 14.5038 23.0432C14.5941 24.2164 14.5454 25.3908 14.5508 26.5641C14.5553 27.5593 14.5011 27.5688 13.7496 27.5294C12.5198 27.4649 11.2864 27.361 10.0593 27.5975C9.88791 27.631 9.64249 27.6369 9.65964 27.95C9.67497 28.2391 9.88881 28.3406 10.099 28.3538C10.2344 28.3622 10.3697 28.3634 10.505 28.3622C11.693 28.3622 12.881 28.3582 14.069 28.3502C14.3081 28.3502 14.5201 28.3502 14.5517 28.7803C14.5751 29.1053 14.6419 29.4565 14.9667 29.4147C15.2915 29.3729 15.3475 29.0348 15.3475 28.6656C15.3475 27.1125 15.3601 25.5593 15.3475 24.0061C15.3339 22.1531 14.8548 20.619 13.5745 19.668C13.2795 19.4482 13.2371 19.2761 13.5745 19.0312C14.586 18.2953 15.1029 17.1196 15.2771 15.631C15.4205 14.4016 15.333 13.1674 15.3447 11.9356C15.352 11.2785 15.3447 10.6214 15.3366 9.96431C15.3321 9.60589 15.1832 9.30122 14.936 9.25941C14.6509 9.21042 14.6545 9.60588 14.6184 9.86395C14.484 10.8114 14.5499 11.7755 14.5499 12.7242C14.5499 13.6202 14.5544 13.6238 13.8804 13.6226C12.6623 13.6226 11.4443 13.5246 10.2281 13.6405C9.97272 13.6644 9.5261 13.5915 9.53422 14.0455C9.54234 14.4996 9.96911 14.4219 10.2452 14.4219C11.4777 14.4219 12.7111 14.4064 13.9444 14.4028C14.5156 14.4028 14.6157 14.5282 14.5526 15.2785C14.4254 16.8006 13.8533 17.9261 12.7896 18.57C11.6635 19.2522 10.6241 18.9846 9.65332 18.0336C9.55317 17.9356 9.37543 17.8412 9.43858 17.6358C9.50174 17.4303 9.67858 17.5258 9.8067 17.527C10.6187 17.527 11.4308 17.5712 12.2428 17.4577C12.4232 17.4326 12.758 17.4972 12.739 17.1328C12.7237 16.8377 12.435 16.7373 12.1977 16.7242C12.1075 16.7242 12.0172 16.7242 11.927 16.7242C11.0699 16.7242 10.2127 16.6931 9.35648 16.7361C8.89543 16.76 8.70776 16.5139 8.64189 15.9416C8.50114 14.7313 8.60851 13.5163 8.5643 12.3048C8.54445 11.7624 8.7231 11.6178 9.10024 11.6334C9.89603 11.668 10.6936 11.6716 11.4903 11.6692C12.0317 11.6692 12.573 11.6596 13.1144 11.6047C13.3038 11.5856 13.6214 11.5712 13.6196 11.2463C13.6196 10.8878 13.3192 10.8723 13.0909 10.8556C13.016 10.8496 12.9402 10.8472 12.8654 10.8484C11.7375 10.8548 10.6097 10.8616 9.48189 10.8687C8.69693 10.8687 8.70054 10.8687 8.5634 9.86634C8.51919 9.53898 8.42535 9.20325 8.12309 9.23671C7.84069 9.26897 7.73422 9.57602 7.73332 9.92966C7.72791 11.5211 7.69904 13.1125 7.73332 14.7015C7.76941 16.5402 8.25573 18.0933 9.53783 19.0228C9.92941 19.306 9.79768 19.4733 9.51167 19.6823C8.96399 20.0705 8.51277 20.6601 8.21242 21.3801C7.84249 22.2749 7.7261 23.2582 7.72069 24.2618C7.71347 25.7337 7.72881 27.2044 7.73603 28.6823C7.73603 29.0635 7.87046 29.3765 8.15377 29.4207C8.43708 29.4649 8.4461 29.0981 8.48761 28.8305C8.63467 27.8843 8.56069 26.9261 8.56881 25.9715C8.57603 25.1853 8.59046 25.1531 9.16971 25.1591C10.1017 25.1674 11.0338 25.1925 11.9667 25.1889C12.4022 25.186 12.8374 25.1537 13.2705 25.0921C13.413 25.0706 13.6494 25.0408 13.626 24.7457C13.6079 24.5067 13.4175 24.4279 13.2488 24.3872C13.1444 24.3689 13.0392 24.3613 12.9339 24.3645C12.2987 24.349 11.6672 24.3502 11.0356 24.3502ZM32.6897 26.6298C31.4572 26.6298 30.2238 26.6238 28.9905 26.6298C28.5556 26.6298 28.1171 26.582 27.6885 26.7301C27.5523 26.7767 27.342 26.7397 27.3547 27.0169C27.3637 27.2331 27.5414 27.3144 27.6831 27.3753C27.7711 27.4074 27.8626 27.4199 27.9538 27.4123C30.6145 27.386 33.2771 27.6011 35.936 27.5031C36.522 27.5016 37.1065 27.4267 37.6819 27.2797C37.7847 27.251 37.9084 27.2248 37.921 27.0587C37.9363 26.8568 37.8037 26.8054 37.6891 26.7528C37.4594 26.6565 37.219 26.6125 36.9781 26.6226C35.5496 26.6258 34.1207 26.6282 32.6915 26.6298H32.6897ZM32.6365 21.4924C31.4789 21.4924 30.3213 21.4852 29.1637 21.4924C28.6837 21.4924 28.2001 21.4398 27.7255 21.5856C27.5866 21.6286 27.37 21.5856 27.3592 21.8353C27.3457 22.1208 27.5631 22.2295 27.7354 22.251C28.0629 22.2917 28.395 22.2714 28.7279 22.2714C31.4924 22.2773 34.2569 22.5557 37.0205 22.2654C37.3381 22.2331 37.8876 22.2785 37.8777 21.9165C37.8632 21.4123 37.3363 21.5043 37.0142 21.4996C35.5553 21.478 34.0954 21.49 32.6383 21.49L32.6365 21.4924ZM32.6816 16.355V16.3622C31.2235 16.3622 29.7652 16.3622 28.3066 16.3622C28.1263 16.3547 27.946 16.3764 27.7697 16.4267C27.6145 16.4792 27.3348 16.4111 27.3619 16.7457C27.3844 17.0193 27.6199 17.122 27.822 17.1304C28.1974 17.1447 28.5736 17.1304 28.9499 17.1304C31.6566 17.1304 34.3589 17.4147 37.062 17.1196C37.3634 17.0862 37.8822 17.1459 37.8741 16.7731C37.8678 16.2953 37.367 16.361 37.053 16.3574C35.6004 16.343 34.1423 16.3526 32.6834 16.3526L32.6816 16.355ZM32.6816 11.2176V11.2283C31.2109 11.2283 29.7402 11.2283 28.2696 11.2283C28.0602 11.2367 27.8516 11.2679 27.6461 11.3215C27.5189 11.349 27.3411 11.3574 27.3493 11.5963C27.3565 11.7911 27.509 11.8783 27.6344 11.938C27.7336 11.9811 27.8376 12.0017 27.942 11.999C30.5829 12.0348 33.2229 12.0826 35.8638 12.0898C36.4641 12.0993 37.0634 12.026 37.6521 11.8711C37.7694 11.8389 37.9165 11.8185 37.9228 11.6202C37.9291 11.4219 37.7866 11.3813 37.6729 11.3263C37.4727 11.2384 37.2619 11.2007 37.0512 11.2152C35.5962 11.2112 34.1408 11.21 32.6852 11.2116L32.6816 11.2176ZM24.1616 13.576C24.6057 13.6099 25.0468 13.4614 25.4247 13.1507C26.2819 12.441 26.318 10.944 25.4942 10.1638C24.7463 9.45774 23.5327 9.46013 22.7875 10.1698C22.1162 10.8078 22.0142 11.9512 22.5628 12.772C22.9823 13.4004 23.5291 13.6095 24.1616 13.576ZM24.0073 28.9966C24.4647 28.987 24.795 28.9751 25.1035 28.7899C25.6521 28.4601 26.0753 28.0061 26.0852 27.1172C26.0951 26.2283 25.7243 25.674 25.1523 25.3251C24.4043 24.8807 23.6617 24.9476 22.9481 25.4589C22.0386 26.1101 21.9601 27.6441 22.782 28.4733C23.1297 28.8369 23.5647 29.0227 24.0073 28.9966ZM24.0804 18.7218C24.481 18.7218 24.8383 18.6907 25.1748 18.4769C25.7162 18.1352 26.0879 17.6465 26.0879 16.7923C26.0879 15.938 25.7396 15.4171 25.1965 15.0838C24.3844 14.5856 23.5841 14.6656 22.8308 15.2905C22.1315 15.8675 22.0088 17.0467 22.5447 17.8831C22.9526 18.5199 23.4975 18.7421 24.0804 18.7218ZM24.0434 23.8592C24.4503 23.8592 24.7805 23.8424 25.09 23.6644C25.644 23.3454 26.0644 22.8855 26.087 22.0037C26.1096 21.122 25.7487 20.5497 25.1712 20.2116C24.3592 19.7277 23.5616 19.8174 22.8154 20.4506C22.1405 21.0193 22.0151 22.1722 22.5231 22.9942C22.7039 23.2905 22.9365 23.5241 23.2007 23.6748C23.465 23.8255 23.7529 23.8888 24.0398 23.8592H24.0434Z" fill="#14AC75"/>
<path d="M24.1506 12.8186C23.5235 12.8186 23.0056 12.2607 23.0219 11.6036C23.0363 10.9739 23.5542 10.4375 24.147 10.4375C24.7398 10.4375 25.2712 10.9644 25.282 11.5868C25.2937 12.232 24.7542 12.8198 24.1506 12.8186Z" fill="#14AC75"/>
<path d="M24.1684 25.8556C24.772 25.8664 25.289 26.4136 25.2845 27.0349C25.2791 27.6764 24.7197 28.2702 24.1351 28.2547C23.5369 28.238 23.0289 27.6932 23.0235 27.06C23.0181 26.4267 23.5567 25.8437 24.1684 25.8556Z" fill="#14AC75"/>
<path d="M24.135 17.9555C23.5242 17.9412 23.0271 17.4143 23.0235 16.7763C23.0198 16.1383 23.5558 15.5636 24.1684 15.5744C24.781 15.5851 25.2881 16.1287 25.2845 16.7512C25.28 17.4047 24.7404 17.9698 24.135 17.9555Z" fill="#14AC75"/>
<path d="M24.1026 23.1077C23.4945 23.0659 23.0045 22.5104 23.0199 21.8748C23.0352 21.2391 23.5901 20.68 24.1928 20.7123C24.7955 20.7445 25.3035 21.3096 25.2755 21.9321C25.2521 22.5761 24.6782 23.1472 24.1026 23.1077Z" fill="#14AC75"/>
</g>
<defs>
<clipPath id="clip0_39141_315489">
<rect width="45" height="37" fill="white" transform="translate(0.375 4.93359)"/>
</clipPath>
</defs>
</svg>
