<svg width="47" height="47" viewBox="0 0 47 47" fill="none" xmlns="http://www.w3.org/2000/svg">
<g clip-path="url(#clip0_39141_315495)">
<g clip-path="url(#clip1_39141_315495)">
<path d="M1.08276 22.6506C1.08276 16.8255 1.08276 11.0004 1.08276 5.17528C1.08276 2.66552 2.80798 0.93843 5.3131 0.9375C10.363 0.9375 15.4135 0.9375 20.4646 0.9375C21.2566 0.9375 21.2575 0.937499 21.2575 1.74155C21.2575 5.28868 21.2575 8.83581 21.2575 12.3829C21.2575 14.9234 22.8638 16.5315 25.4172 16.5361C28.995 16.5426 32.5747 16.5361 36.1515 16.5361C36.8292 16.5361 36.8682 16.5724 36.8692 17.237C36.8692 19.282 36.8692 21.327 36.8692 23.372C36.8692 23.9706 36.8245 24.0078 36.2389 24.0022C29.8623 23.9427 24.8158 28.398 24.2032 34.7542C23.8835 38.0689 24.8957 41.0249 27.0987 43.5486C27.2001 43.6657 27.3098 43.7763 27.3999 43.9018C27.4901 44.0273 27.7346 44.1147 27.6407 44.3043C27.5682 44.4484 27.3572 44.3768 27.2084 44.3768C19.8508 44.3768 12.4932 44.3768 5.13555 44.3768C2.82658 44.3768 1.08741 42.6228 1.08555 40.3054C1.07935 34.4189 1.07842 28.534 1.08276 22.6506ZM18.1696 23.5216H24.7173C24.9035 23.529 25.09 23.5212 25.275 23.4984C25.6951 23.4277 25.8736 23.1266 25.8931 22.739C25.9136 22.3309 25.6942 22.0585 25.2889 21.9814C25.0893 21.9547 24.8877 21.9466 24.6866 21.9572C20.3531 21.9572 16.0192 21.9572 11.6851 21.9572C11.499 21.9493 11.3125 21.9555 11.1274 21.9758C10.7407 22.0344 10.5241 22.2695 10.4934 22.6618C10.4497 23.1991 10.7723 23.5179 11.3914 23.5198C13.6501 23.5216 15.9099 23.517 18.1696 23.517V23.5216ZM16.6628 31.1727H12.4417C12.0551 31.1727 11.6674 31.1606 11.2817 31.1829C10.8169 31.2099 10.5055 31.5203 10.4906 31.9349C10.4739 32.3876 10.7593 32.7148 11.2343 32.7845C11.3268 32.7956 11.42 32.7996 11.5131 32.7966C14.9469 32.7966 18.3806 32.7966 21.8143 32.7966C21.9223 32.7996 22.0304 32.7918 22.1369 32.7733C22.5617 32.6869 22.8433 32.3597 22.8219 31.9628C22.7987 31.5324 22.5431 31.2851 22.1369 31.2024C21.9687 31.1763 21.7984 31.167 21.6284 31.1745C19.9732 31.169 18.318 31.1668 16.6628 31.168V31.1727Z" fill="#C826B8"/>
<path d="M46.0833 35.7796C46.0833 41.3569 41.4849 45.9395 35.8863 45.9349C30.402 45.9349 25.7208 41.237 25.7227 35.7443C25.7227 30.1764 30.3434 25.5724 35.9272 25.5742C41.5109 25.5761 46.0843 30.1801 46.0833 35.7796ZM36.6866 37.0085C36.6866 35.8931 36.6866 34.7776 36.6866 33.6622C36.6866 33.5302 36.6327 33.3508 36.7935 33.2903C36.9543 33.2299 37.0342 33.3963 37.1291 33.4893C37.5009 33.8611 37.8727 34.2329 38.2445 34.6047C38.673 35.0258 39.1833 35.0909 39.5217 34.773C39.86 34.455 39.8368 33.9364 39.4083 33.5004C38.4478 32.5355 37.4776 31.58 36.4979 30.6337C36.1066 30.2535 35.6938 30.248 35.309 30.6253C34.3181 31.602 33.334 32.5867 32.3568 33.5794C31.9682 33.9736 31.9506 34.4625 32.2778 34.773C32.605 35.0834 33.1144 35.0369 33.4862 34.68C33.858 34.3231 34.2056 33.955 34.5728 33.5999C34.7011 33.4762 34.8164 33.2401 35.0088 33.3089C35.2188 33.3842 35.1194 33.6361 35.1194 33.809C35.1259 35.947 35.1194 38.0849 35.1268 40.2173C35.1268 40.801 35.4475 41.171 35.9132 41.1663C36.4022 41.1663 36.681 40.8271 36.6847 40.2145C36.6894 39.1446 36.6857 38.0812 36.6866 37.0085Z" fill="#C826B8"/>
<path d="M30.4762 14.9674H25.5496C24.5095 14.9674 23.6255 14.6662 23.1012 13.6828C22.9201 13.3392 22.8284 12.9556 22.8344 12.5673C22.8344 9.09705 22.8344 5.62831 22.8344 2.16112C22.8344 1.99845 22.7666 1.77257 22.9515 1.69635C23.1365 1.62013 23.2527 1.8237 23.368 1.9371C25.0988 3.64374 26.8265 5.35378 28.5511 7.06724C30.821 9.32974 33.0863 11.5975 35.347 13.8705C35.5329 14.0565 35.7095 14.2526 35.8796 14.4534C35.9725 14.5658 36.1427 14.683 36.0534 14.8475C35.9642 15.012 35.7792 14.9618 35.6277 14.9637C35.1787 14.9693 34.7288 14.9637 34.2799 14.9637L30.4762 14.9674Z" fill="#C826B8"/>
</g>
</g>
<defs>
<clipPath id="clip0_39141_315495">
<rect width="46.375" height="46.375" fill="white"/>
</clipPath>
<clipPath id="clip1_39141_315495">
<rect width="45" height="45" fill="white" transform="translate(1.08203 0.933594)"/>
</clipPath>
</defs>
</svg>
