<svg width="47" height="47" viewBox="0 0 47 47" fill="none" xmlns="http://www.w3.org/2000/svg">
<g clip-path="url(#clip0_39141_315483)">
<g clip-path="url(#clip1_39141_315483)">
<path d="M27.6681 45.927H12.3444C12.1879 45.927 12.0323 45.927 11.8757 45.9223C11.6311 45.9139 11.5083 45.8211 11.6667 45.5746C12.2291 44.7038 12.2854 43.7346 12.2825 42.7363C12.2713 37.4412 12.3125 32.1443 12.2572 26.8511C12.2404 25.2024 13.4261 24.1263 14.9512 24.1328C24.3077 24.1722 33.6643 24.1516 43.0209 24.1525C44.7081 24.1525 45.6642 25.1067 45.6651 26.794C45.6651 32.2768 45.6651 37.7593 45.6651 43.2415C45.6651 44.9288 44.6706 45.9261 42.9909 45.927H27.6681ZM39.4308 39.7406C37.9311 39.7406 36.4313 39.7349 34.9316 39.7406C34.327 39.7406 34.073 39.9936 34.0627 40.5973C34.0483 41.519 34.0483 42.4404 34.0627 43.3615C34.0711 43.9708 34.3223 44.2276 34.9203 44.2286C37.903 44.2361 40.8859 44.2361 43.8691 44.2286C44.5065 44.2286 44.7784 43.9389 44.784 43.3025C44.7924 42.4589 44.784 41.6152 44.784 40.7716C44.784 39.9936 44.5281 39.7406 43.7379 39.7406C42.3047 39.7368 40.8678 39.7406 39.4308 39.7415V39.7406ZM32.4589 42.8338C31.7268 42.8338 31.7268 42.8338 31.7259 43.4899C31.7259 44.2398 31.7259 44.2398 32.4139 44.2398C33.1694 44.2398 33.1694 44.2398 33.1694 43.5612C33.1703 42.8338 33.1703 42.8338 32.4589 42.8338Z" fill="#E39F1E"/>
<path d="M28.5923 22.7079H16.0318C15.3757 22.7079 15.3701 22.7023 15.3691 22.064C15.3691 15.2382 15.3691 8.41219 15.3691 1.58583C15.3691 0.964369 15.3991 0.929688 16.0384 0.929688H41.1114C41.7572 0.929688 41.7591 0.934374 41.7591 1.58583C41.7591 8.41157 41.7591 15.2373 41.7591 22.063C41.7591 22.7004 41.7591 22.7032 41.103 22.7032L28.5923 22.7079ZM34.819 12.1806C34.819 15.0683 34.819 17.9562 34.819 20.8445C34.819 21.5466 35.0805 21.8109 35.7761 21.8165C36.6656 21.824 37.557 21.8259 38.4447 21.8165C39.0652 21.809 39.3501 21.5353 39.3501 20.9354C39.3551 15.1283 39.3551 9.32141 39.3501 3.51488C39.3501 2.88592 39.0914 2.63378 38.4653 2.62628C37.6067 2.61691 36.7481 2.62159 35.8895 2.62628C35.0309 2.63097 34.8181 2.83531 34.8181 3.70797C34.8175 6.53188 34.8178 9.3561 34.819 12.1806ZM28.5088 14.5521C28.5088 12.4281 28.5088 10.3031 28.5088 8.17817C28.5088 7.49203 28.2614 7.24926 27.5715 7.24082C26.6966 7.23332 25.8218 7.23332 24.9469 7.24082C24.2608 7.24645 24.0152 7.49016 24.0143 8.17817C24.0105 12.4112 24.0105 16.6439 24.0143 20.8764C24.0143 21.5625 24.2589 21.8043 24.9516 21.8137C25.7952 21.8231 26.6388 21.8193 27.4824 21.8137C28.2886 21.809 28.5135 21.5878 28.5135 20.7826C28.5135 18.708 28.512 16.6311 28.5088 14.5521ZM33.9295 15.7463C33.9295 13.9972 33.9295 12.2481 33.9295 10.4972C33.9295 9.85414 33.653 9.58231 33.0146 9.57575C32.1242 9.56544 31.2337 9.56731 30.3441 9.57575C29.688 9.58137 29.3946 9.85695 29.3927 10.5131C29.3871 13.9631 29.3871 17.4138 29.3927 20.8651C29.3927 21.5213 29.6824 21.8025 30.3404 21.8109C31.184 21.8193 32.0276 21.8109 32.8712 21.8109C33.6914 21.8109 33.9323 21.5691 33.9342 20.7508C33.9342 19.0848 33.9326 17.4166 33.9295 15.7463ZM18.5927 17.5919C18.5927 18.6839 18.588 19.775 18.5927 20.867C18.5974 21.5391 18.8626 21.81 19.53 21.8165C20.4186 21.8246 21.3075 21.8246 22.1968 21.8165C22.8482 21.81 23.1341 21.5259 23.1341 20.8604C23.141 18.7083 23.141 16.5558 23.1341 14.4031C23.1341 13.7151 22.8529 13.4385 22.1649 13.431C21.3072 13.4226 20.4486 13.4254 19.5909 13.431C18.857 13.431 18.5992 13.6851 18.5955 14.4106C18.588 15.4707 18.5927 16.5308 18.5927 17.5919ZM21.67 4.14853C20.1402 4.14853 18.6092 4.14853 17.077 4.14853C16.1678 4.14853 16.2606 4.05479 16.2568 4.98464C16.2568 5.59016 16.2568 5.5911 16.8867 5.5911C19.9449 5.5911 23.0041 5.5911 26.0642 5.5911C27.0953 5.5911 26.9519 5.73076 26.9875 4.66219C27.0016 4.23476 26.8385 4.13634 26.4429 4.14103C24.8541 4.15978 23.2625 4.14853 21.67 4.14853ZM18.528 1.80517C18.0753 1.80517 17.6225 1.80517 17.1698 1.80517C16.1499 1.81735 16.2859 1.658 16.2512 2.73689C16.2381 3.16244 16.4002 3.27024 16.7967 3.2618C17.795 3.2393 18.7942 3.2618 19.7962 3.25243C20.9295 3.24024 20.7814 3.43989 20.8048 2.22135C20.8114 1.88297 20.6689 1.79204 20.3567 1.79954C19.7447 1.8211 19.1363 1.80985 18.528 1.80985V1.80517ZM24.7145 1.80517C24.2627 1.80517 23.8099 1.80517 23.3572 1.80517C22.3383 1.81735 22.4742 1.658 22.4395 2.74251C22.4264 3.169 22.5914 3.27399 22.986 3.26555C23.9843 3.24305 24.9835 3.26555 25.9855 3.25618C27.1169 3.24399 26.9697 3.44364 26.9931 2.2251C26.9997 1.88578 26.8544 1.79673 26.5442 1.80423C25.9302 1.8211 25.3219 1.80985 24.7126 1.80985L24.7145 1.80517Z" fill="#E39F1E"/>
<path d="M7.73367 17.7128C7.73367 19.4778 7.72804 21.2428 7.73929 23.0078C7.74733 23.1538 7.72224 23.2997 7.66592 23.4346C7.60959 23.5694 7.52348 23.6898 7.41403 23.7867C6.55824 24.5976 6.21798 25.6239 6.21798 26.7862C6.21798 32.2538 6.1683 37.7213 6.24235 43.1898C6.27703 45.7721 3.74246 46.4705 1.98025 45.6344C1.05697 45.1947 0.667969 44.3624 0.667969 43.3266C0.676717 37.6094 0.676717 31.8917 0.667969 26.1732C0.667969 22.2526 0.667969 18.332 0.667969 14.4114C0.667969 12.7514 1.62968 11.7869 3.2766 11.7812C4.52639 11.7812 5.77618 11.7812 7.02597 11.7812C7.72992 11.7812 7.73086 11.7812 7.73086 12.4655C7.73335 14.214 7.73429 15.9631 7.73367 17.7128Z" fill="#E39F1E"/>
<path d="M7.93262 45.9317C7.62517 45.8989 7.21086 46.0685 7.03089 45.8492C6.80406 45.5736 7.22586 45.3299 7.33084 45.0571C7.55911 44.4587 7.67386 43.8229 7.66922 43.1825C7.66922 37.6996 7.66922 32.2168 7.66922 26.7339C7.66922 25.0758 8.58782 24.1591 10.2488 24.1562C10.5928 24.1562 10.9359 24.1562 11.2799 24.1562C11.5611 24.1562 11.6145 24.2744 11.4627 24.5012C10.9162 25.3186 10.8206 26.2353 10.8224 27.1895C10.8318 32.4686 10.7746 37.7496 10.8524 43.0306C10.8824 45.0637 9.57391 46.1023 7.93262 45.9317Z" fill="#E39F1E"/>
<path d="M13.9203 13.3543C13.9203 16.2594 13.9203 19.1652 13.9203 22.0716C13.9203 22.7071 13.9203 22.7146 13.3129 22.7108C12.1769 22.7033 12.2819 22.8505 12.2819 21.6901C12.2819 16.0529 12.2819 10.4154 12.2819 4.77758C12.2819 4.03239 12.2819 4.03333 13.0448 4.0277C14.0975 4.02302 13.9203 4.05114 13.9222 4.92193C13.9266 7.73521 13.926 10.546 13.9203 13.3543Z" fill="#E39F1E"/>
<path d="M9.18539 14.2047C9.18539 11.5507 9.18539 8.89775 9.18539 6.24569C9.18539 5.60548 9.19383 5.59517 9.84153 5.59892C10.9607 5.60548 10.8239 5.48363 10.8239 6.56345C10.8289 11.7282 10.8289 16.8933 10.8239 22.0587C10.8239 22.7054 10.8239 22.7054 10.1846 22.7148C10.1377 22.7148 10.0909 22.7148 10.044 22.7148C9.18164 22.7354 9.18164 22.7354 9.18164 21.8356L9.18539 14.2047Z" fill="#E39F1E"/>
<path d="M43.2097 17.1918C43.2097 15.5693 43.2097 13.9467 43.2097 12.3242C43.2097 11.7955 43.3203 11.714 43.8227 11.833C44.8491 12.0767 45.6458 12.9981 45.6533 14.0536C45.673 17.0334 45.6599 20.0132 45.6646 22.994C45.6646 23.3689 45.5577 23.487 45.2043 23.263C44.74 22.9687 44.2105 22.7929 43.6624 22.7512C43.3015 22.7231 43.1984 22.5412 43.2012 22.2C43.2162 20.5306 43.2097 18.8612 43.2097 17.1918Z" fill="#E39F1E"/>
<path d="M39.3848 42.836C38.2918 42.836 37.1979 42.8228 36.1041 42.8425C35.6776 42.85 35.4817 42.7404 35.5013 42.2661C35.5501 41.0288 35.3092 41.1525 36.6337 41.1487C38.6489 41.1431 40.6642 41.1431 42.6795 41.1487C43.3104 41.1487 43.3413 41.1787 43.3357 41.8115C43.33 42.8697 43.4688 42.8425 42.3355 42.8369L39.3848 42.836Z" fill="#E39F1E"/>
<path d="M37.9132 12.2042C37.9132 14.735 37.9038 17.2659 37.9216 19.7967C37.9216 20.2457 37.7876 20.3966 37.3358 20.3816C36.1022 20.3413 36.2681 20.5306 36.2663 19.3074C36.2606 14.4332 36.2606 9.56151 36.2663 4.69233C36.2663 4.03618 36.271 4.03618 36.913 4.0315C38.0932 4.0315 37.9094 3.98838 37.9122 5.04008C37.9188 7.42562 37.9132 9.81491 37.9132 12.2042Z" fill="#E39F1E"/>
<path d="M25.4161 14.5188C25.4161 12.7879 25.4161 11.0566 25.4161 9.32502C25.4161 8.69887 25.4311 8.68106 26.0366 8.68762C27.1961 8.69981 27.1024 8.50765 27.1033 9.76651C27.1033 13.0578 27.1033 16.3485 27.1033 19.6386C27.1033 20.3679 27.1033 20.3754 26.3891 20.3669C25.3758 20.3547 25.4143 20.546 25.4143 19.3846L25.4161 14.5188Z" fill="#E39F1E"/>
<path d="M32.4794 15.7015C32.4794 17.0897 32.4691 18.4779 32.4859 19.8652C32.4906 20.2495 32.3659 20.3873 31.9779 20.377C30.6768 20.3433 30.8428 20.5392 30.839 19.2756C30.8315 16.7335 30.839 14.1915 30.839 11.6494C30.839 11.0336 30.8456 11.0233 31.4689 11.0289C32.6378 11.0401 32.47 10.8836 32.4784 12.0525C32.4869 13.2644 32.4803 14.483 32.4794 15.7015Z" fill="#E39F1E"/>
<path d="M20.0428 17.6092C20.0428 16.8443 20.0531 16.0785 20.0428 15.3146C20.0372 14.9949 20.1543 14.8665 20.4796 14.8712C21.8856 14.8909 21.6766 14.7175 21.6869 16.0007C21.6972 17.2839 21.6775 18.5615 21.6953 19.8438C21.7019 20.2553 21.5566 20.3912 21.1507 20.38C19.8534 20.3434 20.0672 20.5356 20.0484 19.2974C20.0362 18.7331 20.0428 18.1707 20.0428 17.6092Z" fill="#E39F1E"/>
</g>
</g>
<defs>
<clipPath id="clip0_39141_315483">
<rect width="46.375" height="46.375" fill="white"/>
</clipPath>
<clipPath id="clip1_39141_315483">
<rect width="45" height="45.0328" fill="white" transform="translate(0.666016 0.933594)"/>
</clipPath>
</defs>
</svg>
