<svg width="47" height="47" viewBox="0 0 47 47" fill="none" xmlns="http://www.w3.org/2000/svg">
<g clip-path="url(#clip0_39028_358224)">
<path d="M5.03366 23.2132C5.03366 18.3046 5.03366 13.3965 5.03366 8.48909C5.03366 7.74309 5.03366 7.74219 5.80047 7.74219C10.3532 7.74219 14.9059 7.74219 19.4586 7.74219C20.1075 7.74219 20.1167 7.75125 20.1167 8.4066C20.1167 14.1607 20.1167 19.9144 20.1167 25.6679C20.1202 25.9689 20.0446 26.2657 19.8973 26.529C17.5457 30.8427 17.4561 35.1999 19.6743 39.5898C19.7417 39.7139 19.7821 39.8506 19.7928 39.9911C19.8035 40.1317 19.7843 40.2729 19.7364 40.4056C18.6872 43.6633 15.4738 45.7925 11.945 45.5587C8.6648 45.3411 5.763 42.727 5.18172 39.4638C5.08039 38.8837 5.03084 38.2959 5.03366 37.7071C5.03305 32.8764 5.03305 28.0451 5.03366 23.2132ZM8.24712 38.1839V38.3371C8.24712 38.8601 8.44545 39.1574 8.81012 39.1692C9.17479 39.181 9.3722 38.8973 9.41607 38.3679C9.46681 37.6291 9.62345 36.9011 9.88128 36.2061C9.99461 35.9133 10.1774 35.7737 10.4964 35.7746C11.8819 35.7807 13.2678 35.7807 14.6539 35.7746C14.9793 35.7746 15.1484 35.9278 15.2599 36.2161C15.538 36.9204 15.6964 37.6656 15.7288 38.4214C15.748 38.8891 15.9938 39.1864 16.3411 39.1674C16.6884 39.1484 16.9023 38.8583 16.8968 38.4105C16.8841 37.7754 16.7867 37.1448 16.6071 36.5351C16.1208 34.8455 15.1557 33.4587 13.8835 32.2613C13.4265 31.8334 13.4338 31.8253 13.8661 31.4038C14.3054 30.9854 14.7181 30.5404 15.1018 30.0713C17.245 27.3738 17.4781 23.942 15.7297 20.9934C15.2016 20.1257 14.5454 19.3414 13.7829 18.6665C13.5088 18.4155 13.4868 18.2133 13.7829 17.9668C14.0247 17.7588 14.253 17.536 14.4666 17.2996C15.9106 15.7324 16.8072 13.925 16.8995 11.7704C16.9215 11.2619 16.6884 10.9628 16.3137 10.96C15.939 10.9573 15.7525 11.2093 15.7315 11.7233C15.6965 12.4637 15.5422 13.1939 15.2745 13.886C15.1566 14.2014 14.9711 14.3238 14.6274 14.3202C13.2571 14.3045 11.8862 14.3045 10.5146 14.3202C10.1427 14.3247 9.96627 14.1733 9.84746 13.8461C9.59389 13.1346 9.44701 12.3901 9.4115 11.6362C9.38957 11.2592 9.25979 10.9827 8.8348 10.9646C8.46099 10.9482 8.25444 11.1975 8.24712 11.6643C8.23477 12.5274 8.38991 13.3847 8.7041 14.1897C9.26984 15.6572 10.1838 16.8899 11.3454 17.945C11.6406 18.217 11.647 18.4091 11.35 18.6792C10.8884 19.0964 10.4605 19.5489 10.0705 20.0325C7.86875 22.7645 7.63112 26.2172 9.44989 29.2066C9.97267 30.0668 10.638 30.811 11.3756 31.4944C11.6361 31.7364 11.6452 31.9186 11.3756 32.1561C11.1032 32.3979 10.8462 32.6561 10.606 32.9293C9.25887 34.4394 8.33029 36.1345 8.24712 38.1839Z" fill="#E90C6C"/>
<path d="M19.2773 33.2776C19.2776 31.6577 19.6003 30.0537 20.227 28.5577C20.8536 27.0617 21.7719 25.7031 22.9292 24.5599C24.0865 23.4167 25.46 22.5114 26.9708 21.8958C28.4817 21.2802 30.1003 20.9665 31.7336 20.9727C38.5792 20.9727 44.093 26.492 44.0839 33.3284C44.0738 40.0895 38.5024 45.5834 31.6605 45.577C24.8351 45.568 19.2728 40.046 19.2773 33.2776ZM28.3666 29.3391C28.1244 29.3537 27.8786 29.3491 27.6355 29.3836C26.9355 29.481 26.2623 29.7171 25.6561 30.0776C25.0499 30.4382 24.5229 30.9159 24.1065 31.4824C23.6901 32.0489 23.3928 32.6927 23.2322 33.3754C23.0716 34.0581 23.0511 34.7659 23.1717 35.4567C23.6698 38.3401 26.5369 40.2372 29.4643 39.6009C29.8299 39.522 30.0309 39.5737 30.2512 39.8982C31.241 41.3576 32.6668 41.9504 34.3942 41.702C36.1215 41.4537 37.2731 40.4031 37.7447 38.7525C38.5874 35.8057 39.356 32.8389 40.1356 29.8749C40.2892 29.2553 40.2892 28.6081 40.1356 27.9886C39.7189 26.1838 38.1715 24.8804 36.3884 24.8088C34.3411 24.7263 32.6969 25.8059 32.0983 27.6477C31.8799 28.3212 31.7208 29.0146 31.5298 29.6981C31.369 30.2728 31.3635 30.2755 30.8498 29.9981C30.0785 29.5748 29.2596 29.3265 28.3666 29.3391Z" fill="#E90C6C"/>
<path d="M12.595 0.578226C15.017 0.578226 17.4387 0.578226 19.86 0.578226C21.231 0.578226 22.048 1.38767 22.0535 2.74098C22.0535 3.31476 22.059 3.88853 22.0535 4.46321C22.038 5.71318 21.1889 6.56523 19.9222 6.57611C18.4754 6.5888 17.0286 6.57611 15.5818 6.57611C12.2008 6.57611 8.81916 6.57611 5.43692 6.57611C3.8768 6.57611 3.08074 5.78207 3.07983 4.23116C3.07983 3.6728 3.0716 3.11353 3.07983 2.55516C3.07945 2.29399 3.13133 2.03534 3.23246 1.79419C3.33359 1.55304 3.48196 1.33419 3.66898 1.15032C3.85599 0.966444 4.07793 0.821199 4.32195 0.722997C4.56597 0.624795 4.8272 0.575587 5.09053 0.578226C7.60025 0.578226 10.0981 0.582758 12.595 0.578226Z" fill="#E90C6C"/>
<path d="M12.6127 24.5177C11.7444 24.5177 10.8762 24.524 10.0079 24.5177C9.52902 24.5131 9.44585 24.4007 9.52353 23.9375C9.52902 23.9076 9.53724 23.8786 9.54364 23.8469C9.86352 22.2625 9.86353 22.2625 11.4757 22.2625C12.5113 22.2625 13.5468 22.2724 14.5832 22.2579C14.9405 22.2534 15.1498 22.3903 15.2732 22.7193C15.4241 23.1325 15.542 23.5568 15.626 23.9883C15.7 24.3509 15.5584 24.5322 15.169 24.5249C14.3191 24.5122 13.4654 24.5168 12.6127 24.5177Z" fill="#E90C6C"/>
<path d="M12.5657 27.8806C11.8674 27.8806 11.1683 27.8734 10.47 27.8806C10.1666 27.886 9.99292 27.7673 9.89604 27.4809C9.74242 27.0554 9.61634 26.6206 9.51858 26.1792C9.45277 25.8493 9.53412 25.6653 9.92437 25.668C11.6865 25.6771 13.4486 25.6771 15.2107 25.668C15.6009 25.668 15.6841 25.8493 15.6201 26.1792C15.5304 26.6379 15.3969 27.0871 15.2217 27.5208C15.1147 27.7836 14.9411 27.8833 14.6623 27.8833C13.9641 27.8743 13.2649 27.8806 12.5657 27.8806Z" fill="#E90C6C"/>
<path d="M12.5561 29.0436H13.9271C14.2323 29.0436 14.2771 29.175 14.1016 29.4016C13.7135 29.906 13.28 30.3744 12.8066 30.8012C12.6457 30.9453 12.4922 30.9535 12.3258 30.8012C11.8762 30.3719 11.4549 29.9145 11.0646 29.4316C10.9988 29.3527 10.9092 29.263 10.9567 29.1506C11.017 29.0092 11.1642 29.0481 11.2784 29.0472C11.7043 29.0409 12.1311 29.0472 12.558 29.0472L12.5561 29.0436Z" fill="#E90C6C"/>
<path d="M12.5278 21.0929C12.1184 21.0929 11.7052 21.0929 11.2995 21.0929C11.1825 21.0929 11.0399 21.1247 10.9668 21.0023C10.8937 20.8799 11.0088 20.7766 11.0792 20.6887C11.4676 20.2046 11.92 19.7822 12.3587 19.3472C12.5232 19.1858 12.6704 19.2048 12.8303 19.358C13.2671 19.7753 13.6776 20.2188 14.0596 20.686C14.1309 20.7766 14.2515 20.8672 14.1757 21.0005C14.0998 21.1337 13.9609 21.0911 13.8439 21.0911C13.407 21.0957 12.9674 21.0929 12.5278 21.0929Z" fill="#E90C6C"/>
<path d="M12.5497 34.6124C12.1247 34.6124 11.6997 34.6124 11.2748 34.6124C11.1614 34.6124 11.0152 34.655 10.9549 34.51C10.9073 34.3976 10.996 34.3088 11.06 34.229C11.4557 33.7305 11.9191 33.2963 12.3742 32.8539C12.5095 32.7225 12.632 32.7397 12.7736 32.8539C13.2882 33.2609 13.7031 33.7604 14.108 34.268C14.2981 34.5055 14.1994 34.6179 13.9161 34.6161C13.4609 34.6106 13.0058 34.6124 12.5497 34.6124Z" fill="#E90C6C"/>
<path d="M14.2023 15.714C14.1841 15.7578 14.1627 15.8002 14.1383 15.8409C13.7316 16.3848 13.2317 16.8498 12.729 17.3066C12.6038 17.4209 12.4749 17.3755 12.3634 17.2713C11.9065 16.8344 11.4385 16.4029 11.051 15.898C10.8783 15.6714 10.9066 15.5355 11.2155 15.5355C12.1249 15.5355 13.0352 15.5355 13.9446 15.5355C14.068 15.5327 14.195 15.5445 14.2023 15.714Z" fill="#E90C6C"/>
<path d="M39.0604 28.9699C39.0677 29.2153 39.0347 29.4602 38.9626 29.6951C38.6728 30.8036 38.3694 31.9095 38.0843 33.0199C38.0047 33.3272 37.8667 33.4532 37.5359 33.3607C36.1156 32.9664 34.6889 32.592 33.2695 32.1941C32.7915 32.06 32.3556 31.2578 32.4835 30.7901C32.7321 29.8564 32.957 28.9165 33.2458 27.9955C33.6699 26.644 35.0901 25.7747 36.4446 25.9896C38.0185 26.2416 39.0622 27.4136 39.0604 28.9699Z" fill="#E90C6C"/>
<path d="M33.65 40.5862C33.1917 40.5681 32.7433 40.4486 32.3375 40.2366C31.9318 40.0246 31.5789 39.7253 31.3048 39.3607C31.1375 39.1431 31.0854 38.9691 31.3706 38.7651C32.9398 37.6421 33.6353 36.102 33.543 34.194C33.5101 33.5069 33.522 33.5015 34.2066 33.6828C35.2055 33.9465 36.1999 34.2266 37.2007 34.4849C37.5343 34.5702 37.6439 34.7043 37.5416 35.0587C37.2199 36.1755 36.9457 37.3049 36.6276 38.4207C36.2566 39.7069 35.0703 40.5834 33.65 40.5862Z" fill="#E90C6C"/>
<path d="M24.2931 34.5585C24.2877 33.8461 24.4742 33.1452 24.8332 32.5281C24.9895 32.2498 25.1412 32.1891 25.3889 32.4375C27.0614 34.1035 28.737 35.7653 30.4157 37.4229C30.7017 37.7048 30.6149 37.857 30.3032 38.032C27.6473 39.5249 24.3013 37.5951 24.2931 34.5585Z" fill="#E90C6C"/>
<path d="M32.3828 34.5489C32.3646 35.2394 32.183 35.916 31.8527 36.5241C31.6699 36.8585 31.5026 36.873 31.2339 36.6029C29.5559 34.9151 27.8715 33.2334 26.1807 31.5577C25.8882 31.2686 26.1395 31.1725 26.3251 31.0574C27.6229 30.2479 29.5148 30.363 30.7523 31.3293C31.8006 32.1387 32.3389 33.2074 32.3828 34.5489Z" fill="#E90C6C"/>
</g>
<defs>
<clipPath id="clip0_39028_358224">
<rect width="41" height="45" fill="white" transform="translate(3.08203 0.578125)"/>
</clipPath>
</defs>
</svg>
