<svg width="61" height="61" viewBox="0 0 61 61" fill="none" xmlns="http://www.w3.org/2000/svg">
<g clip-path="url(#clip0_18631_15125)">
<path d="M29.4266 52.1769C29.4266 54.3966 29.4266 56.6178 29.4266 58.8421C29.4266 60.0016 29.0545 60.2465 28.0036 59.783C21.8374 57.0704 15.6713 54.3557 9.50509 51.639C8.51304 51.2019 7.5179 50.771 6.51191 50.3664C5.90583 50.123 5.65006 49.7293 5.65317 49.0643C5.67022 44.6234 5.65317 40.1824 5.66557 35.7338C5.66557 34.7061 6.06549 34.4239 6.95367 34.8037C14.1016 37.8491 21.25 40.8939 28.3989 43.9382C29.1506 44.256 29.4607 44.6869 29.4436 45.5131C29.3971 47.7344 29.4266 49.9556 29.4266 52.1769Z" fill="#F17A24"/>
<path d="M30.4573 42.4765C30.2171 42.3897 29.9923 42.3214 29.7831 42.2315C22.9628 39.3257 16.1466 36.4173 9.33458 33.5062C8.97342 33.3512 8.58435 33.2086 8.5766 32.7312C8.56885 32.2538 8.93931 32.0879 9.31133 31.9437C14.1537 30.0744 19.0008 28.2236 23.8323 26.3248C24.6523 26.0023 25.1437 26.1899 25.6676 26.8797C27.3588 29.1009 28.743 31.4648 29.4467 34.1898C29.5862 34.7277 29.8761 35.1694 30.4914 35.1632C31.1068 35.157 31.375 34.6982 31.5284 34.1712C32.3112 31.4694 33.7543 29.135 35.478 26.9448C35.9709 26.3248 36.4514 26.1496 37.2063 26.4457C41.917 28.2964 46.64 30.1162 51.3585 31.9468C51.7289 32.0895 52.1087 32.2569 52.1226 32.7219C52.1366 33.1869 51.7444 33.3636 51.3863 33.5186C46.9077 35.4593 42.4285 37.3969 37.9488 39.3314C35.6961 40.3048 33.4412 41.271 31.1843 42.23C30.9503 42.3354 30.6991 42.3943 30.4573 42.4765Z" fill="#F17A24"/>
<path d="M41.8844 11.9232C41.9123 13.8546 41.3403 15.5953 40.4072 17.2461C39.3066 19.193 37.8728 20.8888 36.422 22.5675C34.5991 24.6802 32.7902 26.7961 31.3703 29.2142C30.8696 30.0683 30.2372 30.107 29.7861 29.287C27.9524 25.9544 25.3111 23.2417 22.9875 20.2765C21.2825 18.1064 19.7835 15.8371 19.396 13.0113C19.2473 11.9861 19.2946 10.942 19.5355 9.93443C20.2951 6.83429 21.8327 4.18988 24.3407 2.18409C26.1856 0.714676 28.4883 -0.0593819 30.8461 -0.00271028C33.2039 0.0539613 35.4668 0.937755 37.2388 2.49411C40.1034 4.99901 41.7434 8.09761 41.8844 11.9232ZM25.3746 11.4101C25.3746 14.2002 27.7121 16.5858 30.4682 16.6013C33.2242 16.6168 35.5834 14.2157 35.5834 11.4333C35.5633 10.0946 35.0182 8.8173 34.0654 7.8766C33.1127 6.93589 31.8286 6.40706 30.4897 6.40401C29.1508 6.40096 27.8642 6.92395 26.9072 7.8603C25.9502 8.79666 25.3993 10.0715 25.3731 11.4101H25.3746Z" fill="#F17A24"/>
<path d="M31.5331 52.09C31.5331 49.9479 31.5703 47.8041 31.5161 45.6635C31.4913 44.7598 31.778 44.2684 32.6367 43.9026C39.6384 40.9172 46.6215 37.8821 53.6107 34.8672C54.6214 34.4317 55.0058 34.6812 55.0058 35.7973C55.0058 40.2119 54.9965 44.6327 55.0197 49.0411C55.0197 49.7773 54.7097 50.1649 54.0664 50.447C47.0529 53.5378 40.0435 56.6379 33.0382 59.7474C31.8943 60.2542 31.5424 60.0264 31.5409 58.76C31.5316 56.5341 31.529 54.3108 31.5331 52.09ZM46.623 47.2755C46.2884 47.2564 45.9529 47.259 45.6186 47.2833C45.0233 47.3623 44.5692 47.7002 44.5459 48.3172C44.5227 48.9341 44.9319 49.3108 45.5442 49.4022C46.2578 49.5161 46.9851 49.5161 47.6988 49.4022C48.2831 49.3061 48.6598 48.9372 48.6598 48.359C48.6598 47.739 48.2165 47.3887 47.6259 47.2926C47.2926 47.2605 46.9572 47.2548 46.623 47.2755ZM50.6408 47.6693C51.0512 47.6703 51.4612 47.6454 51.8684 47.5949C52.3753 47.505 52.707 47.1639 52.7179 46.6385C52.7287 46.113 52.4559 45.7239 51.9428 45.6278C51.1089 45.4666 50.2517 45.4666 49.4178 45.6278C48.9218 45.727 48.6319 46.1068 48.6427 46.6462C48.637 46.8817 48.7209 47.1107 48.8774 47.2867C49.0339 47.4628 49.2514 47.5729 49.486 47.5949C49.8694 47.6392 50.2548 47.6641 50.6408 47.6693Z" fill="#F17A24"/>
<path d="M30.4512 14.397C30.0576 14.4035 29.6669 14.3301 29.3024 14.1815C28.938 14.0329 28.6074 13.812 28.3307 13.5321C28.0539 13.2523 27.8366 12.9194 27.692 12.5533C27.5473 12.1873 27.4783 11.7957 27.489 11.4023C27.4844 11.0042 27.5594 10.6093 27.7094 10.2405C27.8595 9.87178 28.0816 9.53671 28.3628 9.25492C28.644 8.97313 28.9786 8.75029 29.347 8.59947C29.7154 8.44865 30.1103 8.37288 30.5083 8.3766C30.9064 8.38031 31.2997 8.46343 31.6653 8.6211C32.0308 8.77877 32.3612 9.0078 32.6371 9.29479C32.913 9.58178 33.1288 9.92095 33.272 10.2924C33.4151 10.6639 33.4827 11.0602 33.4707 11.4581C33.4676 13.1337 32.1609 14.4048 30.4512 14.397Z" fill="#F17A24"/>
</g>
<defs>
<clipPath id="clip0_18631_15125">
<rect width="49.3619" height="60" fill="white" transform="translate(5.65161)"/>
</clipPath>
</defs>
</svg>
