<svg width="62" height="62" viewBox="0 0 62 62" fill="none" xmlns="http://www.w3.org/2000/svg">
<g clip-path="url(#clip0_32676_96174)">
<g clip-path="url(#clip1_32676_96174)">
<path d="M26.8667 12.416H53.7395C54.7909 12.416 54.7951 12.416 54.7951 13.4533C54.7951 20.7716 54.7951 28.0891 54.7951 35.4055C54.7951 35.591 54.7951 35.7778 54.7824 35.9632C54.7558 36.2978 54.6 36.4163 54.2673 36.2713C53.4027 35.8949 52.5506 35.6314 52.2769 34.4743C52.0383 33.4663 51.154 32.9003 50.0592 32.8543C49.2661 32.8222 48.4688 32.8306 47.673 32.8473C46.4265 32.8738 45.5099 33.5722 45.1225 34.7601C45.0277 35.0549 44.8698 35.3259 44.6596 35.5544C44.4495 35.7829 44.192 35.9636 43.9049 36.084C43.6178 36.2044 43.3079 36.2616 42.9964 36.2519C42.685 36.2421 42.3793 36.1655 42.1005 36.0273C40.9775 35.4697 39.7802 35.63 38.8622 36.4846C38.3682 36.9493 37.8867 37.4238 37.4179 37.908C36.4704 38.8951 36.3132 39.9351 36.8999 41.1676C37.0412 41.4465 37.1203 41.7523 37.1321 42.0643C37.1438 42.3763 37.0879 42.6872 36.9681 42.9758C36.8483 43.2645 36.6674 43.5242 36.4377 43.7373C36.2079 43.9504 35.9348 44.1119 35.6367 44.211C34.3228 44.6711 33.7558 45.4337 33.7263 46.8097C33.7123 47.4357 33.7165 48.0644 33.7263 48.6904C33.7417 50.2449 34.3074 51.0284 35.8009 51.5345C36.2093 51.6739 36.5855 51.798 36.7329 52.2734C36.8508 52.6512 36.7919 52.8631 36.3637 52.8826C36.1771 52.891 35.989 52.8924 35.8023 52.8924H3.52396C2.24243 52.8924 1.07179 52.6135 0.129937 51.6725C-0.230355 51.3218 -0.514882 50.9018 -0.706263 50.4382C-0.897644 49.9746 -0.99186 49.4772 -0.983157 48.9762C-0.983157 37.059 -0.988771 25.1423 -1 13.226C-1 12.4927 -0.68839 12.4049 -0.0763983 12.4063C8.90415 12.4211 17.8852 12.4244 26.8667 12.416ZM9.54281 36.1695C10.7345 36.1695 11.929 36.1793 13.1179 36.1695C13.9082 36.1598 14.1917 35.9019 14.1973 35.1267C14.2132 32.7836 14.2132 30.4396 14.1973 28.0946C14.1973 27.3125 13.8675 27.01 13.0744 27.0058C10.7602 26.9956 8.44656 26.9956 6.13335 27.0058C5.31783 27.0058 4.97955 27.3376 4.97534 28.1518C4.9613 30.4754 4.9613 32.7962 4.97534 35.1142C4.97534 35.8977 5.25607 36.157 6.04071 36.1681C7.20574 36.1807 8.37357 36.1681 9.54281 36.1695ZM4.96411 43.9684C4.96411 45.1074 4.95568 46.2451 4.96411 47.3827C4.97393 48.2903 5.23501 48.5649 6.13194 48.5691C8.44703 48.5803 10.7621 48.5803 13.0772 48.5691C13.904 48.5691 14.1903 48.2903 14.2001 47.4803C14.2142 45.1335 14.2142 42.7871 14.2001 40.4412C14.2001 39.6884 13.8885 39.4012 13.1095 39.397C10.7701 39.3849 8.43065 39.3849 6.09124 39.397C5.24905 39.397 4.97814 39.687 4.96832 40.5541C4.95568 41.6918 4.96551 42.8308 4.96411 43.9684ZM33.9439 28.4934H20.546C19.4063 28.4934 19.0231 28.715 19.0259 29.3689C19.0287 30.0227 19.4371 30.2876 20.5278 30.2876H47.2519C47.5089 30.2982 47.7663 30.2856 48.0211 30.25C48.5053 30.1594 48.7355 29.8317 48.7327 29.3549C48.7299 28.8781 48.4618 28.5742 47.9705 28.5184C47.7143 28.4959 47.457 28.488 47.1999 28.4947L33.9439 28.4934ZM14.2085 19.2209C14.2085 18.0832 14.2198 16.947 14.2085 15.8108C14.1987 14.9743 13.9348 14.6955 13.1291 14.6955C10.7691 14.6815 8.41007 14.6815 6.05194 14.6955C5.26589 14.6955 4.98376 14.9813 4.97955 15.7508C4.96551 18.0744 4.96551 20.3947 4.97955 22.7118C4.97955 23.5483 5.29958 23.8536 6.12633 23.8578C8.43954 23.8671 10.7523 23.8671 13.0646 23.8578C13.8787 23.8578 14.2015 23.526 14.2114 22.7062C14.2156 21.5407 14.2085 20.3752 14.2085 19.2209ZM33.8723 17.8867H47.1943C47.4513 17.8934 47.7086 17.8869 47.9649 17.8671C48.4562 17.817 48.7173 17.5284 48.7383 17.039C48.7594 16.5497 48.518 16.2416 48.0365 16.1398C47.8288 16.1048 47.6182 16.0908 47.4077 16.098H20.3411C19.4329 16.098 19.0329 16.3768 19.0287 16.9916C19.0245 17.6064 19.4245 17.8783 20.3327 17.8867C20.5432 17.8867 20.7538 17.8867 20.9629 17.8867H33.8723ZM27.9769 20.5857H20.5376C20.3034 20.5712 20.0682 20.5801 19.8358 20.6122C19.3571 20.7126 19.0259 20.9817 19.0245 21.5115C19.0245 22.0064 19.315 22.288 19.7712 22.3856C20.0491 22.4344 20.3314 22.4536 20.6134 22.4427C25.4794 22.4427 30.3454 22.4427 35.2114 22.4427C35.5381 22.446 35.8643 22.4175 36.1855 22.3577C36.615 22.2741 36.7933 21.9576 36.8059 21.5421C36.8199 21.096 36.622 20.7656 36.1855 20.6443C35.9341 20.592 35.6769 20.5733 35.4205 20.5885C32.9379 20.5848 30.4572 20.5839 27.9783 20.5857H27.9769ZM27.4085 40.8009C24.9759 40.8009 22.5434 40.8009 20.1095 40.8009C19.4301 40.8009 19.0273 41.1662 19.0245 41.7224C19.0217 42.2787 19.4315 42.6551 20.1053 42.6565C24.9713 42.6649 29.8372 42.6649 34.7032 42.6565C35.1356 42.6565 35.4823 42.506 35.6675 42.0989C35.9721 41.4297 35.4921 40.8037 34.6373 40.7995C32.2286 40.7953 29.8185 40.8037 27.4099 40.8023L27.4085 40.8009ZM27.9699 32.9616H20.6036C20.393 32.9616 20.1825 32.9616 19.9719 32.9616C19.3838 32.9755 19.0371 33.2739 19.0371 33.8594C19.0371 34.445 19.3978 34.7336 19.9775 34.7587C20.1179 34.7642 20.2583 34.767 20.3986 34.767H35.4177C35.6277 34.772 35.8379 34.7622 36.0465 34.7377C36.5757 34.6639 36.8213 34.3348 36.8045 33.8204C36.7905 33.338 36.5378 33.0369 36.0423 32.9839C35.809 32.9634 35.5747 32.9555 35.3405 32.9602C32.8832 32.9611 30.4268 32.9621 27.9713 32.963L27.9699 32.9616ZM25.8097 45.3584C23.8699 45.3584 21.93 45.3584 19.9902 45.3584C19.4554 45.3584 19.0722 45.5759 19.0315 46.1503C18.988 46.7567 19.3599 47.0286 19.9088 47.1262C20.0246 47.1408 20.1415 47.1464 20.2583 47.1429C23.9517 47.1429 27.6443 47.1429 31.3359 47.1429C32.1303 47.1429 32.5767 46.7804 32.5556 46.206C32.5346 45.6316 32.164 45.3695 31.3471 45.3695C29.5083 45.3556 27.6569 45.3598 25.8111 45.3598L25.8097 45.3584Z" fill="#005EAD"/>
<path d="M26.9242 10.5472H0.0569696C-0.983135 10.5472 -0.984538 10.5472 -0.984538 9.51552C-0.984538 7.98196 -0.99296 6.44839 -0.984538 4.91483C-0.995392 3.89047 -0.59617 2.90377 0.12533 2.17173C0.846831 1.43969 1.83153 1.02225 2.86286 1.01121C4.80271 0.976358 6.74396 1.00006 8.6852 1.00006C22.645 1.00006 36.6047 1.00006 50.5645 1.00006C52.7079 1.00006 54.4133 2.25479 54.694 4.2303C54.9677 6.16259 54.7712 8.12416 54.7768 10.0732C54.7768 10.3813 54.5916 10.5333 54.28 10.5319C54.0469 10.5319 53.8125 10.5319 53.5781 10.5319L26.9242 10.5472ZM36.3062 6.71189C40.4189 6.71189 44.5316 6.71189 48.6443 6.71189C49.3461 6.71189 49.756 6.3745 49.7869 5.83776C49.8178 5.30101 49.3658 4.88973 48.664 4.8493C48.5474 4.8493 48.4309 4.8493 48.3144 4.8493H24.3401C24.0369 4.8493 23.7309 4.82839 23.4488 4.97617C23.0628 5.17832 22.8186 5.48085 22.8972 5.92559C22.9201 6.12499 23.0115 6.31047 23.1559 6.45086C23.3003 6.59125 23.489 6.67801 23.6902 6.69655C23.9446 6.71756 24.2001 6.72268 24.4552 6.71189C28.4079 6.71189 32.3582 6.71189 36.3062 6.71189ZM7.62545 5.74435C7.62962 5.57044 7.59785 5.39753 7.5321 5.23629C7.46636 5.07505 7.36804 4.9289 7.24321 4.80688C7.11838 4.68486 6.9697 4.58954 6.80633 4.52682C6.64297 4.4641 6.46839 4.4353 6.29339 4.44221C6.11286 4.44449 5.93468 4.48323 5.7697 4.55608C5.60473 4.62892 5.45641 4.73436 5.33376 4.86595C5.21112 4.99755 5.11672 5.15256 5.05631 5.32154C4.9959 5.49053 4.97074 5.66996 4.98238 5.84891C4.98721 6.02243 5.02689 6.19325 5.09908 6.35134C5.17128 6.50942 5.27454 6.6516 5.4028 6.76951C5.53106 6.88743 5.68175 6.97871 5.84601 7.038C6.01027 7.09729 6.1848 7.1234 6.35936 7.1148C7.11452 7.08691 7.64089 6.51671 7.62545 5.74435ZM18.9122 5.79454C18.9206 5.44105 18.7872 5.09875 18.5415 4.84291C18.2958 4.58708 17.9578 4.43868 17.6019 4.43036C17.246 4.42204 16.9014 4.55448 16.6438 4.79855C16.3862 5.04262 16.2368 5.37832 16.2284 5.7318C16.2201 5.90559 16.2464 6.0793 16.3058 6.24298C16.3652 6.40666 16.4565 6.55711 16.5745 6.6857C16.6925 6.81429 16.8348 6.9185 16.9934 6.99237C17.152 7.06624 17.3237 7.10832 17.4987 7.11619C17.6794 7.12346 17.8597 7.09485 18.029 7.03204C18.1984 6.96922 18.3534 6.87347 18.4851 6.75038C18.6167 6.62729 18.7223 6.47935 18.7956 6.31522C18.869 6.15109 18.9086 5.97407 18.9122 5.79454ZM13.2358 5.77223C13.2358 4.99011 12.7095 4.45058 11.9417 4.44221C11.5847 4.44369 11.2429 4.58597 10.9915 4.83775C10.7401 5.08953 10.5997 5.43019 10.6012 5.78478C10.6027 6.13937 10.7459 6.47885 10.9994 6.72854C11.2529 6.97823 11.5959 7.11767 11.9529 7.11619C12.7165 7.10225 13.2386 6.55574 13.2358 5.77223Z" fill="#005EAD"/>
<path d="M56.7398 58.1363C56.2822 58.054 55.8358 57.785 55.4035 57.5187C54.8561 57.1813 54.3718 57.191 53.8398 57.5382C53.2854 57.8879 52.672 58.1354 52.0291 58.2687C51.4677 58.3942 51.1743 58.733 51.0115 59.2837C50.5062 61.0054 50.4907 60.9999 48.6646 60.9999C48.4316 60.9999 48.1972 60.9901 47.9628 60.9999C47.4013 61.0222 46.969 60.8005 46.8679 60.2387C46.6293 58.9309 45.912 58.1391 44.5687 57.9425C44.4993 57.9286 44.4339 57.899 44.3778 57.8561C43.4135 57.159 42.4801 57.1423 41.5032 57.8756C40.9333 58.305 40.3718 58.1711 39.8988 57.6191C39.5911 57.2693 39.2605 56.94 38.9092 56.6334C38.4165 56.1942 38.3379 55.7035 38.6397 55.1333C38.7273 54.9418 38.8262 54.7556 38.9359 54.5756C39.3486 53.9789 39.3949 53.4268 38.971 52.7772C38.6594 52.3018 38.4755 51.7246 38.3225 51.1683C38.2636 50.8972 38.1292 50.6481 37.9346 50.4491C37.74 50.2502 37.4931 50.1096 37.222 50.0432C35.3973 49.4856 35.5377 49.572 35.5377 47.6579C35.5377 47.379 35.5377 47.1002 35.5461 46.8214C35.5396 46.6217 35.6021 46.4259 35.7231 46.2664C35.8441 46.1069 36.0164 45.9933 36.2114 45.9444C36.3197 45.9008 36.4314 45.8663 36.5455 45.8413C37.6375 45.6782 38.3337 45.1094 38.4951 43.9843C38.5011 43.938 38.5174 43.8937 38.5429 43.8546C39.2854 42.6668 39.4805 41.4957 38.5611 40.2786C38.3099 39.9454 38.4334 39.5146 38.7464 39.194L38.992 38.9472C40.5234 37.4346 40.5276 37.4262 42.5012 38.2822C42.6583 38.356 42.8312 38.3906 43.0048 38.3831C43.1785 38.3755 43.3477 38.3261 43.4977 38.239C44.1983 37.8648 44.9347 37.5607 45.6959 37.3314C46.1549 37.2045 46.378 36.9215 46.5156 36.481C47.1641 34.4065 47.063 34.7369 48.9748 34.709C49.1853 34.709 49.3959 34.7243 49.6064 34.709C50.2479 34.6574 50.6788 34.946 50.7701 35.5608C50.9371 36.7026 51.5238 37.4039 52.6846 37.6088C52.7998 37.6343 52.909 37.6816 53.0061 37.7482C54.1164 38.4802 55.2028 38.5067 56.3032 37.7078C56.7243 37.4039 57.1384 37.521 57.4963 37.8891C57.9174 38.3226 58.347 38.752 58.7863 39.1689C59.1779 39.5425 59.3 39.9719 58.9744 40.4125C58.1954 41.472 58.1715 42.519 58.9225 43.5911C58.9631 43.6489 58.9913 43.7144 59.0053 43.7835C59.2425 45.0076 59.9233 45.7353 61.2188 45.9026C61.7803 45.9737 62.0273 46.3892 62.0049 46.9678C61.9824 47.5463 61.981 48.1291 62.0049 48.709C62.0287 49.2556 61.807 49.6557 61.2764 49.7407C59.8868 49.961 59.3927 50.9104 58.8649 52.0871C58.3371 53.2637 58.2445 54.1881 58.9533 55.2239C59.3014 55.7342 59.1526 56.1845 58.7302 56.5902C58.3077 56.9959 57.9034 57.4113 57.4893 57.8198C57.3954 57.9239 57.2795 58.0062 57.15 58.0609C57.0205 58.1156 56.8804 58.1413 56.7398 58.1363ZM48.6969 53.5941C51.9674 53.6206 54.5782 51.0972 54.6034 47.8879C54.6256 46.3593 54.0355 44.8847 52.9629 43.7882C51.8904 42.6918 50.4232 42.0635 48.8843 42.0415C47.3453 42.0195 45.8605 42.6056 44.7567 43.6709C43.6528 44.7362 43.0202 46.1934 42.998 47.722C42.9728 51.0205 45.446 53.5691 48.6997 53.5941H48.6969Z" fill="#005EAD"/>
<path d="M9.5866 34.3849C8.88477 34.3849 8.18295 34.3695 7.48112 34.3849C7.01792 34.3988 6.7793 34.2454 6.7793 33.7533C6.78865 32.3369 6.78865 30.9199 6.7793 29.5025C6.7793 29.0299 6.97861 28.8487 7.45866 28.8557C8.88477 28.8752 10.3113 28.8752 11.7384 28.8557C12.2241 28.8487 12.4093 29.0508 12.4065 29.5165C12.3967 30.9106 12.3939 32.3048 12.4065 33.6989C12.4065 34.212 12.189 34.396 11.6865 34.3862C10.9902 34.3681 10.2884 34.3849 9.5866 34.3849ZM11.9531 30.6778C11.9251 30.2693 11.6724 29.9584 11.1531 29.8971C10.9777 29.878 10.8005 29.9054 10.6392 29.9764C10.478 30.0474 10.3386 30.1595 10.2351 30.3014C9.76205 30.8702 9.31429 31.2424 8.60544 30.5426C8.2405 30.1829 7.76325 30.3362 7.43901 30.7266C7.29201 30.8818 7.21263 31.0884 7.21815 31.3014C7.22367 31.5145 7.31364 31.7167 7.46849 31.8642C7.87274 32.3104 8.31068 32.7244 8.74862 33.1441C8.82707 33.214 8.91867 33.2679 9.01815 33.3026C9.11764 33.3373 9.22305 33.3521 9.32832 33.3462C9.96698 33.349 11.9433 31.4167 11.9531 30.6778Z" fill="#005EAD"/>
<path d="M9.51947 46.7669C8.84291 46.7669 8.16494 46.7571 7.48698 46.7669C7.03079 46.7753 6.78516 46.6066 6.78516 46.1242C6.78516 44.6854 6.78516 43.2453 6.78516 41.8023C6.78516 41.3715 6.98167 41.1652 7.42241 41.168C8.87098 41.1736 10.3214 41.1736 11.7737 41.168C12.2103 41.168 12.4096 41.3757 12.4082 41.8079C12.4082 43.2467 12.4082 44.6873 12.4082 46.1298C12.4082 46.5661 12.2018 46.7641 11.7667 46.7613C11.0186 46.7613 10.2704 46.7613 9.52087 46.7613L9.51947 46.7669Z" fill="#005EAD"/>
<path d="M6.78822 19.2273C6.78822 18.5302 6.78822 17.8331 6.78822 17.1361C6.78822 16.6676 7.00157 16.4724 7.4732 16.4766C8.89931 16.4896 10.3249 16.4896 11.7501 16.4766C12.2344 16.4766 12.4169 16.6871 12.4126 17.15C12.4033 18.5665 12.4033 19.9829 12.4126 21.3994C12.4126 21.8762 12.1867 22.0672 11.7277 22.0644C10.3016 22.0644 8.87592 22.0644 7.45074 22.0644C6.97491 22.0644 6.77699 21.8455 6.78541 21.3826C6.79664 20.6633 6.78541 19.9439 6.78541 19.2245L6.78822 19.2273ZM8.14976 18.0464C7.98544 18.0283 7.81951 18.0617 7.67526 18.1419C7.53102 18.2222 7.41569 18.3453 7.34547 18.494C7.17563 18.8369 7.18686 19.191 7.44232 19.4699C7.84086 19.9238 8.26746 20.3526 8.71964 20.7539C8.80364 20.8372 8.90359 20.9029 9.01358 20.9471C9.12357 20.9914 9.24138 21.0134 9.36005 21.0117C9.47872 21.01 9.59584 20.9847 9.70451 20.9373C9.81318 20.8899 9.91119 20.8214 9.99275 20.7358C10.5879 20.1781 11.169 19.6079 11.722 19.0126C11.8027 18.9346 11.8668 18.8414 11.9106 18.7385C11.9543 18.6355 11.9769 18.5249 11.9769 18.4131C11.9769 18.3013 11.9543 18.1907 11.9106 18.0877C11.8668 17.9848 11.8027 17.8916 11.722 17.8136C11.3557 17.4093 10.8953 17.4051 10.4588 17.7244C10.2001 17.9232 9.96084 18.1459 9.74431 18.3894C9.46358 18.6864 9.22776 18.7547 8.94282 18.4033C8.84778 18.2866 8.72657 18.1935 8.58888 18.1315C8.45118 18.0696 8.30081 18.0404 8.14976 18.0464Z" fill="#005EAD"/>
</g>
</g>
<defs>
<clipPath id="clip0_32676_96174">
<rect width="60.8091" height="60.8171" fill="white" transform="translate(0.316406 0.273438)"/>
</clipPath>
<clipPath id="clip1_32676_96174">
<rect width="63" height="60" fill="white" transform="translate(-1 1)"/>
</clipPath>
</defs>
</svg>
