<svg width="62" height="62" viewBox="0 0 62 62" fill="none" xmlns="http://www.w3.org/2000/svg">
<g clip-path="url(#clip0_32676_96184)">
<path d="M19.6752 44.4793H29.2212C30.214 44.4793 30.214 44.4793 30.2167 43.4472C30.2167 42.5355 30.2167 41.6251 30.2249 40.7133C30.2249 40.3948 30.2492 40.064 30.5025 39.8261C30.5985 39.7281 30.7205 39.6601 30.8538 39.6302C30.9872 39.6004 31.1262 39.6101 31.2542 39.658C31.6348 39.7865 31.7784 40.0941 31.7865 40.4508C31.8123 41.4979 31.8475 42.5478 31.8068 43.5948C31.7811 44.2783 31.9965 44.4984 32.6886 44.4957C39.0761 44.4724 45.4636 44.482 51.8498 44.4834C53.1135 44.4834 53.2665 44.6351 53.2679 45.8804C53.2679 46.974 53.2936 48.0675 53.257 49.1611C53.2394 49.6833 53.4033 49.9143 53.9139 50.0633C56.5673 50.8356 58.1493 53.0105 57.9894 55.7758C57.8675 57.8714 56.8029 59.4557 54.9433 60.377C52.9807 61.3503 51.0046 61.1972 49.2547 59.8562C46.1774 57.4818 46.2505 53.1923 49.34 50.8602C49.8923 50.4623 50.5198 50.1831 51.1834 50.0401C51.5762 49.9457 51.7401 49.7407 51.7252 49.3238C51.7021 48.4366 51.7035 47.5467 51.7252 46.6596C51.736 46.1757 51.5179 46.028 51.0696 46.0294C47.3233 46.0376 43.576 46.0376 39.8278 46.0294C39.2766 46.0294 39.1262 46.2632 39.1411 46.7703C39.1655 47.5905 39.1628 48.4107 39.1411 49.2308C39.1323 49.422 39.1664 49.6126 39.241 49.7885C39.3156 49.9644 39.4287 50.121 39.5718 50.2465C40.7854 51.4366 41.9832 52.6432 43.1651 53.8662C44.0672 54.8012 44.0469 55.5257 43.1313 56.4634C41.9719 57.6481 40.8071 58.8237 39.6368 59.9902C38.7497 60.876 37.9235 60.8732 37.0526 59.9902C35.8859 58.8155 34.7211 57.6399 33.5581 56.4634C32.6886 55.5831 32.6859 54.7506 33.5649 53.8566C34.7731 52.6264 35.9826 51.3961 37.2097 50.1904C37.3443 50.072 37.4507 49.9244 37.521 49.7588C37.5913 49.5931 37.6238 49.4136 37.616 49.2336C37.5943 48.3687 37.5943 47.503 37.616 46.6363C37.6255 46.1893 37.4399 46.0349 37.0119 46.0362C33.1085 46.0426 29.2041 46.0426 25.2988 46.0362C24.8193 46.0362 24.669 46.2385 24.6812 46.6951C24.7028 47.4921 24.7245 48.2917 24.6744 49.0859C24.6351 49.6956 24.841 49.9526 25.4383 50.1139C26.58 50.4289 27.5881 51.1127 28.3084 52.0606C29.0287 53.0085 29.4217 54.1684 29.4271 55.363C29.4447 58.2077 27.2749 60.6655 24.4929 60.9511C23.1189 61.0912 21.7428 60.7063 20.6363 59.8724C19.5297 59.0386 18.7731 57.8163 18.5158 56.447C18.2495 55.0919 18.5013 53.6852 19.2207 52.5098C19.9401 51.3344 21.0736 50.4775 22.3935 50.1112C22.9962 49.943 23.1831 49.6724 23.1479 49.0709C23.1005 48.2507 23.1263 47.4305 23.1384 46.6104C23.1384 46.2003 22.9691 46.039 22.5709 46.0403C18.6214 46.0458 14.6719 46.0458 10.7223 46.0403C10.3499 46.0403 10.1968 46.2044 10.2009 46.5789C10.2131 47.5358 10.2104 48.4927 10.2009 49.4495C10.2009 49.7298 10.3363 49.9088 10.5205 50.0934C11.7856 51.3592 13.0533 52.6223 14.2994 53.9072C15.1473 54.7793 15.1243 55.5968 14.2696 56.4579C13.1048 57.6344 11.9395 58.8096 10.7738 59.9833C9.90155 60.8609 9.06857 60.8678 8.18683 59.9833C6.99944 58.7986 5.81838 57.6067 4.64363 56.4074C3.80794 55.553 3.77137 54.8408 4.5908 53.9728C5.75562 52.7425 6.957 51.5369 8.16922 50.349C8.50242 50.0237 8.68391 49.7024 8.67443 49.2254C8.65005 48.0416 8.65682 46.8564 8.67443 45.6713C8.68526 44.754 8.94532 44.4902 9.8555 44.4888C13.1287 44.4825 16.4019 44.4793 19.6752 44.4793ZM23.8563 59.3928C26.1074 59.4133 27.8573 57.7114 27.879 55.4819C27.902 53.2005 26.1764 51.4029 23.9511 51.3811C22.9088 51.384 21.9096 51.8007 21.1693 52.5412C20.4291 53.2818 20.0073 54.2865 19.9952 55.3384C19.9831 56.3902 20.3816 57.4046 21.1047 58.1623C21.8277 58.9199 22.8171 59.36 23.859 59.3873L23.8563 59.3928ZM56.4684 55.3712C56.4654 54.5772 56.2287 53.8021 55.7884 53.1441C55.3481 52.4861 54.724 51.975 53.9953 51.6757C53.2667 51.3763 52.4663 51.3022 51.6959 51.4628C50.9254 51.6233 50.2196 52.0113 49.668 52.5774C49.1164 53.1435 48.7439 53.8623 48.5978 54.6425C48.4517 55.4226 48.5385 56.229 48.8473 56.9593C49.1561 57.6895 49.673 58.3107 50.3322 58.744C50.9915 59.1773 51.7634 59.4031 52.55 59.3928C53.0709 59.3951 53.5869 59.2922 54.0677 59.09C54.5484 58.8879 54.9843 58.5907 55.3494 58.2159C55.7146 57.8411 56.0018 57.3963 56.1939 56.9077C56.3861 56.4192 56.4794 55.8967 56.4684 55.3712Z" fill="#FDB913"/>
<path d="M31.0349 38.385C26.1221 38.385 21.4097 36.4187 17.9312 32.9173C14.4527 29.4159 12.4921 24.6651 12.4792 19.7069C12.3938 9.43963 20.8144 1.01095 31.0051 1.00001C41.0591 0.989075 49.4769 9.09378 49.5609 19.6713C49.6422 29.9345 41.2122 38.3768 31.0349 38.385ZM30.9713 36.8376C35.4626 36.8548 39.7778 35.0758 42.9728 31.89C46.1677 28.7041 47.9823 24.3708 48.0196 19.8381C48.1266 10.2817 40.4943 2.59936 31.0647 2.55561C26.5734 2.52978 22.2555 4.30386 19.059 7.48831C15.8626 10.6728 14.049 15.0073 14.0164 19.5401C13.9067 29.0623 21.585 36.8253 30.9713 36.8376Z" fill="#FDB913"/>
<path d="M31.1235 32.5015C29.3381 32.5432 27.5569 32.3099 25.8412 31.8098C25.406 31.6901 24.9807 31.536 24.5694 31.3491C22.4321 30.3513 21.828 29.136 22.2749 26.7931C23.0876 22.5227 26.3857 19.5318 30.7104 19.3732C35.7719 19.1914 39.8095 23.1556 39.9083 28.2789C39.9287 29.3028 39.4113 30.097 38.5837 30.6889C37.0559 31.7825 35.2789 32.101 33.487 32.3662C32.7053 32.4882 31.9138 32.5335 31.1235 32.5015Z" fill="#FDB913"/>
<path d="M36.4612 12.3944C36.4584 13.4825 36.1356 14.5453 35.5337 15.4479C34.9317 16.3506 34.0778 17.0526 33.08 17.4648C32.0823 17.877 30.9857 17.981 29.9294 17.7634C28.873 17.5459 27.9045 17.0167 27.1465 16.2429C26.3886 15.4691 25.8754 14.4856 25.672 13.417C25.4686 12.3485 25.5841 11.2431 26.004 10.2409C26.4239 9.23874 27.1292 8.38497 28.0305 7.78787C28.9317 7.19076 29.9884 6.8772 31.0664 6.88694C32.5009 6.90982 33.8693 7.49939 34.8779 8.52908C35.8865 9.55878 36.455 10.9465 36.4612 12.3944ZM34.932 12.3548C34.9288 11.5736 34.696 10.811 34.2631 10.1635C33.8303 9.5159 33.2168 9.01249 32.5004 8.71694C31.7839 8.4214 30.9967 8.34701 30.2384 8.50319C29.48 8.65937 28.7846 9.03909 28.2402 9.59431C27.6957 10.1495 27.3267 10.8553 27.1799 11.6222C27.033 12.3892 27.1149 13.1829 27.4152 13.9028C27.7154 14.6228 28.2206 15.2367 28.8667 15.6668C29.5128 16.0968 30.2708 16.3238 31.0448 16.319C31.5596 16.3221 32.0698 16.2215 32.5455 16.0228C33.0212 15.8242 33.4528 15.5317 33.8149 15.1624C34.177 14.7931 34.4624 14.3545 34.6542 13.8724C34.846 13.3902 34.9405 12.8743 34.932 12.3548Z" fill="#FDB913"/>
</g>
<defs>
<clipPath id="clip0_32676_96184">
<rect width="54" height="60" fill="white" transform="translate(4 1)"/>
</clipPath>
</defs>
</svg>
