<svg width="62" height="62" viewBox="0 0 62 62" fill="none" xmlns="http://www.w3.org/2000/svg">
<g clip-path="url(#clip0_12047_22449)">
<path d="M0.00118992 18.8182C0.311457 17.3917 0.803605 16.0496 1.71539 14.8882C3.50923 12.6069 5.8927 11.5263 8.76119 11.4514C9.37459 11.4348 9.98918 11.4241 10.6002 11.4514C11.0935 11.4764 11.2469 11.2874 11.2433 10.8C11.2231 8.27032 11.2909 5.73706 11.2136 3.20975C11.1565 1.35053 12.6187 -0.0129831 14.3805 9.32554e-05C20.5478 0.0619089 26.7163 0.0321886 32.8848 0.0155459C33.3391 0.00397846 33.7908 0.0881841 34.2105 0.262684C34.6301 0.437183 35.0083 0.698069 35.3205 1.02837C36.5156 2.23774 37.7179 3.43958 38.9272 4.63389C39.6833 5.38162 40.0815 6.24704 40.0375 7.33714C39.99 8.50213 40.0375 9.66949 40.0173 10.8357C40.0055 11.3112 40.185 11.4407 40.6391 11.4467C42.1405 11.4657 43.6419 11.3718 45.1421 11.5097C48.1937 11.7891 50.0588 13.5187 51.0859 16.3004C51.5792 17.6354 51.7065 19.0346 51.729 20.4361C51.7623 22.5117 51.7409 24.5885 51.7397 26.6641C51.7397 27.4962 51.7267 27.5093 50.866 27.5093C48.9093 27.5093 46.9514 27.5093 44.9947 27.5093C44.4954 27.5093 44.0021 27.5271 43.5385 27.7185C43.0225 27.9313 42.9203 27.6959 42.9251 27.243C42.9369 26.116 42.8953 24.9843 42.9405 23.8621C42.9655 23.2428 42.7372 23.1061 42.1547 23.1061C31.2419 23.1219 20.329 23.1219 9.41619 23.1061C8.84321 23.1061 8.6756 23.2773 8.68035 23.8455C8.7065 26.6926 8.68035 29.5397 8.70531 32.3856C8.71126 32.9954 8.49371 33.1797 7.91835 33.1702C6.47519 33.1452 5.03085 33.125 3.58888 33.1702C1.9151 33.2248 0.655009 32.659 0 31.0304L0.00118992 18.8182ZM25.6226 11.4479C29.1806 11.4479 32.7385 11.4384 36.2977 11.4574C36.8338 11.4574 37.0347 11.3064 37.011 10.7513C36.9753 9.70516 36.9896 8.65667 37.011 7.60937C37.0223 7.42353 36.9921 7.23751 36.9226 7.06479C36.8531 6.89207 36.7461 6.73699 36.6092 6.6108C35.5472 5.57579 34.4991 4.5273 33.4649 3.46534C33.3401 3.32756 33.1867 3.21873 33.0154 3.14644C32.8442 3.07416 32.6592 3.04019 32.4734 3.04689C26.6224 3.05482 20.7713 3.05284 14.9202 3.04095C14.3888 3.04095 14.245 3.22996 14.2497 3.73519C14.2699 6.04733 14.2568 8.36066 14.2592 10.6728C14.2592 11.4407 14.2592 11.4467 15.064 11.4479C18.5843 11.4487 22.1039 11.4479 25.6226 11.4455V11.4479ZM45.7876 17.2728C45.7923 16.9057 45.7239 16.5413 45.5862 16.2009C45.4485 15.8605 45.2444 15.5509 44.9858 15.2903C44.7271 15.0296 44.4192 14.8232 44.0798 14.6829C43.7405 14.5426 43.3766 14.4714 43.0095 14.4733C42.2717 14.4904 41.5699 14.7959 41.0548 15.3244C40.5397 15.8529 40.2521 16.5622 40.2539 17.3002C40.2563 18.823 41.5366 20.0997 43.0451 20.0783C43.4108 20.0766 43.7726 20.0022 44.1092 19.8593C44.4459 19.7164 44.7507 19.508 45.006 19.2461C45.2612 18.9842 45.4618 18.6741 45.596 18.3339C45.7302 17.9937 45.7953 17.6301 45.7876 17.2645V17.2728Z" fill="#376BF1"/>
<path d="M44.3739 60.8183C43.871 60.5937 43.5881 60.1966 43.4228 59.6783C43.2196 59.0613 42.9473 58.4646 42.7215 57.8571C42.246 56.6113 39.8875 55.7019 38.707 56.3498C38.1542 56.6529 37.5622 56.8859 36.9845 57.1427C36.3414 57.428 35.7565 57.3602 35.2501 56.8384C34.96 56.5412 34.664 56.2511 34.368 55.9599C33.8521 55.4558 33.7737 54.8769 34.0471 54.2243C34.368 53.4611 34.7972 52.7454 34.9874 51.9252C35.262 50.7364 34.5119 49.0353 33.4087 48.5087C32.7501 48.196 32.0523 47.969 31.3688 47.7087C30.6555 47.4364 30.3536 47.0382 30.3441 46.2905C30.3096 43.9213 30.2311 43.8927 32.4731 43.1616C33.9139 42.6861 34.7544 41.7589 35.0302 40.2717C35.1185 39.845 35.0771 39.4016 34.9113 38.9986C34.6462 38.3602 34.3466 37.7361 34.0673 37.1049C33.7641 36.4178 33.8355 35.7972 34.4037 35.2682C34.664 35.0305 34.9054 34.763 35.1609 34.5158C35.8231 33.8726 36.2831 33.7918 37.1426 34.1817C37.8618 34.5086 38.5537 34.895 39.3359 35.0662C40.4248 35.311 42.1093 34.5574 42.6335 33.5719C42.9985 32.8872 43.2172 32.1454 43.493 31.4321C43.7688 30.7188 44.1634 30.424 44.9195 30.4121C47.3327 30.3717 47.3137 30.3373 48.0448 32.5519C48.5203 33.9903 49.4439 34.8296 50.9346 35.1066C51.5421 35.2195 52.0687 35.059 52.5989 34.8403C53.0922 34.6382 53.5689 34.3957 54.054 34.1746C54.1935 34.1004 54.3411 34.0426 54.4938 34.0022C55.7265 33.7645 56.1937 34.8189 56.8868 35.4596C57.3623 35.9019 57.3302 36.4891 57.0901 37.0561C56.7584 37.836 56.3233 38.5706 56.139 39.4123C55.9215 40.3871 56.5206 41.9515 57.3456 42.5031C58.0589 42.9857 58.8791 43.2234 59.6744 43.5195C60.5256 43.8357 60.7895 44.2018 60.8002 45.1088C60.8252 47.3532 60.8359 47.3865 58.708 48.0914C57.2517 48.5741 56.3816 49.4859 56.1058 51.0063C55.9988 51.5923 56.1402 52.1047 56.353 52.6147C56.5658 53.1247 56.8464 53.6477 57.0805 54.1708C57.3766 54.8317 57.3076 55.438 56.7715 55.961C56.4743 56.2511 56.1803 56.5443 55.8894 56.8407C55.383 57.3578 54.8005 57.428 54.1538 57.1474C53.4108 56.8265 52.7071 56.4175 51.9106 56.2238C50.6624 55.9218 48.9577 56.6909 48.4168 57.8547C48.1489 58.449 47.9155 59.0583 47.7178 59.6795C47.5467 60.199 47.259 60.5913 46.7597 60.8207L44.3739 60.8183ZM53.1006 45.721C53.0518 41.7981 50.1952 38.2247 45.6601 38.1201C41.7812 38.0297 38.1281 40.9731 38.0437 45.5772C37.9724 49.4847 40.9407 53.0664 45.4877 53.1472C49.4653 53.2162 52.8937 50.211 53.1006 45.7175V45.721Z" fill="#376BF1"/>
<path d="M32.4553 33.1546C31.7044 33.8059 31.2007 34.6958 31.0288 35.6748C30.9456 36.1289 30.5652 36.0314 30.2668 36.0314C27.8552 36.0378 25.4436 36.0378 23.032 36.0314C20.5808 36.0314 18.1295 36.0314 15.6783 36.0314C14.7463 36.0314 14.1769 36.6674 14.2779 37.54C14.3624 38.2734 14.9163 38.7038 15.8055 38.7038C19.7197 38.7038 23.6339 38.7038 27.5481 38.7038C28.7369 38.7038 29.9256 38.7038 31.1073 38.7038C31.6303 38.7038 31.9525 39.0473 32.0797 39.6869C32.1867 40.2194 31.7825 40.3038 31.433 40.4358C31.0633 40.5749 30.6912 40.708 30.3203 40.8435C28.5193 41.5009 27.4673 42.9916 27.4411 44.9151C27.4411 45.0149 27.4411 45.1136 27.4411 45.2122C27.4292 46.004 27.4292 46.0075 26.6458 46.0075C22.5137 46.0075 18.382 46.0075 14.2506 46.0075C12.4675 46.0075 11.2383 44.7688 11.2383 42.9857C11.2383 37.5309 11.2383 32.0748 11.2383 26.6176C11.2383 25.7855 11.2383 25.7855 12.0538 25.7855C21.128 25.7855 30.2022 25.7819 39.2765 25.7748C39.8827 25.7748 40.0563 25.9721 40.0444 26.5629C40.0099 28.2427 40.0349 29.9236 40.0289 31.6033C40.0289 32.1977 39.9101 32.2714 39.3573 32.0277C38.6357 31.7079 37.9545 31.2954 37.1676 31.1361C37.0513 31.11 36.9475 31.0445 36.874 30.9507C36.4365 30.3159 35.8041 30.2291 35.0979 30.2303C28.7927 30.2414 22.4868 30.2437 16.18 30.2374C15.8649 30.2374 15.5511 30.2219 15.242 30.3301C14.6096 30.5524 14.2601 31.0208 14.2732 31.6603C14.2863 32.2547 14.6465 32.7053 15.2622 32.9157C15.5725 33.0227 15.8863 33.0025 16.2014 33.0025C21.3622 33.0025 26.5218 33.0025 31.6803 33.0025C31.9026 33.0191 32.1451 32.9537 32.4553 33.1546Z" fill="#376BF1"/>
<path d="M45.5306 51.1513C42.4244 51.1263 40.0088 48.6798 40.0374 45.5878C40.0361 44.8643 40.1784 44.1477 40.456 43.4796C40.7337 42.8114 41.1412 42.205 41.6549 41.6955C42.1686 41.186 42.7783 40.7835 43.4487 40.5114C44.1191 40.2392 44.8369 40.1028 45.5604 40.11C48.6916 40.1195 51.125 42.5862 51.0786 45.7043C51.0322 48.7844 48.5965 51.175 45.5306 51.1513Z" fill="#376BF1"/>
</g>
<defs>
<clipPath id="clip0_12047_22449">
<rect width="60.8091" height="60.8091" fill="white" transform="translate(0.269531 0.269653)"/>
</clipPath>
</defs>
</svg>
