<svg width="62" height="62" viewBox="0 0 62 62" fill="none" xmlns="http://www.w3.org/2000/svg">
<g clip-path="url(#clip0_14413_32656)">
<path d="M46.954 18.0144C44.4423 18.0144 42.2617 18.0106 40.0812 18.0172C39.5554 18.0227 39.0343 17.9172 38.5521 17.7075C37.0364 17.0368 35.4322 16.5876 33.7886 16.3738C32.4738 16.206 31.1432 16.2032 29.8277 16.3655C28.048 16.5863 26.324 17.0186 24.6905 17.7776C22.0176 19.0202 19.8508 20.869 18.1395 23.2571C16.6424 25.3454 15.6554 27.6568 15.2253 30.1912C14.6816 33.4013 15.0536 36.5191 16.341 39.5068C17.9767 43.3031 20.6469 46.1439 24.3582 47.9827C26.2312 48.9112 28.2224 49.4395 30.3063 49.6189C33.0328 49.853 35.6611 49.4743 38.1761 48.3768C38.6868 48.156 39.225 48.066 39.7875 48.0589C44.1756 48.0037 48.5649 48.0036 52.9524 48.007C53.1986 48.007 53.4443 47.9551 53.6899 48.0384C54.1399 48.1913 54.242 48.5198 53.94 48.8825C53.8848 48.946 53.8296 49.0039 53.7689 49.0625C51.8552 50.9762 49.9415 52.8884 48.0277 54.7992C47.9375 54.8912 47.8426 54.9786 47.7434 55.0609C47.1136 55.5748 46.529 55.5809 45.9035 55.0487C45.1963 54.4448 44.5599 53.7658 43.9162 53.094C43.4508 52.6065 43.2228 52.5574 42.6377 52.8897C41.2227 53.6985 39.711 54.3247 38.1386 54.7534C37.5314 54.919 37.3928 55.1265 37.39 55.7625C37.3856 56.7181 37.4452 57.6753 37.3475 58.6298C37.2636 59.4429 36.769 59.8917 35.9376 59.9149C33.8774 59.9701 31.8167 59.948 29.7549 59.9463C29.0924 59.9463 28.43 59.9237 27.7675 59.9165C26.6359 59.9044 26.1335 59.4197 26.1114 58.2853C26.0965 57.4114 26.1081 56.5376 26.1087 55.6637C26.1087 55.0851 25.9983 54.9328 25.449 54.7837C23.8802 54.3544 22.3697 53.735 20.951 52.9394C20.8621 52.8903 20.7733 52.8417 20.6838 52.7947C20.2924 52.5905 20.0766 52.6192 19.7691 52.9278C19.1564 53.5378 18.5491 54.1539 17.9331 54.7605C17.7763 54.916 17.6059 55.0571 17.4241 55.1823C16.9046 55.5378 16.4304 55.5339 15.9132 55.174C15.7555 55.0624 15.6077 54.9374 15.4715 54.8003C13.623 52.9539 11.7759 51.1055 9.93022 49.2551C9.71577 49.0526 9.53468 48.8175 9.39365 48.5584C9.20761 48.1919 9.22804 47.832 9.42346 47.4776C9.5572 47.2464 9.72298 47.0352 9.91587 46.8505C10.5286 46.2399 11.1403 45.6284 11.7508 45.016C12.1262 44.6385 12.1527 44.4237 11.8877 43.9639C11.069 42.5335 10.4288 41.008 9.98156 39.4217C9.79774 38.7803 9.62992 38.6489 8.96913 38.6489C8.09526 38.6489 7.21974 38.7041 6.34918 38.6136C5.19267 38.4965 4.75822 38.0063 4.75491 36.8244C4.74718 34.3773 4.75104 31.9301 4.75215 29.4824C4.74444 29.2428 4.75366 29.003 4.77975 28.7647C4.91996 27.7804 5.39692 27.3339 6.39279 27.3123C7.24734 27.2936 8.1041 27.3063 8.95809 27.3051C9.59679 27.3051 9.79001 27.1633 9.96721 26.5544C10.4342 24.9502 11.0409 23.4078 11.8955 21.9631C12.1466 21.5392 12.1036 21.2852 11.7497 20.9292C11.1723 20.349 10.5905 19.7699 10.013 19.1919C9.91587 19.0942 9.82147 18.9926 9.73315 18.8872C9.09113 18.1204 9.11045 17.5187 9.82147 16.8044C11.6984 14.919 13.5773 13.0375 15.4583 11.1598C16.3647 10.2567 16.9587 10.2606 17.8872 11.1366C18.4763 11.692 19.0465 12.2677 19.6019 12.8557C20.0921 13.3735 20.2417 13.3944 20.8715 13.0423C22.3279 12.2149 23.8829 11.575 25.4998 11.1377C25.9778 11.0102 26.1186 10.8214 26.1192 10.3329C26.1192 9.35797 26.086 8.38363 26.1589 7.40709C26.2141 6.70324 26.5006 6.24782 27.0383 6.11975C27.3235 6.04603 27.6165 6.00638 27.9111 6.00161C30.5421 6.00161 33.1736 5.99112 35.8052 6.00161C36.8634 6.00603 37.3773 6.57297 37.3956 7.7212C37.4094 8.57685 37.3956 9.4325 37.3983 10.2882C37.3983 10.8209 37.5181 10.9931 38.0332 11.1394C39.6897 11.6081 41.2849 12.2711 42.7856 13.1146C43.2477 13.374 43.4238 13.3403 43.8063 12.9578C44.4117 12.3528 45.0169 11.7477 45.622 11.1427C45.7368 11.0232 45.8604 10.9125 45.9918 10.8115C46.6167 10.3516 47.2212 10.377 47.7893 10.9064C48.28 11.3641 48.7559 11.8388 49.2301 12.3141C50.7636 13.8513 52.2948 15.3908 53.8235 16.9324C53.8495 16.9584 53.8787 16.9832 53.9003 17.0114C54.0659 17.2085 54.2712 17.4055 54.136 17.6926C54.0007 17.9796 53.7325 18.0459 53.4404 18.0448C51.1671 18.042 48.8944 18.0635 46.954 18.0144Z" fill="#02744B"/>
<path d="M51.8592 21.4783C52.2539 21.8575 52.5255 22.2208 52.6464 22.6784C52.8799 23.5617 52.6613 24.329 52.0071 24.9418C51.353 25.5545 50.5845 25.7301 49.7377 25.4066C49.2276 25.2117 48.8098 25.3039 48.3836 25.6412C46.9638 26.7651 45.5263 27.867 44.0926 28.9744C43.8034 29.1952 43.678 29.4326 43.7277 29.8411C43.8381 30.7718 43.5378 31.5866 42.717 32.1044C41.9204 32.6051 41.078 32.6156 40.2742 32.0923C39.6079 31.6578 39.3225 30.991 39.2507 30.2253C39.2149 29.8389 39.0371 29.5805 38.6948 29.4044C37.3539 28.7149 36.0175 28.016 34.6788 27.3227C34.5562 27.2592 34.4287 27.2062 34.3017 27.1527C34.2566 27.1281 34.2046 27.1192 34.1538 27.1272C34.103 27.1351 34.0563 27.1596 34.0208 27.1968C33.6393 27.6059 33.132 27.6384 32.6241 27.6688C32.4497 27.6793 32.273 27.6655 32.1002 27.6865C31.7055 27.7345 31.3997 27.9299 31.1645 28.2551C28.9748 31.2784 26.7821 34.2989 24.5865 37.3167C24.2945 37.7175 24.231 38.1177 24.4286 38.5825C24.7869 39.4255 24.6533 40.2094 24.0372 40.8839C23.3908 41.5917 22.5821 41.8533 21.6635 41.5464C20.7598 41.2472 20.2149 40.6024 20.0841 39.6419C19.8909 38.2204 21.1573 37.0319 22.3154 37.1384C22.9646 37.198 23.361 36.9491 23.7325 36.429C25.8777 33.4298 28.0511 30.4516 30.2228 27.4717C30.4889 27.1068 30.5269 26.7585 30.3591 26.339C29.7894 24.9125 30.6114 23.4584 32.1174 23.1968C33.3252 22.9865 34.5899 23.91 34.6838 25.1289C34.7334 25.7671 35.0061 26.1375 35.5769 26.4124C36.7362 26.9716 37.8723 27.5788 38.9996 28.1966C39.5174 28.4792 39.9645 28.5278 40.4818 28.1734C41.0691 27.7698 41.7316 27.7615 42.3681 28.0884C42.7368 28.2777 43.0427 28.2324 43.3617 27.9868C44.8511 26.8316 46.3429 25.6793 47.8371 24.5299C48.1098 24.3191 48.2599 24.0331 48.2147 23.6892C48.1081 22.8772 48.3179 22.1794 48.9069 21.602C48.9282 21.5748 48.9467 21.5456 48.9621 21.5147C48.8561 21.4457 48.7529 21.4744 48.6557 21.4744C40.6696 21.4744 32.6836 21.4744 24.6975 21.4744C24.3458 21.4744 23.9986 21.4402 23.6679 21.3121C23.218 21.1382 22.9806 20.7557 23.0143 20.2727C23.0436 19.852 23.335 19.5175 23.7811 19.4065C24.141 19.3165 24.5125 19.3221 24.878 19.3221C36.1947 19.3169 47.5114 19.3158 58.8281 19.3187C59.0947 19.3187 59.3619 19.3342 59.6269 19.3585C60.2838 19.4198 60.6133 19.7808 60.6884 20.5122C60.6983 20.6316 60.7018 20.7514 60.6989 20.8711C60.6989 28.9576 60.6989 37.0447 60.6989 45.1324C60.6989 46.3645 60.2954 46.7686 59.0588 46.7686C47.4477 46.7686 35.8366 46.7686 24.2255 46.7686C23.3792 46.7686 22.9105 46.2293 23.069 45.4437C23.1656 44.9679 23.5393 44.6538 24.0527 44.6367C24.4016 44.6251 24.7516 44.6367 25.1016 44.6367C36.0318 44.6367 46.9621 44.6352 57.8924 44.6323C58.5046 44.6323 58.4637 44.7261 58.4637 44.0482C58.4659 37.2398 58.4659 30.4314 58.4637 23.6229C58.4637 23.0251 58.4637 22.4267 58.4637 21.8288C58.4637 21.4871 58.3964 21.4181 58.0657 21.433C56.1811 21.5192 54.2953 21.4468 52.4101 21.4706C52.2539 21.48 52.0988 21.4783 51.8592 21.4783ZM51.4612 23.2774C51.4623 23.1439 51.4368 23.0116 51.3861 22.8881C51.3354 22.7646 51.2606 22.6524 51.1661 22.5582C51.0716 22.464 50.9592 22.3896 50.8355 22.3393C50.7119 22.289 50.5794 22.264 50.446 22.2655C50.1776 22.2741 49.9229 22.3859 49.7349 22.5776C49.5468 22.7692 49.4399 23.026 49.4363 23.2945C49.4413 23.8382 49.9254 24.3229 50.4603 24.3207C50.9953 24.3185 51.4661 23.8222 51.4612 23.2774ZM40.5381 30.1778C40.5419 30.774 40.9692 31.2311 41.5152 31.2228C42.0346 31.2151 42.5574 30.6779 42.5513 30.1585C42.5453 29.639 42.049 29.1648 41.4925 29.1648C40.914 29.1676 40.5348 29.57 40.5381 30.1795V30.1778ZM22.3524 38.3821C21.7595 38.3821 21.3543 38.7774 21.3417 39.3758C21.329 39.9626 21.7435 40.3976 22.3204 40.4037C22.9133 40.4098 23.3461 39.9742 23.3361 39.3819C23.3262 38.7895 22.921 38.3843 22.3524 38.3821ZM32.4491 26.43C33.0597 26.43 33.4395 26.0674 33.4461 25.469C33.4522 24.9037 32.9923 24.4201 32.4557 24.4295C31.9076 24.4383 31.3809 24.9484 31.3909 25.4601C31.4025 26.0182 31.8485 26.4273 32.4491 26.43Z" fill="#02744B"/>
<path d="M0.000763528 33.0109C0.000763528 29.0915 0.000763528 25.1721 0.000763528 21.2526C-0.00345638 20.976 0.009819 20.6995 0.04051 20.4246C0.128835 19.7218 0.498698 19.3834 1.20696 19.3553C2.23595 19.3144 3.26604 19.3453 4.29503 19.3365C5.50951 19.3255 6.72398 19.3475 7.93846 19.3188C8.19657 19.3107 8.45374 19.3538 8.69514 19.4455C8.93655 19.5372 9.15742 19.6758 9.34504 19.8532C9.43373 19.9332 9.51149 20.0245 9.57634 20.1248C9.77287 20.4306 9.82917 20.7641 9.6608 21.0942C9.49243 21.4243 9.17667 21.4905 8.83827 21.4894L2.82111 21.4701C2.23429 21.4701 2.23484 21.4668 2.23484 22.052C2.23484 29.3756 2.23484 36.6993 2.23484 44.0229C2.23484 44.1057 2.23484 44.1885 2.23484 44.2713C2.23816 44.6379 2.24147 44.6428 2.60526 44.6428C4.45457 44.6428 6.30389 44.6428 8.1532 44.6428C8.2901 44.6428 8.42922 44.6246 8.56502 44.6147C8.91887 44.5898 9.25175 44.6335 9.47366 44.9503C9.70165 45.2766 9.64866 45.6232 9.47366 45.944C9.1855 46.4679 8.71682 46.7654 8.12615 46.7693C5.87238 46.7851 3.61843 46.7851 1.36429 46.7693C0.481034 46.7632 0.0769443 46.3354 0.0112523 45.4046C-0.000892438 45.239 0.00297213 45.0734 0.00297213 44.9078C0.00150004 40.9413 0.000763528 36.9756 0.000763528 33.0109Z" fill="#02744B"/>
<path d="M48.447 43.2418C45.5449 43.2418 43.0812 41.0922 42.734 38.2735C42.5501 36.8107 42.9404 35.3335 43.823 34.1525C44.7055 32.9715 46.0116 32.1787 47.4666 31.9406C48.8306 31.7098 50.0937 31.982 51.2894 32.6417C51.5969 32.8112 51.6609 33.0491 51.4964 33.3593C51.2999 33.7297 50.9112 33.8733 50.5684 33.674C50.1439 33.4342 49.6811 33.2695 49.2005 33.1871C46.776 32.7333 44.5408 34.2823 44.018 36.6909C43.4279 39.408 45.5466 41.594 47.583 41.9694C49.4395 42.3117 52.2814 41.2253 52.7203 38.4022C52.822 37.7765 52.8315 37.1393 52.7484 36.5109C52.6855 36.0533 52.9278 35.7546 53.2221 35.4869C53.402 35.3213 53.6637 35.4168 53.7564 35.6591C54.0043 36.3282 54.1572 37.0199 54.1119 37.7353C54.0302 39.0182 53.5941 40.1742 52.7677 41.1662C51.8166 42.3078 50.6098 43.0006 49.1243 43.1955C48.9 43.2274 48.6736 43.2429 48.447 43.2418Z" fill="#02744B"/>
<path d="M48.0739 40.2123C47.8846 40.2421 47.7427 40.1317 47.6053 40.0263C47.1581 39.6834 46.7921 39.2534 46.3908 38.867C46.0669 38.5542 45.7479 38.2362 45.4336 37.9131C45.1642 37.6371 45.1388 37.3346 45.3486 37.0712C45.5456 36.8228 45.8642 36.7952 46.191 36.9945C46.5658 37.2225 46.8153 37.5874 47.1454 37.8645C47.3005 37.9942 47.4435 38.1405 47.6053 38.2587C47.9243 38.4933 48.1573 38.4795 48.4405 38.2035C48.9517 37.6983 49.3712 37.1137 49.8206 36.5578C50.8584 35.2815 51.8879 33.9986 52.9252 32.7218C53.0425 32.5799 53.1718 32.4484 53.3116 32.3287C53.5325 32.1338 53.7809 32.13 54.0171 32.3C54.2622 32.4772 54.3417 32.7262 54.2302 32.9994C54.1237 33.26 53.9255 33.4576 53.7522 33.6707C52.0762 35.7316 50.3978 37.79 48.7171 39.8458C48.5553 40.0423 48.3792 40.2427 48.0739 40.2123Z" fill="#02744B"/>
<path d="M34.3581 41.1169C35.7646 41.1169 37.1734 41.1169 38.5784 41.1197C38.7803 41.1212 38.9818 41.1397 39.1806 41.1749C39.5245 41.2334 39.7122 41.4807 39.6924 41.8186C39.6725 42.1564 39.4754 42.3253 39.1166 42.3623C38.447 42.4313 37.7757 42.3993 37.105 42.4004C34.8711 42.4045 32.6368 42.4034 30.4022 42.3971C30.1549 42.3971 29.9054 42.3772 29.6597 42.3601C29.2987 42.3358 29.1044 42.1493 29.0872 41.8191C29.0685 41.4537 29.2528 41.2152 29.6172 41.171C29.8815 41.1392 30.1475 41.1228 30.4138 41.1219C31.7287 41.1175 33.0431 41.1219 34.3581 41.1219V41.1169Z" fill="#02744B"/>
<path d="M22.7162 25.0063C23.8931 25.0063 25.0695 25.0063 26.2492 25.0063C26.396 25.0069 26.5423 25.0212 26.6864 25.0488C26.9934 25.1073 27.1496 25.3248 27.1435 25.6704C27.1375 26.0049 26.9901 26.1843 26.661 26.2318C26.4615 26.264 26.2598 26.2806 26.0577 26.2815C24.8912 26.2677 23.7242 26.2688 22.5583 26.266C21.4664 26.266 20.3723 26.266 19.2798 26.2809C19.0778 26.2802 18.8761 26.2645 18.6764 26.234C18.3413 26.1888 18.1652 25.9862 18.1603 25.6616C18.1548 25.3254 18.3347 25.0985 18.6682 25.046C18.8675 25.0139 19.069 24.9966 19.271 24.9942C20.4203 24.9892 21.5696 24.9942 22.719 24.9942L22.7162 25.0063Z" fill="#02744B"/>
<path d="M36.3566 39.3074C35.5103 39.3074 34.664 39.3173 33.8172 39.3013C33.5671 39.2969 33.2917 39.2809 33.1194 39.0441C32.8434 38.6615 33.0852 38.1459 33.5776 38.0786C33.7605 38.0533 33.945 38.0408 34.1297 38.041C35.757 38.041 37.3867 38.0007 39.0129 38.0703C39.3856 38.0863 39.5998 38.2287 39.6826 38.5274C39.7063 38.602 39.7146 38.6807 39.7067 38.7587C39.6989 38.8366 39.6752 38.9121 39.6371 38.9805C39.599 39.049 39.5473 39.1089 39.4851 39.1565C39.4229 39.2042 39.3517 39.2386 39.2757 39.2577C39.1065 39.3017 38.9322 39.3233 38.7574 39.3217C37.9569 39.3179 37.1565 39.3217 36.3566 39.3217V39.3074Z" fill="#02744B"/>
<path d="M24.439 29.3305C23.7501 29.3305 23.0589 29.3344 22.3717 29.3305C22.0079 29.3305 21.7793 29.161 21.7092 28.8673C21.6192 28.4986 21.8787 28.1712 22.2927 28.1364C23.1362 28.0663 23.9825 28.0879 24.8271 28.0912C25.4145 28.0912 26.0035 28.0608 26.5892 28.1342C26.9618 28.1806 27.1854 28.418 27.1688 28.7415C27.1506 29.0986 26.9232 29.3228 26.5357 29.3277C25.8362 29.3371 25.1374 29.3299 24.439 29.3305Z" fill="#02744B"/>
</g>
<defs>
<clipPath id="clip0_14413_32656">
<rect width="60.8091" height="60.8091" fill="white" transform="translate(0.269531 0.269653)"/>
</clipPath>
</defs>
</svg>
