<svg width="61" height="61" viewBox="0 0 61 61" fill="none" xmlns="http://www.w3.org/2000/svg">
<g clip-path="url(#clip0_18636_15202)">
<g clip-path="url(#clip1_18636_15202)">
<path d="M12.9881 32.0318C12.8056 31.7467 12.8455 31.5299 12.8455 31.3189C12.8455 28.3004 12.8612 25.2833 12.8298 22.2662C12.8227 21.586 13.0209 21.3679 13.7125 21.3721C18.5366 21.3978 23.3603 21.3978 28.1835 21.3721C28.8394 21.3721 29.049 21.5817 29.039 22.2277C29.0162 25.6725 29.0276 29.1188 29.0304 32.5637C29.0304 33.9068 29.3341 34.2134 30.6545 34.2148H42.2039C43.4872 34.2148 43.798 33.8954 43.7994 32.6065C43.7994 29.1844 43.7994 25.7624 43.7994 22.3403C43.7994 21.3907 43.8094 21.3821 44.749 21.3821C49.5257 21.3821 54.3023 21.395 59.0775 21.3665C59.7904 21.3665 60.0057 21.5675 60.0043 22.289C59.9843 34.5513 59.9843 46.8137 60.0043 59.0761C60.0043 59.799 59.7918 59.9986 59.076 59.9972C43.962 59.9791 28.8479 59.9791 13.7338 59.9972C13.0052 59.9972 12.7885 59.7776 12.817 59.0647C12.874 57.5989 12.7058 57.75 14.1131 57.7443C16.1093 57.7443 18.1055 57.76 20.1017 57.7443C21.9254 57.7229 23.2044 56.6165 23.471 54.8926C23.481 54.8213 23.491 54.75 23.5038 54.6816C23.5737 54.2966 23.1516 53.8161 23.5423 53.5566C23.8132 53.3755 24.278 53.4867 24.6559 53.4667C26.7947 53.347 28.2091 51.2738 27.6687 49.5713C27.5646 49.2433 27.6858 49.0566 27.9981 48.9011C29.1758 48.3123 29.9087 47.3584 29.8959 46.0309C29.8831 44.7476 29.1944 43.7838 28.0223 43.2205C27.6801 43.0566 27.606 42.8598 27.6587 42.4948C27.9853 40.2676 26.5993 38.6336 24.3393 38.6122C21.6787 38.5879 19.018 38.6122 16.3546 38.6008C16.105 38.6008 15.7357 38.7305 15.6302 38.4867C15.5005 38.1873 15.884 38.0276 16.0665 37.8294C16.7353 37.0951 17.5551 36.4991 18.0342 35.5908C19.2063 33.3665 18.3279 31.1706 16.443 29.769C15.8883 29.3569 15.3664 29.6835 14.9273 30.1212C14.3127 30.7457 13.6711 31.3674 12.9881 32.0318ZM52.366 49.7125C52.366 48.144 52.366 46.5756 52.366 45.0071C52.366 44.8275 52.3089 44.5908 52.5242 44.4995C52.7395 44.4083 52.8579 44.625 52.9905 44.7462C53.3042 45.0314 53.5936 45.3551 53.9244 45.6245C54.3978 46.0109 54.9054 46.0067 55.3275 45.5575C55.7495 45.1084 55.6297 44.6293 55.2348 44.2272C54.2015 43.1768 53.1592 42.135 52.1079 41.1017C51.7243 40.7253 51.2324 40.6041 50.8246 40.9919C49.6754 42.0917 48.5532 43.2191 47.4582 44.3741C47.1402 44.7106 47.173 45.1768 47.4967 45.5475C47.8203 45.9183 48.2795 46.0195 48.7101 45.7144C49.0442 45.4496 49.3645 45.1679 49.6697 44.8703C49.8422 44.7177 49.9848 44.4111 50.2286 44.4953C50.538 44.6008 50.4154 44.9472 50.4154 45.1896C50.4239 48.1126 50.4154 51.0357 50.4154 53.9587C50.4154 54.3137 50.394 54.6716 50.558 55.0067C50.722 55.3417 51.01 55.577 51.3978 55.5627C51.5658 55.559 51.7292 55.5071 51.8687 55.4134C52.0082 55.3196 52.1179 55.1879 52.1849 55.0338C52.3122 54.7513 52.368 54.4418 52.3474 54.1326C52.3579 52.6611 52.3641 51.1882 52.366 49.7139V49.7125Z" fill="#AB8C00"/>
<path d="M13.3987 55.7081C11.2143 55.7081 9.02849 55.6967 6.8398 55.7081C6.07408 55.739 5.31933 55.5181 4.69104 55.0793C3.43201 54.1696 2.09313 53.5023 0.489044 53.5551C0.159671 53.5665 0.0170875 53.394 0.0185134 53.0746C0.0185134 52.6711 0.0185134 52.2675 0.0185134 51.864C0.0185134 48.4192 0.0384761 44.9743 0.00140381 41.5294C0.00140381 40.7937 0.233819 40.5983 0.938192 40.6154C2.74047 40.6582 4.55131 40.7167 6.29371 40.0921C7.67536 39.5959 8.92298 38.8987 9.96671 37.8436C11.7362 36.0527 13.5313 34.2789 15.3122 32.5052C15.9225 31.8992 16.2219 31.9619 16.5028 32.7747C16.8208 33.6915 16.6212 34.5057 15.9325 35.1986C14.8232 36.3051 13.7129 37.4115 12.6017 38.518C12.211 38.9087 11.7989 39.2979 12.0413 39.9439C12.2951 40.6112 12.8626 40.6425 13.4558 40.6425C16.9947 40.6425 20.5342 40.6425 24.0741 40.6425C24.3354 40.6306 24.5972 40.6401 24.8569 40.6711C25.1322 40.706 25.3827 40.848 25.554 41.0663C25.7254 41.2846 25.8038 41.5617 25.7723 41.8374C25.7224 42.4405 25.3831 42.7913 24.7828 42.8654C24.5699 42.8837 24.356 42.8885 24.1426 42.8797H16.8707C16.6329 42.8689 16.3945 42.876 16.1578 42.9011C15.5874 42.9923 15.1454 43.2903 15.1597 43.912C15.1739 44.5337 15.6174 44.8203 16.1906 44.8987C16.4508 44.922 16.7123 44.9282 16.9734 44.9172H26.2414C26.4549 44.9096 26.6686 44.9134 26.8816 44.9287C27.5361 45.0014 27.9339 45.4448 27.9197 46.0693C27.9054 46.6939 27.4919 47.1287 26.8317 47.1473C25.7866 47.1758 24.7414 47.1587 23.6949 47.1587C21.3907 47.1587 19.0865 47.1587 16.7823 47.1587C16.4984 47.1506 16.2145 47.1764 15.9368 47.2357C15.4776 47.3469 15.1739 47.6634 15.1597 48.1397C15.1426 48.6544 15.4448 48.9952 15.9382 49.1135C16.216 49.1728 16.4998 49.1987 16.7837 49.1905C19.3503 49.1905 21.9168 49.1905 24.4833 49.1905C25.3916 49.1905 25.8892 49.7124 25.7666 50.4895C25.6754 51.0983 25.2447 51.4206 24.4634 51.422C21.9696 51.422 19.4729 51.422 16.9805 51.422C16.7424 51.422 16.5042 51.412 16.2676 51.432C15.6117 51.4904 15.1597 51.8954 15.1454 52.4187C15.1297 52.9648 15.6017 53.4296 16.2947 53.4453C17.6478 53.4767 19.0038 53.4581 20.3569 53.4638C20.8545 53.4638 21.2395 53.6691 21.4206 54.1482C21.512 54.3572 21.5364 54.5894 21.4904 54.8128C21.4445 55.0362 21.3304 55.2399 21.164 55.3958C20.8674 55.6924 20.4867 55.701 20.1017 55.6996C17.8659 55.7034 15.6316 55.7062 13.3987 55.7081Z" fill="#AB8C00"/>
<path d="M52.4543 0C56.7319 0 59.9971 3.25521 59.9986 7.52565C60 11.7961 56.7405 15.0741 52.4743 15.0713C48.1668 15.0713 44.9173 11.8046 44.9287 7.4729C44.9358 3.26092 48.2181 0.00142586 52.4543 0ZM48.1768 7.36881C48.1783 7.63735 48.28 7.89565 48.462 8.09314C49.2219 8.87593 49.9776 9.6616 50.7775 10.4073C51.2452 10.8351 51.7471 10.6925 52.1692 10.2647C53.5822 8.85741 54.9995 7.45436 56.3968 6.03279C56.9044 5.5152 56.9372 4.83079 56.5394 4.44295C56.1416 4.05512 55.5413 4.13782 54.9838 4.69248C53.9415 5.73193 52.8935 6.76568 51.8669 7.81939C51.529 8.16587 51.2623 8.20151 50.9258 7.82936C50.5893 7.45721 50.1958 7.08221 49.8137 6.72575C49.6672 6.58329 49.4791 6.49137 49.2767 6.46341C49.0743 6.43545 48.8682 6.47291 48.6887 6.57034C48.3664 6.72718 48.2338 7.03516 48.1768 7.36881Z" fill="#AB8C00"/>
<path d="M21.4178 19.3489C19.068 19.3489 16.7196 19.3489 14.3698 19.3489C13.8465 19.3489 13.5756 19.2961 13.942 18.6915C15.4382 16.2419 16.9169 13.7823 18.3779 11.3127C18.6531 10.8465 18.9824 10.6739 19.5186 10.6768C23.0304 10.6996 26.5423 10.6868 30.0542 10.6896C30.9097 10.6896 30.9382 10.7239 30.7671 11.5965C30.3166 13.9007 29.8446 16.2006 29.4183 18.509C29.3014 19.135 29.0404 19.3645 28.3831 19.3645C26.0761 19.326 23.7434 19.3503 21.4178 19.3489Z" fill="#AB8C00"/>
<path d="M36.4848 21.3893C38.0275 21.3893 39.5703 21.4049 41.1131 21.3807C41.6592 21.3722 41.8759 21.5547 41.8731 22.115C41.8579 25.2243 41.8579 28.3336 41.8731 31.443C41.8731 31.9905 41.6849 32.1944 41.1259 32.1901C37.989 32.172 34.856 32.172 31.7267 32.1901C31.182 32.1901 30.9639 32.0162 30.9667 31.4558C30.9829 28.3455 30.9829 25.2362 30.9667 22.1279C30.9667 21.5803 31.1549 21.3707 31.7138 21.3793C33.3094 21.4064 34.9006 21.3893 36.4848 21.3893Z" fill="#AB8C00"/>
<path d="M36.4192 19.3488C34.9235 19.3488 33.4249 19.336 31.9306 19.3488C31.3817 19.3488 31.2177 19.1635 31.3332 18.6202C31.8237 16.2248 32.299 13.8265 32.7591 11.4253C32.8603 10.8949 33.087 10.6682 33.6573 10.6767C35.511 10.7081 37.3646 10.7038 39.2182 10.6767C39.7415 10.6767 39.991 10.8464 40.0908 11.3654C40.5547 13.7904 41.0338 16.2143 41.5281 18.6373C41.6421 19.1977 41.4454 19.3588 40.9149 19.3502C39.4121 19.3374 37.9107 19.3488 36.4192 19.3488Z" fill="#AB8C00"/>
<path d="M51.3536 19.3489C49.0723 19.3489 46.7909 19.3246 44.5095 19.3645C43.8322 19.3774 43.5385 19.1706 43.4159 18.4948C42.9953 16.1835 42.5162 13.8821 42.0741 11.5737C42.0171 11.2885 41.7719 10.9078 42.2495 10.7182C42.7728 10.5157 43.4815 10.7182 43.6754 11.1459C44.1559 12.2139 44.7305 13.2177 45.5532 14.0661C48.4477 17.0504 52.5399 17.8902 56.337 16.2048C57.067 15.8798 57.3722 16.0252 57.6944 16.6925C58.0166 17.3598 58.48 17.9914 58.8679 18.6445C59.2557 19.2975 59.2244 19.3489 58.4843 19.3574C56.1046 19.3531 53.7291 19.3489 51.3536 19.3489Z" fill="#AB8C00"/>
<path d="M2.47242 38.5951C1.70531 38.5951 1.1364 38.5851 0.566055 38.5951C0.172519 38.5951 0.0113923 38.4254 0.0170957 38.039C0.0270767 37.3261 0.0370577 36.6131 0.0170957 35.9002C-1.45696e-05 35.4011 0.220994 35.24 0.695804 35.2315C1.92917 35.2072 3.15968 35.2814 4.39447 35.1445C6.63592 34.8964 8.52089 33.9568 10.1193 32.3926C10.2818 32.2329 10.4358 31.9192 10.6668 32.0105C10.952 32.1245 10.7723 32.4724 10.8094 32.7148C11.0133 33.8555 10.5242 34.6626 9.70008 35.4411C8.20436 36.8669 6.72575 38.2429 4.5499 38.5195C3.78849 38.6207 3.03278 38.5637 2.47242 38.5951Z" fill="#AB8C00"/>
</g>
</g>
<defs>
<clipPath id="clip0_18636_15202">
<rect width="60.8091" height="60.8091" fill="white"/>
</clipPath>
<clipPath id="clip1_18636_15202">
<rect width="60.0171" height="60" fill="white"/>
</clipPath>
</defs>
</svg>
