<svg width="62" height="62" viewBox="0 0 62 62" fill="none" xmlns="http://www.w3.org/2000/svg">
<g clip-path="url(#clip0_7221_42003)">
<g clip-path="url(#clip1_7221_42003)">
<path d="M7.4162 61.0001C6.9391 60.5975 6.78812 60.1076 6.79081 59.4728C6.81362 52.8279 6.81608 46.1828 6.79819 39.5375C6.79195 39.3785 6.82048 39.22 6.88179 39.0732C6.9431 38.9264 7.03571 38.7947 7.15316 38.6873C12.5938 33.2637 18.0313 27.8335 23.4657 22.3969C25.264 20.5968 27.0639 18.7969 28.8654 16.9972C29.4344 16.4295 30.0222 15.8806 30.5859 15.3076C30.7811 15.1063 30.9033 15.113 31.0992 15.3076C33.0613 17.2656 35.0321 19.2116 36.9921 21.1643C40.8581 25.0217 44.7207 28.8821 48.58 32.7454C50.61 34.7746 52.641 36.8026 54.6728 38.8296C54.8641 39.0195 54.8829 39.2322 54.8822 39.4684C54.8822 43.3885 54.8822 47.3086 54.8822 51.2287C54.8822 53.9765 54.8627 56.7237 54.897 59.4708C54.905 60.1056 54.7514 60.6008 54.2709 61.0001H7.4162ZM30.8402 55.285C33.3753 55.285 35.9111 55.3165 38.4449 55.2702C39.5313 55.2501 40.3841 54.6663 40.8854 53.7034C41.3477 52.813 41.241 51.8796 40.829 50.9891C40.6096 50.514 40.3465 50.0571 40.0869 49.6021C38.586 46.9758 37.082 44.3512 35.5749 41.7284C35.4647 41.5461 35.406 41.3374 35.4051 41.1245C35.4105 39.0027 35.4132 36.8809 35.4018 34.7591C35.4018 34.4813 35.4904 34.3478 35.7581 34.3049C36.1178 34.2472 36.3392 34.0304 36.4036 33.6714C36.5174 33.0668 36.5174 32.4462 36.4036 31.8415C36.3285 31.4537 36.1352 31.3121 35.7252 31.3121C33.3807 31.3121 31.0355 31.3027 28.6902 31.3188C27.7092 31.3255 26.7262 31.2672 25.7465 31.3859C25.5062 31.4148 25.3814 31.5289 25.3385 31.7516C25.2264 32.2763 25.1833 32.8135 25.2103 33.3493C25.2459 33.8653 25.4492 34.2572 26.0216 34.3357C26.29 34.3726 26.2759 34.5652 26.2759 34.7605C26.2759 36.8823 26.2759 39.004 26.2759 41.1258C26.2754 41.3262 26.2196 41.5226 26.1149 41.6935C24.4662 44.5681 22.7859 47.426 21.1842 50.3282C20.8755 50.8865 20.6219 51.4548 20.5347 52.105C20.2837 53.9705 21.8223 55.2454 23.2355 55.2709C25.7693 55.3212 28.3051 55.285 30.8402 55.285Z" fill="#91189B"/>
<path d="M61.6427 33.8539C61.2086 35.6898 60.0598 36.7937 58.2064 37.107C56.9221 37.3238 55.8632 36.8594 54.9493 35.9327C53.4992 34.4619 52.0002 33.0386 50.5273 31.5899C44.4975 25.6634 38.5522 19.6518 32.5647 13.6824C32.0507 13.1704 31.5314 12.6624 31.0274 12.139C30.8784 11.9847 30.7926 12.0048 30.6523 12.1457C27.3236 15.4829 23.9922 18.8172 20.6581 22.1486C16.4099 26.3982 12.167 30.6525 7.8631 34.8464C7.39339 35.306 6.88811 35.7334 6.42376 36.1998C5.54473 37.0842 4.47378 37.264 3.30284 37.0835C1.6669 36.8306 0.283251 35.4496 0.0530908 33.8103C-0.100573 32.7038 0.0530906 31.7026 0.862342 30.7988C2.73449 28.7092 4.71065 26.723 6.68479 24.7334C9.64936 21.7456 12.6189 18.7618 15.5933 15.782C18.0465 13.3216 20.5042 10.8674 22.9664 8.41954C25.1674 6.23067 27.3733 4.04672 29.584 1.86769C29.7746 1.6798 29.9697 1.49617 30.1692 1.31678C30.6261 0.906116 30.9858 0.886656 31.4334 1.30806C32.45 2.26426 33.4626 3.22583 34.453 4.20955C39.0723 8.79799 43.6858 13.3927 48.2935 17.9937C51.4674 21.1698 54.6281 24.357 57.7756 27.555C58.9197 28.7152 60.0732 29.8701 61.0784 31.1584C61.3252 31.4628 61.5169 31.808 61.6448 32.1784L61.6427 33.8539Z" fill="#91189B"/>
<path d="M30.8335 44.3165C29.3713 44.3165 27.9091 44.3198 26.447 44.3165C25.9652 44.3165 25.9471 44.2749 26.186 43.8582C26.5463 43.2288 26.9046 42.598 27.2744 41.9739C27.3837 41.793 27.4398 41.5848 27.4361 41.3734C27.432 39.1859 27.432 36.9981 27.4361 34.8101C27.4361 34.3719 27.4361 34.3699 27.885 34.3699H33.7799C34.2496 34.3699 34.2496 34.3699 34.2496 34.8605C34.2496 36.9923 34.2496 39.1248 34.2443 41.2566C34.2396 41.5347 34.3135 41.8085 34.4576 42.0464C34.8218 42.6593 35.1759 43.2789 35.5199 43.9051C35.7111 44.2507 35.6782 44.3078 35.2877 44.3078C33.8027 44.3131 32.3184 44.3078 30.8335 44.3078V44.3165Z" fill="#91189B"/>
</g>
</g>
<defs>
<clipPath id="clip0_7221_42003">
<rect width="60.8091" height="60.8091" fill="white" transform="translate(0.269775 0.269714)"/>
</clipPath>
<clipPath id="clip1_7221_42003">
<rect width="61.6433" height="60" fill="white" transform="translate(0 1.00006)"/>
</clipPath>
</defs>
</svg>
