<svg width="62" height="62" viewBox="0 0 62 62" fill="none" xmlns="http://www.w3.org/2000/svg">
<g clip-path="url(#clip0_26668_125962)">
<path d="M52.948 31.3201C52.948 40.0296 52.948 48.7375 52.948 57.4439C52.948 58.9201 52.2694 59.8725 50.9456 60.301C50.6734 60.3791 50.3906 60.4136 50.1075 60.4034H11.5623C9.92182 60.4034 8.75515 59.251 8.73134 57.6034C8.71229 56.4129 8.73134 55.2225 8.73134 54.0463C8.73134 37.8161 8.73134 21.5852 8.73134 5.35342C8.69018 4.76846 8.79576 4.18248 9.03849 3.64866C9.57658 2.60818 10.479 2.17723 11.6099 2.17723C14.5647 2.17723 17.5218 2.17723 20.4766 2.17723C20.9528 2.17723 21.2432 2.132 21.3599 1.56057C21.5052 0.846281 22.1385 0.484375 22.9861 0.484375C26.6861 0.484375 30.3853 0.484375 34.0837 0.484375C35.6075 0.484375 37.1298 0.484375 38.6504 0.484375C39.6575 0.484375 40.1694 0.855804 40.3956 1.82247C40.4885 2.21533 40.7385 2.17723 40.9956 2.17723H47.0504C47.9885 2.17723 48.9266 2.17723 49.8647 2.17723C51.8956 2.17723 52.9599 3.22723 52.9599 5.24866C52.952 13.9391 52.948 22.6296 52.948 31.3201ZM11.9599 31.2939V56.251C11.9599 57.1082 11.9599 57.1106 12.7885 57.1106H48.9004H49.3242C49.5813 57.1106 49.7194 56.9891 49.7171 56.7225C49.7171 56.5439 49.7171 56.3677 49.7171 56.1915V6.27485C49.7171 6.15104 49.7171 6.03676 49.7171 5.90342C49.748 5.54152 49.598 5.40104 49.2266 5.40342C46.4472 5.41295 43.6694 5.41295 40.8933 5.40342C40.5123 5.40342 40.4171 5.56295 40.4004 5.91057C40.3983 6.26061 40.2696 6.59806 40.0381 6.86063C39.8066 7.1232 39.4879 7.29316 39.1409 7.33914C38.8975 7.38395 38.6502 7.40389 38.4028 7.39866H23.2718C22.9504 7.41732 22.6282 7.38026 22.3194 7.28914C21.7123 7.07485 21.3075 6.64866 21.2885 6.00818C21.2718 5.49628 21.0647 5.39628 20.6099 5.40104C18.0242 5.41533 15.4409 5.40104 12.8575 5.40104C11.9552 5.40104 11.9552 5.40104 11.9552 6.27961L11.9599 31.2939ZM30.8337 6.22485C33.4242 6.22485 36.0433 6.22485 38.6313 6.22485C39.1337 6.22485 39.3456 6.03676 39.3266 5.53914C39.3123 4.46057 39.3266 3.37961 39.3266 2.30104C39.3266 1.72009 39.179 1.58676 38.6004 1.58676C33.4369 1.58676 28.2726 1.58676 23.1075 1.58676C22.5028 1.58676 22.3766 1.72485 22.3718 2.35342C22.3718 3.3439 22.3718 4.33438 22.3718 5.32485C22.3718 6.20104 22.4004 6.22961 23.2552 6.22961L30.8337 6.22485Z" fill="#1BB6C9"/>
<path d="M21.8146 28.1035C24.0622 28.1035 26.3098 28.1035 28.5575 28.1035C29.8789 28.1035 30.7217 28.932 30.7265 30.2463C30.7265 33.3796 30.7265 36.513 30.7265 39.6463C30.7265 40.9654 29.8717 41.7892 28.5551 41.7892C24.0773 41.7892 19.5987 41.7892 15.1194 41.7892C13.717 41.7892 12.9551 41.0201 12.9551 39.6249C12.9551 36.4916 12.9551 33.3582 12.9551 30.2249C12.9551 28.7963 13.6694 28.082 15.1241 28.082C17.3527 28.0947 19.5829 28.1019 21.8146 28.1035ZM21.8337 29.1916H15.2003C14.2836 29.1916 13.986 29.482 13.986 30.382C13.986 33.4217 13.986 36.4638 13.986 39.5082C13.986 40.3916 14.2717 40.6987 15.1646 40.6987C19.609 40.6987 24.0487 40.6987 28.4837 40.6987C29.3456 40.6987 29.5694 40.4439 29.5694 39.5749C29.5694 36.4955 29.5694 33.4177 29.5694 30.3416C29.5694 29.3892 29.3527 29.1868 28.4098 29.1868L21.8337 29.1916Z" fill="#1BB6C9"/>
<path d="M43.4755 49.0792C43.4755 47.5578 43.4755 46.0388 43.4755 44.5173C43.4755 43.6054 43.8207 43.2626 44.7207 43.2578C45.3032 43.2578 45.8866 43.2578 46.4707 43.2578C47.3207 43.2578 47.704 43.6245 47.7112 44.4816C47.7278 45.9673 47.7112 47.4531 47.7112 48.9388C47.7112 50.4769 47.7112 52.015 47.7112 53.5531C47.7112 54.5602 47.3421 54.934 46.3397 54.9578C45.7921 54.9721 45.2445 54.9745 44.6969 54.9578C43.8564 54.9316 43.4755 54.5388 43.4707 53.6959C43.4707 52.1578 43.4755 50.6197 43.4755 49.0792Z" fill="#1BB6C9"/>
<path d="M44.2887 40.1617C44.0984 40.1867 43.9068 40.2002 43.7149 40.2022C43.5875 40.2069 43.463 40.1643 43.3654 40.0825C43.2677 40.0006 43.2039 39.8855 43.1863 39.7593C43.1616 39.6444 43.1803 39.5244 43.2387 39.4224C43.2972 39.3204 43.3913 39.2437 43.503 39.2069C44.3696 38.9688 45.2291 38.6665 46.122 38.6165C46.2299 38.6059 46.3387 38.6216 46.4392 38.6623C46.5396 38.7029 46.6288 38.7673 46.6989 38.8499C46.7691 38.9325 46.8183 39.0308 46.8422 39.1365C46.8661 39.2423 46.8641 39.3522 46.8363 39.4569C46.6815 40.2569 46.491 41.0474 46.2958 41.8379C46.222 42.1403 46.0101 42.3617 45.6744 42.2831C45.3387 42.2046 45.2291 41.9188 45.2672 41.5688C45.2887 41.3665 45.4649 41.0927 45.2672 40.9831C45.0696 40.8736 44.8958 41.1855 44.7315 41.326C43.341 42.5307 41.9522 43.7379 40.5649 44.9474C39.8649 45.5569 39.4672 45.5807 38.7268 45.045C38.1387 44.6212 37.5363 44.2141 36.9815 43.745C36.6101 43.4307 36.3625 43.4903 36.0291 43.7879C34.7029 44.9784 33.3625 46.1688 32.0244 47.3593C31.4387 47.876 31.122 47.8808 30.4601 47.4736C29.1029 46.6403 27.7291 45.8355 26.3791 44.995C26.0363 44.7807 25.8244 44.8355 25.5577 45.1069C24.391 46.2974 23.2101 47.4641 22.0291 48.6379C21.8976 48.7799 21.746 48.9018 21.5791 48.9998C21.477 49.0578 21.3571 49.076 21.2424 49.0509C21.1277 49.0259 21.0263 48.9593 20.9577 48.8641C20.8862 48.7834 20.8442 48.6808 20.8385 48.5731C20.8329 48.4654 20.864 48.3589 20.9268 48.2712C21.0083 48.1555 21.1008 48.0479 21.2029 47.9498C22.5529 46.5974 23.9149 45.2546 25.2506 43.8855C25.6482 43.4807 25.991 43.4569 26.4601 43.7522C27.8363 44.6212 29.2387 45.4474 30.6196 46.3093C31.0172 46.5593 31.2982 46.5879 31.6839 46.2355C33.0529 44.9807 34.4601 43.7688 35.8553 42.5427C36.3553 42.1022 36.5696 42.1046 37.1053 42.5093C37.8196 43.0379 38.5339 43.5546 39.2482 44.0808C39.4458 44.226 39.6149 44.3188 39.8506 44.1212C41.3149 42.8379 42.7863 41.5665 44.2506 40.2879C44.2839 40.2712 44.2768 40.2212 44.2887 40.1617Z" fill="#1BB6C9"/>
<path d="M37.8668 50.5106C37.8668 51.6059 37.8668 52.7011 37.8668 53.7987C37.8668 54.5463 37.5145 54.9249 36.7811 54.9511C36.1097 54.9773 35.4359 54.9797 34.7668 54.9511C34.0335 54.9106 33.7049 54.5678 33.7002 53.832C33.6859 51.6225 33.6859 49.413 33.7002 47.2035C33.7002 46.463 34.0811 46.0963 34.8192 46.0678C35.4549 46.0439 36.093 46.0463 36.724 46.0678C37.4954 46.0916 37.8549 46.463 37.8621 47.2297C37.874 48.3249 37.8668 49.4201 37.8668 50.5106Z" fill="#1BB6C9"/>
<path d="M42.7634 50.7483C42.7634 51.7579 42.7634 52.765 42.7634 53.7721C42.7634 54.5626 42.442 54.9245 41.6563 54.9626C40.9675 54.9936 40.2776 54.9864 39.5896 54.9412C38.9348 54.8959 38.6039 54.5626 38.5967 53.9245C38.5745 51.8023 38.5745 49.6801 38.5967 47.5579C38.5967 46.8936 38.9586 46.5388 39.6206 46.5055C40.2825 46.4721 40.9991 46.4721 41.6896 46.5055C42.3801 46.5388 42.7515 46.915 42.761 47.6245C42.7729 48.6531 42.7634 49.6959 42.7634 50.7483Z" fill="#1BB6C9"/>
<path d="M23.9001 51.0496C23.9001 50.1305 23.9001 49.2091 23.9001 48.2877C23.9001 47.5734 24.1621 47.2877 24.8525 47.1924C25.6064 47.0817 26.3724 47.0817 27.1263 47.1924C27.2557 47.2 27.3822 47.2331 27.4987 47.2898C27.6151 47.3466 27.7192 47.4258 27.8049 47.523C27.8906 47.6202 27.9561 47.7334 27.9978 47.856C28.0395 47.9787 28.0565 48.1084 28.0478 48.2377C28.0621 50.1139 28.0621 51.99 28.0478 53.8662C28.0478 54.5377 27.7049 54.9019 27.043 54.9377C26.319 54.9793 25.5932 54.9793 24.8692 54.9377C24.1811 54.8948 23.9001 54.5591 23.8906 53.8638C23.9001 52.9258 23.9001 51.9877 23.9001 51.0496Z" fill="#1BB6C9"/>
<path d="M32.9726 51.6625C32.9726 52.3887 32.9726 53.1125 32.9726 53.8387C32.9726 54.5649 32.6488 54.9006 31.9535 54.9435C31.2644 54.9828 30.5736 54.9828 29.8845 54.9435C29.1702 54.9102 28.7797 54.5697 28.7607 53.853C28.7178 52.3697 28.7178 50.8816 28.7607 49.3983C28.7797 48.7197 29.1678 48.3649 29.8511 48.3173C30.5219 48.2744 31.1947 48.2744 31.8654 48.3173C32.5797 48.3602 32.9654 48.7935 32.9749 49.5435C32.9797 50.2459 32.9726 50.9554 32.9726 51.6625Z" fill="#1BB6C9"/>
<path d="M23.1216 52.4341C23.1216 52.9484 23.1216 53.4603 23.1216 53.9722C23.1049 54.5603 22.8478 54.8698 22.2668 54.9246C21.4752 55.0043 20.6775 55.0043 19.8859 54.9246C19.7651 54.9208 19.6463 54.8925 19.5368 54.8413C19.4273 54.7902 19.3294 54.7173 19.249 54.6271C19.1686 54.5368 19.1074 54.4312 19.0691 54.3166C19.0308 54.2019 19.0163 54.0807 19.0263 53.9603C19.0121 52.8984 19.0121 51.8381 19.0263 50.7793C19.0179 50.6641 19.0329 50.5484 19.0702 50.4391C19.1075 50.3298 19.1665 50.2291 19.2436 50.1431C19.3208 50.0571 19.4144 49.9875 19.519 49.9385C19.6237 49.8895 19.7371 49.8621 19.8525 49.8579C20.6586 49.7401 21.4774 49.7401 22.2835 49.8579C22.5172 49.875 22.7349 49.9831 22.8898 50.159C23.0447 50.3348 23.1245 50.5644 23.1121 50.7984C23.1335 51.346 23.1121 51.8936 23.1121 52.4412L23.1216 52.4341Z" fill="#1BB6C9"/>
<path d="M39.8643 31.9382C37.6 31.9382 35.3405 31.9382 33.0714 31.9382C32.6548 31.9382 32.1643 32.0049 32.0953 31.3954C32.0524 30.9954 32.4095 30.7739 33.0833 30.7739H46.6667C46.8268 30.7703 46.9867 30.7863 47.1429 30.8216C47.281 30.8396 47.4072 30.9091 47.4962 31.0162C47.5853 31.1233 47.6306 31.2601 47.623 31.3991C47.6155 31.5382 47.5557 31.6693 47.4557 31.7662C47.3556 31.8631 47.2226 31.9186 47.0834 31.9215C46.907 31.9399 46.7296 31.9462 46.5524 31.9406L39.8643 31.9382Z" fill="#1BB6C9"/>
<path d="M39.8123 36.5145H33.1861C33.0265 36.5145 32.867 36.5145 32.7099 36.5145C32.3694 36.4979 32.1123 36.3598 32.1075 35.9836C32.1027 35.6074 32.3456 35.455 32.6908 35.4336C32.8313 35.4336 32.9742 35.4336 33.1146 35.4336H46.6551C47.3694 35.4336 47.7218 35.6145 47.667 35.9955C47.5813 36.5907 47.0956 36.5241 46.6742 36.5241C44.3837 36.5209 42.0964 36.5177 39.8123 36.5145Z" fill="#1BB6C9"/>
<path d="M39.8681 34.2014H33.0753C32.8809 34.2099 32.6862 34.1979 32.4943 34.1657C32.3783 34.1476 32.273 34.0873 32.1987 33.9963C32.1245 33.9053 32.0864 33.7901 32.0919 33.6728C32.0806 33.5559 32.1156 33.4391 32.1896 33.3478C32.2635 33.2565 32.3704 33.1979 32.4872 33.1847C32.7299 33.1396 32.9761 33.1157 33.2229 33.1133C37.6467 33.1133 42.0697 33.1133 46.4919 33.1133C46.6863 33.1145 46.8804 33.1288 47.0729 33.1561C47.4039 33.2014 47.6681 33.3585 47.6372 33.7276C47.6062 34.0966 47.3491 34.1895 47.0324 34.2038C46.8729 34.2038 46.7134 34.2038 46.5562 34.2038L39.8681 34.2014Z" fill="#1BB6C9"/>
<path d="M43.7103 26.9388H40.4198C40.2607 26.9453 40.1013 26.9373 39.9436 26.915C39.809 26.907 39.6815 26.8517 39.5835 26.7589C39.4855 26.6662 39.4234 26.5419 39.4079 26.4079C39.3841 26.0746 39.6174 25.8936 39.927 25.8388C40.1527 25.8007 40.3813 25.7816 40.6103 25.7817C42.6992 25.7817 44.7873 25.7817 46.8746 25.7817C47.0336 25.7793 47.1926 25.7865 47.3508 25.8031C47.7032 25.8484 48.0651 25.9484 48.0317 26.3865C47.9984 26.8245 47.6936 26.9317 47.3174 26.9388C47.0794 26.9388 46.8222 26.9388 46.5746 26.9388H43.7103Z" fill="#1BB6C9"/>
<path d="M41.2825 13.8181C39.5259 13.8181 37.773 13.8181 36.0276 13.8181C35.7226 13.8226 35.4183 13.798 35.123 13.745C34.9584 13.7169 34.8135 13.649 34.7145 13.5534C34.6154 13.4578 34.5686 13.3408 34.5825 13.2234C34.5691 13.0958 34.6236 12.9693 34.7357 12.8678C34.8478 12.7664 35.0097 12.6971 35.1905 12.6731C35.3797 12.6418 35.5742 12.6286 35.7686 12.634H46.9691C47.5697 12.634 48.1477 12.6966 48.1515 13.2208C48.1552 13.745 47.5697 13.8207 46.9766 13.8233C45.0698 13.8207 43.1781 13.8181 41.2825 13.8181Z" fill="#1BB6C9"/>
<path d="M41.3908 11.9153C39.6038 11.9153 37.8205 11.9153 36.0334 11.9153C35.7553 11.9207 35.4773 11.9024 35.2057 11.861C35.0237 11.8396 34.8596 11.7729 34.7444 11.6737C34.6293 11.5744 34.5712 11.4495 34.5812 11.3227C34.572 11.1967 34.63 11.0727 34.7443 10.9741C34.8586 10.8755 35.0214 10.8089 35.202 10.787C35.5017 10.746 35.8069 10.7269 36.1124 10.7301C39.6238 10.7301 43.1352 10.7301 46.6466 10.7301C47.2937 10.7301 48.1515 10.6447 48.1515 11.3175C48.1515 11.9904 47.305 11.9102 46.6466 11.9128C44.9047 11.9205 43.1478 11.9153 41.3908 11.9153Z" fill="#1BB6C9"/>
<path d="M43.6884 28.7822C42.5551 28.7822 41.4241 28.7822 40.2932 28.7822C40.1172 28.7906 39.9409 28.7746 39.7694 28.7346C39.6634 28.7124 39.5682 28.6548 39.4994 28.5713C39.4306 28.4877 39.3923 28.3833 39.3908 28.2751C39.3879 28.1656 39.4227 28.0585 39.4895 27.9718C39.5563 27.8851 39.6509 27.824 39.7575 27.7989C39.9461 27.7543 40.14 27.7359 40.3337 27.7441H47.1241C47.2289 27.7441 47.336 27.7441 47.4432 27.7441C47.7837 27.7608 48.0432 27.9036 48.0337 28.2774C48.0241 28.6512 47.7765 28.7536 47.4527 28.7655C46.9575 28.7655 46.4646 28.7655 45.9694 28.7655L43.6884 28.7822Z" fill="#1BB6C9"/>
<path d="M17.011 21.1077H14.2538C13.8896 21.1077 13.5396 21.0434 13.5277 20.6005C13.5158 20.1577 13.8419 20.0172 14.2419 20.0196H19.861C20.2515 20.0196 20.6086 20.1362 20.5991 20.5886C20.5896 21.041 20.2348 21.1077 19.8681 21.1077H17.011Z" fill="#1BB6C9"/>
<path d="M17.0168 19.206H14.262C13.9001 19.206 13.5478 19.144 13.5263 18.7083C13.5049 18.2726 13.8525 18.125 14.2406 18.125C16.1097 18.125 17.9811 18.125 19.8525 18.125C20.2216 18.125 20.6192 18.2107 20.5978 18.6774C20.5763 19.144 20.2049 19.206 19.8192 19.2036L17.0168 19.206Z" fill="#1BB6C9"/>
<path d="M28.5295 36.2072C28.5295 37.1977 28.5295 38.1881 28.5295 39.1786C28.5295 39.9096 28.2248 40.1905 27.4867 40.212C25.7129 40.262 25.6152 40.1691 25.6152 38.4143C25.6152 36.7524 25.6152 35.0913 25.6152 33.431C25.6152 32.5072 25.87 32.2405 26.77 32.2405C28.47 32.2215 28.5343 32.2858 28.5343 33.9786L28.5295 36.2072Z" fill="#1BB6C9"/>
<path d="M18.6077 37.2676C18.6077 36.6486 18.6077 36.0295 18.6077 35.4129C18.6077 34.7962 18.9006 34.5129 19.522 34.4843C19.8911 34.47 20.2649 34.4676 20.6339 34.4843C21.1863 34.5152 21.4982 34.8009 21.5077 35.3509C21.5268 36.6748 21.5268 38.0002 21.5077 39.3271C21.5077 39.8771 21.1911 40.17 20.6411 40.2009C20.2526 40.2248 19.8629 40.2248 19.4744 40.2009C18.8982 40.1676 18.6197 39.87 18.6077 39.2795C18.5982 38.6057 18.6077 37.939 18.6077 37.2676Z" fill="#1BB6C9"/>
<path d="M25.016 37.9496C25.016 38.4091 25.0279 38.8686 25.016 39.3282C25.0253 39.4393 25.0112 39.5511 24.9748 39.6565C24.9383 39.7619 24.8802 39.8585 24.8042 39.9401C24.7282 40.0217 24.636 40.0865 24.5334 40.1304C24.4309 40.1743 24.3203 40.1962 24.2088 40.1948C23.7863 40.2246 23.3623 40.2246 22.9398 40.1948C22.3969 40.1567 22.1207 39.8496 22.1112 39.2924C22.1112 38.3734 22.1112 37.4567 22.1112 36.5377C22.1006 36.4313 22.1123 36.3238 22.1456 36.2222C22.1789 36.1206 22.233 36.027 22.3044 35.9474C22.3759 35.8679 22.4632 35.8041 22.5607 35.7602C22.6582 35.7163 22.7638 35.6932 22.8707 35.6924C23.3619 35.6293 23.8594 35.6341 24.3493 35.7067C24.443 35.7128 24.5345 35.7372 24.6187 35.7787C24.7029 35.8201 24.7781 35.8778 24.84 35.9483C24.902 36.0189 24.9494 36.1009 24.9795 36.1898C25.0097 36.2786 25.0221 36.3726 25.016 36.4662C25.0279 36.9591 25.016 37.4543 25.016 37.9472V37.9496Z" fill="#1BB6C9"/>
<path d="M18.0038 38.0729C18.0038 38.4967 18.0181 38.9205 18.0038 39.3443C18.0115 39.4555 17.9959 39.5671 17.9579 39.6719C17.9199 39.7767 17.8605 39.8724 17.7834 39.9528C17.7062 40.0333 17.6132 40.0968 17.5101 40.1392C17.407 40.1816 17.2962 40.202 17.1848 40.1991C16.7622 40.2265 16.3383 40.2265 15.9157 40.1991C15.8083 40.2014 15.7015 40.1818 15.6019 40.1415C15.5023 40.1011 15.412 40.0409 15.3364 39.9644C15.2609 39.888 15.2017 39.797 15.1625 39.6969C15.1234 39.5968 15.105 39.4898 15.1086 39.3824C15.0848 38.4824 15.0824 37.5824 15.1086 36.6848C15.1046 36.5822 15.1227 36.48 15.1618 36.3851C15.2008 36.2902 15.2598 36.2048 15.3349 36.1348C15.4099 36.0647 15.4991 36.0117 15.5965 35.9792C15.6938 35.9468 15.797 35.9357 15.8991 35.9467C16.3229 35.9467 16.7467 35.9348 17.1705 35.9467C17.7586 35.9634 17.9777 36.1848 18.0038 36.8038C18.0038 36.8396 18.0038 36.8729 18.0038 36.9086V38.0729Z" fill="#1BB6C9"/>
<path d="M27.0845 10.9316C26.867 10.9316 26.6844 10.9388 26.5024 10.9316C26.1379 10.9138 25.8993 10.6769 25.9004 10.3451C25.9004 10.0005 26.1523 9.75305 26.5268 9.7525C28.4799 9.74917 30.433 9.74917 32.3861 9.7525C32.7634 9.7525 33.017 9.9933 33.0231 10.3351C33.0292 10.6769 32.7823 10.9177 32.4039 10.9316C32.2302 10.9382 32.0565 10.9316 31.8601 10.9316C31.8518 11.027 31.8396 11.1052 31.8396 11.184C31.8396 12.6122 31.8357 14.0404 31.844 15.4686C31.8476 15.6032 31.8887 15.7341 31.9628 15.8465C33.4764 18.0814 34.9941 20.3125 36.5159 22.5397C36.8355 23.0086 37.0802 23.5063 37.1718 24.0745C37.3022 24.8834 36.957 25.6109 36.2363 25.9981C35.8029 26.2278 35.3191 26.3458 34.8286 26.3416C31.2542 26.3468 27.6798 26.3451 24.1055 26.3366C23.7653 26.33 23.4279 26.2739 23.1039 26.1701C22.0175 25.8372 21.501 24.9123 21.8122 23.8181C21.9343 23.394 22.1215 22.9913 22.3671 22.6246C23.8802 20.3686 25.4188 18.1303 26.9408 15.8803C27.0279 15.7446 27.0756 15.5872 27.0784 15.4259C27.0889 14.0254 27.0845 12.625 27.0845 11.224V10.9316ZM25.3123 20.4046H33.6113C33.533 20.2831 33.4775 20.1916 33.4171 20.1033C32.6036 18.9076 31.7958 17.708 30.9707 16.5201C30.7479 16.2026 30.6331 15.8219 30.6433 15.4342C30.6516 14.0332 30.6433 12.6316 30.6511 11.2306C30.6511 11.0087 30.5995 10.9227 30.3615 10.9293C29.7626 10.9449 29.1637 10.9449 28.5648 10.9293C28.3279 10.9232 28.273 11.0065 28.2741 11.2295C28.283 12.6122 28.2702 13.9949 28.2835 15.3776C28.2945 15.8123 28.1625 16.2386 27.9079 16.5911C27.0956 17.7563 26.3049 18.932 25.507 20.105C25.4465 20.191 25.3911 20.2826 25.3123 20.4046Z" fill="#1BB6C9"/>
</g>
<defs>
<clipPath id="clip0_26668_125962">
<rect width="44.2857" height="60" fill="white" transform="translate(8.62695 0.488281)"/>
</clipPath>
</defs>
</svg>
