<svg width="62" height="61" viewBox="0 0 62 61" fill="none" xmlns="http://www.w3.org/2000/svg">
<g clip-path="url(#clip0_18721_320)">
<path d="M9.00561 33.1866V8.92659C8.98066 8.53666 9.03909 8.14588 9.17701 7.7803C9.31493 7.41472 9.52917 7.08272 9.80546 6.80643C10.0817 6.53014 10.4137 6.3159 10.7793 6.17799C11.1449 6.04007 11.5357 5.98164 11.9256 6.00659C14.1156 6.06659 16.3656 6.00659 18.6156 6.00659C19.4656 6.00659 19.5256 6.06659 19.5256 6.91659V9.16659C19.5256 9.95659 19.4056 10.0866 18.5256 10.1666H14.2356C13.2356 10.1666 13.1456 10.3466 13.1456 11.2566V55.0166C13.1456 56.1166 13.2056 56.2366 14.2956 56.2366C20.9256 56.2366 27.5556 56.2366 34.2956 56.1766C34.9656 56.1766 35.2056 56.4166 34.9056 57.0266C34.6995 57.4413 34.5865 57.8959 34.5744 58.3589C34.5623 58.8218 34.6514 59.2817 34.8356 59.7066C35.0256 60.1866 34.8356 60.3666 34.3556 60.3666H12.0756C10.0056 60.3666 9.07561 59.3666 9.07561 57.3666L9.00561 33.1866Z" fill="#E3CC20"/>
<path d="M52.8001 33.1888V8.92683C52.825 8.53686 52.7666 8.14605 52.6287 7.78044C52.4908 7.41483 52.2766 7.08281 52.0003 6.8065C51.724 6.53019 51.3921 6.31593 51.0266 6.178C50.661 6.04007 50.2703 5.98164 49.8804 6.00659C47.6907 6.0666 45.4409 6.00659 43.1912 6.00659C42.3413 6.00659 42.2813 6.0666 42.2813 6.91666V9.16685C42.2813 9.95691 42.4013 10.0869 43.2812 10.1669H47.5707C48.5706 10.1669 48.6605 10.3469 48.6605 11.257V55.0205C48.6605 56.1206 48.6005 56.2406 47.5107 56.2406C40.8815 56.2406 34.2522 56.2406 27.513 56.1806C26.8431 56.1806 26.6031 56.4207 26.9031 57.0307C27.1092 57.4454 27.2222 57.9001 27.2343 58.3631C27.2464 58.826 27.1572 59.286 26.9731 59.7109C26.7831 60.191 26.9731 60.371 27.453 60.371H49.7304C51.8002 60.371 52.7301 59.3709 52.7301 57.3707L52.8001 33.1888Z" fill="#E3CC20"/>
<path d="M30.7156 11.7309H21.8356C21.2256 11.7309 20.9856 11.5509 20.9856 10.9409V6.90095C20.9717 6.65181 21.0116 6.4026 21.1025 6.17023C21.1934 5.93786 21.3333 5.72776 21.5125 5.55419C21.6918 5.38061 21.9063 5.24763 22.1415 5.16425C22.3767 5.08087 22.627 5.04905 22.8756 5.07095C24.0856 5.07095 25.3056 5.01095 26.5156 5.07095C26.6989 5.09318 26.8755 5.15362 27.0339 5.24836C27.1924 5.3431 27.3292 5.47003 27.4356 5.62095C27.7854 6.18531 28.2734 6.65104 28.8535 6.97401C29.4337 7.29698 30.0866 7.46649 30.7506 7.46649C31.4146 7.46649 32.0675 7.29698 32.6477 6.97401C33.2278 6.65104 33.7158 6.18531 34.0656 5.62095C34.1983 5.4526 34.3628 5.31207 34.5499 5.20739C34.7369 5.10272 34.9427 5.03597 35.1556 5.01095C36.3515 4.95094 37.5497 4.95094 38.7456 5.01095C38.9844 4.99539 39.2238 5.03012 39.4483 5.11289C39.6728 5.19566 39.8774 5.32462 40.049 5.49145C40.2205 5.65828 40.3551 5.85925 40.4441 6.08138C40.5331 6.3035 40.5745 6.54183 40.5656 6.78095C40.6256 8.18095 40.5656 9.57095 40.5656 10.9709C40.5656 11.5809 40.2656 11.7009 39.7156 11.7009C36.6756 11.7309 33.6956 11.7309 30.7156 11.7309Z" fill="#E3CC20"/>
<path d="M27.0853 25.001V15.1732H30.5884C31.3498 15.1732 31.9816 15.3044 32.4839 15.5667C32.9893 15.8291 33.3668 16.1922 33.6163 16.656C33.8659 17.1167 33.9906 17.6494 33.9906 18.254C33.9906 18.8554 33.8643 19.3849 33.6115 19.8424C33.362 20.2967 32.9845 20.6502 32.4791 20.9029C31.9768 21.1556 31.345 21.282 30.5836 21.282H27.9299V20.0055H30.4492C30.9291 20.0055 31.3194 19.9368 31.6201 19.7992C31.924 19.6616 32.1463 19.4617 32.2871 19.1994C32.4279 18.937 32.4983 18.6219 32.4983 18.254C32.4983 17.8829 32.4263 17.5614 32.2823 17.2895C32.1415 17.0175 31.9192 16.8096 31.6153 16.6656C31.3146 16.5185 30.9195 16.4449 30.43 16.4449H28.5681V25.001H27.0853ZM31.9368 20.567L34.3649 25.001H32.6758L30.2956 20.567H31.9368Z" fill="#E3CC20"/>
<path d="M31.0156 50.731H23.4756C23.2262 50.7085 22.9944 50.5933 22.8259 50.4081C22.6575 50.223 22.5645 49.9814 22.5656 49.731C22.5653 49.6061 22.5923 49.4827 22.6447 49.3693C22.697 49.2558 22.7734 49.1552 22.8686 49.0743C22.9638 48.9934 23.0754 48.9342 23.1958 48.9008C23.3161 48.8675 23.4423 48.8607 23.5656 48.881C23.8481 48.8509 24.133 48.8509 24.4156 48.881H39.0756C39.2807 48.8712 39.4862 48.8915 39.6856 48.941C39.9856 49.001 40.1156 49.241 39.9256 49.551C39.7258 49.9761 39.4068 50.3338 39.0072 50.5806C38.6077 50.8274 38.145 50.9526 37.6756 50.941C35.461 50.7501 33.2377 50.68 31.0156 50.731Z" fill="#E3CC20"/>
<path d="M43.2457 37.971H23.6057C23.4582 38.0079 23.3043 38.0108 23.1555 37.9793C23.0068 37.9478 22.8672 37.8829 22.7474 37.7894C22.6275 37.6958 22.5306 37.5762 22.4639 37.4396C22.3972 37.303 22.3625 37.153 22.3625 37.001C22.3625 36.849 22.3972 36.6989 22.4639 36.5623C22.5306 36.4257 22.6275 36.3061 22.7474 36.2126C22.8672 36.1191 23.0068 36.0541 23.1555 36.0226C23.3043 35.9912 23.4582 35.994 23.6057 36.031H43.2457C43.3931 35.994 43.5471 35.9912 43.6958 36.0226C43.8445 36.0541 43.9841 36.1191 44.1039 36.2126C44.2238 36.3061 44.3207 36.4257 44.3874 36.5623C44.4541 36.6989 44.4888 36.849 44.4888 37.001C44.4888 37.153 44.4541 37.303 44.3874 37.4396C44.3207 37.5762 44.2238 37.6958 44.1039 37.7894C43.9841 37.8829 43.8445 37.9478 43.6958 37.9793C43.5471 38.0108 43.3931 38.0079 43.2457 37.971Z" fill="#E3CC20"/>
<path d="M43.2456 44.421H23.6056C23.4592 44.4544 23.3071 44.4544 23.1607 44.4209C23.0142 44.3875 22.8772 44.3214 22.7598 44.2278C22.6424 44.1341 22.5476 44.0152 22.4824 43.8799C22.4173 43.7445 22.3834 43.5962 22.3834 43.446C22.3834 43.2958 22.4173 43.1476 22.4824 43.0122C22.5476 42.8769 22.6424 42.758 22.7598 42.6643C22.8772 42.5706 23.0142 42.5046 23.1607 42.4712C23.3071 42.4377 23.4592 42.4377 23.6056 42.471H43.2456C43.5108 42.471 43.7652 42.5764 43.9527 42.7639C44.1403 42.9515 44.2456 43.2058 44.2456 43.471C44.2488 43.601 44.2247 43.7301 44.1749 43.8501C44.1251 43.9702 44.0507 44.0784 43.9564 44.168C43.8622 44.2575 43.7503 44.3262 43.6279 44.3698C43.5054 44.4134 43.3752 44.4309 43.2456 44.421Z" fill="#E3CC20"/>
<path d="M42.6356 31.651H23.6356C23.3704 31.651 23.1161 31.5457 22.9285 31.3581C22.741 31.1706 22.6356 30.9163 22.6356 30.651C22.6356 30.3858 22.741 30.1315 22.9285 29.9439C23.1161 29.7564 23.3704 29.651 23.6356 29.651H42.6356C43.1856 29.641 43.1856 31.651 42.6356 31.651Z" fill="#E3CC20"/>
<path d="M33.3956 3.801C33.3863 4.51974 33.0919 5.20535 32.5771 5.70701C32.0623 6.20867 31.3693 6.48529 30.6506 6.476C29.9318 6.46672 29.2462 6.1723 28.7446 5.65752C28.2429 5.14273 27.9663 4.44974 27.9756 3.731C27.9729 3.01476 28.2528 2.32636 28.7545 1.81524C29.2563 1.30412 29.9394 1.01153 30.6556 1.001C31.0233 0.990918 31.3891 1.05691 31.73 1.19485C32.071 1.33278 32.3798 1.53969 32.6371 1.80258C32.8944 2.06548 33.0945 2.37869 33.225 2.72258C33.3556 3.06647 33.4136 3.43362 33.3956 3.801ZM29.7456 3.731C29.7787 3.98461 29.8947 4.22017 30.0756 4.40102C30.2564 4.58187 30.492 4.69788 30.7456 4.731C31.0138 4.69597 31.2612 4.56748 31.4441 4.36812C31.627 4.16876 31.7337 3.9113 31.7456 3.641C31.723 3.38336 31.6104 3.14189 31.4276 2.95901C31.2447 2.77613 31.0032 2.66353 30.7456 2.641C30.6063 2.64044 30.4685 2.66896 30.3409 2.72475C30.2133 2.78054 30.0988 2.86235 30.0046 2.96497C29.9105 3.06758 29.8388 3.18872 29.7942 3.32063C29.7496 3.45254 29.733 3.59232 29.7456 3.731Z" fill="#E3CC20"/>
<path d="M17.1556 30.551C17.1556 28.611 16.9756 28.791 18.9156 28.791C20.5656 28.791 20.6256 28.361 20.6256 30.551C20.6256 32.741 20.7456 32.381 18.7956 32.381C16.8456 32.381 17.1556 32.381 17.1556 30.551Z" fill="#E3CC20"/>
<path d="M20.6256 37.001C20.6256 38.821 20.8056 38.761 18.8556 38.761C16.7256 38.761 17.1556 38.761 17.0956 37.061C17.0956 34.931 16.9756 35.241 18.9156 35.241C20.4956 35.241 20.6256 34.871 20.5656 36.941C20.5815 36.941 20.5967 36.9473 20.608 36.9586C20.6192 36.9698 20.6256 36.9851 20.6256 37.001Z" fill="#E3CC20"/>
<path d="M20.6256 43.321V44.171C20.6256 44.961 20.5656 45.091 19.7756 45.091H17.7756C17.6845 45.1045 17.5915 45.0965 17.5041 45.0676C17.4166 45.0387 17.3372 44.9897 17.2721 44.9246C17.2069 44.8595 17.158 44.78 17.1291 44.6926C17.1002 44.6051 17.0921 44.5121 17.1056 44.421V42.351C17.1056 41.741 17.3456 41.561 17.9556 41.561H19.8456C20.3856 41.561 20.5756 41.801 20.5756 42.291C20.6204 42.6324 20.6371 42.9769 20.6256 43.321Z" fill="#E3CC20"/>
<path d="M18.9156 48.0109C20.6856 48.0709 20.6256 47.6409 20.6256 49.7109C20.6256 51.7809 20.8656 51.5309 18.7356 51.5309C16.7956 51.5309 17.1556 51.4109 17.0956 49.9509V49.8309C17.1556 47.7309 16.9156 48.0109 18.9156 48.0109Z" fill="#E3CC20"/>
</g>
<defs>
<clipPath id="clip0_18721_320">
<rect width="60.8091" height="60.8091" fill="white" transform="translate(0.696777)"/>
</clipPath>
</defs>
</svg>
