<svg width="62" height="62" viewBox="0 0 62 62" fill="none" xmlns="http://www.w3.org/2000/svg">
<g clip-path="url(#clip0_7212_41795)">
<path d="M24.774 60.785H2.30197C1.01731 60.785 1.01923 60.785 1.01923 59.5408C1.01923 40.1144 1.01282 20.6906 1 1.26931C1 0.294276 1.25578 0.0154189 2.22505 0.0192652C11.9254 0.0384967 21.6219 0.0384979 31.3242 0.0384979C32.6281 0.0384979 32.6435 0.0577298 32.6435 1.40009C32.6435 4.98997 32.6435 8.57536 32.6435 12.1563C32.6435 13.864 32.8358 14.0525 34.4993 14.0544C38.7572 14.0544 43.0144 14.0544 47.271 14.0544C48.5422 14.0544 48.5768 14.0871 48.5768 15.3333C48.5768 17.8949 48.5576 20.4566 48.5903 23.0259C48.5903 23.8106 48.3172 24.0721 47.5364 24.1163C40.54 24.5144 34.8436 30.2839 34.5744 37.1938C34.3147 44.3094 39.3418 50.4635 46.2902 51.4943C46.4825 51.5231 46.6748 51.5674 46.8671 51.5981C48.5807 51.8635 48.5845 51.8635 48.5883 53.5809C48.5883 55.5656 48.546 57.5522 48.6095 59.5427C48.6403 60.5043 48.3249 60.9293 47.3537 60.7927C47.3217 60.7899 47.2895 60.7899 47.2575 60.7927L24.774 60.785ZM23.2912 21.9009H27.3298H38.2668C39.0361 21.9009 39.638 21.6393 39.6265 20.7797C39.6149 19.9758 39.0207 19.7277 38.3053 19.7085C38.1456 19.7085 37.9841 19.7085 37.8245 19.7085C28.1998 19.7085 18.5744 19.7085 8.94838 19.7085C8.59822 19.6934 8.24753 19.7211 7.90411 19.7912C7.66356 19.8327 7.4474 19.9631 7.2985 20.1565C7.14959 20.3499 7.07883 20.5923 7.10023 20.8354C7.09505 21.0793 7.1795 21.3166 7.33759 21.5023C7.49568 21.688 7.71641 21.8093 7.95796 21.8432C8.30469 21.9018 8.65686 21.9218 9.008 21.9028L23.2912 21.9009ZM24.5278 56.506H40.0842C40.4352 56.5242 40.7871 56.5055 41.1342 56.4503C41.3752 56.4149 41.5938 56.2895 41.7459 56.0992C41.8979 55.9089 41.9721 55.6681 41.9535 55.4252C41.9634 55.1814 41.8766 54.9436 41.712 54.7635C41.5474 54.5834 41.3183 54.4756 41.0746 54.4636C40.7253 54.4264 40.3738 54.4123 40.0226 54.4213C29.6876 54.4213 19.3526 54.4213 9.01761 54.4213C8.69837 54.4213 8.3772 54.4213 8.05604 54.4483C7.46755 54.5059 7.09446 54.8233 7.09446 55.4368C7.09446 56.0502 7.42909 56.3983 8.01373 56.4791C8.33299 56.5139 8.65436 56.5255 8.9753 56.5137L24.5278 56.506ZM20.6969 25.6375C16.8301 25.6375 12.9633 25.6375 9.09646 25.6375C8.77569 25.6261 8.45452 25.6351 8.13489 25.6645C7.53486 25.7433 7.10023 26.0337 7.09831 26.701C7.09639 27.3684 7.48294 27.6992 8.10027 27.7703C8.51285 27.8148 8.92767 27.8354 9.34263 27.8319C16.9814 27.8319 24.6195 27.8319 32.257 27.8319C32.6395 27.8393 33.0215 27.798 33.3935 27.7088C33.6163 27.6593 33.8125 27.5282 33.9434 27.3414C34.0744 27.1545 34.1307 26.9254 34.1013 26.6991C34.1067 26.4559 34.0231 26.2191 33.8662 26.0332C33.7093 25.8473 33.49 25.725 33.2493 25.6895C32.9658 25.6439 32.6784 25.6271 32.3916 25.6395C28.494 25.6356 24.5958 25.635 20.6969 25.6375ZM21.1662 51.3174H33.5455C33.7686 51.3174 33.9936 51.3174 34.2166 51.2962C34.8609 51.2501 35.2301 50.9116 35.2244 50.2539C35.2186 49.5961 34.809 49.2923 34.1782 49.2442C33.9551 49.2307 33.7301 49.2231 33.507 49.2231C25.2823 49.2231 17.057 49.2231 8.83107 49.2231C8.4799 49.2073 8.12828 49.2416 7.7868 49.325C7.56443 49.377 7.36971 49.5106 7.24114 49.6994C7.11258 49.8881 7.05955 50.1183 7.09254 50.3443C7.13485 50.85 7.3964 51.1885 7.90988 51.2635C8.22883 51.3025 8.55027 51.3173 8.87145 51.3078L21.1662 51.3174ZM18.918 39.5708H28.6049C28.9568 39.5708 29.3107 39.5823 29.6607 39.5554C30.3011 39.5035 30.7838 39.2265 30.7954 38.5111C30.8069 37.7957 30.3357 37.4957 29.6992 37.4034C29.4137 37.3725 29.1264 37.3629 28.8395 37.3745H8.89453C8.57573 37.3574 8.25604 37.3794 7.94257 37.4399C7.38678 37.5784 7.05985 37.9457 7.09254 38.5515C7.12139 39.115 7.47717 39.4208 7.98873 39.5131C8.30708 39.5588 8.62904 39.5742 8.9503 39.5592L18.918 39.5708ZM18.8295 43.3094H9.04261C8.7219 43.3006 8.40096 43.3083 8.08104 43.3324C7.50409 43.3901 7.14639 43.7171 7.09062 44.3133C7.03485 44.9094 7.37332 45.2864 7.92911 45.4191C8.27363 45.4859 8.62451 45.5143 8.9753 45.5037C15.5307 45.5037 22.0873 45.5037 28.6453 45.5037C28.964 45.5214 29.2837 45.5 29.5972 45.4402C30.1492 45.3037 30.4973 44.944 30.4511 44.3344C30.4488 44.0742 30.3461 43.8249 30.1644 43.6386C29.9828 43.4523 29.7362 43.3433 29.4761 43.3344C29.1903 43.3089 28.9032 43.3005 28.6164 43.3094H18.8295ZM19.7219 33.6475H30.5646C31.9666 33.6475 32.4608 33.3648 32.4397 32.5801C32.4185 31.8301 31.9358 31.5589 30.605 31.557H8.92915C8.60782 31.5415 8.28575 31.5576 7.96757 31.6051C7.39063 31.7205 7.06754 32.0897 7.10408 32.6917C7.13677 33.2494 7.46563 33.5648 8.0195 33.6186C8.33682 33.6494 8.65798 33.6455 8.98107 33.6455L19.7219 33.6475Z" fill="#2FA0C4"/>
<path d="M50.5106 49.0128C48.0752 49.0128 45.597 49.0128 43.1615 49.0128C41.9651 49.0128 41.1533 48.2009 41.0251 47.1755C40.897 46.4491 41.2815 45.8509 41.6661 45.2955C42.9051 43.4155 44.2297 41.5782 45.5115 39.7409C46.2379 38.7155 47.007 37.7755 47.7333 36.75C47.9042 36.4937 48.0324 36.1518 48.0324 35.8527C48.0752 33.46 48.0324 31.11 48.0752 28.7173C48.0752 28.3327 47.947 28.0764 47.6479 27.8627C47.0497 27.35 46.8788 26.6664 47.1352 25.9827C47.3488 25.4273 47.947 25 48.6733 25C49.9552 25 51.237 25 52.5188 25C53.2452 25 53.8006 25.3845 54.0143 25.94C54.2706 26.6236 54.0997 27.3073 53.587 27.7773C53.2452 28.0764 53.117 28.3755 53.1597 28.8027C53.2024 30.9391 53.2024 33.1182 53.1597 35.2546C53.1597 36.0237 53.3733 36.6218 53.8433 37.2627C55.3815 39.3137 56.9197 41.4073 58.4152 43.5437C59.0134 44.4409 59.5261 45.3809 60.0388 46.3209C60.5088 47.1755 59.6543 48.7991 58.4579 48.9273C58.1161 48.97 57.817 48.97 57.4752 48.97C55.0824 49.0128 52.7752 49.0128 50.5106 49.0128ZM50.5106 47.9446C52.9461 47.9446 55.3815 47.9446 57.7743 47.9446C58.6715 47.9446 59.1843 47.09 58.757 46.2782C58.5433 45.8937 58.3297 45.5091 58.0733 45.1246C56.1933 42.5182 54.2706 39.9118 52.3906 37.3055C52.177 37.0064 51.9633 36.5791 51.9633 36.1946C51.9206 33.3318 51.9633 30.5118 51.9206 27.6491C51.9206 27.2645 52.0061 27.0509 52.4333 27.0509C52.7324 27.0509 52.9461 26.88 52.9461 26.5382C52.9461 26.1964 52.6897 26.0255 52.3906 26.0255C51.1088 26.0255 49.8697 26.0255 48.5879 26.0682C48.417 26.0682 48.1179 26.3673 48.0752 26.5382C47.9897 26.8373 48.2461 27.0082 48.5452 27.0509C48.9724 27.0936 49.0579 27.3073 49.0579 27.6918C49.0579 30.5118 49.0579 33.3318 49.0152 36.1091C49.0152 36.4509 48.887 36.8782 48.6733 37.1773C47.9897 38.16 47.2206 39.1427 46.4942 40.1255C45.0842 42.0909 43.717 44.0991 42.3497 46.0646C42.0506 46.4491 41.9651 46.8764 42.1788 47.3037C42.3924 47.7309 42.8197 47.8591 43.3324 47.8591C45.7252 47.9446 48.1179 47.9446 50.5106 47.9446Z" fill="#2FA0C4"/>
<path d="M50.4675 47.4319C48.2029 47.4319 45.9384 47.4319 43.6738 47.4319C43.5029 47.4319 43.3747 47.4319 43.2038 47.4319C42.7338 47.3892 42.5629 47.1328 42.8193 46.7056C43.332 45.8937 43.8447 45.1247 44.4002 44.3128C45.2975 43.0737 46.1947 41.8346 47.1347 40.5528C47.3911 40.1683 47.7329 39.9974 48.2029 39.9974C49.7411 40.0401 51.2793 40.0401 52.8175 40.0401C53.2875 40.0401 53.5866 40.211 53.8857 40.5528C55.2529 42.4756 56.6202 44.3556 57.9875 46.2783C58.0729 46.3637 58.1157 46.4919 58.1584 46.5774C58.4575 47.1756 58.3293 47.4319 57.6457 47.4319C56.022 47.4319 54.4411 47.4319 52.8175 47.4319C52.0484 47.4319 51.2366 47.4319 50.4675 47.4319Z" fill="#2FA0C4"/>
<path d="M42.7515 0.0385631C44.3189 0.0385631 45.8862 0.0674108 47.4517 0.0270246C48.2479 0.00779313 48.6056 0.236649 48.596 1.10976C48.5536 3.89063 48.5825 6.67343 48.5786 9.45431C48.5786 9.70432 48.6729 10.0312 48.444 10.1736C48.1267 10.3659 47.9248 10.0159 47.7286 9.84471C44.8118 7.29461 41.9053 4.74066 39.0091 2.18287C38.5302 1.75978 38.0321 1.35592 37.5705 0.915519C37.3609 0.713588 36.9032 0.571275 37.0724 0.205876C37.2244 -0.119136 37.6494 0.0385641 37.9552 0.036641C39.5533 0.0231789 41.1534 0.036641 42.7515 0.036641V0.0385631Z" fill="#2FA0C4"/>
<path d="M40.6823 11.962C39.0495 11.962 37.4129 11.9466 35.7859 11.962C35.0955 11.962 34.8244 11.7043 34.8244 11.0004C34.8494 8.15225 34.8244 5.30407 34.8359 2.45396C34.8359 2.23665 34.7609 1.9501 34.9628 1.82702C35.2474 1.65393 35.4244 1.95394 35.6032 2.10972C39.0457 5.12265 42.4836 8.14072 45.9171 11.1639C46.094 11.3197 46.4075 11.4697 46.269 11.7697C46.1306 12.0697 45.8171 11.962 45.5728 11.962C43.9459 11.962 42.315 11.962 40.6823 11.962Z" fill="#2FA0C4"/>
</g>
<defs>
<clipPath id="clip0_7212_41795">
<rect width="60.8091" height="60.8091" fill="white" transform="translate(0.269775 0.269714)"/>
</clipPath>
</defs>
</svg>
