<svg width="62" height="61" viewBox="0 0 62 61" fill="none" xmlns="http://www.w3.org/2000/svg">
<g clip-path="url(#clip0_10305_5194)">
<path d="M14.758 52.9054C17.7989 52.7229 32.5774 52.9054 33.6721 52.9054C33.8545 52.9054 34.3411 52.9662 34.6451 52.6013C34.8276 52.4188 34.8884 52.1147 34.8884 51.689C34.8276 50.2294 34.8276 48.709 34.8884 47.2494C34.8884 46.4588 34.6451 46.0331 33.8545 45.7898C28.6243 44.2085 25.4618 40.8028 24.3671 35.4509C24.1846 34.5387 23.6981 34.2954 22.8467 34.2954C20.6573 34.2954 18.5287 34.2954 16.3392 34.2954C15.7311 34.2954 15.1229 34.3562 15.1229 33.4439C15.1229 32.5317 15.6094 32.5317 16.2784 32.5317C17.1299 32.5925 17.3731 32.1668 17.3731 31.3762C17.3123 29.8557 17.434 28.3353 17.3731 26.8149C17.3123 25.5986 17.7989 25.1728 18.9544 25.2945C19.8666 25.3553 20.8397 25.3553 21.8128 25.2945C22.8467 25.2337 23.2724 25.5986 23.2724 26.6933C23.2116 28.2137 23.2116 29.7341 23.2724 31.2545C23.2724 31.6803 23.0899 32.2884 23.6981 32.4101C24.3671 32.5317 24.3063 31.8627 24.3671 31.437C24.732 28.8219 25.8267 26.5716 27.4079 24.5039C28.2594 23.4092 27.8945 22.0104 27.712 20.7332C27.5904 20.125 26.9214 20.3075 26.4349 20.3075C25.8267 20.3075 25.7051 20.7332 25.7051 21.2197C25.7051 22.4361 25.7051 23.6524 25.7051 24.8688C25.7051 25.4769 25.7659 26.2067 24.8536 26.2067C23.8805 26.2067 23.8805 25.5377 23.8805 24.9296C23.8805 23.1659 23.8805 21.4022 23.8805 19.6385C23.8805 18.7871 24.2455 18.4222 25.0969 18.4222C26.1308 18.483 27.1647 18.483 28.1985 18.4222C29.5365 18.3005 29.8406 18.9087 29.7798 20.0642C29.7798 20.6724 29.6582 21.2806 29.9622 21.9495C30.4488 21.5238 30.2663 21.0373 30.2663 20.6116C30.2663 18.3005 30.3271 15.9287 30.2663 13.6176C30.2663 12.6446 30.5704 12.2188 31.6043 12.2188C32.699 12.2797 33.7937 12.2797 34.8276 12.2188C35.7399 12.158 36.1048 12.5837 36.1048 13.496C36.0439 15.138 36.1656 16.7193 36.1048 18.3613C36.0439 19.4561 36.4088 19.821 37.5644 19.8818C43.4636 20.0642 48.2681 23.5916 49.971 29.0043C51.1874 32.8966 50.7008 36.5456 48.5722 40.0122C48.2681 40.4987 47.9641 40.9853 47.66 41.4718C45.7138 43.4179 43.5244 45.06 40.7268 45.729C40.1187 45.9114 39.8754 46.2155 39.8754 46.8845C39.8754 48.4657 39.8754 50.047 39.8754 51.6282C39.8754 52.4188 40.1795 52.7837 40.9701 52.7229C42.2473 52.6621 43.5852 52.7229 44.8624 52.7229C46.7477 52.6621 47.5383 51.8715 47.5383 49.9862C47.5383 47.1278 47.5992 44.3302 47.5992 41.4718C48.8155 41.2893 49.4237 41.7151 49.3628 43.1138C49.2412 45.4857 49.3628 47.8576 49.302 50.2902C49.302 52.8446 47.7208 54.4258 45.1665 54.4866C43.8285 54.5474 42.4905 54.5474 41.0917 54.4866C40.6052 54.4866 40.3011 54.5474 40.0579 54.7299C39.7538 55.034 39.7538 55.4597 39.7538 55.8246C39.693 57.9532 39.997 58.6222 39.6321 59.352C39.5105 59.5952 39.2672 59.9601 38.7199 60.325C38.4766 60.4467 38.0509 60.5683 37.5035 60.5683C37.017 60.5683 36.6521 60.4467 36.4088 60.325C35.8007 60.0818 35.4966 59.7169 35.375 59.4736C35.01 58.8654 35.01 58.3181 35.0709 56.1287C35.1317 54.7907 34.6451 54.4258 33.368 54.4258C27.4079 54.4866 21.5087 54.365 15.5486 54.4258C15.427 54.4258 15.0621 54.4258 14.5756 54.4258C13.6633 54.4258 13.2984 54.365 13.1768 54.365C12.6294 54.3042 12.3861 54.2433 12.0821 54.1825C11.1698 53.8176 10.8049 52.9054 10.6833 52.7837C10.5008 52.4188 10.5008 50.5943 10.44 48.8306C10.44 48.2225 10.44 36.3023 10.5008 35.4509C10.6833 31.437 10.6225 12.7662 10.44 6.31959C10.44 5.77224 10.3792 4.13018 11.4131 2.85303C11.5347 2.73139 12.0821 2.00159 13.1768 1.51506C18.5287 -0.917622 40.8485 -0.735171 46.3828 1.51506C47.5992 2.00159 48.1465 2.60976 48.3898 2.97466C48.9371 3.76528 49.1196 4.61672 49.2412 5.95469C49.4237 8.20492 49.2412 9.90779 49.2412 10.2727C48.8155 15.0772 49.1196 21.5238 49.2412 22.4361C49.302 22.801 49.2412 22.9834 49.2412 23.4092C49.1804 23.8349 49.1196 23.9565 48.9979 24.0781C48.8155 24.2606 48.5722 24.2606 48.4506 24.2606C48.329 24.2606 48.0249 24.2606 47.7816 24.0781C47.5383 23.8957 47.5383 23.5308 47.5383 23.4092C47.4775 21.463 47.2343 13.0095 47.5383 5.83306C47.5383 5.40734 47.5992 4.43427 46.9302 3.76528C46.2612 3.0963 45.2273 3.15711 44.9232 3.21793C42.2473 3.33956 15.9743 3.21793 14.9405 3.21793C14.5756 3.21793 13.5417 3.21793 12.8727 3.88692C12.3253 4.49509 12.3253 5.28571 12.3253 5.58979C12.2645 25.2337 12.2645 35.086 12.2645 35.5725C12.3253 37.3362 12.1429 41.411 12.1429 44.8167C12.1429 47.6143 12.2645 49.9253 12.2645 50.5335C12.3253 51.5066 12.3861 51.8107 12.5686 52.1147C13.0551 53.027 14.3323 52.9662 14.758 52.9054ZM37.1995 44.5734C43.4636 44.5734 48.5114 39.5256 48.5722 33.2615C48.633 27.0582 43.342 21.7671 37.1386 21.7671C30.9353 21.8279 25.8267 26.9365 25.8267 33.2007C25.8267 39.5256 30.8745 44.5734 37.1995 44.5734ZM34.037 17.3883C34.037 16.6585 33.9762 15.9287 34.037 15.2597C34.0978 14.4082 33.6113 14.2258 32.8815 14.2258C32.2125 14.2258 31.7868 14.4082 31.7868 15.1989C31.7868 16.9626 31.7868 18.6654 31.7868 20.4291C31.7868 21.0981 32.03 21.1589 32.6382 20.9765C33.6721 20.6724 34.2802 20.1859 34.0978 19.0303C33.9762 18.483 34.037 17.9356 34.037 17.3883ZM19.076 29.8557C19.076 30.4639 19.076 31.0113 19.076 31.6194C19.0152 32.4709 19.4409 32.6533 20.2315 32.7141C21.0222 32.7141 21.3871 32.4709 21.3871 31.6194C21.3871 30.5247 21.3262 29.4908 21.3871 28.3961C21.3871 27.5447 21.1438 27.1798 20.2315 27.1798C19.3193 27.1798 19.0152 27.5447 19.076 28.3961C19.076 28.8827 19.076 29.3692 19.076 29.8557ZM37.8076 54.0609C37.8076 52.7229 37.8076 51.3849 37.8076 50.047C37.8076 49.6821 37.8684 49.1955 37.2603 49.1347C36.6521 49.0739 36.6521 49.6213 36.6521 50.047C36.6521 52.7229 36.6521 55.3989 36.6521 58.1356C36.6521 58.5613 36.6521 59.1087 37.3211 59.1087C37.8684 59.0479 37.8684 58.5613 37.8684 58.1964C37.8076 56.7977 37.8076 55.3989 37.8076 54.0609Z" fill="#1C2C87"/>
<path d="M26.6782 5.77224C28.9892 5.77224 31.3611 5.77224 33.6721 5.77224C34.2195 5.77224 34.9493 5.65061 34.9493 6.50205C35.0101 7.47512 34.2803 7.47512 33.6721 7.47512C28.8676 7.47512 24.063 7.47512 19.2585 7.47512C18.6503 7.47512 18.0421 7.4143 18.103 6.56286C18.103 5.65061 18.8328 5.77224 19.3801 5.77224C21.8128 5.77224 24.2455 5.77224 26.6782 5.77224Z" fill="#1C2C87"/>
<path d="M50.2752 14.165C50.2752 12.0364 50.2752 9.96864 50.2752 7.84005C50.2752 7.23188 50.2143 6.50208 51.1874 6.50208C52.1605 6.50208 52.0389 7.23188 52.0389 7.84005C52.0389 12.0972 52.0389 16.3544 52.0389 20.6116C52.0389 21.159 52.1605 21.8279 51.2482 21.8888C50.2752 21.9496 50.2752 21.2806 50.2752 20.6116C50.2752 18.483 50.2752 16.2936 50.2752 14.165Z" fill="#1C2C87"/>
<path d="M23.4548 10.516C22.056 10.516 20.6572 10.516 19.2584 10.516C18.5894 10.516 18.1029 10.3944 18.1029 9.54294C18.1637 8.75232 18.7111 8.75232 19.2584 8.75232C22.056 8.75232 24.8536 8.75232 27.5903 8.75232C28.1985 8.75232 28.6851 8.87395 28.6851 9.60376C28.6851 10.3336 28.1985 10.4552 27.5903 10.4552C26.1916 10.516 24.8536 10.516 23.4548 10.516Z" fill="#1C2C87"/>
<path d="M25.6443 55.5205C27.7121 55.5205 29.7798 55.5205 31.8476 55.5205C32.4558 55.5205 33.0639 55.5205 33.0639 56.372C33.0639 57.2234 32.4558 57.2234 31.8476 57.2234C27.7121 57.2234 23.5765 57.2234 19.441 57.2234C18.772 57.2234 18.103 57.2234 18.1638 56.2503C18.2246 55.3381 18.8936 55.5205 19.441 55.4597C21.5087 55.5205 23.5765 55.5205 25.6443 55.5205Z" fill="#1C2C87"/>
<path d="M37.1388 43.5395C31.1787 43.5395 26.435 38.735 26.4958 32.7749C26.4958 26.8757 31.3612 22.0712 37.2604 22.0712C43.0988 22.0712 47.9642 27.0582 47.9642 32.8966C47.9642 38.735 43.038 43.5395 37.1388 43.5395ZM35.8616 31.9843C36.5306 31.4978 36.4698 30.8896 36.409 30.2815C36.3482 29.43 36.3482 28.5786 36.2873 27.7271C36.2265 26.5716 36.5914 25.9635 37.8686 26.0851C38.9633 26.2067 39.9972 26.1459 41.0919 26.0851C41.8217 26.0851 42.1866 26.45 42.1866 27.119C42.1866 28.2745 42.2474 29.4908 42.1866 30.6464C42.1258 31.6802 42.3082 32.41 43.5854 32.2884C44.0719 32.2276 44.3152 32.5317 44.376 33.0182C44.376 33.5656 44.1935 33.8697 43.6462 33.9305C43.2205 33.9913 42.8556 33.9913 42.4299 33.9913C38.1727 33.9913 33.8547 34.0521 29.5975 33.9913C28.3811 33.9913 28.2595 34.417 28.5636 35.4509C30.0232 40.6812 36.1049 43.3571 41.0919 40.9244C44.9234 39.0999 46.8695 34.8427 45.8964 30.6464C44.9842 26.6933 41.2743 23.774 37.2604 23.8349C36.7131 23.8349 35.9224 23.6524 35.8616 24.5038C35.8008 26.9973 35.8616 29.4908 35.8616 31.9843ZM34.0371 28.2137C34.0371 27.2406 34.0371 26.2067 34.0371 25.2336C34.0371 24.9296 34.0371 24.443 33.6114 24.6255C32.8208 24.9296 31.7869 25.1728 31.7869 26.3284C31.7869 27.9704 31.7869 29.6733 31.7869 31.3153C31.7869 32.1668 32.2734 32.2276 32.9424 32.2276C33.6114 32.2276 34.0979 32.106 34.0979 31.2545C34.0371 30.2815 34.0371 29.2476 34.0371 28.2137ZM40.4837 30.1598C40.4837 29.6733 40.4837 29.1867 40.4837 28.7002C40.4837 28.2745 40.3013 27.8488 39.8147 27.8488C39.2066 27.8488 38.4159 27.5447 38.1727 28.5786C37.8078 30.099 38.1727 32.106 38.8417 32.2276C38.9025 32.2276 38.9025 32.2276 38.9633 32.2276C40.3013 32.4709 40.4837 32.1668 40.4837 30.1598Z" fill="#1C2C87"/>
<path d="M35.9831 40.5595C34.5235 40.3771 33.0639 39.7081 31.8476 38.4917C31.5435 38.1876 31.2394 37.8836 31.6651 37.4578C32.03 37.0929 32.3949 36.728 32.9423 37.1538C33.9762 38.1268 35.2533 38.6742 36.6521 38.8566C37.1995 38.9174 37.3819 39.3432 37.3211 39.8297C37.2603 40.5595 36.7738 40.5595 35.9831 40.5595Z" fill="#1C2C87"/>
</g>
<defs>
<clipPath id="clip0_10305_5194">
<rect width="60.8091" height="60.8091" fill="white" transform="translate(0.708862 0.0279541)"/>
</clipPath>
</defs>
</svg>
