<svg width="62" height="62" viewBox="0 0 62 62" fill="none" xmlns="http://www.w3.org/2000/svg">
<g clip-path="url(#clip0_10305_5194)">
<path d="M14.3187 53.1471C17.3595 52.9646 32.138 53.1471 33.2327 53.1471C33.4152 53.1471 33.9017 53.2079 34.2058 52.843C34.3883 52.6605 34.4491 52.3564 34.4491 51.9307C34.3883 50.4711 34.3883 48.9507 34.4491 47.4911C34.4491 46.7005 34.2058 46.2748 33.4152 46.0315C28.1849 44.4502 25.0225 41.0445 23.9278 35.6926C23.7453 34.7804 23.2588 34.5371 22.4073 34.5371C20.2179 34.5371 18.0893 34.5371 15.8999 34.5371C15.2917 34.5371 14.6836 34.5979 14.6836 33.6856C14.6836 32.7734 15.1701 32.7734 15.8391 32.7734C16.6905 32.8342 16.9338 32.4085 16.9338 31.6179C16.873 30.0974 16.9946 28.577 16.9338 27.0566C16.873 25.8403 17.3595 25.4145 18.515 25.5362C19.4273 25.597 20.4004 25.597 21.3734 25.5362C22.4073 25.4754 22.833 25.8403 22.833 26.935C22.7722 28.4554 22.7722 29.9758 22.833 31.4962C22.833 31.922 22.6506 32.5301 23.2588 32.6518C23.9278 32.7734 23.8669 32.1044 23.9278 31.6787C24.2927 29.0636 25.3874 26.8133 26.9686 24.7456C27.82 23.6509 27.4551 22.2521 27.2727 20.9749C27.1511 20.3667 26.4821 20.5492 25.9955 20.5492C25.3874 20.5492 25.2657 20.9749 25.2657 21.4614C25.2657 22.6778 25.2657 23.8941 25.2657 25.1105C25.2657 25.7186 25.3265 26.4484 24.4143 26.4484C23.4412 26.4484 23.4412 25.7794 23.4412 25.1713C23.4412 23.4076 23.4412 21.6439 23.4412 19.8802C23.4412 19.0288 23.8061 18.6639 24.6576 18.6639C25.6914 18.7247 26.7253 18.7247 27.7592 18.6639C29.0972 18.5422 29.4013 19.1504 29.3405 20.3059C29.3405 20.9141 29.2188 21.5223 29.5229 22.1912C30.0094 21.7655 29.827 21.279 29.827 20.8533C29.827 18.5422 29.8878 16.1704 29.827 13.8593C29.827 12.8863 30.1311 12.4605 31.165 12.4605C32.2597 12.5214 33.3544 12.5214 34.3883 12.4605C35.3005 12.3997 35.6654 12.8254 35.6654 13.7377C35.6046 15.3797 35.7262 16.961 35.6654 18.603C35.6046 19.6978 35.9695 20.0627 37.125 20.1235C43.0243 20.3059 47.8288 23.8333 49.5317 29.246C50.748 33.1383 50.2615 36.7873 48.1329 40.2539C47.8288 40.7404 47.5247 41.227 47.2206 41.7135C45.2745 43.6596 43.0851 45.3017 40.2875 45.9707C39.6793 46.1531 39.4361 46.4572 39.4361 47.1262C39.4361 48.7074 39.4361 50.2887 39.4361 51.8699C39.4361 52.6605 39.7402 53.0254 40.5308 52.9646C41.8079 52.9038 43.1459 52.9646 44.4231 52.9646C46.3084 52.9038 47.099 52.1132 47.099 50.2279C47.099 47.3695 47.1598 44.5719 47.1598 41.7135C48.3762 41.531 48.9843 41.9568 48.9235 43.3555C48.8019 45.7274 48.9235 48.0993 48.8627 50.5319C48.8627 53.0863 47.2815 54.6675 44.7271 54.7283C43.3892 54.7891 42.0512 54.7891 40.6524 54.7283C40.1659 54.7283 39.8618 54.7891 39.6185 54.9716C39.3144 55.2757 39.3144 55.7014 39.3144 56.0663C39.2536 58.1949 39.5577 58.8639 39.1928 59.5937C39.0712 59.8369 38.8279 60.2018 38.2806 60.5667C38.0373 60.6884 37.6116 60.81 37.0642 60.81C36.5777 60.81 36.2128 60.6884 35.9695 60.5667C35.3613 60.3235 35.0573 59.9586 34.9356 59.7153C34.5707 59.1071 34.5707 58.5598 34.6315 56.3704C34.6924 55.0324 34.2058 54.6675 32.9287 54.6675C26.9686 54.7283 21.0694 54.6067 15.1093 54.6675C14.9877 54.6675 14.6228 54.6675 14.1362 54.6675C13.224 54.6675 12.8591 54.6067 12.7374 54.6067C12.1901 54.5459 11.9468 54.485 11.6427 54.4242C10.7305 54.0593 10.3656 53.1471 10.2439 53.0254C10.0615 52.6605 10.0615 50.836 10.0007 49.0723C10.0007 48.4642 10.0007 36.544 10.0615 35.6926C10.2439 31.6787 10.1831 13.0079 10.0007 6.56129C10.0007 6.01394 9.93986 4.37188 10.9737 3.09473C11.0954 2.97309 11.6427 2.24329 12.7374 1.75675C18.0893 -0.675923 40.4091 -0.493472 45.9435 1.75675C47.1598 2.24329 47.7072 2.85146 47.9504 3.21636C48.4978 4.00698 48.6802 4.85842 48.8019 6.19639C48.9843 8.44662 48.8019 10.1495 48.8019 10.5144C48.3762 15.3189 48.6802 21.7655 48.8019 22.6778C48.8627 23.0427 48.8019 23.2251 48.8019 23.6509C48.7411 24.0766 48.6802 24.1982 48.5586 24.3198C48.3762 24.5023 48.1329 24.5023 48.0113 24.5023C47.8896 24.5023 47.5855 24.5023 47.3423 24.3198C47.099 24.1374 47.099 23.7725 47.099 23.6509C47.0382 21.7047 46.7949 13.2512 47.099 6.07476C47.099 5.64904 47.1598 4.67597 46.4908 4.00698C45.8219 3.338 44.788 3.39881 44.4839 3.45963C41.8079 3.58126 15.535 3.45963 14.5011 3.45963C14.1362 3.45963 13.1023 3.45963 12.4334 4.12862C11.886 4.73679 11.886 5.52741 11.886 5.83149C11.8252 25.4754 11.8252 35.3277 11.8252 35.8142C11.886 37.5779 11.7035 41.6527 11.7035 45.0584C11.7035 47.856 11.8252 50.167 11.8252 50.7752C11.886 51.7483 11.9468 52.0524 12.1293 52.3565C12.6158 53.2687 13.893 53.2079 14.3187 53.1471ZM36.7601 44.8151C43.0243 44.8151 48.0721 39.7673 48.1329 33.5032C48.1937 27.2999 42.9026 22.0088 36.6993 22.0088C30.496 22.0696 25.3874 27.1782 25.3874 33.4424C25.3874 39.7673 30.4352 44.8151 36.7601 44.8151ZM33.5976 17.63C33.5976 16.9002 33.5368 16.1704 33.5976 15.5014C33.6585 14.6499 33.1719 14.4675 32.4421 14.4675C31.7731 14.4675 31.3474 14.6499 31.3474 15.4406C31.3474 17.2043 31.3474 18.9071 31.3474 20.6708C31.3474 21.3398 31.5907 21.4006 32.1989 21.2182C33.2327 20.9141 33.8409 20.4276 33.6585 19.272C33.5368 18.7247 33.5976 18.1773 33.5976 17.63ZM18.6367 30.0974C18.6367 30.7056 18.6367 31.253 18.6367 31.8611C18.5759 32.7126 19.0016 32.895 19.7922 32.9558C20.5828 32.9558 20.9477 32.7126 20.9477 31.8611C20.9477 30.7664 20.8869 29.7325 20.9477 28.6378C20.9477 27.7864 20.7045 27.4215 19.7922 27.4215C18.8799 27.4215 18.5759 27.7864 18.6367 28.6378C18.6367 29.1244 18.6367 29.6109 18.6367 30.0974ZM37.3683 54.3026C37.3683 52.9646 37.3683 51.6266 37.3683 50.2887C37.3683 49.9238 37.4291 49.4372 36.8209 49.3764C36.2128 49.3156 36.2128 49.863 36.2128 50.2887C36.2128 52.9646 36.2128 55.6406 36.2128 58.3773C36.2128 58.803 36.2128 59.3504 36.8818 59.3504C37.4291 59.2896 37.4291 58.803 37.4291 58.4381C37.3683 57.0394 37.3683 55.6406 37.3683 54.3026Z" fill="#1C2C87"/>
<path d="M26.2391 6.01394C28.5501 6.01394 30.922 6.01394 33.233 6.01394C33.7804 6.01394 34.5102 5.89231 34.5102 6.74374C34.571 7.71682 33.8412 7.71681 33.233 7.71681C28.4285 7.71681 23.6239 7.71681 18.8194 7.71681C18.2112 7.71681 17.6031 7.656 17.6639 6.80456C17.6639 5.89231 18.3937 6.01394 18.941 6.01394C21.3737 6.01394 23.8064 6.01394 26.2391 6.01394Z" fill="#1C2C87"/>
<path d="M49.8357 14.4067C49.8357 12.2781 49.8357 10.2103 49.8357 8.08175C49.8357 7.47358 49.7749 6.74377 50.748 6.74377C51.721 6.74377 51.5994 7.47358 51.5994 8.08175C51.5994 12.3389 51.5994 16.5961 51.5994 20.8533C51.5994 21.4007 51.721 22.0696 50.8088 22.1305C49.8357 22.1913 49.8357 21.5223 49.8357 20.8533C49.8357 18.7247 49.8357 16.5353 49.8357 14.4067Z" fill="#1C2C87"/>
<path d="M23.0155 10.7577C21.6167 10.7577 20.2179 10.7577 18.8191 10.7577C18.1501 10.7577 17.6636 10.6361 17.6636 9.78464C17.7244 8.99402 18.2717 8.99402 18.8191 8.99402C21.6167 8.99402 24.4143 8.99402 27.151 8.99402C27.7592 8.99402 28.2457 9.11565 28.2457 9.84546C28.2457 10.5753 27.7592 10.6969 27.151 10.6969C25.7522 10.7577 24.4143 10.7577 23.0155 10.7577Z" fill="#1C2C87"/>
<path d="M25.205 55.7622C27.2728 55.7622 29.3406 55.7622 31.4084 55.7622C32.0165 55.7622 32.6247 55.7622 32.6247 56.6137C32.6247 57.4651 32.0165 57.4651 31.4084 57.4651C27.2728 57.4651 23.1373 57.4651 19.0017 57.4651C18.3327 57.4651 17.6637 57.4651 17.7246 56.492C17.7854 55.5798 18.4544 55.7622 19.0017 55.7014C21.0695 55.7622 23.1373 55.7622 25.205 55.7622Z" fill="#1C2C87"/>
<path d="M36.6992 43.7812C30.7391 43.7812 25.9954 38.9767 26.0562 33.0166C26.0562 27.1174 30.9216 22.3129 36.8208 22.3129C42.6593 22.3129 47.5246 27.2999 47.5246 33.1383C47.5246 38.9767 42.5984 43.7812 36.6992 43.7812ZM35.4221 32.226C36.091 31.7395 36.0302 31.1313 35.9694 30.5232C35.9086 29.6717 35.9086 28.8203 35.8478 27.9688C35.787 26.8133 36.1519 26.2051 37.429 26.3268C38.5237 26.4484 39.5576 26.3876 40.6523 26.3268C41.3821 26.3268 41.747 26.6917 41.747 27.3607C41.747 28.5162 41.8078 29.7325 41.747 30.8881C41.6862 31.9219 41.8686 32.6517 43.1458 32.5301C43.6323 32.4693 43.8756 32.7734 43.9364 33.2599C43.9364 33.8073 43.754 34.1114 43.2066 34.1722C42.7809 34.233 42.416 34.233 41.9903 34.233C37.7331 34.233 33.4151 34.2938 29.1579 34.233C27.9416 34.233 27.8199 34.6587 28.124 35.6926C29.5836 40.9228 35.6653 43.5988 40.6523 41.1661C44.4838 39.3416 46.4299 35.0844 45.4568 30.8881C44.5446 26.935 40.8348 24.0157 36.8208 24.0766C36.2735 24.0766 35.4829 23.8941 35.4221 24.7455C35.3612 27.239 35.4221 29.7325 35.4221 32.226ZM33.5975 28.4554C33.5975 27.4823 33.5975 26.4484 33.5975 25.4753C33.5975 25.1713 33.5975 24.6847 33.1718 24.8672C32.3812 25.1713 31.3473 25.4145 31.3473 26.5701C31.3473 28.2121 31.3473 29.915 31.3473 31.557C31.3473 32.4085 31.8339 32.4693 32.5028 32.4693C33.1718 32.4693 33.6584 32.3477 33.6584 31.4962C33.5975 30.5232 33.5975 29.4893 33.5975 28.4554ZM40.0441 30.4015C40.0441 29.915 40.0441 29.4284 40.0441 28.9419C40.0441 28.5162 39.8617 28.0905 39.3752 28.0905C38.767 28.0905 37.9764 27.7864 37.7331 28.8203C37.3682 30.3407 37.7331 32.3477 38.4021 32.4693C38.4629 32.4693 38.4629 32.4693 38.5237 32.4693C39.8617 32.7126 40.0441 32.4085 40.0441 30.4015Z" fill="#1C2C87"/>
<path d="M35.5438 40.8012C34.0841 40.6188 32.6245 39.9498 31.4082 38.7334C31.1041 38.4293 30.8 38.1253 31.2257 37.6995C31.5906 37.3346 31.9556 36.9697 32.5029 37.3955C33.5368 38.3685 34.8139 38.9159 36.2127 39.0983C36.7601 39.1591 36.9425 39.5849 36.8817 40.0714C36.8209 40.8012 36.3344 40.8012 35.5438 40.8012Z" fill="#1C2C87"/>
</g>
<defs>
<clipPath id="clip0_10305_5194">
<rect width="60.8091" height="60.8091" fill="white" transform="translate(0.269531 0.269653)"/>
</clipPath>
</defs>
</svg>
