<svg width="62" height="62" viewBox="0 0 62 62" fill="none" xmlns="http://www.w3.org/2000/svg">
<g clip-path="url(#clip0_11868_1694)">
<path d="M45.9928 28.1165C41.6195 28.1165 37.2438 28.1165 32.8706 28.1165C31.1303 28.1165 30.7026 27.6689 30.7026 25.8789C30.7026 18.0374 30.7026 10.1967 30.7026 2.35692C30.7026 0.529564 31.2322 0.0024862 33.0645 0C41.6502 0 50.2342 0 58.8166 0C60.639 0 61.263 0.621546 61.2655 2.46631C61.2755 10.3078 61.2755 18.1484 61.2655 25.9883C61.2655 27.6615 60.8006 28.104 59.1149 28.1065C54.7409 28.1198 50.3668 28.1231 45.9928 28.1165ZM45.953 13.0128C43.4394 13.0128 40.9259 13.0128 38.4124 13.0128C37.582 13.0128 36.58 12.9382 36.585 14.1216C36.585 15.2628 37.5795 15.2454 38.4099 15.3051C38.6137 15.32 38.8226 15.2802 39.0289 15.2802C41.003 15.2802 42.977 15.2951 44.9511 15.2951C47.9967 15.2951 51.0423 15.2951 54.0878 15.2702C54.7541 15.2702 55.3633 14.962 55.3981 14.2211C55.4329 13.423 54.871 13.0675 54.1177 13.0227C53.8293 13.0028 53.5409 13.0103 53.25 13.0103L45.953 13.0128ZM45.8933 20.7747C48.3613 20.7747 50.8309 20.7747 53.3022 20.7747C53.7522 20.7747 54.2122 20.817 54.6398 20.6106C55.137 20.3769 55.4379 20.0139 55.3856 19.4496C55.3334 18.8852 54.9456 18.6863 54.4558 18.6241C53.9677 18.5464 53.4754 18.4983 52.9815 18.4799C49.1925 18.4799 45.4035 18.4799 41.6146 18.4799C40.3392 18.4799 39.0613 18.4799 37.7858 18.4973C37.0922 18.5123 36.58 18.823 36.5576 19.5987C36.5353 20.3744 37.0698 20.6678 37.7411 20.7523C38.1106 20.7847 38.4817 20.7946 38.8524 20.7822L45.8933 20.7747ZM43.7676 7.57546C41.8334 7.57546 39.8966 7.57546 37.9599 7.57546C37.1668 7.57546 36.5552 7.86137 36.5676 8.76883C36.5676 9.61165 37.2115 9.66635 37.8728 9.72353C41.6519 10.0567 45.4384 9.70116 49.2174 9.86028C50.003 9.8926 50.7762 9.74839 50.7663 8.71413C50.7563 7.67987 49.9956 7.57545 49.205 7.57297C47.3851 7.56054 45.5776 7.56551 43.7651 7.568L43.7676 7.57546Z" fill="#375DE4"/>
<path d="M45.8685 60.8025C41.5773 60.8025 37.287 60.8025 32.9974 60.8025C31.1527 60.8025 30.7027 60.3674 30.7002 58.5649C30.7002 50.7267 30.7002 42.8886 30.7002 35.0504C30.7002 33.2031 31.1974 32.7034 33.0546 32.7009C41.6337 32.691 50.2144 32.691 58.7968 32.7009C60.6316 32.7009 61.2606 33.3299 61.2631 35.1598C61.273 42.9996 61.273 50.8386 61.2631 58.6768C61.2631 60.3326 60.7783 60.7925 59.11 60.795C54.6962 60.8099 50.2823 60.8124 45.8685 60.8025ZM45.8685 53.4582V53.4433C48.5064 53.4433 51.1467 53.4657 53.7871 53.4259C54.5329 53.4259 55.423 53.2718 55.3907 52.2798C55.3559 51.243 54.4708 51.1635 53.6503 51.1635C53.4862 51.1635 53.3221 51.1908 53.1531 51.1908C50.3561 51.2057 47.5566 51.2903 44.7622 51.2057C42.3704 51.1361 39.9862 51.1809 37.5969 51.2555C36.9903 51.2729 36.5751 51.5861 36.5527 52.2499C36.5243 52.5221 36.6029 52.7946 36.7718 53.0098C36.9407 53.2251 37.1866 53.3663 37.4577 53.4035C37.8235 53.461 38.1942 53.481 38.564 53.4632C41.0005 53.4698 43.4353 53.4715 45.8685 53.4682V53.4582ZM45.7865 48.0085C48.4666 48.0085 51.1467 48.0085 53.8293 48.0085C54.6373 48.0085 55.4056 47.7599 55.3882 46.8101C55.3733 45.9226 54.6423 45.7833 53.8641 45.7833C48.6779 45.7833 43.4917 45.7386 38.3055 45.7212C37.49 45.7212 36.6149 45.8107 36.5801 46.8623C36.5428 47.9637 37.4204 48.0159 38.2433 48.0159L45.7865 48.0085ZM43.8621 40.3435C41.8458 40.4654 39.8246 40.1446 37.8082 40.2789C37.1419 40.3236 36.5651 40.5723 36.5651 41.3703C36.5651 42.2181 37.1022 42.5264 37.8505 42.5438C38.845 42.5662 39.8395 42.5438 40.819 42.5438C43.621 42.5438 46.4254 42.5438 49.2274 42.5438C50.023 42.5438 50.7713 42.4021 50.7763 41.3778C50.7812 40.3535 50.0553 40.3311 49.3069 40.3336C47.4895 40.3584 45.6771 40.3535 43.8621 40.3535V40.3435Z" fill="#375DE4"/>
<path d="M21.7324 41.7906C21.009 41.7906 20.5291 41.2933 19.9797 40.9453C18.657 40.1099 17.946 40.4058 17.6675 41.9397C17.3045 43.9138 16.9888 44.1773 14.9725 44.1773H13.6125C11.7056 44.1624 11.4147 43.9287 11.0691 42.0939C10.7409 40.3535 10.0746 40.085 8.63015 41.0522C7.08125 42.0839 6.68346 42.0466 5.34091 40.7091L4.6398 40.008C2.86714 38.2328 2.86714 38.2154 4.22212 36.0549C4.89339 34.9858 4.58262 34.2947 3.31466 34.0535C1.23868 33.6557 1.00497 33.3773 1 31.2864C1 30.8737 1 30.4593 1 30.0433C1 28.0543 1.23122 27.8057 3.15305 27.4203C4.75168 27.1071 5.06743 26.3761 4.19229 25.0112C3.02626 23.1938 3.04117 23.0695 4.55527 21.5504L5.16936 20.9363C6.92213 19.196 6.92213 19.196 9.08015 20.4391C10.1741 21.083 10.8976 20.7598 11.1213 19.5291C11.5241 17.3089 11.7653 17.1076 14.0327 17.1001H15.1465C17.1205 17.1001 17.3841 17.3363 17.7421 19.2706C18.023 20.8393 18.7987 21.1601 20.1736 20.265C21.8766 19.1661 22.1626 19.1935 23.5673 20.5907L24.2684 21.2918C26.041 23.067 26.041 23.067 24.6736 25.2349C24.0048 26.2941 24.2957 27.0051 25.5314 27.301C25.8919 27.388 26.2623 27.4203 26.6253 27.4974C27.4059 27.659 27.8684 28.0966 27.8684 28.9444C27.8684 29.9761 27.8684 31.0079 27.8684 32.0397C27.8684 33.0192 27.3711 33.5737 26.4388 33.78C26.0361 33.8646 25.6283 33.9367 25.233 34.051C24.3131 34.317 24.0222 35.0082 24.4623 35.8386C25.8023 38.372 25.8073 38.377 23.7363 40.4256C23.1521 41.0074 22.6598 41.7259 21.7324 41.7906ZM20.1239 30.7195C20.099 27.4303 17.5009 24.872 14.2713 24.9565C11.1536 25.0385 8.5133 27.7634 8.57049 30.8388C8.61728 32.3632 9.24742 33.8114 10.3309 34.8847C11.4143 35.958 12.8684 36.5744 14.3932 36.6068C17.6203 36.6118 20.1487 34.0137 20.1239 30.7195Z" fill="#375DE4"/>
<path d="M21.245 8.23425C23.2638 8.23425 25.2801 8.25911 27.2989 8.23425C28.3853 8.21436 28.5842 8.80359 28.5793 9.72597C28.5743 10.6484 28.4127 11.2401 27.3113 11.2301C24.0171 11.2028 20.7204 11.2624 17.4262 11.2053C16.2949 11.1854 15.8076 11.5533 15.9668 12.697C15.9844 12.9453 15.9844 13.1945 15.9668 13.4428C15.9518 14.8625 14.9449 15.489 13.5974 14.9346C13.4424 14.8765 13.3112 14.7685 13.2243 14.6276C13.1374 14.4867 13.0999 14.321 13.1176 14.1564C13.1176 12.6647 13.0753 11.1903 13.1325 9.71106C13.1748 8.59973 14.0027 8.28646 14.9424 8.27403C17.0408 8.24668 19.1416 8.27403 21.2425 8.27403L21.245 8.23425Z" fill="#375DE4"/>
<path d="M21.0312 53.1227C18.9727 53.1227 16.9141 53.1376 14.8555 53.1227C13.4906 53.1102 12.9809 52.6254 12.9287 51.2779C12.879 50.0348 12.9088 48.8091 12.9138 47.5735C12.9138 46.0047 14.1569 46.6561 14.9202 46.492C15.7456 46.3154 15.845 46.9096 15.8873 47.5436C16.0713 50.2536 16.0787 50.2561 18.8409 50.261C21.6428 50.261 24.4423 50.2983 27.2418 50.2486C28.3009 50.2287 28.5818 50.6812 28.5843 51.6533C28.5868 52.6254 28.3581 53.1873 27.207 53.145C25.1509 53.0729 23.0898 53.1227 21.0312 53.1227Z" fill="#375DE4"/>
</g>
<defs>
<clipPath id="clip0_11868_1694">
<rect width="60.8091" height="60.8091" fill="white" transform="translate(0.269531 0.269653)"/>
</clipPath>
</defs>
</svg>
