<svg width="47" height="47" viewBox="0 0 47 47" fill="none" xmlns="http://www.w3.org/2000/svg">
<path d="M2.00195 25.0678V15.0614C2.00195 14.5279 2.06348 14.4643 2.61389 14.4636C5.19395 14.4636 7.774 14.4846 10.3541 14.4499C13.0664 14.4138 15.2687 12.2188 15.3819 9.54151C15.4904 6.88522 15.4017 4.22631 15.4328 1.572C15.4394 1.03785 15.4665 1.00242 15.9865 1.00242C20.0881 1.00242 24.1898 0.995201 28.2914 1.0057C29.9453 1.01029 31.2955 1.68683 32.3566 2.93754C32.4321 3.02679 32.569 3.12522 32.5247 3.23808C32.4671 3.38638 32.2918 3.32076 32.1681 3.32076C28.5739 3.3247 24.979 3.34898 21.3848 3.30961C20.1728 3.29648 19.0383 4.20925 19.0482 5.65289C19.0654 8.17859 19.0528 10.7056 19.0528 13.2313C19.0528 14.669 19.9704 15.5877 21.4278 15.5897C25.2763 15.5936 29.1241 15.5936 32.9712 15.5897C33.5402 15.5897 33.5402 15.5897 33.5402 16.1369C33.5402 17.9305 33.5402 19.7241 33.5402 21.5178C33.5402 22.0427 33.474 22.105 32.954 22.1083C29.682 22.1175 26.7778 23.1346 24.328 25.302C22.1846 27.1978 20.8655 29.5785 20.3058 32.3719C19.8275 34.7618 20.061 37.0854 20.9845 39.342C21.2492 39.9818 21.183 40.0684 20.4738 40.0691C16.1632 40.0691 11.8518 40.0861 7.54113 40.0632C5.25613 40.0507 3.49971 39.1045 2.48687 37.0027C2.16907 36.3504 2.00398 35.6352 2.00394 34.9107C2.00438 31.6297 2.00372 28.3488 2.00195 25.0678ZM17.7707 21.1673C20.6238 21.1673 23.4775 21.1673 26.3319 21.1673C26.4866 21.1727 26.6415 21.165 26.795 21.1444C26.9501 21.1246 27.0923 21.0486 27.1942 20.9309C27.2961 20.8132 27.3504 20.6623 27.3467 20.5072C27.3412 20.3585 27.2841 20.2163 27.185 20.1046C27.0859 19.9929 26.9509 19.9186 26.8029 19.8943C26.6389 19.8727 26.4734 19.8653 26.3081 19.872C22.6281 19.872 18.9478 19.872 15.2674 19.872H9.31542C9.0508 19.872 8.78618 19.8609 8.5328 19.9639C8.27943 20.0669 8.12198 20.2474 8.12595 20.5394C8.12925 20.8176 8.28207 20.9823 8.52288 21.0847C8.74251 21.1765 8.97538 21.168 9.20626 21.168L17.7707 21.1673ZM13.9866 27.1387H18.8444C19.0429 27.1387 19.2414 27.1433 19.4332 27.079C19.7117 26.9852 19.8791 26.8113 19.885 26.5048C19.891 26.1984 19.7078 26.0245 19.4372 25.9294C19.2595 25.87 19.0728 25.8418 18.8854 25.846C15.6249 25.846 12.3643 25.846 9.10372 25.846C8.89403 25.8411 8.68574 25.8811 8.49311 25.9635C8.26355 26.0665 8.13124 26.2371 8.12595 26.4976C8.12065 26.7581 8.25826 26.9287 8.48252 27.0383C8.70679 27.1479 8.9304 27.1394 9.1626 27.1394L13.9866 27.1387ZM13.3046 31.82C11.9385 31.82 10.5717 31.82 9.20296 31.82C9.00516 31.8159 8.80791 31.842 8.61814 31.8975C8.33301 31.9867 8.12992 32.1494 8.12727 32.4769C8.12727 32.765 8.31052 32.9966 8.64262 33.0707C8.8681 33.1223 9.09859 33.1491 9.32997 33.1508C11.9965 33.1569 14.6634 33.1587 17.3308 33.1561C17.5296 33.1591 17.7277 33.1332 17.9189 33.0793C18.2027 32.9953 18.3516 32.8037 18.3602 32.5005C18.3688 32.1974 18.2418 31.9966 17.9586 31.8929C17.7803 31.8353 17.5929 31.8104 17.4055 31.8194C16.0383 31.8211 14.6714 31.8214 13.3046 31.82Z" fill="#DB2121"/>
<path d="M32.6635 45.9968C26.7427 46.1018 21.3841 41.1317 21.3867 34.6268C21.3867 28.7244 26.3821 23.2681 33.0433 23.417C38.9192 23.5483 43.9589 28.6115 44.0006 34.5947C44.0442 41.1658 38.6136 46.0972 32.6635 45.9968ZM32.0152 36.1289C32.0152 37.5393 32.0152 38.9492 32.0152 40.3587C32.0152 40.5556 32.0152 40.7524 32.0946 40.9388C32.2024 41.2013 32.4055 41.343 32.6821 41.3371C32.8106 41.3412 32.937 41.3041 33.0427 41.2315C33.1483 41.1588 33.2276 41.0544 33.2689 40.9336C33.3386 40.7258 33.37 40.5073 33.3615 40.2885C33.3615 37.4796 33.3615 34.6704 33.3615 31.861C33.3541 31.7515 33.358 31.6416 33.3734 31.5329C33.4118 31.3518 33.5308 31.3006 33.6909 31.4016C33.7609 31.4545 33.8248 31.5148 33.8815 31.5814C34.8076 32.5034 35.7259 33.4306 36.66 34.3434C37.0033 34.6787 37.3665 34.678 37.6523 34.3932C37.9381 34.1085 37.9282 33.7948 37.5815 33.4457C36.1592 32.0126 34.732 30.5842 33.3 29.1607C32.8561 28.7198 32.5266 28.7395 32.082 29.183C30.9402 30.3231 29.7984 31.4627 28.6565 32.6018C28.3549 32.9043 28.0572 33.2114 27.7707 33.529C27.5259 33.8007 27.5213 34.1144 27.7317 34.3624C27.9579 34.6288 28.2212 34.6662 28.5593 34.4805C28.7206 34.3854 28.8672 34.2676 28.9946 34.1308C29.8129 33.3046 30.6286 32.4758 31.4529 31.6549C31.5746 31.5342 31.6706 31.2914 31.8961 31.3925C32.1112 31.4896 32.0113 31.7251 32.0119 31.8977C32.0212 33.3086 32.0152 34.7181 32.0152 36.1289Z" fill="#DB2121"/>
<path d="M29.7717 4.35194H38.1073C38.9904 4.35194 39.4787 4.82899 39.48 5.70895C39.4831 8.2025 39.4831 10.696 39.48 13.1896C39.48 14.0761 38.9944 14.5545 38.1112 14.5551H21.4454C20.6099 14.5551 20.1296 14.0814 20.1289 13.2585C20.1289 10.7107 20.1289 8.16313 20.1289 5.61577C20.1289 4.82834 20.6085 4.35456 21.4077 4.35391C24.1968 4.35172 26.9848 4.35106 29.7717 4.35194ZM28.0457 9.45452C28.0457 10.2518 28.0596 11.0491 28.0384 11.8464C28.0305 12.1581 28.1416 12.2401 28.4354 12.2309C28.9964 12.2119 29.56 12.2217 30.1197 12.2256C31.845 12.2381 33.1192 11.1186 33.0437 9.29638C32.9882 7.94265 32.0058 6.86845 30.6476 6.73721C29.8994 6.66437 29.1518 6.71818 28.4049 6.68406C28.1033 6.67028 28.0325 6.78577 28.0378 7.064C28.0556 7.86128 28.0457 8.65856 28.0457 9.45452ZM22.9518 9.43418C22.9518 10.2643 22.9577 11.0937 22.9478 11.9238C22.9478 12.1515 23.0272 12.2401 23.2554 12.2276C23.4836 12.2151 23.7185 12.2171 23.9487 12.2276C24.1617 12.2368 24.2451 12.1508 24.2418 11.9395C24.2338 11.4802 24.2484 11.0209 24.2371 10.5615C24.2312 10.3109 24.3291 10.2026 24.5838 10.2046C24.9148 10.2135 25.246 10.2056 25.5761 10.1809C26.5235 10.0923 27.2208 9.37381 27.1996 8.46826C27.1758 7.41834 26.5228 6.83433 25.5781 6.73328C24.7981 6.64928 24.0169 6.71162 23.2369 6.68406C22.9848 6.67487 22.9498 6.80283 22.9518 7.00822C22.9577 7.81928 22.9518 8.62772 22.9518 9.43549V9.43418ZM33.9898 9.45977C33.9898 10.2794 33.9937 11.1003 33.9865 11.9172C33.9865 12.1384 34.0579 12.2453 34.2914 12.2276C34.478 12.2109 34.6658 12.2109 34.8524 12.2276C35.1779 12.2637 35.3062 12.1581 35.2871 11.8136C35.2593 11.3017 35.2871 10.7873 35.2771 10.2741C35.2712 10.032 35.3698 9.93617 35.6079 9.94601C35.8613 9.95389 36.1147 9.94601 36.3674 9.94601C37.0157 9.94601 37.0038 9.94601 37.0071 9.30753C37.0071 9.04112 36.9079 8.965 36.6565 8.9755C36.3052 8.99059 35.9519 8.9755 35.598 8.98075C35.3803 8.98534 35.2672 8.91513 35.2778 8.67956C35.2884 8.4617 35.2884 8.24187 35.2778 8.02336C35.2659 7.79435 35.3751 7.71166 35.5934 7.71363C36.0344 7.71801 36.4754 7.71801 36.9165 7.71363C37.6812 7.70576 37.578 7.8055 37.5985 7.02266C37.6051 6.76412 37.5172 6.68078 37.2578 6.68406C36.2999 6.69587 35.3393 6.69915 34.384 6.68406C34.085 6.67881 33.9772 6.76215 33.9871 7.0699C34.0017 7.86653 33.9891 8.66709 33.9898 9.46109V9.45977Z" fill="#DB2121"/>
<path d="M14.0783 5.74803C14.0783 6.97184 14.0902 8.1963 14.0783 9.42273C14.0531 11.4989 12.4105 13.1073 10.3246 13.1237C8.96977 13.1342 7.61227 13.1841 6.26072 13.1578C5.12615 13.1362 3.99291 13.1119 2.85901 13.1434C2.74192 13.1467 2.63607 13.1263 2.57785 13.0121C2.50045 12.8605 2.60431 12.7634 2.69759 12.6703C3.24668 12.1195 3.79842 11.5698 4.3528 11.0212C6.33746 9.04673 8.33535 7.08405 10.2962 5.09052C11.4109 3.9553 12.5594 2.85355 13.6648 1.70914C13.7409 1.6304 13.815 1.53263 13.9427 1.5779C14.1041 1.63499 14.0816 1.78001 14.0816 1.91059V5.74803H14.0783Z" fill="#DB2121"/>
<path d="M29.3459 9.45196C29.3459 9.00443 29.3525 8.55756 29.3459 8.11069C29.3412 7.87709 29.4299 7.778 29.6767 7.77734C30.2105 7.77734 30.7464 7.78456 31.1744 8.15334C31.7797 8.67436 31.8426 9.35747 31.6421 10.0688C31.4635 10.7046 30.9806 11.0111 30.3369 11.1056C29.4054 11.244 29.3525 11.2033 29.3512 10.3017C29.3452 10.0183 29.3459 9.73478 29.3459 9.45196Z" fill="#DB2121"/>
<path d="M24.2402 8.47296C24.2402 7.65927 24.2449 7.65534 25.0705 7.7203C25.5772 7.76033 25.8425 7.99984 25.8571 8.42965C25.8723 8.88899 25.6275 9.14162 25.1082 9.21118C24.2985 9.32601 24.2402 9.27352 24.2402 8.47296Z" fill="#DB2121"/>
</svg>
