<svg width="61" height="61" viewBox="0 0 61 61" fill="none" xmlns="http://www.w3.org/2000/svg">
<g clip-path="url(#clip0_10305_5218)">
<path d="M30.7036 2.7583C36.7015 2.7583 42.6994 2.81283 48.7518 2.7583C50.7147 2.7583 52.4595 4.0124 52.405 6.41155C52.405 8.48354 52.405 10.501 52.405 12.573C52.405 13.609 52.405 14.645 52.405 15.681C52.405 15.8991 52.1324 16.2808 52.6231 16.3898C52.6776 16.3898 52.6231 16.4989 52.5686 16.4989C52.2959 16.717 52.3505 17.0441 52.3505 17.3168C52.3505 19.6069 52.3505 21.9515 52.3505 24.2416C52.3505 24.7869 52.3505 24.7869 51.8052 24.6778C48.5882 23.9144 45.4257 24.1325 42.4813 25.7138C38.6099 27.7858 36.2107 30.9483 35.5564 35.3104C34.9021 39.618 36.1017 43.3803 39.1552 46.4882C41.3362 48.7238 44.008 49.9779 47.1705 50.3051C48.7518 50.4687 50.2785 50.3051 51.8052 49.9234C52.0778 49.8689 52.2959 49.7598 52.2959 50.196C52.2959 51.5046 52.3505 52.8133 52.2414 54.0674C52.0778 56.0848 50.7147 57.2299 48.6972 57.2299C46.7888 57.2299 44.8804 57.2299 42.972 57.2299C32.8301 57.2299 22.7428 57.2299 12.6009 57.2299C11.2378 57.2299 10.0927 56.7937 9.3839 55.5941C9.05675 54.9943 8.94769 54.3945 8.94769 53.7402C8.94769 43.7074 8.94769 33.6201 8.94769 23.5873C8.94769 17.8075 8.94769 12.0277 8.94769 6.19345C8.94769 4.55766 9.87464 3.30356 11.4559 2.86735C11.8376 2.7583 12.1647 2.7583 12.5464 2.7583C18.5988 2.7583 24.6512 2.7583 30.7036 2.7583ZM23.9424 27.1315C23.5607 27.1315 23.1245 27.1315 22.7428 27.1315C20.4527 27.1315 18.2171 27.1315 15.927 27.1315C15.5454 27.1315 15.3818 27.2405 15.3818 27.6222C15.3818 28.0039 15.3818 28.331 15.3818 28.7127C15.3818 29.3125 15.3818 29.3125 15.9816 29.3125C19.4712 29.3125 23.0154 29.3125 26.5051 29.3125C28.3045 29.3125 30.0493 29.3125 31.8487 29.3125C32.2303 29.3125 32.3394 29.2035 32.3394 28.8218C32.3394 28.4401 32.2849 28.0584 32.3394 27.6767C32.3939 27.186 32.2303 27.0769 31.7396 27.0769C29.1769 27.1315 26.5596 27.1315 23.9424 27.1315ZM23.8878 42.2897C26.5051 42.2897 29.1224 42.2897 31.7941 42.2897C32.2849 42.2897 32.4484 42.1262 32.3939 41.6899C32.3394 41.3628 32.3939 41.0902 32.3939 40.763C32.3939 40.1087 32.3939 40.1087 31.7396 40.1087C26.5051 40.1087 21.2706 40.1087 16.0361 40.1087C15.927 40.1087 15.8725 40.1087 15.7635 40.1087C15.4908 40.1087 15.3818 40.2177 15.3818 40.4904C15.3818 40.8721 15.3818 41.3083 15.3818 41.6899C15.3272 42.1262 15.4908 42.2897 15.9816 42.2897C18.5988 42.2897 21.2706 42.2897 23.8878 42.2897ZM23.8878 35.8011C26.2325 35.8011 28.5771 35.8011 30.9217 35.8011C32.3394 35.8011 32.3394 35.8011 32.3394 34.3289C32.3394 33.6746 32.3394 33.6746 31.6306 33.6746C26.4506 33.6746 21.2706 33.6746 16.0906 33.6746C15.9816 33.6746 15.8725 33.6746 15.7635 33.6746C15.4908 33.6746 15.3818 33.7837 15.3818 34.0563C15.3818 34.438 15.3818 34.8197 15.3818 35.2013C15.3272 35.6921 15.4908 35.8011 15.9816 35.8011C18.5988 35.7466 21.2706 35.8011 23.8878 35.8011ZM23.8333 48.7783C24.5967 48.7783 25.4146 48.7783 26.1779 48.7783C28.0864 48.7783 29.9948 48.7783 31.8487 48.7783C32.2303 48.7783 32.3939 48.6693 32.3394 48.2876C32.3394 47.9604 32.3394 47.6333 32.3394 47.3061C32.3394 46.6518 32.3394 46.6518 31.6851 46.6518C26.7777 46.6518 21.9249 46.6518 17.0176 46.6518C16.5813 46.6518 16.1997 46.6518 15.7635 46.6518C15.4908 46.6518 15.3272 46.7609 15.3272 47.088C15.3272 47.4697 15.3272 47.8514 15.3272 48.2331C15.2727 48.7238 15.4908 48.8329 15.927 48.8329C18.5988 48.7238 21.2161 48.7783 23.8333 48.7783ZM32.503 15.1357C32.503 16.9351 32.503 18.7345 32.503 20.5338C32.503 20.97 32.6665 21.1336 33.1028 21.0791C33.4299 21.0245 33.8116 21.0245 34.1388 21.0791C34.575 21.1336 34.684 20.9155 34.684 20.5338C34.684 19.5523 34.684 18.6254 34.684 17.6439C34.684 15.0267 34.684 12.4094 34.684 9.79217C34.684 9.13786 34.684 9.13786 34.0297 9.13786C33.7025 9.13786 33.4299 9.13786 33.1028 9.13786C32.6665 9.08333 32.5575 9.30143 32.5575 9.68312C32.503 11.537 32.503 13.3364 32.503 15.1357ZM40.4093 16.7715C40.4093 15.4629 40.4093 14.2088 40.4093 12.9002C40.4093 12.4639 40.2457 12.3549 39.864 12.3549C39.4823 12.4094 39.1006 12.3549 38.7189 12.3549C38.4463 12.3549 38.2827 12.4639 38.2827 12.7366C38.2827 15.3538 38.2827 18.0256 38.2827 20.6429C38.2827 20.97 38.4463 21.0791 38.7189 21.0245C39.1006 21.0245 39.4823 20.97 39.864 21.0245C40.3002 21.0791 40.4093 20.861 40.4093 20.4793C40.4093 19.2797 40.4093 18.0256 40.4093 16.7715ZM23.1245 17.0987C23.1245 15.8991 23.1245 14.754 23.1245 13.5545C23.1245 13.2273 23.0154 13.0637 22.6883 13.0637C22.2521 13.0637 21.8704 13.0637 21.4342 13.0637C21.1615 13.0637 20.998 13.1728 20.998 13.4999C20.998 15.8991 20.998 18.2982 20.998 20.6974C20.998 21.0245 21.1615 21.0791 21.4342 21.0791C21.8159 21.0791 22.2521 21.0791 22.6337 21.0791C23.0154 21.0791 23.1245 20.97 23.1245 20.5883C23.1245 19.4433 23.1245 18.2982 23.1245 17.0987ZM44.008 18.1347C44.008 19.0071 44.008 19.825 44.008 20.6974C44.008 20.97 44.117 21.1336 44.3897 21.1336C44.8259 21.1336 45.3166 21.1336 45.7528 21.1336C46.0254 21.1336 46.08 21.0245 46.1345 20.8064C46.2435 20.4248 46.1345 20.0431 46.1345 19.6614C46.1345 18.4073 46.1345 17.0987 46.1345 15.8446C46.1345 15.6265 46.189 15.3538 45.8073 15.2993C45.3166 15.2993 44.8259 15.2993 44.3351 15.2993C44.117 15.2993 44.008 15.4084 44.008 15.681C44.008 16.4444 44.008 17.2622 44.008 18.1347ZM15.2182 18.4073C15.2182 19.1707 15.2182 19.934 15.2182 20.6974C15.2182 20.97 15.2727 21.1336 15.5999 21.0791C16.0906 21.0791 16.5268 21.0791 17.0176 21.0791C17.2902 21.0791 17.3992 20.97 17.3992 20.6974C17.3992 19.1707 17.3992 17.5894 17.3992 16.0627C17.3992 15.79 17.2902 15.7355 17.0176 15.7355C16.6359 15.7355 16.1997 15.7355 15.818 15.7355C15.4363 15.7355 15.2727 15.8446 15.2727 16.2263C15.2182 16.9351 15.2182 17.6985 15.2182 18.4073ZM26.7232 18.9526C26.7232 19.4978 26.7232 20.0976 26.7232 20.6429C26.7232 20.97 26.8323 21.0791 27.1594 21.0791C27.5956 21.0791 28.0864 21.0791 28.5226 21.0791C28.8497 21.0791 28.9588 20.97 28.9588 20.6974C28.9588 19.5523 28.9588 18.3528 28.9588 17.2077C28.9588 16.8806 28.8497 16.7715 28.5226 16.7715C28.0864 16.7715 27.6501 16.7715 27.2139 16.7715C26.8868 16.7715 26.7777 16.8806 26.7777 17.2077C26.7232 17.8075 26.7232 18.4073 26.7232 18.9526Z" fill="#228E5A"/>
<path d="M54.6957 47.8513C54.0959 48.233 52.8418 48.8873 51.097 49.269C48.4252 49.8143 45.7534 49.5416 43.2997 48.3421C39.8101 46.6518 37.5745 43.9255 36.6476 40.1086C35.0118 33.2383 39.592 26.4771 46.6258 25.3321C51.5877 24.5142 56.6041 27.0224 59.0578 31.439C59.385 32.0388 59.6576 32.6386 59.8757 33.2383C60.0938 33.8381 60.6936 35.6375 60.5845 37.8731C60.5845 38.0366 60.3664 41.5808 58.1854 44.5798C57.422 45.6158 56.5496 46.3791 56.386 46.5427C55.7317 47.197 55.0774 47.6332 54.6957 47.8513ZM48.4797 27.5676C43.1907 27.5131 38.665 31.8207 38.7196 37.3823C38.7196 42.8349 43.0816 47.1425 48.5343 47.1425C53.9869 47.1425 58.349 42.7259 58.2944 37.3278C58.2399 31.8752 53.9323 27.5676 48.4797 27.5676Z" fill="#228E5A"/>
<path d="M7.85783 30.0758C7.85783 37.6004 7.85783 45.125 7.85783 52.7041C7.85783 53.413 7.80331 53.4675 7.09447 53.3584C5.24058 53.0313 3.98648 51.45 3.98648 49.5416C3.98648 42.4532 3.98648 35.3103 3.98648 28.2219C3.98648 22.3876 3.98648 16.5533 3.98648 10.719C3.98648 8.75607 5.24058 7.22934 7.09447 6.84766C7.74878 6.62955 7.85783 6.68408 7.85783 7.39292C7.85783 14.972 7.85783 22.4967 7.85783 30.0758Z" fill="#228E5A"/>
<path d="M2.67766 30.0213C2.67766 35.9102 2.67766 41.799 2.67766 47.7423C2.67766 48.5057 2.56861 48.6147 1.85977 48.3966C0.551146 48.015 -0.212219 46.9244 -0.212219 45.4522C-0.212219 42.5078 -0.212219 39.6179 -0.212219 36.6735C-0.212219 29.367 -0.212219 22.0605 -0.212219 14.6995C-0.212219 13.1182 0.660199 11.9732 2.02335 11.7006C2.62314 11.5915 2.67766 11.646 2.67766 12.1913C2.67766 17.4803 2.67766 22.8239 2.67766 28.1129C2.67766 28.7127 2.67766 29.367 2.67766 30.0213Z" fill="#228E5A"/>
<path d="M54.8046 34.547C54.7501 34.6015 54.6955 34.656 54.641 34.7651C52.1328 37.2733 49.5701 39.836 47.0619 42.3442C46.7893 42.6168 46.5712 42.6168 46.2985 42.3442C45.0444 41.0356 43.7358 39.7815 42.4817 38.5274C42.1545 38.2547 42.2091 38.0366 42.4817 37.764C42.8089 37.4368 43.136 37.1097 43.4632 36.7825C43.6813 36.5644 43.8449 36.5644 44.063 36.7825C44.8263 37.5459 45.5897 38.3093 46.3531 39.0726C46.5712 39.2907 46.6802 39.3453 46.9528 39.0726C48.8613 37.1642 50.8242 35.2013 52.7326 33.2929C53.2233 32.8021 53.2233 32.8021 53.6596 33.2929C53.9867 33.62 54.2593 33.8926 54.5865 34.2198C54.6955 34.2743 54.8046 34.3289 54.8046 34.547Z" fill="#228E5A"/>
</g>
<defs>
<clipPath id="clip0_10305_5218">
<rect width="60.8091" height="60.8091" fill="white" transform="translate(0.057312 0.0279541)"/>
</clipPath>
</defs>
</svg>
