<svg width="61" height="61" viewBox="0 0 61 61" fill="none" xmlns="http://www.w3.org/2000/svg">
<g clip-path="url(#clip0_18631_15036)">
<path d="M33.0513 59.9813C30.7018 59.9813 28.3523 59.9427 26.0041 59.9976C24.9468 60.0216 23.8966 59.8199 22.9234 59.4061C19.4489 57.9704 15.9648 56.5496 12.4711 55.1439C11.8385 54.8943 11.5852 54.5549 11.5977 53.8574C11.6351 51.0924 11.6114 48.3275 11.6139 45.5637C11.6139 44.5955 11.6401 44.5655 12.5747 44.5655C15.5468 44.5655 18.5202 44.5655 21.4923 44.5655C21.9285 44.552 22.3568 44.6836 22.7101 44.9398C25.5549 46.9628 28.406 48.978 31.2633 50.9851C31.7163 51.2865 32.0725 51.7125 32.289 52.2117C32.6009 52.9603 32.5734 53.6853 32.0394 54.3191C31.4829 54.9767 30.753 55.1264 29.9457 54.8956C29.0299 54.6335 28.2837 54.0446 27.4939 53.5517C25.9966 52.6159 24.523 51.6415 23.0382 50.6819C22.9134 50.6033 22.7962 50.5185 22.6639 50.4524C22.4468 50.3413 22.211 50.2802 22.0587 50.5335C21.9065 50.7868 22.0687 50.9689 22.2734 51.1037C23.0362 51.6078 23.801 52.1069 24.5679 52.601C25.8793 53.4444 27.1994 54.2717 28.5046 55.1239C29.1608 55.5698 29.9371 55.8057 30.7305 55.8002C33.9098 55.7815 37.094 55.7902 40.2707 55.8002C40.6649 55.7998 41.0548 55.72 41.4174 55.5656C44.704 54.2155 47.9942 52.8734 51.2883 51.5391C51.4977 51.4477 51.7159 51.3779 51.9396 51.3308C53.1274 51.1161 54.1543 51.6365 54.4912 52.6097C54.8368 53.6079 54.2866 54.8207 53.1549 55.321C51.559 56.026 49.9307 56.6599 48.3149 57.3174C46.3323 58.1235 44.3446 58.9195 42.3644 59.7293C41.9413 59.9002 41.4882 59.9851 41.0319 59.9788C38.3717 59.9751 35.7115 59.9813 33.0513 59.9813Z" fill="#21409A"/>
<path d="M52.9453 31.3682V46.084C52.9453 46.9424 52.9353 46.9574 52.0719 46.9574C51.0945 46.9574 50.1175 46.9574 49.1409 46.9574C48.3024 46.9574 48.2675 46.9162 48.2675 46.0715C48.2675 39.2331 48.2675 32.3946 48.2675 25.5562C48.2675 22.5616 48.2675 19.5671 48.2675 16.5725C48.2675 15.7677 48.2974 15.7415 49.1197 15.739C50.1379 15.739 51.1573 15.7652 52.1742 15.7278C52.7793 15.7066 52.9565 15.9374 52.954 16.5263C52.9378 21.4736 52.9453 26.4209 52.9453 31.3682Z" fill="#21409A"/>
<path d="M37.1439 36.9169C37.1439 32.3626 37.1439 27.8084 37.1439 23.2542C37.1439 22.3882 37.1439 22.3807 38.0098 22.3807C38.9881 22.3807 39.9655 22.3807 40.942 22.3807C41.7718 22.3807 41.8154 22.4281 41.8154 23.2729C41.8154 29.5531 41.8154 35.8334 41.8154 42.1137C41.8154 44.9419 41.8154 47.7701 41.8154 50.5983C41.8154 51.3819 41.7518 51.4418 40.9545 51.4456C39.9775 51.4456 39.0005 51.4456 38.0236 51.4456C37.1589 51.4456 37.1502 51.4268 37.1502 50.5784C37.146 46.0241 37.1439 41.4703 37.1439 36.9169Z" fill="#21409A"/>
<path d="M11.5154 19.0766C11.0949 19.2476 10.617 19.4061 10.1753 19.6331C9.71237 19.8702 9.34679 19.8103 9.01489 19.4285C8.97371 19.3823 8.91881 19.3487 8.87265 19.3037C7.92811 18.4553 7.89442 18.4079 8.43345 17.2437C8.75037 16.5587 8.90758 15.9348 8.38353 15.2835C8.24367 15.1019 8.15377 14.8868 8.12276 14.6597C7.99799 13.6814 7.32295 13.2534 6.47824 13.0289C5.79697 12.8467 5.55491 12.4412 5.58361 11.7549C5.61231 11.0687 5.52247 10.3599 6.45703 10.1466C7.37037 9.93696 7.81332 9.33056 8.21135 8.44841C8.69921 7.36412 8.83522 6.45202 8.21135 5.43512C7.97053 5.04458 8.02169 4.68648 8.39352 4.39076C8.40891 4.37703 8.4231 4.362 8.43594 4.34584C9.40793 3.28402 9.41666 3.26406 10.7393 3.83178C11.3544 4.09505 11.9184 4.19487 12.4948 3.76939C12.6279 3.66752 12.7823 3.59713 12.9465 3.56351C14.0695 3.36762 14.6472 2.6327 14.9292 1.59707C15.0702 1.07677 15.3946 0.848434 15.9373 0.899591C16.2073 0.918935 16.4784 0.918935 16.7484 0.899591C17.1526 0.880875 17.4396 1.03809 17.5557 1.43363C17.8913 2.58404 18.5763 3.2653 19.7667 3.68828C20.6513 4.00396 21.3525 4.10253 22.166 3.67456C22.4605 3.52109 22.8149 3.2391 23.1543 3.47617C23.6759 3.82047 24.1148 4.27598 24.4394 4.81C24.518 4.94725 24.4232 5.09323 24.3733 5.22924C24.3047 5.44718 24.2213 5.6602 24.1238 5.86683C23.732 6.603 23.6945 7.3192 24.1936 8.02293C24.2062 8.03993 24.2147 8.05956 24.2186 8.08033C24.4357 9.29937 25.1943 9.98189 26.3672 10.2639C26.7902 10.3649 26.9911 10.6532 26.9611 11.0911C26.9611 11.1523 26.9611 11.2159 26.9611 11.277C26.9898 12.6121 26.9998 12.6371 25.767 13.1299C25.0858 13.4019 24.7327 13.8436 24.402 14.5149C23.8118 15.7127 23.6945 16.8058 24.3746 17.9649C24.5205 18.2145 24.4594 18.444 24.261 18.6437C24.2323 18.6736 24.2061 18.7061 24.1787 18.7373C23.1518 19.9363 23.1393 19.9625 21.7044 19.3349C21.1167 19.0779 20.6151 19.0267 20.0823 19.4036C19.8631 19.564 19.6128 19.677 19.3474 19.7354C18.4915 19.8927 18.0598 20.4217 17.779 21.2153C17.4284 22.2135 16.3566 22.609 15.3746 22.2135C15.2573 22.1696 15.1604 22.0838 15.1026 21.9726C15.0609 21.9006 15.0266 21.8245 15.0003 21.7456C14.6921 20.529 13.9435 19.7904 12.6995 19.5283C12.3651 19.4572 12.0631 19.2301 11.7437 19.0829C11.6684 19.0686 11.5913 19.0665 11.5154 19.0766ZM9.23449 11.5827C9.23106 12.9741 9.64001 14.3353 10.4097 15.4944C11.1794 16.6534 12.2753 17.5585 13.559 18.0951C14.8427 18.6318 16.2566 18.776 17.6223 18.5096C18.9879 18.2431 20.2439 17.578 21.2318 16.5981C22.2196 15.6183 22.8949 14.3677 23.1725 13.0043C23.45 11.6409 23.3173 10.2259 22.7911 8.93782C22.265 7.64978 21.3689 6.54655 20.2161 5.76746C19.0633 4.98837 17.7055 4.56835 16.3142 4.56045C15.3879 4.55552 14.4697 4.73338 13.6123 5.08383C12.7549 5.43428 11.975 5.95045 11.3174 6.60276C10.6598 7.25506 10.1373 8.03069 9.77985 8.88524C9.42243 9.73978 9.23711 10.6565 9.23449 11.5827Z" fill="#21409A"/>
<path d="M10.884 49.9482C10.884 52.6072 10.869 55.2661 10.8952 57.9238C10.8952 58.5477 10.7043 58.766 10.073 58.7461C8.80777 58.7049 7.53882 58.7161 6.27236 58.7461C5.75455 58.756 5.58486 58.5564 5.5861 58.0511C5.59609 52.6525 5.59609 47.2531 5.5861 41.8529C5.5861 41.3738 5.75705 41.1841 6.24242 41.1904C7.55005 41.2103 8.86266 41.2153 10.1678 41.1904C10.7131 41.1791 10.894 41.385 10.8902 41.9191C10.874 44.5905 10.884 47.2694 10.884 49.9482Z" fill="#21409A"/>
<path d="M49.0386 1.1616C46.7515 1.11418 44.4681 1.3238 42.176 1.28637C41.6046 1.27763 41.5821 1.47478 41.8579 1.89527C42.1199 2.29454 42.357 2.71004 42.5878 3.12928C42.7562 3.43747 42.7488 3.7469 42.4206 3.94779C42.0924 4.14868 41.8154 3.98772 41.6345 3.69824C41.1117 2.84978 40.5852 2.00008 40.0948 1.13165C39.7979 0.606353 40.005 0.25075 40.6014 0.167151C40.7257 0.154249 40.8507 0.148832 40.9757 0.15093L54.077 0.00244141C54.2229 0.00244141 54.3689 0.00244141 54.5137 0.00244141C55.2124 0.0336349 55.417 0.359302 55.0814 0.976932C54.3777 2.27333 53.649 3.55726 52.929 4.84492C51.4467 7.49345 49.964 10.1416 48.4809 12.7893C48.3199 13.0763 48.2039 13.4131 47.7896 13.4219C47.3754 13.4306 47.2356 13.1124 47.0659 12.8242C46.7927 12.3575 46.4895 11.9071 46.2462 11.4255C46.0191 10.9788 45.7658 10.9489 45.359 11.1984C43.6954 12.2166 42.0217 13.2243 40.3381 14.2217C32.949 18.6304 25.5591 23.039 18.1683 27.4477C14.0982 29.8758 10.0268 32.3014 5.95419 34.7245C5.82942 34.7994 5.70465 34.8717 5.57987 34.9416C5.233 35.1338 4.92231 35.0988 4.72891 34.737C4.53551 34.3751 4.74638 34.1381 5.03585 33.9621C5.99495 33.3799 6.95737 32.803 7.92312 32.2315C13.0655 29.1629 18.2066 26.0952 23.3464 23.0282L42.201 11.7898C43.2903 11.141 44.3783 10.4884 45.4726 9.84835C46.185 9.43285 46.3772 9.4915 46.8164 10.2114C47.0322 10.5671 47.2606 10.9152 47.4552 11.282C47.6848 11.7137 47.8358 11.6651 48.0566 11.2633C49.1996 9.18829 50.3612 7.12205 51.5166 5.0533C52.1342 3.94656 52.7456 2.83481 53.3733 1.7343C53.6141 1.31257 53.5467 1.14663 53.0351 1.15412C51.7 1.17408 50.3687 1.1616 49.0386 1.1616Z" fill="#21409A"/>
<path d="M30.6157 37.5819C30.6157 40.1597 30.6008 42.7363 30.6257 45.3179C30.6257 45.908 30.4498 46.1376 29.8459 46.1177C28.7666 46.0827 27.6848 46.0939 26.6018 46.1177C26.1214 46.1264 25.9355 45.9405 25.9367 45.4588C25.9459 40.2009 25.9459 34.9429 25.9367 29.6849C25.9367 29.212 26.1151 28.9999 26.5968 29.0049C27.6973 29.0174 28.799 29.0249 29.9008 29.0049C30.4398 28.9924 30.6245 29.2021 30.6207 29.7398C30.6045 32.3451 30.6157 34.9641 30.6157 37.5819Z" fill="#21409A"/>
<path d="M36.7521 55.0702C35.6291 55.0702 34.5062 55.0702 33.3832 55.0702C33.2235 55.0702 33.0089 55.1189 32.9353 54.9392C32.8442 54.7021 33.0937 54.6348 33.2372 54.5399C34.2604 53.8649 35.2947 53.2061 36.3129 52.5236C36.6755 52.2791 37.106 52.1551 37.5432 52.1692C38.9556 52.1855 40.3705 52.1568 41.7855 52.183C42.3557 52.1942 42.6452 51.9696 42.5341 51.4181C42.186 49.6638 42.9272 48.6007 44.5555 48.0155C45.0371 47.8421 45.4563 47.5002 45.9729 47.3916C46.8887 47.1907 47.8695 47.5626 48.27 48.2651C48.7404 49.0836 48.6069 50.0531 47.9406 50.8004C47.5663 51.2135 47.0959 51.4705 46.6255 51.7325C44.7539 52.7719 42.8822 53.8013 41.0106 54.8444C40.7201 55.0072 40.3916 55.0899 40.0586 55.0839C38.9556 55.0677 37.8539 55.0702 36.7521 55.0702Z" fill="#21409A"/>
<path d="M14.8144 38.1446C14.8144 37.5207 14.8256 36.8968 14.8144 36.273C14.8056 35.8862 14.9529 35.6965 15.3559 35.699C16.5587 35.7065 17.7611 35.7065 18.9631 35.699C19.3287 35.699 19.4909 35.8699 19.4897 36.2305C19.4897 37.5157 19.4897 38.8013 19.4897 40.0873C19.4897 40.4616 19.2938 40.6001 18.9444 40.6001C17.7416 40.6001 16.5392 40.6001 15.3372 40.6001C14.9791 40.6001 14.8094 40.4367 14.8156 40.0673C14.8231 39.4297 14.8156 38.7871 14.8144 38.1446Z" fill="#21409A"/>
<path d="M36.3441 49.1721C36.8432 51.0025 36.006 52.128 34.3951 52.8392C34.3767 52.8488 34.3591 52.8601 34.3427 52.8729C33.4256 53.4843 33.4269 53.4843 33.1736 52.4411C32.9807 51.5811 32.4619 50.8293 31.7262 50.3437C31.2833 50.048 31.2596 49.8371 31.7262 49.5439C33.0576 48.7017 34.3714 47.832 35.699 46.986C36.2518 46.6342 36.3379 46.6903 36.3453 47.3679C36.3491 47.9693 36.3441 48.5707 36.3441 49.1721Z" fill="#21409A"/>
<path d="M16.283 5.33289C19.7679 5.33289 22.5092 8.09662 22.5067 11.6102C22.5067 15.0627 19.6681 17.9138 16.2543 17.8939C12.8629 17.8739 9.97815 14.9729 9.9794 11.5828C9.9819 8.17273 12.8455 5.33413 16.283 5.33289ZM18.6811 9.63259C18.5888 9.02619 18.0922 8.5533 17.4334 8.29252C16.9068 8.08415 16.5749 7.84832 16.6685 7.2257C16.7047 6.98488 16.5999 6.74781 16.3167 6.7266C15.9897 6.70289 15.8612 6.95618 15.8962 7.2257C15.981 7.887 15.6067 8.09911 15.0664 8.31622C14.3552 8.59945 13.8673 9.13599 13.8673 9.97447C13.8673 10.8129 14.3115 11.3245 15.0153 11.6801C15.4744 11.911 15.9735 11.9459 16.4676 11.9983C16.8428 12.0248 17.2018 12.1615 17.4995 12.3913C18.0448 12.8293 18.076 13.4918 17.5594 13.9523C16.5612 14.8419 14.7932 14.3653 14.6172 13.2947C14.5748 13.0451 14.4588 12.7794 14.1181 12.8854C13.805 12.9853 13.8362 13.2797 13.8861 13.5193C13.9546 13.8589 14.1148 14.1733 14.3493 14.4285C14.5837 14.6836 14.8835 14.8697 15.2162 14.9667C15.7015 15.1301 15.9548 15.3535 15.8974 15.8912C15.8687 16.167 15.9324 16.4777 16.3017 16.4652C16.671 16.4527 16.7109 16.1395 16.676 15.8663C16.6161 15.3572 16.8494 15.1426 17.3099 14.9729C18.2943 14.6123 18.8072 13.8013 18.6824 12.9254C18.5576 12.0495 17.5844 11.2659 16.5013 11.196C16.0384 11.1673 15.5855 11.1299 15.1862 10.8766C14.4887 10.4349 14.4538 9.69248 15.0976 9.17716C16.0746 8.39483 17.4771 8.77789 17.9587 9.96574C18.0423 10.1704 18.1171 10.3787 18.3817 10.3238C18.6462 10.2689 18.7098 10.0356 18.6811 9.63259Z" fill="#21409A"/>
</g>
<defs>
<clipPath id="clip0_18631_15036">
<rect width="50.5858" height="60" fill="white" transform="translate(4.65155)"/>
</clipPath>
</defs>
</svg>
