<svg width="62" height="61" viewBox="0 0 62 61" fill="none" xmlns="http://www.w3.org/2000/svg">
<g clip-path="url(#clip0_18631_15108)">
<g clip-path="url(#clip1_18631_15108)">
<path d="M29.8937 0H56.0344C58.478 0 59.7967 1.31474 59.7967 3.75293C59.7967 14.1379 59.7967 24.5233 59.7967 34.9092C59.7967 37.3072 58.5181 38.5899 56.1347 38.5912C52.9034 38.5912 49.6721 38.6019 46.4408 38.5832C45.9192 38.5832 45.5741 38.7383 45.2732 39.1743C43.4462 41.8132 41.5951 44.4333 39.7548 47.0654C39.0178 48.1166 38.0763 48.4657 37.0598 48.0685C36.6225 47.8973 36.3269 47.575 36.0674 47.2058C34.2097 44.5617 32.3386 41.9295 30.5062 39.268C30.1612 38.7677 29.796 38.5832 29.1955 38.5845C20.704 38.6019 12.2097 38.5631 3.7235 38.6206C1.75743 38.634 0.0307609 37.334 0.045473 34.9185C0.105659 24.4863 0.0708851 14.0541 0.0708851 3.62988C0.0708851 1.22244 1.28397 0.00535378 3.68204 0.00401631L29.8937 0ZM17.8779 31.1923C25.1122 31.1923 30.8205 25.4305 30.8914 18.2029C30.9583 11.3698 25.4078 5.17331 17.9073 5.18401C10.5513 5.19471 4.90983 10.8896 4.85232 18.2136C4.79615 25.4038 10.6569 31.195 17.8779 31.1923ZM45.0659 27.1599C47.9815 27.1599 50.8972 27.1599 53.8129 27.1599C54.3171 27.1599 55.0246 27.3338 55.0166 26.5152C55.0086 25.6967 54.3131 25.8666 53.8049 25.8652C47.928 25.859 42.0512 25.859 36.1744 25.8652C35.9751 25.8652 35.7732 25.8652 35.5739 25.8813C35.501 25.8776 35.4281 25.8893 35.36 25.9157C35.2919 25.9421 35.2302 25.9825 35.1788 26.0344C35.1274 26.0863 35.0876 26.1484 35.0618 26.2168C35.0361 26.2851 35.0251 26.3581 35.0295 26.431C35.0108 26.7894 35.1633 27.0462 35.5137 27.1251C35.7344 27.1639 35.9586 27.1782 36.1824 27.1679C39.1436 27.1644 42.1047 27.1617 45.0659 27.1599ZM45.0578 30.1745C42.1154 30.1745 39.173 30.1745 36.2306 30.1745C35.7491 30.1745 35.1245 30.0047 35.0402 30.7804C34.9841 31.294 35.3077 31.4719 36.2239 31.4719H53.8784C54.0791 31.4719 54.2797 31.4719 54.479 31.4532C54.8106 31.4251 55.0233 31.2525 55.046 30.9101C55.0668 30.7524 55.0271 30.5927 54.9347 30.4631C54.8424 30.3335 54.7044 30.2438 54.5485 30.212C54.3282 30.1702 54.1035 30.1563 53.8798 30.1705C50.94 30.1714 47.9994 30.1728 45.0578 30.1745ZM45.0578 22.7784C47.9749 22.7784 50.8919 22.7864 53.8089 22.769C54.2957 22.769 55.0367 22.9924 55.0126 22.1511C54.9979 21.382 54.2957 21.5706 53.8209 21.5693C47.9432 21.5586 42.0642 21.5586 36.1838 21.5693C35.9618 21.5693 35.7384 21.5693 35.515 21.5894C35.4475 21.588 35.3805 21.6008 35.3183 21.6271C35.2561 21.6533 35.2002 21.6924 35.1541 21.7418C35.108 21.7911 35.0729 21.8496 35.051 21.9135C35.029 21.9773 35.0208 22.0451 35.0269 22.1123C35.0269 22.4092 35.1339 22.6473 35.4281 22.7249C35.6682 22.7712 35.9127 22.79 36.157 22.781C39.1324 22.7819 42.1007 22.781 45.0619 22.7784H45.0578ZM49.7216 17.4285C51.2369 17.4285 52.5022 16.1673 52.4875 14.6733C52.4728 13.2997 51.0497 11.9529 49.6199 11.9636C48.1487 11.9743 46.945 13.2128 46.953 14.7215C46.9611 16.281 48.1313 17.4258 49.7256 17.4258L49.7216 17.4285ZM37.8181 9.33951C37.8181 11.01 38.9684 12.1776 40.6108 12.1709C42.082 12.1709 43.2576 10.9431 43.2777 9.39569C43.2781 8.67446 42.9933 7.98234 42.4854 7.47023C41.9776 6.95812 41.2878 6.66757 40.5666 6.66192C39.078 6.65122 37.8222 7.86965 37.8222 9.33685L37.8181 9.33951ZM48.6262 7.8683C48.633 7.74494 48.6011 7.62254 48.5349 7.51823C48.4687 7.41391 48.3716 7.33289 48.2571 7.2865C48.1553 7.23756 48.0397 7.22561 47.9301 7.25271C47.8205 7.2798 47.7238 7.34425 47.6565 7.43496C47.5551 7.55281 47.4613 7.677 47.3757 7.80678C45.8233 10.0038 44.2705 12.2017 42.7173 14.4005C42.2572 15.055 41.8025 15.7139 41.3531 16.3773C41.1712 16.6448 41.1377 16.935 41.4146 17.153C41.6914 17.371 42.0031 17.3068 42.2532 17.0594C42.3592 16.9451 42.4554 16.822 42.5407 16.6916L48.3213 8.52232C48.4697 8.32304 48.6275 8.13044 48.6342 7.8683H48.6262Z" fill="#9724F1"/>
<path d="M35.4896 60H18.7111C17.7843 60 17.7642 59.9826 17.7642 59.0771C17.7642 53.9947 17.7642 48.9124 17.7642 43.83C17.7642 42.97 17.799 42.9379 18.6804 42.9379C22.7356 42.9379 26.7908 42.9486 30.8513 42.9259C31.4371 42.9259 31.7875 43.1279 32.1032 43.6067C33.0314 44.995 33.9917 46.3632 34.972 47.7167C36.5944 49.9583 39.2519 49.8566 40.774 47.5428C41.6901 46.1465 42.6839 44.801 43.6308 43.4248C43.7297 43.2645 43.8703 43.134 44.0375 43.0473C44.2047 42.9606 44.3924 42.921 44.5804 42.9326C47.2767 42.946 49.973 42.9032 52.6694 42.954C56.6577 43.0275 60.1873 46.5651 60.5069 50.5428C60.8961 55.4044 57.824 58.5207 54.8321 59.5573C53.8991 59.8644 52.9212 60.0127 51.9391 59.996L35.4896 60ZM22.5577 56.5961V56.6041C22.9362 56.6041 23.3147 56.6041 23.6932 56.6041C24.1198 56.6041 24.4662 56.4477 24.4729 55.9702C24.4729 55.5355 24.1667 55.3202 23.7694 55.3242C23.1876 55.3242 23.0713 55.03 23.0753 54.5217C23.0922 52.5842 23.0922 50.6457 23.0753 48.7064C23.0753 48.1835 23.2291 47.912 23.7842 47.9039C24.2014 47.9039 24.4529 47.6726 24.4422 47.2352C24.4288 46.8233 24.1546 46.6374 23.7815 46.6293C22.9349 46.6133 22.0882 46.6119 21.2403 46.6293C20.8391 46.6387 20.5314 46.858 20.5381 47.2807C20.5363 47.366 20.5525 47.4508 20.5856 47.5295C20.6187 47.6081 20.6681 47.6789 20.7304 47.7372C20.7928 47.7955 20.8667 47.8401 20.9474 47.8679C21.0281 47.8957 21.1138 47.9061 21.1988 47.8986C21.8569 47.8852 21.9532 48.253 21.9465 48.7987C21.9278 50.648 21.9278 52.4972 21.9465 54.3465C21.9465 54.9283 21.9023 55.3523 21.156 55.3376C21.0705 55.332 20.9847 55.3452 20.9048 55.3763C20.8249 55.4074 20.7528 55.4556 20.6935 55.5175C20.6342 55.5795 20.5892 55.6537 20.5617 55.7349C20.5342 55.8161 20.5247 55.9023 20.5341 55.9876C20.5595 56.3647 20.835 56.5774 21.2189 56.5894C21.6656 56.6068 22.1123 56.5961 22.5577 56.5961Z" fill="#9724F1"/>
<path d="M16.5752 51.4737C16.5752 53.9703 16.5752 56.4669 16.5752 58.9635C16.5752 59.8636 16.5565 59.8823 15.6965 59.8823C13.2222 59.8823 10.7479 59.9265 8.27625 59.8716C4.79081 59.7941 2.26568 58.0567 0.85064 54.9564C-0.57376 51.8348 -0.219331 48.772 2.00487 46.0596C3.73288 43.9491 5.99453 42.9273 8.73098 42.9433C11.0702 42.9554 13.4121 42.9647 15.7487 42.934C16.404 42.9246 16.5926 43.1667 16.5872 43.7913C16.5565 46.3485 16.5752 48.9111 16.5752 51.4737ZM8.04486 48.0672C7.70371 48.065 7.36389 48.11 7.03507 48.2009C6.29806 48.4393 5.67211 48.9361 5.27268 49.5998C4.87325 50.2635 4.72728 51.0492 4.86169 51.8121C5.16262 53.4719 6.67797 54.7251 8.40063 54.4161C9.51072 54.2182 10.364 54.1339 11.1023 55.1223C11.3043 55.3898 11.7376 55.343 11.989 55.0394C12.2204 54.7598 12.1495 54.4522 11.9155 54.1941C11.7282 53.9736 11.5229 53.7692 11.3016 53.5829C10.8843 53.2539 10.8642 52.9235 11.0662 52.4273C11.9355 50.2887 10.4041 48.0779 8.04486 48.0672Z" fill="#9724F1"/>
<path d="M17.8939 6.41577C24.4756 6.41577 29.6904 11.6479 29.6837 18.2349C29.6837 24.6347 24.3338 30.0046 17.914 29.9926C14.7875 29.9946 11.7883 28.7544 9.57617 26.5451C7.36404 24.3357 6.12018 21.338 6.11823 18.2115C6.11628 15.0851 7.35639 12.0859 9.56577 9.87372C11.7751 7.66158 14.7728 6.41772 17.8993 6.41577H17.8939ZM8.54907 18.1333C8.52767 23.3146 12.6952 27.537 17.8418 27.5517C22.9589 27.5664 27.1706 23.4056 27.2227 18.267C27.2749 13.1566 23.0766 8.9048 17.9742 8.8834C12.746 8.86067 8.57448 12.9546 8.55441 18.1333H8.54907Z" fill="#9724F1"/>
<path d="M48.2236 14.7255C48.2236 13.8976 48.8924 13.1968 49.6668 13.1914C50.4692 13.1914 51.2343 13.935 51.2196 14.7121C51.2048 15.4892 50.4612 16.2114 49.7069 16.2061C49.5119 16.2077 49.3185 16.1705 49.138 16.0967C48.9575 16.0229 48.7935 15.9139 48.6555 15.7761C48.5174 15.6384 48.4082 15.4745 48.334 15.2942C48.2599 15.1138 48.2224 14.9205 48.2236 14.7255Z" fill="#9724F1"/>
<path d="M40.4971 10.915C39.6211 10.915 39.0259 10.3185 39.0259 9.45714C39.0259 8.61855 39.7401 7.90033 40.5466 7.91906C40.9378 7.93043 41.3094 8.09273 41.5836 8.37196C41.8579 8.65118 42.0135 9.02568 42.0178 9.41703C42.0227 9.61702 41.9865 9.81589 41.9116 10.0014C41.8366 10.1868 41.7244 10.355 41.5819 10.4953C41.4393 10.6357 41.2695 10.7454 41.083 10.8176C40.8964 10.8898 40.697 10.9229 40.4971 10.915Z" fill="#9724F1"/>
<path d="M8.09432 49.2495C8.6221 49.2701 9.12072 49.497 9.48291 49.8815C9.84509 50.2659 10.0419 50.7771 10.031 51.3052C10.0002 52.3631 9.07068 53.2713 8.04217 53.2499C6.98557 53.2271 6.06406 52.2468 6.10151 51.1848C6.13895 50.1229 7.04709 49.2321 8.09432 49.2495Z" fill="#9724F1"/>
<path d="M25.9762 18.2189C25.9762 22.7409 22.3851 26.3052 17.8458 26.2972C13.3867 26.2892 9.73272 22.6446 9.74208 18.2109C9.75011 13.7518 13.487 10.0203 17.8859 10.0818C22.4507 10.146 25.9816 13.6943 25.9762 18.2189ZM20.5836 15.9065C20.5862 15.4836 20.4722 15.0681 20.2542 14.7057C20.0362 14.3433 19.7226 14.048 19.3478 13.8521C18.9265 13.6167 18.6202 13.4067 18.6095 12.8718C18.6095 12.5454 18.4075 12.2686 18.0183 12.2699C17.6291 12.2712 17.387 12.5013 17.383 12.8918C17.383 13.3573 17.1383 13.5967 16.7464 13.8107C16.1396 14.135 15.6846 14.6849 15.4797 15.3418C15.2748 15.9986 15.3363 16.7096 15.651 17.3215C16.1245 18.2872 16.955 18.659 17.9755 18.7566C18.9532 18.8489 19.5564 19.6367 19.3544 20.4953C19.2826 20.8135 19.101 21.0964 18.8416 21.2942C18.5821 21.492 18.2613 21.5922 17.9354 21.5773C17.1891 21.5572 16.7317 21.1426 16.5752 20.28C16.4923 19.8119 16.3077 19.5123 15.7968 19.5912C15.3046 19.6674 15.223 20.0553 15.2738 20.4538C15.3822 21.2831 15.7018 22.0214 16.4776 22.4213C16.9443 22.6607 17.3108 22.884 17.28 23.4912C17.2627 23.8109 17.4994 24.0262 17.8364 24.0463C18.1975 24.0637 18.4918 23.855 18.4931 23.5113C18.4931 22.8987 18.8369 22.6286 19.3036 22.3423C19.7678 22.0666 20.1308 21.6487 20.3389 21.1505C20.547 20.6524 20.5892 20.1005 20.4592 19.5765C20.1917 18.4543 19.317 17.696 18.1521 17.5596C17.8863 17.5421 17.6236 17.4927 17.3696 17.4125C16.7009 17.1597 16.3946 16.5204 16.5337 15.7767C16.5984 15.4685 16.7698 15.1931 17.0176 14.9988C17.2654 14.8046 17.5739 14.704 17.8886 14.7148C18.6416 14.7148 19.0923 15.1267 19.2849 16.0522C19.3758 16.4722 19.5524 16.7745 20.0366 16.721C20.5033 16.6648 20.5796 16.3184 20.5836 15.9065Z" fill="#9724F1"/>
</g>
</g>
<defs>
<clipPath id="clip0_18631_15108">
<rect width="60.8091" height="60.8091" fill="white" transform="translate(0.34845)"/>
</clipPath>
<clipPath id="clip1_18631_15108">
<rect width="60.535" height="60" fill="white"/>
</clipPath>
</defs>
</svg>
