<svg width="46" height="46" viewBox="0 0 46 46" fill="none" xmlns="http://www.w3.org/2000/svg">
<g clip-path="url(#clip0_39130_315303)">
<g clip-path="url(#clip1_39130_315303)">
<path d="M2.78627 21.0729C2.78627 15.2578 2.78627 9.44311 2.78627 3.62871C2.78627 1.67563 3.90056 0.546875 5.83026 0.546875C11.3954 0.546875 16.9608 0.546875 22.5266 0.546875C23.2116 0.546875 23.2136 0.546874 23.2146 1.24476C23.2146 3.4861 23.2146 5.72777 23.2146 7.96979C23.2146 10.7866 24.9969 12.5779 27.8002 12.5819C30.0227 12.5819 32.2456 12.5819 34.4689 12.5819C35.1459 12.5819 35.1489 12.5819 35.1489 13.2363C35.1489 16.9112 35.1489 20.5861 35.1489 24.2609C35.1489 24.9073 35.1429 24.9002 34.4929 24.8152C31.9524 24.4814 29.5784 24.9791 27.3609 26.2727C26.5104 26.7693 25.6097 26.6661 24.7461 26.4173C24.1363 26.2413 23.8435 25.7002 23.8435 25.0377C23.8435 23.4032 23.8385 21.7678 23.8435 20.1333C23.8435 19.316 24.3159 18.778 25.1273 18.6434C25.7912 18.5342 26.4622 18.606 27.1332 18.5939C27.7681 18.5828 28.403 18.5858 29.0388 18.5939C29.3287 18.5939 29.4681 18.4826 29.4631 18.1741C29.451 17.5673 29.4541 16.9604 29.4631 16.3536C29.4631 16.0734 29.3417 15.9561 29.0709 15.9581C27.6176 15.9672 26.1623 15.9035 24.711 15.9985C22.9829 16.1128 21.4153 17.632 21.2187 19.3939C20.9994 21.4723 20.9937 23.568 21.2017 25.6476C21.3471 27.1971 22.2668 28.2713 23.6569 28.9115C24.034 29.0855 24.0882 29.2079 23.8405 29.5609C22.6797 31.2251 21.9922 33.1778 21.8526 35.2076C21.7129 37.2374 22.1263 39.2671 23.0481 41.077C23.349 41.6677 23.336 41.6839 22.6961 41.6839C17.0126 41.6839 11.3292 41.6839 5.64571 41.6839C3.95572 41.6839 2.78225 40.4904 2.78125 38.777C2.78259 32.8709 2.78426 26.9696 2.78627 21.0729ZM8.47307 22.3999C8.47307 23.381 8.45802 24.1729 8.47307 24.9649C8.53124 27.6017 10.5713 29.3292 12.6996 29.2129C13.1659 29.1876 13.6353 29.2048 14.1037 29.2129C14.7677 29.22 15.4076 29.1057 15.9833 28.7669C16.2541 28.6081 16.4346 28.6657 16.6352 28.8852C16.9652 29.2433 17.3272 29.57 17.6582 29.927C17.8708 30.1576 18.0373 30.197 18.271 29.9452C18.7043 29.4779 19.1546 29.0258 19.616 28.5858C19.8517 28.3603 19.8045 28.2146 19.5849 28.0154C19.2138 27.6776 18.8828 27.2963 18.5097 26.9594C18.1366 26.6226 18.0574 26.2514 18.1196 25.7194C18.3502 23.7755 18.2851 21.8153 18.1828 19.8683C18.0664 17.6179 16.2119 15.7872 13.7527 15.952C13.3705 15.9783 12.9844 15.952 12.6003 15.9581C10.5031 15.9864 8.84818 17.4661 8.54428 19.5638C8.39985 20.5692 8.5192 21.5806 8.47307 22.3999Z" fill="#118F9F"/>
<path d="M33.0166 45.929C27.5124 45.929 23.1465 41.5323 23.1465 35.9887C23.1465 30.4167 27.5104 26.0321 33.0528 26.0352C38.5309 26.0352 42.8758 30.4592 42.8728 36.0251C42.8754 37.3294 42.6221 38.6214 42.1273 39.8265C41.6325 41.0317 40.906 42.1261 39.9898 43.0468C39.0736 43.9674 37.9857 44.6961 36.7889 45.1908C35.5921 45.6855 34.3101 45.9364 33.0166 45.929ZM32.2945 38.7721C32.5225 38.7569 32.744 38.6895 32.9423 38.5751C33.1406 38.4606 33.3104 38.3022 33.4389 38.1117C34.505 36.6218 35.5602 35.1249 36.6263 33.6361C36.8129 33.3761 36.7988 33.2042 36.526 33.0181C36.0396 32.6914 35.5572 32.3546 35.1018 31.9864C34.7779 31.7235 34.6003 31.8094 34.3897 32.124C33.6746 33.1617 32.9234 34.1742 32.2113 35.2129C31.9986 35.5244 31.8291 35.5477 31.5252 35.3454C30.9957 34.9944 30.431 34.6961 29.8934 34.3562C29.6397 34.1964 29.4922 34.2146 29.3358 34.4907C29.0349 35.0359 28.721 35.573 28.386 36.0969C28.2024 36.3831 28.2706 36.5409 28.5414 36.7038C29.5644 37.3106 30.5784 37.9296 31.5985 38.5405C31.8109 38.6681 32.0485 38.7472 32.2945 38.7721Z" fill="#118F9F"/>
<path d="M30.917 11.2362C29.7305 11.2362 28.544 11.2433 27.3575 11.2362C25.7528 11.224 24.5592 10.0285 24.5492 8.42238C24.5392 5.99494 24.5442 3.5675 24.5492 1.14006C24.5492 0.984296 24.463 0.762791 24.6495 0.689968C24.7999 0.633327 24.8992 0.824489 25.0015 0.927655C28.2531 4.20335 31.5024 7.48107 34.7493 10.7608C34.8587 10.8721 35.0753 10.9702 34.987 11.1573C34.9188 11.3019 34.7132 11.2332 34.5688 11.2332C33.3526 11.2379 32.1353 11.2389 30.917 11.2362Z" fill="#118F9F"/>
<path d="M11.21 22.5822C11.21 21.7731 11.204 20.9639 11.21 20.1548C11.218 19.3264 11.6673 18.7802 12.4697 18.6467C13.0804 18.54 13.7052 18.5451 14.3142 18.6619C15.0162 18.8025 15.4716 19.3365 15.4826 20.0445C15.4987 21.1389 15.4886 22.2333 15.4826 23.3276C15.4826 23.4409 15.5187 23.5906 15.4054 23.6523C15.2549 23.7342 15.1657 23.5845 15.0734 23.4965C14.3101 22.7612 14.3031 22.7531 13.5549 23.5259C13.1979 23.894 12.569 24.1965 12.577 24.6668C12.583 25.0997 13.2109 25.391 13.5348 25.7713C13.7224 25.9907 14.1517 26.1677 14.0363 26.4489C13.921 26.7301 13.4907 26.542 13.2009 26.5683C13.0005 26.5844 12.799 26.5817 12.5991 26.5602C11.7757 26.4823 11.221 25.8866 11.21 25.0541C11.1989 24.2217 11.21 23.4075 11.21 22.5822Z" fill="#118F9F"/>
</g>
</g>
<defs>
<clipPath id="clip0_39130_315303">
<rect width="45.994" height="46" fill="white"/>
</clipPath>
<clipPath id="clip1_39130_315303">
<rect width="40.0874" height="45.382" fill="white" transform="translate(2.78516 0.546875)"/>
</clipPath>
</defs>
</svg>
