<svg width="62" height="62" viewBox="0 0 62 62" fill="none" xmlns="http://www.w3.org/2000/svg">
<g clip-path="url(#clip0_7645_42131)">
<g clip-path="url(#clip1_7645_42131)">
<path d="M5.00006 13.6482C4.99057 11.9712 6.12459 10.8067 7.79342 10.7538C9.02369 10.7152 10.1943 10.3763 11.3378 9.94517C13.6831 9.06398 15.8231 7.78355 17.944 6.4699C19.8325 5.29996 21.6579 4.02224 23.6229 2.98244C25.5351 1.97043 27.452 0.960457 29.5031 0.236528C30.3578 -0.074361 31.2938 -0.0789092 32.1514 0.223653C33.1262 0.553082 34.0494 1.00181 34.9848 1.4241C37.8731 2.72893 40.5281 4.43708 43.1927 6.1337C45.353 7.50903 47.5424 8.83894 49.9331 9.79401C51.2806 10.3315 52.6607 10.7104 54.1255 10.7748C54.805 10.8103 55.4448 11.1058 55.9125 11.6001C56.3801 12.0943 56.6397 12.7495 56.6376 13.4299C56.6335 14.3755 56.5698 15.3231 56.4905 16.266C56.3807 17.5227 56.2661 18.7787 56.1251 20.0327C55.9259 21.7919 55.6703 23.5419 55.3585 25.2826C54.756 28.7137 53.8796 32.0911 52.738 35.3823C51.2468 39.6432 49.2722 43.6607 46.6714 47.3563C44.536 50.3977 42.0139 53.1482 39.1684 55.5384C36.9792 57.3712 34.6325 59.007 32.1555 60.427C31.2743 60.9327 30.3931 60.9401 29.5201 60.4344C26.2733 58.5609 23.2596 56.3762 20.5388 53.7883C16.8961 50.3238 13.9807 46.328 11.691 41.8617C9.24399 37.0884 7.65447 32.0263 6.58687 26.788C6.11239 24.4576 5.75381 22.1076 5.49895 19.7433C5.31051 17.9972 5.13834 16.2477 5.07259 14.4901C5.06445 14.2094 5.02514 13.9288 5.00006 13.6482ZM24.0716 18.8729C24.0716 19.629 24.0716 20.385 24.0716 21.141C24.0716 21.2806 24.0805 21.4189 24.2296 21.4867C24.3787 21.5545 24.4824 21.4467 24.5834 21.3572C24.8708 21.1037 25.148 20.8373 25.4477 20.5987C27.2398 19.1685 29.2307 18.4296 31.5522 18.8879C32.5649 19.0912 33.4854 19.4871 34.0806 20.3744C34.8872 21.5768 34.8106 22.8227 34.1145 24.0475C33.4753 25.1728 32.5182 26.0282 31.6065 26.9175C30.5321 27.9661 29.4652 29.014 28.6701 30.3067C27.7787 31.7606 27.6574 33.3149 27.9678 34.9383C28.079 35.5172 28.1515 35.5552 28.7358 35.5552H32.0877C32.8564 35.5552 32.8605 35.5355 32.6673 34.7946C32.3507 33.5827 32.4422 32.4297 33.1899 31.3716C33.7484 30.5812 34.4229 29.9027 35.14 29.2648C36.089 28.4182 37.0658 27.594 37.8514 26.5752C39.0932 24.9565 39.8849 23.186 39.8232 21.0915C39.748 18.5212 38.6072 16.6063 36.3662 15.3679C34.6594 14.4257 32.7988 14.1708 30.8758 14.2311C28.5711 14.3037 26.4454 14.9849 24.4363 16.0877C24.1767 16.2301 24.0622 16.4009 24.0696 16.7025C24.0832 17.4278 24.071 18.1504 24.0716 18.8729ZM30.911 39.2982C30.646 39.2838 30.3804 39.3115 30.124 39.3802C28.4294 39.8228 27.1416 41.474 27.9028 43.4133C28.4559 44.8266 30.2305 45.6603 31.7156 45.2367C33.1546 44.83 34.0738 43.7576 34.1233 42.4393C34.187 40.7311 32.7574 39.3104 30.911 39.2982Z" fill="#532973"/>
</g>
</g>
<defs>
<clipPath id="clip0_7645_42131">
<rect width="60.8091" height="60.8091" fill="white" transform="translate(0.269531 0.269653)"/>
</clipPath>
<clipPath id="clip1_7645_42131">
<rect width="51.6382" height="60.81" fill="white" transform="translate(5)"/>
</clipPath>
</defs>
</svg>
