<svg width="20" height="20" viewBox="0 0 20 20" fill="none" xmlns="http://www.w3.org/2000/svg">
<path d="M19.0073 8.26013C19.0073 10.525 19.0021 12.7899 19.0137 15.0555C19.0137 15.369 18.9387 15.4856 18.604 15.4786C17.6328 15.4574 16.6603 15.4696 15.6878 15.4722C15.2641 15.4722 15.1628 15.5767 15.1615 16.0049C15.1615 16.8813 15.1519 17.7576 15.166 18.6333C15.1705 18.9109 15.0858 19.0026 14.8018 19.0019C11.7144 18.9934 8.62704 18.9934 5.53964 19.0019C5.25821 19.0019 5.16975 18.9154 5.17423 18.6352C5.18834 17.6736 5.18641 16.712 5.17423 15.7504C5.17103 15.5062 5.26847 15.4029 5.49477 15.3658C5.74735 15.326 6.00121 15.2824 6.24867 15.219C6.46599 15.1632 6.50894 15.2593 6.5051 15.4453C6.50189 16.1184 6.5051 16.7915 6.5051 17.4646C6.5051 17.6486 6.49997 17.8397 6.69742 17.9384C6.89487 18.0371 7.01795 17.8781 7.14617 17.7736C8.98391 16.2436 10.8216 14.711 12.6594 13.1759C12.9254 12.9541 12.928 12.8053 12.6594 12.5803C10.8063 11.0336 8.95121 9.48907 7.09424 7.94665C6.98013 7.85177 6.86474 7.7383 6.6955 7.82869C6.52625 7.91908 6.51023 8.0755 6.51023 8.24154C6.51023 8.91467 6.50125 9.58779 6.51023 10.2609C6.51535 10.5173 6.44612 10.5815 6.17815 10.5398C5.18064 10.3808 5.17936 10.3911 5.17936 9.4006C5.17936 6.74058 5.17936 4.08056 5.17936 1.42054C5.17936 1.00192 5.17936 1 5.60952 1H18.5893C19.0053 1 19.0073 1 19.0073 1.43272C19.0081 3.70895 19.0081 5.98476 19.0073 8.26013ZM13.889 3.28991C12.6068 3.28991 11.3292 3.29632 10.0496 3.28478C9.77969 3.28478 9.70084 3.37325 9.70597 3.63544C9.71174 3.93162 9.90341 3.88546 10.0797 3.88546H17.6309C17.6841 3.88546 17.7379 3.88546 17.7912 3.88546C17.9405 3.88995 17.9905 3.81302 18.0027 3.67006C18.0245 3.41363 17.9739 3.28029 17.6649 3.28542C16.4064 3.29952 15.148 3.28991 13.889 3.28991ZM10.6458 4.89258C9.37646 4.89258 8.10713 4.89258 6.83781 4.89258C6.62754 4.89258 6.50317 4.91951 6.49869 5.18235C6.49356 5.45865 6.61921 5.49455 6.84807 5.49455C9.38671 5.48942 11.9254 5.48942 14.464 5.49455C14.6743 5.49455 14.7986 5.46763 14.8031 5.20479C14.8083 4.92848 14.6826 4.8913 14.4531 4.89258C13.1844 4.89643 11.9151 4.89258 10.6458 4.89258ZM11.9683 6.49526C10.9016 6.49526 9.83546 6.49975 8.76936 6.49206C8.53729 6.49206 8.41741 6.53309 8.4219 6.80682C8.42639 7.08056 8.55524 7.09402 8.76359 7.09338C10.8749 7.08954 12.9859 7.08954 15.0967 7.09338C15.3288 7.09338 15.4487 7.05235 15.4442 6.77862C15.4397 6.50488 15.3115 6.49078 15.1025 6.49142C14.0582 6.49847 13.0133 6.49526 11.9683 6.49526ZM11.6125 2.28342C12.5613 2.28342 13.5101 2.28342 14.4589 2.28342C14.6653 2.28342 14.7986 2.26483 14.8018 1.99815C14.805 1.73146 14.6909 1.67761 14.4563 1.6821C12.5587 1.68851 10.6614 1.68851 8.76423 1.6821C8.55717 1.6821 8.42446 1.70069 8.42062 1.96738C8.41677 2.23406 8.53216 2.28791 8.76616 2.28342C9.71622 2.2783 10.665 2.28342 11.6125 2.28342ZM16.7725 1.68787C16.4218 1.68787 16.0712 1.69428 15.7205 1.68787C15.5102 1.68274 15.475 1.79685 15.4782 1.97058C15.4814 2.14431 15.4782 2.29112 15.7186 2.28727C16.399 2.27958 17.0791 2.27958 17.7591 2.28727C17.9694 2.28727 18.0046 2.17829 18.0014 2.00456C17.9982 1.83083 18.0014 1.68402 17.761 1.68851C17.4334 1.69684 17.1033 1.68787 16.7738 1.68787H16.7725ZM7.75519 3.88546C8.09559 3.88546 8.436 3.87713 8.77577 3.88546C9.00912 3.89316 9.02579 3.76045 9.02835 3.58031C9.03156 3.38799 8.98861 3.28157 8.76551 3.28478C8.09538 3.29375 7.42567 3.29375 6.7564 3.28478C6.52369 3.28478 6.50574 3.41299 6.50317 3.59057C6.50317 3.78289 6.54356 3.8938 6.76665 3.8861C7.09616 3.87649 7.42568 3.88546 7.75519 3.88546ZM16.7539 4.89322C16.4141 4.89322 16.0737 4.90156 15.734 4.89322C15.5032 4.88553 15.4775 5.01375 15.4775 5.19581C15.4775 5.37787 15.5134 5.49712 15.7391 5.49391C16.4084 5.48493 17.0779 5.48493 17.7476 5.49391C17.9783 5.49712 18.004 5.37339 18.004 5.19068C18.004 5.00798 17.9681 4.88489 17.7424 4.89322C17.4136 4.9022 17.0834 4.89322 16.7539 4.89322ZM7.10322 2.28342C7.20899 2.28342 7.31541 2.27573 7.42375 2.28342C7.64043 2.30202 7.75583 2.24432 7.75326 1.99045C7.75326 1.75133 7.66736 1.66671 7.43593 1.68338C7.24548 1.69428 7.05455 1.69428 6.8641 1.68338C6.6519 1.67377 6.50253 1.68915 6.50125 1.97699C6.50125 2.25393 6.62946 2.29753 6.85256 2.2815C6.93269 2.27765 7.01859 2.28342 7.10322 2.28342ZM7.10322 7.09146C7.20963 7.09146 7.31605 7.08441 7.42375 7.09146C7.63979 7.10877 7.75583 7.05299 7.7539 6.79849C7.7539 6.55937 7.66864 6.47475 7.43721 6.49142C7.24676 6.50232 7.05583 6.50232 6.86538 6.49142C6.65447 6.48244 6.50253 6.4959 6.50189 6.78375C6.50189 7.06005 6.6269 7.10877 6.85192 7.09018C6.93269 7.08505 7.01731 7.09146 7.10193 7.09146H7.10322Z" fill="#387BFF"/>
<path d="M7.17351 8.75488C7.80689 9.27992 8.42296 9.78893 9.03582 10.3005C9.97884 11.0865 10.9161 11.8788 11.8636 12.659C12.0559 12.8161 12.1014 12.9154 11.8815 13.0949C10.3673 14.3457 8.86209 15.6073 7.35365 16.8651C7.29788 16.9119 7.24275 16.9933 7.1671 16.9683C7.06132 16.933 7.10299 16.8221 7.10299 16.7446C7.09851 16.1471 7.10299 15.549 7.09915 14.9496C7.09915 14.5579 6.99914 14.4784 6.61193 14.5598C4.95284 14.906 3.29503 15.2605 1.6353 15.6041C0.869858 15.7624 1.01666 15.756 1.01282 15.1182C1.00384 13.5488 1.01602 11.9769 1.00512 10.4101C1.00512 10.1281 1.06538 10.0345 1.36412 10.0998C2.8123 10.4146 4.26369 10.7127 5.71443 11.0172C6.00612 11.0781 6.29717 11.1454 6.59078 11.1993C6.97542 11.2704 7.09466 11.1704 7.09851 10.7711C7.10363 10.2165 7.09851 9.66136 7.09851 9.10427C7.10428 9.0049 7.07607 8.89464 7.17351 8.75488Z" fill="#387BFF"/>
<path d="M17.1519 16.067C17.5141 16.067 17.8769 16.067 18.2417 16.067C18.302 16.067 18.3808 16.0497 18.4103 16.1209C18.4398 16.192 18.3731 16.2369 18.3289 16.2779C17.5429 17.0006 16.7572 17.7218 15.9717 18.4415C15.9268 18.4826 15.8774 18.5473 15.8082 18.5095C15.739 18.4717 15.7601 18.3973 15.7601 18.3364C15.7601 17.6646 15.7633 16.9902 15.7601 16.3209C15.7601 16.1215 15.855 16.0645 16.0358 16.0645C16.405 16.0715 16.7788 16.0677 17.1519 16.067Z" fill="#387BFF"/>
</svg>
