<svg width="62" height="62" viewBox="0 0 62 62" fill="none" xmlns="http://www.w3.org/2000/svg">
<g clip-path="url(#clip0_4052_28920)">
<path d="M51.3107 52.4298L42.7925 59.382C42.574 59.5746 42.3157 59.7167 42.036 59.7981C41.7563 59.8852 41.4607 59.9084 41.1709 59.8661C40.8811 59.8238 40.6045 59.7171 40.3613 59.5538C40.1182 59.3905 39.9148 59.1748 39.766 58.9225C39.6172 58.6702 39.5269 58.3878 39.5017 58.096C39.426 57.3395 39.3807 56.5073 39.3201 55.713C39.1688 53.678 39.0251 51.643 38.8738 49.608C38.7376 47.7243 38.5939 45.8255 38.4577 43.9645C38.4485 43.7728 38.3768 43.5895 38.2535 43.4425L31.3693 34.9999L31.2634 34.8788C31.1877 34.7729 31.0969 34.7351 30.9834 34.8259C30.87 34.9167 30.7489 34.8713 30.6582 34.7578L30.0151 34.0013C29.8789 33.8197 29.8865 33.7668 30.0605 33.6079C30.1075 33.5635 30.1581 33.523 30.2118 33.4869L36.9371 27.9493C37.3003 27.6542 37.3003 27.6542 37.6029 28.0249L38.087 28.615C38.2383 28.8117 38.2383 28.8344 38.087 29.0159C38.068 29.0315 38.0527 29.0512 38.0422 29.0734C38.0317 29.0957 38.0262 29.1199 38.0262 29.1445C38.0262 29.1691 38.0317 29.1934 38.0422 29.2157C38.0527 29.2379 38.068 29.2575 38.087 29.2731L38.2081 29.4244C40.4927 32.2134 42.7622 35.0075 45.0166 37.8065C45.1596 37.9843 45.3558 38.1116 45.5764 38.1696L55.0933 40.8098L59.0346 41.9068C59.4064 41.9851 59.7473 42.1699 60.0159 42.4385C60.2846 42.7071 60.4693 43.0481 60.5477 43.4198C60.639 43.7742 60.6239 44.1476 60.5041 44.4934C60.3844 44.8392 60.1653 45.142 59.8744 45.364L55.6455 48.8288L51.3107 52.4298ZM50.2895 51.1967L58.6488 44.3881C58.7396 44.3125 58.8304 44.2368 58.9136 44.1536C58.9608 44.1107 58.994 44.0545 59.0089 43.9924C59.0237 43.9304 59.0195 43.8653 58.9968 43.8056C58.978 43.7346 58.9384 43.6708 58.8832 43.6223C58.8279 43.5738 58.7595 43.5428 58.6867 43.5333L57.4687 43.1928C53.2323 41.9976 48.9908 40.8098 44.7443 39.6297C44.4827 39.5597 44.2514 39.4055 44.0861 39.1909L37.0279 30.5441C36.7707 30.2188 36.7631 30.2188 36.4454 30.4836L32.7688 33.5096C32.4359 33.7895 32.4359 33.7895 32.7083 34.1299C35.0635 37.0046 37.4188 39.8793 39.774 42.7541C39.9427 42.957 40.041 43.2092 40.0539 43.4727C40.1372 44.7739 40.2355 46.0676 40.3339 47.3687C40.581 50.7982 40.8331 54.2302 41.0904 57.6648C41.0792 57.7729 41.0792 57.8819 41.0904 57.9901C41.0978 58.0522 41.1217 58.1111 41.1598 58.1607C41.1979 58.2103 41.2486 58.2488 41.3067 58.272C41.3647 58.2952 41.428 58.3024 41.4897 58.2927C41.5515 58.283 41.6096 58.2569 41.6577 58.217C41.7561 58.1489 41.8469 58.0733 41.9376 57.9976L50.2895 51.1967Z" fill="#672020"/>
<path d="M49.7981 50.6444L43.8898 55.486C43.7929 55.5725 43.6892 55.6509 43.5796 55.7205C43.4243 55.821 43.2465 55.8812 43.0621 55.8956C42.8777 55.91 42.6927 55.8783 42.5237 55.8031C42.3547 55.728 42.2071 55.612 42.0942 55.4654C41.9814 55.3189 41.9069 55.1466 41.8774 54.964C41.8245 54.6311 41.8169 54.2907 41.7867 53.9503L41.2874 47.5729C41.2117 46.65 41.1436 45.7346 41.0604 44.8117C41.0461 44.7133 41.0598 44.6129 41.1 44.5219C41.1401 44.4309 41.2051 44.3531 41.2874 44.2973C42.634 43.2079 43.973 42.111 45.3044 41.0065C45.3771 40.9385 45.4664 40.8908 45.5633 40.8682C45.6603 40.8457 45.7614 40.849 45.8567 40.8779C48.981 41.7857 52.1054 42.6708 55.2298 43.571C55.3659 43.571 55.5097 43.6467 55.6458 43.6996C55.818 43.7585 55.9729 43.859 56.0969 43.9922C56.2208 44.1253 56.31 44.287 56.3564 44.4629C56.4028 44.6389 56.405 44.8235 56.3629 45.0005C56.3208 45.1775 56.2356 45.3413 56.1149 45.4774C56.0202 45.5872 55.9136 45.6862 55.7971 45.7725L49.7981 50.6444Z" fill="#672020"/>
<path d="M36.6348 34.8864C36.5304 34.9968 36.4037 35.0837 36.2631 35.1416C36.1226 35.1994 35.9714 35.2267 35.8195 35.2217C35.6676 35.2168 35.5184 35.1796 35.382 35.1128C35.2455 35.0459 35.1247 34.9509 35.0277 34.8339C34.9307 34.7169 34.8596 34.5807 34.8191 34.4342C34.7786 34.2877 34.7697 34.1343 34.7929 33.9841C34.8161 33.8339 34.8709 33.6903 34.9536 33.5629C35.0364 33.4354 35.1453 33.327 35.2731 33.2448C35.4985 33.0732 35.7813 32.9948 36.0629 33.0257C36.3445 33.0567 36.6034 33.1947 36.7861 33.4112C36.9518 33.6308 37.0283 33.9049 37.0002 34.1785C36.9722 34.4521 36.8416 34.705 36.6348 34.8864Z" fill="#672020"/>
<path d="M39.0407 37.4586C38.9654 37.3797 38.908 37.2855 38.8725 37.1824C38.837 37.0794 38.8242 36.9698 38.835 36.8613C38.8458 36.7529 38.8799 36.648 38.935 36.5539C38.99 36.4598 39.0648 36.3787 39.1542 36.3162C39.3197 36.1818 39.5318 36.1187 39.7439 36.1406C39.956 36.1626 40.1507 36.268 40.2851 36.4335C40.4196 36.599 40.4827 36.8112 40.4607 37.0233C40.4387 37.2354 40.3334 37.43 40.1679 37.5645C40.0897 37.6376 39.9969 37.6932 39.8957 37.7278C39.7944 37.7624 39.687 37.7751 39.5805 37.7651C39.4739 37.7551 39.3707 37.7226 39.2777 37.6697C39.1846 37.6169 39.1039 37.5449 39.0407 37.4586Z" fill="#672020"/>
<path d="M40.3489 40.7115C40.2784 40.632 40.2253 40.5384 40.1933 40.437C40.1613 40.3356 40.151 40.2286 40.1631 40.123C40.1753 40.0173 40.2096 39.9154 40.2637 39.8239C40.3179 39.7324 40.3908 39.6533 40.4776 39.5919C40.6439 39.4604 40.8551 39.3995 41.0659 39.4221C41.2767 39.4447 41.4701 39.5492 41.6047 39.7129C41.7304 39.8834 41.7869 40.0951 41.7631 40.3055C41.7392 40.5159 41.6367 40.7096 41.4761 40.8477C41.308 40.9774 41.0955 41.0358 40.8847 41.0103C40.6738 40.9849 40.4814 40.8775 40.3489 40.7115Z" fill="#672020"/>
<path d="M29.4706 60.6C28.7482 60.5227 28.0387 60.3524 27.36 60.0931C26.877 59.9146 26.4365 59.6374 26.0666 59.2792C25.6967 58.921 25.4055 58.4897 25.2115 58.0127C24.9438 57.3789 24.7139 56.7296 24.5231 56.0685C24.3695 55.3219 24.3413 54.5549 24.4399 53.799C24.5045 53.1655 24.4584 52.5255 24.3037 51.9078C24.1103 51.2098 23.7135 50.5852 23.1638 50.1136C22.6141 49.6421 21.9364 49.3449 21.2171 49.26C20.672 49.1543 20.109 49.1876 19.5802 49.3568C19.0513 49.526 18.5736 49.8258 18.1911 50.2283C17.2682 51.0302 16.5117 51.9304 15.5661 52.687C15.0483 53.1687 14.4135 53.5066 13.7247 53.6672C13.036 53.8277 12.3172 53.8054 11.6398 53.6023C10.9503 53.3322 10.3225 52.9257 9.79392 52.407C8.93196 51.6632 8.14173 50.84 7.43362 49.9484C6.97253 49.3852 6.68373 48.7009 6.60188 47.9776C6.52002 47.2544 6.64859 46.5229 6.97216 45.8708C7.22032 45.3063 7.57183 44.7932 8.00857 44.3578C8.76507 43.5484 9.64262 42.8448 10.3537 42.0051C10.8044 41.4972 11.0974 40.8689 11.1968 40.1972C11.2962 39.5254 11.1978 38.8393 10.9135 38.2226C10.6746 37.5974 10.2636 37.0525 9.72819 36.6509C9.19275 36.2494 8.55463 36.0074 7.88753 35.9531C6.73764 35.8093 5.58019 35.8396 4.42273 35.7791C3.5371 35.7678 2.66937 35.5281 1.90357 35.0831C1.43712 34.7961 1.04035 34.409 0.742024 33.9497C0.443699 33.4905 0.251288 32.9706 0.17874 32.4278C-0.0595799 30.9876 -0.0595799 29.518 0.17874 28.0778C0.319947 27.1915 0.74915 26.3762 1.40002 25.7582C2.05089 25.1401 2.8872 24.7536 3.7797 24.6584C4.82181 24.5815 5.86733 24.5613 6.91163 24.5979C7.43587 24.5966 7.95841 24.5382 8.47004 24.4239C9.21377 24.2329 9.87881 23.8133 10.3715 23.2242C10.8641 22.6352 11.1596 21.9065 11.2161 21.1407C11.2708 20.6192 11.2074 20.092 11.0306 19.5983C10.8538 19.1046 10.5682 18.657 10.1949 18.2887C9.48375 17.5322 8.74994 16.7757 8.0237 16.0646C7.27677 15.4012 6.79716 14.4884 6.67462 13.497C6.55209 12.5056 6.79503 11.5035 7.35797 10.6782C8.17439 9.32612 9.3061 8.19182 10.6563 7.37231C11.4247 6.8891 12.3309 6.67245 13.2348 6.75587C14.1386 6.83928 14.9898 7.2181 15.6568 7.83378C16.5041 8.54489 17.2455 9.34679 18.0625 10.1033C18.7037 10.7295 19.5279 11.135 20.4153 11.2607C20.9109 11.3106 21.4115 11.2604 21.8874 11.1132C22.3634 10.966 22.8049 10.7247 23.1858 10.4037C23.5668 10.0827 23.8794 9.68853 24.1052 9.24449C24.331 8.80044 24.4654 8.31558 24.5004 7.81865C24.5004 6.69145 24.5004 5.54913 24.5685 4.43707C24.5696 3.60457 24.8088 2.78975 25.2578 2.08873C25.7069 1.38771 26.347 0.829709 27.1028 0.480549C27.6416 0.255557 28.2144 0.122583 28.7973 0.0871665C29.9804 -0.0504657 31.1768 -0.0250109 32.3529 0.162817C33.2071 0.295071 33.9972 0.695358 34.6091 1.30589C35.221 1.91642 35.623 2.70561 35.7572 3.55952C35.862 4.21975 35.8949 4.88937 35.8555 5.5567C35.7798 6.48665 35.8256 7.42251 35.9917 8.34064C36.1124 9.01811 36.4256 9.64654 36.8937 10.1509C37.3619 10.6553 37.9653 11.0143 38.6319 11.1851C39.2525 11.3994 39.9215 11.4314 40.5597 11.2772C41.1979 11.123 41.7786 10.7892 42.2329 10.3151C42.9894 9.55861 43.7459 8.8021 44.5024 8.0456C45.1729 7.36945 46.0477 6.93337 46.9913 6.80493C47.792 6.71259 48.6019 6.8656 49.3137 7.2437C50.8681 8.04436 52.1755 9.25245 53.0963 10.7388C53.6208 11.5512 53.843 12.5222 53.7241 13.4819C53.6051 14.4417 53.1526 15.329 52.4457 15.9889C51.7648 16.7076 51.0159 17.3733 50.3653 18.1222C49.6149 18.8848 49.173 19.8979 49.1246 20.9667C49.1357 21.8891 49.4883 22.7747 50.1143 23.4524C50.7402 24.13 51.5951 24.5516 52.5138 24.6358C53.0858 24.666 53.659 24.666 54.231 24.6358C55.0729 24.5991 55.9164 24.6422 56.7502 24.7644C57.6657 24.8883 58.5123 25.3183 59.1523 25.9845C59.7924 26.6506 60.1882 27.5137 60.2755 28.4334C60.4913 29.8039 60.4683 31.2013 60.2074 32.5639C60.0462 33.4186 59.6206 34.2012 58.9908 34.8011C58.361 35.401 57.5588 35.7881 56.6972 35.9077C55.8132 36.0376 54.9172 36.0655 54.0268 35.9909C53.2058 35.8698 52.3675 35.9644 51.5942 36.2655C50.8209 36.5666 50.1392 37.0638 49.6163 37.7082C49.4499 37.9124 49.3364 37.9124 49.1473 37.7082C48.4822 37.2081 47.8757 36.6346 47.3393 35.9985C46.7752 35.2226 46.4587 34.2944 46.4315 33.3356C46.3785 32.2991 46.5979 31.293 46.6433 30.3095C46.7299 28.7788 46.5586 27.2444 46.1364 25.7705C45.4169 23.1372 44.0523 20.7249 42.1661 18.7515C40.2799 16.7781 37.9316 15.306 35.3335 14.4683C33.2865 13.8106 31.1244 13.589 28.9865 13.8177C26.7161 13.9614 24.4993 14.5691 22.4729 15.6031C20.3452 16.6713 18.4834 18.202 17.0239 20.083C15.5644 21.964 14.5442 24.1477 14.0379 26.4741C13.6368 28.1214 13.4938 29.8211 13.6143 31.5124C13.822 34.8569 15.0764 38.0513 17.2001 40.6434C19.6536 43.7344 23.1503 45.8244 27.0347 46.5214C29.0978 46.8941 31.2128 46.8735 33.2683 46.4609C33.7313 46.35 34.2157 46.3667 34.67 46.5092C35.1242 46.6517 35.5313 46.9148 35.848 47.2704C36.5089 47.9403 37.2168 48.5622 37.9662 49.1314C38.1931 49.3129 38.178 49.3962 37.9662 49.5323C37.2842 49.8944 36.7182 50.4412 36.3328 51.1102C35.9474 51.7793 35.7584 52.5433 35.7874 53.3149C35.7874 53.9957 35.7874 54.6841 35.8253 55.3725C35.8726 56.1829 35.7621 56.9948 35.5 57.7631C35.3345 58.2512 35.0628 58.6964 34.7043 59.0667C34.3458 59.4369 33.9096 59.7229 33.4271 59.904C32.5205 60.2892 31.5573 60.5243 30.5751 60.6H30.4238H29.4706Z" fill="#672020"/>
<path d="M27.201 23.9322C26.8708 24.0347 26.5138 24.0063 26.2039 23.8528C25.8941 23.6992 25.6552 23.4324 25.5367 23.1076C25.4517 22.7718 25.4965 22.4164 25.6619 22.1122C25.8273 21.8079 26.1014 21.5772 26.4294 21.466C26.7615 21.3753 27.1155 21.411 27.4228 21.5661C27.7302 21.7212 27.9692 21.9847 28.0937 22.3057C28.1857 22.6397 28.1439 22.9963 27.9773 23.3C27.8106 23.6037 27.5321 23.8305 27.201 23.9322Z" fill="#672020"/>
<path d="M32.285 28.5318C32.3994 28.8709 32.3743 29.2415 32.2154 29.5621C32.0565 29.8828 31.7768 30.1272 31.4377 30.2415C31.0986 30.3559 30.728 30.3309 30.4074 30.172C30.0867 30.0131 29.8424 29.7333 29.728 29.3942C29.6362 29.0753 29.6736 28.7329 29.8322 28.4413C29.9907 28.1497 30.2577 27.9322 30.5753 27.8358C30.7328 27.7655 30.9028 27.7278 31.0752 27.7249C31.2477 27.722 31.4189 27.7541 31.5786 27.8191C31.7383 27.8841 31.8833 27.9808 32.0047 28.1033C32.126 28.2257 32.2214 28.3715 32.285 28.5318Z" fill="#672020"/>
<path d="M31.5357 24.4996C31.46 24.4213 31.4021 24.3275 31.366 24.2248C31.3299 24.122 31.3164 24.0126 31.3265 23.9042C31.3365 23.7957 31.3699 23.6907 31.4243 23.5963C31.4787 23.5019 31.5528 23.4204 31.6416 23.3573C31.8067 23.2314 32.0135 23.173 32.2201 23.1941C32.4266 23.2152 32.6174 23.3141 32.7536 23.4708C32.8896 23.6335 32.9556 23.8434 32.9372 24.0547C32.9187 24.2659 32.8174 24.4613 32.6553 24.598C32.5777 24.6702 32.4859 24.7253 32.3857 24.7597C32.2855 24.7942 32.1792 24.8072 32.0736 24.7979C31.9681 24.7886 31.8656 24.7573 31.773 24.7059C31.6803 24.6545 31.5994 24.5842 31.5357 24.4996Z" fill="#672020"/>
<path d="M27.8593 27.745C27.784 27.6662 27.7266 27.572 27.6911 27.4689C27.6556 27.3658 27.6428 27.2563 27.6536 27.1478C27.6644 27.0393 27.6985 26.9344 27.7536 26.8403C27.8087 26.7463 27.8834 26.6652 27.9728 26.6027C28.1383 26.4795 28.345 26.4248 28.5499 26.4501C28.7547 26.4755 28.9419 26.5788 29.0725 26.7386C29.2031 26.8984 29.267 27.1025 29.251 27.3082C29.235 27.514 29.1402 27.7057 28.9865 27.8434C28.9088 27.9168 28.8165 27.973 28.7155 28.0082C28.6146 28.0434 28.5073 28.0568 28.4008 28.0475C28.2943 28.0382 28.1909 28.0064 28.0976 27.9543C28.0043 27.9022 27.923 27.8308 27.8593 27.745Z" fill="#672020"/>
<path d="M22.3592 23.0244C22.4587 23.3585 22.4248 23.7181 22.2645 24.0277C22.1043 24.3373 21.8303 24.5727 21.5001 24.6844C21.1699 24.7961 20.8093 24.7754 20.4941 24.6266C20.1788 24.4779 19.9335 24.2127 19.8098 23.8868C19.7622 23.7289 19.7465 23.5631 19.7634 23.399C19.7804 23.235 19.8297 23.0759 19.9084 22.931C19.9872 22.7861 20.0939 22.6582 20.2224 22.5548C20.3509 22.4514 20.4987 22.3744 20.6571 22.3284C20.814 22.2582 20.9835 22.2206 21.1554 22.2178C21.3273 22.215 21.4979 22.2471 21.6571 22.3122C21.8162 22.3773 21.9605 22.4739 22.0811 22.5963C22.2018 22.7188 22.2964 22.8644 22.3592 23.0244Z" fill="#672020"/>
<path d="M24.0766 30.6878C23.4964 30.8648 22.8705 30.8139 22.3265 30.5454C21.7825 30.277 21.3613 29.8111 21.1489 29.2428C20.9613 28.6409 21.0205 27.9892 21.3135 27.4309C21.6065 26.8726 22.1092 26.4536 22.7111 26.266C23.313 26.0784 23.9648 26.1376 24.5231 26.4306C25.0813 26.7235 25.5004 27.2263 25.688 27.8282C25.8469 28.4209 25.7672 29.0523 25.4659 29.5869C25.1647 30.1215 24.6659 30.5167 24.0766 30.6878Z" fill="#672020"/>
</g>
<defs>
<clipPath id="clip0_4052_28920">
<rect width="60.8091" height="60.8091" fill="white" transform="translate(0.269775 0.269714)"/>
</clipPath>
</defs>
</svg>
