<svg width="61" height="61" viewBox="0 0 61 61" fill="none" xmlns="http://www.w3.org/2000/svg">
<g clip-path="url(#clip0_18636_15235)">
<path d="M46.9265 39.8682C46.9265 44.0942 46.9265 48.3206 46.9265 52.5475C46.9265 53.5114 46.9265 53.5127 45.9457 53.5127H25.8542C24.9007 53.5127 24.9007 53.5127 25.196 52.5826C27.8315 44.3041 22.485 35.6093 13.9203 34.2408C12.079 33.9277 10.1928 34.0008 8.38129 34.4554C7.82323 34.5985 7.63591 34.445 7.63721 33.8791C7.64589 27.6351 7.64589 21.3911 7.63721 15.147C7.63721 14.6033 7.79721 14.3795 8.38129 14.3821C11.8701 14.4047 15.3594 14.4047 18.8492 14.3821C19.4788 14.3821 19.6206 14.6293 19.618 15.1886C19.6037 18.2873 19.6102 21.3872 19.618 24.4858C19.618 26.4279 20.4986 27.3138 22.4317 27.3164C25.6829 27.3164 28.935 27.3164 32.188 27.3164C34.0729 27.3164 34.964 26.4123 34.9692 24.5196C34.9692 23.1108 34.9692 21.702 34.9692 20.2931C34.9692 20.0239 34.9002 19.6961 35.2515 19.5686C35.6027 19.4411 35.8173 19.6349 36.045 19.8652C37.2483 21.0828 38.4802 22.2743 39.6665 23.5075C40.4874 24.3609 41.4279 24.6548 42.5531 24.2984C42.8822 24.1943 43.0734 24.2529 43.2256 24.5742C43.7538 25.6877 44.7047 26.091 45.8754 26.1001C46.9304 26.1092 46.9317 26.1092 46.9317 27.185L46.9265 39.8682Z" fill="#397CBC"/>
<path d="M54.612 21.9295C54.4168 21.9295 54.305 21.7851 54.184 21.6693C53.7469 21.2479 53.2955 20.8394 52.8831 20.3919C52.342 19.7975 51.862 20.2801 51.3494 20.4219C50.902 20.5519 50.8096 20.8485 50.8213 21.2609C50.8382 21.8671 50.8213 22.4733 50.8213 23.0821C50.8213 23.4853 50.6314 23.6779 50.2281 23.6766C48.8189 23.6766 47.4101 23.6766 46.0017 23.6766C45.5854 23.6766 45.4306 23.4749 45.4436 23.0691C45.4618 22.5071 45.4241 21.9412 45.454 21.378C45.4775 20.9279 45.3422 20.6729 44.8895 20.5038C43.5561 20.0069 43.9503 19.8534 42.8797 20.9279C41.6556 22.1611 41.6582 22.1624 40.4276 20.9279C39.8175 20.3126 39.2009 19.7025 38.5895 19.0885C37.8558 18.3535 37.8558 18.3509 38.5596 17.6303C38.8926 17.2894 39.2191 16.9395 39.5677 16.6156C39.863 16.3411 39.9202 16.0614 39.7537 15.6881C39.1189 14.2663 39.569 14.5173 38.0223 14.4978C36.2571 14.4822 36.2571 14.4978 36.2571 12.7534C36.2571 11.8862 36.2571 11.0189 36.2571 10.1517C36.2571 9.14224 36.2831 9.11883 37.2613 9.11102H38.237C39.3323 9.11102 39.6041 8.87558 39.8318 7.78547C39.8955 7.48108 39.7576 7.28334 39.5716 7.09732C39.1224 6.65764 38.6697 6.22403 38.2136 5.79648C37.9352 5.53631 37.9378 5.29567 38.2136 5.02509C39.2464 4.00437 40.2732 2.97758 41.2939 1.94471C41.5762 1.65852 41.8026 1.70405 42.0601 1.97202C42.4959 2.42471 42.9551 2.8553 43.3883 3.31059C43.6485 3.57857 43.8852 3.6488 44.2495 3.4953C45.4475 2.99058 45.4527 3.0049 45.4527 1.69496C45.4527 0.0103684 45.4527 0.010343 47.1438 0.010343C48.1403 0.010343 49.138 0.0233514 50.1358 0.010343C50.6327 0.00253793 50.8473 0.210687 50.8343 0.707608C50.8174 1.3138 50.8343 1.92129 50.8343 2.52879C50.8343 2.83318 50.885 3.12717 51.2246 3.17921C51.7202 3.25856 52.1443 3.90638 52.7101 3.40555C53.2305 2.94505 53.73 2.46504 54.2204 1.97463C54.4975 1.69755 54.7147 1.71447 54.984 1.98504C55.9661 2.99319 56.9548 3.99742 57.9577 4.98606C58.2855 5.31127 58.2504 5.55715 57.9343 5.85374C57.4777 6.28432 57.0575 6.75261 56.5957 7.17669C56.2341 7.5084 56.3564 7.82712 56.5437 8.16664C56.7557 8.5569 56.7076 9.15526 57.4101 9.12014C58.0149 9.09022 58.6237 9.12924 59.2312 9.11363C59.7191 9.10062 59.9467 9.29315 59.9415 9.79917C59.9276 11.1425 59.9276 12.4867 59.9415 13.8318C59.9415 14.3365 59.7438 14.5278 59.2404 14.503C58.6355 14.4718 58.0267 14.5108 57.4192 14.4926C57.0562 14.4809 56.8806 14.637 56.7531 14.9687C56.251 16.2696 56.2406 16.2696 57.2553 17.2712C58.3441 18.3522 58.3428 18.3509 57.2436 19.4462C56.5216 20.1643 55.8035 20.8875 55.0816 21.6056C54.945 21.7331 54.8266 21.8983 54.612 21.9295ZM48.0999 8.06908C45.9301 8.06908 44.3275 9.6795 44.3275 11.8532C44.3275 13.9957 45.9314 15.6022 48.0661 15.6088C50.245 15.6153 51.862 14.0178 51.8659 11.8532C51.8737 9.66519 50.2854 8.07038 48.0999 8.06908Z" fill="#397CBC"/>
<path d="M2.75647 49.5178C3.47193 49.5178 4.18739 49.5322 4.90155 49.5178C5.87848 49.4931 6.3624 49.0079 6.42484 48.0297C6.60826 45.1483 8.74424 43.0527 11.6022 42.9564C14.2351 42.8627 16.5727 44.9441 16.9265 47.6954C16.9486 47.8671 16.9773 48.0388 17.0007 48.2157C17.123 49.1263 17.5288 49.5166 18.4537 49.5283C19.8846 49.5452 21.3156 49.5478 22.7465 49.5283C23.2889 49.5205 23.4216 49.7325 23.328 50.2398C22.3484 55.5512 18.0518 59.9584 12.0107 60.0143C7.86487 60.0534 4.47618 58.4468 1.99417 55.0711C0.92098 53.609 0.364221 51.9335 0.0351078 50.1644C-0.0624553 49.6349 0.153482 49.514 0.617882 49.5296C1.33334 49.5491 2.04881 49.5296 2.76297 49.5296L2.75647 49.5178ZM12.8458 48.8531H12.8341C12.8341 48.1819 12.8536 47.5106 12.8341 46.8394C12.8107 46.2371 12.4438 45.8794 11.8715 45.7779C11.2991 45.6765 10.8633 45.9444 10.5966 46.457C10.4668 46.7325 10.4073 47.036 10.4236 47.3402C10.4236 48.3146 10.4041 49.2915 10.4327 50.2632C10.4496 50.8486 10.3365 51.3039 9.88898 51.7605C8.90554 52.7712 9.00311 54.3869 9.99695 55.3261C10.8763 56.1547 12.4959 56.1417 13.3895 55.2975C14.3444 54.396 14.4927 52.7634 13.543 51.8489C12.929 51.2571 12.7899 50.6522 12.8471 49.8977C12.8666 49.5478 12.8458 49.2004 12.8458 48.8531Z" fill="#397CBC"/>
<path d="M22.0363 19.6388C22.0363 18.1233 22.0545 16.6079 22.0271 15.0937C22.0167 14.5538 22.2067 14.3847 22.7387 14.3886C25.7905 14.4068 28.8427 14.4068 31.8953 14.3886C32.4287 14.3886 32.6264 14.5668 32.6238 15.0989C32.6099 18.1506 32.6099 21.2029 32.6238 24.2555C32.6238 24.785 32.4131 24.9866 31.8888 24.984C28.837 24.9718 25.7848 24.9718 22.7322 24.984C22.1923 24.984 22.0193 24.7745 22.0284 24.249C22.0519 22.714 22.0363 21.1764 22.0363 19.6388Z" fill="#397CBC"/>
<path d="M11.7622 36.4171C13.3133 36.4609 14.8425 36.7944 16.2709 37.4006C16.7132 37.5944 16.812 37.8012 16.5311 38.2279C16.0107 39.0019 15.5307 39.798 15.0624 40.6019C14.8296 41.0052 14.5798 41.1223 14.1141 40.9688C12.5435 40.4317 10.8399 40.4262 9.26587 40.9531C8.8457 41.0832 8.58293 41.0351 8.35528 40.6409C7.87007 39.8214 7.35754 39.0175 6.83981 38.2188C6.56533 37.796 6.68631 37.5814 7.12729 37.3901C8.59204 36.7527 10.1335 36.4691 11.7622 36.4171Z" fill="#397CBC"/>
<path d="M21.1842 47.0931C20.6872 47.0541 20.0251 47.27 19.4931 47.002C18.9337 46.7197 19.0742 45.9691 18.8505 45.441C18.4602 44.5304 18.0231 43.6732 17.2816 43.0084C16.8784 42.6455 16.7938 42.3151 17.1268 41.8377C17.6472 41.0949 18.1194 40.317 18.5942 39.5417C18.8271 39.1593 19.0469 39.0773 19.4072 39.4051C21.4307 41.2056 22.7908 43.6336 23.2694 46.2996C23.3995 46.9968 23.3202 47.0801 22.5878 47.0905C22.1559 47.0983 21.724 47.0931 21.1842 47.0931Z" fill="#397CBC"/>
<path d="M1.99676 47.0892H0.565836C0.13786 47.0892 -0.0702817 46.9357 0.014273 46.4544C0.513796 43.6471 1.80033 41.2887 3.95453 39.409C4.26022 39.141 4.49568 39.1163 4.73503 39.5066C5.23716 40.3391 5.75619 41.1626 6.28303 41.9782C6.49246 42.3034 6.45994 42.5414 6.18546 42.8289C5.16691 43.893 4.39941 45.1067 4.12624 46.5831C4.0599 46.9461 3.84135 47.0905 3.48882 47.0879C2.9906 47.0866 2.49368 47.0892 1.99676 47.0892Z" fill="#397CBC"/>
</g>
<defs>
<clipPath id="clip0_18636_15235">
<rect width="59.9402" height="60" fill="white"/>
</clipPath>
</defs>
</svg>
