<svg width="62" height="61" viewBox="0 0 62 61" fill="none" xmlns="http://www.w3.org/2000/svg">
<path d="M15.169 55.1834C14.7182 55.2074 14.2677 55.1321 13.8492 54.9628C13.4308 54.7935 13.0546 54.5343 12.7474 54.2035C10.7637 52.2252 8.76397 50.2601 6.80695 48.2524C5.61886 47.0323 5.29581 45.5825 6.32104 44.1141C7.86956 41.9035 6.4038 40.2481 5.62954 38.4566C5.36255 37.8159 4.49485 37.8239 3.87277 37.621C1.65143 36.9001 1.00799 36.0591 1.00532 33.747C1.00532 31.1225 0.991973 28.498 1.00532 25.8735C1.01867 24.0447 1.82497 23.0008 3.58709 22.4508C5.4026 21.8848 7.02588 19.8583 7.12467 18.0321C7.15937 17.3647 6.75088 16.8574 6.47322 16.3101C5.37323 14.1582 5.5441 13.0074 7.24214 11.2907C8.89746 9.61404 10.5546 7.93736 12.2134 6.26068C13.8607 4.59735 15.1503 4.39177 17.2488 5.45972C17.8142 5.74185 18.4338 5.89873 19.0653 5.91969C19.6968 5.94064 20.3254 5.82517 20.9083 5.58114C21.4911 5.3371 22.0145 4.97025 22.4427 4.5056C22.8709 4.04095 23.1938 3.48942 23.3895 2.88863C24.097 0.65662 24.946 0.0185233 27.2501 0.0131836C29.8328 0.0131836 32.4137 0.0131836 34.9928 0.0131836C36.9631 0.0131836 38.1486 0.702008 38.493 2.60563C38.9629 5.18739 41.1281 5.33691 42.8796 6.09515C43.483 6.36214 44.057 5.81214 44.6043 5.5318C46.9111 4.35172 47.9817 4.51725 49.8266 6.36214C51.5246 8.06017 53.2307 9.75287 54.9207 11.4616C56.3945 12.9514 56.5867 14.1875 55.6656 16.0404C54.304 18.7877 55.4547 21.4896 58.4022 22.4641C60.2711 23.0782 60.9893 24.0447 60.9973 26.007C61.0098 28.6769 61.0098 31.3468 60.9973 34.0167C60.9973 35.9737 60.3085 37.1377 58.3835 37.5035C55.8124 37.9921 55.6683 40.1547 54.9127 41.9088C54.6457 42.5042 55.2144 43.0809 55.4947 43.6282C56.6428 45.8735 56.4826 46.9842 54.7231 48.7517C52.9637 50.5191 51.271 52.2225 49.5302 53.9419C48.0484 55.405 46.8096 55.5892 44.946 54.6574C43.2961 53.8351 40.8318 54.1475 39.4301 55.3623C38.8828 55.8348 38.824 56.537 38.6291 57.1591C37.9083 59.3644 37.0646 59.9998 34.7365 60.0025C32.1547 60.0025 29.5729 60.0025 26.9938 60.0025C25.0395 60.0025 23.8674 59.311 23.523 57.378C23.0531 54.7882 20.8959 54.6601 19.1418 53.9205C18.5384 53.6536 17.9643 54.2035 17.417 54.4866C16.6881 54.8443 15.9913 55.2528 15.169 55.1834ZM50.1309 29.7529C50.1309 19.5299 41.5874 11.0638 31.2603 11.0451C20.2791 11.0451 11.9198 19.3057 11.8744 30.2308C11.8316 40.3389 20.7383 49.1308 31.02 49.1281C41.4005 49.1255 50.1203 40.3015 50.1309 29.7529Z" fill="#E90C0C"/>
<path d="M30.9906 47.1818C21.5179 47.1818 13.6712 39.3965 13.6792 30.0012C13.6792 20.7795 21.833 12.647 31.02 12.6818C35.5686 12.6923 39.9276 14.5049 43.1427 17.7224C46.3578 20.94 48.1669 25.3005 48.1739 29.849C48.1633 39.6234 40.6743 47.1791 30.9906 47.1818ZM34.7044 30.0413C34.7044 29.0187 34.7685 27.9935 34.6911 26.9762C34.5683 25.3743 33.5671 24.7576 31.2203 24.7549C28.465 24.7549 27.429 25.2889 27.3463 26.9575C27.2502 28.9546 27.2582 30.9624 27.3463 32.9567C27.413 34.6094 28.4329 35.2395 30.745 35.2448C33.5938 35.2448 34.5709 34.7109 34.6991 32.9754C34.7498 32.0036 34.7044 31.0211 34.7044 30.0413ZM21.566 24.7789V24.7603C21.032 24.7603 20.4981 24.7362 19.9641 24.7603C18.1459 24.8564 17.2301 25.8923 17.2248 27.8306C17.2195 29.7689 18.1112 30.8449 19.8947 30.9543C20.5595 30.9944 21.2296 30.9891 21.8944 30.973C22.7221 30.949 22.9837 31.4109 22.981 32.1451C22.9784 32.8793 22.674 33.3065 21.865 33.2905C20.7971 33.2718 19.7291 33.2905 18.6612 33.3038C18.0364 33.3038 17.4678 33.4694 17.4357 34.2249C17.4037 34.9805 17.935 35.2181 18.5784 35.2261C19.8226 35.2422 21.0721 35.2849 22.3162 35.2048C23.5177 35.13 24.4521 34.5667 24.7191 33.2825C25.3332 30.407 24.2225 29.0347 21.2883 29.0107C20.976 29.0107 20.6636 28.9893 20.3539 29.0107C19.5209 29.0614 19.1471 28.7223 19.1471 27.8466C19.1471 26.9709 19.5236 26.6639 20.3566 26.6826C21.4672 26.7066 22.5806 26.7012 23.6912 26.6478C24.2038 26.6238 24.6737 26.3542 24.7084 25.7748C24.7458 25.1073 24.2492 24.8243 23.6805 24.7763C22.9784 24.7336 22.2655 24.7789 21.5527 24.7789H21.566ZM37.2328 30.0065V33.6002C37.2328 33.691 37.2328 33.7791 37.2328 33.8672C37.2328 34.4973 37.3716 35.106 38.1192 35.098C38.8668 35.09 38.9762 34.4519 38.9896 33.8405C38.9896 33.3519 39.0243 32.8633 38.9896 32.3774C38.9282 31.3815 39.2993 30.8716 40.3699 30.965C40.9918 31.0174 41.6169 31.0174 42.2388 30.965C43.9315 30.8235 44.7992 29.7529 44.7965 27.8653C44.7939 25.9777 43.9208 24.8937 42.2175 24.7896C41.024 24.7202 39.8146 24.7683 38.6238 24.7736C37.6226 24.7736 37.2008 25.3076 37.2248 26.2901C37.2435 27.5209 37.2221 28.7651 37.2195 30.0065H37.2328Z" fill="#E90C0C"/>
<path d="M32.9476 29.9985V30.7995C32.9476 33.448 32.9476 33.4293 30.2778 33.3118C29.4474 33.2744 29.0523 32.9807 29.063 32.1317C29.0825 30.7078 29.0825 29.2901 29.063 27.8786C29.063 27.0296 29.4367 26.6985 30.2751 26.7012C33.4816 26.7039 32.8889 26.5197 32.9476 29.9985Z" fill="#E90C0C"/>
<path d="M40.8985 26.7038C42.7007 26.7038 42.9837 26.9307 42.8288 28.1722C42.7648 28.7062 42.5432 28.9919 42.0065 29.0052C41.4699 29.0186 40.9386 29.0052 40.4046 29.0292C39.5235 29.088 38.9575 28.8797 38.9735 27.8225C38.9896 26.8239 39.5449 26.645 40.3565 26.7011C40.5434 26.7145 40.7223 26.7038 40.8985 26.7038Z" fill="#E90C0C"/>
</svg>
