<svg width="62" height="62" viewBox="0 0 62 62" fill="none" xmlns="http://www.w3.org/2000/svg">
<path d="M40.3187 32.6467C41.136 32.6467 41.9518 32.6467 42.7691 32.6467C43.809 32.6467 44.3405 33.1207 44.4324 34.1563C44.4597 34.4737 44.5961 34.5872 44.8762 34.5972C45.1563 34.6073 45.4191 34.6116 45.692 34.6188C46.1193 34.6206 46.5294 34.7867 46.8375 35.0828C47.1456 35.3788 47.3279 35.782 47.3467 36.2088C47.3668 36.6362 47.2222 37.055 46.9427 37.3789C46.6632 37.7028 46.27 37.9071 45.8443 37.9497C45.6809 37.9803 45.515 37.9962 45.3488 37.9971C44.6536 37.9568 44.7369 38.01 44.7354 38.6535C44.7354 39.6962 44.7254 40.739 44.7354 41.7818C44.7354 42.1093 44.6464 42.2314 44.2959 42.2242C43.2833 42.2026 42.2707 42.2242 41.2566 42.2242C41.1662 42.2184 41.0756 42.2184 40.9852 42.2242C40.6879 42.2687 40.4609 42.3994 40.4595 42.7384C40.458 43.0774 40.6893 43.2253 40.9881 43.2397C41.4405 43.2627 41.8958 43.2526 42.3497 43.254C42.9989 43.254 43.6496 43.267 44.3002 43.254C44.6392 43.244 44.7498 43.3733 44.7311 43.7079C44.7096 44.2824 44.7153 44.857 44.7311 45.4315C44.7383 45.7317 44.655 45.8624 44.3203 45.8624C43.2776 45.8452 42.2348 45.8624 41.1906 45.8624C40.8315 45.8624 40.5069 45.9141 40.458 46.3537C40.4193 46.6984 40.6749 46.8894 41.1834 46.8923C42.2118 46.8995 43.2402 46.9052 44.2686 46.8923C44.6234 46.8923 44.7512 47.0043 44.7354 47.3648C44.7082 47.9537 44.7211 48.5441 44.7354 49.133C44.7354 49.3944 44.6564 49.5093 44.3692 49.5093C43.2962 49.5093 42.2147 49.5279 41.1489 49.5394C40.8128 49.5394 40.471 49.5667 40.4681 50.0091C40.4652 50.4515 40.8114 50.5262 41.1662 50.5291C42.1946 50.5291 43.223 50.5434 44.2514 50.5291C44.622 50.5291 44.7656 50.6382 44.7426 51.0217C44.7125 51.5187 44.734 52.02 44.7426 52.5184C44.7426 53.1734 44.7426 53.1748 44.0618 53.1748C43.0564 53.1748 42.0653 53.1748 41.067 53.1748C40.6361 53.1748 40.415 53.3874 40.4738 53.7249C40.5327 54.0625 40.8028 54.1558 41.1173 54.1558H44.0661C44.7426 54.1558 44.7469 54.1558 44.7412 54.8137C44.7326 55.7042 44.7986 56.5961 44.5387 57.4709C44.0675 59.0508 43.1196 60.1798 41.4821 60.5762C39.8447 60.9727 38.3423 60.7012 37.1358 59.443C36.1404 58.4031 35.8 57.1017 35.8 55.6956C35.8 50.1168 35.8 44.5386 35.8 38.9608C35.8 38.0818 35.8 38.0818 34.9468 37.9899C33.4818 37.8333 32.7708 36.542 33.5105 35.3585C33.6455 35.138 33.834 34.9552 34.0584 34.8269C34.2829 34.6986 34.5361 34.629 34.7946 34.6245C35.1259 34.5937 35.4588 34.5836 35.7914 34.5944C36.0887 34.6131 36.1447 34.4809 36.1591 34.2252C36.2194 33.1379 36.7336 32.6568 37.8382 32.6453C38.6554 32.6424 39.4871 32.6467 40.3187 32.6467Z" fill="#C826B8"/>
<path d="M45.7763 49.1373C45.7763 47.7967 45.7763 46.4518 45.7763 45.1026C45.763 44.8614 45.8125 44.6209 45.9199 44.4046C47.2126 42.0202 48.7294 39.7867 50.3424 37.6136C50.657 37.1827 51.1482 37.1669 51.457 37.582C53.6345 40.5078 55.6813 43.5112 57.0917 46.9024C58.3155 49.844 57.254 52.6233 55.45 54.3325C53.0628 56.5962 49.1388 56.6881 46.6553 54.5451C46.4945 54.4014 46.3322 54.2722 46.1756 54.13C46.0388 54.0121 45.9308 53.8645 45.8598 53.6984C45.7889 53.5324 45.7569 53.3523 45.7662 53.1719C45.7892 51.8275 45.7763 50.4817 45.7763 49.1373ZM51.2171 50.2734C51.2177 50.2433 51.2139 50.2133 51.2056 50.1844C50.7992 49.1603 50.4157 48.1275 49.9718 47.1207C49.798 46.7257 49.3083 46.7271 49.1029 47.1207C48.5815 48.1103 48.2281 49.1746 47.8346 50.2188C47.8158 50.2612 47.8063 50.3072 47.807 50.3536C47.8076 50.3999 47.8182 50.4456 47.8381 50.4875C47.858 50.5294 47.8868 50.5665 47.9223 50.5962C47.9579 50.6259 47.9995 50.6476 48.0443 50.6598C48.2568 50.7359 48.389 50.6095 48.4752 50.43C48.5398 50.2864 48.5973 50.1528 48.6504 50.012C48.6964 49.8957 48.7423 49.775 48.8888 49.775C49.3107 49.7541 49.7336 49.7627 50.1542 49.8009C50.4731 49.8468 50.4185 50.2433 50.5851 50.4472L50.6096 50.486C50.6414 50.5557 50.6965 50.6122 50.7655 50.6457C50.8344 50.6793 50.9128 50.6878 50.9873 50.6699C51.1855 50.6153 51.2171 50.4515 51.2171 50.2734ZM54.604 48.7768C54.5552 48.5039 54.3483 48.4565 54.1272 48.4708C53.781 48.4924 53.6259 48.3559 53.6474 47.9983C53.6618 47.7613 53.6058 47.507 53.3041 47.5142C53.037 47.5214 52.9752 47.7584 52.9924 47.9825C53.0212 48.3631 52.8488 48.4967 52.4854 48.4708C52.2772 48.4565 52.0545 48.511 52.0473 48.7581C52.0373 49.0454 52.2599 49.1445 52.5113 49.1301C52.8589 49.11 53.0111 49.2436 52.9953 49.5998C52.9853 49.821 53.0528 50.0494 53.3329 50.0407C53.5828 50.0407 53.6546 49.8195 53.6431 49.6098C53.6216 49.2263 53.7982 49.1014 54.1573 49.1244C54.2098 49.1333 54.2637 49.1313 54.3154 49.1184C54.3671 49.1055 54.4156 49.0821 54.4578 49.0496C54.5 49.0171 54.5351 48.9762 54.5607 48.9295C54.5864 48.8828 54.6021 48.8313 54.6069 48.7782L54.604 48.7768Z" fill="#C826B8"/>
<path d="M49.4935 49.1918C48.9836 49.1918 48.9678 49.1674 49.1315 48.6877C49.2048 48.4751 49.2752 48.2568 49.3585 48.0542C49.3901 47.9752 49.4116 47.8661 49.5265 47.8733C49.6414 47.8804 49.6572 47.9853 49.6903 48.0643C49.7621 48.2453 49.8238 48.4291 49.8928 48.6115C50.091 49.1545 50.068 49.1947 49.4935 49.1918Z" fill="#C826B8"/>
<mask id="mask0_4257_29310" style="mask-type:luminance" maskUnits="userSpaceOnUse" x="2" y="1" width="58" height="58">
<path d="M59.4534 1H2V58.4534H59.4534V1Z" fill="white"/>
</mask>
<g mask="url(#mask0_4257_29310)">
<mask id="mask1_4257_29310" style="mask-type:luminance" maskUnits="userSpaceOnUse" x="5" y="0" width="52" height="59">
<path d="M56.3496 0.745728H5.5249V58.2005H56.3496V0.745728Z" fill="white"/>
</mask>
<g mask="url(#mask1_4257_29310)">
<path d="M5.52619 29.8459V8.1572C5.52619 6.17793 6.68818 4.99727 8.6732 4.99727C11.115 4.98721 13.5567 4.99727 15.9985 4.99727C16.6391 4.99727 16.6793 5.02455 16.6592 5.68239C16.6291 6.66341 16.7669 7.58984 17.363 8.41143C18.0956 9.40824 19.1283 9.82622 20.3104 9.83484C23.8208 9.86069 27.3298 9.87793 30.8402 9.83484C33.0622 9.80468 34.431 8.32669 34.4525 6.10037C34.464 4.94268 34.3089 5.01019 35.5284 5.00875H42.3725C43.602 5.00875 44.6304 5.39226 45.2451 6.53845C45.4784 6.97465 45.597 7.46295 45.5899 7.95755V30.2609C45.5899 30.8613 45.5726 30.8556 44.9564 30.8053C44.4145 30.7563 43.8702 30.738 43.3262 30.7507C42.8953 30.7637 42.7517 30.6157 42.7517 30.1762C42.7632 25.0542 42.7632 19.9313 42.7517 14.8074V14.2803C42.7387 13.733 42.644 13.6325 42.1096 13.6253C41.7419 13.6253 41.3757 13.6253 41.008 13.6253H9.27934C8.35434 13.6253 8.34716 13.6253 8.34716 14.5647V50.8939C8.34716 51.793 8.36726 51.8146 9.25205 51.8146C15.9683 51.8146 22.6851 51.8103 29.4024 51.8017C29.9582 51.8017 30.3188 51.918 30.5644 52.4652C30.8516 53.103 31.2825 53.6631 31.6991 54.2348C31.7766 54.3425 31.9547 54.4359 31.8614 54.5953C31.768 54.7548 31.6 54.6786 31.4621 54.6829C31.1906 54.6829 30.9206 54.6829 30.6491 54.6829H8.6732C7.448 54.6829 6.46124 54.2621 5.84649 53.1489C5.6046 52.6786 5.48973 52.1533 5.51326 51.625C5.5238 44.3648 5.52811 37.1051 5.52619 29.8459Z" fill="#C826B8"/>
<path d="M25.5072 7.56258C23.8971 7.56258 22.2869 7.56258 20.6768 7.56258C19.354 7.56258 18.9345 7.13168 18.9331 5.80881C18.9331 5.23428 18.9331 4.65974 18.9331 4.08521C18.946 3.03094 19.4344 2.50524 20.4743 2.61441C21.2413 2.69053 21.7081 2.47077 22.1261 1.81149C22.5757 1.10481 23.3556 0.806057 24.1872 0.770148C25.0619 0.732804 25.9395 0.73424 26.8157 0.770148C27.3135 0.780399 27.8011 0.912831 28.2356 1.15578C28.6702 1.39872 29.0383 1.74474 29.3078 2.16339C29.3945 2.3138 29.5239 2.43506 29.6796 2.51177C29.8354 2.58849 30.0104 2.61721 30.1825 2.59429C30.5003 2.57324 30.8194 2.58527 31.1348 2.6302C31.7854 2.72644 32.1402 3.09701 32.1574 3.75342C32.1833 4.59798 32.1833 5.44255 32.1574 6.28711C32.1345 7.02252 31.784 7.38591 31.0529 7.50082C30.2758 7.62434 29.493 7.54965 28.7131 7.55827C27.6502 7.57407 26.5816 7.56258 25.5072 7.56258ZM26.7913 2.91603C26.7927 2.76027 26.7624 2.60585 26.7022 2.46215C26.6434 2.31824 26.5559 2.18778 26.4451 2.07866C26.3343 1.9693 26.203 1.8829 26.0588 1.82442C25.9145 1.76685 25.7602 1.73853 25.6049 1.74111C25.2907 1.74322 24.9901 1.86976 24.7689 2.09302C24.5479 2.31682 24.4241 2.61873 24.4242 2.93327C24.4241 3.09259 24.4558 3.25033 24.5176 3.39721C24.5803 3.54362 24.671 3.67633 24.7847 3.78789C24.8994 3.89892 25.0352 3.98586 25.184 4.04356C25.3328 4.10106 25.4914 4.12841 25.6508 4.12399C25.8074 4.12714 25.9629 4.09768 26.1075 4.03748C26.2521 3.97729 26.3825 3.88768 26.4906 3.77434C26.5987 3.66101 26.682 3.52643 26.7352 3.37916C26.7885 3.23189 26.8105 3.07515 26.7999 2.91891L26.7913 2.91603Z" fill="#C826B8"/>
<path d="M11.4656 32.5806C11.4771 30.5008 13.1275 28.8878 15.2403 28.8979C17.2871 28.9065 18.9087 30.5525 18.9245 32.6323C18.9403 34.6432 17.2081 36.3769 15.2058 36.3668C14.7099 36.3682 14.2186 36.2706 13.7609 36.0795C13.3037 35.8884 12.8892 35.6081 12.5414 35.2551C12.1939 34.902 11.9195 34.4837 11.7342 34.0242C11.5507 33.5653 11.4594 33.0748 11.4656 32.5806ZM17.5758 30.9375C17.5255 30.699 17.3647 30.6172 17.1219 30.689C17.0035 30.7413 16.9035 30.8279 16.8346 30.9375C16.1869 31.7246 15.5261 32.4988 14.8899 33.2931C14.6643 33.5803 14.5178 33.5803 14.3282 33.2701C14.1654 33.0155 13.9875 32.7709 13.7954 32.5375C13.6647 32.3738 13.5081 32.2072 13.274 32.3939C13.0399 32.5806 13.1433 32.7616 13.274 32.944C13.59 33.4037 13.9189 33.8547 14.2277 34.3186C14.4431 34.6446 14.6442 34.6662 14.8985 34.3588C15.7344 33.3361 16.5728 32.3159 17.4135 31.298C17.513 31.2039 17.5713 31.0743 17.5758 30.9375Z" fill="#C826B8"/>
<path d="M11.4653 21.5108C11.4571 21.0233 11.5464 20.5391 11.7281 20.0866C11.9099 19.6341 12.1803 19.2226 12.5234 18.8762C12.8666 18.5298 13.2756 18.2556 13.7264 18.0697C14.1771 17.8838 14.6605 17.7899 15.1481 17.7936C15.6395 17.7854 16.1277 17.8747 16.5844 18.0563C17.0411 18.2379 17.4573 18.5082 17.8089 18.8515C18.1606 19.1949 18.4407 19.6045 18.6331 20.0568C18.8255 20.509 18.9264 20.995 18.9299 21.4864C18.9544 23.5217 17.2221 25.2956 15.1452 25.2597C12.8744 25.2209 11.3748 23.2991 11.4653 21.5108ZM17.587 19.8231C17.5669 19.6307 17.4433 19.5359 17.2322 19.556C17.1534 19.5678 17.0782 19.5968 17.0119 19.641C16.9456 19.6852 16.8899 19.7434 16.8487 19.8117C16.2196 20.5715 15.5876 21.3299 14.9628 22.094C14.6023 22.5335 14.6066 22.5364 14.2705 22.0566C14.1268 21.8469 13.9832 21.6358 13.8252 21.4347C13.6902 21.2681 13.5279 21.1087 13.3009 21.2681C13.074 21.4275 13.1343 21.6516 13.2751 21.8512L14.2116 23.1784C14.4988 23.5892 14.5951 23.6007 14.9297 23.2057C15.7499 22.2304 16.5585 21.248 17.3715 20.2655C17.4893 20.1452 17.5649 19.99 17.587 19.8231Z" fill="#C826B8"/>
<path d="M15.1796 40.0036C15.6755 40.0021 16.1668 40.0998 16.6245 40.2909C17.0826 40.4793 17.4982 40.7577 17.8468 41.1096C18.196 41.4611 18.471 41.8792 18.6555 42.3391C18.8402 42.7991 18.9315 43.2913 18.9241 43.7869C18.8954 45.7834 17.1847 47.484 15.2083 47.484C14.7128 47.4866 14.2217 47.3901 13.7641 47.2C13.3065 47.01 12.8914 46.7304 12.5435 46.3776C12.1955 46.0248 11.9216 45.606 11.7379 45.1458C11.5542 44.6856 11.4644 44.1933 11.4738 43.6978C11.4708 43.2107 11.5645 42.7279 11.7496 42.2773C11.9354 41.8273 12.2088 41.4186 12.5539 41.0751C12.8995 40.7316 13.3102 40.4605 13.7619 40.2779C14.2114 40.0929 14.6934 39.9997 15.1796 40.0036ZM14.5648 45.6987C14.7501 45.6699 14.8521 45.5148 14.9598 45.3827C15.6234 44.5879 16.2827 43.7893 16.9376 42.9869C17.1402 42.7413 17.347 42.4985 17.5323 42.2414C17.5777 42.1836 17.5993 42.1106 17.5926 42.0374C17.5863 41.9645 17.5524 41.8967 17.4978 41.8479C17.4393 41.7916 17.362 41.7589 17.2809 41.7559C17.2007 41.752 17.1217 41.777 17.0583 41.8263C16.9713 41.8961 16.8936 41.9767 16.827 42.0662C16.1749 42.8533 15.5157 43.6289 14.8765 44.4232C14.6539 44.7004 14.5174 44.6588 14.3465 44.3873C14.1756 44.1158 14.0061 43.8903 13.8222 43.6476C13.6886 43.4723 13.535 43.3244 13.2994 43.4824C13.0638 43.6404 13.1184 43.83 13.2549 44.0239C13.601 44.5194 13.9457 45.0164 14.2948 45.5119C14.3208 45.5633 14.3593 45.6072 14.4068 45.6398C14.4536 45.6725 14.508 45.6927 14.5648 45.6987Z" fill="#C826B8"/>
<path d="M30.8777 31.0466H23.1329C22.4378 31.0466 22.0399 30.7177 22.0112 30.1403C21.9738 29.5126 22.3774 29.1205 23.1128 29.1133C24.6468 29.099 26.1722 29.1033 27.7091 29.1033H38.2274C38.4343 29.0977 38.6412 29.1131 38.845 29.1492C39.431 29.2685 39.7068 29.6476 39.6508 30.2035C39.5905 30.7335 39.2544 31.0423 38.6755 31.0438C36.0786 31.0438 33.4803 31.0438 30.8834 31.0438L30.8777 31.0466Z" fill="#C826B8"/>
<path d="M30.8087 19.9424H23.1531C22.4177 19.9424 21.9968 19.5761 22.004 18.9613C22.004 18.4486 22.3458 18.0837 22.8974 18.0148C23.0884 17.9978 23.2803 17.993 23.4719 18.0004H38.2073C38.4946 18.0004 38.7818 17.9774 39.0562 18.0952C39.2535 18.1668 39.4197 18.3049 39.5261 18.4858C39.6326 18.6667 39.6726 18.8791 39.6393 19.0863C39.6223 19.2954 39.5347 19.4924 39.3908 19.645C39.2465 19.7971 39.0543 19.8949 38.8465 19.9222C38.6873 19.9407 38.5269 19.9469 38.3667 19.9409L30.8087 19.9424Z" fill="#C826B8"/>
<path d="M26.5125 23.0707H29.9095C30.6162 23.0707 31.0241 23.4312 31.0269 24.0288C31.0298 24.6263 30.6262 24.9882 29.9095 24.994C27.6449 25.0026 25.3802 25.0026 23.1156 24.994C22.3974 24.994 22.001 24.6406 22.0024 24.0288C22.0039 23.4169 22.4003 23.0707 23.1156 23.0664L26.5125 23.0707Z" fill="#C826B8"/>
<path d="M26.5124 34.1764H29.9108C30.629 34.1764 31.0254 34.5355 31.024 35.1344C31.0225 35.7334 30.6333 36.0925 29.9094 36.0982C27.6448 36.1068 25.3792 36.1068 23.1126 36.0982C22.4074 36.0982 21.9966 35.7276 21.9981 35.1301C21.9995 34.5326 22.4175 34.1707 23.1155 34.1707H26.5124V34.1764Z" fill="#C826B8"/>
<path d="M26.1061 40.2104H28.9242C29.6265 40.2104 29.6294 40.2104 29.4197 40.8611C29.3766 41.0047 29.3249 41.134 29.2861 41.2705C29.0132 42.1524 29.0132 42.1524 28.0681 42.1524H23.2435C23.0686 42.1598 22.8934 42.1492 22.7206 42.1208C22.5168 42.0752 22.3345 41.9617 22.2036 41.799C22.0743 41.6354 22.004 41.433 22.0039 41.2245C21.986 41.0219 22.0391 40.8194 22.1541 40.6517C22.2692 40.4839 22.439 40.3615 22.6345 40.3052C22.8623 40.233 23.1009 40.2009 23.3397 40.2104H26.1061Z" fill="#C826B8"/>
<path d="M25.6735 47.2126C24.7801 47.2126 23.8881 47.2126 22.9962 47.2126C22.803 47.224 22.6111 47.1748 22.4473 47.0718C22.2835 46.9688 22.156 46.8171 22.0826 46.638C22.0085 46.4776 21.9815 46.2995 22.0046 46.1243C22.0278 45.9491 22.1001 45.7841 22.2133 45.6484C22.3059 45.527 22.4272 45.4305 22.5664 45.3678C22.7056 45.3051 22.8583 45.2782 23.0105 45.2893C24.7628 45.2893 26.5166 45.2893 28.2689 45.2893C28.5964 45.2893 28.7257 45.4215 28.7271 45.7446C28.7242 46.0809 28.7453 46.4169 28.7903 46.7501C28.8435 47.1149 28.7027 47.2399 28.3508 47.2356C27.4574 47.2054 26.564 47.2126 25.6735 47.2126Z" fill="#C826B8"/>
</g>
</g>
</svg>
