<svg width="62" height="62" viewBox="0 0 62 62" fill="none" xmlns="http://www.w3.org/2000/svg">
<g clip-path="url(#clip0_4257_29286)">
<path d="M10.5137 32.268C10.5137 26.0718 10.5137 19.8743 10.5137 13.6755C10.5137 12.3901 10.4788 12.3901 9.21664 12.4192C7.75677 12.4522 6.46945 12.0644 5.61641 10.7616C4.8099 9.53242 4.82347 8.26643 5.48651 6.9985C6.0565 5.90893 7.01036 5.34669 8.21432 5.25363C8.95104 5.19353 9.69745 5.21486 10.44 5.22843C11.0216 5.24006 11.2814 4.99577 11.2484 4.41997C11.1166 2.05665 12.9332 0.972897 14.8913 1.00586C18.381 1.06208 21.8708 1.0175 25.3605 1.02525C27.6211 1.02525 28.794 2.07216 28.9685 4.29396C29.017 4.91629 29.2826 5.1722 29.8487 5.19546C30.4148 5.21873 31.0119 5.21874 31.5935 5.23037C33.4954 5.2672 34.9708 6.56421 35.1705 8.37305C35.2654 9.26599 35.0242 10.1623 34.4941 10.887C33.9639 11.6118 33.1828 12.1131 32.3031 12.2932C31.7349 12.4129 31.1541 12.4623 30.5738 12.4405C29.8448 12.4114 29.6393 12.6712 29.6587 13.3983C29.7168 15.7247 29.6858 18.0512 29.713 20.3777C29.713 21.1532 29.5191 21.541 28.6273 21.5041C26.6304 21.4363 24.6277 21.4673 22.6288 21.4615C22.3056 21.4415 21.9812 21.45 21.6595 21.4867C21.0042 21.603 20.4613 21.9229 20.4962 22.6732C20.5292 23.3866 21.0778 23.6542 21.7099 23.6619C23.8425 23.6832 25.9751 23.6794 28.1077 23.6833C29.7071 23.6833 29.713 23.6832 29.711 25.2982C29.711 26.3645 29.6916 27.4308 29.6839 28.4933C29.6839 28.9935 29.5075 29.2377 28.9355 29.228C26.8398 29.1931 24.742 29.2106 22.6463 29.2087C22.3555 29.1941 22.0641 29.198 21.7738 29.2203C21.072 29.3056 20.4826 29.608 20.4981 30.401C20.5137 31.1939 21.1166 31.411 21.7835 31.4169C23.9801 31.4343 26.1767 31.4169 28.3752 31.4304C29.6257 31.4304 29.7052 31.5041 29.713 32.7294C29.713 33.8597 29.6936 34.99 29.7013 36.1183C29.7013 36.8085 29.4144 37.0877 28.7048 37.0741C26.4772 37.0334 24.2457 37.0625 22.022 37.0198C21.2465 37.0043 20.6513 37.1982 20.5078 38.0163C20.3876 38.6988 20.9886 39.1796 21.9406 39.1796C24.1372 39.1931 26.3337 39.2125 28.5323 39.1796C29.4105 39.1641 29.7614 39.4878 29.7285 40.3622C29.6819 41.5545 29.6974 42.7488 29.6974 43.943C29.6974 44.5886 29.4125 44.8465 28.7475 44.8368C26.5199 44.8097 24.2884 44.8271 22.0646 44.8368C21.7099 44.8368 21.3473 44.8058 21.0274 45.0055C20.6397 45.2478 20.409 45.5871 20.5078 46.0601C20.6319 46.6418 21.0487 46.9287 21.6284 46.9345C23.2104 46.952 24.7924 46.95 26.3745 46.9539C27.1829 46.9539 27.9894 46.9655 28.7959 46.9539C29.3776 46.9539 29.7149 47.1827 29.711 47.8031C29.6936 49.9958 29.7575 52.1943 29.0867 54.3269C27.1131 60.5386 20.9014 62.3552 15.8045 60.0249C12.813 58.6522 11.3105 55.9748 10.7308 52.7817C10.5779 51.9237 10.5032 51.0535 10.5078 50.1819C10.5221 44.2106 10.524 38.2393 10.5137 32.268Z" fill="#F30F0F"/>
<path d="M31.8281 36.2365C31.8281 33.3653 31.8281 30.4959 31.8281 27.6247C31.819 27.014 31.9722 26.4118 32.2721 25.8798C34.9863 20.9224 38.16 16.2559 41.5257 11.727C42.3225 10.653 43.3772 10.6898 44.2244 11.8472C46.642 15.1547 48.9918 18.5068 51.1186 22.012C53.0941 25.2672 54.8972 28.6037 56.264 32.171C58.6486 38.4098 55.8181 45.5696 50.2655 48.9992C44.7498 52.4075 37.3846 51.5564 32.6967 46.9034C32.4044 46.633 32.1744 46.3021 32.0227 45.9338C31.8711 45.5656 31.8014 45.1687 31.8184 44.7708C31.8553 41.9131 31.8281 39.0748 31.8281 36.2365ZM36.4249 35.3059H36.4113C36.4113 36.3044 36.3939 37.3028 36.4113 38.2993C36.4288 39.0264 36.7991 39.4199 37.5745 39.3947C38.7378 39.3579 39.901 39.3947 41.0526 39.3288C42.022 39.2784 42.6579 38.7007 42.9371 37.7778C43.1988 36.9248 42.9875 36.1784 42.2585 35.6316C41.8921 35.3583 41.6924 35.1334 42.1306 34.7359C42.7258 34.195 42.8014 33.4874 42.5183 32.7798C42.3887 32.4096 42.148 32.0885 41.8292 31.8602C41.5103 31.6319 41.1288 31.5075 40.7366 31.5041C39.6432 31.4575 38.5478 31.473 37.4524 31.4808C36.7273 31.4808 36.4191 31.9112 36.4171 32.5995C36.4229 33.5048 36.4249 34.4044 36.4249 35.3059ZM47.6695 38.1791C47.7604 38.1811 47.8505 38.1629 47.9335 38.1258C48.0165 38.0887 48.0902 38.0337 48.1493 37.9648C48.2085 37.8958 48.2516 37.8146 48.2756 37.7269C48.2995 37.6393 48.3038 37.5474 48.288 37.4579C48.2008 36.5312 48.5013 36.0756 49.5152 36.1881C49.9359 36.2346 50.3857 36.031 50.3721 35.4882C50.3586 34.9453 49.9611 34.767 49.4978 34.8057C48.6505 34.8755 48.2182 34.5847 48.2958 33.6735C48.3326 33.2257 48.193 32.7798 47.6502 32.7817C47.1073 32.7836 46.9774 33.2334 47.0104 33.6793C47.0685 34.5014 46.7525 34.8736 45.8995 34.8019C45.4264 34.7631 44.9398 34.8833 44.9301 35.4843C44.9204 36.0853 45.4012 36.2346 45.8762 36.2055C46.706 36.1532 47.0647 36.4789 47.0046 37.3183C46.9716 37.7662 47.1073 38.1597 47.6637 38.1791H47.6695Z" fill="#F30F0F"/>
<path d="M39.7265 38.2703C38.0922 38.2703 37.6172 37.6169 38.0456 36.3315C38.0685 36.2392 38.1094 36.1522 38.1658 36.0756C38.6583 35.5153 41.041 35.9167 41.3279 36.6049C41.3928 36.7548 41.4247 36.917 41.4213 37.0804C41.418 37.2437 41.3795 37.4044 41.3085 37.5516C41.2375 37.6987 41.1356 37.8289 41.0099 37.9331C40.8841 38.0374 40.7373 38.1134 40.5796 38.1559C40.3003 38.2252 40.0142 38.2635 39.7265 38.2703Z" fill="#F30F0F"/>
<path d="M39.467 34.7669C38.0614 34.7669 37.6077 34.0826 38.0537 32.9891C38.0963 32.8668 38.1786 32.7622 38.2875 32.6919C38.3964 32.6217 38.5256 32.5898 38.6547 32.6014C39.1652 32.6042 39.6753 32.6353 40.1824 32.6944C40.702 32.7623 41.111 33.0221 41.1052 33.6134C41.0994 34.2047 40.7601 34.5653 40.1882 34.6797C39.9497 34.7225 39.7089 34.7517 39.467 34.7669Z" fill="#F30F0F"/>
</g>
<defs>
<clipPath id="clip0_4257_29286">
<rect width="52.1093" height="60" fill="white" transform="translate(5 1)"/>
</clipPath>
</defs>
</svg>
