<svg width="61" height="61" viewBox="0 0 61 61" fill="none" xmlns="http://www.w3.org/2000/svg">
<g clip-path="url(#clip0_16993_10982)">
<g clip-path="url(#clip1_16993_10982)">
<path d="M53.1089 11.8481C53.047 12.6871 52.8654 13.5082 52.351 14.2221C51.655 15.1849 50.9659 16.1615 50.252 17.1105C49.9646 17.4943 49.9494 17.8354 50.1943 18.2439C51.4459 20.3428 52.4473 22.5504 52.9452 24.9534C53.0827 25.5916 53.5174 25.7167 54.0332 25.802C55.1638 25.9877 56.2958 26.1583 57.4209 26.3673C58.3668 26.5314 59.2245 27.0239 59.8431 27.758C60.4618 28.4921 60.8017 29.4209 60.8031 30.3809C60.8031 32.3945 59.4208 34.0602 57.392 34.4385C56.2669 34.6475 55.1376 34.8341 54.0043 34.9983C53.3839 35.0877 53.0415 35.3628 52.9039 36.0092C52.4211 38.3227 51.4418 40.4423 50.2424 42.4628C49.955 42.9442 49.9577 43.3225 50.3043 43.7723C50.992 44.6608 51.6564 45.5603 52.2836 46.4957C54.1501 49.2631 52.6646 52.6054 49.3676 53.0593C48.4004 53.1884 47.4205 52.9423 46.6291 52.3716C45.6663 51.7072 44.7172 51.0264 43.7888 50.3167C43.3445 49.9769 42.9635 49.9425 42.4808 50.2341C40.4423 51.4486 38.2994 52.4348 35.9625 52.9176C35.3325 53.0552 35.0932 53.41 34.9997 53.9905C34.825 55.1445 34.6407 56.2971 34.4289 57.4456C34.2565 58.389 33.7588 59.242 33.0222 59.8562C32.2857 60.4703 31.3571 60.8067 30.3981 60.8067C29.4391 60.8067 28.5105 60.4703 27.774 59.8562C27.0375 59.242 26.5397 58.389 26.3674 57.4456C26.161 56.3191 25.9726 55.1899 25.8089 54.0565C25.7168 53.421 25.4582 53.0373 24.7718 52.897C22.479 52.4266 20.38 51.4542 18.3815 50.2644C17.8726 49.9618 17.4792 49.97 17.0061 50.3263C16.1134 51.014 15.2083 51.6728 14.2758 52.2973C11.5249 54.1363 8.2238 52.6714 7.73827 49.4088C7.59697 48.4197 7.84717 47.4145 8.43562 46.6071C9.11326 45.6277 9.81153 44.6649 10.5304 43.7186C10.8372 43.306 10.8385 42.958 10.5827 42.5261C9.34479 40.4451 8.33934 38.2622 7.85105 35.8799C7.72314 35.2513 7.3105 35.0932 6.7837 35.0079C5.63108 34.8199 4.47891 34.6283 3.3272 34.4329C1.40157 34.1056 -0.0192674 32.3877 -0.0137656 30.3864C-0.0173579 29.4256 0.320455 28.4948 0.939428 27.7599C1.5584 27.025 2.41829 26.5339 3.36572 26.3742C4.49496 26.1858 5.62145 25.9794 6.75345 25.8158C7.39853 25.7222 7.7644 25.4416 7.90057 24.7635C8.36134 22.4665 9.35305 20.3759 10.5359 18.3746C10.8358 17.867 10.8358 17.4764 10.4685 16.9991C9.79273 16.1326 9.14582 15.2436 8.52778 14.3321C6.63104 11.5359 8.12614 8.16463 11.4602 7.72998C12.4288 7.6132 13.4055 7.86832 14.1933 8.44384C15.1717 9.12331 16.139 9.81837 17.0954 10.529C17.5081 10.833 17.8519 10.8371 18.2866 10.5799C20.3498 9.35851 22.5037 8.3503 24.8667 7.87027C25.5159 7.73272 25.7058 7.33522 25.7938 6.76991C25.9699 5.63929 26.15 4.50867 26.3564 3.38217C26.5139 2.42207 27.0119 1.55083 27.7594 0.92794C28.5068 0.305051 29.4535 -0.0277992 30.4263 -0.00967281C32.4235 0.00133078 34.0589 1.37952 34.4261 3.38355C34.6283 4.48391 34.8209 5.5939 34.9763 6.70389C35.0698 7.37236 35.3339 7.76574 36.0519 7.90878C38.3255 8.36131 40.3997 9.33926 42.379 10.5139C42.9415 10.8468 43.3528 10.822 43.8631 10.4245C44.8025 9.69412 45.7598 8.97614 46.7667 8.34343C48.1421 7.4824 49.5973 7.47551 51.0154 8.24852C52.4225 9.01877 53.0126 10.2897 53.1089 11.8481ZM12.1603 30.3836C12.3323 40.5111 20.1146 48.5767 30.3672 48.607C40.6198 48.6372 48.6139 40.5854 48.607 30.3905C48.6001 20.2314 40.6294 12.2043 30.4098 12.2016C20.2576 12.2002 12.3639 20.1558 12.1603 30.3836Z" fill="#52CD8A"/>
<path d="M30.3424 39.0931C27.3412 39.0931 24.3404 39.0931 21.3401 39.0931C20.4282 39.0931 20.3773 39.0408 20.3773 38.1137C20.3773 34.0791 20.3773 30.0477 20.3773 26.0194C20.3773 25.0869 20.4337 25.0318 21.3332 25.0305C23.3716 25.0305 25.41 25.0305 27.4485 25.0305C28.3274 25.0305 28.359 25.0662 28.3618 25.9768C28.3618 27.0304 28.3508 28.084 28.37 29.1403C28.3824 29.8555 28.6809 30.0522 29.3328 29.7909C30.1842 29.4525 31.0191 29.0743 31.8733 28.7428C32.3079 28.575 32.4592 28.2875 32.4496 27.846C32.4345 27.1363 32.462 26.4252 32.4496 25.7154C32.4358 25.212 32.6559 25.0277 33.1497 25.0277C35.3504 25.0405 37.5512 25.0405 39.7519 25.0277C40.2567 25.0277 40.4396 25.2547 40.4396 25.7361C40.4341 29.9541 40.4341 34.1685 40.4396 38.3792C40.4396 38.972 40.1411 39.1041 39.6143 39.1013C36.5264 39.0862 33.4344 39.0931 30.3424 39.0931ZM25.7305 36.4673C24.6302 36.4673 23.5394 36.4673 22.4432 36.4673C22.1035 36.4673 21.7761 36.5182 21.7555 36.9542C21.7362 37.4164 22.054 37.5292 22.4336 37.5292C24.5802 37.5292 26.7268 37.5292 28.8734 37.5292C29.2393 37.5292 29.6024 37.4411 29.6066 36.9941C29.6107 36.5471 29.2503 36.466 28.8789 36.466L25.7305 36.4673ZM25.7099 33.9805C24.6343 33.9805 23.5587 33.9805 22.4831 33.9805C22.1571 33.9805 21.7954 33.9805 21.7679 34.4303C21.7404 34.8801 22.0705 35.0217 22.4432 35.0231C24.5944 35.0332 26.7461 35.0332 28.8982 35.0231C29.2668 35.0231 29.6148 34.8856 29.5859 34.4344C29.557 33.9833 29.1967 33.9833 28.8652 33.9819C27.8171 33.9778 26.7635 33.9805 25.7168 33.9805H25.7099ZM23.9672 31.4139C23.417 31.4139 22.8668 31.4057 22.3167 31.4139C22.0141 31.4139 21.7816 31.5515 21.7514 31.8871C21.7211 32.2227 21.9068 32.5033 22.2396 32.5129C23.3327 32.545 24.4271 32.545 25.5228 32.5129C25.5985 32.516 25.674 32.5028 25.7442 32.4743C25.8144 32.4458 25.8777 32.4026 25.9298 32.3477C25.9819 32.2927 26.0216 32.2272 26.0464 32.1556C26.0711 32.084 26.0801 32.0079 26.073 31.9325C26.0565 31.5584 25.7856 31.4277 25.4651 31.4153C24.9713 31.3988 24.4692 31.4139 23.9672 31.4139Z" fill="#52CD8A"/>
<path d="M30.3713 23.9603C27.5791 23.9603 24.787 23.9603 21.9948 23.9603C21.7568 23.9603 21.4295 24.0731 21.3071 23.7939C21.1847 23.5146 21.5093 23.3688 21.6276 23.157C22.307 21.937 23.3304 21.6537 24.7003 21.6853C28.8184 21.7816 32.9406 21.7348 37.0601 21.7059C37.7478 21.7059 38.2471 21.8641 38.6075 22.4665C38.7808 22.7581 39.0463 22.9933 39.2553 23.2657C39.375 23.4225 39.5909 23.5738 39.5001 23.7952C39.4094 24.0167 39.1453 23.9589 38.95 23.9603C38.0105 23.9685 37.0725 23.9603 36.1344 23.9603H30.3713Z" fill="#52CD8A"/>
<path d="M29.4305 26.7801V26.0263C29.4305 25.0525 29.4607 25.0277 30.4304 25.0291C31.3547 25.0291 31.385 25.0621 31.3933 25.9919V26.5421C31.3933 27.78 31.0975 28.1239 29.8803 28.3577C29.568 28.4182 29.4497 28.2972 29.4456 28.0125C29.4456 27.5998 29.4456 27.1872 29.4456 26.7746L29.4305 26.7801Z" fill="#52CD8A"/>
</g>
</g>
<defs>
<clipPath id="clip0_16993_10982">
<rect width="60.8091" height="60.8091" fill="white"/>
</clipPath>
<clipPath id="clip1_16993_10982">
<rect width="60.81" height="60.81" fill="white"/>
</clipPath>
</defs>
</svg>
