<svg width="61" height="61" viewBox="0 0 61 61" fill="none" xmlns="http://www.w3.org/2000/svg">
<g clip-path="url(#clip0_16990_10850)">
<path d="M23.1826 59.2941C16.3213 59.2941 9.45877 59.2838 2.60011 59.3072C1.75456 59.3072 1.16918 58.9314 0.701533 58.2684C0.333455 57.7525 0.0997835 57.1437 0.0237975 56.5027C-0.0581553 55.8212 0.0647731 55.209 0.498603 54.6436C3.05041 51.3184 5.58965 47.9826 8.11631 44.6364C8.30493 44.387 8.51177 44.2928 8.80901 44.2928C15.5079 44.2993 22.2072 44.3011 28.907 44.2983C29.3779 44.2983 29.3766 44.3018 29.4715 44.7793C29.7818 46.3484 30.6423 47.4092 32.1012 47.8839C32.4075 47.9836 32.4478 48.1182 32.3873 48.4239C31.947 50.652 33.1412 52.6897 35.1802 53.2167C37.3761 53.7848 39.5628 52.1744 39.8353 49.8021C39.9226 49.0368 39.7955 48.2612 39.4698 47.5713C39.3891 47.3948 39.2252 47.2134 39.5127 47.0623C39.7397 46.9427 39.9166 46.7531 40.1683 47.0884C41.9244 49.4181 43.6942 51.7306 45.4608 54.0493C45.5759 54.2005 45.6832 54.3613 45.8113 54.5C46.4988 55.2448 46.5444 56.1194 46.2836 57.0558C46.1219 57.6535 45.8206 58.1988 45.4074 58.6414C45.2184 58.8539 44.9893 59.0221 44.7348 59.1352C44.4804 59.2482 44.2063 59.3035 43.9303 59.2975C37.0133 59.2879 30.0974 59.2868 23.1826 59.2941ZM9.14852 51.835C9.14527 54.2396 11.0009 56.2162 13.2709 56.2279C15.5408 56.2396 17.4134 54.2767 17.4381 51.8412C17.4628 49.4737 15.5656 47.4731 13.293 47.4697C12.1967 47.4727 11.146 47.9332 10.3697 48.7509C9.59347 49.5686 9.15453 50.6771 9.14852 51.835ZM25.9944 58.0272C26.7585 58.0312 27.5066 57.7956 28.1439 57.3503C28.7813 56.905 29.2792 56.27 29.5748 55.5257C29.8704 54.7814 29.9503 53.9612 29.8044 53.1688C29.6585 52.3765 29.2934 51.6478 28.7552 51.0747C28.2171 50.5017 27.5301 50.1101 26.7812 49.9496C26.0323 49.7891 25.2552 49.8669 24.5482 50.173C23.8411 50.4792 23.236 51 22.8093 51.6696C22.3826 52.3392 22.1535 53.1275 22.1511 53.9346C22.1452 56.2162 23.8415 58.0238 25.9924 58.0272H25.9944Z" fill="#C90016"/>
<path d="M35.1379 40.5321C34.9428 40.5816 34.8557 40.4957 34.7607 40.4518C32.9512 39.615 30.9401 40.2766 29.9229 42.0635C29.7856 42.3047 29.6328 42.3864 29.3772 42.3864C23.0252 42.3809 16.6728 42.3786 10.3199 42.3796C10.2067 42.3796 10.0539 42.4393 9.98949 42.3109C9.9251 42.1824 10.0708 42.0903 10.1397 41.9989C12.421 39.0017 14.7039 36.0058 16.9886 33.0112C17.3626 32.5214 17.7288 32.024 18.1165 31.5465C18.3665 31.2426 18.4979 30.8496 18.484 30.4473C18.4775 22.6385 18.4759 14.8293 18.4794 7.01959C18.4794 6.43286 18.4794 6.43286 19.0271 6.43286H27.4175C27.9378 6.43286 27.9417 6.43286 27.9417 6.97767C27.9417 14.775 27.9389 22.5719 27.9332 30.3683C27.9332 30.8863 28.0692 31.2923 28.3885 31.6736C28.8113 32.1793 29.1925 32.7241 29.6074 33.2373C29.7869 33.4592 29.7941 33.6543 29.6926 33.9243C29.481 34.4723 29.3874 35.0632 29.4184 35.6541C29.4494 36.245 29.6043 36.8213 29.8719 37.3413C30.1395 37.8613 30.5132 38.3119 30.9659 38.6607C31.4186 39.0095 31.9389 39.2476 32.4894 39.358C32.9487 39.4521 33.4208 39.4521 33.88 39.358C34.1148 39.3099 34.2755 39.3642 34.416 39.56C34.6436 39.8767 34.8797 40.1845 35.1379 40.5321Z" fill="#C90016"/>
<path d="M54.6772 10.5632C54.6772 11.0606 54.6772 11.4268 54.6772 11.7937C54.6726 12.3082 54.6928 12.8132 54.8274 13.3209C55.0043 13.9901 54.899 14.6689 54.6746 15.3133C54.0671 17.0481 53.0817 18.431 51.3776 19.1036C51.0927 19.2132 50.7997 19.2973 50.5015 19.3551C50.0696 19.441 49.8068 19.6986 49.6878 20.1369C49.5465 20.6901 49.3272 21.2177 49.0374 21.702C48.452 22.6494 47.6065 23.1125 46.5658 23.197C46.1443 23.2343 45.7203 23.2276 45.3001 23.177C43.7996 22.9819 42.9403 21.9947 42.4772 20.5464C42.4317 20.409 42.3979 20.2606 42.3608 20.117C42.2522 19.7048 42.0109 19.4341 41.6031 19.3668C39.0443 18.9436 37.4267 16.528 37.1874 14.2979C37.142 13.9105 37.1749 13.5174 37.2837 13.1444C37.3761 12.8152 37.4187 12.4728 37.4098 12.1296C37.4027 11.2598 37.4222 10.3894 37.4046 9.5189C37.3253 5.54994 39.551 2.99214 42.7055 2.0303C45.3189 1.23472 47.9239 1.30274 50.4384 2.44939C52.8833 3.56375 54.2895 5.55133 54.6238 8.36402C54.7142 9.13899 54.6505 9.91671 54.6772 10.5632ZM46.0168 19.632H48.1281C48.1496 19.632 48.171 19.632 48.1931 19.632C48.5424 19.6437 48.8234 19.4843 49.0562 19.2266C49.5935 18.6317 49.7067 17.5091 49.2553 16.8344C48.5834 15.8389 47.8946 14.8537 47.1739 13.8974C46.53 13.0441 45.4607 13.0839 44.837 13.9523C44.1625 14.8901 43.5036 15.8396 42.8395 16.7856C42.6043 17.1193 42.4917 17.5319 42.5228 17.9467C42.5878 19.0549 43.1608 19.6334 44.1996 19.634L46.0168 19.632ZM50.4722 13.3017C50.9067 13.3099 51.5168 13.1464 52.0878 12.8091C53.6723 11.8734 53.7932 9.80333 52.3265 8.67729C51.1155 7.74637 49.1629 7.82058 48.0195 8.84013C46.8968 9.84113 46.9248 11.5766 48.08 12.5329C48.718 13.064 49.4484 13.3017 50.4722 13.3044V13.3017ZM41.5426 13.3017C42.513 13.3017 43.2096 13.1203 43.8191 12.6607C45.1706 11.648 45.211 9.7525 43.9088 8.73295C42.7335 7.81233 40.9169 7.78966 39.7221 8.68005C38.5019 9.59311 38.3731 11.2908 39.4502 12.39C40.015 12.9599 40.7616 13.2855 41.5426 13.3024V13.3017Z" fill="#C90016"/>
<path d="M60.81 44.1047C60.8106 44.4504 60.7281 44.7906 60.5703 45.0934C60.4124 45.3962 60.1843 45.6518 59.9074 45.836C59.6305 46.0203 59.3138 46.1273 58.9871 46.147C58.6603 46.1667 58.3342 46.0984 58.0392 45.9486C57.8944 45.8692 57.7417 45.807 57.5839 45.7631C57.3804 45.7182 57.1684 45.7494 56.9842 45.8514C56.8 45.9534 56.6552 46.1199 56.5745 46.3224C56.3963 46.7676 56.5335 47.2368 56.9478 47.5137C57.4922 47.8764 57.833 48.3732 57.9384 49.0499C58.1127 50.1656 57.3146 51.2525 56.2193 51.3803C55.124 51.5081 54.138 50.674 54.058 49.5514C54.0099 48.8733 54.1952 48.2914 54.6655 47.8112C55.3393 47.1241 55.2691 46.4914 54.4535 45.9926C51.5361 44.2114 48.6168 42.434 45.6956 40.6606C43.2929 39.1949 40.892 37.7279 38.4928 36.2595C37.8645 35.8754 37.2336 35.4969 36.6066 35.1135C35.8911 34.6752 35.2798 34.961 35.0963 35.8246C34.8915 36.7864 34.148 37.4528 33.2303 37.4927C32.3932 37.5298 31.5522 36.906 31.3155 36.0286C31.0865 35.1843 31.2654 34.4354 31.9119 33.8556C32.5421 33.2901 33.2518 33.2022 34.0075 33.5485C34.2358 33.6529 34.4518 33.7903 34.7165 33.7505C34.9002 33.7244 35.0724 33.6414 35.2113 33.5119C35.3503 33.3823 35.4497 33.2121 35.497 33.0229C35.5946 32.6189 35.4463 32.2108 35.0775 31.9566C34.4492 31.5238 34.1018 30.9309 34.1018 30.1312C34.1018 29.2751 34.6872 28.4638 35.4749 28.2006C35.8657 28.0706 36.2856 28.0753 36.6737 28.2142C37.0618 28.353 37.398 28.6187 37.6336 28.9729C37.8766 29.3218 38.0066 29.7442 38.0044 30.1773C38.0022 30.6105 37.8678 31.0313 37.6213 31.3775C37.5213 31.5119 37.4127 31.6388 37.2961 31.7574C36.7419 32.3365 36.8082 33.0208 37.4814 33.4372C38.6684 34.1709 39.8652 34.8888 41.0587 35.6157C45.8241 38.5241 50.5897 41.4326 55.3556 44.341C56.1842 44.846 56.7111 44.6062 56.9485 43.634C57.1937 42.6323 57.9709 41.9893 58.9075 42.014C59.8441 42.0388 60.5791 42.6887 60.7703 43.6629C60.7937 43.8065 60.7957 43.9569 60.81 44.1047Z" fill="#C90016"/>
<path d="M31.2341 44.0977C31.2308 43.0363 31.9144 42.207 32.9297 42.0428C33.8637 41.8917 34.7509 42.488 35.041 43.467C35.0572 43.522 35.0735 43.5763 35.0865 43.6319C35.307 44.5841 35.8768 44.848 36.6826 44.3567C38.4852 43.2575 40.2847 42.1546 42.0811 41.048C42.3036 40.9106 42.4772 40.8859 42.7023 41.0432C43.073 41.3008 43.4658 41.5241 43.8489 41.7598C44.1598 41.9521 44.1631 41.9824 43.8548 42.172C42.7209 42.8673 41.5859 43.5602 40.4499 44.2509C39.4931 44.8356 38.5389 45.4251 37.5815 46.0077C36.788 46.4886 36.7125 47.1337 37.3779 47.794C38.1786 48.5909 38.2319 49.9011 37.4976 50.7289C36.7633 51.5568 35.5463 51.6269 34.7763 50.8883C33.9307 50.0749 33.8657 48.8018 34.6306 47.9114C34.7606 47.7562 34.9337 47.6538 35.0904 47.5322C35.5496 47.1763 35.6758 46.6638 35.4273 46.2152C35.1789 45.7665 34.693 45.6333 34.1766 45.8765C33.2231 46.3258 32.4159 46.2062 31.7817 45.5219C31.6049 45.3353 31.4653 45.1131 31.3712 44.8685C31.2772 44.6238 31.2305 44.3618 31.2341 44.0977Z" fill="#C90016"/>
<path d="M58.8782 37.4989C58.469 37.4936 58.0713 37.3552 57.7393 37.1026C57.4072 36.85 57.157 36.4954 57.0226 36.0871C56.9881 35.9785 56.9575 35.8672 56.9335 35.7566C56.7384 34.9514 56.1491 34.6876 55.4687 35.1019C53.6575 36.2061 51.8474 37.3125 50.0384 38.4209C49.788 38.5748 49.5831 38.6167 49.3229 38.4353C48.9619 38.1832 48.571 37.9798 48.1977 37.7483C47.9011 37.5628 47.9037 37.5051 48.2049 37.321C50.1561 36.1301 52.1074 34.9393 54.0586 33.7484C54.2459 33.6337 54.4339 33.5196 54.616 33.3946C55.2307 32.9727 55.2821 32.272 54.7403 31.7547C53.8206 30.8787 53.8056 29.4758 54.7064 28.6032C55.4954 27.8386 56.7475 27.9313 57.4714 28.8094C58.1868 29.675 58.0925 31.0188 57.2658 31.7279C57.1312 31.8433 56.9816 31.9388 56.8509 32.0583C56.4951 32.3826 56.4151 32.867 56.6408 33.2654C56.8873 33.6996 57.3517 33.8783 57.7914 33.6639C58.3429 33.3946 58.8919 33.2668 59.4877 33.4901C60.3456 33.813 60.914 34.7954 60.7625 35.7167C60.5901 36.7761 59.8239 37.501 58.8782 37.4989Z" fill="#C90016"/>
<path d="M23.2489 1.53633C25.0805 1.53633 26.9123 1.53633 28.7443 1.53633C29.2067 1.53633 29.2926 1.62564 29.2958 2.11755C29.2998 2.7242 29.3011 3.33085 29.2958 3.93749C29.2913 4.38543 29.1736 4.51323 28.7501 4.51392C25.0644 4.51667 21.3787 4.51667 17.693 4.51392C17.2377 4.51392 17.1356 4.39574 17.1337 3.92513C17.1311 3.3068 17.1311 2.68848 17.1337 2.07015C17.1337 1.62015 17.2182 1.53633 17.654 1.53633C19.5194 1.53542 21.3844 1.53542 23.2489 1.53633Z" fill="#C90016"/>
<path d="M51.345 21.3269C51.4133 22.1211 51.3132 22.8514 51.1603 23.5769C50.7096 25.7232 49.1245 27.3618 47.1277 27.7479C43.8795 28.3765 41.1439 26.246 40.7367 22.7731C40.6871 22.4105 40.6654 22.0443 40.6717 21.678C40.6756 21.5701 40.6196 21.4032 40.7367 21.3716C40.8714 21.3358 40.8668 21.5186 40.9084 21.6127C41.1862 22.2619 41.5029 22.8844 41.9582 23.4189C42.7459 24.3423 43.7312 24.872 44.8851 25.0478C45.7224 25.1826 46.5753 25.168 47.4081 25.0046C49.2149 24.6377 50.3681 23.4388 51.1083 21.724C51.1532 21.6203 51.1961 21.5179 51.2429 21.4128C51.2553 21.3956 51.2787 21.3853 51.345 21.3269Z" fill="#C90016"/>
<path d="M13.3047 49.4216C13.6091 49.4189 13.9111 49.4803 14.1929 49.6021C14.4747 49.7238 14.7308 49.9036 14.9462 50.1309C15.1616 50.3582 15.3321 50.6284 15.4477 50.926C15.5633 51.2235 15.6217 51.5424 15.6195 51.864C15.6046 53.2209 14.5717 54.2823 13.2728 54.2761C12.6633 54.2745 12.0793 54.0178 11.6487 53.5621C11.2181 53.1065 10.976 52.4892 10.9755 51.8454C10.9788 50.4824 12.0038 49.4195 13.3047 49.4216Z" fill="#C90016"/>
<path d="M28.038 53.9353C28.0432 54.2194 27.9946 54.5018 27.8952 54.7659C27.7958 55.0299 27.6475 55.2704 27.459 55.4731C27.2705 55.6759 27.0456 55.8369 26.7974 55.9467C26.5493 56.0564 26.2829 56.1128 26.0139 56.1125C25.745 56.1133 25.4786 56.0581 25.2299 55.9501C24.9812 55.8421 24.7551 55.6834 24.5646 55.4831C24.374 55.2827 24.2227 55.0447 24.1192 54.7825C24.0158 54.5204 23.9623 54.2392 23.9618 53.9552C23.9618 52.7516 24.86 51.8069 26.0113 51.8069C26.2776 51.8026 26.542 51.8546 26.7889 51.9599C27.0359 52.0651 27.2605 52.2216 27.4493 52.4199C27.6382 52.6182 27.7876 52.8545 27.8886 53.1148C27.9897 53.375 28.0405 53.654 28.038 53.9353Z" fill="#C90016"/>
<path d="M46.0539 17.7165H44.8181C44.6041 17.7165 44.528 17.6252 44.6672 17.4259C45.0714 16.847 45.4777 16.2697 45.8861 15.6939C45.9817 15.5565 46.0812 15.5661 46.1736 15.6974C46.5879 16.2834 47.0048 16.8653 47.4094 17.4575C47.5505 17.6636 47.4218 17.7158 47.2481 17.7165C46.8546 17.7179 46.4539 17.7165 46.0539 17.7165Z" fill="#C90016"/>
<path d="M50.2804 9.93939C50.6183 9.93192 50.9505 10.0333 51.2326 10.23C51.5838 10.4787 51.5825 10.8408 51.2417 11.0909C50.748 11.4536 49.827 11.4598 49.3255 11.1053C48.9639 10.849 48.9607 10.476 49.3255 10.2231C49.6092 10.0285 49.9422 9.92954 50.2804 9.93939Z" fill="#C90016"/>
<path d="M41.7723 9.93457C42.1664 9.96411 42.5528 10.0246 42.852 10.3269C43.0887 10.5639 43.0868 10.7618 42.852 10.9981C42.359 11.5017 41.17 11.4873 40.6919 10.9734C40.4929 10.7604 40.5014 10.5543 40.6978 10.3482C40.9983 10.0369 41.3794 9.9703 41.7723 9.93457Z" fill="#C90016"/>
</g>
<defs>
<clipPath id="clip0_16990_10850">
<rect width="60.8091" height="60.8091" fill="white"/>
</clipPath>
</defs>
</svg>
