<svg width="61" height="61" viewBox="0 0 61 61" fill="none" xmlns="http://www.w3.org/2000/svg">
<g clip-path="url(#clip0_16993_10982)">
<path d="M21.3434 2.00011C23.5797 2.00011 25.8157 2.00011 28.0514 2.00011C28.3128 1.99821 28.5737 2.02159 28.8306 2.06993C29.6223 2.22686 30.1206 2.88128 30.0578 3.68869C29.9958 4.48119 29.3806 5.05476 28.574 5.07045C27.4669 5.09242 27.4653 5.09243 27.4645 6.21527C27.4645 7.98075 27.4645 9.74596 27.4645 11.5109C27.4645 12.0241 27.386 12.0743 26.8878 12.0005C25.4542 11.7902 24.0222 11.5564 22.5659 11.576C22.267 11.576 21.8982 11.5855 21.8919 11.9417C21.8848 12.3238 22.2575 12.3536 22.5722 12.3458C24.2321 12.3161 25.8886 12.5071 27.4982 12.9139C28.4893 13.1563 29.4261 13.5683 30.3473 14.003C31.9475 14.7483 33.4475 15.6921 34.812 16.812C36.7192 18.3877 38.3428 20.278 39.6125 22.4011C40.3807 23.6629 41.0087 25.0048 41.4855 26.4029C41.8339 27.4402 42.1823 28.4799 42.3094 29.5768C42.3353 29.7965 42.4538 29.9919 42.4577 30.2226C42.4679 30.7248 42.413 30.7977 41.9147 30.7985C40.5285 30.7985 39.1423 30.7985 37.756 30.7985C36.396 30.7985 35.0359 30.7985 33.6758 30.7985C33.4216 30.7985 33.1352 30.7915 33.1329 31.1461C33.1329 31.4772 33.4138 31.5149 33.6625 31.551C33.7795 31.5631 33.8973 31.5665 34.0148 31.5612C36.7088 31.5539 39.4028 31.5458 42.0968 31.5369C42.4428 31.5369 42.6288 31.6648 42.6515 32.0336C42.7182 33.0262 42.7224 34.0221 42.6641 35.0153C42.541 37.0237 42.1355 39.0048 41.4596 40.9002C40.7427 42.9073 39.7383 44.7997 38.4779 46.5183C36.8876 48.6999 34.8923 50.5551 32.6009 51.9826C28.7959 54.3563 24.3406 55.4727 19.8659 55.1738C18.8309 55.1079 17.8007 54.9196 16.7759 54.6976C15.4521 54.4055 14.16 53.985 12.9178 53.4421C9.91412 52.1474 7.36948 50.2203 5.23914 47.7494C3.63143 45.8858 2.35921 43.7574 1.47907 41.4588C0.909926 39.9854 0.511342 38.4516 0.291106 36.8875C0.126329 35.7105 0 34.5335 0 33.3439C0.0105842 32.8739 0.0535807 32.4051 0.128683 31.941C0.167132 31.6585 0.295815 31.562 0.564952 31.5659C1.1401 31.5746 1.71526 31.5659 2.29119 31.5659C4.29154 31.5659 6.29189 31.5659 8.29224 31.5659C8.47428 31.5659 8.66024 31.5887 8.82973 31.493C8.97018 31.4145 9.11142 31.3274 9.07611 31.1351C9.06211 31.0568 9.0238 30.9849 8.96662 30.9295C8.90944 30.8742 8.83629 30.8382 8.75754 30.8268C8.61558 30.8049 8.47185 30.7968 8.32833 30.8025C5.84411 30.8025 3.35937 30.8025 0.874106 30.8025C0.291107 30.8025 0.246381 30.7773 0.315431 30.2053C0.472362 28.8659 0.845072 27.5744 1.28213 26.3017C1.90546 24.5246 2.76787 22.8407 3.8456 21.2963C4.70903 20.0345 5.70464 18.8685 6.81552 17.818C8.01872 16.6746 9.35179 15.6763 10.7874 14.8433C12.0484 14.1017 13.3879 13.5028 14.7813 13.0575C15.1391 12.946 15.3078 12.7271 15.3063 12.3387C15.2976 10.4163 15.3063 8.49392 15.3063 6.57229C15.3063 5.85277 15.3188 5.84099 16.0203 5.84099C18.8974 5.84099 21.7744 5.84099 24.6515 5.84099C24.9575 5.84099 25.3828 5.90533 25.3765 5.46671C25.371 5.06653 24.9677 5.07438 24.6484 5.07438C21.1833 5.07438 17.7183 5.06654 14.2533 5.08145C13.6554 5.08145 13.2018 4.87587 12.9084 4.37526C12.7543 4.12908 12.6741 3.84392 12.6772 3.55356C12.6802 3.26319 12.7665 2.97977 12.9256 2.73689C13.2756 2.16645 13.8515 2.00953 14.484 2.00875C16.7683 2.00299 19.0548 2.00011 21.3434 2.00011ZM20.9895 46.3261H24.2066C24.2325 46.3261 24.2592 46.3261 24.2851 46.3261C24.6719 46.286 25.0807 46.3339 25.4338 46.1464C26.2546 45.7117 26.6108 44.9435 26.497 44.02C26.4084 43.3224 26.3519 42.6201 26.2883 41.9194C26.2695 41.7139 26.3213 41.5358 26.5174 41.4157C26.8313 41.2242 27.459 41.2674 27.725 41.5295C28.2845 42.0787 28.8329 42.6398 29.3901 43.1929C29.5917 43.3938 29.6404 43.608 29.4999 43.8646C29.3291 44.1895 29.2479 44.5541 29.2645 44.9207C29.2708 45.4954 29.4839 46.0485 29.8647 46.4788C30.2456 46.9091 30.7688 47.1877 31.3384 47.2637C32.4369 47.4058 33.5864 46.636 33.8712 45.5375C33.956 45.2103 34.1184 45.0761 34.4315 44.9812C36.0596 44.4884 36.6897 42.4475 35.5049 41.1293C35.163 40.7476 34.7059 40.488 34.203 40.3897C33.7002 40.2914 33.179 40.3599 32.7186 40.5847C32.5059 40.686 32.3262 40.6993 32.1497 40.5204C31.4129 39.7813 30.6651 39.0507 29.933 38.3061C29.514 37.88 29.5109 37.8353 29.8067 37.3292C30.5893 36.0092 31.0693 34.5321 31.212 33.0042C31.3808 31.2788 31.0855 29.5397 30.3567 27.9667C30.2375 27.7109 30.2594 27.503 30.4744 27.2974C30.9837 26.8101 31.4647 26.2938 31.959 25.7932C32.2729 25.4739 32.5357 25.4119 32.9163 25.6073C33.3675 25.8427 33.8618 25.8324 34.3342 25.7171C35.3872 25.4589 36.4527 24.1988 36.029 22.8029C35.7693 21.9445 35.2357 21.3795 34.3812 21.1261C34.1011 21.0429 33.9473 20.9205 33.8799 20.6129C33.6076 19.37 32.214 18.5885 30.9923 18.9298C29.6302 19.3096 28.8212 20.9142 29.4913 22.2513C29.6294 22.5275 29.5956 22.7472 29.3751 22.9575C29.128 23.1929 28.8761 23.4212 28.6462 23.6699C27.7093 24.6845 27.849 24.4358 26.9325 23.7782C25.8018 22.9669 24.5479 22.4592 23.1936 22.1508C22.1806 21.9202 21.1645 22.0394 20.1492 22.008C19.698 21.9931 19.2633 22.1163 18.8443 22.234C17.5551 22.5957 16.3334 23.1175 15.2663 23.9532C15.0654 24.1101 14.8739 24.1156 14.6825 23.9006C14.4149 23.597 14.1332 23.3027 13.8437 23.0226C13.5989 22.7872 13.5353 22.5659 13.675 22.2246C14.3451 20.5878 13.2646 18.882 11.5682 18.8631C11.0486 18.8579 10.5416 19.0231 10.1248 19.3335C9.70799 19.6438 9.40441 20.0822 9.2605 20.5815C9.18204 20.8452 9.05414 21.0468 8.76225 21.1308C7.28788 21.5498 6.57698 23.1426 7.29651 24.4915C7.85911 25.546 9.04786 26.1651 10.443 25.5468C10.698 25.4331 10.8738 25.4621 11.0652 25.6684C11.4026 26.032 11.7549 26.3812 12.1221 26.716C12.407 26.9757 12.4847 27.2315 12.2555 27.5681C12.1543 27.7164 12.0986 27.8961 12.0201 28.0616C11.2221 29.7738 11.1154 31.5879 11.2465 33.431C11.2755 33.8414 11.4034 34.2463 11.4991 34.6512C11.773 35.8086 12.323 36.8482 12.9068 37.8683C13.0896 38.1876 13.041 38.445 12.775 38.7071C12.1888 39.2854 11.6192 39.8801 11.0534 40.4773C10.8745 40.6664 10.6988 40.7283 10.4657 40.5957C10.1126 40.3949 9.72816 40.3682 9.32955 40.3603C8.20357 40.3321 7.14821 41.2132 7.00697 42.5236C6.89477 43.5688 7.62214 44.7113 8.7952 45.0079C9.06041 45.0746 9.18753 45.2377 9.25187 45.4857C9.37549 45.9905 9.66312 46.44 10.0697 46.7638C10.4762 47.0875 10.9787 47.2672 11.4983 47.2747C13.0496 47.3092 14.4408 45.5987 13.6616 43.885C13.5361 43.608 13.5581 43.3805 13.7668 43.1702C14.316 42.6139 14.8653 42.056 15.4279 41.5075C15.6947 41.2454 15.9991 41.3239 16.1262 41.684C16.1667 41.8085 16.1793 41.9403 16.1631 42.0701C16.0847 42.7692 16.0007 43.4684 15.8979 44.1643C15.7512 45.1538 16.5139 46.1511 17.5002 46.2625C18.7391 46.4053 19.982 46.279 20.9887 46.3284L20.9895 46.3261Z" fill="#2FB098"/>
<path d="M57.2759 37.9632V58.3642C57.2759 59.1371 57.2123 59.2014 56.4559 59.2014C49.1728 59.2014 41.8899 59.2014 34.6072 59.2014C33.3659 59.2014 33.5173 59.2187 33.5087 58.121C33.5032 57.1919 33.5087 56.2637 33.504 55.3354C33.504 54.6206 33.3792 54.2997 33.1117 54.3695C32.5624 54.5131 32.7444 54.9972 32.7429 55.3543C32.739 56.4128 32.7766 57.4728 32.79 58.5298C32.797 59.1528 32.7444 59.2038 32.1261 59.2038H17.61C14.9945 59.2038 12.379 59.2038 9.76346 59.2038C9.17732 59.2038 9.10748 59.1339 9.10042 58.5541C9.08473 57.352 9.11533 56.1499 9.02196 54.9494C9.01568 54.8709 9.01803 54.7925 9.01019 54.714C8.99214 54.5461 8.93172 54.4001 8.74654 54.3687C8.53939 54.3334 8.42719 54.4762 8.37148 54.6441C8.2679 54.9627 8.31498 55.2915 8.34245 55.6163C8.43033 56.6741 8.36991 57.7349 8.38325 58.791C8.38717 59.0492 8.23102 59.1834 7.99092 59.1904C7.40321 59.2038 6.81394 59.2022 6.22702 59.1904C5.96259 59.1865 5.82527 59.0257 5.81115 58.7636C5.80565 58.6592 5.80487 58.5541 5.80487 58.4497V50.4054C5.80487 50.327 5.80487 50.2485 5.80487 50.17C5.81036 50.0398 5.80487 49.8962 5.94689 49.8303C6.10775 49.7573 6.22231 49.8585 6.32588 49.9621C6.92431 50.5475 7.56501 51.088 8.2428 51.5793C10.2067 53.0581 12.4094 54.1894 14.7554 54.9243C16.2463 55.3888 17.756 55.6603 19.3002 55.8502C21.2437 56.0856 23.152 55.9365 25.0689 55.6273C28.3245 55.1024 31.2677 53.8312 33.9575 51.9536C36.0043 50.5164 37.7913 48.7413 39.2422 46.7042C40.2402 45.3284 41.0722 43.8395 41.7209 42.2686C42.3424 40.7338 42.8028 39.1387 43.0948 37.5088C43.4503 35.5613 43.4432 33.6068 43.3522 31.6561C43.2879 30.2932 43.0054 28.9404 42.6389 27.6143C41.9088 24.9774 40.7063 22.4949 39.0899 20.2872C38.1578 19.0035 37.071 17.8587 35.9082 16.7837C35.7967 16.6809 35.6116 16.597 35.6814 16.411C35.7512 16.2251 35.9474 16.2808 36.0973 16.2776C36.4496 16.2698 36.8035 16.2831 37.1558 16.2714C37.5081 16.2596 37.8565 16.2666 38.0872 16.6252C38.1994 16.8002 38.4175 16.7524 38.5972 16.7531C39.918 16.7531 41.2389 16.7531 42.5597 16.7531H56.496C57.2296 16.7531 57.2751 16.7963 57.2759 17.5253V37.9632ZM44.8893 51.3596C46.7584 51.3596 48.6277 51.3596 50.4973 51.3596C50.7154 51.3596 50.9516 51.3384 50.9681 51.0646C50.9845 50.7907 50.7554 50.7067 50.5263 50.6636C50.4614 50.6538 50.3957 50.6498 50.3301 50.6518L39.4689 50.6487C39.1888 50.6487 38.9056 50.6965 38.8922 51.0355C38.8765 51.4153 39.1982 51.3564 39.4368 51.3564C41.2551 51.3606 43.0726 51.3617 44.8893 51.3596ZM48.6212 48.0593H53.2506C53.3809 48.0593 53.5127 48.0593 53.643 48.0476C53.8297 48.0311 53.967 47.955 53.9843 47.7415C54.0015 47.5281 53.9003 47.4277 53.7246 47.3492C53.5354 47.2707 53.3385 47.2888 53.1431 47.2888C50.5276 47.2888 47.9121 47.2888 45.2966 47.2888C44.7865 47.2888 44.2765 47.2817 43.7665 47.2974C43.4895 47.3053 43.2023 47.4088 43.2172 47.7251C43.2267 48.0138 43.5193 48.0389 43.761 48.053C43.852 48.0585 43.9438 48.053 44.0348 48.053L48.6212 48.0593ZM51.198 30.1095H48.4179C48.1315 30.1095 47.8067 30.126 47.8192 30.4979C47.831 30.8534 48.1488 30.8777 48.4383 30.8762C49.1037 30.8762 49.7722 30.8762 50.4353 30.8762C51.6102 30.8762 52.7848 30.8762 53.9592 30.8762C54.1679 30.8762 54.3892 30.8903 54.4974 30.6509C54.6293 30.3575 54.4409 30.1158 54.0565 30.1127C53.1031 30.1001 52.1505 30.1056 51.198 30.1056V30.1095ZM51.1603 21.0711C52.0611 21.0711 52.965 21.0711 53.8619 21.0711C54.0052 21.0733 54.1483 21.062 54.2895 21.0374C54.4527 21.006 54.5249 20.8859 54.5249 20.7235C54.5295 20.6876 54.5266 20.651 54.5162 20.6163C54.5058 20.5816 54.4882 20.5494 54.4646 20.5219C54.4411 20.4944 54.4119 20.4721 54.3792 20.4566C54.3465 20.441 54.3108 20.4325 54.2746 20.4316C54.0819 20.4001 53.8875 20.3801 53.6924 20.372C51.9661 20.3673 50.247 20.372 48.5239 20.372C48.3542 20.3625 48.1841 20.3832 48.0217 20.4332C47.8875 20.4818 47.7933 20.5626 47.7941 20.7157C47.7885 20.7885 47.8091 20.8609 47.8523 20.9197C47.8955 20.9786 47.9584 21.0201 48.0295 21.0366C48.1567 21.0652 48.2869 21.0779 48.4171 21.0742C49.336 21.0727 50.2501 21.0711 51.1603 21.0711ZM51.3 54.7289C52.0564 54.7289 52.8125 54.7289 53.5684 54.7289C53.7795 54.7289 53.9607 54.6857 53.9827 54.4221C54.0047 54.1585 53.8423 54.047 53.6241 53.9866C53.547 53.9689 53.4678 53.9612 53.3887 53.9639C51.968 53.9639 50.5472 53.9639 49.1265 53.9639C48.8314 53.9639 48.5725 54.0635 48.5654 54.375C48.5576 54.7014 48.8448 54.732 49.1076 54.732L51.3 54.7289ZM48.5647 24.4412C49.3101 24.4412 50.0555 24.4412 50.8001 24.4412C50.9561 24.4426 51.1116 24.4228 51.2623 24.3823C51.4192 24.3361 51.5424 24.2254 51.5236 24.0371C51.5048 23.8488 51.3667 23.7711 51.1995 23.7531C51.0691 23.7416 50.9381 23.7369 50.8072 23.7389H46.3778C46.2342 23.7389 46.0899 23.7389 45.9463 23.7389C45.7493 23.7452 45.5626 23.8017 45.5351 24.0214C45.5037 24.2725 45.7022 24.3572 45.9023 24.3988C46.0575 24.428 46.2152 24.4417 46.3731 24.4396C47.1013 24.4412 47.8326 24.4412 48.5647 24.4412ZM52.3922 27.7367C52.954 27.7367 53.5166 27.7367 54.0784 27.7367C54.3068 27.7367 54.5131 27.6732 54.5186 27.4001C54.5241 27.1271 54.313 27.0659 54.0926 27.0384C54.0274 27.0314 53.9619 27.0282 53.8964 27.029H50.9932C50.8098 27.0198 50.6268 27.0537 50.4588 27.1279C50.3482 27.182 50.2579 27.2597 50.2509 27.3915C50.2438 27.5484 50.3545 27.6347 50.4784 27.6771C50.6025 27.7162 50.732 27.7356 50.8621 27.7344C51.3722 27.743 51.8822 27.7367 52.3922 27.7367ZM51.9214 44.6853C52.4958 44.6853 53.0701 44.6853 53.6477 44.6853C53.8399 44.6853 53.9709 44.6013 53.9882 44.3879C54.0055 44.1745 53.9011 44.067 53.7073 44.034C53.5536 44.0061 53.3981 43.9899 53.242 43.9854C52.6284 43.9791 52.015 43.9791 51.402 43.9854C51.0096 43.9854 50.6173 43.9532 50.2297 44.0246C50.0233 44.0631 49.8421 44.1408 49.8578 44.395C49.8735 44.6492 50.0712 44.6916 50.2799 44.6924L51.9214 44.6853ZM40.6098 54.7289C41.0406 54.7289 41.4729 54.7289 41.9014 54.7289C42.0881 54.7289 42.2419 54.6434 42.2937 54.4582C42.3463 54.2557 42.1917 54.1443 42.041 54.0659C41.9512 54.013 41.8501 53.9824 41.746 53.9764C40.9504 53.9693 40.1539 53.9638 39.3583 53.9764C39.1229 53.9803 38.8954 54.0902 38.9008 54.3617C38.9079 54.6544 39.1362 54.736 39.3999 54.7344C39.8008 54.7289 40.2049 54.7289 40.6098 54.7289ZM45.3962 54.7289C45.7885 54.7289 46.1809 54.7242 46.5685 54.7289C46.8086 54.7328 46.9938 54.6465 47.022 54.4001C47.0503 54.1537 46.8651 54.0078 46.643 53.989C45.8242 53.9382 45.003 53.9369 44.1839 53.985C43.9603 53.9968 43.7312 54.142 43.7547 54.4048C43.7767 54.6449 43.9964 54.7234 44.2255 54.7257C44.6147 54.7289 45.0055 54.7289 45.3962 54.7289ZM44.9945 21.0868V21.0672C45.2542 21.0672 45.5147 21.0789 45.7736 21.0672C45.9745 21.0554 46.1879 20.9997 46.1872 20.747C46.1872 20.5116 45.9879 20.4026 45.7885 20.3963C45.2307 20.379 44.6712 20.3806 44.1133 20.401C43.9297 20.4081 43.7414 20.5116 43.7477 20.7345C43.7532 20.933 43.9313 21.024 44.1 21.0444C44.3958 21.0727 44.6963 21.0672 44.9945 21.0844V21.0868ZM53.5205 24.4169C53.7685 24.4169 54.018 24.431 54.2644 24.4122C54.4464 24.398 54.532 24.267 54.532 24.0842C54.532 23.9013 54.4668 23.7585 54.2746 23.7546C53.752 23.7436 53.2294 23.7397 52.7053 23.7593C52.6619 23.7596 52.619 23.7686 52.5791 23.7857C52.5392 23.8027 52.5031 23.8276 52.4729 23.8588C52.4427 23.89 52.4191 23.9269 52.4033 23.9674C52.3876 24.0078 52.3801 24.051 52.3812 24.0944C52.3812 24.2819 52.5429 24.347 52.6951 24.3918C52.9705 24.4655 53.2475 24.4239 53.5205 24.4145V24.4169ZM53.0568 51.3549C53.2514 51.3549 53.4491 51.3549 53.6414 51.3549C53.8109 51.3509 53.949 51.2952 53.9764 51.0999C54.0039 50.9045 53.927 50.7625 53.7332 50.7162C53.2891 50.6166 52.8293 50.6086 52.382 50.6926C52.296 50.7047 52.2177 50.7487 52.1626 50.8158C52.1075 50.883 52.0797 50.9684 52.0846 51.0551C52.1019 51.2686 52.2659 51.3557 52.4722 51.3572C52.6786 51.3588 52.8622 51.3549 53.0568 51.3549ZM48.7357 27.7367C48.906 27.7367 49.0755 27.7407 49.245 27.7367C49.4144 27.7328 49.5549 27.6755 49.58 27.4802C49.6051 27.2848 49.5235 27.1396 49.3305 27.0965C48.9225 27.0062 48.5121 26.9254 48.0978 27.0729C47.9267 27.1334 47.7784 27.2134 47.802 27.4268C47.8255 27.6402 47.9887 27.7273 48.1888 27.736C48.3709 27.7407 48.5537 27.7367 48.7357 27.7367ZM48.1307 44.6751V44.6822C48.3136 44.6822 48.4964 44.69 48.68 44.6822C48.8636 44.6743 49.008 44.5802 49.0276 44.3785C49.0504 44.1494 48.9013 44.0332 48.7051 44.0089C48.3041 43.9465 47.8948 43.9625 47.4999 44.056C47.343 44.0976 47.2457 44.1878 47.2551 44.3605C47.2521 44.4407 47.2811 44.5188 47.3357 44.5776C47.3903 44.6365 47.466 44.6713 47.5462 44.6743C47.7384 44.6853 47.9354 44.6728 48.1307 44.6728V44.6751Z" fill="#2FB098"/>
<path d="M57.9868 40.1061C57.9868 34.0669 57.9868 28.0274 57.9868 21.9876C57.9868 21.1182 57.8299 21.0955 58.8342 21.1316C59.3435 21.1504 59.8543 21.1316 60.3635 21.1167C60.646 21.1072 60.7739 21.2469 60.8014 21.5035C60.8113 21.634 60.8142 21.765 60.81 21.8958V58.2897C60.81 58.4333 60.81 58.5777 60.8053 58.7213C60.7919 59.0155 60.6382 59.1921 60.34 59.1921C59.6871 59.1999 59.0327 59.2015 58.3783 59.1921C58.1014 59.1866 57.9719 59.0406 57.9719 58.737C57.9787 52.5272 57.9805 46.3177 57.9774 40.1085L57.9868 40.1061Z" fill="#2FB098"/>
<path d="M49.9088 12.6439C49.9088 13.5714 49.9088 14.4989 49.9088 15.4263C49.9088 15.923 49.8554 15.9756 49.3776 15.9756C48.4894 15.9756 47.6003 15.9661 46.7098 15.9803C46.3417 15.9858 46.1958 15.8492 46.1974 15.475C46.2084 13.5816 46.2029 11.689 46.2052 9.79563C46.2052 9.64419 46.1605 9.44567 46.3331 9.37505C46.5057 9.30443 46.607 9.49118 46.7066 9.59947C47.0315 9.95649 47.3343 10.3323 47.6662 10.6838C47.9801 11.0197 48.1158 11.0056 48.4219 10.6689C48.7467 10.3119 49.0708 9.9549 49.4043 9.60573C49.507 9.49902 49.5926 9.30287 49.7715 9.36564C49.9504 9.42841 49.9033 9.63162 49.9041 9.78149C49.9111 10.7364 49.9088 11.6898 49.9088 12.6439Z" fill="#2FB098"/>
<path d="M21.2006 45.6269C20.168 45.6269 19.1354 45.6316 18.1028 45.6269C17.0043 45.6199 16.5076 45.0133 16.6794 43.9336C16.7798 43.3059 16.8599 42.6703 16.9352 42.0371C17.0474 41.1042 16.1788 40.5047 15.5597 40.5683C14.389 40.6883 13.8962 40.1273 13.948 38.8993C13.9794 38.1413 13.5816 37.4987 13.2097 36.8655C12.4747 35.6278 12.0504 34.2305 11.973 32.7931C11.8757 31.1257 12.1221 29.5493 12.8511 28.0436C13.6051 26.4829 14.7678 25.1556 16.2157 24.2027C17.2096 23.5199 18.3385 23.0583 19.5261 22.8492C20.713 22.6512 21.9259 22.6708 23.1057 22.9072C24.781 23.2407 26.22 24.0238 27.4668 25.1623C28.789 26.3707 29.6435 27.8678 30.1504 29.5878C30.494 30.7538 30.5262 31.9363 30.4297 33.1187C30.3088 34.5277 29.8449 35.8857 29.0785 37.0742C28.6179 37.8008 28.4186 38.6035 28.3535 39.4415C28.2939 40.2144 27.9902 40.5471 27.2001 40.54C26.5253 40.54 25.9713 40.722 25.6308 41.3521C25.4526 41.677 25.5091 42.0136 25.5437 42.3478C25.6025 42.9191 25.6872 43.488 25.7563 44.0576C25.874 45.0298 25.3726 45.6089 24.38 45.6206C23.3176 45.6332 22.2591 45.6269 21.2006 45.6269ZM16.8936 37.2507C17.8846 37.188 18.7038 36.7493 19.3708 36.0526C20.1609 35.2255 20.1311 34.5751 19.4029 33.6688C19.1231 33.3247 18.7994 33.0187 18.4402 32.7586C18.0407 32.4653 17.6112 32.2155 17.1588 32.0132C16.1247 31.5424 14.9798 32.5452 14.9233 33.4867C14.881 34.2023 14.9233 34.9234 14.9006 35.6414C14.8865 36.0549 15.0426 36.3539 15.3298 36.6403C15.7723 37.0781 16.313 37.1919 16.8936 37.2476V37.2507ZM25.2188 37.2452C25.8183 37.2366 26.2216 37.1283 26.592 36.9314C27.0824 36.6716 27.3586 36.2833 27.4033 35.6908C27.4511 35.0631 27.368 34.4417 27.3876 33.8179C27.4072 33.1941 27.1381 32.6731 26.6814 32.2666C26.5012 32.094 26.2761 31.9755 26.0318 31.9245C25.7876 31.8734 25.5339 31.8919 25.2996 31.9779C24.165 32.3521 23.2933 33.0764 22.6318 34.0485C22.3525 34.4605 22.1971 34.9603 22.4631 35.4186C23.1089 36.5296 24.136 37.0781 25.2188 37.2421V37.2452ZM21.1213 40.6012C21.3489 40.6012 21.5192 40.6083 21.6886 40.6012C21.9703 40.5839 22.2384 40.4747 22.4521 40.2905C22.6658 40.1063 22.8133 39.8571 22.8719 39.5812C22.9292 39.3065 22.8005 39.0672 22.7495 38.8153C22.5777 37.9632 22.2002 37.1825 21.7961 36.4268C21.4925 35.8619 20.9134 35.8886 20.6011 36.4441C20.1515 37.2421 19.7788 38.0738 19.5936 38.9785C19.5387 39.2492 19.5104 39.5137 19.6187 39.7852C19.9075 40.5063 20.4803 40.6703 21.1213 40.5981V40.6012ZM24.3251 43.3946C24.3251 43.2643 24.3251 43.1349 24.3251 43.0023C24.3196 42.7935 24.2372 42.6499 24.0034 42.6492C23.7892 42.6492 23.6495 42.7614 23.633 42.9709C23.611 43.2295 23.6095 43.4895 23.6283 43.7485C23.644 43.9627 23.7672 44.1204 24.0042 44.1125C24.2411 44.1047 24.311 43.9446 24.3235 43.7422C24.3298 43.6284 24.3251 43.5084 24.3251 43.3946ZM18.4402 43.3828H18.4496C18.4496 43.5123 18.4402 43.6433 18.4496 43.7751C18.4653 43.9603 18.5508 44.1 18.754 44.1212C18.9573 44.1424 19.0679 44.0058 19.1009 43.8261C19.1481 43.6242 19.1676 43.4167 19.1589 43.2094C19.1377 42.9795 19.1589 42.6601 18.8035 42.6601C18.4323 42.6601 18.4417 42.9607 18.4394 43.2274C18.4402 43.2784 18.4402 43.3302 18.4402 43.3828ZM21.7271 43.4001C21.7271 43.2573 21.7365 43.1145 21.7271 42.9732C21.7138 42.8045 21.6376 42.6727 21.4478 42.6594C21.4057 42.6521 21.3627 42.6534 21.3212 42.6632C21.2796 42.6729 21.2405 42.6909 21.2061 42.7161C21.1717 42.7413 21.1427 42.7731 21.1209 42.8098C21.099 42.8464 21.0848 42.887 21.079 42.9293C21.0442 43.0805 21.0315 43.2359 21.0413 43.3907C21.0633 43.6826 20.9628 44.1102 21.414 44.1055C21.8652 44.1008 21.6965 43.6708 21.724 43.4001H21.7271Z" fill="#2FB098"/>
<path d="M29.9746 44.8658C29.9785 44.4845 30.1355 44.1597 30.3426 43.8513C30.6023 43.4637 30.578 43.3365 30.2422 43.0117C29.7102 42.4922 29.1907 41.9595 28.6603 41.4385C28.4179 41.2031 28.3535 40.9943 28.6321 40.715C28.8025 40.5516 28.9345 40.3524 29.0185 40.1318C29.1025 39.9111 29.1364 39.6745 29.1178 39.4392C29.106 39.2563 29.0487 39.0194 29.2747 38.9158C29.5164 38.8067 29.6176 39.0343 29.7502 39.1661C30.4697 39.8864 31.1861 40.6099 31.9072 41.3294C32.2784 41.6998 32.3513 41.7037 32.7703 41.4134C33.8359 40.6758 35.2028 41.2807 35.373 42.5621C35.486 43.4252 34.8049 44.2554 33.8555 44.3558C33.4467 44.399 33.2749 44.5292 33.2278 44.9639C33.1619 45.5979 32.8496 46.093 32.236 46.41C31.2858 46.9044 29.9746 46.0719 29.9746 44.8658Z" fill="#2FB098"/>
<path d="M33.5778 25.0125C33.271 25.0737 32.95 24.8618 32.6519 24.6202C32.4361 24.4483 32.2595 24.4475 32.0712 24.6374L30.4752 26.2483L30.2814 26.4421C29.8538 26.8666 29.8255 26.8588 29.4701 26.3637C29.2127 26.0027 28.953 25.641 28.6627 25.3067C28.4273 25.0352 28.5222 24.8422 28.7294 24.6351C29.2363 24.1266 29.7418 23.6174 30.2461 23.1073C30.6023 22.7472 30.6047 22.6279 30.2995 22.2066C29.8797 21.6251 29.8836 21.0162 30.2163 20.4019C30.4996 19.8777 31.183 19.505 31.7589 19.5913C32.4314 19.6925 32.9108 20.0574 33.1281 20.722C33.1886 20.9072 33.2749 21.0876 33.2655 21.2893C33.2506 21.6393 33.4703 21.7507 33.7629 21.7538C34.4487 21.7624 35.22 22.2944 35.3707 23.2015C35.4837 23.8818 35.0568 24.5911 34.3397 24.9144C34.1262 25.0109 33.9081 24.9976 33.5778 25.0125Z" fill="#2FB098"/>
<path d="M7.76416 42.5111C7.78163 42.2414 7.87403 41.982 8.03096 41.762C8.18789 41.542 8.40311 41.3701 8.65239 41.2658C9.18753 41.0304 9.76739 41.0202 10.3002 41.3702C10.7945 41.6966 10.8706 41.6934 11.2998 41.2697C11.7832 40.7934 12.2532 40.303 12.731 39.8213C13.0449 39.5074 13.2065 39.5404 13.3172 39.9617C13.4459 40.4529 13.715 40.835 14.1654 41.0696C14.491 41.2391 14.4565 41.4306 14.2376 41.6511C13.8233 42.0677 13.4105 42.4859 12.9892 42.8948C12.5678 43.3036 12.5341 43.4872 12.8621 43.9697C13.0503 44.2396 13.1517 44.5604 13.153 44.8894C13.1543 45.2184 13.0552 45.54 12.8691 45.8113C12.4917 46.348 11.7588 46.6674 11.2386 46.5222C10.4438 46.3009 9.91176 45.7211 9.9047 44.978C9.89921 44.5323 9.71089 44.4005 9.29816 44.3558C8.36442 44.2554 7.76259 43.5868 7.76416 42.5111Z" fill="#2FB098"/>
<path d="M7.76181 23.6008C7.77672 22.5572 8.32205 21.9444 9.19459 21.7718C9.81839 21.6494 9.81839 21.6494 9.89607 21.0476C10.0044 20.208 10.771 19.5497 11.6074 19.5787C12.3834 19.6054 13.1383 20.3633 13.1626 21.1739C13.168 21.5561 13.0422 21.9285 12.8064 22.2293C12.5474 22.5769 12.5749 22.8075 12.8848 23.1143C13.285 23.5067 13.6695 23.9123 14.0673 24.3117C14.2894 24.5369 14.309 24.7653 14.0744 24.9928C13.7333 25.3351 13.4232 25.7069 13.1477 26.1039C12.9672 26.3526 12.7891 26.3659 12.5733 26.1462C12.1433 25.7084 11.7102 25.2776 11.2716 24.8453C10.8581 24.4341 10.8008 24.4333 10.3057 24.7496C9.73836 25.1105 9.13417 25.1317 8.56137 24.81C8.02702 24.5079 7.77436 23.9986 7.76181 23.6008Z" fill="#2FB098"/>
<path d="M15.6021 34.7492C15.6295 34.3687 15.6468 33.9646 15.69 33.5628C15.7684 32.8566 16.3601 32.5004 17.0239 32.7735C17.8549 33.1008 18.5573 33.6889 19.0255 34.4495C19.2829 34.8701 19.2162 35.1557 18.8796 35.5041C18.3656 36.0353 17.7536 36.3845 17.0145 36.488C16.9123 36.5088 16.8072 36.5104 16.7045 36.4927C15.9144 36.3005 15.6664 36.1663 15.6405 35.4366C15.6303 35.2153 15.6154 34.9941 15.6021 34.7492Z" fill="#2FB098"/>
<path d="M26.7167 34.9666C26.7214 35.0576 26.7301 35.1487 26.7308 35.2397C26.7363 36.3382 26.009 36.543 25.1874 36.4614C24.3879 36.3829 23.728 35.9396 23.2446 35.2687C23.0586 35.0105 23.0524 34.772 23.225 34.5115C23.7656 33.6978 24.4522 33.0591 25.3852 32.7256C25.9446 32.5263 26.4837 32.8708 26.5982 33.4891C26.6843 33.9768 26.724 34.4715 26.7167 34.9666Z" fill="#2FB098"/>
<path d="M21.2218 39.8299C20.2661 39.822 20.1617 39.6588 20.4371 38.6984C20.5749 38.237 20.7534 37.7887 20.9707 37.359C21.0146 37.2672 21.0492 37.1526 21.1771 37.1495C21.305 37.1463 21.3779 37.2507 21.4305 37.3606C21.7147 37.9471 21.9402 38.5603 22.1038 39.1912C22.2081 39.6031 22.0449 39.8095 21.6165 39.8291C21.4831 39.8354 21.3521 39.8299 21.2218 39.8299Z" fill="#2FB098"/>
</g>
<defs>
<clipPath id="clip0_16993_10982">
<rect width="60.8091" height="60.8091" fill="white"/>
</clipPath>
</defs>
</svg>
