<svg width="62" height="61" viewBox="0 0 62 61" fill="none" xmlns="http://www.w3.org/2000/svg">
<g clip-path="url(#clip0_18721_335)">
<path d="M3 56.4911C3.03422 56.4365 3.05653 56.3753 3.06548 56.3115C3.13639 55.9061 3.30231 55.5388 3.52527 55.1967C4.06561 54.3678 4.60748 53.5398 5.15089 52.7129C6.0003 51.4181 6.85023 50.1238 7.70071 48.8298C8.27559 47.9544 8.85068 47.0791 9.42596 46.2038C10.0081 45.3179 10.5901 44.4317 11.1721 43.5453C11.7506 42.6647 12.3292 41.7841 12.9078 40.9033L15.596 36.8119L17.3327 34.1692L19.1538 31.3987C19.7608 30.4747 20.3679 29.5512 20.9751 28.6283C21.6 27.678 22.2273 26.7295 22.8483 25.776C23.041 25.4803 23.2469 25.1935 23.4146 24.8803C23.6436 24.4554 23.8035 23.9967 23.888 23.5214C23.9433 23.1985 23.9698 22.8713 23.9672 22.5436C23.9645 19.6841 23.9639 16.8245 23.9654 13.965C23.9654 12.7117 23.9641 11.4586 23.9616 10.2057C23.9616 10.1286 23.9599 10.0512 23.966 9.97451C23.9824 9.76521 24.0777 9.66237 24.285 9.62641C24.5401 9.58202 24.797 9.59528 25.0537 9.60773C25.1433 9.61215 25.2328 9.6232 25.3224 9.6232C28.7669 9.624 32.2113 9.62366 35.6555 9.62219C35.9439 9.62219 36.2322 9.59066 36.5216 9.59728C36.6243 9.60061 36.7266 9.61081 36.8279 9.62782C36.978 9.65172 37.0704 9.73468 37.0997 9.88673C37.1175 9.97489 37.1269 10.0646 37.1276 10.1545C37.1276 11.3497 37.1477 12.5448 37.1208 13.74C37.0995 14.6841 37.11 15.6281 37.1035 16.5722C37.0971 17.5103 37.1021 18.4485 37.1021 19.3868C37.1021 20.4855 37.0975 21.5845 37.1039 22.6832C37.1075 23.2914 37.203 23.8854 37.4364 24.4525C37.5612 24.7556 37.7148 25.0461 37.8951 25.32C38.3638 26.034 38.8338 26.7478 39.305 27.4613C40.1875 28.8035 41.0696 30.1459 41.9513 31.4887C42.4735 32.2834 42.9952 33.0785 43.5162 33.874C44.0979 34.7602 44.68 35.6463 45.2624 36.5322C45.7877 37.3325 46.3129 38.133 46.838 38.9336C47.7162 40.271 48.5946 41.6082 49.4732 42.9451C50.066 43.8473 50.6589 44.7493 51.2518 45.6512C52.2405 47.1543 53.2295 48.6572 54.2187 50.1599C54.5613 50.6806 54.9042 51.2011 55.2471 51.7215C55.965 52.8106 56.683 53.8995 57.4012 54.9884C57.605 55.2935 57.7616 55.6276 57.8658 55.9795C57.8998 56.096 57.9209 56.2163 57.9478 56.335V57.4918C57.9384 57.5156 57.9308 57.54 57.9249 57.5649C57.8335 58.0974 57.5918 58.5572 57.2419 58.9619C56.8089 59.4615 56.2653 59.7823 55.6257 59.944C55.5639 59.9596 55.5034 59.9799 55.4422 59.9982H5.73783C5.66973 59.9799 5.60224 59.9596 5.53375 59.944C4.8963 59.8034 4.31423 59.4785 3.85992 59.0097C3.44733 58.5879 3.18841 58.0908 3.07111 57.5165C3.05564 57.4406 3.04499 57.3644 3 57.299V56.4911ZM38.2838 51.9872C38.2876 52.0824 38.2756 52.227 38.3017 52.3642C38.4116 52.9425 38.6944 53.4202 39.1709 53.7731C39.5436 54.0556 40.0052 54.1955 40.4721 54.1674C40.8851 54.1463 41.2677 54.033 41.6078 53.7898C42.0527 53.4716 42.3128 53.0359 42.4398 52.5107C42.4749 52.3656 42.48 52.218 42.498 52.0718C42.5235 51.8745 42.6071 51.7211 42.7764 51.611C42.9155 51.5178 43.0421 51.4073 43.1533 51.2822C43.6165 50.7752 43.8045 50.1752 43.694 49.5025C43.5956 48.9029 43.269 48.4341 42.7521 48.1074C42.3582 47.8586 41.9264 47.7728 41.4626 47.8132C41.0898 47.8461 40.7313 47.9723 40.4201 48.1802C40.361 48.2189 40.3028 48.2591 40.2443 48.2987C40.0434 48.4353 39.8377 48.4393 39.6282 48.3161C39.0409 47.9715 38.4455 47.6406 37.8467 47.3162C37.7959 47.289 37.7483 47.256 37.7049 47.218C37.6671 47.1872 37.6399 47.1452 37.6274 47.098C37.6148 47.0508 37.6175 47.0008 37.635 46.9553C37.6598 46.8892 37.6886 46.8247 37.7214 46.7622C37.8094 46.5835 37.9066 46.4089 37.9861 46.2267C38.3016 45.5134 38.4679 44.7432 38.4749 43.9633C38.4767 43.7641 38.4769 43.567 38.416 43.3722C38.3551 43.1773 38.4031 42.9905 38.5076 42.8188C38.589 42.687 38.6977 42.5742 38.8264 42.488C39.0817 42.3144 39.3558 42.1703 39.6435 42.0583C39.8898 41.9613 40.122 41.9916 40.3465 42.1204C40.4132 42.1587 40.4749 42.206 40.541 42.2455C40.6113 42.2901 40.6843 42.3303 40.7595 42.366C41.1195 42.5267 41.4917 42.5916 41.8864 42.5285C42.5926 42.4157 43.1247 42.0563 43.4744 41.4316C43.6617 41.0974 43.7289 40.7368 43.7155 40.3554C43.6998 39.8733 43.5377 39.4527 43.2248 39.0881C43.0888 38.9335 42.9342 38.7964 42.7646 38.6797C42.6151 38.5741 42.5258 38.4316 42.5061 38.2475C42.4978 38.1707 42.486 38.0946 42.4775 38.0181C42.4129 37.4416 42.1646 36.9651 41.7074 36.6023C41.4246 36.3778 41.1012 36.2452 40.7483 36.1769C40.2019 36.071 39.7026 36.1821 39.2452 36.4939C38.9019 36.7279 38.6512 37.0406 38.4765 37.4147C38.3411 37.7041 38.2696 38.0082 38.2862 38.33C38.2915 38.4327 38.2953 38.5353 38.3013 38.6379C38.3126 38.8284 38.241 38.982 38.0783 39.078C37.9225 39.1681 37.7615 39.249 37.5963 39.3203C37.4916 39.3667 37.4155 39.3356 37.3432 39.2432C37.3234 39.2181 37.3061 39.1912 37.2915 39.1628C37.2383 39.0599 37.1723 38.9642 37.0951 38.8778C36.97 38.7311 36.8448 38.5843 36.7134 38.4445C36.1068 37.8029 35.411 37.2821 34.611 36.9042C34.2385 36.7298 33.8521 36.5868 33.4558 36.4768C32.7751 36.2852 32.0752 36.1706 31.369 36.1353C31.3049 36.1321 31.2404 36.1305 31.1765 36.1239C30.8111 36.0855 30.4442 36.0915 30.0794 36.114C29.7913 36.1317 29.5025 36.1412 29.2146 36.1719C28.8567 36.2105 28.4992 36.2478 28.1462 36.3177C27.3717 36.4714 26.6369 36.7347 25.9528 37.1334C25.5023 37.395 25.0819 37.7053 24.6993 38.0588C24.4074 38.3302 24.1355 38.6222 23.8856 38.9326C23.8155 39.0251 23.7284 39.1033 23.6289 39.163C23.4839 39.2454 23.3371 39.2518 23.187 39.1779C23.1013 39.1336 23.0212 39.0792 22.9484 39.016C22.7813 38.877 22.7126 38.701 22.7439 38.4851C22.758 38.4028 22.7667 38.3198 22.77 38.2364C22.7761 37.8941 22.6964 37.5557 22.5382 37.2522C22.2793 36.7514 21.889 36.3912 21.3479 36.2187C20.8067 36.0461 20.2694 36.0885 19.752 36.3227C19.4572 36.4548 19.2003 36.6588 19.0049 36.9161C18.7559 37.2392 18.6117 37.6309 18.5918 38.0383C18.5749 38.3302 18.4722 38.5586 18.2139 38.7101C18.1083 38.7719 18.0235 38.8623 17.9379 38.9493C17.4577 39.4374 17.2779 40.0308 17.3681 40.6968C17.4484 41.298 17.7485 41.7815 18.2479 42.1342C18.5905 42.3792 19.0006 42.512 19.4217 42.5143C19.7652 42.5198 20.1022 42.4207 20.3879 42.2301C20.463 42.1806 20.5382 42.1306 20.6171 42.088C20.957 41.9044 21.3023 41.8884 21.6516 42.0619C21.698 42.084 21.7431 42.1085 21.787 42.1352C21.9603 42.2457 22.1304 42.3594 22.3203 42.443C22.501 42.5233 22.5876 42.6792 22.5942 42.8742C22.5979 42.9829 22.5868 43.0922 22.5806 43.2012C22.5752 43.2973 22.5639 43.3931 22.5605 43.4893C22.551 43.8619 22.5741 44.2346 22.6296 44.6031C22.7347 45.3431 22.9818 46.0558 23.3571 46.7022C23.3908 46.7569 23.4216 46.8133 23.4493 46.8713C23.5154 47.0197 23.4895 47.1148 23.3555 47.2017C23.2639 47.2608 23.1673 47.3126 23.0713 47.3642C22.6127 47.6107 22.1564 47.8602 21.7118 48.1316C21.6351 48.1784 21.5558 48.2209 21.4748 48.2601C21.2631 48.3621 21.0518 48.3569 20.8461 48.2438C20.7679 48.1995 20.692 48.1511 20.6189 48.0988C20.1627 47.7796 19.6588 47.6866 19.115 47.7758C18.3262 47.9052 17.6583 48.5114 17.4452 49.3024C17.3805 49.5434 17.3811 49.7845 17.3819 50.0291C17.3833 50.4032 17.5179 50.731 17.7282 51.0335C17.8172 51.1612 17.9305 51.2661 18.0404 51.375C18.3604 51.6899 18.5733 52.0637 18.6675 52.504C18.6809 52.5667 18.6956 52.6294 18.7123 52.6915C18.8063 53.0402 18.975 53.3485 19.2359 53.5986C19.5065 53.8579 19.8319 54.0172 20.2001 54.0937C20.4681 54.1493 20.7382 54.1489 21.006 54.1226C21.4479 54.0792 21.8356 53.9045 22.1527 53.5869C22.5583 53.1812 22.7638 52.69 22.7754 52.1178C22.7782 51.983 22.7734 51.848 22.772 51.713C22.7698 51.4951 22.863 51.3298 23.048 51.2159C23.0916 51.189 23.1368 51.1641 23.1818 51.1393C23.4179 51.0088 23.6542 50.8786 23.8906 50.7489C23.9808 50.6994 24.0714 50.6484 24.1646 50.6082C24.4422 50.4877 24.6923 50.5494 24.9175 50.737C25.0675 50.8619 25.1477 51.0289 25.1776 51.2191C25.22 51.4852 25.2602 51.7522 25.2925 52.0197C25.3373 52.3893 25.368 52.7607 25.4158 53.1299C25.4616 53.4839 25.5966 53.7982 25.8682 54.0427C25.9961 54.1606 26.1434 54.2557 26.3035 54.3239C26.517 54.4125 26.7303 54.5017 26.9463 54.5838C27.9259 54.9589 28.9573 55.1813 30.0045 55.2433C30.6464 55.2812 31.2905 55.2543 31.927 55.1629C32.9203 55.0187 33.8885 54.7355 34.803 54.3217C35.2059 54.1409 35.4785 53.8364 35.5964 53.4069C35.6361 53.257 35.665 53.1044 35.6828 52.9504C35.7282 52.5872 35.7631 52.2228 35.8075 51.8597C35.8404 51.5918 35.8908 51.3263 35.9584 51.065C36.0196 50.8288 36.1691 50.6729 36.3963 50.5898C36.5931 50.5177 36.7864 50.5203 36.9732 50.6243C37.248 50.7778 37.5228 50.9312 37.7977 51.0847C37.8873 51.1349 37.9785 51.1833 38.0659 51.2368C38.2278 51.3352 38.3097 51.4778 38.2987 51.6706C38.2941 51.7612 38.2901 51.8512 38.2838 51.9872Z" fill="#EA2339"/>
<path d="M23.8224 0C23.8522 0.0114206 23.8831 0.0197665 23.9146 0.0249076C24.318 0.0514222 24.7193 0.101438 25.124 0.113892C25.4454 0.123935 25.7644 0.154066 26.0844 0.175358L26.123 0.177366C26.4757 0.193034 26.8284 0.206291 27.1809 0.225374C27.5142 0.243452 27.8468 0.267958 28.1798 0.28945C28.1999 0.290656 28.2182 0.292263 28.2375 0.293066C28.5838 0.308935 28.9303 0.322192 29.2762 0.341475C29.5966 0.359352 29.9166 0.383858 30.2365 0.405351L30.2942 0.408967C30.6405 0.424835 30.987 0.438093 31.3331 0.457577C31.6468 0.475253 31.9604 0.499558 32.2739 0.52085C32.2932 0.522323 32.3125 0.523528 32.3318 0.524466C32.6717 0.540334 33.0115 0.553592 33.3512 0.572674C33.6714 0.590752 33.9914 0.614856 34.3115 0.636349C34.3306 0.637755 34.3499 0.639161 34.3692 0.640166C34.7091 0.656235 35.0489 0.669492 35.3886 0.688776C35.7023 0.706653 36.0159 0.730958 36.3297 0.752451C36.3497 0.753857 36.368 0.755062 36.3873 0.755865C36.7272 0.771734 37.0674 0.780773 37.4067 0.80548C37.6628 0.82416 37.9191 0.837016 38.1756 0.84947C38.2269 0.852629 38.2776 0.862212 38.3265 0.877993C38.4151 0.90511 38.447 0.955327 38.4492 1.05054C38.4514 1.14575 38.4147 1.2269 38.3811 1.30946C38.2379 1.6672 38.0933 2.02414 37.9527 2.38289C37.7044 3.01683 37.4595 3.65198 37.2123 4.28612C37.1898 4.34624 37.1633 4.40482 37.1331 4.46147C37.0594 4.59525 36.9453 4.66937 36.7916 4.67761C36.7404 4.68042 36.689 4.68062 36.6376 4.68062H24.3991C24.3734 4.68062 24.3477 4.67962 24.322 4.68062C24.101 4.68866 23.9604 4.58641 23.8877 4.37249C23.817 4.166 23.7553 3.95629 23.6892 3.74839C23.4288 2.92832 23.1683 2.10831 22.9077 1.28837C22.7966 0.939458 22.6835 0.591355 22.5736 0.242247C22.5485 0.162904 22.5323 0.0815523 22.512 0H23.8224Z" fill="#EA2339"/>
<path d="M30.5193 5.50704H38.5553C38.6324 5.50704 38.7099 5.50403 38.7865 5.51166C38.9367 5.52673 38.9915 5.58759 38.9873 5.73683C38.985 5.80735 38.9757 5.87746 38.9596 5.94614C38.8823 6.2842 38.8009 6.62125 38.7232 6.95911C38.6179 7.41589 38.5151 7.87306 38.4096 8.32984C38.3938 8.405 38.3723 8.47886 38.3453 8.55079C38.2851 8.70184 38.1706 8.78661 38.0085 8.79906C37.9125 8.80629 37.8159 8.80589 37.7196 8.80589C35.7538 8.80495 33.788 8.80375 31.8222 8.80228C29.0854 8.80228 26.3487 8.80228 23.6119 8.80228C23.5157 8.80228 23.4193 8.80549 23.3228 8.80529C23.2264 8.80509 23.13 8.80529 23.034 8.80027C22.845 8.79022 22.7219 8.69019 22.668 8.51142C22.6365 8.40717 22.6182 8.2989 22.5933 8.19264C22.4302 7.49242 22.267 6.79206 22.1036 6.09157C22.0861 6.01664 22.0678 5.94172 22.054 5.86599C22.0442 5.81563 22.0393 5.76444 22.0393 5.71313C22.0411 5.60306 22.0845 5.55023 22.1938 5.52331C22.2376 5.51364 22.2823 5.50839 22.3272 5.50764C22.3912 5.50483 22.4555 5.50644 22.5198 5.50644L30.5193 5.50704Z" fill="#EA2339"/>
<path d="M37.5976 43.6349C37.5976 43.8342 37.6037 44.0337 37.5964 44.2325C37.5781 44.7347 37.5032 45.229 37.3401 45.7075C37.1736 46.1958 36.9183 46.6289 36.5493 46.9921C36.4659 47.0724 36.3917 47.1619 36.3283 47.2588C36.1982 47.4625 36.1433 47.678 36.2036 47.9197C36.2351 48.0508 36.2775 48.179 36.3304 48.3031C36.4093 48.4792 36.4668 48.6641 36.5017 48.8539C36.5646 49.2217 36.4579 49.5256 36.1548 49.754C36.0685 49.821 35.976 49.8797 35.8786 49.9293L35.6884 50.0227C35.4013 50.1633 35.2115 50.3833 35.1201 50.6918C35.0744 50.8458 35.042 51.0034 35.0231 51.1629C34.9749 51.5708 34.9355 51.9798 34.8931 52.3882C34.8787 52.5288 34.8698 52.6694 34.853 52.81C34.8076 53.1671 34.6344 53.4371 34.3012 53.5904C34.173 53.6494 34.0429 53.7052 33.9105 53.7543C33.1488 54.0373 32.366 54.2394 31.5577 54.3273C31.0212 54.3858 30.4804 54.3937 29.9424 54.351C29.162 54.2894 28.4065 54.1227 27.6665 53.8754C27.3984 53.7858 27.1356 53.6817 26.8769 53.5679C26.8009 53.5336 26.7271 53.4946 26.656 53.4509C26.4011 53.2957 26.2659 53.0637 26.2452 52.7694C26.2126 52.2696 26.1471 51.7724 26.0489 51.2812C25.9935 51.0114 26.0088 50.7433 26.0668 50.4777C26.1249 50.2122 26.1932 49.9532 26.2623 49.6925C26.3077 49.5208 26.3681 49.4766 26.5491 49.4657C26.6068 49.4623 26.6646 49.4641 26.7225 49.4639C26.8446 49.4639 26.9667 49.4653 27.0886 49.4621C27.3345 49.4559 27.5026 49.3372 27.5826 49.104C27.683 48.8123 27.7776 48.5188 27.8754 48.2266C27.8988 48.1528 27.906 48.0748 27.8967 47.998C27.8929 47.9497 27.8788 47.9028 27.8553 47.8605C27.8318 47.8181 27.7995 47.7813 27.7605 47.7525C27.6715 47.6876 27.5655 47.6501 27.4554 47.6447C27.3106 47.6352 27.1915 47.7148 27.1397 47.852C27.1143 47.9247 27.0942 47.9991 27.0794 48.0747C27.0552 48.1817 27.0125 48.2836 26.9534 48.376C26.9077 48.4501 26.8477 48.5144 26.7769 48.5651C26.7062 48.6159 26.6261 48.6522 26.5413 48.6719C26.4355 48.7001 26.3263 48.7128 26.2169 48.7097C26.1528 48.7075 26.0885 48.7077 26.0242 48.7063C25.834 48.7016 25.7093 48.8007 25.6285 48.9622C25.6029 49.0209 25.5823 49.0818 25.5671 49.1441C25.5166 49.3167 25.4682 49.49 25.4178 49.6626C25.4021 49.7251 25.3735 49.7837 25.3339 49.8345C25.2824 49.8948 25.2161 49.9149 25.1438 49.8821C25.1028 49.8639 25.0645 49.8403 25.0297 49.8118C24.7523 49.5859 24.5854 49.299 24.5617 48.9381C24.5501 48.7623 24.5868 48.5928 24.6497 48.4293C24.6842 48.3393 24.7252 48.2519 24.7602 48.1621C24.8137 48.0313 24.8475 47.8934 24.8606 47.7527C24.8863 47.4235 24.7768 47.1475 24.5553 46.9091C24.4591 46.8058 24.3609 46.704 24.2691 46.5967C24.0405 46.33 23.877 46.0251 23.7621 45.6946C23.6472 45.3642 23.5849 45.0258 23.5381 44.6809C23.4869 44.3048 23.4684 43.9268 23.4421 43.5492C23.4261 43.3633 23.4294 43.1763 23.4519 42.9912C23.4573 42.953 23.4604 42.9146 23.4614 42.8761C23.4768 42.3099 23.5714 41.7487 23.7426 41.2089C23.9728 40.4644 24.3464 39.772 24.8423 39.1709C25.5265 38.3403 26.3948 37.7776 27.4032 37.4205C27.9791 37.217 28.577 37.0822 29.1845 37.0188C29.4778 36.9878 29.7726 36.9637 30.0683 36.9691C30.4152 36.9756 30.7623 36.9691 31.109 36.9764C31.4505 36.9834 31.7887 37.0081 32.1228 37.081C32.183 37.0943 32.2634 37.0871 32.2815 37.1614C32.2963 37.223 32.2321 37.2618 32.1925 37.302C31.9818 37.5181 31.7702 37.7335 31.5575 37.9482C31.4965 38.0054 31.4437 38.0706 31.4005 38.1422C31.3065 38.3126 31.3213 38.4957 31.4489 38.6444C31.5455 38.7563 31.6517 38.8589 31.7819 38.9338C31.8434 38.9687 31.9025 39.0076 31.9589 39.0503C32.0048 39.0855 32.0464 39.1259 32.0828 39.1709C32.1533 39.2586 32.1632 39.3567 32.1145 39.4597C32.0704 39.5458 32.0073 39.6208 31.9299 39.6789C31.7749 39.8038 31.619 39.9277 31.468 40.0573C31.3705 40.1409 31.2781 40.2306 31.1887 40.3226C30.9939 40.5235 31.0769 40.7995 31.249 40.9325C31.3896 41.0411 31.5487 41.0486 31.6959 40.9481C31.7589 40.9035 31.8193 40.8552 31.8767 40.8035C32.3259 40.4096 32.772 40.0123 33.1918 39.5867C33.2189 39.5591 33.2468 39.5322 33.2721 39.5027C33.3977 39.3512 33.4029 39.2088 33.2906 39.0447C33.2416 38.9768 33.1822 38.917 33.1145 38.8678C32.9923 38.7737 32.8682 38.6821 32.7449 38.59C32.7244 38.5743 32.7031 38.5599 32.681 38.5466C32.5203 38.4508 32.4709 38.3101 32.6227 38.13C32.7674 37.9577 32.9234 37.7954 33.0898 37.6441C33.327 37.4291 33.5955 37.3829 33.8954 37.4906C34.076 37.5582 34.2518 37.6378 34.4217 37.7288C34.8165 37.9309 35.1911 38.1702 35.5405 38.4433C36.5083 39.2098 37.1334 40.1925 37.4074 41.3961C37.495 41.7845 37.5488 42.1798 37.5681 42.5776C37.5842 42.9291 37.5988 43.2818 37.5976 43.6349ZM27.628 42.8379C27.1364 42.8405 26.8026 42.8745 26.4049 42.9659C26.1791 43.0178 25.9633 43.106 25.7657 43.227C25.5958 43.3302 25.4644 43.4708 25.4224 43.6719C25.3957 43.7972 25.3728 43.9238 25.3758 44.0536C25.3816 44.4201 25.4452 44.7835 25.5642 45.1302C25.6558 45.3913 25.7673 45.6442 25.9363 45.8668C26.1253 46.1155 26.3637 46.2886 26.6771 46.3489C26.9676 46.408 27.2666 46.4126 27.5589 46.3625C28.46 46.2018 29.1174 45.7037 29.5274 44.8817C29.6422 44.6576 29.6951 44.4068 29.6806 44.1554C29.6567 43.7525 29.4854 43.4295 29.1602 43.1898C28.9872 43.0623 28.7912 42.9829 28.5847 42.9287C28.2707 42.8467 27.9494 42.8377 27.628 42.8379ZM35.6902 44.0059C35.6902 43.9847 35.6902 43.9527 35.6902 43.9206C35.6862 43.6347 35.563 43.4152 35.3206 43.2643C35.2552 43.2237 35.1874 43.1871 35.1175 43.1549C34.9369 43.071 34.747 43.0086 34.5519 42.9691C34.1548 42.8887 33.754 42.8475 33.3483 42.8773C33.2971 42.8811 33.2456 42.8813 33.1944 42.8823C33.0148 42.8846 32.8355 42.8981 32.6575 42.9225C32.4342 42.9522 32.2192 43.0266 32.0254 43.1414C31.7006 43.3365 31.4858 43.6153 31.4304 43.9959C31.3769 44.3351 31.4361 44.6824 31.5987 44.9848C31.7061 45.1896 31.8389 45.3801 31.9938 45.5518C32.4721 46.0741 33.0753 46.3402 33.7707 46.4129C33.9757 46.434 34.1828 46.4143 34.3801 46.3551C34.7578 46.244 35.0257 45.9976 35.2252 45.6679C35.4168 45.3512 35.5331 45.0051 35.6068 44.6449C35.6486 44.4376 35.6972 44.2307 35.6902 44.0059ZM32.5824 53.0564C32.7704 53.0643 32.9078 52.9944 32.9714 52.808C32.9737 52.8019 32.9769 52.7963 32.9793 52.7905C33.0321 52.6595 33.1323 52.5876 33.2681 52.5623C33.3185 52.5529 33.3702 52.5505 33.4206 52.5422C33.4717 52.5346 33.5207 52.5164 33.5644 52.4887C33.608 52.461 33.6454 52.4245 33.6741 52.3815C33.8721 52.0883 33.6906 51.7056 33.3997 51.7014C33.1908 51.6982 33.0528 51.5883 32.9857 51.387C32.9556 51.2966 32.8841 51.24 32.7955 51.2079C32.6672 51.1616 32.5264 51.1643 32.4 51.2153C32.2795 51.2609 32.2212 51.3559 32.1951 51.4764C32.1938 51.4827 32.192 51.4889 32.1899 51.4949C32.1467 51.6178 32.0631 51.6865 31.9287 51.6821C31.7619 51.6746 31.5947 51.6806 31.4288 51.7C31.2962 51.7173 31.1912 51.6572 31.1211 51.5425C31.0911 51.4933 31.0668 51.4407 31.0395 51.3896C30.999 51.316 30.9349 51.258 30.8575 51.2251C30.6767 51.1412 30.3913 51.2187 30.3152 51.417C30.3026 51.4466 30.2884 51.4755 30.2728 51.5035C30.1955 51.652 30.0707 51.7161 29.9072 51.6956C29.7732 51.6797 29.638 51.6754 29.5033 51.6827C29.4832 51.6827 29.4647 51.6827 29.4454 51.6827C29.3219 51.6827 29.2397 51.6202 29.1925 51.5092C29.175 51.4678 29.1636 51.4238 29.1455 51.3828C29.1263 51.3346 29.0954 51.292 29.0554 51.2588C29.0155 51.2257 28.9679 51.2031 28.9169 51.1932C28.7004 51.1512 28.4401 51.1731 28.3545 51.4595C28.3527 51.4658 28.3497 51.4716 28.3475 51.4776C28.3037 51.5981 28.2137 51.6612 28.0906 51.6833C28.0335 51.6936 27.9771 51.7054 27.9202 51.7169C27.811 51.739 27.7378 51.8083 27.688 51.9031C27.5418 52.1815 27.6967 52.5039 28.0068 52.5458C28.1918 52.5703 28.3151 52.6463 28.3784 52.8271C28.4363 52.9934 28.5684 53.0617 28.7412 53.0558C28.7733 53.0546 28.8055 53.0558 28.8376 53.0538C28.9868 53.0464 29.0909 52.9717 29.1532 52.8375C29.1666 52.8086 29.1755 52.7772 29.1865 52.7473C29.2341 52.6167 29.3287 52.5545 29.4663 52.5537C29.6139 52.5537 29.7618 52.5551 29.9092 52.5497C30.0798 52.5434 30.2091 52.6047 30.2909 52.7578C30.3337 52.8381 30.3967 52.902 30.4578 52.9685C30.5644 53.0842 30.7946 53.089 30.9115 52.9685C30.9811 52.9016 31.0411 52.8255 31.0899 52.7423C31.1656 52.6033 31.2856 52.5458 31.4402 52.5489C31.5949 52.5519 31.7486 52.5515 31.9022 52.5547C32.0228 52.5573 32.1093 52.6159 32.1557 52.7286C32.1728 52.7702 32.1834 52.8144 32.2009 52.8556C32.2471 52.9653 32.3325 53.0273 32.448 53.047C32.4922 53.0532 32.5376 53.053 32.5824 53.0564ZM31.7233 48.9499C31.7243 48.8296 31.7127 48.7096 31.6885 48.5918C31.5784 48.0908 31.3436 47.6559 31.0005 47.2777C30.9001 47.1688 30.7852 47.0742 30.6591 46.9965C30.5542 46.9304 30.4552 46.9304 30.3594 47.0145C30.2967 47.0694 30.23 47.1198 30.1687 47.1762C29.8086 47.5073 29.5228 47.8881 29.3819 48.364C29.2738 48.7225 29.2738 49.105 29.3819 49.4635C29.4087 49.563 29.4567 49.6555 29.5226 49.7347C29.6358 49.8665 29.7949 49.9056 29.9566 49.8454C30.022 49.8188 30.0827 49.7818 30.1364 49.7359C30.2065 49.6799 30.2752 49.6216 30.3481 49.5696C30.4522 49.4953 30.5612 49.4929 30.6735 49.5559C30.745 49.5989 30.8107 49.6509 30.869 49.7106C30.9329 49.774 31.0097 49.8229 31.0941 49.854C31.2526 49.9111 31.384 49.8679 31.4959 49.7526C31.563 49.6827 31.611 49.5967 31.6353 49.5029C31.6871 49.3179 31.7271 49.1299 31.7233 48.9499Z" fill="#EA2339"/>
<path d="M39.1578 51.8877C39.1578 51.7387 39.1578 51.6051 39.1377 51.4703C39.0721 51.0375 38.8276 50.7297 38.4673 50.5076C38.2927 50.4001 38.1057 50.3129 37.9219 50.2209C37.8072 50.1635 37.6901 50.1109 37.5828 50.039C37.3169 49.861 37.2285 49.6107 37.2833 49.3034C37.2953 49.2403 37.3133 49.1785 37.337 49.1188C37.4073 48.938 37.4025 48.7544 37.3651 48.5688C37.3412 48.4493 37.3143 48.3302 37.2908 48.2105C37.2832 48.1728 37.2794 48.1345 37.2795 48.0962C37.2795 48.0333 37.3281 48.0005 37.3838 48.0291C37.5324 48.1052 37.6801 48.1831 37.8257 48.2651C38.3124 48.5395 38.7967 48.8179 39.284 49.0911C39.5548 49.2429 39.8464 49.307 40.1565 49.268C40.3291 49.2446 40.4943 49.1829 40.6398 49.0872C40.7316 49.0284 40.8206 48.9637 40.9062 48.8968C41.1203 48.7284 41.3827 48.6331 41.655 48.6248C42.0202 48.611 42.335 48.7426 42.5872 49.0091C42.8136 49.2477 42.9374 49.5396 42.9364 49.8636C42.9349 50.2681 42.7775 50.6146 42.447 50.8653C42.3552 50.935 42.2532 50.9911 42.1548 51.0513C42.0564 51.1116 41.9624 51.1789 41.8874 51.2695C41.7549 51.4302 41.6988 51.6178 41.69 51.8217C41.6854 51.9307 41.692 52.0402 41.6874 52.1493C41.6691 52.5673 41.4977 52.9057 41.1474 53.1412C40.8732 53.3253 40.5649 53.3707 40.2435 53.3272C39.9695 53.29 39.7253 53.1803 39.5258 52.9837C39.2591 52.7209 39.1402 52.3989 39.149 52.0271C39.149 51.9759 39.1554 51.9247 39.1578 51.8877Z" fill="#EA2339"/>
<path d="M20.6297 53.3376C20.1772 53.3376 19.578 53.0584 19.4195 52.366C19.3938 52.2598 19.3815 52.1507 19.3829 52.0414C19.3851 51.9516 19.3843 51.8606 19.3785 51.7717C19.3627 51.5306 19.2735 51.3247 19.0899 51.1618C19.0034 51.0849 18.9081 51.0186 18.8058 50.9644C18.4859 50.7946 18.2916 50.5297 18.1998 50.181C18.0482 49.6061 18.3234 48.9629 18.9017 48.7104C19.3289 48.524 19.7403 48.5612 20.1249 48.8309C20.193 48.879 20.2571 48.9332 20.3258 48.9804C20.8147 49.3175 21.3187 49.3267 21.8323 49.0419C22.0456 48.9235 22.2515 48.7918 22.4646 48.6731C22.863 48.4511 23.2639 48.2342 23.664 48.0156C23.6865 48.0032 23.71 47.9925 23.7341 47.9837C23.743 47.9799 23.7528 47.9786 23.7623 47.9798C23.7719 47.9811 23.781 47.9849 23.7886 47.9908C23.7962 47.9968 23.8021 48.0047 23.8056 48.0136C23.8091 48.0226 23.8102 48.0324 23.8087 48.0419C23.8004 48.099 23.7886 48.1556 23.7745 48.2117C23.7227 48.4308 23.6823 48.6512 23.6769 48.8773C23.6694 49.1153 23.704 49.3528 23.7789 49.5788C23.7892 49.6091 23.7978 49.6402 23.806 49.6712C23.8163 49.7054 23.8155 49.742 23.8038 49.7758C23.7922 49.8095 23.7702 49.8388 23.741 49.8594C23.7008 49.8914 23.6579 49.9197 23.6126 49.944C23.3471 50.0872 23.0809 50.2295 22.8142 50.3708C22.5982 50.4857 22.3859 50.6044 22.218 50.789C22.0294 50.9961 21.9167 51.2351 21.9014 51.5151C21.8938 51.6558 21.8982 51.7978 21.9014 51.9388C21.9054 52.0936 21.9014 52.2469 21.8629 52.3982C21.7644 52.7931 21.527 53.0711 21.1546 53.2316C20.9895 53.305 20.8103 53.3412 20.6297 53.3376Z" fill="#EA2339"/>
<path d="M41.6485 38.3258C41.6485 38.4146 41.646 38.4853 41.6485 38.5558C41.6538 38.6984 41.7094 38.8346 41.8053 38.9403C41.9131 39.0597 42.0412 39.1592 42.1836 39.2341C42.3944 39.3465 42.5716 39.5129 42.697 39.7162C42.8322 39.9367 42.8966 40.1934 42.8814 40.4516C42.8663 40.7098 42.7724 40.9572 42.6124 41.1605C42.3631 41.4774 42.0379 41.6524 41.6372 41.6678C41.3405 41.6793 41.0671 41.5875 40.8233 41.4166C40.7229 41.3465 40.628 41.2701 40.5296 41.1984C40.3898 41.0948 40.2299 41.0215 40.0602 40.9833C39.9346 40.9541 39.8041 40.9541 39.6785 40.9833C39.4116 41.0454 39.1738 41.1691 38.9498 41.3228C38.8915 41.3629 38.8373 41.4087 38.7783 41.4473C38.7199 41.487 38.6587 41.5221 38.5951 41.5525C38.3858 41.6476 38.2307 41.5756 38.1646 41.3535C38.1447 41.2857 38.1303 41.2163 38.1216 41.1462C38.1006 40.9935 38.0678 40.8428 38.0234 40.6952C37.9911 40.5846 37.9631 40.4719 37.941 40.3588C37.9253 40.2926 37.9279 40.2233 37.9487 40.1585C37.9694 40.0937 38.0075 40.0358 38.0587 39.991C38.1203 39.9349 38.1856 39.8829 38.254 39.8353C38.3645 39.7582 38.4822 39.6911 38.5906 39.6114C38.9942 39.3153 39.1601 38.9137 39.1041 38.4194C39.0682 38.1176 39.1255 37.812 39.2682 37.5436C39.328 37.4296 39.4072 37.3269 39.5022 37.2399C39.8738 36.8964 40.5608 36.7345 41.1071 37.1091C41.2758 37.2248 41.398 37.3791 41.4888 37.5591C41.6112 37.7952 41.6665 38.0604 41.6485 38.3258Z" fill="#EA2339"/>
<path d="M21.8953 38.5316C21.8953 38.6023 21.8941 38.6723 21.8953 38.7436C21.9036 39.1326 22.0833 39.4295 22.3901 39.6563C22.483 39.7253 22.5832 39.7839 22.6888 39.8313C22.7531 39.8606 22.8151 39.8947 22.8742 39.9335C23.017 40.0261 23.0766 40.1601 23.0596 40.329C23.0505 40.4123 23.027 40.4933 22.9901 40.5684C22.8896 40.7792 22.839 41.0045 22.7892 41.2313C22.7728 41.3198 22.7502 41.4071 22.7217 41.4924C22.6699 41.633 22.5827 41.6634 22.4473 41.5997C22.4071 41.5806 22.3696 41.5549 22.3306 41.5324C22.1474 41.4259 21.9648 41.3179 21.7804 41.2136C21.5643 41.0915 21.3351 41.0236 21.0824 41.0262C20.8758 41.0264 20.6735 41.0849 20.4987 41.1949C20.4184 41.246 20.341 41.3056 20.2629 41.3617C20.0998 41.4784 19.927 41.5756 19.73 41.6228C19.4721 41.6871 19.2002 41.6628 18.9578 41.5537C18.8106 41.4886 18.6688 41.4159 18.5507 41.3016C18.3171 41.0758 18.1984 40.7994 18.1827 40.4781C18.1757 40.3374 18.1759 40.1968 18.2074 40.0562C18.2799 39.7348 18.4685 39.5032 18.7481 39.3411C18.8486 39.2831 18.9516 39.2321 19.0434 39.1604C19.2473 39.0015 19.3624 38.7944 19.3809 38.5377C19.3881 38.4354 19.3823 38.3324 19.3855 38.2297C19.3939 37.9608 19.4596 37.7101 19.6183 37.4877C19.6955 37.3766 19.7936 37.2815 19.9071 37.2079C20.2181 37.0103 20.5525 36.9319 20.9189 37.0034C21.3889 37.095 21.6782 37.3837 21.8212 37.829C21.8973 38.0628 21.9094 38.2197 21.8953 38.5316Z" fill="#EA2339"/>
</g>
<defs>
<clipPath id="clip0_18721_335">
<rect width="54.9478" height="60" fill="white" transform="translate(3)"/>
</clipPath>
</defs>
</svg>
