<svg width="47" height="47" viewBox="0 0 47 47" fill="none" xmlns="http://www.w3.org/2000/svg">
<g clip-path="url(#clip0_39134_315373)">
<path d="M4.31641 23.1338V4.81993C4.31641 4.1206 4.31641 4.1206 5.02598 4.11975C7.61577 4.11975 10.2056 4.11975 12.7962 4.11975C13.1233 4.11975 13.3939 4.17525 13.645 4.41604C14.025 4.77723 14.5262 4.87628 15.0317 4.87799C17.3223 4.88653 19.6136 4.88653 21.9054 4.87799C22.4612 4.87799 22.9761 4.71832 23.3868 4.32041C23.4586 4.25184 23.5436 4.19879 23.6368 4.16456C23.7299 4.13033 23.8291 4.11566 23.9282 4.12146C26.6606 4.12146 29.393 4.12829 32.1254 4.11719C32.5088 4.11719 32.6112 4.27174 32.6112 4.62951C32.6044 9.96508 32.6024 15.3012 32.6052 20.6379C32.6052 21.1315 32.5583 21.169 31.8888 21.2143C30.5641 21.294 29.2637 21.6065 28.0473 22.1373C24.461 23.7281 22.1171 26.4485 20.9712 30.1638C19.7579 34.0976 20.3675 37.7846 22.7217 41.1719C22.8924 41.417 23.0803 41.6501 23.2715 41.8798C23.4748 42.1231 23.3569 42.1957 23.111 42.2076C22.9975 42.2128 22.883 42.2076 22.7695 42.2076H5.05586C4.31726 42.2076 4.31641 42.2076 4.31641 41.4853V23.1338ZM9.72228 19.171C10.1627 19.1906 10.5975 19.0665 10.9613 18.8175C11.9757 18.1626 12.4034 17.0013 12.0397 15.799C11.9586 15.5275 11.9833 15.3473 12.2045 15.1663C12.6895 14.771 13.1634 14.362 13.6373 13.953C13.82 13.795 13.9899 13.766 14.2154 13.8889C14.7755 14.1938 15.3758 14.2826 15.988 14.0819C16.3031 13.9777 16.485 14.0819 16.6754 14.3227C17.2384 15.0382 17.8139 15.7435 18.4019 16.4386C18.6427 16.7212 18.6948 16.939 18.4873 17.2925C17.7325 18.5972 18.2883 20.4714 19.6016 21.1955C20.1595 21.5062 20.8062 21.619 21.4363 21.5156C22.0665 21.4122 22.6432 21.0986 23.0726 20.626C23.947 19.6816 24.1032 18.1643 23.3877 17.1131C23.1699 16.7938 23.1879 16.5846 23.4039 16.2909C24.0793 15.3738 24.7419 14.4482 25.3798 13.5064C25.6001 13.1802 25.8067 13.1145 26.1901 13.2118C28.2522 13.7352 29.9839 12.077 29.9172 10.1148C29.8737 8.83399 28.9626 7.74359 27.745 7.39094C26.5274 7.03829 25.2201 7.52073 24.4422 8.61113C23.6968 9.65541 23.6899 10.9627 24.4567 12.0377C24.6343 12.2871 24.6557 12.4647 24.4747 12.7157C23.7574 13.7062 23.0504 14.7047 22.3536 15.7111C22.1905 15.9459 22.0215 16.0074 21.744 15.9314C21.179 15.7659 20.5757 15.7878 20.0243 15.9937C19.7604 16.0945 19.6101 16.0296 19.4445 15.8229C18.828 15.0408 18.2018 14.2666 17.566 13.5004C17.3952 13.298 17.361 13.123 17.4968 12.8865C17.7268 12.5035 17.8293 12.0574 17.7897 11.6125C17.6847 10.6041 17.209 9.81936 16.2433 9.43682C15.3724 9.09015 14.527 9.19261 13.8072 9.82619C12.9977 10.5366 12.6903 11.4255 13.0191 12.4775C13.1045 12.7447 13.0362 12.8984 12.8329 13.0607C12.3548 13.4423 11.8817 13.8291 11.4249 14.2373C11.2114 14.4269 11.039 14.4533 10.7845 14.3048C10.1868 13.9538 9.52418 13.9547 8.88036 14.134C7.57137 14.4935 6.81142 15.7017 7.00952 17.0474C7.18969 18.277 8.31168 19.1735 9.72228 19.171ZM13.7099 25.99H15.9299C17.1962 25.99 18.4625 25.9943 19.728 25.9857C20.2446 25.9857 20.4811 25.6895 20.3718 25.2258C20.2864 24.8518 19.9986 24.8083 19.6784 24.8083C15.6937 24.8083 11.709 24.8083 7.72422 24.8083C7.63859 24.807 7.55299 24.8119 7.46805 24.8228C7.17176 24.8663 7.01892 25.0482 6.99415 25.3351C6.95744 25.7535 7.19054 25.9798 7.6875 25.9806C9.69752 25.9917 11.7041 25.9883 13.7099 25.99ZM12.716 31.3173H7.94025C7.8124 31.312 7.68434 31.3149 7.55686 31.3259C7.21531 31.3703 7.01209 31.5556 6.99415 31.9099C6.97622 32.2643 7.1692 32.4675 7.50648 32.5333C7.63302 32.5525 7.76114 32.5594 7.88901 32.5537C11.1013 32.5537 14.3138 32.5537 17.5267 32.5537C17.67 32.5616 17.8137 32.5496 17.9536 32.5179C18.2431 32.4325 18.4173 32.231 18.3993 31.9202C18.4006 31.7829 18.3535 31.6496 18.2661 31.5438C18.1788 31.4379 18.057 31.3662 17.922 31.3412C17.781 31.3179 17.6378 31.3102 17.4951 31.3182C15.9012 31.3165 14.3082 31.3162 12.716 31.3173ZM12.9892 39.0662H17.8939C18.0928 39.0662 18.2918 39.0662 18.4916 39.0611C18.8451 39.05 19.0483 38.8664 19.0799 38.5146C19.1089 38.1885 18.8775 37.9366 18.5155 37.8905C18.402 37.8792 18.2879 37.8752 18.1739 37.8785C14.7476 37.8785 11.3216 37.8785 7.89584 37.8785C7.73964 37.8738 7.58338 37.8855 7.42963 37.9135C7.11711 37.9801 6.97964 38.197 7.00269 38.5112C7.02575 38.8255 7.16749 39.0235 7.49111 39.0577C7.63314 39.0687 7.77564 39.0724 7.91804 39.0688L12.9892 39.0662ZM12.9849 29.2467H16.1443L18.4053 29.2424C18.7682 29.2424 18.9629 29.0529 18.9868 28.6994C19.0099 28.3578 18.7827 28.111 18.4284 28.0718C18.329 28.0634 18.2292 28.0605 18.1295 28.0632H7.84461C7.73066 28.0602 7.61663 28.0636 7.50306 28.0735C7.18713 28.1076 7.02148 28.2938 6.99501 28.6054C6.95829 29.0238 7.18457 29.2416 7.69262 29.2433C9.45758 29.251 11.2208 29.2475 12.9849 29.2484V29.2467ZM12.751 35.8062C14.3449 35.8062 15.9362 35.8062 17.525 35.8062C17.6966 35.8141 17.8686 35.8017 18.0373 35.7694C18.3421 35.6969 18.4873 35.4655 18.4719 35.1717C18.4566 34.878 18.2892 34.6662 17.969 34.6321C17.827 34.6198 17.6845 34.6152 17.5421 34.6184H7.90695C7.76451 34.6149 7.62198 34.6192 7.48001 34.6312C7.17945 34.6645 7.03087 34.8541 6.99842 35.1435C6.9489 35.5705 7.19994 35.8096 7.71995 35.8113C9.39866 35.8104 11.0748 35.807 12.751 35.8079V35.8062Z" fill="#DD6930"/>
<path d="M27.1283 45.1234C27.0054 45.26 26.8389 45.2087 26.692 45.2087C25.6819 45.1968 24.6726 45.1507 23.6633 45.1643C17.1329 45.2497 10.5991 45.2036 4.0729 45.2608C2.39589 45.2753 1.2184 44.0799 1.22267 42.4251C1.2517 29.576 1.2517 16.7275 1.22267 3.87954C1.22267 2.1718 2.52226 1.00028 4.08656 1.03187C6.83176 1.08738 9.57868 1.04639 12.3247 1.0481C12.861 1.0481 12.884 1.07371 12.8891 1.59372C12.8891 1.8644 12.8729 2.13593 12.8891 2.4049C12.9165 2.7789 12.7602 2.89588 12.3913 2.89417C10.3139 2.88051 8.23639 2.88734 6.15806 2.88734C5.48947 2.88734 4.82089 2.88734 4.15231 2.88734C3.34028 2.88734 3.07899 3.15033 3.07899 3.95895C3.07899 10.7734 3.07899 17.5888 3.07899 24.405C3.07899 30.3673 3.07899 36.3293 3.07899 42.291C3.07899 43.2158 3.27196 43.4071 4.21037 43.4071C10.8706 43.4071 17.5308 43.4039 24.191 43.3977C24.5847 43.3977 24.904 43.4831 25.2029 43.7452C25.7297 44.2054 26.3325 44.5606 26.9302 44.9193C27.0105 44.9645 27.1198 44.9919 27.1283 45.1234Z" fill="#DD6930"/>
<path d="M33.0909 22.3762C39.9971 22.2977 44.4987 28.215 44.5166 33.9889C44.532 39.3384 40.1089 45.2319 33.0585 45.2379C26.1848 45.2438 21.5312 39.5818 21.5884 33.9164C21.6525 27.9034 26.3018 22.2789 33.0909 22.3762ZM43.0172 33.7635C43.1649 28.3935 38.5634 23.9038 32.9176 23.8586C27.5783 23.8133 23.0562 28.3602 23.0793 33.6158C23.1032 38.9764 27.1967 43.7547 32.9449 43.7863C38.6932 43.8179 43.1598 39.002 43.0172 33.7635Z" fill="#DD6930"/>
<path d="M35.6778 12.3106C35.6778 15.1278 35.6778 17.9456 35.6778 20.7639C35.6778 21.3898 35.6582 21.4043 35.0596 21.3181C34.8769 21.2916 34.695 21.2549 34.5114 21.2327C33.7891 21.1618 33.7882 21.1635 33.7882 20.4232C33.7882 14.9749 33.7882 9.5261 33.7882 4.07667C33.7882 3.09472 33.5756 2.88552 32.5791 2.88552H24.5527C23.9917 2.88552 23.9789 2.87015 23.9729 2.31513C23.9601 1.04371 23.961 1.06933 25.2204 1.03432C27.0691 0.979674 28.9177 0.968574 30.7663 0.981383C31.5485 0.98736 32.3306 1.01725 33.1111 1.05994C34.6404 1.14533 35.6727 2.26561 35.6727 3.8615C35.6829 6.67672 35.6778 9.49365 35.6778 12.3106Z" fill="#DD6930"/>
<path d="M18.4212 3.65416C17.3112 3.65416 16.2011 3.65843 15.0962 3.65416C14.3738 3.65416 14.1288 3.398 14.1271 2.67306C14.1271 2.00533 14.133 1.3376 14.1271 0.669875C14.1228 0.380412 14.2423 0.260869 14.5318 0.261723C17.1464 0.265708 19.7606 0.265708 22.3746 0.261723C22.6641 0.261723 22.7922 0.387242 22.7922 0.668167C22.7922 1.37859 22.8093 2.08987 22.7836 2.79858C22.7623 3.3647 22.4532 3.64563 21.876 3.65246C20.7232 3.661 19.5722 3.65331 18.4212 3.65416Z" fill="#DD6930"/>
<path d="M26.9371 8.54695C27.9524 8.55549 28.6961 9.29665 28.6918 10.2965C28.6801 10.768 28.4842 11.216 28.1461 11.5448C27.808 11.8735 27.3546 12.0567 26.883 12.0552C26.4115 12.0536 25.9593 11.8674 25.6234 11.5364C25.2874 11.2055 25.0945 10.7561 25.0859 10.2846C25.1022 9.23944 25.8502 8.53841 26.9371 8.54695Z" fill="#DD6930"/>
<path d="M22.6353 18.6554C22.6302 19.5417 21.8181 20.3563 20.9472 20.3486C20.1309 20.3409 19.3112 19.5357 19.3086 18.739C19.3086 17.8655 20.1351 17.0253 20.9976 17.0313C21.86 17.0373 22.6404 17.7964 22.6353 18.6554Z" fill="#DD6930"/>
<path d="M10.9387 16.6229C10.9387 17.4187 10.376 17.9771 9.56651 17.9823C9.20791 17.9894 8.86113 17.8539 8.60228 17.6056C8.34343 17.3573 8.19364 17.0165 8.1858 16.6579C8.18228 16.4731 8.21567 16.2895 8.28401 16.1177C8.35236 15.946 8.45428 15.7896 8.58382 15.6578C8.71336 15.5259 8.8679 15.4213 9.0384 15.3499C9.2089 15.2786 9.39193 15.2419 9.57676 15.2422C10.3837 15.2559 10.9378 15.8177 10.9387 16.6229Z" fill="#DD6930"/>
<path d="M15.3407 12.9496C15.0108 12.9443 14.6966 12.8083 14.4669 12.5715C14.2372 12.3348 14.1108 12.0166 14.1154 11.6868C14.1239 11.0165 14.6874 10.4461 15.3296 10.4572C15.9879 10.4683 16.5702 11.0686 16.5677 11.732C16.5569 12.0531 16.4239 12.358 16.1958 12.5843C15.9678 12.8107 15.6619 12.9413 15.3407 12.9496Z" fill="#DD6930"/>
<path d="M32.9764 42.5784C28.1417 42.5784 24.3053 38.6215 24.3027 33.6349C24.3027 28.9967 28.2476 25.0484 32.8782 25.0586C37.8392 25.0697 41.8293 28.9429 41.8319 33.751C41.8345 34.9134 41.607 36.0647 41.1626 37.1387C40.7181 38.2127 40.0655 39.1881 39.2423 40.0087C38.4191 40.8293 37.4416 41.4788 36.3662 41.9199C35.2908 42.3609 34.1387 42.5847 32.9764 42.5784ZM35.3194 31.3474C35.3194 30.6506 35.3194 29.953 35.3194 29.2563C35.3134 28.0122 34.4254 27.1011 33.1847 27.0652C32.0371 27.0311 31.1448 27.8995 31.091 29.1333C31.0629 29.7583 31.0705 30.3851 31.0842 31.0118C31.0919 31.3585 30.9647 31.4985 30.6112 31.4908C29.9716 31.4755 29.3303 31.461 28.6916 31.5011C27.474 31.5779 26.6184 32.4694 26.6423 33.5863C26.6705 34.8321 27.5731 35.7209 28.8342 35.7252C30.2574 35.7332 31.6805 35.7332 33.1036 35.7252C34.4169 35.7167 35.2989 34.8363 35.3151 33.5256C35.3262 32.799 35.3194 32.0732 35.3194 31.3474Z" fill="#DD6930"/>
<path d="M34.0806 31.4027C34.0806 32.1003 34.0858 32.797 34.0806 33.4947C34.0747 34.1479 33.7391 34.5193 33.0901 34.5193C31.6818 34.5358 30.2735 34.5358 28.8652 34.5193C28.2384 34.5125 27.8781 34.1778 27.8474 33.6484C27.8183 33.136 28.1718 32.7347 28.7866 32.7006C29.6516 32.6527 30.5208 32.669 31.3875 32.6621C32.156 32.6562 32.2627 32.5528 32.2644 31.7604C32.2644 30.9356 32.2499 30.1099 32.273 29.2842C32.2943 28.52 32.8878 28.0965 33.5333 28.3518C33.9073 28.4995 34.0849 28.7787 34.0858 29.1783C34.0829 29.9223 34.0812 30.6638 34.0806 31.4027Z" fill="#DD6930"/>
</g>
<defs>
<clipPath id="clip0_39134_315373">
<rect width="43.2957" height="45" fill="white" transform="translate(1.2207 0.257812)"/>
</clipPath>
</defs>
</svg>
