<svg width="62" height="61" viewBox="0 0 62 61" fill="none" xmlns="http://www.w3.org/2000/svg">
<g clip-path="url(#clip0_18721_355)">
<path d="M42.1478 4.00524C46.5314 4.00524 50.915 3.98961 55.2985 4.00524C57.2129 4.00524 58.8278 4.70588 59.9608 6.31814C60.6557 7.3386 61.0145 8.55063 60.987 9.7849C61.0001 16.5569 61.0105 23.3055 60.987 30.0645C60.987 32.0778 60.2708 33.8021 58.497 34.9351C57.5632 35.5273 56.4772 35.835 55.3715 35.8207C52.7382 35.8207 50.1049 35.8207 47.4743 35.8207C46.7997 35.8207 46.771 35.8623 47.0002 36.4926C49.0405 42.0631 51.0773 47.6335 53.1107 53.2039C53.238 53.5358 53.3424 53.8761 53.4232 54.2223C53.5363 54.6465 53.4887 55.0974 53.2897 55.4887C53.0907 55.88 52.7543 56.184 52.3449 56.3425C51.928 56.5199 51.4606 56.5384 51.031 56.3944C50.6014 56.2504 50.2395 55.9539 50.0138 55.5611C49.8991 55.3644 49.8024 55.1578 49.7247 54.9438C47.4552 48.8073 45.1892 42.6699 42.9266 36.5317C42.8016 36.1957 42.7156 35.8285 42.2494 35.8259C41.7832 35.8233 41.5982 36.1514 41.468 36.5343C39.2645 42.5875 37.0584 48.6415 34.8497 54.6963C34.7181 55.1634 34.4821 55.5945 34.1595 55.957C33.8694 56.2462 33.4914 56.4308 33.085 56.4818C32.6785 56.5327 32.2667 56.447 31.9143 56.2383C31.5746 56.0514 31.3053 55.7586 31.1473 55.4046C30.9894 55.0506 30.9514 54.6546 31.0391 54.277C31.323 53.0242 31.8413 51.8469 32.2789 50.6461C34.0067 45.9005 35.7344 41.1558 37.4621 36.4119C37.634 35.9405 37.5507 35.8285 37.0376 35.8233C36.5974 35.8233 36.1546 35.8233 35.7144 35.8233C35.3628 35.8233 35.2169 35.6383 35.2794 35.3023C35.4372 34.4643 35.5148 33.613 35.5113 32.7602C35.5333 32.5463 35.6066 32.3408 35.7248 32.1612L39.1421 25.3266C39.7332 24.2426 39.938 22.9898 39.7229 21.7739C39.5329 20.7589 39.0359 19.8267 38.299 19.1033C37.562 18.3799 36.6208 17.9002 35.6024 17.729C33.3781 17.393 31.3465 18.3593 30.2812 20.3128C29.6561 21.4614 29.0961 22.6569 28.5126 23.8186C28.023 24.7979 27.9162 24.8344 26.916 24.3395C25.9158 23.8446 24.986 23.3654 24.0145 22.8913C23.8428 22.8213 23.6974 22.6992 23.5988 22.5422C23.5002 22.3852 23.4534 22.2012 23.4649 22.0162C23.4649 19.1693 23.3998 16.3251 23.4284 13.4782C23.4441 11.9311 23.4493 10.3787 23.5561 8.8316C23.7123 6.60465 25.6397 4.50271 27.9448 4.09118C28.3668 4.02405 28.7939 3.99442 29.2211 4.00263L42.1478 4.00524ZM42.2129 14.9446H49.2454C50.0581 14.9446 50.8707 14.9603 51.6807 14.9316C52.0755 14.9078 52.4472 14.7377 52.7232 14.4545C52.9992 14.1713 53.1596 13.7953 53.1732 13.4001C53.191 13.2041 53.1687 13.0065 53.1078 12.8194C53.0468 12.6322 52.9484 12.4594 52.8185 12.3115C52.6886 12.1636 52.53 12.0437 52.3523 11.959C52.1746 11.8744 51.9816 11.8268 51.7849 11.8191C51.4173 11.7787 51.0478 11.7579 50.6779 11.7566C45.0589 11.7566 39.439 11.7566 33.8183 11.7566C33.4197 11.757 33.0214 11.7796 32.6253 11.8243C32.3595 11.8544 32.1061 11.9536 31.8904 12.1119C31.6746 12.2702 31.5041 12.4821 31.3956 12.7267C31.2871 12.9713 31.2445 13.2401 31.272 13.5062C31.2995 13.7724 31.3961 14.0267 31.5522 14.244C31.7238 14.4813 31.9531 14.6708 32.2183 14.7948C32.4836 14.9187 32.7761 14.973 33.0681 14.9525C36.1233 14.942 39.1681 14.9472 42.2129 14.9472V14.9446ZM45.4427 21.787C45.4284 22.5115 45.6774 23.2167 46.1433 23.7717C48.0777 26.1766 50.0146 28.5781 51.9542 30.9761C52.1808 31.2574 52.3084 31.1688 52.4309 30.9057C52.5137 30.7016 52.6445 30.5204 52.8123 30.3776C52.9801 30.2347 53.1798 30.1345 53.3946 30.0853C53.8269 29.9759 53.8321 29.9056 53.5456 29.5644C52.4387 28.1943 51.3239 26.8269 50.2169 25.4543C49.4043 24.4489 48.5864 23.4461 47.792 22.4251C47.6338 22.237 47.5415 22.0022 47.5292 21.7567C47.517 21.5112 47.5855 21.2684 47.7243 21.0655C47.8425 20.8514 48.0226 20.6782 48.2411 20.5684C48.4596 20.4587 48.7062 20.4177 48.9485 20.4508C49.1997 20.4702 49.4383 20.5685 49.6301 20.7318C49.822 20.8951 49.9572 21.1149 50.0164 21.3598C50.1857 21.912 49.9461 22.3365 49.6075 22.7194C49.5599 22.7559 49.5214 22.8028 49.4949 22.8566C49.4684 22.9103 49.4546 22.9695 49.4546 23.0294C49.4546 23.0893 49.4684 23.1484 49.4949 23.2022C49.5214 23.2559 49.5599 23.3028 49.6075 23.3393C49.9304 23.6988 50.2326 24.0764 50.5269 24.4619C50.6727 24.6521 50.7873 24.6521 50.9228 24.4619C51.215 24.1358 51.4815 23.7875 51.7198 23.4201C52.0673 22.8281 52.2283 22.1451 52.1819 21.4603C52.1354 20.7754 51.8836 20.1205 51.4593 19.5809C51.0154 19.034 50.4114 18.6398 49.732 18.4536C49.0526 18.2674 48.332 18.2986 47.6713 18.5428C47.0106 18.787 46.4429 19.2319 46.0478 19.8151C45.6528 20.3984 45.4503 21.0906 45.4687 21.7948L45.4427 21.787ZM48.1931 27.7307C48.1463 27.663 48.0942 27.5796 48.0343 27.5015C47.7399 27.1368 47.4404 26.7774 47.1539 26.405C46.969 26.1627 46.8179 26.1445 46.633 26.405C45.7648 27.4885 44.8879 28.5685 44.0023 29.6451C43.8252 29.8639 43.8617 30.0124 44.1351 30.0671C44.3803 30.1105 44.61 30.2166 44.8021 30.3749C44.9943 30.5332 45.1422 30.7385 45.2317 30.9709C45.3515 31.2313 45.4922 31.2131 45.6589 30.9943C46.4533 29.9967 47.2607 29.0044 48.0629 28.012C48.1024 27.9768 48.1342 27.9339 48.1566 27.886C48.179 27.8381 48.1914 27.7862 48.1931 27.7333V27.7307Z" fill="#F52C74"/>
<path d="M10.5537 22.8574C6.20136 21.7323 4.37292 18.1066 4.45366 15.0775C4.56305 11.0012 7.66776 7.8965 11.1319 7.54227C15.2498 7.12033 18.3806 9.27696 19.5657 12.6968C20.0313 14.0046 20.1215 15.4166 19.8261 16.7731C19.5365 18.1445 18.8926 19.4161 17.9586 20.4612C17.0182 21.4809 15.8461 22.259 14.5413 22.7298C15.0076 22.8184 15.4712 22.8314 15.9244 22.92C17.0804 23.1662 18.1976 23.5684 19.2453 24.1155L28.5334 28.7309C29.3903 29.1554 29.4059 29.1476 29.8357 28.2855C30.8376 26.2747 31.8421 24.264 32.8492 22.2532C32.9644 22.0088 33.1069 21.7781 33.2738 21.5656C33.5398 21.233 33.9117 21.0017 34.3276 20.9101C34.7435 20.8185 35.1782 20.8722 35.5593 21.0623C35.9404 21.2524 36.2448 21.5673 36.4218 21.9547C36.5989 22.342 36.6378 22.7783 36.5321 23.1908C36.4274 23.5756 36.2788 23.947 36.0894 24.2978C34.9069 26.6654 33.7452 29.0382 32.5315 31.3954C32.2646 31.916 32.1671 32.507 32.2528 33.0858C32.4585 34.7163 31.8699 36.0446 30.6535 37.1047C29.0204 38.5294 27.218 38.7951 25.2255 37.9017C23.6419 37.1907 22.1208 36.339 20.558 35.5966C20.4174 35.5289 20.2767 35.4638 20.1361 35.3935C19.8912 35.2763 19.7532 35.3284 19.7558 35.6253C19.7558 35.8102 19.7558 35.9952 19.7558 36.1801C19.7558 42.0839 19.7558 47.9877 19.7558 53.8915C19.7636 54.1903 19.7453 54.4892 19.7011 54.7849C19.5005 55.9413 18.9041 56.4779 17.7268 56.4935C16.3177 56.5091 14.9086 56.4935 13.4995 56.4935C11.2804 56.4935 9.06123 56.4935 6.8421 56.4935C5.47988 56.4935 4.90426 55.9726 4.7584 54.6156C4.72546 54.305 4.71068 53.9928 4.71412 53.6805C4.71412 51.0603 4.71412 48.4426 4.72975 45.825C4.75345 45.5656 4.69471 45.3054 4.56189 45.0814C4.42908 44.8574 4.22896 44.681 3.99004 44.5774C2.02095 43.5355 1.00775 41.8816 1.01296 39.6286C1.01296 37.696 1.01296 35.7607 1.01296 33.8255C1.01739 31.2535 1.91644 28.7632 3.55594 26.7816C5.19545 24.7999 7.47329 23.4503 9.99889 22.9642C10.1578 22.9382 10.3245 22.9017 10.5537 22.8574Z" fill="#F52C74"/>
</g>
<defs>
<clipPath id="clip0_18721_355">
<rect width="60" height="52.5013" fill="white" transform="translate(1 4)"/>
</clipPath>
</defs>
</svg>
