<svg width="61" height="61" viewBox="0 0 61 61" fill="none" xmlns="http://www.w3.org/2000/svg">
<g clip-path="url(#clip0_18721_360)">
<path d="M7.2085 32.1327C7.2085 26.776 7.2085 21.4154 7.2085 16.0509C7.2085 14.9797 7.24685 14.9399 8.33422 14.9399C12.8327 14.9399 17.3342 14.9517 21.8297 14.9266C22.5394 14.9266 22.8728 15.1509 23.069 15.8488C23.969 19.043 25.9357 21.4553 28.6888 23.2538C28.9012 23.371 29.0759 23.546 29.1927 23.7587C29.3094 23.9713 29.3634 24.2127 29.3483 24.4548C29.3414 32.4219 29.339 40.3861 29.3409 48.3473C29.3409 49.1824 29.2008 49.3093 28.3244 49.3093C21.6143 49.3093 14.9042 49.3093 8.19406 49.3093C7.28522 49.3093 7.20997 49.2237 7.2085 48.2765C7.2085 42.8972 7.2085 37.516 7.2085 32.1327ZM18.094 35.8994C20.6745 35.8994 23.2579 35.8994 25.8369 35.8994C26.2367 35.8994 26.7826 35.9938 26.7693 35.3668C26.759 34.8091 26.2736 34.7766 25.8369 34.7766H25.6156C20.6258 34.7766 15.636 34.7766 10.6462 34.7766C10.3988 34.766 10.151 34.7858 9.90847 34.8357C9.77234 34.8588 9.6508 34.9347 9.57017 35.0468C9.48954 35.1589 9.4563 35.2982 9.47766 35.4347C9.50569 35.7297 9.70487 35.8552 9.97634 35.8773C10.1962 35.895 10.419 35.8979 10.6388 35.8979L18.094 35.8994ZM18.1353 45.6946H10.3245C9.94093 45.6946 9.52487 45.7152 9.50421 46.2139C9.48208 46.7716 9.92765 46.7879 10.3349 46.8041C10.4337 46.8041 10.5326 46.8041 10.6299 46.8041C15.6463 46.8041 20.6592 46.8041 25.6687 46.8041C25.8895 46.8096 26.1104 46.7987 26.3297 46.7716C26.4549 46.7652 26.5729 46.711 26.6594 46.6201C26.7459 46.5293 26.7942 46.4087 26.7944 46.2833C26.8011 46.2151 26.794 46.1464 26.7735 46.081C26.7531 46.0157 26.7197 45.9552 26.6754 45.903C26.6311 45.8508 26.5767 45.8081 26.5155 45.7774C26.4544 45.7466 26.3876 45.7285 26.3193 45.7241C26.1 45.6979 25.879 45.6896 25.6583 45.699L18.1353 45.6946ZM18.1545 30.4478H25.592C25.8133 30.4478 26.0346 30.4478 26.2544 30.4345C26.5495 30.4154 26.7885 30.2973 26.7973 29.958C26.8092 29.5773 26.5598 29.4519 26.2278 29.4313C26.0803 29.4224 25.9328 29.4209 25.7852 29.4209C20.6784 29.4209 15.5725 29.4209 10.4676 29.4209C10.2704 29.4173 10.0731 29.4286 9.87749 29.4549C9.76613 29.4664 9.66327 29.5197 9.58963 29.604C9.51598 29.6883 9.47703 29.7974 9.48061 29.9093C9.47165 29.9709 9.47579 30.0338 9.49278 30.0937C9.50976 30.1536 9.5392 30.2093 9.57916 30.257C9.61913 30.3048 9.66872 30.3436 9.72471 30.3709C9.78069 30.3982 9.8418 30.4133 9.90405 30.4154C10.149 30.4421 10.3954 30.4524 10.6417 30.4464L18.1545 30.4478ZM18.1441 41.3658H25.5211C25.741 41.3658 25.9637 41.3658 26.1836 41.354C26.5126 41.3377 26.7737 41.2064 26.79 40.8435C26.8077 40.451 26.5274 40.3566 26.1998 40.3374C26.0523 40.3286 25.9047 40.3271 25.7572 40.3271C20.6681 40.3271 15.5784 40.3271 10.4883 40.3271C10.268 40.324 10.0478 40.3403 9.83028 40.3758C9.73127 40.3909 9.6412 40.4417 9.57706 40.5186C9.51292 40.5955 9.47914 40.6932 9.48208 40.7933C9.46585 41.0427 9.56176 41.2448 9.8111 41.2994C10.0541 41.3458 10.3014 41.3661 10.5488 41.3599C13.0796 41.3658 15.6114 41.3653 18.1441 41.3584V41.3658ZM20.1979 32.0973H15.7835C15.2435 32.0973 14.7035 32.0973 14.1606 32.1062C13.7947 32.1062 13.5173 32.2758 13.5261 32.6639C13.5261 33.0091 13.8065 33.1566 14.1281 33.198C14.2261 33.2088 14.3246 33.2138 14.4232 33.2127C18.2504 33.2127 22.078 33.2127 25.9062 33.2127C26.1016 33.2165 26.2961 33.1871 26.4816 33.1257C26.5875 33.0886 26.6769 33.0152 26.7339 32.9185C26.7909 32.8218 26.8118 32.7081 26.7929 32.5975C26.7902 32.4977 26.7551 32.4015 26.6928 32.3235C26.6305 32.2454 26.5444 32.1899 26.4477 32.1652C26.2079 32.1166 25.9634 32.0954 25.7188 32.1017C23.8795 32.0958 22.0392 32.0939 20.1979 32.0958V32.0973ZM20.5697 38.6599C22.3402 38.6599 24.1077 38.6599 25.8723 38.6599C26.2913 38.6599 26.7959 38.6968 26.7811 38.0889C26.7678 37.5401 26.2928 37.5637 25.8959 37.5637C22.3126 37.5637 18.7284 37.5637 15.1432 37.5637C14.7212 37.5637 14.2181 37.5371 14.2329 38.1376C14.2461 38.682 14.7197 38.6599 15.1181 38.6614L20.5697 38.6599ZM18.7992 42.9946C17.5451 42.9946 16.291 42.9946 15.037 42.9946C14.6548 42.9946 14.2314 43.0448 14.2461 43.5479C14.2594 44.0215 14.6607 44.1085 15.0532 44.1085C17.5594 44.1085 20.0676 44.1085 22.5777 44.1085C22.9834 44.1085 23.4275 44.0451 23.3995 43.4962C23.373 42.9828 22.9289 42.999 22.5615 42.9961C21.303 42.9813 20.0489 42.9916 18.7948 42.9931L18.7992 42.9946Z" fill="#DC0192"/>
<path d="M29.7644 59.9985C21.2818 59.9985 12.8003 59.9985 4.31968 59.9985C3.67346 59.9985 3.03903 59.9882 2.51822 59.5161C1.9974 59.0439 1.84839 58.4154 1.84839 57.7176C1.86019 52.1868 1.86019 46.6555 1.84839 41.1238C1.84839 35.47 1.84839 29.8143 1.84839 24.1567C1.84839 22.4644 2.57428 21.7267 4.26657 21.7282C6.42507 21.7282 6.08278 21.5482 6.08425 23.5119C6.09606 33.8132 6.09606 44.1139 6.08425 54.4141C6.08425 55.742 6.12114 55.7848 7.44457 55.7848H52.1506C53.5271 55.7848 53.5286 55.7848 53.5286 54.3699C53.5286 43.8975 53.5286 33.4222 53.5286 22.9439C53.5286 21.7237 53.5286 21.7164 54.7606 21.7164C55.1542 21.7028 55.5483 21.7121 55.9409 21.7444C57.1094 21.8802 57.8663 22.699 57.8663 23.8719C57.8732 35.2049 57.8732 46.538 57.8663 57.871C57.8663 59.2166 57.0342 59.9764 55.5765 59.9793C50.5867 59.9882 45.5964 59.9882 40.6056 59.9793L29.7644 59.9985Z" fill="#DC0192"/>
<path d="M52.4235 32.1282C52.4235 37.5104 52.4235 42.8922 52.4235 48.2735C52.4235 49.2605 52.3719 49.3181 51.3804 49.3181C44.7461 49.3181 38.1112 49.3181 31.4758 49.3181C30.5124 49.3181 30.4829 49.2841 30.4829 48.3236C30.4829 40.6063 30.4829 32.8895 30.4829 25.1732C30.4829 24.2245 30.4829 24.2245 31.3681 24.527C33.0666 25.1192 34.8683 25.3574 36.6623 25.2268C38.4563 25.0962 40.2046 24.5996 41.7993 23.7676C43.3941 22.9356 44.8015 21.7858 45.935 20.3891C47.0685 18.9924 47.9039 17.3784 48.3898 15.6465C48.5374 15.1213 48.8206 14.9295 49.3385 14.9428C50.0762 14.9619 50.8139 14.9738 51.5516 14.9428C52.2155 14.9118 52.4486 15.1567 52.4442 15.8398C52.4191 20.0919 52.4324 24.3425 52.4324 28.5946L52.4235 32.1282ZM41.3168 35.8993H48.6849C48.9298 35.8993 49.1762 35.8993 49.4226 35.8846C49.7177 35.8654 49.9508 35.7503 49.97 35.4095C49.9891 35.0687 49.79 34.9049 49.5096 34.8282C49.3184 34.7862 49.1225 34.7693 48.9269 34.778C43.8466 34.778 38.7663 34.778 33.686 34.778C33.4426 34.778 33.1947 34.7559 32.9645 34.8754C32.7344 34.9949 32.5219 35.1454 32.5662 35.4316C32.6104 35.7178 32.8126 35.8477 33.0811 35.8742C33.3245 35.8978 33.5709 35.9008 33.8188 35.9008L41.3168 35.8993ZM41.2194 46.7996H48.7439C48.9902 46.8034 49.2365 46.793 49.4816 46.7686C49.6071 46.7645 49.7263 46.7129 49.8151 46.6241C49.9039 46.5353 49.9556 46.4161 49.9596 46.2906C49.9832 45.9689 49.7914 45.7845 49.4978 45.7196C49.3282 45.6922 49.156 45.6833 48.9844 45.693H33.5694C33.398 45.6839 33.2261 45.6958 33.0575 45.7284C32.7772 45.8007 32.5499 45.9792 32.5647 46.2891C32.5794 46.5989 32.8052 46.7612 33.1121 46.7819C33.3319 46.7981 33.5547 46.7996 33.7745 46.7996H41.2194ZM41.3286 41.3672C43.9292 41.3672 46.5308 41.3672 49.1334 41.3672C49.4993 41.3672 49.939 41.3893 49.9523 40.8611C49.9655 40.3329 49.5288 40.3535 49.1585 40.3358C49.036 40.3358 48.9136 40.3358 48.7911 40.3358H33.7701C33.5488 40.3358 33.3275 40.3358 33.1076 40.355C32.8126 40.3801 32.5632 40.5144 32.5544 40.836C32.5455 41.1576 32.7904 41.3081 33.0826 41.345C33.3277 41.3688 33.574 41.3776 33.8203 41.3716L41.3286 41.3672ZM41.2858 29.4164C38.7776 29.4164 36.2694 29.4164 33.7612 29.4253C33.3068 29.4253 32.5809 29.2305 32.5809 29.9269C32.5809 30.6233 33.2994 30.4359 33.7524 30.4374C38.7687 30.4502 43.7826 30.4502 48.7941 30.4374C49.0154 30.4374 49.2367 30.4374 49.4565 30.4182C49.7265 30.3961 49.9346 30.2781 49.9523 29.9756C49.9714 29.6407 49.7693 29.4799 49.4669 29.443C49.2218 29.4178 48.9755 29.4075 48.7292 29.412L41.2858 29.4164ZM39.5787 32.1017H33.4573C33.0531 32.1017 32.5824 32.1016 32.5721 32.6328C32.5617 33.1639 33.0147 33.2038 33.4293 33.2229C33.5281 33.2229 33.6255 33.2229 33.7244 33.2229C37.6322 33.2229 41.5405 33.2229 45.4493 33.2229C45.6943 33.2298 45.9393 33.209 46.1797 33.161C46.2899 33.1375 46.3885 33.0761 46.4581 32.9873C46.5276 32.8986 46.5638 32.7883 46.5603 32.6756C46.5702 32.5507 46.532 32.4269 46.4536 32.3292C46.3751 32.2316 46.2624 32.1676 46.1384 32.1503C45.9199 32.1151 45.6985 32.1013 45.4774 32.109C43.5112 32.0982 41.545 32.0943 39.5787 32.0972V32.1017ZM39.2143 44.1202C41.1545 44.1202 43.0946 44.1202 45.0362 44.1202C45.4375 44.1202 45.9126 44.0465 45.9082 43.5404C45.9038 43.0344 45.4213 43.0107 45.023 43.0063C44.4579 43.0063 43.8928 43.0063 43.3292 43.0063C40.0607 43.0063 36.7932 43.0063 33.5267 43.0063C33.1091 43.0063 32.5735 42.9812 32.5854 43.5566C32.5972 44.0966 33.1209 44.104 33.5429 44.1247C33.7391 44.135 33.9368 44.1247 34.133 44.1247L39.2143 44.1202ZM35.7929 38.6613C36.6501 38.6613 37.5058 38.6613 38.363 38.6613C38.7127 38.6613 39.0255 38.5565 39.0461 38.1567C39.0683 37.7141 38.751 37.5665 38.366 37.5665C36.6781 37.5665 34.9898 37.5665 33.3009 37.5665C32.9276 37.5665 32.5632 37.6816 32.5632 38.1109C32.5632 38.5403 32.9158 38.6539 33.2921 38.6554C34.1301 38.6569 34.9637 38.6539 35.7929 38.6554V38.6613Z" fill="#DC0192"/>
<path d="M35.7013 0.00142298C38.9105 0.010397 41.9855 1.29055 44.2529 3.56161C46.5204 5.83268 47.7957 8.90963 47.7996 12.1189C47.7907 18.7582 42.3214 24.1478 35.6039 24.1375C29.3541 24.1286 23.6355 19.1816 23.6148 12.0923C23.5868 4.83779 29.5887 -0.100379 35.7013 0.00142298ZM42.3317 7.20137C42.3243 6.058 41.8926 4.9581 41.1204 4.11483C38.6624 1.45912 33.953 1.05191 31.1541 3.34025C29.4353 4.7463 28.3022 7.20433 29.8941 9.64021C30.3368 10.3071 30.9181 10.8368 31.4876 11.3738C31.9626 11.8164 32.0084 12.1322 31.5171 12.6308C30.1553 14.0133 28.8496 15.4518 27.5335 16.8726C27.3048 17.119 27.0009 17.3551 27.1233 17.7578C27.2458 18.1606 27.653 18.2241 27.9732 18.2005C29.4353 18.1296 30.0387 18.8806 30.0918 20.2527C30.1051 20.5817 30.17 20.9668 30.5979 21.0657C30.9756 21.1527 31.1881 20.8739 31.399 20.6408C32.6344 19.307 33.8674 17.9708 35.0979 16.6321C35.719 15.9549 35.7131 15.952 36.3239 16.6159C37.5387 17.9378 38.7534 19.2583 39.9682 20.5773C40.1718 20.7972 40.3857 21.0199 40.728 20.9226C41.0703 20.8252 41.1293 20.5183 41.1868 20.2291C41.2919 19.8005 41.3639 19.3645 41.4022 18.9249C41.4273 18.3347 41.7372 18.1547 42.255 18.1547C42.427 18.1685 42.6 18.1605 42.7699 18.1311C43.2465 18.0057 43.9296 18.2314 44.148 17.656C44.3766 17.0482 43.7629 16.7206 43.4103 16.337C42.2063 15.0416 40.999 13.7492 39.7882 12.4597C39.4931 12.1425 39.5019 11.8695 39.7882 11.5745C40.2662 11.0787 40.7486 10.5874 41.2134 10.0814C41.94 9.29974 42.3378 8.26844 42.3244 7.20137H42.3317Z" fill="#DC0192"/>
<path d="M18.2135 54.6856H8.25898C7.2262 54.6856 7.21292 54.6664 7.2085 53.672C7.2085 52.8856 7.2085 52.0993 7.2085 51.3114C7.2085 50.435 7.28817 50.3583 8.19259 50.3568C11.6568 50.3568 15.1215 50.3568 18.5868 50.3568C21.8326 50.3568 25.0785 50.3568 28.3244 50.3568C29.2745 50.3568 29.3409 50.4247 29.3483 51.3498C29.3542 52.1111 29.3542 52.8729 29.3483 53.6351C29.3409 54.6399 29.2967 54.6841 28.3155 54.6856H18.2135Z" fill="#DC0192"/>
<path d="M41.3817 54.6856C38.062 54.6856 34.7424 54.6649 31.4227 54.7018C30.6747 54.7018 30.418 54.482 30.4667 53.7369C30.5154 52.8775 30.5154 52.0159 30.4667 51.1565C30.4372 50.5265 30.7086 50.3361 31.2929 50.3509C32.2268 50.3745 33.1607 50.3509 34.0961 50.3509H51.2845C52.4191 50.3509 52.4191 50.3509 52.4206 51.5002V53.5658C52.4206 54.6768 52.4206 54.6797 51.3376 54.6797L41.3817 54.6856Z" fill="#DC0192"/>
<path d="M59.0642 4.72275C59.0642 6.37225 57.8691 7.57913 56.2491 7.56585C54.6999 7.55257 53.4134 6.29701 53.3957 4.7803C53.378 3.26359 54.7545 1.85754 56.2314 1.85754C56.6058 1.8587 56.9763 1.93384 57.3216 2.07864C57.6669 2.22344 57.9801 2.43505 58.2434 2.7013C58.5066 2.96756 58.7146 3.2832 58.8555 3.63011C58.9964 3.97702 59.0673 4.34835 59.0642 4.72275Z" fill="#DC0192"/>
<path d="M6.67133 6.7426C6.68013 7.31625 6.46069 7.8699 6.06129 8.28176C5.66189 8.69361 5.11523 8.92993 4.54159 8.93873C4.25755 8.94309 3.97543 8.89147 3.71134 8.7868C3.44726 8.68213 3.20637 8.52646 3.00244 8.32869C2.59059 7.92929 2.35426 7.38264 2.34546 6.80899C2.34832 6.23731 2.57099 5.68864 2.96733 5.27664C3.36367 4.86465 3.90332 4.62089 4.47446 4.59589C5.60314 4.57966 6.65362 5.60507 6.67133 6.7426Z" fill="#DC0192"/>
<path d="M2.13458 13.4645C2.43135 13.4754 2.71253 13.6001 2.9199 13.8127C3.12726 14.0253 3.24492 14.3095 3.2485 14.6065C3.25684 14.7545 3.23381 14.9027 3.18093 15.0413C3.12805 15.1798 3.0465 15.3057 2.94163 15.4105C2.83675 15.5154 2.71092 15.597 2.57235 15.6498C2.43378 15.7027 2.28561 15.7257 2.13753 15.7174C1.84045 15.7156 1.55571 15.5984 1.34345 15.3905C1.13119 15.1827 1.00803 14.9005 1 14.6035C1.01325 14.3064 1.13691 14.025 1.34677 13.8143C1.55663 13.6036 1.83757 13.4789 2.13458 13.4645Z" fill="#DC0192"/>
<path d="M59.777 16.6617C59.7642 16.9585 59.6387 17.2393 59.4259 17.4466C59.2131 17.6539 58.9291 17.7721 58.6321 17.7771C58.3327 17.7734 58.0471 17.6509 57.8381 17.4366C57.6291 17.2223 57.5137 16.9338 57.5174 16.6344C57.5211 16.3351 57.6436 16.0495 57.8579 15.8404C58.0722 15.6314 58.3608 15.516 58.6601 15.5197C58.9563 15.5331 59.2364 15.6585 59.4438 15.8705C59.6511 16.0825 59.7702 16.3653 59.777 16.6617Z" fill="#DC0192"/>
<path d="M19.8512 3.46717C19.5548 3.45907 19.2722 3.33966 19.0598 3.13271C18.8474 2.92576 18.7207 2.64643 18.7048 2.35029C18.7185 2.0532 18.8462 1.77284 19.0614 1.56754C19.2766 1.36225 19.5627 1.24786 19.8601 1.24817C20.1454 1.24961 20.4189 1.36209 20.6227 1.56176C20.8265 1.76144 20.9446 2.03261 20.9519 2.31783C20.9536 2.61484 20.8397 2.90087 20.6343 3.11538C20.4289 3.32989 20.148 3.45606 19.8512 3.46717Z" fill="#DC0192"/>
<path d="M13.0924 8.10584C13.7283 8.12649 14.1636 8.55878 14.1621 9.16812C14.1621 9.75828 13.6147 10.2717 13.0083 10.2673C12.8613 10.2642 12.7163 10.2322 12.5816 10.1731C12.4469 10.114 12.3251 10.0289 12.2233 9.92269C12.1215 9.81651 12.0417 9.6913 11.9883 9.55424C11.9349 9.41718 11.909 9.27093 11.9121 9.12387C11.9283 8.4865 12.3975 8.08223 13.0924 8.10584Z" fill="#DC0192"/>
<path d="M49.1643 1.32787C49.8224 1.31312 50.2989 1.75721 50.3063 2.39458C50.3108 2.53527 50.2872 2.67544 50.2368 2.80687C50.1864 2.9383 50.1102 3.05833 50.0127 3.15991C49.9153 3.26148 49.7985 3.34255 49.6693 3.39836C49.5401 3.45417 49.401 3.4836 49.2602 3.4849C49.1081 3.49846 48.9548 3.47971 48.8104 3.4299C48.666 3.38009 48.5338 3.30034 48.4223 3.19587C48.3109 3.09141 48.2228 2.96458 48.1638 2.82369C48.1048 2.68281 48.0762 2.53105 48.0799 2.37835C48.082 2.23814 48.1118 2.09971 48.1674 1.971C48.2231 1.84229 48.3036 1.72581 48.4043 1.62825C48.505 1.53068 48.624 1.45394 48.7544 1.4024C48.8848 1.35085 49.0241 1.32553 49.1643 1.32787Z" fill="#DC0192"/>
<path d="M32.0735 4.05584C32.3685 4.01895 32.3612 4.22551 32.3612 4.3878C32.3612 6.01074 33.2331 7.19105 34.2954 8.30202C36.8183 10.9577 39.3118 13.6356 41.8022 16.312C41.9601 16.4816 42.2596 16.638 42.174 16.9021C42.0811 17.1972 41.7417 17.0777 41.5219 17.088C40.6883 17.122 40.3726 17.5985 40.3224 18.3598C40.3091 18.5457 40.3224 18.7892 40.0967 18.8615C39.8709 18.9337 39.7529 18.7228 39.6231 18.5811C36.8006 15.5403 33.9605 12.5128 31.1617 9.44988C29.5387 7.66908 30.3812 5.46632 31.7828 4.24026C31.8739 4.1701 31.9712 4.10837 32.0735 4.05584Z" fill="#DC0192"/>
<path d="M41.2179 7.3135C41.2165 8.05055 40.9262 8.75768 40.4094 9.28315C39.9431 9.78626 39.4459 10.2613 38.9945 10.7763C38.6625 11.1584 38.4043 11.1082 38.0959 10.7586C37.739 10.3233 37.3578 9.90851 36.954 9.51628C36.5114 9.11202 36.5837 8.80661 36.9805 8.42596C37.882 7.5658 38.5917 6.5817 38.8145 5.31581C38.8484 5.12401 38.8602 4.92779 38.8971 4.73746C38.9458 4.49107 38.7495 4.13549 39.0815 4.02188C39.3589 3.92598 39.5625 4.21959 39.7661 4.38041C40.6749 5.10188 41.2238 6.01958 41.2179 7.3135Z" fill="#DC0192"/>
<path d="M31.2295 19.1064C30.8975 19.0813 30.8548 18.8305 30.8356 18.6269C30.7544 17.7727 30.3826 17.2887 29.4457 17.2991C28.9839 17.2991 28.9367 17.0128 29.2525 16.6764C30.3236 15.5246 31.3913 14.3758 32.4556 13.2299C32.7152 12.9481 32.9351 12.951 33.1933 13.2299C33.6492 13.7419 34.1095 14.2494 34.5801 14.7481C34.8368 15.021 34.8 15.2615 34.5654 15.5182C33.5218 16.6543 32.4797 17.7923 31.439 18.9323C31.3738 18.9957 31.3038 19.0539 31.2295 19.1064Z" fill="#DC0192"/>
<path d="M37.7801 4.38788C37.7801 4.7582 37.6473 4.97802 37.249 4.79655C36.1926 4.29786 35.1436 4.23444 34.0724 4.7582C33.6402 4.96919 33.497 4.71984 33.5044 4.31558C33.5162 3.49231 33.7847 3.22084 34.6198 3.0792C35.2943 2.96042 35.9843 2.96042 36.6588 3.0792C37.4909 3.22379 37.7845 3.53657 37.7801 4.38788Z" fill="#DC0192"/>
<path d="M37.1767 6.31177C37.1929 6.62456 35.9963 8.0011 35.7013 7.96864C35.561 7.93466 35.4338 7.86028 35.3354 7.75471C35.1193 7.55414 34.9144 7.34187 34.7216 7.11883C34.4737 6.82375 34.009 6.58767 34.158 6.16128C34.3173 5.70686 34.8308 5.65079 35.269 5.57112C35.8046 5.47003 36.3586 5.57546 36.8196 5.8662C36.9105 5.9064 36.9904 5.96787 37.0525 6.04542C37.1147 6.12297 37.1572 6.21432 37.1767 6.31177Z" fill="#DC0192"/>
</g>
<defs>
<clipPath id="clip0_18721_360">
<rect width="58.7769" height="60" fill="white" transform="translate(1)"/>
</clipPath>
</defs>
</svg>
