<svg width="47" height="47" viewBox="0 0 47 47" fill="none" xmlns="http://www.w3.org/2000/svg">
<g clip-path="url(#clip0_39118_314984)">
<path d="M23.4609 46.0378H7.02018C4.84202 46.0378 3.6328 44.8432 3.63182 42.6728C3.62793 34.9077 3.62793 27.1426 3.63182 19.3775C3.63182 17.8346 4.3128 17.14 5.85181 17.1274C7.99203 17.1138 10.1322 17.1138 12.2725 17.1274C13.7969 17.1362 14.4555 17.8162 14.4574 19.3357C14.4574 19.9681 14.4496 20.6004 14.4633 21.2327C14.4749 21.7649 14.6384 21.9225 15.1676 21.9497C15.3622 21.9604 15.5567 21.9497 15.7513 21.9497H42.4554C43.3114 21.9497 43.3124 21.9497 43.3124 22.8058C43.3124 29.421 43.3124 36.0362 43.3124 42.6514C43.3124 44.8335 42.1178 46.0339 39.9513 46.0349L23.4609 46.0378ZM23.4609 43.0639H29.7843C32.1833 43.0639 34.5823 43.0756 36.9832 43.0571C38.102 43.0483 38.9532 42.5318 39.4221 41.5006C39.8725 40.5122 39.7373 39.5617 39.0261 38.7339C38.4648 38.0811 37.7264 37.8321 36.8606 37.833C27.9444 37.844 19.0268 37.8463 10.1079 37.8398C9.94644 37.8398 9.78398 37.8398 9.62151 37.8525C9.27446 37.8862 8.93783 37.9899 8.63199 38.1573C8.32615 38.3248 8.05744 38.5525 7.84211 38.8268C7.62678 39.101 7.46931 39.4161 7.3792 39.7529C7.28909 40.0898 7.26822 40.4414 7.31786 40.7865C7.53383 42.1631 8.58934 43.0561 10.0359 43.0581C14.5142 43.0659 18.9901 43.0678 23.4639 43.0639H23.4609ZM23.4794 35.4759C26.6897 35.4759 29.9001 35.4759 33.1104 35.4759C33.4669 35.4779 33.823 35.4496 34.1747 35.3912C34.5262 35.3254 34.8602 35.1873 35.1555 34.9856C35.4509 34.7839 35.7011 34.5231 35.8903 34.2196C36.0796 33.9161 36.2037 33.5767 36.2548 33.2227C36.306 32.8687 36.283 32.508 36.1874 32.1634C35.847 30.9551 34.8381 30.2479 33.4246 30.2469C27.7667 30.243 22.109 30.243 16.4517 30.2469C15.3495 30.2469 14.2473 30.2304 13.1441 30.2615C11.9767 30.2936 11.0263 31.0952 10.7305 32.2383C10.4494 33.322 10.9115 34.4242 11.8892 35.0469C12.4631 35.4117 13.1023 35.4768 13.757 35.4768C16.9997 35.4788 20.2425 35.4791 23.4853 35.4778L23.4794 35.4759Z" fill="#00AEEF"/>
<path d="M23.509 6.51519C27.7894 6.51519 32.0698 6.51519 36.3503 6.51519C37.9282 6.51519 38.6461 7.22536 38.6471 8.79841C38.6471 12.6249 38.6471 16.4513 38.6471 20.2778C38.6471 20.9986 38.6228 21.0229 37.9165 21.0239H16.0766C15.4044 21.0239 15.3898 21.0074 15.3869 20.3429C15.3869 19.8565 15.3927 19.3701 15.382 18.8837C15.3489 17.3992 14.235 16.2687 12.7554 16.2444C11.4751 16.2243 10.1946 16.2243 8.91367 16.2444C8.45256 16.2522 8.28328 16.0897 8.28717 15.6228C8.30274 13.288 8.28717 10.9532 8.29788 8.61844C8.30663 7.26232 9.07614 6.51422 10.4264 6.51227C14.786 6.51098 19.1468 6.51195 23.509 6.51519ZM25.2241 12.3366C26.2942 12.3366 27.3643 12.3502 28.4295 12.3366C29.3712 12.321 30.0892 11.677 30.1621 10.8248C30.2594 9.74984 29.5648 8.96088 28.484 8.95407C26.3632 8.94045 24.2415 8.94726 22.1208 8.94823C21.79 8.94823 21.5079 8.92975 21.4981 8.47738C21.4865 7.91509 21.2384 7.46856 20.6936 7.25941C20.1099 7.03566 19.6235 7.238 19.1974 7.66216C18.5466 8.31687 17.888 8.9638 17.2411 9.62143C16.5941 10.2791 16.5971 10.9746 17.2411 11.6264C17.9006 12.2948 18.5768 12.9465 19.2295 13.6217C19.6303 14.0351 20.0944 14.1947 20.6382 14.0244C21.2014 13.8484 21.467 13.4028 21.4865 12.8444C21.5011 12.4202 21.6995 12.3337 22.0702 12.3376C23.1189 12.3453 24.1715 12.3366 25.2241 12.3366ZM21.647 15.2667C20.5613 15.2667 19.4747 15.2521 18.389 15.2667C18.1728 15.2682 17.959 15.3127 17.7601 15.3977C17.5613 15.4826 17.3813 15.6063 17.2307 15.7615C17.0802 15.9167 16.962 16.1003 16.8831 16.3016C16.8042 16.503 16.7661 16.718 16.7712 16.9342C16.7712 17.9478 17.4979 18.6512 18.5943 18.657C20.6696 18.6668 22.745 18.6668 24.8203 18.657C25.227 18.657 25.4459 18.7397 25.4585 19.2115C25.4568 19.4583 25.5342 19.6991 25.6793 19.8987C25.8245 20.0983 26.0297 20.2461 26.265 20.3206C26.7923 20.5151 27.2544 20.3819 27.6454 19.9917C28.3585 19.2835 29.0774 18.5802 29.7759 17.8583C30.3188 17.298 30.3217 16.5937 29.7759 16.0323C29.0794 15.3086 28.3605 14.6052 27.6454 13.8989C27.2475 13.5098 26.7611 13.4291 26.2494 13.6071C26.013 13.6791 25.8066 13.8267 25.662 14.0272C25.5174 14.2276 25.4425 14.47 25.4488 14.7171C25.44 15.1918 25.2036 15.2804 24.8038 15.2755C23.7551 15.259 22.7054 15.2667 21.647 15.2667Z" fill="#00AEEF"/>
<path d="M23.4777 1.03689H36.4572C37.9271 1.03689 38.6382 1.74218 38.647 3.20823C38.6518 4.03416 38.647 4.86204 38.647 5.68699C38.647 6.07612 38.5215 6.20356 38.1538 5.98565C37.6956 5.71326 37.1907 5.63446 36.6605 5.63446C27.8609 5.63835 19.0621 5.63835 10.2638 5.63446C9.72672 5.61736 9.19517 5.74755 8.72676 6.01094C8.44367 6.17827 8.29677 6.09169 8.29677 5.76968C8.29677 4.78129 8.25494 3.78998 8.31817 2.80548C8.39016 1.68576 9.15578 1.03883 10.3027 1.03786C14.6947 1.03462 19.0864 1.03429 23.4777 1.03689Z" fill="#00AEEF"/>
<path d="M39.5866 18.2674C39.5866 17.5232 39.5982 16.779 39.5807 16.0357C39.5729 15.6836 39.7033 15.56 40.0574 15.5386C41.1868 15.4725 42.183 15.6768 42.8543 16.706C43.1467 17.1755 43.3005 17.7181 43.2979 18.2713C43.3164 19.0145 43.2979 19.7597 43.3086 20.5029C43.3144 20.8678 43.1714 21.0312 42.793 21.0254C41.885 21.0117 40.9793 21.0117 40.0759 21.0254C39.6926 21.0312 39.57 20.8678 39.5807 20.4991C39.6002 19.7558 39.5866 19.0116 39.5866 18.2674Z" fill="#00AEEF"/>
<path d="M23.4571 42.1334H10.324C10.0324 42.1468 9.74046 42.118 9.45717 42.0478C9.10142 41.9504 8.78761 41.7386 8.56415 41.4452C8.34069 41.1518 8.22 40.7929 8.22071 40.4241C8.229 40.048 8.36058 39.6851 8.59522 39.391C8.82985 39.097 9.15456 38.8881 9.51943 38.7966C9.77249 38.7419 10.031 38.7167 10.2899 38.7217C19.0778 38.7178 27.8656 38.7178 36.6535 38.7217C37.1136 38.7217 37.5621 38.7586 37.9571 39.0281C38.496 39.3958 38.7742 39.9114 38.7168 40.5603C38.6565 41.2413 38.2946 41.7384 37.6467 41.9991C37.3228 42.1285 36.9842 42.1373 36.6418 42.1363L23.4571 42.1334Z" fill="#00AEEF"/>
<path d="M23.4223 34.5445C20.1147 34.5445 16.8071 34.5445 13.4995 34.5445C12.9352 34.5445 12.444 34.4151 12.0539 33.9861C11.6268 33.5152 11.4799 32.9792 11.6745 32.3673C11.869 31.7554 12.2815 31.3371 12.9284 31.2106C13.2151 31.1562 13.5064 31.1298 13.7981 31.1318C20.2499 31.1279 26.703 31.1279 33.1574 31.1318C33.9493 31.1318 34.6886 31.2437 35.1274 32.022C35.7704 33.1621 34.9795 34.5163 33.637 34.5387C32.3402 34.5601 31.0434 34.5445 29.7457 34.5445H23.4223Z" fill="#00AEEF"/>
<path d="M24.7818 11.4084C23.6485 11.4084 22.5152 11.4084 21.3818 11.4084C20.7096 11.4084 20.5899 11.5446 20.5666 12.1973C20.5559 12.5057 20.7018 12.9153 20.3419 13.0777C19.9605 13.2509 19.802 12.817 19.5685 12.6264C18.9644 12.1331 18.4614 11.5368 17.9205 10.9784C17.6822 10.7332 17.6705 10.5075 17.9127 10.2663C18.5665 9.61773 19.2199 8.96561 19.873 8.30993C20.0043 8.17859 20.1541 8.07256 20.3477 8.16206C20.5413 8.25156 20.553 8.43445 20.5676 8.61637C20.6648 9.81975 20.6649 9.81975 21.8848 9.81975H27.9591C28.1206 9.81975 28.284 9.81294 28.4455 9.82753C28.9086 9.86936 29.2238 10.1816 29.2306 10.598C29.2403 11.0338 28.9154 11.3831 28.428 11.3948C27.57 11.4152 26.7119 11.4035 25.8539 11.4045L24.7818 11.4084Z" fill="#00AEEF"/>
<path d="M22.1854 16.1447C23.3197 16.1447 24.453 16.1447 25.5903 16.1447C26.246 16.1447 26.3501 16.0241 26.3773 15.3859C26.3909 15.0805 26.2314 14.6729 26.6098 14.5104C26.9882 14.3479 27.1701 14.7497 27.3881 14.9598C27.9163 15.4628 28.4154 15.9959 28.9446 16.4998C29.2481 16.7917 29.2987 17.0397 28.9699 17.3549C28.3385 17.9591 27.7315 18.5885 27.1108 19.2033C26.9756 19.3385 26.8355 19.5068 26.6108 19.4134C26.386 19.3201 26.3909 19.1148 26.3773 18.9183C26.2936 17.7285 26.2936 17.7285 25.0864 17.7285H19.1074C18.978 17.7285 18.8486 17.7285 18.7182 17.7285C18.0684 17.7149 17.6987 17.4211 17.7133 16.9298C17.7279 16.4385 18.0878 16.1516 18.7367 16.1447C19.8856 16.1418 21.0345 16.1457 22.1854 16.1447Z" fill="#00AEEF"/>
</g>
<defs>
<clipPath id="clip0_39118_314984">
<rect width="39.6777" height="45" fill="white" transform="translate(3.63281 1.03906)"/>
</clipPath>
</defs>
</svg>
