<svg width="61" height="61" viewBox="0 0 61 61" fill="none" xmlns="http://www.w3.org/2000/svg">
<g clip-path="url(#clip0_18636_15213)">
<g clip-path="url(#clip1_18636_15213)">
<path d="M-3.33564 15.0319C-3.33564 10.8142 -3.33564 6.59568 -3.33564 2.37618C-3.33564 0.820379 -2.62846 0.0354086 -1.07266 0.0226794C2.60468 -0.00843654 6.28201 0.0226803 9.95935 0.00146484C10.6764 0.00146484 10.7443 0.384756 10.7429 0.949086C10.7344 6.46321 10.7344 11.9792 10.7429 17.4971C10.7429 18.1798 10.7429 18.8629 10.7429 19.5465C10.7429 20.7063 10.7429 20.6978 11.8617 20.2862C14.2519 19.4121 16.6535 18.5692 19.0311 17.6654C19.7309 17.3818 20.5136 17.3818 21.2134 17.6654C23.5952 18.5621 25.9897 19.4235 28.3757 20.3032C29.3884 20.6766 29.387 20.6822 29.387 19.5677V1.18104C29.387 0.00853613 29.387 0.00712211 30.5694 0.00570775C33.9639 0.00570775 37.3583 0.00570775 40.7528 0.00570775C41.0841 0.00181323 41.4152 0.0245153 41.7429 0.0735965C42.8743 0.254635 43.4783 0.922212 43.5631 2.07492C43.5631 2.16826 43.5631 2.26303 43.5631 2.35779C43.5631 9.35699 43.5631 16.3562 43.5631 23.3554C43.5631 24.1206 43.2803 24.3454 42.5731 24.1828C42.037 24.0626 42.1488 23.634 42.129 23.2776C42.0441 21.917 41.0682 21.0839 39.7698 21.2763C38.8434 21.4177 38.1659 22.2112 38.0599 23.2564C38.0273 23.5817 38.2013 24.064 37.7204 24.1474C37.125 24.2478 36.4927 24.3285 35.9157 24.0753C35.647 23.9579 35.7516 23.6128 35.7304 23.3681C35.6583 22.5464 35.3697 21.8434 34.5989 21.4587C33.2609 20.7968 31.7914 21.6695 31.6655 23.1715C31.6358 23.5223 31.807 24.0343 31.3204 24.1389C30.708 24.2691 30.0475 24.3313 29.4492 24.0711C29.213 23.9692 29.2738 23.6581 29.2555 23.4261C29.1607 22.1758 28.4068 21.4007 27.2612 21.3824C26.1156 21.364 25.2458 22.132 25.1821 23.3554C25.1439 24.047 24.8526 24.2493 24.2147 24.221C23.4141 24.187 22.6094 24.2535 21.8103 24.2012C21.0875 24.1545 20.8839 24.4289 20.8853 25.1346C20.9079 31.8293 20.9117 38.5239 20.8966 45.2186C20.8966 47.3585 21.1073 47.0176 19.1046 47.0219C12.4364 47.036 5.76671 47.036 -0.904359 47.0219C-2.69211 47.0219 -3.33422 46.3798 -3.33705 44.6005C-3.33705 43.964 -3.30312 43.3276 -3.34555 42.6925C-3.38798 42.0575 -3.12632 41.8708 -2.52663 41.8736C0.302094 41.8925 3.13081 41.8925 5.95954 41.8736C7.99904 41.8637 7.72748 42.1353 7.73455 40.1255C7.74728 36.6376 7.7204 33.1498 7.75293 29.6592C7.75293 28.9435 7.54079 28.7285 6.82654 28.7356C3.76303 28.771 0.69953 28.7526 -2.3668 28.7498C-3.33423 28.7498 -3.33705 28.7498 -3.33847 27.7597L-3.33564 15.0319Z" fill="#1E7DB2"/>
<path d="M38.1164 33.0692H53.1086C54.0477 33.0692 54.0548 33.0791 54.0548 34.0168C54.0548 42.3587 54.0548 50.7035 54.0548 59.051C54.0548 59.9746 54.0407 59.9902 53.0959 59.9902C43.1011 59.9902 33.1091 59.9902 23.1199 59.9902C22.1497 59.9902 22.1384 59.976 22.1384 59.0001C22.1384 50.6808 22.1384 42.362 22.1384 34.0437C22.1384 33.0834 22.1384 33.0791 23.1383 33.0791L38.1164 33.0692ZM32.3911 36.632V36.6193C32.7432 36.6193 33.0982 36.6419 33.4462 36.6193C33.5896 36.6125 33.725 36.5514 33.8251 36.4485C33.9251 36.3455 33.9823 36.2084 33.9851 36.0648C33.9977 35.9318 33.9589 35.7989 33.8765 35.6937C33.7942 35.5884 33.6746 35.5188 33.5424 35.4991C32.8292 35.3458 32.0913 35.3497 31.3798 35.5104C31.0799 35.5811 30.8664 35.7933 30.9003 36.1172C30.9105 36.261 30.9763 36.3952 31.0838 36.4913C31.1912 36.5874 31.3319 36.6379 31.476 36.632C31.7744 36.6504 32.0799 36.632 32.3854 36.632H32.3911ZM26.9302 48.7531C27.2357 48.7531 27.5412 48.7729 27.8439 48.7531C28.1848 48.7234 28.4337 48.5169 28.4549 48.1774C28.4761 47.838 28.2243 47.6018 27.8891 47.5834C27.2824 47.5508 26.67 47.5523 26.0618 47.5721C25.9837 47.5684 25.9058 47.5816 25.8332 47.6109C25.7607 47.6401 25.6954 47.6846 25.6417 47.7414C25.588 47.7982 25.5472 47.8659 25.522 47.94C25.4969 48.014 25.488 48.0926 25.4961 48.1703C25.4961 48.5253 25.7365 48.7262 26.083 48.7545C26.3602 48.7714 26.6431 48.7531 26.9246 48.7531H26.9302ZM32.4533 48.7531C32.7831 48.774 33.114 48.7707 33.4433 48.7432C33.5205 48.7349 33.5953 48.7114 33.6633 48.6739C33.7312 48.6365 33.7911 48.5859 33.8393 48.525C33.8875 48.4642 33.923 48.3944 33.9439 48.3196C33.9648 48.2449 33.9706 48.1667 33.961 48.0897C33.9596 48.018 33.9437 47.9473 33.9142 47.882C33.8846 47.8166 33.8421 47.7579 33.7892 47.7095C33.7363 47.6611 33.6741 47.6239 33.6064 47.6003C33.5386 47.5767 33.4668 47.5671 33.3953 47.5721C32.8069 47.5579 32.2185 47.5551 31.6316 47.5721C31.2808 47.5834 31.0389 47.7913 31.0361 48.1449C31.0333 48.4985 31.2751 48.7106 31.6117 48.7516C31.8902 48.768 32.1693 48.767 32.4476 48.7488L32.4533 48.7531ZM26.9373 39.5017C26.6544 39.5017 26.3715 39.4904 26.0887 39.5017C25.7337 39.5187 25.5003 39.7125 25.4961 40.0675C25.4908 40.1449 25.5016 40.2226 25.5276 40.2957C25.5537 40.3688 25.5946 40.4358 25.6476 40.4924C25.7007 40.5491 25.7648 40.5942 25.8361 40.625C25.9073 40.6558 25.9842 40.6716 26.0618 40.6714C26.6483 40.7039 27.2362 40.7039 27.8227 40.6714C27.9064 40.6731 27.9896 40.6569 28.0666 40.6239C28.1436 40.5909 28.2127 40.5418 28.2692 40.48C28.3257 40.4181 28.3684 40.3449 28.3943 40.2652C28.4202 40.1855 28.4288 40.1012 28.4195 40.018C28.4011 39.6545 28.1112 39.513 27.776 39.4961C27.5087 39.4862 27.2258 39.4975 26.9429 39.4975L26.9373 39.5017ZM38.1107 40.7053C38.3936 40.7053 38.6765 40.7167 38.9593 40.7053C39.3115 40.6884 39.5378 40.5017 39.5463 40.1396C39.5562 39.7422 39.3214 39.5328 38.9367 39.5244C38.3766 39.5102 37.8161 39.5102 37.2551 39.5244C36.9071 39.5328 36.6653 39.7125 36.6681 40.083C36.6591 40.1659 36.6684 40.2497 36.6956 40.3285C36.7227 40.4072 36.7669 40.4791 36.825 40.5388C36.8831 40.5985 36.9537 40.6447 37.0317 40.6739C37.1097 40.7032 37.1932 40.7149 37.2763 40.7082C37.5507 40.7096 37.8335 40.7011 38.1164 40.7011L38.1107 40.7053ZM26.9373 36.6108C27.2414 36.6108 27.5469 36.6263 27.8496 36.6108C28.0013 36.6141 28.1481 36.5571 28.2578 36.4522C28.3675 36.3473 28.431 36.2031 28.4344 36.0514C28.4378 35.8997 28.3807 35.7528 28.2758 35.6431C28.1709 35.5334 28.0267 35.4699 27.875 35.4666C27.2443 35.427 26.6118 35.427 25.9812 35.4666C25.9095 35.4702 25.8393 35.4887 25.7751 35.5209C25.711 35.5531 25.6542 35.5983 25.6084 35.6537C25.5627 35.709 25.5289 35.7733 25.5093 35.8423C25.4897 35.9114 25.4847 35.9838 25.4946 36.0549C25.4928 36.1262 25.505 36.1971 25.5306 36.2637C25.5561 36.3302 25.5946 36.391 25.6437 36.4427C25.6929 36.4943 25.7517 36.5357 25.8169 36.5646C25.8821 36.5934 25.9523 36.6091 26.0236 36.6108C26.3291 36.6263 26.6346 36.6079 26.9429 36.6065L26.9373 36.6108ZM49.3521 39.5017C49.0466 39.5017 48.7396 39.489 48.4356 39.5017C48.0919 39.5201 47.8401 39.6814 47.8359 40.059C47.8295 40.1364 47.8391 40.2143 47.8641 40.2878C47.8891 40.3614 47.929 40.429 47.9812 40.4864C48.0335 40.5439 48.0971 40.59 48.1679 40.6218C48.2388 40.6536 48.3155 40.6705 48.3931 40.6714C48.9787 40.7068 49.5685 40.7011 50.1554 40.6799C50.2331 40.6838 50.3107 40.6707 50.3827 40.6414C50.4548 40.612 50.5195 40.5673 50.5724 40.5102C50.6252 40.4532 50.6649 40.3853 50.6887 40.3112C50.7124 40.2371 50.7197 40.1588 50.7099 40.0816C50.7099 39.7125 50.4793 39.5258 50.1271 39.5031C49.8726 39.4791 49.6137 39.4989 49.3549 39.4975L49.3521 39.5017ZM26.9203 44.6783C27.2258 44.6783 27.5313 44.6896 27.834 44.6783C27.9856 44.6849 28.1336 44.6312 28.2457 44.529C28.3578 44.4268 28.425 44.2844 28.4324 44.1329C28.4399 43.9814 28.3871 43.833 28.2856 43.7203C28.1841 43.6076 28.042 43.5396 27.8906 43.5312C27.2595 43.4895 26.6264 43.4895 25.9953 43.5312C25.9236 43.5341 25.8531 43.5517 25.7885 43.5829C25.7238 43.6141 25.6662 43.6583 25.6192 43.7126C25.5723 43.767 25.537 43.8304 25.5156 43.8989C25.4942 43.9675 25.487 44.0397 25.4946 44.1111C25.4914 44.1883 25.5043 44.2652 25.5325 44.3371C25.5607 44.4089 25.6036 44.4741 25.6585 44.5285C25.7133 44.5828 25.7789 44.625 25.851 44.6526C25.9232 44.6801 26.0003 44.6922 26.0774 44.6882C26.3602 44.6839 26.6431 44.674 26.9231 44.674L26.9203 44.6783ZM38.0938 47.5608C37.8109 47.5608 37.528 47.5466 37.2451 47.5608C36.9029 47.5806 36.6483 47.7432 36.644 48.1152C36.6367 48.1982 36.6472 48.2818 36.6748 48.3604C36.7025 48.439 36.7468 48.5108 36.8045 48.5708C36.8623 48.6309 36.9323 48.6778 37.0098 48.7085C37.0872 48.7393 37.1704 48.753 37.2536 48.7488C37.8194 48.7743 38.3851 48.7686 38.9395 48.7559C39.2931 48.7474 39.518 48.5536 39.5322 48.1901C39.5491 47.7885 39.3115 47.5862 38.9311 47.5608C38.6595 47.541 38.378 47.5565 38.0966 47.5565L38.0938 47.5608ZM43.6678 48.7573V48.746C43.9939 48.7646 44.3208 48.7613 44.6465 48.7361C44.7233 48.7306 44.7981 48.7094 44.8664 48.674C44.9347 48.6385 44.9951 48.5895 45.0438 48.5299C45.0925 48.4704 45.1286 48.4015 45.1498 48.3275C45.1709 48.2535 45.1768 48.176 45.167 48.0996C45.1676 48.0284 45.1537 47.9578 45.1261 47.8922C45.0985 47.8265 45.0577 47.7672 45.0063 47.718C44.9549 47.6687 44.8939 47.6304 44.8272 47.6056C44.7605 47.5807 44.6893 47.5698 44.6182 47.5735C44.0129 47.5523 43.4047 47.5523 42.7993 47.5735C42.4811 47.589 42.2944 47.8083 42.2873 48.1392C42.2781 48.2156 42.2852 48.2932 42.3082 48.3666C42.3311 48.4401 42.3694 48.5079 42.4205 48.5655C42.4715 48.6231 42.5342 48.6692 42.6044 48.7008C42.6746 48.7324 42.7507 48.7488 42.8276 48.7488C43.1077 48.7729 43.3905 48.7531 43.6706 48.7531L43.6678 48.7573ZM49.2658 48.746V48.763C49.5487 48.763 49.8315 48.7729 50.1144 48.763C50.4623 48.7474 50.6971 48.5777 50.7198 48.2128C50.7424 47.8153 50.5189 47.5848 50.137 47.5707C49.5543 47.5466 48.9702 47.5509 48.3875 47.5707C48.3163 47.5676 48.2453 47.579 48.1787 47.6043C48.1121 47.6295 48.0514 47.6681 48.0002 47.7176C47.949 47.7671 47.9084 47.8264 47.8808 47.8921C47.8533 47.9578 47.8395 48.0284 47.8401 48.0996C47.8305 48.1762 47.8366 48.2539 47.8582 48.328C47.8797 48.4021 47.9162 48.471 47.9653 48.5305C48.0145 48.59 48.0753 48.6388 48.144 48.6739C48.2127 48.709 48.2878 48.7297 48.3648 48.7347C48.6656 48.7581 48.9676 48.7604 49.2686 48.7417L49.2658 48.746ZM32.4788 40.6841V40.6926C32.7362 40.6926 32.9936 40.6926 33.251 40.6926C33.6371 40.6827 33.8733 40.4904 33.8917 40.0943C33.9101 39.6983 33.6725 39.4989 33.2821 39.4961C32.7432 39.4961 32.2044 39.489 31.6655 39.4961C31.319 39.4961 31.0517 39.6658 31.0361 40.025C31.0205 40.3843 31.2624 40.6375 31.6358 40.6785C31.9174 40.6956 32.1998 40.697 32.4816 40.6827L32.4788 40.6841ZM43.7498 39.5116V39.5046C43.4443 39.5046 43.1388 39.4862 42.8347 39.5046C42.7635 39.5036 42.6929 39.5169 42.6269 39.5436C42.561 39.5703 42.501 39.6099 42.4506 39.6601C42.4001 39.7103 42.3602 39.7701 42.3331 39.8359C42.3061 39.9017 42.2924 39.9723 42.293 40.0434C42.2704 40.3772 42.4458 40.6092 42.7555 40.6516C43.407 40.7414 44.0679 40.7386 44.7186 40.6431C45.0213 40.5936 45.1882 40.3376 45.1627 40.0123C45.1609 39.8805 45.1077 39.7545 45.0145 39.6613C44.9212 39.5681 44.7953 39.5149 44.6635 39.513C44.3636 39.4904 44.0567 39.5102 43.7526 39.5102L43.7498 39.5116ZM43.7583 44.6726C44.0411 44.6726 44.324 44.6868 44.6069 44.6726C44.9251 44.6528 45.1429 44.4859 45.1656 44.1521C45.1896 43.7886 44.9803 43.5411 44.6437 43.5171C44.0361 43.4782 43.4267 43.4782 42.8191 43.5171C42.4783 43.5383 42.2689 43.7731 42.2986 44.1437C42.2992 44.2148 42.3139 44.2852 42.342 44.3506C42.3701 44.416 42.411 44.4751 42.4622 44.5245C42.5135 44.5739 42.5741 44.6126 42.6404 44.6383C42.7068 44.664 42.7777 44.6761 42.8488 44.674C43.1515 44.6868 43.457 44.6712 43.7611 44.6712L43.7583 44.6726ZM49.2941 44.6726C49.577 44.6726 49.8598 44.6868 50.1427 44.6726C50.4977 44.65 50.7084 44.4548 50.7084 44.0885C50.7151 44.0175 50.707 43.946 50.6847 43.8783C50.6624 43.8106 50.6263 43.7482 50.5788 43.6951C50.5312 43.642 50.4732 43.5993 50.4084 43.5696C50.3436 43.54 50.2734 43.524 50.2021 43.5228C49.594 43.486 48.9843 43.486 48.3762 43.5228C48.2983 43.5235 48.2216 43.5408 48.1509 43.5733C48.0802 43.6059 48.0172 43.6531 47.966 43.7117C47.9149 43.7703 47.8767 43.8391 47.854 43.9136C47.8313 43.988 47.8247 44.0664 47.8345 44.1437C47.8528 44.5142 48.1018 44.6726 48.4469 44.6868C48.734 44.6854 49.0155 44.6755 49.2969 44.6755L49.2941 44.6726ZM43.7031 36.6391V36.6051C44.0072 36.6051 44.3127 36.6249 44.6154 36.6051C44.918 36.5853 45.1458 36.4099 45.1627 36.0719C45.1722 36.0011 45.1675 35.929 45.1489 35.86C45.1303 35.791 45.0982 35.7263 45.0543 35.6699C45.0105 35.6134 44.9559 35.5662 44.8936 35.5311C44.8314 35.4959 44.7627 35.4735 44.6918 35.4651C44.0421 35.3654 43.3811 35.3654 42.7315 35.4651C42.6003 35.4815 42.4807 35.5482 42.3978 35.6511C42.3149 35.754 42.2753 35.8851 42.2873 36.0167C42.2818 36.0878 42.2905 36.1592 42.3129 36.2268C42.3353 36.2945 42.371 36.3569 42.4179 36.4106C42.4648 36.4642 42.522 36.5079 42.586 36.5391C42.6501 36.5703 42.7197 36.5885 42.7909 36.5924C43.0964 36.632 43.4019 36.6277 43.7059 36.6419L43.7031 36.6391ZM26.9429 52.7345V52.7246C27.2484 52.7246 27.5568 52.7458 27.8594 52.7246C28.0039 52.7207 28.1414 52.6616 28.2437 52.5596C28.346 52.4576 28.4054 52.3202 28.4096 52.1758C28.418 52.1041 28.4117 52.0315 28.3911 51.9623C28.3704 51.8931 28.3359 51.8289 28.2895 51.7735C28.2432 51.7182 28.186 51.6729 28.1215 51.6404C28.0571 51.6079 27.9867 51.5889 27.9146 51.5846C27.2812 51.5429 26.6457 51.5429 26.0123 51.5846C25.9402 51.5887 25.8697 51.6071 25.8048 51.6388C25.7399 51.6704 25.682 51.7146 25.6344 51.7688C25.5867 51.8231 25.5503 51.8862 25.5273 51.9546C25.5043 52.023 25.4951 52.0953 25.5003 52.1673C25.5088 52.5237 25.7365 52.7218 26.0943 52.7331C26.3772 52.7444 26.6601 52.7345 26.9429 52.7345ZM43.7173 52.7246V52.7345C44.0001 52.7345 44.283 52.7472 44.5659 52.7345C44.9067 52.7147 45.1585 52.5563 45.167 52.1829C45.1746 52.1058 45.1662 52.028 45.1421 51.9543C45.118 51.8807 45.0788 51.8129 45.027 51.7553C44.9752 51.6977 44.912 51.6515 44.8414 51.6196C44.7707 51.5878 44.6943 51.5711 44.6168 51.5705C44.0104 51.5367 43.4025 51.5405 42.7965 51.5818C42.6575 51.6006 42.5301 51.6697 42.4385 51.7759C42.347 51.8822 42.2974 52.0184 42.2994 52.1587C42.3013 52.299 42.3545 52.4337 42.4489 52.5374C42.5434 52.6412 42.6726 52.7067 42.8121 52.7218C43.1105 52.7444 43.416 52.7246 43.7187 52.7246H43.7173ZM49.2743 36.6009V36.6504C49.601 36.6334 49.932 36.6376 50.2544 36.5924C50.3849 36.5771 50.5047 36.5128 50.5896 36.4125C50.6744 36.3121 50.7179 36.1833 50.7113 36.0521C50.7268 35.7523 50.5698 35.5302 50.2954 35.4864C49.6258 35.3663 48.9398 35.3702 48.2715 35.4977C48.1399 35.518 48.0212 35.588 47.9396 35.6932C47.858 35.7984 47.8199 35.9309 47.833 36.0634C47.8306 36.1345 47.8424 36.2054 47.8679 36.2719C47.8933 36.3384 47.9318 36.3991 47.9812 36.4504C48.0305 36.5017 48.0896 36.5426 48.1551 36.5706C48.2205 36.5986 48.2908 36.6133 48.362 36.6136C48.6661 36.6263 48.9716 36.6051 49.2757 36.6051L49.2743 36.6009ZM32.4788 44.6698C32.7843 44.6698 33.0898 44.6811 33.3953 44.6698C33.4605 44.6719 33.5256 44.6607 33.5864 44.6369C33.6472 44.6131 33.7025 44.5771 33.749 44.5312C33.7955 44.4852 33.8321 44.4303 33.8566 44.3698C33.8811 44.3092 33.8931 44.2443 33.8917 44.179C33.9143 43.8622 33.8012 43.5793 33.4787 43.5298C32.8284 43.4218 32.1645 43.4257 31.5156 43.5411C31.3789 43.572 31.2584 43.6518 31.1766 43.7655C31.0948 43.8792 31.0576 44.019 31.0719 44.1583C31.0861 44.2976 31.151 44.4269 31.2541 44.5217C31.3572 44.6165 31.4915 44.6701 31.6316 44.6726C31.9144 44.6811 32.1973 44.674 32.4802 44.674L32.4788 44.6698ZM38.0994 52.7444V52.7345C38.4021 52.7345 38.7076 52.7543 39.0089 52.7345C39.0799 52.7334 39.1499 52.7182 39.215 52.6898C39.2801 52.6614 39.3389 52.6203 39.388 52.569C39.4371 52.5177 39.4755 52.4571 39.5009 52.3908C39.5264 52.3246 39.5385 52.2539 39.5364 52.1829C39.5531 52.0519 39.5181 51.9196 39.4389 51.814C39.3597 51.7084 39.2425 51.6378 39.1121 51.6171C38.4465 51.4872 37.7616 51.4925 37.0981 51.6327C37.0276 51.6455 36.9604 51.672 36.9003 51.7108C36.8401 51.7495 36.7882 51.7998 36.7475 51.8586C36.7068 51.9175 36.678 51.9838 36.663 52.0537C36.6479 52.1237 36.6467 52.1959 36.6596 52.2663C36.7034 52.5987 36.9425 52.7359 37.2536 52.75C37.5393 52.7585 37.8194 52.7486 38.1008 52.7486L38.0994 52.7444ZM38.0329 36.6094C38.3597 36.6094 38.6878 36.6306 39.0117 36.6094C39.0826 36.6083 39.1527 36.5931 39.2177 36.5648C39.2828 36.5365 39.3416 36.4956 39.3908 36.4445C39.44 36.3933 39.4785 36.3329 39.5043 36.2668C39.53 36.2007 39.5423 36.1301 39.5406 36.0592C39.5579 35.9292 39.523 35.7977 39.4434 35.6935C39.3639 35.5893 39.2462 35.5209 39.1163 35.5033C38.451 35.3711 37.7662 35.3711 37.1009 35.5033C36.9709 35.5219 36.8535 35.591 36.7741 35.6956C36.6946 35.8001 36.6596 35.9318 36.6766 36.062C36.6724 36.2048 36.7249 36.3435 36.8227 36.4477C36.9206 36.5519 37.0557 36.613 37.1985 36.6178C37.4729 36.6334 37.7543 36.6136 38.0344 36.6136L38.0329 36.6094ZM32.459 52.7246C32.7645 52.7246 33.0714 52.7458 33.374 52.7246C33.4457 52.7224 33.5161 52.7055 33.581 52.6751C33.6459 52.6447 33.7039 52.6013 33.7515 52.5477C33.799 52.4941 33.8351 52.4313 33.8575 52.3632C33.8799 52.2951 33.8882 52.2232 33.8818 52.1518C33.8818 51.825 33.7036 51.586 33.3811 51.5747C32.7941 51.5436 32.2058 51.5436 31.6188 51.5747C31.4705 51.582 31.3307 51.6461 31.2284 51.7537C31.126 51.8612 31.0689 52.004 31.0689 52.1525C31.0689 52.3009 31.126 52.4437 31.2284 52.5513C31.3307 52.6588 31.4705 52.7229 31.6188 52.7302C31.8932 52.7458 32.1761 52.7246 32.459 52.7246ZM38.1164 44.6924C38.4219 44.6924 38.7288 44.7094 39.0329 44.6924C39.3653 44.6684 39.5407 44.469 39.5378 44.1267C39.5449 44.0553 39.5362 43.9833 39.5124 43.9157C39.4886 43.8481 39.4503 43.7865 39.4001 43.7352C39.35 43.684 39.2892 43.6444 39.2221 43.6192C39.155 43.5939 39.0832 43.5837 39.0117 43.5892C38.3993 43.5737 37.7868 43.5708 37.173 43.5977C37.1012 43.5952 37.0296 43.608 36.9631 43.6353C36.8966 43.6627 36.8367 43.7039 36.7874 43.7563C36.7382 43.8086 36.7006 43.8709 36.6774 43.9389C36.6541 44.007 36.6456 44.0792 36.6525 44.1507C36.6525 44.4916 36.8802 44.6627 37.1956 44.6882C37.511 44.7136 37.8166 44.6924 38.1235 44.6924H38.1164Z" fill="#1E7DB2"/>
<path d="M11.9621 9.43517C11.9621 6.60645 11.9621 3.77773 11.9621 0.949007C11.9621 0.0791756 12.0271 0.00845704 12.8744 0.00704268C17.7044 0.00704268 22.5344 0.00704242 27.3631 -0.00427246C28.0278 -0.00427246 28.2767 0.21071 28.2739 0.892432C28.2555 6.59372 28.2654 12.2936 28.2626 17.9949C28.2626 18.8506 28.1876 18.9015 27.3574 18.6016C25.1637 17.8096 22.9729 17.0204 20.7877 16.1972C20.3504 16.024 19.8628 16.0281 19.4285 16.2085C17.2447 17.0246 15.044 17.8153 12.8574 18.613C12.0427 18.9071 11.9635 18.8477 11.9621 17.985C11.9545 15.1355 11.9545 12.2856 11.9621 9.43517Z" fill="#1E7DB2"/>
<path d="M64.6526 46.5367C64.6526 50.7053 64.6526 54.8739 64.6526 59.0425C64.6526 59.9689 64.6385 59.983 63.6965 59.9844C61.2242 59.9844 58.7463 59.966 56.2782 59.9986C55.5625 60.0085 55.3532 59.7666 55.356 59.058C55.3768 50.7208 55.3815 42.3832 55.3702 34.0451C55.3702 33.0974 55.3914 33.0734 56.2994 33.072C58.7958 33.072 61.2935 33.0904 63.7955 33.0578C64.4843 33.0493 64.6753 33.294 64.671 33.9588C64.6413 38.1524 64.6526 42.3445 64.6526 46.5367Z" fill="#1E7DB2"/>
<path d="M43.4514 31.8302H23.3675C22.2685 31.8302 22.2671 31.8302 22.2671 30.7426C22.2671 29.2349 22.2841 27.7257 22.2586 26.2166C22.2487 25.6509 22.4312 25.4274 23.0252 25.4189C25.2443 25.3836 25.2443 25.3652 25.2995 27.6126C25.3292 28.8176 26.2584 29.8077 27.3489 29.7978C28.5058 29.7865 29.3432 28.8813 29.3714 27.6041C29.3799 27.2038 29.3714 26.8036 29.3714 26.4019C29.3714 25.467 29.4082 25.4359 30.3106 25.4302C30.5468 25.4302 30.7844 25.4458 31.0178 25.4302C31.5595 25.3836 31.8013 25.6113 31.7829 26.1615C31.7645 26.7498 31.7674 27.341 31.7829 27.9294C31.7879 28.4301 31.9809 28.9107 32.3235 29.2759C32.6662 29.6411 33.1335 29.8642 33.6329 29.901C34.5749 29.9944 35.4716 29.3494 35.7403 28.3664C35.9411 27.648 35.8407 26.9125 35.8407 26.1855C35.8407 25.6537 36.0133 25.4161 36.5776 25.4246C38.3668 25.4529 38.1518 25.2831 38.1702 26.9478C38.1702 27.44 38.1362 27.9379 38.289 28.4202C38.5902 29.3848 39.5067 30.0156 40.4402 29.8911C41.4826 29.7497 42.194 28.9944 42.235 27.9436C42.2591 27.3085 42.2478 26.6706 42.2506 26.0356C42.2506 25.6339 42.4302 25.4317 42.8503 25.4331C44.9365 25.4331 44.6281 25.2379 44.6536 27.0978C44.6536 27.3566 44.6536 27.6154 44.6536 27.8743C44.7059 29.0057 45.556 29.8798 46.6153 29.9109C47.6987 29.9435 48.6322 29.0736 48.7043 27.9308C48.7378 27.3425 48.7416 26.7529 48.7156 26.1643C48.6958 25.6113 48.9349 25.4189 49.4752 25.4274C51.2488 25.4515 51.0309 25.286 51.0522 26.9691C51.0459 27.2748 51.0611 27.5805 51.0974 27.8842C51.2728 29.0369 52.1681 29.843 53.1921 29.7978C54.2656 29.7497 55.1199 28.8671 55.1948 27.6946C55.2302 27.1543 55.2189 26.6112 55.2076 26.0695C55.1962 25.6226 55.39 25.4529 55.837 25.4288C57.5257 25.3341 57.5257 25.3227 57.5342 26.9959C57.5342 27.5136 57.5059 28.0341 57.7195 28.5277C58.073 29.3438 59.0079 29.9067 59.8212 29.7822C60.293 29.7189 60.7284 29.4944 61.0535 29.1466C61.3786 28.7988 61.5733 28.3493 61.6047 27.8743C61.6344 27.2859 61.6273 26.6961 61.6189 26.1077C61.6189 25.6381 61.8041 25.4133 62.2935 25.4302C62.8592 25.4515 63.425 25.4529 63.9907 25.4302C64.4858 25.4119 64.6498 25.6311 64.6456 26.1063C64.6286 27.8035 64.6286 29.5008 64.6456 31.198C64.6456 31.6633 64.4447 31.8373 64.0134 31.8302C63.7772 31.8302 63.541 31.8302 63.3062 31.8302H43.4514Z" fill="#1E7DB2"/>
<path d="M-3.33424 35.3307C-3.33424 33.799 -3.31869 32.2672 -3.34415 30.7355C-3.35264 30.1909 -3.16311 29.976 -2.61292 29.9788C0.190343 29.992 2.99407 29.992 5.79828 29.9788C6.3131 29.9788 6.50546 30.1853 6.50546 30.6973C6.4932 33.7608 6.4932 36.8252 6.50546 39.8906C6.50546 40.4295 6.31735 40.6487 5.76292 40.6459C2.95966 40.6289 0.155926 40.6289 -2.64828 40.6459C-3.17018 40.6459 -3.35546 40.4422 -3.34273 39.9302C-3.32435 38.3942 -3.33424 36.8625 -3.33424 35.3307Z" fill="#1E7DB2"/>
<path d="M53.8993 25.6056C53.8993 26.3128 53.8993 27.0199 53.8993 27.7271C53.8993 28.2306 53.7055 28.6295 53.1469 28.6493C52.55 28.6719 52.3166 28.2646 52.311 27.7328C52.2968 26.3184 52.2968 24.9074 52.311 23.4996C52.311 22.9735 52.5344 22.5449 53.1172 22.5364C53.7225 22.5265 53.8979 22.9607 53.9007 23.4939C53.9021 24.1941 53.8993 24.8998 53.8993 25.6056Z" fill="#1E7DB2"/>
<path d="M60.394 25.682C60.394 26.3637 60.4095 27.0454 60.394 27.7271C60.3784 28.2151 60.1903 28.6351 59.626 28.645C59.0291 28.6549 58.8099 28.2405 58.8071 27.7102C58.7958 26.276 58.7958 24.8414 58.8071 23.4063C58.8071 22.8957 59.0631 22.5166 59.6062 22.5223C60.1493 22.5279 60.3827 22.9197 60.394 23.4246C60.4053 24.1757 60.3926 24.9295 60.394 25.682Z" fill="#1E7DB2"/>
<path d="M47.4017 25.5773C47.4017 26.3043 47.4017 27.0327 47.4017 27.7596C47.4017 28.2405 47.2065 28.6083 46.6945 28.6436C46.1825 28.679 45.8812 28.3367 45.8558 27.8742C45.7565 26.3288 45.7613 24.7785 45.8699 23.2337C45.8713 23.1318 45.8942 23.0314 45.9371 22.939C45.98 22.8466 46.0419 22.7644 46.1188 22.6976C46.1958 22.6308 46.2859 22.581 46.3834 22.5516C46.4809 22.5221 46.5836 22.5135 46.6846 22.5265C47.1556 22.552 47.3918 22.8575 47.4003 23.3228C47.4088 24.0738 47.4003 24.8263 47.4003 25.5773H47.4017Z" fill="#1E7DB2"/>
<path d="M34.4815 25.6184C34.4815 26.2987 34.4815 26.979 34.4815 27.6607C34.4716 28.1939 34.2495 28.6012 33.664 28.6012C33.0516 28.6012 32.8932 28.1486 32.8903 27.6324C32.8837 26.2463 32.8837 24.8612 32.8903 23.477C32.8903 22.9438 33.118 22.5209 33.7008 22.5308C34.2835 22.5407 34.4801 22.9763 34.4829 23.5053C34.4857 24.204 34.4815 24.9112 34.4815 25.6184Z" fill="#1E7DB2"/>
<path d="M39.3781 25.4769V23.4275C39.3781 22.9141 39.5817 22.5322 40.139 22.528C40.6963 22.5237 40.9494 22.8943 40.9565 23.3992C40.9749 24.8306 40.9777 26.2619 40.9565 27.6932C40.948 28.2194 40.692 28.6239 40.0994 28.5942C39.5336 28.5645 39.3781 28.1529 39.3781 27.6522C39.3781 26.9252 39.3767 26.1983 39.3781 25.4769Z" fill="#1E7DB2"/>
<path d="M27.9924 25.5815C27.9924 26.2887 28.0037 26.9958 27.9924 27.6931C27.9825 28.1966 27.7704 28.5813 27.2145 28.5941C26.6587 28.6068 26.4126 28.2277 26.4055 27.7271C26.3866 26.2967 26.3866 24.8658 26.4055 23.4345C26.4055 22.9494 26.629 22.5236 27.182 22.5222C27.7647 22.5222 27.9839 22.938 27.9924 23.4713C28.0037 24.1784 27.9924 24.8785 27.9924 25.5815Z" fill="#1E7DB2"/>
</g>
</g>
<defs>
<clipPath id="clip0_18636_15213">
<rect width="60.8091" height="60.8091" fill="white"/>
</clipPath>
<clipPath id="clip1_18636_15213">
<rect width="68.0138" height="60" fill="white" transform="translate(-3.34839)"/>
</clipPath>
</defs>
</svg>
