<svg width="61" height="61" viewBox="0 0 61 61" fill="none" xmlns="http://www.w3.org/2000/svg">
<g clip-path="url(#clip0_7212_41853)">
<g clip-path="url(#clip1_7212_41853)">
<path d="M21.0021 53.03H48.1438C50.4398 53.03 50.5229 53.03 50.4105 51.076C50.3022 48.6669 50.069 46.2651 49.7119 43.8802C49.2772 41.1592 47.5918 38.9071 44.7096 37.5979C41.6168 36.2808 38.4584 35.1232 35.2471 34.1295C34.7586 33.9536 33.8988 34.2223 33.337 34.4812C31.5073 35.3584 29.504 35.8137 27.4749 35.8137C25.4457 35.8137 23.4425 35.3584 21.6127 34.4812C21.2708 34.3298 25.0323 38.7655 24.9151 43.5529C24.7783 48.1156 20.7529 53.03 21.0021 53.03Z" fill="#4F932D"/>
<path d="M14.3242 20.7931C14.3229 24.2143 15.6743 27.4974 18.0839 29.9261C20.4934 32.3549 23.7656 33.7324 27.1868 33.7582C34.3532 33.8168 40.2007 27.8472 40.1665 20.5146C40.1296 17.0851 38.7318 13.8108 36.2807 11.4119C33.8296 9.01297 30.5259 7.68602 27.0964 7.72295C23.6669 7.75987 20.3925 9.15765 17.9936 11.6088C15.5947 14.0599 14.2678 17.3636 14.3047 20.7931H14.3242Z" fill="#4F932D"/>
<path d="M10.3673 53.1229H2.06257C1.71025 53.1281 1.35878 53.087 1.01715 53.0007C0.711149 52.9404 0.435814 52.7751 0.2387 52.5334C0.0415864 52.2917 -0.0649315 51.9887 -0.0624579 51.6769C-0.0624579 47.9739 -0.0624579 44.2743 -0.0624579 40.5779C-0.0526288 40.2601 0.0664217 39.9554 0.274639 39.7152C0.482855 39.4749 0.767514 39.3138 1.08066 39.2589C1.67073 39.1557 2.27152 39.1277 2.86862 39.1758C3.32293 39.1758 3.46949 39.0097 3.46949 38.5701C3.40261 37.1382 3.45818 35.7033 3.63558 34.2809C3.94823 32.4295 4.6126 30.7539 6.14165 29.5424C7.1526 28.7627 8.37874 28.3124 9.65405 28.2527C10.572 28.1378 11.5019 28.1576 12.4141 28.3113C15.0716 28.8878 16.4541 30.6806 17.0843 33.1964C17.5044 34.872 17.4067 36.5769 17.4165 38.277C17.4165 39.1661 17.4165 39.1661 18.3056 39.1661C18.6131 39.1489 18.9214 39.1489 19.2289 39.1661C20.3671 39.2833 20.8752 39.8353 20.8801 40.9833C20.8801 42.8885 20.8801 44.7888 20.8801 46.694V51.0906C20.8801 52.4976 20.3085 53.0838 18.9016 53.0887C16.0584 53.1326 13.2104 53.1229 10.3673 53.1229ZM10.25 39.1709H13.8943C14.1581 39.1709 14.4317 39.1709 14.4219 38.7997C14.3975 37.3341 14.5685 35.8686 14.2656 34.4031C13.7282 31.814 11.9159 30.5878 9.3414 31.0421C7.83678 31.3108 6.71809 32.5663 6.31751 34.4617C6.0244 35.8393 6.12211 37.2364 6.0928 38.6287C6.0928 39.0586 6.24423 39.1954 6.66435 39.1905C7.85632 39.1563 9.05318 39.1709 10.25 39.1709Z" fill="#4F932D"/>
<path d="M40.9237 26.5722C41.022 26.5849 41.1165 26.6184 41.2008 26.6707C41.2851 26.7229 41.3571 26.7926 41.4122 26.8751C43.0406 28.5035 44.6803 30.1318 46.3315 31.7602C46.82 32.2487 46.7077 32.3025 47.2646 31.7602L57.963 21.1009C58.5248 20.5391 58.5639 20.5391 59.1256 21.1009C59.5848 21.5601 60.0343 22.029 60.5032 22.4736C60.8012 22.7569 60.8257 22.9621 60.5032 23.2894C56.0708 27.7186 51.6416 32.151 47.2157 36.5867C46.9128 36.8847 46.6832 36.8603 46.395 36.5867C43.9329 34.1181 41.4676 31.656 38.9989 29.2004C38.7107 28.9171 38.6765 28.6728 38.9989 28.3797C39.5314 27.8912 40.0444 27.3392 40.5671 26.8214C40.6503 26.6963 40.7777 26.6074 40.9237 26.5722Z" fill="#4F932D"/>
</g>
</g>
<defs>
<clipPath id="clip0_7212_41853">
<rect width="60.8091" height="60.8091" fill="white"/>
</clipPath>
<clipPath id="clip1_7212_41853">
<rect width="60.81" height="45.3974" fill="white" transform="translate(-0.0673828 7.73029)"/>
</clipPath>
</defs>
</svg>
