<svg width="62" height="62" viewBox="0 0 62 62" fill="none" xmlns="http://www.w3.org/2000/svg">
<path d="M6.9206 46.173C7.20165 45.5247 7.36182 44.9642 7.66704 44.4927C8.33944 43.4592 9.05868 42.4544 9.81116 41.4707C10.1255 41.0627 10.1028 40.7575 9.89427 40.3193C9.47572 39.4369 9.16143 38.5061 8.73835 37.6207C8.66594 37.4771 8.56533 37.3495 8.44254 37.2457C8.31974 37.1418 8.17727 37.0638 8.02364 37.0163C6.76799 36.7609 5.49572 36.5856 4.23101 36.3726C3.03429 36.1701 2.09444 35.3149 2.05666 34.106C1.98111 31.5877 1.98111 29.0694 2.05666 26.551C2.09142 25.3603 3.03429 24.4945 4.24007 24.2845C5.4791 24.0699 6.71813 23.8554 7.9632 23.6801C8.4165 23.6166 8.64467 23.4277 8.80332 22.9805C9.13877 22.0346 9.58754 21.1295 9.93205 20.1866C9.9791 20.0462 9.99746 19.8977 9.98604 19.75C9.97462 19.6023 9.93365 19.4584 9.86556 19.3269C9.15539 18.2586 8.38326 17.2326 7.64287 16.1825C6.8103 15.0024 6.88736 13.724 7.91183 12.6875C9.48025 11.0999 11.0638 9.52242 12.6624 7.955C13.7081 6.93054 15.0332 6.83988 16.2345 7.67849C17.2453 8.38413 18.2532 9.09582 19.2429 9.83017C19.5814 10.0825 19.8473 10.1445 20.2568 9.94651C21.1845 9.50379 22.1637 9.16683 23.096 8.73771C23.2289 8.66924 23.3466 8.57468 23.4422 8.45966C23.5377 8.34465 23.6091 8.21155 23.652 8.06833C23.9028 6.81117 24.0827 5.54041 24.2942 4.2757C24.5057 3.01098 25.4063 2.08322 26.6861 2.04998C29.1037 1.98651 31.5214 1.98349 33.939 2.04091C35.2535 2.07264 36.1707 2.99738 36.3898 4.29836C36.5999 5.5389 36.819 6.77793 36.9942 8.023C37.0562 8.46119 37.2556 8.65007 37.6651 8.79815C38.608 9.14115 39.5131 9.59143 40.4575 9.9314C40.6091 9.9794 40.7687 9.99651 40.927 9.98171C41.0854 9.96692 41.2391 9.92053 41.3792 9.84528C42.4097 9.17137 43.3949 8.42644 44.4012 7.71475C45.684 6.80815 46.9518 6.90485 48.0775 8.01695C49.6167 9.53804 51.1489 11.0677 52.674 12.6059C53.8133 13.7558 53.8949 15.0054 52.946 16.3396C52.2449 17.3233 51.5196 18.2918 50.8593 19.3012C50.7823 19.4399 50.7339 19.5928 50.717 19.7506C50.7002 19.9084 50.7151 20.068 50.761 20.2199C51.1084 21.1873 51.5048 22.1364 51.9487 23.0636C52.0219 23.2057 52.1231 23.3316 52.2462 23.4337C52.3692 23.5357 52.5117 23.6118 52.6649 23.6574C53.913 23.9143 55.1898 24.0896 56.4545 24.3026C57.6497 24.5051 58.5926 25.3603 58.6289 26.5691C58.7054 29.0875 58.7054 31.6058 58.6289 34.1242C58.5926 35.3164 57.6361 36.1822 56.4379 36.3907C55.1732 36.6053 53.9024 36.7851 52.6453 37.0344C52.5008 37.0722 52.3655 37.139 52.2475 37.2307C52.1296 37.3224 52.0315 37.437 51.9593 37.5678C51.506 38.5454 51.095 39.5472 50.7202 40.5596C50.6809 40.6911 50.6688 40.8293 50.6847 40.9657C50.7005 41.1021 50.744 41.2338 50.8124 41.3528C51.5135 42.397 52.266 43.4063 52.9943 44.4323C53.8843 45.6849 53.8012 46.9391 52.7148 48.0436C51.1796 49.606 49.6313 51.1548 48.0699 52.69C46.9654 53.7764 45.6387 53.867 44.3785 52.9755C43.3918 52.2775 42.4021 51.5854 41.4321 50.8601C41.0936 50.6078 40.8277 50.5473 40.4182 50.7453C39.5133 51.1834 38.5852 51.5718 37.6379 51.9088C37.2118 52.0599 37.0517 52.279 36.9897 52.7036C36.8099 53.9471 36.5908 55.1861 36.3853 56.4267C36.1798 57.6672 35.2717 58.6207 33.9934 58.6524C31.5536 58.7159 29.1113 58.7159 26.6665 58.6524C25.441 58.6222 24.5148 57.6914 24.3017 56.4781C24.0842 55.239 23.8726 53.9985 23.6973 52.7534C23.6339 52.3001 23.4782 52.0599 23.0174 51.8997C22.0715 51.5673 21.1679 51.111 20.2235 50.7725C20.0722 50.7236 19.9126 50.7058 19.7542 50.7201C19.5958 50.7343 19.442 50.7804 19.3018 50.8556C18.2441 51.5446 17.2438 52.3031 16.2163 53.0284C15.0211 53.8701 13.7564 53.8066 12.7153 52.7912C11.094 51.2092 9.47421 49.6181 7.92391 47.9726C7.4691 47.4875 7.25 46.7849 6.9206 46.173ZM42.6711 40.9978C47.9868 35.1819 48.5504 24.7106 41.2462 18.1498C34.1611 11.7854 23.1398 12.8386 17.3587 20.374C11.7785 27.6465 13.8833 36.9422 18.0431 40.9524C17.8225 39.5064 18.2033 38.2326 19.332 37.2928C20.139 36.6127 21.0093 36.0116 21.931 35.4977C23.2712 34.7618 24.681 34.1529 26.0575 33.4805C27.2573 32.8942 27.5262 31.9242 26.804 30.812C26.5562 30.4328 26.3038 30.0565 26.0303 29.6954C24.2111 27.2974 23.4586 24.6048 23.8303 21.6191C24.2171 18.5064 26.5501 16.2535 29.6175 16.0057C33.2212 15.7155 35.8534 17.3792 36.6875 20.6354C37.5216 23.8916 36.76 26.9 34.7398 29.5912C34.3583 30.0886 34.0177 30.6162 33.7214 31.1686C33.2681 32.0345 33.4902 32.867 34.3424 33.3853C34.9166 33.7359 35.5663 33.9625 36.1753 34.2587C37.4838 34.8948 38.8301 35.4675 40.0842 36.1988C41.8249 37.2157 42.9249 38.6784 42.6681 40.9978H42.6711Z" fill="#21409A"/>
</svg>
