<svg width="46" height="46" viewBox="0 0 46 46" fill="none" xmlns="http://www.w3.org/2000/svg">
<g clip-path="url(#clip0_39118_314947)">
<g clip-path="url(#clip1_39118_314947)">
<path d="M41.0565 22.5403C41.0565 28.8746 41.0565 35.2084 41.0565 41.5415C41.0565 43.0404 40.1748 44.1805 38.8081 44.4565C38.5768 44.4971 38.342 44.5148 38.1072 44.5094C27.8944 44.5094 17.6814 44.5094 7.46803 44.5094C5.70898 44.5103 4.52306 43.3394 4.52306 41.5856C4.51836 28.8887 4.51836 16.1919 4.52306 3.495C4.52306 1.74036 5.71251 0.571194 7.47067 0.570312C17.684 0.570312 27.8973 0.570312 38.1107 0.570312C39.8838 0.570312 41.0574 1.74654 41.0583 3.53997C41.0612 9.87312 41.0606 16.2066 41.0565 22.5403ZM15.0244 14.9477C16.4963 14.9237 17.9503 14.6212 19.3096 14.0563C20.2531 13.6613 20.3545 13.4876 20.1913 12.4824C20.1816 12.4251 20.164 12.3687 20.1517 12.3114C19.8581 10.9315 18.994 9.99773 17.7966 9.34085C17.5135 9.18566 17.3901 9.06046 17.5788 8.73687C17.8213 8.32069 17.8627 7.84985 17.8486 7.37195C17.8324 6.81808 17.6528 6.28137 17.3324 5.82925C17.0121 5.37712 16.5653 5.02976 16.0481 4.83082C14.9204 4.40053 13.7662 4.66329 12.9409 5.5362C12.1817 6.34121 11.9534 7.61266 12.4498 8.61166C12.6482 9.01285 12.5873 9.17597 12.1932 9.37876C10.793 10.1009 10.0524 11.2974 9.85574 12.8413C9.77903 13.4444 9.88837 13.6181 10.4306 13.8809C11.8925 14.5933 13.4505 14.8993 15.0244 14.9477ZM15.0156 40.4182C16.6389 40.3609 18.1784 40.0611 19.6297 39.346C20.0944 39.1168 20.306 38.817 20.2222 38.3065C20.194 38.1301 20.1869 37.9538 20.1525 37.7845C19.8713 36.401 19.0063 35.4638 17.8169 34.7998C17.4783 34.6094 17.4342 34.4471 17.6096 34.1147C17.9138 33.5319 17.9253 32.8927 17.7772 32.2631C17.398 30.6601 15.7386 29.7616 14.1374 30.273C12.6279 30.7553 11.8352 32.4694 12.4198 33.9869C12.6394 34.5565 12.6358 34.5494 12.1033 34.8589C10.7807 35.6287 10.0532 36.7908 9.8531 38.2976C9.78873 38.7799 9.95361 39.0912 10.4077 39.3204C11.8643 40.0558 13.4179 40.3565 15.0156 40.4182ZM14.3102 27.6578C16.6609 27.6737 18.2269 27.2725 19.7284 26.5786C20.0944 26.4084 20.2575 26.1571 20.2337 25.7471C20.1402 24.0974 19.2788 22.9415 17.8927 22.1506C17.5179 21.9372 17.4421 21.7908 17.6282 21.3852C17.8875 20.8101 17.9447 20.1642 17.7906 19.5524C17.6364 18.9406 17.2799 18.3989 16.7791 18.0153C16.2762 17.6233 15.6562 17.4115 15.0186 17.4139C14.381 17.4163 13.7627 17.6327 13.2627 18.0285C12.7701 18.4215 12.425 18.9698 12.2837 19.5839C12.1423 20.198 12.213 20.8419 12.4842 21.4108C12.6543 21.7767 12.6067 21.9266 12.247 22.1162C10.7798 22.8736 10.0515 24.1389 9.85751 25.7445C9.81166 26.1236 9.96067 26.3908 10.316 26.5592C11.7938 27.2584 13.3483 27.6437 14.3023 27.6596L14.3102 27.6578ZM28.6947 7.55623H28.0775C26.1686 7.55623 24.2588 7.55623 22.3463 7.55623C21.8675 7.55623 21.5809 7.80047 21.5906 8.16462C21.6003 8.52878 21.8728 8.75715 22.3577 8.77125C22.4018 8.77125 22.4459 8.77125 22.49 8.77125H34.8254C34.9574 8.77828 35.0898 8.77148 35.2204 8.75097C35.5343 8.68396 35.7115 8.46882 35.7062 8.15757C35.7132 8.01541 35.6657 7.87593 35.5735 7.7675C35.4813 7.65907 35.3512 7.58984 35.2098 7.57387C35.0496 7.55311 34.888 7.54603 34.7266 7.55271L28.6947 7.55623ZM28.6471 34.1641H34.7266C35.4038 34.1641 35.7115 33.9745 35.7177 33.5601C35.7238 33.1316 35.4338 32.9429 34.7478 32.9429H22.5429C22.3957 32.9369 22.2483 32.9425 22.102 32.9597C21.782 33.0126 21.6012 33.2242 21.6003 33.5363C21.5908 33.6783 21.635 33.8187 21.7242 33.9296C21.8134 34.0405 21.941 34.1139 22.0818 34.135C22.2416 34.1589 22.4035 34.1668 22.565 34.1588C24.5935 34.1618 26.6209 34.1626 28.6471 34.1615V34.1641ZM28.6312 21.4752H33.1677C33.7849 21.4752 34.4021 21.4858 35.0193 21.4672C35.5105 21.4531 35.8182 21.0951 35.6939 20.7081C35.5775 20.3422 35.2936 20.2416 34.9347 20.2434C33.4966 20.2496 32.0576 20.2434 30.6186 20.2434C27.8729 20.2434 25.1275 20.2434 22.3824 20.2434C21.8966 20.2434 21.6065 20.4691 21.5959 20.8271C21.5836 21.2115 21.8781 21.454 22.3789 21.4699C22.4962 21.4699 22.6134 21.4699 22.7316 21.4699L28.6312 21.4752ZM25.4385 37.5931H28.566C28.8525 37.5931 29.0844 37.497 29.2185 37.2299C29.2715 37.1322 29.2949 37.0213 29.2858 36.9106C29.2767 36.7998 29.2355 36.6942 29.1673 36.6065C28.991 36.364 28.7335 36.327 28.4619 36.327H25.42C24.4069 36.327 23.392 36.3208 22.3816 36.327C21.8305 36.3331 21.4998 36.6744 21.6136 37.102C21.7123 37.4829 22.0006 37.5896 22.3533 37.5905L25.4385 37.5931ZM25.45 10.9068C24.423 10.9068 23.3958 10.9068 22.3683 10.9068C22.0932 10.9068 21.8393 10.9394 21.6876 11.2128C21.4328 11.6695 21.7467 12.1236 22.3472 12.1262C24.4045 12.1339 26.4592 12.1339 28.5113 12.1262C28.9927 12.1262 29.2767 11.8873 29.2793 11.5231C29.2793 11.1263 29.0148 10.9112 28.4857 10.9059C27.4753 10.9006 26.4631 10.9068 25.45 10.9068ZM25.4764 24.8381C26.5186 24.8381 27.5602 24.8381 28.6013 24.8381C28.9725 24.8381 29.2273 24.6758 29.2767 24.2896C29.3207 23.9458 29.0695 23.6883 28.6594 23.6284C28.601 23.6205 28.5421 23.6167 28.4831 23.6169C26.4437 23.6169 24.4051 23.6116 22.3657 23.6169C21.8737 23.6169 21.6039 23.8541 21.5951 24.2253C21.5862 24.5965 21.8843 24.8337 22.3965 24.8354C23.4229 24.8425 24.4501 24.8381 25.4764 24.8381Z" fill="#622FB2"/>
<path d="M15.0261 13.7215C13.8455 13.6774 12.6913 13.4958 11.5874 13.0417C11.0804 12.8327 11.0469 12.7728 11.262 12.2543C11.7267 11.1372 12.5502 10.4221 13.715 10.0976C13.8975 10.0473 14.0968 10.0094 14.252 9.9142C14.6143 9.68407 14.557 9.19735 14.1453 8.84378C13.4461 8.24244 13.2556 7.5644 13.5871 6.85901C13.879 6.24181 14.4248 5.89793 15.1063 5.94114C15.7879 5.98434 16.2526 6.35555 16.5056 6.98157C16.6187 7.27857 16.6394 7.60276 16.5652 7.91174C16.4909 8.22072 16.3251 8.50009 16.0895 8.71329C16.0357 8.76266 15.9757 8.80587 15.9131 8.84995C15.6918 9.02101 15.5296 9.22469 15.5922 9.52359C15.6548 9.8225 15.8805 9.98209 16.1732 10.0526C16.7849 10.2182 17.3554 10.5091 17.8485 10.907C18.3167 11.2685 18.6174 11.742 18.8308 12.2869C18.978 12.6617 18.8898 12.8786 18.4992 13.0311C17.3894 13.4579 16.2147 13.6914 15.0261 13.7215Z" fill="#622FB2"/>
<path d="M15.0252 39.141C13.7996 39.1771 12.6657 38.9126 11.5583 38.4876C11.1668 38.3368 11.0857 38.1349 11.2382 37.7514C11.6791 36.6607 12.4409 35.9288 13.5625 35.5753C13.7441 35.518 13.9372 35.4933 14.1118 35.4201C14.5403 35.2437 14.632 34.7403 14.3031 34.4096C14.2149 34.3215 14.0941 34.2483 13.9954 34.161C13.8361 34.0245 13.7056 33.8577 13.6114 33.6703C13.5172 33.4829 13.4613 33.2787 13.4467 33.0694C13.4322 32.8602 13.4594 32.6502 13.5268 32.4516C13.5942 32.253 13.7005 32.0698 13.8393 31.9126C14.1273 31.6031 14.526 31.4201 14.9484 31.4036C15.3708 31.387 15.7826 31.5383 16.0939 31.8244C16.7605 32.4416 16.7993 33.4115 16.1768 34.0649C16.0763 34.1707 15.9546 34.2562 15.8479 34.3567C15.407 34.765 15.5128 35.2914 16.0895 35.4748C16.5123 35.5965 16.921 35.7626 17.3089 35.9703C17.9985 36.3461 18.5304 36.9568 18.8079 37.6914C18.9992 38.1958 18.9595 38.2928 18.4657 38.4894C17.3539 38.9338 16.2006 39.1868 15.0252 39.141Z" fill="#622FB2"/>
<path d="M14.976 26.4281C13.8297 26.4757 12.6949 26.1935 11.5945 25.7536C11.0822 25.549 11.0523 25.4829 11.2648 24.9671C11.755 23.7759 12.6367 23.0528 13.8914 22.783C14.163 22.724 14.4019 22.6261 14.4742 22.3228C14.5518 21.9974 14.4346 21.7488 14.1621 21.5645C14.1008 21.5232 14.042 21.4784 13.9858 21.4305C13.6785 21.1611 13.4864 20.7839 13.4493 20.3769C13.4122 19.9699 13.5329 19.5643 13.7865 19.2438C13.9175 19.075 14.0817 18.935 14.2691 18.8323C14.4565 18.7297 14.6629 18.6667 14.8757 18.6471C15.0884 18.6276 15.3029 18.652 15.5058 18.7189C15.7087 18.7857 15.8957 18.8936 16.0552 19.0357C16.2204 19.1769 16.3549 19.3504 16.4506 19.5456C16.5463 19.7407 16.6011 19.9533 16.6117 20.1704C16.6223 20.3874 16.5884 20.6044 16.5121 20.8079C16.4358 21.0114 16.3187 21.1971 16.168 21.3538C16.0871 21.4379 15.9986 21.5143 15.9035 21.5821C15.6699 21.7505 15.5358 21.9666 15.594 22.2602C15.6522 22.5538 15.8515 22.7072 16.1328 22.776C16.5201 22.8635 16.893 23.0057 17.2402 23.1983C17.9271 23.5995 18.4852 24.1285 18.7841 24.8868C19.0134 25.4705 18.986 25.5437 18.4173 25.7738C17.329 26.2316 16.1563 26.4545 14.976 26.4281Z" fill="#622FB2"/>
</g>
</g>
<defs>
<clipPath id="clip0_39118_314947">
<rect width="45.2853" height="45.2853" fill="white"/>
</clipPath>
<clipPath id="clip1_39118_314947">
<rect width="36.5414" height="43.9426" fill="white" transform="translate(4.51562 0.566406)"/>
</clipPath>
</defs>
</svg>
