<svg width="47" height="47" viewBox="0 0 47 47" fill="none" xmlns="http://www.w3.org/2000/svg">
<g clip-path="url(#clip0_39118_315029)">
<g clip-path="url(#clip1_39118_315029)">
<path d="M25.2552 44.9758H0.827891C-0.0881329 44.9758 -0.0917969 44.9758 -0.0917969 44.0647C-0.0917969 32.2581 -0.0917969 20.4516 -0.0917969 8.64505C-0.0917969 7.70704 -0.072256 7.6875 0.86331 7.6875H49.7766C50.7085 7.6875 50.7256 7.70582 50.7256 8.64994C50.7256 20.4565 50.7256 32.263 50.7256 44.0695C50.7256 44.9746 50.7256 44.9758 49.801 44.9758H25.2552ZM14.208 17.3583C12.9255 17.3583 11.6431 17.3583 10.3619 17.3583C10.0468 17.3583 9.66692 17.274 9.51547 17.6709C9.37867 18.0276 9.6889 18.2242 9.88188 18.4453C12.0266 20.8677 14.1729 23.2876 16.3209 25.7051C16.8962 26.3561 16.8901 26.3695 16.2977 27.04C14.1554 29.4632 12.0115 31.8852 9.866 34.3059C9.66936 34.5295 9.36524 34.7298 9.51669 35.0852C9.68157 35.4711 10.059 35.3783 10.3716 35.3795C12.8144 35.3795 15.2571 35.3588 17.6998 35.3978C17.9905 35.4162 18.2813 35.3643 18.5477 35.2466C18.8141 35.1288 19.0482 34.9486 19.2302 34.7212C21.5247 32.1067 23.8339 29.5048 26.1578 26.9155C26.5132 26.5185 26.4961 26.2058 26.1407 25.8089C23.7493 23.1431 21.3692 20.4667 19.0006 17.7796C18.8886 17.6377 18.7442 17.5246 18.5795 17.4498C18.4148 17.375 18.2347 17.3407 18.054 17.3497C16.7728 17.3693 15.4904 17.3583 14.208 17.3583ZM28.8436 17.3583C27.6637 17.3583 26.4839 17.3448 25.3016 17.3668C24.9352 17.3729 24.4467 17.1738 24.2561 17.6245C24.0656 18.0752 24.5151 18.3512 24.7703 18.6395C26.8874 21.0317 29.0113 23.415 31.1422 25.7894C31.5086 26.201 31.5355 26.4721 31.1422 26.9045C28.9217 29.3655 26.7343 31.8547 24.537 34.3377C24.3538 34.5441 24.0815 34.7383 24.2146 35.0705C24.3587 35.4284 24.7032 35.3856 25.0024 35.3856C27.5673 35.3856 30.1321 35.3783 32.6909 35.3942C32.9015 35.4009 33.1107 35.3579 33.3017 35.2688C33.4926 35.1797 33.6599 35.0469 33.7901 34.8812C36.1262 32.2251 38.4732 29.5789 40.8313 26.9423C41.2148 26.5149 41.1977 26.1985 40.8313 25.7906C38.47 23.1508 36.1209 20.5045 33.784 17.8517C33.6519 17.6864 33.4822 17.5551 33.2891 17.4687C33.096 17.3822 32.8851 17.3431 32.6738 17.3546C31.4072 17.3742 30.1248 17.3583 28.8436 17.3583Z" fill="#1E3046"/>
<path d="M25.3226 6.89071H0.837905C-0.0842263 6.89071 -0.0866693 6.89072 -0.0878906 5.9869C-0.0878906 4.25745 -0.0878906 2.52759 -0.0878906 0.79732C-0.0878906 0.0022113 -0.0597999 -0.0234375 0.737752 -0.0234375H49.8318C50.7148 -0.0234375 50.7246 -0.0148882 50.7258 0.852282C50.7258 2.6025 50.7063 4.35272 50.7368 6.10415C50.7478 6.71484 50.5463 6.90537 49.9295 6.90415C41.7268 6.88542 33.5245 6.88094 25.3226 6.89071ZM35.6786 3.08127V3.07395C35.3745 3.07395 35.0679 3.06173 34.765 3.07395C34.7187 3.07148 34.6723 3.0783 34.6287 3.094C34.585 3.10971 34.545 3.13397 34.5109 3.16538C34.4767 3.19678 34.4492 3.23469 34.4299 3.27688C34.4106 3.31907 34.4 3.36468 34.3986 3.41104C34.3933 3.45742 34.3973 3.50437 34.4102 3.54921C34.4232 3.59405 34.4449 3.63589 34.474 3.67233C34.5032 3.70876 34.5393 3.73907 34.5802 3.76151C34.6211 3.78395 34.6661 3.79809 34.7125 3.8031C35.3543 3.90875 36.009 3.90875 36.6508 3.8031C36.8401 3.77012 36.9989 3.65532 36.9696 3.4257C36.9596 3.33275 36.9155 3.24681 36.8457 3.18453C36.776 3.12225 36.6857 3.08807 36.5922 3.0886C36.2893 3.06662 35.9827 3.08127 35.6786 3.08127ZM46.5561 3.08127V3.03975C46.2312 3.0544 45.9063 3.05563 45.579 3.08738C45.5327 3.08961 45.4873 3.10128 45.4457 3.12169C45.4041 3.14209 45.3672 3.1708 45.3371 3.20604C45.307 3.24128 45.2844 3.28231 45.2708 3.3266C45.2571 3.37089 45.2527 3.4175 45.2578 3.46356C45.254 3.54668 45.2818 3.62815 45.3354 3.69175C45.389 3.75535 45.4647 3.79641 45.5472 3.80677C46.1891 3.9063 46.8424 3.9063 47.4843 3.80677C47.5781 3.8014 47.6659 3.75927 47.7288 3.68953C47.7917 3.61979 47.8245 3.52805 47.8202 3.43425C47.8197 3.38789 47.8101 3.34209 47.7919 3.29945C47.7737 3.25681 47.7473 3.21816 47.7142 3.18573C47.6811 3.15329 47.6419 3.12769 47.5989 3.1104C47.5559 3.09311 47.5099 3.08445 47.4635 3.08494C47.1655 3.0654 46.8602 3.0825 46.5561 3.0825V3.08127ZM41.1479 3.88738C41.4251 3.86417 41.7488 3.85684 42.0663 3.80554C42.1591 3.79424 42.2436 3.74662 42.3012 3.67312C42.3589 3.59963 42.3851 3.50626 42.3741 3.41349C42.3741 3.3673 42.3645 3.32162 42.3461 3.27927C42.3276 3.23693 42.3007 3.19883 42.2669 3.16733C42.2331 3.13584 42.1932 3.11162 42.1497 3.09619C42.1061 3.08075 42.0599 3.07443 42.0138 3.07761C41.4064 3.0654 40.7998 3.06743 40.194 3.08372C40.1015 3.08068 40.0115 3.11381 39.9431 3.17607C39.8747 3.23834 39.8332 3.32482 39.8276 3.41715C39.808 3.66997 39.99 3.78356 40.194 3.81776C40.4944 3.86295 40.7985 3.86539 41.1479 3.8886V3.88738Z" fill="#1E3046"/>
<path d="M14.6319 18.1573C15.6688 18.1573 16.7082 18.1683 17.7427 18.1512C17.9146 18.1429 18.086 18.175 18.2432 18.245C18.4004 18.315 18.539 18.4209 18.6477 18.5542C20.7974 20.997 22.9514 23.434 25.11 25.8653C25.4275 26.222 25.4471 26.4687 25.11 26.8424C22.9531 29.2485 20.8083 31.6668 18.6758 34.0973C18.5502 34.2557 18.3892 34.3825 18.2057 34.4673C18.0222 34.5522 17.8214 34.5928 17.6194 34.5859C15.6065 34.57 13.5889 34.5859 11.5797 34.5761C11.3843 34.5761 11.1205 34.6567 11.0179 34.454C10.8957 34.2097 11.1559 34.0534 11.2939 33.8983C13.3149 31.6184 15.3411 29.3385 17.3726 27.0586C17.9723 26.3844 17.9833 26.3429 17.3629 25.6479C15.3175 23.3322 13.2676 21.0194 11.2133 18.7094C11.0997 18.5799 10.8652 18.4651 10.9593 18.2684C11.0533 18.0718 11.2866 18.161 11.4588 18.1597C12.514 18.1536 13.5742 18.1573 14.6319 18.1573Z" fill="#1E3046"/>
<path d="M29.3347 18.1585C30.3728 18.1585 31.411 18.167 32.4479 18.1585C32.6092 18.1479 32.7708 18.1755 32.9193 18.2392C33.0679 18.3029 33.1993 18.4008 33.3029 18.5249C35.4834 20.992 37.6729 23.4535 39.8714 25.9092C40.1865 26.2598 40.1706 26.4808 39.8592 26.8265C37.6689 29.2627 35.49 31.7075 33.3224 34.1608C33.2162 34.2951 33.08 34.4026 32.9248 34.4749C32.7695 34.5472 32.5996 34.5823 32.4284 34.5773C30.3521 34.5687 28.2758 34.5773 26.1994 34.57C26.026 34.57 25.7927 34.6457 25.7036 34.4478C25.6144 34.25 25.8257 34.1229 25.9393 33.9935C27.9969 31.6517 30.0561 29.3164 32.117 26.9877C32.6421 26.3929 32.6348 26.2781 32.0852 25.6601C30.0854 23.4103 28.0873 21.1585 26.0907 18.9047C25.9967 18.7972 25.91 18.6849 25.8171 18.5762C25.5484 18.2562 25.7011 18.1597 26.0382 18.1597L29.3347 18.1585Z" fill="#1E3046"/>
</g>
</g>
<defs>
<clipPath id="clip0_39118_315029">
<rect width="46.375" height="46.375" fill="white"/>
</clipPath>
<clipPath id="clip1_39118_315029">
<rect width="50.8271" height="45" fill="white" transform="translate(-0.0878906 -0.0273438)"/>
</clipPath>
</defs>
</svg>
