<svg width="62" height="62" viewBox="0 0 62 62" fill="none" xmlns="http://www.w3.org/2000/svg">
<g clip-path="url(#clip0_32675_96130)">
<g clip-path="url(#clip1_32675_96130)">
<path d="M-1.00143 30.4783C-1.00143 21.4932 -1.00143 12.5082 -1.00143 3.52315C-1.00583 3.11338 -0.982591 2.70378 -0.931863 2.29713C-0.749264 0.965318 0.133296 0.133477 1.47525 0.0117442C1.71582 -0.00999375 1.95784 -0.00274642 2.19985 -0.00274642H29.0854C30.1882 -0.00274642 30.1897 -0.0027476 30.1897 1.13053C30.1897 5.50131 30.1897 9.87258 30.1897 14.2443C30.1897 15.495 30.3766 15.6848 31.6056 15.6848C36.0015 15.6848 40.3974 15.6848 44.7933 15.6848C45.8222 15.6848 45.8338 15.7008 45.8338 16.75C45.8338 22.7149 45.8338 28.6798 45.8338 34.6447C45.8338 35.6823 45.8338 35.691 44.7846 35.6968C39.3153 35.7273 34.6837 37.9547 30.4375 41.1734C29.11 42.1808 27.8606 43.2873 26.7 44.4833C25.2233 46.0035 25.2378 47.6121 26.7261 49.128C29.9651 52.4293 33.6504 55.0697 38.0299 56.6363C40.2328 57.4479 42.5645 57.8535 44.9121 57.8333C45.8381 57.8203 45.9599 58.0043 45.7295 58.9202C45.4222 60.1448 44.5701 60.8042 43.2499 60.8042C38.9989 60.8129 34.7479 60.8129 30.4969 60.8042H2.09262C-0.0464031 60.8042 -0.998526 59.8608 -0.999976 57.7058C-1.00094 48.6348 -1.00143 39.5589 -1.00143 30.4783ZM11.8008 14.4211C11.8008 13.6081 12.3051 12.9995 13.1471 12.7227C14.3369 12.3314 15.4803 12.5778 16.6121 12.985C16.8455 13.069 17.0701 13.2603 17.3078 12.9357C17.8454 12.2024 17.7425 11.7763 16.8947 11.4749C16.6672 11.3952 16.4324 11.3387 16.2049 11.2604C15.7049 11.088 15.0456 11.2952 14.6934 10.9126C14.3007 10.4953 14.5485 9.84746 14.5152 9.30256C14.4818 8.75766 14.2543 8.38812 13.7079 8.37507C13.1283 8.36203 12.85 8.75621 12.8051 9.30256C12.7715 9.6635 12.7691 10.0267 12.7978 10.388C12.85 10.9764 12.6674 11.3445 12.0486 11.4966C11.5349 11.6416 11.0601 11.8996 10.6588 12.2517C9.16036 13.4821 9.20094 15.553 10.7414 16.7254C11.3027 17.1458 11.9308 17.4686 12.5993 17.6804C13.3854 17.9173 14.1477 18.2274 14.876 18.6064C15.505 18.9528 15.9557 19.4513 15.9267 20.2107C15.8977 20.9701 15.4281 21.4903 14.7456 21.8048C14.3711 21.9763 13.9672 22.0747 13.5558 22.0946C12.3964 22.1714 11.2863 22.0236 10.2415 21.515C9.60671 21.2092 9.51686 21.686 9.32267 22.0686C9.09804 22.5033 9.1879 22.7932 9.67048 22.9584C10.3951 23.212 11.1458 23.4569 11.9196 23.4569C12.6355 23.4569 12.8616 23.7641 12.7978 24.425C12.7711 24.7145 12.7764 25.0061 12.8138 25.2945C12.8805 25.8249 13.1761 26.1278 13.7355 26.0973C14.2688 26.0698 14.505 25.7582 14.5094 25.2438C14.5094 24.9061 14.5311 24.567 14.5094 24.2293C14.4775 23.6946 14.6543 23.3801 15.234 23.2685C15.827 23.1449 16.3902 22.9066 16.8918 22.5671C18.657 21.4077 18.7657 19.0122 17.115 17.7065C16.6768 17.3624 16.1879 17.0881 15.6658 16.8935C14.8311 16.579 13.9833 16.2935 13.163 15.9442C12.4587 15.6457 11.8747 15.1892 11.8037 14.4211H11.8008ZM22.5524 30.1942H7.70971C7.41961 30.1869 7.12933 30.1956 6.84019 30.2203C6.39673 30.2681 6.14168 30.5261 6.12429 30.9826C6.1069 31.4391 6.33732 31.7724 6.79817 31.8738C7.03739 31.9147 7.28037 31.9293 7.52277 31.9173C17.4904 31.9173 27.4589 31.9173 37.4284 31.9173C37.6706 31.9275 37.9132 31.9149 38.153 31.8796C38.6255 31.7883 38.8458 31.4724 38.8313 30.9971C38.8168 30.5217 38.5733 30.2725 38.127 30.2232C37.8379 30.1968 37.5476 30.1871 37.2574 30.1942H22.5524ZM18.7077 39.1372H29.4999C29.8129 39.1372 30.1288 39.1474 30.4404 39.1198C30.9027 39.0793 31.2215 38.83 31.2534 38.3518C31.2853 37.8735 31.0201 37.5185 30.5433 37.3924C30.305 37.3443 30.0614 37.3273 29.8187 37.3417C22.4075 37.3417 14.9958 37.3417 7.58363 37.3417C7.31851 37.333 7.05322 37.3529 6.79237 37.4011C6.33007 37.5054 6.11124 37.8257 6.12139 38.301C6.13153 38.7764 6.41123 39.0068 6.82715 39.0938C7.08934 39.134 7.35488 39.1481 7.61986 39.1358L18.7077 39.1372ZM13.0326 51.8134C11.0559 51.8134 9.07921 51.8134 7.1025 51.8134C6.55905 51.8134 6.14458 52.051 6.13588 52.6554C6.12719 53.2597 6.52716 53.4959 7.05032 53.593C7.19454 53.6106 7.34007 53.6149 7.48508 53.606C11.1738 53.606 14.8615 53.606 18.5483 53.606C18.7646 53.6139 18.9809 53.5929 19.1917 53.5437C19.3841 53.505 19.5556 53.3969 19.6737 53.2401C19.7918 53.0833 19.8482 52.8887 19.8323 52.693C19.8429 52.4849 19.7739 52.2806 19.6393 52.1216C19.5047 51.9625 19.3146 51.8606 19.1077 51.8366C18.8675 51.8051 18.625 51.7949 18.3831 51.8061L13.0326 51.8134ZM12.9486 46.2774H14.5427C16.0151 46.2774 17.4875 46.2774 18.9598 46.2658C19.496 46.2658 19.8482 46.0093 19.8294 45.4311C19.8105 44.8963 19.5192 44.5862 18.9671 44.5616C18.8222 44.5616 18.6773 44.55 18.5323 44.55H7.44885C7.23205 44.5414 7.01494 44.5555 6.80106 44.592C6.61239 44.6311 6.44295 44.734 6.3213 44.8834C6.19965 45.0328 6.13322 45.2196 6.13322 45.4123C6.13322 45.6049 6.19965 45.7917 6.3213 45.9411C6.44295 46.0905 6.61239 46.1934 6.80106 46.2325C7.0401 46.275 7.28311 46.2911 7.52566 46.2803C9.3304 46.2794 11.1375 46.2784 12.9471 46.2774H12.9486Z" fill="#E7D31A"/>
<path d="M44.9757 56.1654C41.1267 56.0915 37.8645 55.0061 34.8009 53.2482C32.4144 51.8727 30.2214 50.186 28.2795 48.2325C27.1796 47.1355 27.1636 46.5891 28.2694 45.5022C31.5301 42.2995 35.2023 39.7359 39.6166 38.3678C44.07 36.9867 48.3842 37.4606 52.5797 39.3823C56.0462 40.9764 59.0127 43.2618 61.7096 45.9312C62.2792 46.4964 62.3053 47.1282 61.6951 47.7804C60.4772 49.0877 59.1434 50.2819 57.7098 51.3483C55.6447 52.8772 53.4376 54.1438 51.0044 55.0162C49.0615 55.6907 47.0305 56.0778 44.9757 56.1654ZM44.7337 41.8082C44.0751 41.8028 43.4219 41.9289 42.8127 42.1792C42.2034 42.4295 41.6502 42.7989 41.1856 43.2658C40.721 43.7327 40.3543 44.2877 40.107 44.8982C39.8598 45.5087 39.7369 46.1624 39.7456 46.821C39.7405 48.1532 40.2641 49.4331 41.2013 50.3798C42.1386 51.3266 43.4131 51.863 44.7453 51.8715C47.4539 51.9004 49.8349 49.5049 49.8175 46.7717C49.8118 46.1114 49.6756 45.4586 49.4166 44.8511C49.1577 44.2436 48.7811 43.6934 48.3085 43.232C47.836 42.7707 47.2769 42.4074 46.6634 42.163C46.0498 41.9186 45.394 41.7981 44.7337 41.8082Z" fill="#E7D31A"/>
<path d="M31.9888 7.21685C31.9888 5.28796 31.9888 3.35763 31.9888 1.42729C31.9888 1.22006 31.8961 0.938915 32.1091 0.825877C32.3584 0.695449 32.4801 0.985289 32.6207 1.12731C35.6157 4.13585 38.6059 7.14825 41.5912 10.1645C42.6434 11.2273 43.694 12.29 44.7432 13.3528C44.8679 13.4788 45.0896 13.6006 44.9577 13.8281C44.8606 13.9948 44.6592 13.9658 44.494 13.9658C40.5328 13.9658 36.5765 13.9658 32.625 13.9658C32.0454 13.9658 31.9801 13.6165 31.9816 13.1542C31.9946 11.1732 31.9888 9.195 31.9888 7.21685Z" fill="#E7D31A"/>
<path d="M41.5547 46.7979C41.5547 44.8937 42.8865 43.5995 44.8212 43.6097C45.239 43.6039 45.6537 43.6817 46.041 43.8385C46.4283 43.9954 46.7803 44.2281 47.0763 44.523C47.3723 44.8179 47.6063 45.1691 47.7645 45.5558C47.9228 45.9425 48.0021 46.3569 47.9978 46.7747C48.0094 48.5703 46.4979 50.0847 44.7299 50.0514C42.9097 50.0253 41.5489 48.6297 41.5547 46.7979Z" fill="#E7D31A"/>
</g>
</g>
<defs>
<clipPath id="clip0_32675_96130">
<rect width="60.8091" height="60.8171" fill="white" transform="translate(0.619141 0.273438)"/>
</clipPath>
<clipPath id="clip1_32675_96130">
<rect width="63.1373" height="60.82" fill="white" transform="translate(-1)"/>
</clipPath>
</defs>
</svg>
