<svg width="62" height="62" viewBox="0 0 62 62" fill="none" xmlns="http://www.w3.org/2000/svg">
<g clip-path="url(#clip0_3290_29220)">
<rect x="8.84457" y="7.87082" width="44.5138" height="50.6742" stroke="#008000" stroke-width="1.68914"/>
<path d="M27.9297 0.269714H35.305C35.305 0.339136 35.3215 0.406943 35.3215 0.476364C35.3215 1.06887 35.3215 1.66299 35.3215 2.25226C35.3195 2.35564 35.3342 2.45889 35.3655 2.56062C35.411 2.69487 35.5363 2.81521 35.719 2.90011C35.9017 2.98501 36.1298 3.02891 36.3626 3.02397C37.4613 3.02397 38.5793 3.02397 39.6862 3.02397H40.0268V7.49924H23.2024V6.81148C23.2024 5.62486 23.2024 4.43823 23.2024 3.25161C23.2024 3.09017 23.2656 3.02881 23.565 3.03204C24.6637 3.04334 25.7377 3.03204 26.8255 3.03204C27.5424 3.03204 27.9242 2.80763 27.9242 2.38626C27.9242 1.75501 27.9242 1.12214 27.9242 0.489278L27.9297 0.269714Z" fill="#008000"/>
<path d="M37.8101 18.6075H28.5703C28.2948 18.6207 28.0188 18.6173 27.7438 18.5971C27.0207 18.5041 26.4855 18.1426 26.5041 17.3574C26.5248 16.6384 27.0331 16.2913 27.719 16.2087C27.8904 16.1983 28.0622 16.1983 28.2335 16.2087H47.2338C47.4735 16.2087 47.7896 16.1322 47.9363 16.252C48.3206 16.5682 48.9178 16.9938 48.8971 17.343C48.8702 17.7727 48.3516 18.2252 47.9508 18.5558C47.7628 18.7108 47.3557 18.6116 47.05 18.6137L37.8101 18.6075Z" fill="black"/>
<path d="M37.6958 23.159C34.547 23.159 31.3982 23.159 28.2494 23.159C27.8836 23.159 27.4353 23.159 27.177 22.9524C26.865 22.7127 26.5324 22.2561 26.5468 21.909C26.5613 21.5619 26.9415 21.1652 27.2597 20.911C27.4663 20.7457 27.8444 20.754 28.146 20.754C34.547 20.7457 40.9479 20.7457 47.3489 20.754H47.5555C48.3819 20.7809 49.0018 21.0867 48.9625 22.0082C48.9274 22.8491 48.3427 23.1631 47.5575 23.1652C45.948 23.1652 44.3385 23.1652 42.731 23.1652L37.6958 23.159Z" fill="black"/>
<path d="M37.6817 39.0498C34.4317 39.0498 31.1816 39.0498 27.9295 39.0498C27.1361 39.0498 26.5328 38.7564 26.5183 37.9258C26.5039 37.0395 27.1154 36.6861 27.9646 36.7275H28.0659C34.5398 36.7275 41.0069 36.7275 47.467 36.7275C48.2935 36.7275 48.8989 36.9547 48.9712 37.868C49.0332 38.6635 48.527 39.0478 47.436 39.0519C44.1853 39.056 40.9339 39.0553 37.6817 39.0498Z" fill="black"/>
<path d="M37.4354 44.552C40.5553 44.552 43.6731 44.552 46.7909 44.552C47.5946 44.552 48.2372 44.7028 48.3095 45.6574C48.3591 46.4611 47.8632 46.8289 46.762 46.8289C40.5243 46.8289 34.2886 46.8289 28.053 46.8289C27.2265 46.8289 26.6067 46.6223 26.5054 45.7235C26.4269 44.9941 27.0509 44.552 28.0819 44.552C31.199 44.5492 34.3168 44.5492 37.4354 44.552Z" fill="black"/>
<path d="M36.1033 51.2775C33.5372 51.2775 30.9717 51.2775 28.4069 51.2775C28.1011 51.2775 27.7085 51.3622 27.5061 51.2114C27.1135 50.9138 26.566 50.4717 26.5701 50.0956C26.5742 49.7196 27.1486 49.3167 27.5453 49.0212C27.723 48.8849 28.0743 48.9737 28.349 48.9737H43.9423C44.2171 48.9737 44.5622 48.889 44.746 49.0233C45.1283 49.296 45.6985 49.7031 45.682 50.0316C45.6613 50.4448 45.1758 50.8828 44.7977 51.1948C44.6055 51.3539 44.2068 51.2754 43.901 51.2754C41.3018 51.2809 38.7025 51.2816 36.1033 51.2775Z" fill="black"/>
<path d="M35.1236 14.0309C32.795 14.0309 30.4644 14.0309 28.1359 14.0309C27.3094 14.0309 26.6028 13.8367 26.5077 12.8718C26.4334 12.1052 27.0801 11.6486 28.171 11.6465C32.8639 11.6465 37.5568 11.6465 42.2498 11.6465C42.9564 11.6465 43.5659 11.7891 43.7705 12.5598C44.0019 13.4379 43.4337 14.0185 42.3241 14.0268C39.9191 14.0433 37.5203 14.0309 35.1236 14.0309Z" fill="black"/>
<path d="M35.236 27.653C37.5976 27.653 39.9592 27.653 42.3208 27.653C43.1349 27.653 43.796 27.8369 43.7857 28.7998C43.7857 29.7254 43.1659 29.9754 42.3394 29.9733C37.5872 29.963 32.8227 29.9733 28.0643 29.9733C27.0561 29.9733 26.43 29.5023 26.5127 28.7708C26.616 27.8762 27.2296 27.6468 28.054 27.6551C30.4425 27.6675 32.8392 27.653 35.236 27.653Z" fill="black"/>
<path d="M32.9641 34.5063C31.2864 34.5063 29.6086 34.4897 27.9289 34.5063C27.1189 34.5063 26.5342 34.1922 26.5218 33.3782C26.5053 32.498 27.1127 32.1757 27.9681 32.1798C31.3938 32.1963 34.8195 32.1963 38.2452 32.1798C39.0448 32.1798 39.6233 32.4649 39.6419 33.31C39.6605 34.2273 39.0448 34.5125 38.208 34.5042C36.4579 34.4939 34.712 34.5063 32.9641 34.5063Z" fill="black"/>
<path d="M31.529 55.6721C30.2997 55.6721 29.0703 55.6721 27.841 55.6721C27.0744 55.6721 26.5393 55.327 26.5186 54.5667C26.498 53.7402 27.0558 53.389 27.8678 53.3931C30.2914 53.3931 32.7171 53.4076 35.1407 53.3931C35.9568 53.3931 36.5271 53.734 36.5167 54.5481C36.5064 55.3621 35.9237 55.6948 35.1138 55.6803C33.9196 55.6555 32.7233 55.6721 31.529 55.6721Z" fill="black"/>
<path d="M18.7905 54.2731C18.652 54.28 18.553 54.2897 18.4519 54.2897H13.0763C12.6213 54.2897 12.6047 54.2897 12.6269 53.8305C12.6546 53.2592 12.6892 52.6857 12.7654 52.1192C12.852 51.471 13.1858 50.935 13.7557 50.6233C14.3548 50.2972 14.9968 50.0478 15.6305 49.7923C15.7295 49.7514 15.8971 49.8151 16.0086 49.8761C16.7863 50.3041 17.553 50.2972 18.3342 49.8761C18.4664 49.8068 18.6749 49.7715 18.8072 49.8241C19.4352 50.0606 20.0491 50.333 20.6459 50.64C20.9229 50.7882 21.1147 51.088 21.3287 51.3623C20.5468 51.3976 19.8945 51.6566 19.3896 52.2231C18.8847 52.7896 18.6977 53.4759 18.7905 54.2731Z" fill="#FFA800"/>
<path d="M19.6766 47.0524C19.6772 47.7308 19.4091 48.3818 18.931 48.863C18.4528 49.3443 17.8036 49.6166 17.1253 49.6204C15.7062 49.6322 14.5476 48.4493 14.5552 46.997C14.5621 45.6189 15.7228 44.4692 17.1114 44.4651C17.4503 44.4647 17.7858 44.5315 18.0987 44.6617C18.4115 44.7919 18.6954 44.9828 18.934 45.2234C19.1726 45.464 19.361 45.7496 19.4885 46.0635C19.616 46.3775 19.6799 46.7136 19.6766 47.0524Z" fill="#FFA800"/>
<path d="M21.224 51.6145C22.4886 51.6193 23.454 52.5972 23.4505 53.8701C23.4501 54.1668 23.3908 54.4605 23.2761 54.7341C23.1613 55.0077 22.9934 55.2558 22.7821 55.4641C22.5708 55.6723 22.3203 55.8366 22.045 55.9473C21.7698 56.058 21.4753 56.1131 21.1786 56.1092C20.8819 56.1053 20.589 56.0425 20.3168 55.9246C20.0445 55.8067 19.7984 55.6359 19.5926 55.4222C19.3868 55.2085 19.2255 54.956 19.118 54.6795C19.0105 54.403 18.9589 54.1078 18.9663 53.8112C18.9753 52.5799 19.9718 51.6103 21.224 51.6145ZM21.2108 55.4408C21.6335 55.4421 22.0396 55.2766 22.3408 54.9801C22.6421 54.6837 22.8141 54.2803 22.8196 53.8576C22.8164 53.4356 22.6489 53.0315 22.3525 52.7311C22.0561 52.4307 21.6542 52.2577 21.2323 52.2489C20.3451 52.2419 19.5951 52.9809 19.6041 53.8535C19.6078 54.2767 19.7788 54.6813 20.0799 54.9787C20.381 55.2761 20.7876 55.4423 21.2108 55.4408Z" fill="#FFA800"/>
<g clip-path="url(#clip1_3290_29220)">
<path d="M20.0295 53.8234C20.2838 53.4716 20.6052 53.2144 21.0412 53.1327C21.389 53.0671 21.7127 53.1448 22.0102 53.3335C22.194 53.4506 22.3472 53.6006 22.4808 53.7717C22.5155 53.8161 22.5319 53.8617 22.4938 53.912C22.2676 54.209 21.9917 54.4405 21.6253 54.541C21.1843 54.6619 20.7857 54.5608 20.4251 54.2901C20.2723 54.1747 20.1388 54.0357 20.0295 53.8784V53.8234ZM21.7975 53.8518C21.7969 53.7133 21.7419 53.5806 21.6442 53.4823C21.5466 53.3841 21.4142 53.3282 21.2757 53.3268C20.9899 53.3259 20.7501 53.563 20.749 53.8477C20.7478 54.1349 20.9829 54.3741 21.2681 54.3755C21.5569 54.3772 21.7971 54.1396 21.7975 53.8518Z" fill="#FFA800"/>
<path d="M21.2712 54.1336C21.2341 54.1333 21.1975 54.1257 21.1634 54.1113C21.1294 54.0969 21.0984 54.0759 21.0725 54.0495C21.0465 54.0231 21.026 53.9918 21.0121 53.9575C20.9982 53.9232 20.9912 53.8865 20.9915 53.8495C20.9918 53.8125 20.9993 53.7758 21.0138 53.7418C21.0282 53.7077 21.0492 53.6767 21.0756 53.6508C21.102 53.6248 21.1332 53.6043 21.1676 53.5904C21.2019 53.5765 21.2386 53.5695 21.2756 53.5698C21.428 53.571 21.5568 53.7018 21.5553 53.8538C21.5535 53.9282 21.5228 53.999 21.4698 54.0512C21.4168 54.1034 21.3456 54.133 21.2712 54.1336Z" fill="#FFA800"/>
</g>
<path d="M18.7905 37.2073C18.652 37.2142 18.553 37.2239 18.4519 37.2239H13.0763C12.6213 37.2239 12.6047 37.2239 12.6269 36.7648C12.6546 36.1934 12.6892 35.62 12.7654 35.0535C12.852 34.4053 13.1858 33.8692 13.7557 33.5576C14.3548 33.2314 14.9968 32.9821 15.6305 32.7265C15.7295 32.6857 15.8971 32.7494 16.0086 32.8103C16.7863 33.2383 17.553 33.2314 18.3342 32.8103C18.4664 32.7411 18.6749 32.7057 18.8072 32.7584C19.4352 32.9949 20.0491 33.2673 20.6459 33.5742C20.9229 33.7224 21.1147 34.0223 21.3287 34.2965C20.5468 34.3318 19.8945 34.5909 19.3896 35.1574C18.8847 35.7239 18.6977 36.4102 18.7905 37.2073Z" fill="#FFA800"/>
<path d="M19.6766 29.9868C19.6772 30.6652 19.4091 31.3162 18.931 31.7974C18.4528 32.2786 17.8036 32.5509 17.1253 32.5548C15.7062 32.5665 14.5476 31.3837 14.5552 29.9314C14.5621 28.5532 15.7228 27.4036 17.1114 27.3994C17.4503 27.3991 17.7858 27.4659 18.0987 27.5961C18.4115 27.7262 18.6954 27.9171 18.934 28.1578C19.1726 28.3984 19.361 28.684 19.4885 28.9979C19.616 29.3119 19.6799 29.648 19.6766 29.9868Z" fill="#FFA800"/>
<path d="M21.224 34.5487C22.4886 34.5536 23.454 35.5315 23.4505 36.8044C23.4501 37.1011 23.3908 37.3947 23.2761 37.6683C23.1613 37.9419 22.9934 38.1901 22.7821 38.3983C22.5708 38.6066 22.3203 38.7708 22.045 38.8816C21.7698 38.9923 21.4753 39.0473 21.1786 39.0434C20.8819 39.0395 20.589 38.9768 20.3168 38.8589C20.0445 38.741 19.7984 38.5702 19.5926 38.3565C19.3868 38.1427 19.2255 37.8903 19.118 37.6137C19.0105 37.3372 18.9589 37.0421 18.9663 36.7455C18.9753 35.5142 19.9718 34.5446 21.224 34.5487ZM21.2108 38.3751C21.6335 38.3764 22.0396 38.2108 22.3408 37.9144C22.6421 37.6179 22.8141 37.2145 22.8196 36.7919C22.8164 36.3699 22.6489 35.9658 22.3525 35.6654C22.0561 35.3649 21.6542 35.1919 21.2323 35.1831C20.3451 35.1762 19.5951 35.9151 19.6041 36.7878C19.6078 37.211 19.7788 37.6155 20.0799 37.913C20.381 38.2104 20.7876 38.3766 21.2108 38.3751Z" fill="#FFA800"/>
<g clip-path="url(#clip2_3290_29220)">
<path d="M20.0295 36.7577C20.2838 36.4058 20.6052 36.1487 21.0412 36.067C21.389 36.0014 21.7127 36.0791 22.0102 36.2678C22.194 36.3848 22.3472 36.5348 22.4808 36.7059C22.5155 36.7503 22.5319 36.796 22.4938 36.8463C22.2676 37.1432 21.9917 37.3747 21.6253 37.4752C21.1843 37.5961 20.7857 37.4951 20.4251 37.2244C20.2723 37.109 20.1388 36.97 20.0295 36.8126V36.7577ZM21.7975 36.7861C21.7969 36.6476 21.7419 36.5148 21.6442 36.4166C21.5466 36.3183 21.4142 36.2625 21.2757 36.261C20.9899 36.2602 20.7501 36.4973 20.749 36.782C20.7478 37.0692 20.9829 37.3083 21.2681 37.3098C21.5569 37.3115 21.7971 37.0739 21.7975 36.7861Z" fill="#FFA800"/>
<path d="M21.2712 37.0678C21.2341 37.0675 21.1975 37.06 21.1634 37.0455C21.1294 37.0311 21.0984 37.0101 21.0725 36.9837C21.0465 36.9573 21.026 36.9261 21.0121 36.8917C20.9982 36.8574 20.9912 36.8207 20.9915 36.7837C20.9918 36.7467 20.9993 36.7101 21.0138 36.676C21.0282 36.6419 21.0492 36.611 21.0756 36.585C21.102 36.559 21.1332 36.5385 21.1676 36.5246C21.2019 36.5107 21.2386 36.5037 21.2756 36.504C21.428 36.5052 21.5568 36.636 21.5553 36.788C21.5535 36.8624 21.5228 36.9332 21.4698 36.9854C21.4168 37.0376 21.3456 37.0672 21.2712 37.0678Z" fill="#FFA800"/>
</g>
<path d="M18.7905 21.4545C18.652 21.4615 18.553 21.4711 18.4519 21.4711H13.0763C12.6213 21.4711 12.6047 21.4711 12.6269 21.012C12.6546 20.4406 12.6892 19.8672 12.7654 19.3007C12.852 18.6525 13.1858 18.1164 13.7557 17.8048C14.3548 17.4786 14.9968 17.2293 15.6305 16.9737C15.7295 16.9329 15.8971 16.9966 16.0086 17.0575C16.7863 17.4855 17.553 17.4786 18.3342 17.0575C18.4664 16.9883 18.6749 16.953 18.8072 17.0056C19.4352 17.2421 20.0491 17.5145 20.6459 17.8214C20.9229 17.9696 21.1147 18.2695 21.3287 18.5437C20.5468 18.5791 19.8945 18.8381 19.3896 19.4046C18.8847 19.9711 18.6977 20.6574 18.7905 21.4545Z" fill="#FFA800"/>
<path d="M19.6766 14.2339C19.6772 14.9123 19.4091 15.5633 18.931 16.0445C18.4528 16.5257 17.8036 16.798 17.1253 16.8019C15.7062 16.8136 14.5476 15.6308 14.5552 14.1785C14.5621 12.8003 15.7228 11.6507 17.1114 11.6465C17.4503 11.6462 17.7858 11.713 18.0987 11.8432C18.4115 11.9733 18.6954 12.1642 18.934 12.4049C19.1726 12.6455 19.361 12.9311 19.4885 13.245C19.616 13.559 19.6799 13.8951 19.6766 14.2339Z" fill="#FFA800"/>
<path d="M21.224 18.7956C22.4886 18.8005 23.454 19.7783 23.4505 21.0512C23.4501 21.3479 23.3908 21.6416 23.2761 21.9152C23.1613 22.1888 22.9934 22.4369 22.7821 22.6452C22.5708 22.8534 22.3203 23.0177 22.045 23.1284C21.7698 23.2392 21.4753 23.2942 21.1786 23.2903C20.8819 23.2864 20.589 23.2237 20.3168 23.1057C20.0445 22.9878 19.7984 22.817 19.5926 22.6033C19.3868 22.3896 19.2255 22.1371 19.118 21.8606C19.0105 21.5841 18.9589 21.289 18.9663 20.9924C18.9753 19.761 19.9718 18.7915 21.224 18.7956ZM21.2108 22.6219C21.6335 22.6232 22.0396 22.4577 22.3408 22.1612C22.6421 21.8648 22.8141 21.4614 22.8196 21.0388C22.8164 20.6168 22.6489 20.2126 22.3525 19.9122C22.0561 19.6118 21.6542 19.4388 21.2323 19.43C20.3451 19.4231 19.5951 20.162 19.6041 21.0346C19.6078 21.4578 19.7788 21.8624 20.0799 22.1598C20.381 22.4573 20.7876 22.6234 21.2108 22.6219Z" fill="#FFA800"/>
<g clip-path="url(#clip3_3290_29220)">
<path d="M20.0295 21.0047C20.2838 20.6529 20.6052 20.3957 21.0412 20.314C21.389 20.2484 21.7127 20.3261 22.0102 20.5149C22.194 20.6319 22.3472 20.7819 22.4808 20.953C22.5155 20.9974 22.5319 21.043 22.4938 21.0933C22.2676 21.3903 21.9917 21.6218 21.6253 21.7223C21.1843 21.8432 20.7857 21.7421 20.4251 21.4714C20.2723 21.356 20.1388 21.217 20.0295 21.0597V21.0047ZM21.7975 21.0331C21.7969 20.8946 21.7419 20.7619 21.6442 20.6636C21.5466 20.5654 21.4142 20.5095 21.2757 20.5081C20.9899 20.5072 20.7501 20.7443 20.749 21.029C20.7478 21.3162 20.9829 21.5554 21.2681 21.5568C21.5569 21.5585 21.7971 21.3209 21.7975 21.0331Z" fill="#FFA800"/>
<path d="M21.2712 21.3149C21.2341 21.3146 21.1975 21.307 21.1634 21.2926C21.1294 21.2781 21.0984 21.2571 21.0725 21.2308C21.0465 21.2044 21.026 21.1731 21.0121 21.1388C20.9982 21.1045 20.9912 21.0678 20.9915 21.0307C20.9918 20.9937 20.9993 20.9571 21.0138 20.923C21.0282 20.8889 21.0492 20.858 21.0756 20.832C21.102 20.8061 21.1332 20.7856 21.1676 20.7717C21.2019 20.7578 21.2386 20.7508 21.2756 20.751C21.428 20.7523 21.5568 20.8831 21.5553 21.0351C21.5535 21.1095 21.5228 21.1802 21.4698 21.2325C21.4168 21.2847 21.3456 21.3142 21.2712 21.3149Z" fill="#FFA800"/>
</g>
</g>
<defs>
<clipPath id="clip0_3290_29220">
<rect width="60.8091" height="60.8091" fill="white" transform="translate(0.516846 0.269714)"/>
</clipPath>
<clipPath id="clip1_3290_29220">
<rect width="2.48619" height="1.48197" fill="white" transform="translate(20.0295 53.11)"/>
</clipPath>
<clipPath id="clip2_3290_29220">
<rect width="2.48619" height="1.48197" fill="white" transform="translate(20.0295 36.0443)"/>
</clipPath>
<clipPath id="clip3_3290_29220">
<rect width="2.48619" height="1.48197" fill="white" transform="translate(20.0295 20.2913)"/>
</clipPath>
</defs>
</svg>
