<svg width="47" height="47" viewBox="0 0 47 47" fill="none" xmlns="http://www.w3.org/2000/svg">
<g clip-path="url(#clip0_39134_315345)">
<g clip-path="url(#clip1_39134_315345)">
<path d="M28.3659 24.9404C27.7976 25.2348 27.2539 25.5746 26.7402 25.9564C26.4896 26.1488 26.2241 26.329 26.0066 26.5545C25.7648 26.8065 25.4952 26.8743 25.1599 26.8736C19.4249 26.8668 13.6899 26.8646 7.95489 26.8668C7.68406 26.8635 7.41346 26.8837 7.14612 26.9271C6.76205 26.9948 6.53175 27.2516 6.50804 27.6444C6.48162 28.0739 6.68619 28.4017 7.04993 28.5169C7.2574 28.5722 7.47219 28.595 7.68665 28.5846C12.9701 28.5846 18.2535 28.5846 23.537 28.5846C23.7097 28.5846 23.9488 28.4952 24.0409 28.6523C24.1256 28.7966 23.9149 28.9409 23.8377 29.0865C23.6426 29.4557 23.4157 29.8093 23.2437 30.1879C23.1285 30.4426 22.9815 30.5314 22.7018 30.5307C19.4843 30.5221 16.267 30.5203 13.05 30.5253C11.3119 30.5253 9.57334 30.5253 7.83432 30.5253C7.60841 30.5253 7.38308 30.548 7.16169 30.593C6.71734 30.6824 6.48433 30.9825 6.50059 31.4363C6.51752 31.8746 6.7546 32.1204 7.20843 32.1943C7.45508 32.2306 7.70426 32.2469 7.95353 32.2431H21.9811C22.4735 32.2431 22.4688 32.2431 22.38 32.7172C22.3035 33.1236 22.2317 33.5382 22.1707 33.9507C22.1463 34.118 22.0678 34.1857 21.9045 34.1837C21.6336 34.1837 21.3626 34.1837 21.0917 34.1837H7.84651C7.64351 34.1765 7.44035 34.1924 7.24095 34.2311C6.72886 34.3497 6.47214 34.6707 6.5121 35.1659C6.54868 35.6109 6.85078 35.8947 7.36626 35.9042C8.43853 35.9238 9.51079 35.9177 10.5831 35.9184C14.2634 35.9184 17.9437 35.9184 21.6241 35.9184C22.1098 35.9184 22.1084 35.9184 22.1863 36.3973C22.254 36.7976 22.3076 37.2007 22.3895 37.5969C22.4403 37.8354 22.3509 37.9085 22.1341 37.9017C22.021 37.8984 21.9086 37.9017 21.7955 37.9017H7.84177C7.59453 37.9017 7.34594 37.8875 7.10209 37.9586C6.72344 38.0697 6.51075 38.3353 6.50736 38.7214C6.50262 39.1623 6.70583 39.4434 7.10276 39.5545C7.34455 39.6112 7.59303 39.634 7.84109 39.6223C12.7289 39.6223 17.617 39.6195 22.5053 39.6141C22.8948 39.6141 23.0933 39.7252 23.2708 40.093C24.3363 42.3066 25.9674 43.994 28.1275 45.1672C28.2338 45.2247 28.3612 45.2539 28.4472 45.3792C28.3314 45.5085 28.1762 45.4611 28.0441 45.4611C21.6769 45.4611 15.3097 45.4611 8.94248 45.4611C7.74694 45.4611 6.54936 45.5126 5.35246 45.4266C3.9537 45.325 3.11715 44.4309 3.09074 43.0125C3.07787 42.2565 3.08735 41.4999 3.08735 40.7433C3.08735 28.2699 3.08735 15.796 3.08735 3.32164C3.08735 2.80752 3.12935 2.30559 3.37388 1.8416C3.80874 1.02944 4.50507 0.631827 5.41342 0.614215C6.3387 0.597281 7.26465 0.610151 8.19061 0.610151H27.5957C27.7312 0.610151 27.8667 0.610151 28.0022 0.610151C28.311 0.610151 28.4567 0.756462 28.4533 1.06669C28.4485 1.52933 28.4533 1.99265 28.4533 2.45529C28.4533 4.12612 28.4533 5.79695 28.4533 7.46778C28.449 7.62599 28.454 7.78431 28.4682 7.94194C28.5359 8.52176 28.817 8.79406 29.3989 8.8049C30.2341 8.8198 31.0693 8.81303 31.9051 8.81235C33.2714 8.81235 34.6369 8.80761 36.0032 8.81235C36.6128 8.81235 36.7639 8.95934 36.7645 9.57506C36.7677 14.2936 36.7677 19.0126 36.7645 23.732C36.7645 24.1628 36.7395 24.1763 36.3188 24.0707C35.4613 23.8593 34.5943 23.7211 33.7089 23.7394C33.4692 23.7442 33.2815 23.6995 33.1284 23.4813C32.934 23.2036 32.6164 23.1874 32.3034 23.188C30.6777 23.1921 29.0521 23.1937 27.4264 23.1928L7.62095 23.188C7.50783 23.188 7.39471 23.188 7.28227 23.1969C7.08307 23.2064 6.89445 23.2893 6.75275 23.4296C6.61105 23.57 6.52629 23.7578 6.51481 23.9569C6.48027 24.431 6.71057 24.7494 7.17186 24.8307C7.35143 24.8545 7.53275 24.8627 7.71375 24.855C14.4187 24.855 21.1246 24.855 27.8315 24.855C27.9778 24.8591 28.1376 24.8212 28.3659 24.9404ZM19.9077 19.535H14.9629C12.4241 19.535 9.88267 19.535 7.34594 19.5438C6.79185 19.5438 6.49923 19.8595 6.50533 20.3851C6.51143 20.8904 6.80472 21.1756 7.34661 21.198C7.49293 21.204 7.63991 21.202 7.78622 21.202H32.0623C32.2093 21.202 32.3562 21.202 32.5026 21.1973C33.037 21.1695 33.3154 20.883 33.3195 20.3634C33.3235 19.8439 33.0485 19.5648 32.5012 19.5418C32.3772 19.5364 32.2533 19.5357 32.1293 19.5357L19.9077 19.535ZM19.9422 15.8827C15.7556 15.8827 11.5691 15.8827 7.38252 15.8827C6.81759 15.8827 6.51413 16.1584 6.50939 16.6467C6.50397 17.1697 6.82775 17.5077 7.36626 17.5388C7.4787 17.5456 7.59182 17.5429 7.70494 17.5429H32.1822C32.3061 17.5429 32.4308 17.547 32.554 17.5361C33.0282 17.4968 33.3215 17.1582 33.3181 16.6711C33.3147 16.1841 33.0472 15.9145 32.5364 15.8867C32.3901 15.8786 32.2431 15.8813 32.0961 15.8813L19.9422 15.8827ZM6.69296 7.72992C6.69296 9.03927 6.68619 10.3493 6.69296 11.6586C6.6977 12.2798 6.9971 12.5724 7.54982 12.5392C8.00569 12.5141 8.29492 12.2175 8.30847 11.7128C8.32608 11.0355 8.31592 10.3581 8.31728 9.68073C8.31728 9.05214 8.43988 8.93563 9.07118 8.93563C9.95176 8.93563 10.8323 8.94037 11.7129 8.93089C11.9072 8.93313 12.0963 8.86803 12.2481 8.74665C12.3998 8.62527 12.5049 8.4551 12.5454 8.26504C12.6273 7.92297 12.439 7.54162 12.1051 7.3567C11.9378 7.2639 11.7569 7.26864 11.5774 7.26729C10.7314 7.2639 9.88402 7.26729 9.03799 7.26187C8.45411 7.26187 8.31457 7.11556 8.31863 6.54251C8.32134 6.15912 8.32134 5.77528 8.31863 5.39099C8.31389 4.80371 8.44124 4.67704 9.03054 4.67772C9.8996 4.67772 10.7693 4.67772 11.6384 4.67298C11.9988 4.67298 12.3083 4.55105 12.477 4.20628C12.7642 3.62239 12.3544 3.02699 11.6431 3.02021C10.3114 3.00734 8.97906 3.01344 7.64669 3.01615C6.92733 3.01615 6.69296 3.24916 6.69025 3.9692C6.68822 5.22435 6.69228 6.47748 6.69296 7.72992ZM22.6916 10.1305C22.6828 9.97335 22.6774 9.81485 22.6638 9.65635C22.6562 9.57779 22.6416 9.50006 22.6205 9.42401C22.2893 8.19798 21.5279 7.3716 20.2849 7.08575C18.998 6.78907 17.8993 7.17787 17.0336 8.18308C16.7922 8.45507 16.6255 8.78511 16.55 9.14087C16.4673 9.54729 16.6536 9.92323 16.9936 10.0756C17.1742 10.1608 17.3795 10.1777 17.5716 10.1233C17.7637 10.0689 17.9297 9.94681 18.0388 9.77963C18.1228 9.66041 18.1858 9.52562 18.263 9.40098C18.4369 9.11333 18.7037 8.89351 19.0192 8.77777C19.3348 8.66202 19.6804 8.65726 19.9991 8.76426C20.6439 8.96747 21.0395 9.54391 21.0036 10.2409C20.9935 10.4441 20.9433 10.6426 20.9271 10.8444C20.8878 11.3288 21.1052 11.6864 21.4798 11.7738C21.954 11.8842 22.3401 11.6729 22.5263 11.194C22.6499 10.8536 22.706 10.4924 22.6916 10.1305ZM24.0965 5.88411C24.0965 5.38489 23.8113 5.06111 23.3629 5.05569C22.8603 5.05027 22.4776 5.4025 22.4776 5.86853C22.4751 5.97824 22.4948 6.08732 22.5356 6.1892C22.5764 6.29107 22.6374 6.38363 22.715 6.46129C22.7925 6.53895 22.885 6.60011 22.9868 6.64108C23.0886 6.68204 23.1976 6.70197 23.3073 6.69965C23.7856 6.69898 24.0951 6.37791 24.0965 5.88411ZM19.0305 5.03469C19.552 5.03469 19.9036 4.71565 19.9009 4.25098C19.8984 4.03454 19.8106 3.82781 19.6567 3.67564C19.5028 3.52347 19.295 3.43813 19.0786 3.43815C18.6044 3.44898 18.221 3.82221 18.2251 4.27198C18.2298 4.73462 18.5448 5.03469 19.0305 5.03469Z" fill="#AF1F1F"/>
<path d="M23.0582 35.7391C22.7798 30.224 26.9131 24.9968 32.7797 24.6466C39.5676 24.2401 43.8743 29.6475 43.9996 35.0197C44.1256 40.4109 39.8751 45.4802 33.7544 45.6008C27.4197 45.7255 23.2417 40.696 23.0582 35.7391ZM33.4767 44.1804C38.2664 44.2759 42.5974 40.1941 42.5886 35.0421C42.5791 30.1373 38.5305 26.1009 33.3765 26.0643C28.5394 26.0291 24.442 30.1285 24.4698 34.9472C24.5003 40.0681 28.4683 44.2583 33.4767 44.1804Z" fill="#AF1F1F"/>
<path d="M32.7249 7.08197C32.038 7.08197 31.3505 7.08604 30.663 7.08197C30.2749 7.08197 30.1211 6.93905 30.1211 6.55363C30.1143 5.1901 30.1177 3.82656 30.1211 2.46303C30.1211 2.31739 30.1157 2.1555 30.2864 2.09048C30.4408 2.03155 30.539 2.14467 30.6352 2.24018C32.1024 3.70464 33.57 5.16977 35.0381 6.63559C35.1228 6.72026 35.2413 6.80493 35.1776 6.95124C35.1139 7.09755 34.9812 7.08197 34.8572 7.08197C34.1455 7.08288 33.4348 7.08288 32.7249 7.08197Z" fill="#AF1F1F"/>
<path d="M33.5562 30.2109C35.2639 30.2685 36.7744 30.8348 38.0702 31.9572C38.8722 32.6515 39.6782 33.3404 40.4809 34.0333C41.2836 34.7262 41.2734 35.5235 40.4809 36.2192C39.5035 37.072 38.5552 37.9586 37.51 38.7322C35.1765 40.4581 31.9102 40.4825 29.5686 38.7715C28.4475 37.9519 27.4396 36.992 26.3938 36.081C26.2574 35.964 26.1479 35.819 26.0729 35.6558C25.9978 35.4925 25.959 35.315 25.959 35.1354C25.959 34.9557 25.9978 34.7782 26.0729 34.615C26.1479 34.4518 26.2574 34.3067 26.3938 34.1898C27.3881 33.3051 28.3893 32.4286 29.4317 31.5989C30.628 30.6485 32.0355 30.2428 33.5562 30.2109ZM30.6178 35.1327C30.6361 36.7807 31.9278 38.0785 33.5305 38.0623C34.3066 38.0516 35.0468 37.733 35.588 37.1766C36.1293 36.6202 36.4274 35.8716 36.4167 35.0954C36.4196 34.711 36.346 34.33 36.2004 33.9743C36.0547 33.6186 35.8398 33.2954 35.5681 33.0234C35.2965 32.7515 34.9735 32.5363 34.618 32.3902C34.2624 32.2442 33.8814 32.1703 33.497 32.1727C33.1127 32.1752 32.7326 32.254 32.379 32.4046C32.0253 32.5552 31.7052 32.7746 31.437 33.05C31.1689 33.3254 30.9581 33.6513 30.817 34.0088C30.6759 34.3664 30.6073 34.7484 30.6151 35.1327H30.6178Z" fill="#AF1F1F"/>
<path d="M33.4868 37.0966C32.3732 37.0899 31.5224 36.2073 31.5353 35.072C31.5468 34.0234 32.468 33.1293 33.5301 33.1368C34.5922 33.1442 35.5053 34.0505 35.5013 35.0971C35.4972 36.2425 34.6295 37.1041 33.4868 37.0966Z" fill="#AF1F1F"/>
</g>
</g>
<defs>
<clipPath id="clip0_39134_315345">
<rect width="46.375" height="46.375" fill="white"/>
</clipPath>
<clipPath id="clip1_39134_315345">
<rect width="40.9135" height="45" fill="white" transform="translate(3.08984 0.605469)"/>
</clipPath>
</defs>
</svg>
