<svg width="61" height="62" viewBox="0 0 61 62" fill="none" xmlns="http://www.w3.org/2000/svg">
<path d="M34.7725 48.9105C34.1095 48.9436 33.6354 48.99 33.1513 48.99H7.41779C5.23962 48.99 5.16005 48.99 5.26614 46.792C5.39876 44.0568 5.56452 41.3117 5.92921 38.5998C6.34362 35.4967 7.94161 32.9306 10.6701 31.4387C13.5379 29.8772 16.6112 28.6837 19.6447 27.4603C20.1188 27.2647 20.9211 27.5697 21.4549 27.8615C25.178 29.9103 28.848 29.8772 32.5877 27.8615C33.221 27.5299 34.2189 27.3609 34.8521 27.6128C37.8586 28.745 40.7975 30.0489 43.6543 31.5183C44.9804 32.2278 45.8988 33.6633 46.9232 34.9762C43.1802 35.1452 40.0572 36.3852 37.6403 39.0971C35.2234 41.809 34.3283 45.0945 34.7725 48.9105Z" fill="#FFA800"/>
<path d="M39.017 14.3449C39.0197 17.5923 37.7363 20.7087 35.4475 23.0124C33.1587 25.3161 30.0507 26.6197 26.8033 26.6381C20.0102 26.6945 14.4637 21.0319 14.5002 14.0797C14.5333 7.4822 20.0898 1.97876 26.737 1.95887C28.3591 1.95704 29.9655 2.27694 31.4631 2.90007C32.9608 3.52319 34.3199 4.43716 35.462 5.58908C36.604 6.741 37.5063 8.10799 38.1165 9.61092C38.7267 11.1139 39.0328 12.7229 39.017 14.3449V14.3449Z" fill="#FFA800"/>
<path d="M46.4289 36.183C52.4827 36.2062 57.1043 40.8874 57.0877 46.981C57.0857 48.4013 56.8018 49.807 56.2525 51.1168C55.7033 52.4266 54.8996 53.6144 53.888 54.6114C52.8764 55.6084 51.677 56.3947 50.3594 56.9248C49.0417 57.4549 47.632 57.7182 46.2118 57.6996C44.7916 57.6809 43.3893 57.3807 42.086 56.8162C40.7827 56.2517 39.6043 55.4341 38.6193 54.411C37.6342 53.3878 36.862 52.1793 36.3473 50.8555C35.8326 49.5318 35.5857 48.119 35.621 46.6992C35.6641 40.8045 40.4348 36.1631 46.4289 36.183ZM46.3659 54.5001C48.3893 54.5064 50.3333 53.7138 51.7754 52.2947C53.2176 50.8755 54.0412 48.9444 54.0674 46.9213C54.0524 44.9011 53.2501 42.9664 51.8312 41.5283C50.4123 40.0902 48.4885 39.262 46.4687 39.2198C42.2218 39.1866 38.6313 42.7241 38.6744 46.9014C38.6919 48.9274 39.5108 50.864 40.9521 52.2879C42.3935 53.7119 44.3399 54.5072 46.3659 54.5001V54.5001Z" fill="#FFA800"/>
<g clip-path="url(#clip0_3289_29164)">
<path d="M40.7092 46.7588C41.9264 45.0745 43.465 43.8435 45.5522 43.4523C47.2174 43.1382 48.7667 43.5103 50.1911 44.4138C51.0707 44.974 51.8042 45.6921 52.4436 46.5111C52.6099 46.7237 52.6886 46.9421 52.5058 47.1829C51.4231 48.6046 50.1023 49.7128 48.3484 50.1938C46.2373 50.7726 44.3292 50.289 42.6029 48.9932C41.8713 48.4405 41.2321 47.7751 40.7092 47.0219V46.7588ZM49.1728 46.8948C49.17 46.2317 48.9064 45.5964 48.439 45.126C47.9715 44.6557 47.3378 44.3882 46.6747 44.3814C45.3067 44.3771 44.1586 45.5124 44.1533 46.8752C44.1475 48.2501 45.2732 49.395 46.6386 49.4019C48.021 49.4099 49.1706 48.2725 49.1728 46.8948V46.8948Z" fill="#FFA800"/>
<path d="M46.6515 48.2405C46.4745 48.2391 46.2994 48.2029 46.1363 48.1338C45.9733 48.0648 45.8254 47.9643 45.7012 47.8381C45.577 47.7119 45.4788 47.5624 45.4123 47.3983C45.3459 47.2342 45.3124 47.0586 45.3138 46.8815C45.3152 46.7044 45.3514 46.5293 45.4205 46.3663C45.4895 46.2032 45.59 46.0554 45.7162 45.9311C45.8424 45.8069 45.9918 45.7088 46.156 45.6423C46.3201 45.5758 46.4957 45.5423 46.6728 45.5437C47.4015 45.5496 48.0175 46.1751 48.0106 46.9022C48.0019 47.258 47.8553 47.5965 47.6017 47.8462C47.3481 48.0959 47.0074 48.2373 46.6515 48.2405V48.2405Z" fill="#FFA800"/>
</g>
<defs>
<clipPath id="clip0_3289_29164">
<rect width="11.9018" height="7.09439" fill="white" transform="translate(40.7092 43.3428)"/>
</clipPath>
</defs>
</svg>
