<svg width="61" height="62" viewBox="0 0 61 62" fill="none" xmlns="http://www.w3.org/2000/svg">
<g clip-path="url(#clip0_7221_42043)">
<g clip-path="url(#clip1_7221_42043)">
<path d="M54.3633 30.7567C54.3633 38.395 54.3908 46.0279 54.3633 53.6662C54.3633 58.5735 52.1048 60.7825 47.1371 60.81C36.1174 60.832 25.0958 60.832 14.0725 60.81C9.29162 60.81 7.03309 58.5515 7.0276 53.7871C6.99829 38.4299 6.99829 23.0689 7.0276 7.70429C7.0276 2.85202 9.17073 0.906721 14.0285 0.659437C21.3866 0.285763 28.7392 -0.0659366 36.1082 0.0439676C40.3835 0.104415 44.6038 0.802312 48.8901 0.813302C52.4125 0.813302 54.3359 3.36858 54.3853 7.33062C54.3963 15.1228 54.3633 22.9425 54.3633 30.7567ZM51.4014 30.4984C51.4014 22.948 51.4014 15.3994 51.4014 7.85267C51.4014 6.95695 50.9618 4.81931 49.0605 4.00602C46.7195 3.01688 42.752 3.59388 41.8617 5.41279C41.5075 6.21173 40.9204 6.88516 40.1772 7.34499C39.4341 7.80483 38.5694 8.02964 37.6964 7.99005C33.0474 7.99005 28.3985 7.99005 23.7495 7.99005C22.88 8.01609 22.0209 7.79501 21.2719 7.35244C20.5229 6.90987 19.9149 6.26398 19.5182 5.48972C18.4192 3.63784 15.6716 3.02237 12.5613 3.84116C10.3027 4.42365 9.96204 6.09969 9.96204 8.05049C9.96204 23.144 9.96204 38.2375 9.96204 53.331C9.96204 56.6996 10.7918 57.4964 14.2208 57.5019C25.1563 57.5349 36.0918 57.5349 47.0272 57.5019C50.5991 57.5019 51.363 56.7161 51.3739 53.1387C51.4289 45.5938 51.4069 38.0434 51.4014 30.4984ZM30.69 3.02238C28.5963 3.02238 26.5026 3.02238 24.4089 3.02238C23.7056 3.02238 22.7934 3.02237 22.8263 4.05547C22.8263 4.89074 23.6341 4.95119 24.2661 4.95669C28.545 4.97867 32.8221 4.97867 37.0974 4.95669C37.7293 4.95669 38.5152 4.89075 38.5481 4.06097C38.5866 3.01139 37.6744 3.03886 36.971 3.02238C34.8773 3.02238 32.7836 3.04436 30.69 3.04436V3.02238Z" fill="#BF7E00"/>
<path d="M30.5031 42.1922C26.1399 42.1922 21.7712 42.2252 17.408 42.1922C16.1661 42.1922 14.5615 42.2527 14.5945 40.4283C14.622 38.6973 16.1936 38.9775 17.3036 38.9721C26.0337 38.9427 34.7656 38.9427 43.4993 38.9721C44.6973 38.9721 46.4282 38.6753 46.4337 40.5162C46.4337 42.5275 44.6093 42.1648 43.3289 42.1922C39.0537 42.2527 34.7784 42.1922 30.5031 42.1922Z" fill="#BF7E00"/>
<path d="M30.415 46.1488C25.9639 46.1488 21.5073 46.1488 17.0562 46.1488C15.9956 46.1488 14.6273 46.2642 14.5833 44.7145C14.5394 43.1649 15.8802 43.2088 16.9682 43.2033C25.9657 43.2033 34.9614 43.2033 43.9552 43.2033C45.0103 43.2033 46.4281 43.0165 46.4281 44.5936C46.4281 46.2861 44.9224 46.1378 43.7739 46.1433C39.3228 46.1652 34.8661 46.1488 30.415 46.1488Z" fill="#BF7E00"/>
<path d="M23.0901 37.8455C20.892 37.8455 18.6939 37.873 16.5288 37.8455C15.5836 37.8455 14.6165 37.6367 14.545 36.4388C14.4626 35.1419 15.3638 34.6638 16.4793 34.6583C20.8462 34.6253 25.2186 34.6253 29.5964 34.6583C30.5801 34.6583 31.4208 35.032 31.4428 36.2244C31.4648 37.4169 30.646 37.8016 29.6514 37.8235C27.4533 37.8675 25.2552 37.8235 23.0901 37.8235V37.8455Z" fill="#BF7E00"/>
<path d="M39.3668 53.1112C37.5479 53.1112 35.729 53.1497 33.9101 53.1112C32.855 53.0838 31.8329 52.8035 31.8879 51.4627C31.9318 50.2977 32.844 49.9735 33.8057 49.968C37.3556 49.9277 40.9037 49.9277 44.4499 49.968C45.505 49.968 46.5381 50.3032 46.4776 51.644C46.4172 52.9848 45.3017 53.1222 44.2796 53.1497C42.631 53.1992 40.9824 53.1497 39.3668 53.1497V53.1112Z" fill="#BF7E00"/>
<path d="M42.9441 33.1306C42.1968 32.68 41.4384 32.2459 40.7076 31.7733C38.8758 30.5937 37.0679 29.4012 35.2838 28.1959C34.9596 27.9816 34.7892 27.9377 34.487 28.2784C33.2642 29.6452 31.7134 30.6781 29.9808 31.2797C28.2483 31.8812 26.391 32.0315 24.5843 31.7165C22.7776 31.4014 21.0808 30.6314 19.6541 29.4789C18.2274 28.3265 17.1177 26.8297 16.4297 25.1296C15.8876 23.7816 15.6236 22.338 15.6537 20.8853C15.6838 19.4327 16.0073 18.0012 16.6048 16.6769C17.2023 15.3525 18.0614 14.1626 19.1306 13.1788C20.1997 12.195 21.4568 11.4375 22.8261 10.952C25.4278 10.0075 28.294 10.1058 30.8248 11.2263C33.3557 12.3468 35.3551 14.4027 36.4048 16.9637C36.9949 18.3421 37.2844 19.8304 37.2541 21.3294C37.2238 22.8284 36.8743 24.3038 36.229 25.6571L35.9872 26.2067C36.5971 26.5694 37.2126 26.9156 37.8006 27.3057C39.5517 28.4487 41.2974 29.5972 43.0375 30.7512C43.3782 30.982 43.6915 31.2568 44.0157 31.515C44.1091 31.9547 43.1969 33.0812 42.9441 33.1306ZM18.0178 22.7996C18.4617 25.0399 19.7745 27.0132 21.6693 28.288C23.5641 29.5629 25.8867 30.0356 28.129 29.6027C30.3772 29.1447 32.3541 27.8188 33.6308 25.9125C34.9075 24.0061 35.381 21.6733 34.9486 19.4201C34.4975 17.1816 33.178 15.2131 31.2789 13.9453C29.3798 12.6775 27.0557 12.2137 24.8154 12.6555C23.6985 12.8662 22.6346 13.2972 21.686 13.9234C20.7374 14.5496 19.923 15.3584 19.2902 16.3027C18.6575 17.2469 18.2191 18.3077 18.0006 19.4232C17.7822 20.5387 17.788 21.6865 18.0178 22.7996Z" fill="#BF7E00"/>
<path d="M24.2824 21.1675V16.0845V16.057H24.2055C24.1257 16.0412 24.0522 16.0027 23.9937 15.9462C23.9352 15.8897 23.8943 15.8175 23.8757 15.7383C23.8646 15.683 23.8647 15.6261 23.8758 15.5708C23.887 15.5156 23.9091 15.4631 23.9409 15.4166C23.9726 15.37 24.0133 15.3302 24.0607 15.2996C24.108 15.2689 24.161 15.2481 24.2165 15.2382H24.3483H27.8213C27.9323 15.2354 28.0403 15.2746 28.1235 15.3481C28.1822 15.4216 28.215 15.5124 28.217 15.6064C28.2243 15.6677 28.2183 15.73 28.1993 15.7888C28.1803 15.8476 28.1489 15.9016 28.1071 15.9471C28.0479 16.0129 27.9687 16.0574 27.8818 16.0735H27.7773C27.7773 16.0735 27.7444 16.0735 27.7389 16.1119V26.1517C27.736 26.3027 27.7119 26.4525 27.6674 26.5968C27.6207 26.7461 27.5542 26.8884 27.4696 27.0199C27.3613 27.1813 27.2277 27.3241 27.074 27.4431C26.8747 27.5986 26.6441 27.7092 26.398 27.7673C26.2952 27.7909 26.1903 27.8038 26.0848 27.8058H25.9255C25.5347 27.7866 25.1615 27.6377 24.8649 27.3826C24.6758 27.218 24.5256 27.0134 24.4253 26.7836C24.3476 26.6093 24.2976 26.4239 24.2769 26.2341C24.2742 26.2067 24.2742 26.1791 24.2769 26.1517V21.1566L24.2824 21.1675ZM27.2883 21.1071V15.8757H24.8099C24.8099 15.8757 24.8099 15.8757 24.8099 15.9086C24.8072 15.9305 24.8072 15.9527 24.8099 15.9746V16.6285C24.8099 16.8593 24.8099 17.0956 24.8099 17.3264C24.8099 17.5572 24.8099 17.7935 24.8099 18.0243C24.8099 18.1397 24.8099 18.2551 24.8099 18.3705V19.3431C24.8099 19.6124 24.8099 19.8927 24.8099 20.1619C24.8099 20.4312 24.8099 20.684 24.8099 20.9422C24.8099 21.2005 24.8099 21.5742 24.8099 21.8874V21.9149C24.8071 21.9551 24.8071 21.9955 24.8099 22.0358C24.8099 22.1402 24.8099 22.2501 24.8099 22.3545C24.8099 22.4589 24.8099 22.5413 24.8099 22.6293C24.8099 22.8491 24.8099 23.0689 24.8099 23.2887V25.4868C24.8017 25.613 24.8017 25.7397 24.8099 25.8659C24.8126 25.8805 24.8126 25.8954 24.8099 25.9099C24.8073 25.952 24.8073 25.9942 24.8099 26.0363C24.8099 26.1462 24.8099 26.2506 24.8099 26.3605C24.802 26.3893 24.802 26.4197 24.8099 26.4484C24.9044 26.622 25.0207 26.7826 25.1561 26.9265C25.2851 27.0642 25.4378 27.1778 25.6067 27.2617C25.7421 27.331 25.8894 27.3739 26.0409 27.3881C26.1806 27.4039 26.322 27.3946 26.4585 27.3606C26.7138 27.2945 26.9328 27.1307 27.0685 26.9045C27.151 26.7648 27.2104 26.6126 27.2443 26.4539C27.238 26.4343 27.238 26.4131 27.2443 26.3935C27.2552 26.3633 27.2552 26.3303 27.2443 26.3001V21.1016L27.2883 21.1071Z" fill="#BF7E00"/>
<path d="M27.1179 21.4368C27.1179 21.4808 27.1179 21.5357 27.1179 21.5907C27.1152 21.6163 27.1152 21.642 27.1179 21.6676C27.1234 21.7059 27.1234 21.7447 27.1179 21.783C27.1179 21.838 27.1179 21.8984 27.1179 21.9534C27.1179 22.349 27.1179 22.7447 27.1179 23.1348V23.3821C27.1179 23.4481 27.1179 23.514 27.1179 23.5799C27.1179 23.6459 27.1179 23.8547 27.1179 23.9976C27.1179 24.1405 27.1179 24.2778 27.1179 24.4207V24.8328C27.1179 25.0087 27.1179 25.1845 27.1179 25.3824C27.1179 25.5802 27.1179 25.866 27.1179 26.1077V26.2506C27.1288 26.3235 27.1288 26.3976 27.1179 26.4704C27.0825 26.6374 27.005 26.7925 26.8926 26.921C26.7983 27.0295 26.677 27.111 26.541 27.1573C26.3866 27.206 26.2243 27.2246 26.0629 27.2123C25.9074 27.1947 25.7576 27.1441 25.6233 27.0639C25.47 26.9638 25.3376 26.835 25.2331 26.6847C25.1515 26.5682 25.0833 26.4429 25.0298 26.3111C25.0074 26.2494 24.9962 26.1843 24.9968 26.1187C24.9968 26.0528 24.9968 25.9869 24.9968 25.9209C25.005 25.8368 25.005 25.7522 24.9968 25.6681C24.9913 25.595 24.9913 25.5215 24.9968 25.4483C25.0078 25.3552 25.0078 25.2612 24.9968 25.1681C24.9913 25.0967 24.9913 25.0251 24.9968 24.9537C25.005 24.8568 25.005 24.7594 24.9968 24.6625C24.9913 24.5893 24.9913 24.5159 24.9968 24.4427C25.0078 24.3441 25.0078 24.2446 24.9968 24.1459C24.9913 24.0783 24.9913 24.0103 24.9968 23.9426C25.0078 23.844 25.0078 23.7445 24.9968 23.6459C24.9913 23.5764 24.9913 23.5066 24.9968 23.4371C25.0078 23.3513 25.0078 23.2645 24.9968 23.1788C24.9913 23.1093 24.9913 23.0395 24.9968 22.97C25.0023 22.8693 25.0023 22.7684 24.9968 22.6677C24.9913 22.6001 24.9913 22.5321 24.9968 22.4644C25.0078 22.364 25.0078 22.2626 24.9968 22.1622C24.9913 22.0908 24.9913 22.0192 24.9968 21.9479C25.0051 21.8528 25.0051 21.7572 24.9968 21.6621V21.4973C24.9968 21.4423 24.9968 21.3819 24.9968 21.3269L25.0957 21.3929C25.2107 21.4702 25.3474 21.5088 25.4859 21.5028C25.5368 21.5112 25.5888 21.5112 25.6397 21.5028C25.7285 21.4775 25.8135 21.4406 25.8925 21.3929C25.9715 21.3402 26.0588 21.3012 26.1508 21.2775C26.2858 21.2386 26.4304 21.2503 26.5574 21.3104C26.6177 21.3354 26.672 21.3728 26.7168 21.4203C26.7285 21.4297 26.743 21.4348 26.758 21.4348C26.773 21.4348 26.7875 21.4297 26.7992 21.4203L27.063 21.2994C27.1234 21.272 27.1344 21.2994 27.1399 21.3434L27.1179 21.4368Z" fill="#BF7E00"/>
<path d="M26.2113 20.8708C26.1523 20.8761 26.0929 20.8668 26.0383 20.8438C25.9837 20.8208 25.9355 20.7848 25.8981 20.7389C25.8664 20.7036 25.8439 20.6612 25.8324 20.6152C25.8209 20.5692 25.8208 20.5212 25.8321 20.4752C25.8428 20.4283 25.8636 20.3844 25.893 20.3464C25.9224 20.3084 25.9598 20.2774 26.0025 20.2553C26.0922 20.209 26.1959 20.1973 26.2937 20.2224C26.3738 20.2436 26.445 20.2898 26.497 20.3543C26.5446 20.4092 26.5708 20.4794 26.5708 20.5521C26.5708 20.6247 26.5446 20.695 26.497 20.7499C26.4613 20.7899 26.4172 20.8216 26.3677 20.8425C26.3183 20.8634 26.2649 20.873 26.2113 20.8708Z" fill="#BF7E00"/>
<path d="M25.508 19.8212C25.4656 19.8244 25.4232 19.8158 25.3854 19.7964C25.3475 19.7771 25.3158 19.7476 25.2937 19.7113C25.2627 19.667 25.2461 19.6143 25.2461 19.5602C25.2461 19.5061 25.2627 19.4534 25.2937 19.4091C25.315 19.3726 25.3455 19.3423 25.3821 19.3213C25.4187 19.3003 25.4602 19.2892 25.5025 19.2892C25.5447 19.2892 25.5862 19.3003 25.6229 19.3213C25.6595 19.3423 25.69 19.3726 25.7113 19.4091C25.7308 19.4402 25.7437 19.4749 25.7493 19.5112C25.7548 19.5475 25.7529 19.5845 25.7437 19.62C25.7344 19.6555 25.718 19.6888 25.6954 19.7177C25.6728 19.7466 25.6446 19.7706 25.6124 19.7883C25.582 19.8101 25.5454 19.8216 25.508 19.8212Z" fill="#BF7E00"/>
<path d="M26.1618 18.7552C26.2024 18.7523 26.2431 18.7593 26.2804 18.7756C26.3177 18.7919 26.3505 18.8169 26.3761 18.8486C26.3961 18.8808 26.4066 18.9179 26.4066 18.9557C26.4066 18.9936 26.3961 19.0307 26.3761 19.0629C26.363 19.0922 26.3441 19.1185 26.3204 19.1402C26.2968 19.162 26.269 19.1787 26.2387 19.1893C26.1999 19.2071 26.1578 19.2163 26.1151 19.2163C26.0724 19.2163 26.0302 19.2071 25.9914 19.1893C25.9677 19.1777 25.947 19.1608 25.931 19.1398C25.9073 19.1168 25.8893 19.0884 25.8787 19.0571C25.8681 19.0257 25.8651 18.9923 25.8699 18.9596C25.8747 18.9268 25.8873 18.8957 25.9065 18.8688C25.9257 18.8418 25.9511 18.8198 25.9805 18.8046C26.0338 18.7685 26.0975 18.7512 26.1618 18.7552Z" fill="#BF7E00"/>
<path d="M25.6563 18.1232C25.61 18.1254 25.5642 18.1139 25.5244 18.0902C25.4963 18.078 25.4731 18.0567 25.4585 18.0298C25.4486 18.0041 25.447 17.9761 25.4539 17.9495C25.4608 17.9229 25.4759 17.8991 25.4969 17.8814C25.5397 17.8493 25.5918 17.832 25.6453 17.832C25.6988 17.832 25.7509 17.8493 25.7937 17.8814C25.8073 17.8917 25.8184 17.9049 25.826 17.9202C25.8337 17.9355 25.8376 17.9523 25.8376 17.9694C25.8376 17.9864 25.8337 18.0032 25.826 18.0185C25.8184 18.0338 25.8073 18.047 25.7937 18.0573C25.7578 18.0958 25.7088 18.1193 25.6563 18.1232Z" fill="#BF7E00"/>
</g>
</g>
<defs>
<clipPath id="clip0_7221_42043">
<rect width="60.8091" height="60.8091" fill="white" transform="translate(0.0263672 0.269714)"/>
</clipPath>
<clipPath id="clip1_7221_42043">
<rect width="47.3742" height="60.81" fill="white" transform="translate(7)"/>
</clipPath>
</defs>
</svg>
