<svg width="62" height="62" viewBox="0 0 62 62" fill="none" xmlns="http://www.w3.org/2000/svg">
<path d="M35.4239 48.9105C34.7608 48.9436 34.2867 48.99 33.8027 48.99H8.06916C5.89099 48.99 5.81142 48.99 5.91751 46.792C6.05012 44.0568 6.21589 41.3117 6.58057 38.5998C6.99499 35.4967 8.59298 32.9306 11.3215 31.4387C14.1892 29.8772 17.2626 28.6837 20.2961 27.4603C20.7702 27.2647 21.5725 27.5697 22.1062 27.8615C25.8293 29.9103 29.4994 29.8772 33.2391 27.8615C33.8723 27.5299 34.8702 27.3609 35.5035 27.6128C38.5099 28.745 41.4488 30.0489 44.3057 31.5183C45.6318 32.2278 46.5501 33.6633 47.5746 34.9762C43.8316 35.1452 40.7085 36.3852 38.2917 39.0971C35.8748 41.809 34.9796 45.0945 35.4239 48.9105Z" fill="#FFA800"/>
<path d="M39.6684 14.3449C39.6711 17.5923 38.3876 20.7087 36.0988 23.0124C33.81 25.3161 30.7021 26.6197 27.4547 26.6381C20.6616 26.6945 15.1151 21.0319 15.1515 14.0797C15.1847 7.4822 20.7412 1.97876 27.3884 1.95887C29.0105 1.95704 30.6169 2.27694 32.1145 2.90007C33.6121 3.52319 34.9713 4.43716 36.1133 5.58908C37.2554 6.741 38.1576 8.10799 38.7679 9.61092C39.3781 11.1139 39.6842 12.7229 39.6684 14.3449Z" fill="#FFA800"/>
<path d="M47.0803 36.183C53.1341 36.2062 57.7556 40.8874 57.7391 46.981C57.737 48.4013 57.4532 49.807 56.9039 51.1168C56.3547 52.4266 55.551 53.6144 54.5394 54.6114C53.5278 55.6084 52.3284 56.3947 51.0107 56.9248C49.6931 57.4549 48.2833 57.7182 46.8632 57.6996C45.443 57.681 44.0406 57.3807 42.7373 56.8162C41.434 56.2517 40.2557 55.4341 39.2706 54.411C38.2856 53.3878 37.5133 52.1793 36.9987 50.8555C36.484 49.5318 36.2371 48.119 36.2723 46.6992C36.3154 40.8045 41.0862 36.1631 47.0803 36.183ZM47.0173 54.5001C49.0406 54.5064 50.9846 53.7138 52.4268 52.2947C53.8689 50.8755 54.6926 48.9444 54.7188 46.9213C54.7037 44.9011 53.9015 42.9664 52.4826 41.5283C51.0637 40.0902 49.1399 39.262 47.1201 39.2198C42.8732 39.1866 39.2827 42.7241 39.3258 46.9014C39.3433 48.9274 40.1622 50.864 41.6035 52.2879C43.0448 53.7119 44.9913 54.5072 47.0173 54.5001Z" fill="#FFA800"/>
<g clip-path="url(#clip0_3289_29164)">
<path d="M41.3606 46.7588C42.5777 45.0745 44.1164 43.8435 46.2036 43.4523C47.8688 43.1382 49.4181 43.5103 50.8425 44.4138C51.7221 44.974 52.4555 45.6921 53.0949 46.5111C53.2613 46.7237 53.34 46.9421 53.1571 47.1829C52.0745 48.6046 50.7537 49.7128 48.9998 50.1938C46.8887 50.7726 44.9806 50.289 43.2543 48.9932C42.5227 48.4405 41.8835 47.7751 41.3606 47.0219V46.7588ZM49.8241 46.8948C49.8214 46.2317 49.5578 45.5964 49.0903 45.126C48.6229 44.6557 47.9892 44.3882 47.3261 44.3814C45.958 44.3771 44.81 45.5124 44.8047 46.8752C44.7988 48.2501 45.9245 49.395 47.29 49.4019C48.6724 49.4099 49.822 48.2725 49.8241 46.8948Z" fill="#FFA800"/>
<path d="M47.3029 48.2405C47.1258 48.2391 46.9508 48.2029 46.7877 48.1338C46.6246 48.0648 46.4768 47.9643 46.3526 47.8381C46.2283 47.7119 46.1302 47.5624 46.0637 47.3983C45.9972 47.2342 45.9637 47.0586 45.9651 46.8815C45.9665 46.7044 46.0028 46.5293 46.0718 46.3663C46.1409 46.2032 46.2414 46.0554 46.3676 45.9311C46.4938 45.8069 46.6432 45.7088 46.8073 45.6423C46.9715 45.5758 47.1471 45.5423 47.3242 45.5437C48.0528 45.5496 48.6688 46.1751 48.6619 46.9022C48.6533 47.258 48.5067 47.5965 48.2531 47.8462C47.9995 48.0959 47.6588 48.2373 47.3029 48.2405Z" fill="#FFA800"/>
</g>
<defs>
<clipPath id="clip0_3289_29164">
<rect width="11.9018" height="7.09439" fill="white" transform="translate(41.3606 43.3428)"/>
</clipPath>
</defs>
</svg>
