<svg width="62" height="62" viewBox="0 0 62 62" fill="none" xmlns="http://www.w3.org/2000/svg">
<g clip-path="url(#clip0_12609_1027)">
<path d="M46.7348 3.46227C45.7832 6.06623 44.8257 8.67019 43.8828 11.28C43.7747 11.5719 43.6638 11.6332 43.3631 11.5194C41.9707 10.9881 40.5665 10.4772 39.1623 9.97509C38.9084 9.88459 38.8529 9.7795 38.9492 9.51968C39.8678 7.03444 40.7825 4.54822 41.6933 2.06103C41.8297 1.6596 42.0481 1.29089 42.3345 0.978314C42.621 0.665736 42.9693 0.416108 43.3573 0.245269C44.598 -0.312306 45.7394 0.0934684 46.3612 1.30495C46.5247 1.65438 46.65 2.02043 46.7348 2.39675V3.46227Z" fill="#E3CC20"/>
<path d="M34.2491 30.7279C34.1632 30.7307 34.0776 30.716 33.9976 30.6847C33.9176 30.6533 33.8448 30.6061 33.7836 30.5457C33.7224 30.4854 33.6742 30.4132 33.6418 30.3336C33.6094 30.254 33.5935 30.1687 33.5952 30.0827C33.594 30.0407 33.602 29.9988 33.6185 29.9601C34.0506 29.2303 33.7353 28.5005 33.6448 27.762C33.5572 26.942 33.5572 26.1151 33.6448 25.2952C33.6915 24.7668 33.7674 24.2414 33.8404 23.7159C33.9893 22.6475 34.4476 21.6724 34.8096 20.6828C35.8488 17.8181 36.8958 14.9572 37.9507 12.1002C38.1025 11.6857 38.1054 11.6916 38.5345 11.8463L42.5922 13.3351C43.0214 13.4927 43.0214 13.4927 42.8637 13.9189C41.588 17.3957 40.3269 20.8784 39.0249 24.3435C38.5112 25.7156 37.6412 26.8862 36.71 28.0072C36.2993 28.5358 35.7982 28.9875 35.2299 29.3413C35.1474 29.4054 35.0896 29.4962 35.0665 29.5982C34.973 29.8434 34.8884 30.0886 34.7891 30.3309C34.7467 30.4419 34.6733 30.5384 34.5775 30.6088C34.4817 30.6792 34.3677 30.7206 34.2491 30.7279Z" fill="#E3CC20"/>
<path d="M41.0572 1.97917C41.0597 2.18043 41.0178 2.37975 40.9346 2.56302C39.9888 5.11443 39.042 7.66585 38.0942 10.2173C38.0219 10.4241 37.9361 10.626 37.8373 10.8215C37.6957 11.0801 37.4641 11.2777 37.1864 11.3767C36.9087 11.4758 36.6043 11.4693 36.331 11.3587C36.0542 11.2532 35.8278 11.0464 35.6977 10.7803C35.5676 10.5142 35.5436 10.2086 35.6304 9.92534C36.004 8.83062 36.4156 7.74759 36.8156 6.66163C37.4403 4.97042 38.0679 3.27921 38.6985 1.58799C38.7628 1.38207 38.8809 1.19701 39.0405 1.05185C39.2001 0.906686 39.3955 0.806662 39.6066 0.762067C39.8177 0.717471 40.0368 0.729915 40.2415 0.798116C40.4462 0.866317 40.629 0.987814 40.7711 1.15011C40.8718 1.26216 40.949 1.39326 40.9982 1.53567C41.0473 1.67807 41.0674 1.82887 41.0572 1.97917Z" fill="#E3CC20"/>
<path d="M25.8916 31.171C26.3324 30.6426 26.7382 30.1931 27.3512 30.0033C28.0577 29.799 28.732 29.8223 29.3042 30.3566C29.3555 30.4145 29.4241 30.4543 29.4999 30.4701C29.5756 30.4859 29.6544 30.4768 29.7246 30.4441C30.5227 30.1425 31.4058 30.1561 32.1943 30.4821C32.5738 30.6251 32.9533 30.774 33.3269 30.9258C33.6282 31.0495 33.8706 31.2841 34.0042 31.5811C34.1378 31.8782 34.1524 32.2151 34.045 32.5226C33.9305 32.8332 33.7019 33.0885 33.4058 33.2365C33.1097 33.3846 32.7684 33.4143 32.4511 33.3196C32.1703 33.2476 31.8967 33.1498 31.6338 33.0277C31.3998 32.9148 31.144 32.8545 30.8843 32.851C30.6246 32.8475 30.3673 32.9008 30.1304 33.0072C29.8019 33.1484 29.4438 33.2069 29.0875 33.1773C28.7312 33.1478 28.3876 33.0313 28.0869 32.8379C27.9322 32.7328 27.865 32.8379 27.795 32.9284C27.4797 33.3834 27.0577 33.7543 26.566 34.0085C25.5705 34.461 24.2539 33.9326 23.7518 32.8846C23.528 32.4167 23.3802 31.9161 23.3139 31.4016C23.1769 31.4985 23.0648 31.6266 22.987 31.7753C22.5255 32.4552 22.0038 33.0923 21.4281 33.6787C20.2604 34.7617 18.614 35.0624 17.3091 34.3822C16.4619 33.8992 15.7872 33.1632 15.3794 32.2774C14.6643 30.8085 14.2024 29.2294 14.0132 27.6066C13.7008 25.845 13.6164 24.0505 13.7622 22.2673C13.9133 20.7243 14.5143 19.2595 15.4904 18.0549C16.1095 17.2421 17.021 16.7024 18.0314 16.5504C19.0418 16.3983 20.0717 16.6458 20.9026 17.2404C22.0277 18.0238 22.9324 19.0834 23.53 20.3173C23.6164 20.4618 23.6735 20.622 23.6981 20.7886C23.7227 20.9552 23.7142 21.125 23.6731 21.2883C23.632 21.4516 23.5592 21.6053 23.4587 21.7404C23.3583 21.8756 23.2322 21.9897 23.0877 22.0761C22.9432 22.1626 22.783 22.2197 22.6164 22.2443C22.4498 22.2688 22.28 22.2603 22.1167 22.2193C21.9534 22.1782 21.7997 22.1054 21.6645 22.0049C21.5294 21.9045 21.4153 21.7784 21.3289 21.6339C21.0078 20.9934 20.5947 20.4033 20.1028 19.8823C19.8894 19.6685 19.6501 19.4821 19.3905 19.3277C19.1004 19.125 18.7422 19.0444 18.3932 19.1034C18.0443 19.1624 17.7325 19.3562 17.5251 19.643C16.8554 20.4475 16.448 21.4376 16.3574 22.4805C16.2214 24.035 16.2921 25.6007 16.5676 27.1366C16.6984 28.167 16.9342 29.1814 17.2711 30.1639C17.4541 30.7401 17.7421 31.2776 18.1206 31.749C18.5322 32.2278 18.9614 32.2891 19.4897 31.9242C19.8849 31.6182 20.2271 31.2493 20.5027 30.8324C21.069 30.0734 21.5711 29.2677 22.301 28.6459C22.7651 28.1932 23.3499 27.884 23.9854 27.7555C24.2279 27.7132 24.4777 27.7465 24.7007 27.8509C24.9237 27.9554 25.1091 28.1259 25.2319 28.3394C25.5239 28.8446 25.6976 29.4096 25.7398 29.9917C25.7778 30.3624 25.8274 30.7331 25.8916 31.171Z" fill="#E3CC20"/>
<path d="M42.885 37.3599C49.0913 37.2607 54.5794 42.419 54.5619 49.0369C54.5619 51.3464 53.8771 53.604 52.594 55.5242C51.3109 57.4445 49.4872 58.9412 47.3535 59.825C45.2199 60.7088 42.872 60.94 40.6069 60.4895C38.3418 60.0389 36.2612 58.9268 34.6281 57.2937C32.9951 55.6607 31.8829 53.58 31.4324 51.3149C30.9818 49.0498 31.2131 46.702 32.0969 44.5683C32.9807 42.4346 34.4773 40.6109 36.3976 39.3278C38.3179 38.0448 40.5755 37.3599 42.885 37.3599ZM46.68 50.3593H50.475C50.6596 50.3724 50.845 50.3724 51.0296 50.3593C51.1344 50.3386 51.2288 50.2821 51.2966 50.1996C51.3644 50.1171 51.4014 50.0136 51.4014 49.9068C51.4014 49.8 51.3644 49.6965 51.2966 49.614C51.2288 49.5315 51.1344 49.475 51.0296 49.4543C50.882 49.4427 50.7336 49.4427 50.5859 49.4543H42.9959C42.4763 49.4543 42.4588 49.4368 42.4588 48.9084C42.4588 47.4984 42.4588 46.0914 42.4588 44.6814C42.4588 44.4099 42.4588 44.1384 42.4588 43.8669C42.4627 43.8042 42.4532 43.7413 42.4307 43.6826C42.4082 43.6239 42.3733 43.5707 42.3285 43.5266C42.2836 43.4826 42.2298 43.4487 42.1707 43.4274C42.1115 43.406 42.0485 43.3976 41.9858 43.4027C41.866 43.405 41.7518 43.4538 41.6674 43.5388C41.5829 43.6238 41.5349 43.7383 41.5334 43.8581C41.5334 43.9808 41.5334 44.1063 41.5334 44.2289V49.0486C41.5531 49.2826 41.516 49.5179 41.4253 49.7346C41.3775 49.8238 41.363 49.9271 41.3844 50.0261C41.4058 50.125 41.4617 50.2131 41.5421 50.2746C41.7114 50.4118 41.8807 50.5987 42.126 50.4877C42.3585 50.4038 42.6064 50.371 42.8529 50.3914L46.68 50.3593Z" fill="#E3CC20"/>
<path d="M6.00278 33.7576C6.00278 28.789 6.00278 23.8263 6.00278 18.8695C5.97381 16.8525 6.72876 14.9031 8.10861 13.4318C9.48846 11.9604 11.3855 11.0821 13.4001 10.9817C14.2058 10.9321 14.7546 11.2532 14.9765 11.91C15.0604 12.1732 15.055 12.4567 14.961 12.7165C14.867 12.9763 14.6898 13.1977 14.4569 13.3463C14.1037 13.5827 13.695 13.5681 13.2892 13.6119C10.4809 13.9389 8.57754 16.0495 8.57463 18.9132C8.57463 28.8387 8.57463 38.7572 8.57463 48.669C8.57463 51.7488 10.802 53.9704 13.8847 53.9879L28.7728 54.055C29.0306 54.0366 29.2882 54.0939 29.5138 54.2199C29.7394 54.346 29.9232 54.5352 30.0427 54.7644C30.1568 54.9635 30.2114 55.1912 30.2 55.4204C30.1886 55.6496 30.1117 55.8708 29.9785 56.0576C29.8909 56.2155 29.7645 56.3485 29.6113 56.444C29.4581 56.5395 29.283 56.5944 29.1027 56.6035C26.9425 56.5772 14.4832 56.7641 12.3434 56.4254C8.72934 55.862 6.01153 52.5896 6.0057 48.9493C5.99791 43.8834 5.99694 38.8195 6.00278 33.7576Z" fill="#E3CC20"/>
<path d="M53.7559 20.6472C53.7559 21.4616 53.7559 36.4578 53.7559 37.2868C53.7559 38.1159 53.2654 38.653 52.5006 38.6618C51.7358 38.6705 51.1986 38.148 51.1899 37.2722C51.1899 35.833 51.1899 20.2122 51.1899 18.773C51.1918 17.4888 50.7138 16.2503 49.8497 15.3003C48.9856 14.3503 47.7977 13.7575 46.5191 13.6381C46.2943 13.6177 46.0695 13.5826 45.8447 13.5505C45.5371 13.5217 45.2506 13.3815 45.0391 13.1562C44.8276 12.931 44.7057 12.6362 44.6964 12.3273C44.6871 12.0185 44.7909 11.7168 44.9884 11.4792C45.1859 11.2416 45.4635 11.0843 45.7688 11.037C46.5103 10.8998 47.2431 11.0838 47.9524 11.2647C49.6088 11.6926 51.0766 12.6571 52.1266 14.0077C53.1766 15.3582 53.7496 17.0186 53.7559 18.7292C53.7588 19.3569 53.7559 20.002 53.7559 20.6472Z" fill="#E3CC20"/>
<path d="M21.6501 37.3628H26.3209C27.2317 37.3628 27.8127 37.8591 27.8243 38.6239C27.836 39.3887 27.258 39.9288 26.3647 39.9317C23.2197 39.9317 20.0767 39.9317 16.9356 39.9317C16.6685 39.9507 16.4019 39.889 16.1703 39.7547C15.9387 39.6205 15.7528 39.4197 15.6365 39.1786C15.5302 38.979 15.4831 38.7532 15.5007 38.5277C15.5182 38.3022 15.5998 38.0865 15.7358 37.9058C15.8707 37.7215 16.0511 37.5755 16.2593 37.4818C16.4676 37.3882 16.6966 37.3502 16.9239 37.3716C18.5061 37.3686 20.0767 37.3628 21.6501 37.3628Z" fill="#E3CC20"/>
<path d="M18.7773 46.0126C18.0008 45.96 17.2593 46.0855 16.5295 45.9279C16.2344 45.8803 15.9658 45.7291 15.772 45.5015C15.5781 45.2739 15.4717 44.9847 15.4717 44.6858C15.4717 44.3868 15.5781 44.0976 15.772 43.87C15.9658 43.6424 16.2344 43.4912 16.5295 43.4436C16.6756 43.4054 16.8253 43.3829 16.9762 43.3765C18.1701 43.3765 19.3612 43.3765 20.5551 43.3765C20.7546 43.367 20.9539 43.3969 21.1417 43.4645C21.3296 43.5321 21.5023 43.6361 21.6499 43.7706C21.8153 43.9296 21.9337 44.1312 21.9919 44.3532C22.0501 44.5752 22.0459 44.809 21.9797 45.0288C21.9262 45.2499 21.8093 45.4505 21.6434 45.6061C21.4774 45.7617 21.2697 45.8654 21.0456 45.9045C20.2924 46.0943 19.51 45.9483 18.7773 46.0126Z" fill="#E3CC20"/>
<path d="M20.5904 13.536C19.9277 13.536 19.2621 13.536 18.5995 13.536C18.3128 13.5449 18.0326 13.4495 17.8109 13.2675C17.5892 13.0855 17.441 12.8293 17.3938 12.5464C17.327 12.2371 17.3783 11.914 17.5377 11.6406C17.697 11.3673 17.9529 11.1634 18.255 11.0692C18.3075 11.0474 18.3624 11.0317 18.4185 11.0225C19.8909 10.9081 21.3703 10.9179 22.8411 11.0517C23.0502 11.0786 23.2488 11.1591 23.4177 11.2854C23.5865 11.4117 23.7198 11.5794 23.8047 11.7724C23.8896 11.9654 23.9232 12.177 23.9021 12.3868C23.8811 12.5966 23.8063 12.7974 23.6848 12.9697C23.5793 13.1527 23.426 13.3037 23.2415 13.4065C23.0569 13.5093 22.8479 13.5601 22.6368 13.5535L20.5904 13.536Z" fill="#E3CC20"/>
<path d="M28.6855 13.5156C28.0024 13.5156 27.3222 13.5156 26.642 13.5156C26.3332 13.52 26.0335 13.4114 25.7991 13.2104C25.5648 13.0093 25.4119 12.7296 25.3692 12.4238C25.3379 12.12 25.4135 11.8147 25.5829 11.5606C25.7524 11.3065 26.005 11.1193 26.2975 11.0313C26.3861 10.9989 26.4782 10.9773 26.5719 10.9671C27.9352 10.9671 29.3014 10.9467 30.6589 10.9671C30.8889 10.97 31.1134 11.0383 31.3062 11.1639C31.499 11.2895 31.6521 11.4672 31.7477 11.6765C31.8473 11.8609 31.8984 12.0675 31.8963 12.2771C31.8941 12.4866 31.8389 12.6922 31.7356 12.8745C31.6323 13.0568 31.4844 13.21 31.3058 13.3195C31.1272 13.4291 30.9237 13.4915 30.7143 13.501C30.0312 13.5331 29.3481 13.501 28.6709 13.501L28.6855 13.5156Z" fill="#E3CC20"/>
</g>
<defs>
<clipPath id="clip0_12609_1027">
<rect width="60.8091" height="60.8091" fill="white" transform="translate(0.269531 0.269653)"/>
</clipPath>
</defs>
</svg>
