<svg width="61" height="62" viewBox="0 0 61 62" fill="none" xmlns="http://www.w3.org/2000/svg">
<g clip-path="url(#clip0_30392_74950)">
<path d="M5.05517 29.6403C5.05517 22.8021 5.05517 15.9643 5.05517 9.12693C5.05517 8.26435 5.09383 7.40177 5.4592 6.59218C6.44432 4.42095 8.24746 3.63476 10.5407 3.64462C15.4239 3.65818 20.3083 3.64462 25.1915 3.64462C30.7182 3.64462 36.2465 3.64462 41.7764 3.64462C42.5645 3.64462 43.3539 3.6668 44.1158 3.92065C46.076 4.57498 47.3667 6.3063 47.3679 8.34815C47.3737 16.6034 47.3779 24.8596 47.3804 33.1165C47.3804 33.6476 47.2557 33.8559 46.6646 33.9002C45.002 34.0064 43.3741 34.4189 41.865 35.1165C41.4759 35.3001 41.0656 35.3136 40.6479 35.3136C36.9069 35.3136 33.166 35.3157 29.425 35.3198C29.107 35.3198 28.5796 35.1571 28.5671 35.6549C28.5534 36.2181 29.1108 36.0357 29.44 36.0369C32.5363 36.0517 35.6325 36.0468 38.7288 36.0468C38.8946 36.0468 39.0617 36.0468 39.2276 36.0468C39.3697 36.0542 39.558 36.0222 39.6204 36.17C39.7089 36.377 39.4857 36.4411 39.371 36.5286C37.9607 37.5531 36.7537 38.826 35.8108 40.2833C35.7301 40.4263 35.6098 40.5435 35.464 40.6214C35.3183 40.6993 35.1531 40.7346 34.9878 40.7232C34.4067 40.7146 33.8244 40.7232 33.2421 40.7232C27.0287 40.7232 20.8154 40.7265 14.6021 40.7331C14.2542 40.7331 13.6544 40.5298 13.6631 41.1028C13.6706 41.5957 14.243 41.4416 14.5859 41.4429C20.9871 41.4519 27.3883 41.4519 33.7895 41.4429C33.9765 41.4429 34.1636 41.4429 34.3506 41.4429C35.0165 41.4589 35.0627 41.523 34.7958 42.1083C34.3006 43.1565 33.96 44.2694 33.7845 45.4132C33.7122 45.9258 33.4939 46.0897 32.9752 46.0872C29.2342 46.0687 25.4933 46.0761 21.7523 46.0786C21.5248 46.0719 21.2971 46.0876 21.0727 46.1254C20.9777 46.1357 20.8903 46.1815 20.8284 46.2535C20.7664 46.3254 20.7347 46.418 20.7398 46.5124C20.7535 46.728 20.9156 46.834 21.1201 46.8525C21.3246 46.8709 21.5341 46.8734 21.7436 46.8734H32.7171C33.5426 46.8734 33.5301 46.8734 33.5351 47.6805C33.5526 50.3003 34.1947 52.7537 35.5664 55.0112C35.948 55.6385 35.9206 55.6803 35.2023 55.6803C26.7453 55.6803 18.2878 55.6803 9.82988 55.6803C7.01668 55.6803 5.06515 53.535 5.06141 50.4654C5.04977 43.5229 5.04769 36.5812 5.05517 29.6403ZM26.2801 7.09001H24.7226C20.943 7.09001 17.1634 7.08385 13.3838 7.09001C12.0321 7.09001 11.3225 7.81828 11.3113 9.15651C11.3026 10.2236 11.2976 11.2908 11.3113 12.3604C11.33 13.3659 11.8724 14.0116 12.8675 14.2346C13.1311 14.2895 13.4 14.3155 13.6694 14.3123C22.0591 14.3123 30.4484 14.3123 38.8373 14.3123C38.9208 14.3123 39.0031 14.3123 39.0867 14.3123C40.3835 14.2605 41.1617 13.478 41.1741 12.1977C41.1829 11.2735 41.1741 10.3493 41.1741 9.4276C41.1741 7.74804 40.5057 7.08632 38.7936 7.08632C34.6245 7.08878 30.4534 7.09001 26.2801 7.09001ZM30.1907 19.8648C34.4479 19.8648 38.7055 19.8628 42.9636 19.8587C43.3239 19.8587 43.8913 20.0164 43.8813 19.436C43.8714 18.8815 43.3115 19.086 42.9835 19.0848C34.4899 19.0741 25.9958 19.0712 17.5013 19.0762H17.0649C16.8217 19.0762 16.5873 19.1218 16.5661 19.4175C16.5424 19.7404 16.7681 19.8389 17.0462 19.8537C17.232 19.8648 17.4203 19.8611 17.6061 19.8611L30.1907 19.8648ZM18.3356 52.2855C21.3483 52.2855 24.3614 52.2855 27.375 52.2855C27.6718 52.2855 28.082 52.3656 28.0783 51.9022C28.0783 51.4636 27.6842 51.5116 27.3762 51.4993C27.3139 51.4993 27.2515 51.4993 27.1892 51.4993H9.48197C9.31556 51.4949 9.14903 51.4999 8.98318 51.5141C8.75373 51.54 8.58414 51.6546 8.58165 51.9035C8.57916 52.1524 8.74376 52.2732 8.98193 52.2732C9.16898 52.283 9.35603 52.2842 9.54308 52.2842L18.3356 52.2855ZM17.0237 25.2843C19.5593 25.2843 22.0948 25.2843 24.6304 25.2843C24.9895 25.2843 25.5207 25.3779 25.5207 24.8752C25.5207 24.3404 24.9683 24.4993 24.6291 24.4981C19.5805 24.4882 14.5319 24.4862 9.48322 24.4919C9.31737 24.4919 9.15028 24.4919 8.98443 24.5043C8.7475 24.519 8.5804 24.6275 8.58414 24.8813C8.58789 25.1352 8.75997 25.2448 8.98567 25.2707C9.17226 25.2865 9.35961 25.2919 9.54682 25.2867L17.0237 25.2843ZM36.4418 24.4882C34.2646 24.4882 32.0861 24.4808 29.9076 24.4944C29.5672 24.4944 29.011 24.3305 28.9898 24.8407C28.9686 25.3927 29.5323 25.2793 29.9039 25.2793C34.2808 25.2867 38.6577 25.2867 43.0346 25.2793C43.2206 25.2869 43.4068 25.2732 43.5895 25.2387C43.6839 25.2246 43.7693 25.1754 43.8282 25.1012C43.887 25.027 43.915 24.9334 43.9063 24.8394C43.8951 24.6127 43.7429 24.5166 43.5322 24.5006C43.3464 24.487 43.1581 24.4858 42.9723 24.4858L36.4418 24.4882ZM17.2794 35.3148C14.7044 35.3148 12.1293 35.3062 9.5543 35.3247C9.21138 35.3247 8.61033 35.1041 8.6228 35.7018C8.63402 36.2169 9.2014 36.0394 9.53684 36.0406C14.6453 36.0513 19.7542 36.0538 24.8636 36.048C25.0294 36.048 25.1965 36.048 25.3623 36.0382C25.6055 36.0209 25.8362 35.9618 25.8237 35.6574C25.8113 35.3925 25.598 35.3395 25.3798 35.3247C25.1928 35.3136 25.0057 35.3148 24.8187 35.3148H17.2794ZM27.38 29.904C25.2227 29.904 23.0654 29.8966 20.9081 29.9126C20.5714 29.9126 20.0115 29.7364 20.0028 30.2626C19.9941 30.7888 20.559 30.6249 20.8907 30.6249C25.2052 30.6384 29.5198 30.6335 33.8344 30.6335C34.0212 30.6358 34.2081 30.6288 34.3943 30.6126C34.595 30.5941 34.7684 30.5054 34.7684 30.2811C34.7684 30.0568 34.61 29.9533 34.408 29.9287C34.2224 29.9098 34.0359 29.9019 33.8493 29.9052L27.38 29.904ZM13.3239 46.8746H15.6932C16.3379 46.8746 16.9826 46.8746 17.626 46.866C17.8455 46.866 18.0587 46.8118 18.0874 46.5506C18.1186 46.2659 17.9128 46.1562 17.6747 46.102C17.5723 46.0835 17.4682 46.076 17.3642 46.0798C14.6632 46.0798 11.9614 46.0798 9.25876 46.0798C8.96697 46.0798 8.61033 46.0675 8.59163 46.4594C8.57043 46.9252 8.96572 46.8685 9.27123 46.8709C10.6217 46.8771 11.9759 46.8734 13.3239 46.8746ZM13.5347 29.904C12.0607 29.904 10.5868 29.904 9.11287 29.904C8.87968 29.904 8.61407 29.9237 8.59786 30.2244C8.57292 30.5657 8.84726 30.6027 9.10539 30.6212C9.20888 30.6286 9.31363 30.6273 9.41713 30.6273H17.636C17.8027 30.6308 17.9695 30.6217 18.1348 30.6002C18.3406 30.5707 18.484 30.4598 18.4703 30.2306C18.4673 30.1471 18.4315 30.0681 18.3705 30.0103C18.3095 29.9525 18.2281 29.9206 18.1435 29.9213C17.9778 29.9046 17.8113 29.8972 17.6447 29.8991L13.5347 29.904ZM40.4446 29.904C39.4707 29.904 38.4969 29.904 37.523 29.904C37.2611 29.904 36.9219 29.867 36.9119 30.249C36.902 30.631 37.2362 30.6187 37.5018 30.6187C39.4296 30.6236 41.3566 30.6236 43.2828 30.6187C43.5459 30.6187 43.8901 30.6384 43.8926 30.2651C43.8926 29.8375 43.5185 29.9015 43.2429 29.8954C42.3101 29.8991 41.3774 29.9052 40.4446 29.9052V29.904ZM11.2914 19.0774C10.5656 19.0774 9.84111 19.0774 9.11661 19.0774C8.85225 19.0774 8.58913 19.1144 8.58539 19.4471C8.58165 19.7798 8.82357 19.8525 9.09541 19.8537C10.5028 19.8537 11.9111 19.8537 13.3202 19.8537C13.5933 19.8537 13.8402 19.7662 13.8514 19.4594C13.8651 19.0749 13.5559 19.0737 13.2803 19.0725C12.6169 19.0737 11.9535 19.0762 11.2914 19.0774ZM9.57675 41.47V41.4453C9.78499 41.4453 9.99199 41.4564 10.2002 41.4453C10.4334 41.4293 10.6055 41.3122 10.5918 41.0621C10.5793 40.8366 10.3948 40.7565 10.1953 40.7516C9.78125 40.7429 9.366 40.7417 8.94826 40.7577C8.90093 40.7542 8.85337 40.7606 8.80875 40.7766C8.76413 40.7926 8.72348 40.8179 8.6895 40.8506C8.65552 40.8834 8.62899 40.9229 8.61169 40.9666C8.59438 41.0103 8.58669 41.0571 8.58913 41.104C8.58644 41.1454 8.59221 41.187 8.6061 41.2261C8.61999 41.2653 8.64173 41.3013 8.67 41.332C8.69828 41.3627 8.73252 41.3875 8.77068 41.4048C8.80885 41.4222 8.85016 41.4318 8.89215 41.433C9.12035 41.4539 9.34979 41.4552 9.57675 41.47Z" fill="#4F7D12"/>
<path d="M60.9983 47.7888C61.0607 54.8706 55.1375 60.8507 48.0908 60.9974C40.7934 61.1563 34.4637 55.5483 34.3415 47.9995C34.2255 40.7884 40.1637 34.7799 47.2865 34.6357C54.7135 34.4841 60.9896 40.3164 60.9983 47.7888ZM57.8023 47.827C57.8117 46.5098 57.5566 45.2039 57.0518 43.9848C56.547 42.7657 55.8024 41.6577 54.8613 40.7249C53.9201 39.7922 52.8011 39.0531 51.5689 38.5507C50.3368 38.0482 49.016 37.7923 47.683 37.7977C42.0791 37.7977 37.5276 42.2498 37.5163 47.7457C37.5054 50.404 38.5636 52.9577 40.4581 54.845C42.3525 56.7324 44.9281 57.7987 47.6182 57.8095C50.3083 57.8203 52.8925 56.7746 54.8024 54.9025C56.7123 53.0305 57.7914 50.4853 57.8023 47.827Z" fill="#4F7D12"/>
<path d="M35.1462 56.6661C34.1486 56.851 33.1635 57.0358 32.1709 57.2206C26.3416 58.2886 20.5111 59.3565 14.6794 60.4245C12.4647 60.8238 10.0755 59.3155 9.44204 57.1763C9.26123 56.5601 9.31734 56.4727 9.92587 56.4727C18.1884 56.4727 26.4509 56.4727 34.7135 56.4727C34.8531 56.4727 34.994 56.4948 35.135 56.5072L35.1462 56.6661Z" fill="#4F7D12"/>
<path d="M4.13639 29.1184C3.91318 27.9613 3.71616 26.9644 3.52911 25.9675C2.71608 21.6349 1.90387 17.3027 1.0925 12.9709C0.669773 10.7282 1.72348 8.57294 3.68997 7.67956C4.07779 7.50334 4.33467 7.41955 4.33342 8.02828C4.31596 14.7958 4.30806 21.5671 4.30973 28.342C4.34536 28.6129 4.28404 28.8875 4.13639 29.1184Z" fill="#4F7D12"/>
<path d="M29.7051 2.81658C30.578 2.4962 31.3648 2.42842 32.1242 2.28302C34.3202 1.86035 36.5186 1.45247 38.7233 1.0791C40.3668 0.799379 41.7996 1.26394 42.9855 2.43458C43.0852 2.53193 43.2349 2.63051 43.195 2.78701C43.1439 2.97061 42.9568 2.91023 42.8209 2.91023C38.547 2.91023 34.2745 2.90777 30.0031 2.90284C29.9018 2.88114 29.8022 2.85232 29.7051 2.81658Z" fill="#4F7D12"/>
<path d="M48.3789 26.7656C48.5144 27.4836 48.6503 28.2016 48.7866 28.9196C49.0635 30.3872 49.3266 31.8561 49.6196 33.32C49.7244 33.8474 49.6059 34.0372 49.0286 33.9361C48.1794 33.7809 48.1731 33.8129 48.1719 32.9589C48.1719 31.0966 48.1719 29.2342 48.1719 27.3719C48.1719 27.1723 48.1893 26.9726 48.1981 26.773L48.3789 26.7656Z" fill="#4F7D12"/>
<path d="M26.192 13.5209H13.787C12.4602 13.5209 12.1173 13.1832 12.1161 11.8943C12.1161 10.9898 12.1098 10.0866 12.1161 9.18333C12.1248 8.30843 12.5064 7.90671 13.3842 7.83524C13.57 7.81922 13.7583 7.82538 13.9441 7.82538C22.1111 7.82538 30.2772 7.82538 38.4424 7.82538C38.7534 7.81944 39.0643 7.84088 39.3714 7.88946C40.0224 8.01269 40.3628 8.38236 40.3753 9.03176C40.3965 10.1198 40.399 11.2079 40.3753 12.296C40.359 13.0736 39.8914 13.4938 39.031 13.5122C37.9935 13.5344 36.9535 13.5196 35.9135 13.5209H26.192Z" fill="#4F7D12"/>
<path d="M56.9658 46.8399C57.0344 47.2872 56.8175 47.4449 56.3972 47.4228C56.1092 47.4067 55.8012 47.461 55.7862 47.7924C55.77 48.1942 56.1179 48.2077 56.4097 48.1978C56.7975 48.1843 57.0033 48.3211 56.9609 48.7314C56.7843 50.5625 56.049 52.2973 54.8522 53.706C54.644 53.9525 54.4469 53.9525 54.2287 53.7196C54.158 53.6442 54.0813 53.5745 53.9993 53.5113C53.8085 53.3598 53.6015 53.2538 53.3957 53.4756C53.3538 53.5161 53.3217 53.5654 53.302 53.62C53.2822 53.6745 53.2752 53.7327 53.2816 53.7903C53.288 53.8479 53.3075 53.9033 53.3387 53.9523C53.3699 54.0013 53.412 54.0427 53.4618 54.0732C54.109 54.5588 53.7511 54.8434 53.2972 55.1823C51.9756 56.1505 50.4281 56.7735 48.7981 56.9937C48.3267 57.0639 48.0175 56.9814 48.0499 56.417C48.0649 56.141 48.0137 55.8267 47.6558 55.8354C47.298 55.844 47.2431 56.1521 47.2581 56.4293C47.2817 56.884 47.1084 57.0664 46.6346 57.0023C44.8733 56.7824 43.2066 56.0903 41.815 55.0011C41.482 54.7399 41.4035 54.5292 41.7551 54.2248C41.9758 54.0338 42.199 53.7763 41.9284 53.4855C41.6304 53.1688 41.386 53.4423 41.2077 53.6555C40.876 54.0523 40.659 53.9217 40.3872 53.5816C39.2655 52.1937 38.5677 50.5184 38.3758 48.7524C38.3271 48.3346 38.4843 48.1892 38.8833 48.1954C39.1701 48.1954 39.5355 48.2287 39.5342 47.8158C39.5342 47.424 39.1876 47.408 38.8883 47.4154C38.493 47.4252 38.3259 47.2921 38.3758 46.8645C38.5673 45.0986 39.2646 43.4233 40.3859 42.0353C40.6578 41.6965 40.8722 41.5609 41.2052 41.9602C41.3847 42.1746 41.6304 42.4432 41.9272 42.129C42.199 41.8419 41.9733 41.5868 41.7551 41.3896C41.4533 41.121 41.4483 40.9189 41.7763 40.6503C43.2178 39.4883 44.8726 38.8401 46.7056 38.6072C47.061 38.5616 47.2705 38.6737 47.2493 39.0668C47.2403 39.1912 47.2525 39.3162 47.2855 39.4365C47.3391 39.6189 47.4401 39.7889 47.6596 39.7852C47.8791 39.7815 47.9751 39.6275 48.0337 39.4316C48.2831 38.5468 48.2831 38.5444 49.2408 38.7021C50.8048 38.97 52.2749 39.6245 53.5142 40.6047C53.8621 40.8721 53.9781 41.0976 53.589 41.4254C53.367 41.6127 53.1301 41.8677 53.4207 42.1536C53.7112 42.4395 53.9519 42.1721 54.1576 41.9774C54.3896 41.7581 54.5866 41.593 54.8672 41.9294C56.0403 43.3266 56.7703 45.0347 56.9658 46.8399ZM47.2481 44.5824C47.2481 45.5054 47.2618 46.4308 47.2418 47.3501C47.2315 47.5438 47.2663 47.7372 47.3435 47.9156C47.4207 48.094 47.5382 48.2525 47.687 48.379C48.5686 49.1874 49.4328 50.0154 50.3057 50.8336C50.5301 51.0444 50.7858 51.3438 51.095 51.0456C51.4691 50.6907 51.0614 50.4578 50.8456 50.2471C50.1049 49.5299 49.3592 48.8164 48.5873 48.1325C48.4058 47.9834 48.2622 47.7941 48.1682 47.5801C48.0742 47.3661 48.0324 47.1332 48.0462 46.9003C48.0736 45.1985 48.0586 43.4968 48.0536 41.795C48.0536 41.4931 48.096 41.0902 47.6521 41.105C47.2369 41.1185 47.2531 41.5079 47.2518 41.8172C47.2456 42.7377 47.2481 43.6607 47.2481 44.5824Z" fill="#4F7D12"/>
</g>
<defs>
<clipPath id="clip0_30392_74950">
<rect width="60.8091" height="60.8171" fill="white" transform="translate(0.166016 0.316406)"/>
</clipPath>
</defs>
</svg>
