<svg width="62" height="61" viewBox="0 0 62 61" fill="none" xmlns="http://www.w3.org/2000/svg">
<g clip-path="url(#clip0_18721_325)">
<path d="M48.818 14.027C48.818 15.4827 48.8444 16.9385 48.8061 18.3943C48.7889 19.0004 48.9582 19.2717 49.5842 19.4318C52.6678 20.2259 54.7456 22.6742 54.8567 25.8531C54.9441 28.4576 53.8351 30.5711 51.5826 31.9673C49.3831 33.3304 47.0935 33.4072 44.7815 32.232C42.0288 30.8265 40.7319 27.7959 41.1117 25.1212C41.4941 22.4201 43.5627 20.1319 46.4054 19.4067C46.9202 19.2744 47.0816 19.0547 47.079 18.5518C47.0631 15.5741 47.079 12.5964 47.0671 9.61997C47.0671 8.63667 46.6872 8.27141 45.6894 8.26744C43.4396 8.2595 41.1898 8.26746 38.9399 8.25688C38.4926 8.25688 38.2928 8.37731 38.1895 8.85242C37.4987 12.0167 35.5043 13.9251 32.3969 14.6913C31.9126 14.8104 31.7418 15.0063 31.7537 15.4854C31.7802 16.4766 31.7961 17.4705 31.7537 18.4618C31.7246 19.0705 31.9523 19.2849 32.5319 19.4252C33.485 19.6482 34.3795 20.072 35.1557 20.6682C35.932 21.2643 36.5721 22.0193 37.0334 22.8825C37.4947 23.7458 37.7666 24.6975 37.8309 25.6742C37.8951 26.6509 37.7503 27.63 37.4061 28.5462C36.8481 29.9875 35.8301 31.2045 34.51 32.0082C33.1898 32.812 31.6414 33.1576 30.1048 32.9916C27.1112 32.6542 24.6192 30.2257 24.1401 27.1778C23.8626 25.4717 24.2422 23.7239 25.2025 22.2866C26.1628 20.8494 27.6323 19.8297 29.3147 19.4332C29.9235 19.2849 30.1511 19.056 30.118 18.4221C30.0651 17.411 30.0929 16.3933 30.1087 15.3782C30.1087 14.9812 29.9896 14.8091 29.5794 14.7165C26.4032 13.9754 24.4021 12.0154 23.6584 8.82592C23.5552 8.38125 23.3513 8.25817 22.9384 8.25949C20.6449 8.27008 18.3501 8.2595 16.0566 8.27009C15.2388 8.27009 14.8034 8.68169 14.7981 9.47972C14.7809 12.5448 14.7981 15.6111 14.7822 18.6762C14.7822 19.1685 15.0389 19.2863 15.4439 19.3948C20.5761 20.7381 22.4779 26.4777 19.168 30.6042C17.1829 33.0869 13.3449 33.7804 10.583 32.1446C6.53593 29.7625 5.77893 24.7335 8.98029 21.2926C9.8857 20.3407 11.0589 19.6863 12.3444 19.4159C12.9267 19.2836 13.067 19.011 13.063 18.4644C13.0432 15.5979 13.0511 12.7314 13.0551 9.86217C13.0551 7.72749 14.2343 6.54039 16.3637 6.53113C18.4136 6.52186 20.4663 6.4967 22.5163 6.54699C23.2561 6.5642 23.575 6.38158 23.7537 5.60606C24.504 2.39411 27.4182 0.088698 30.7003 0.003999C34.0155 -0.0820235 37.0329 2.03015 37.9791 5.0952C38.4198 6.52847 38.4198 6.52848 39.9285 6.5298C41.7813 6.5298 43.6341 6.5298 45.4869 6.5298C47.6203 6.53907 48.8074 7.73278 48.8127 9.85952C48.8206 11.2491 48.818 12.6387 48.818 14.027ZM11.6298 23.2089C11.3651 23.2089 11.1441 23.2817 11.0329 23.5371C10.9764 23.6585 10.9597 23.7948 10.9854 23.9262C11.0111 24.0577 11.0778 24.1777 11.1759 24.269C11.6523 24.7586 12.1247 25.2536 12.6171 25.7247C12.9003 25.9974 12.9175 26.217 12.6171 26.4949C12.1512 26.933 11.7105 27.3975 11.2605 27.8501C10.9641 28.1492 10.8212 28.492 11.1348 28.8414C11.4842 29.2278 11.8482 29.0822 12.1684 28.7699C12.6091 28.3372 13.0551 27.9097 13.4746 27.4584C13.787 27.1209 14.0424 27.1315 14.3507 27.4584C14.7557 27.8938 15.1911 28.3014 15.6159 28.7183C15.9203 29.0174 16.2631 29.2477 16.6482 28.8811C17.0611 28.484 16.8256 28.1135 16.5159 27.7906C16.1188 27.3763 15.7218 26.9608 15.293 26.5836C14.896 26.2289 14.9344 25.9523 15.3102 25.6149C15.7364 25.2337 16.1268 24.8129 16.5318 24.4066C16.8375 24.0982 17.0532 23.7369 16.6773 23.3757C16.3293 23.0395 15.9428 23.1745 15.6186 23.4868C15.1607 23.9328 14.7001 24.3775 14.2608 24.8407C14.0053 25.1053 13.8015 25.1053 13.5474 24.8407C13.1411 24.4066 12.7137 23.991 12.2941 23.5702C12.1234 23.3862 11.9276 23.2076 11.6338 23.2089H11.6298ZM45.6854 23.2089C45.5644 23.1906 45.4407 23.2111 45.3321 23.2675C45.2234 23.3238 45.1354 23.4131 45.0806 23.5225C45.0172 23.6407 44.9949 23.7766 45.0172 23.9089C45.0395 24.0411 45.1051 24.1622 45.2037 24.2531C45.6007 24.6726 45.9977 25.0762 46.404 25.4825C47.0313 26.1151 47.0327 26.1125 46.3815 26.7623C46.0083 27.1355 45.6272 27.5034 45.2672 27.8898C44.9867 28.1916 44.853 28.5423 45.2011 28.8797C45.5491 29.2172 45.8892 29.0663 46.187 28.7792C46.5681 28.4113 46.9387 28.0341 47.3132 27.6622C47.9472 27.0309 47.9471 27.0309 48.6022 27.6834C48.9146 27.9944 49.2256 28.3067 49.5392 28.6098C49.878 28.9446 50.2512 29.331 50.7065 28.8427C51.1617 28.3543 50.7674 28.001 50.4272 27.6649C50.1149 27.3538 49.8013 27.0442 49.4903 26.7385C48.8643 26.1138 48.8643 26.1125 49.4664 25.5063L50.5411 24.4304C50.8441 24.1274 51.0823 23.7687 50.7237 23.3995C50.365 23.0302 49.9601 23.1877 49.6252 23.5186C49.1872 23.9526 48.7399 24.3775 48.3204 24.8288C48.0411 25.1292 47.828 25.1067 47.5594 24.8168C47.1557 24.3814 46.7256 23.9698 46.3048 23.549C46.1354 23.3783 45.9554 23.2155 45.6894 23.2102L45.6854 23.2089ZM30.0995 10.1613C30.4383 10.152 30.6169 9.95615 30.7784 9.7444C31.7418 8.48627 32.7044 7.22769 33.6661 5.96867C33.9453 5.60341 34.12 5.21034 33.7045 4.8636C33.2651 4.49569 32.9223 4.80271 32.6457 5.15077C32.0634 5.89586 31.5049 6.6608 30.9253 7.40059C30.122 8.41963 30.1154 8.41566 29.0871 7.66528C29.0532 7.63692 29.0179 7.61044 28.9812 7.58589C28.6649 7.40591 28.3406 7.36221 28.0852 7.66395C27.8298 7.96569 27.8801 8.29128 28.1567 8.55067C28.6861 9.04563 29.2313 9.52603 29.7792 10.0064C29.8791 10.074 29.9883 10.1266 30.1034 10.1626L30.0995 10.1613ZM33.9374 24.0413C33.9404 23.9691 33.9291 23.897 33.904 23.8292C33.879 23.7614 33.8407 23.6992 33.7915 23.6463C33.7423 23.5934 33.683 23.5507 33.6172 23.5209C33.5514 23.491 33.4803 23.4745 33.408 23.4723C33.0269 23.4193 32.786 23.6324 32.5782 23.9063C32.0065 24.6594 31.4401 25.4163 30.8657 26.1681C30.0889 27.1844 30.0836 27.1858 29.1188 26.3891C28.7972 26.1244 28.4465 25.9841 28.121 26.3097C27.7729 26.6591 27.8854 27.0389 28.2215 27.3472C28.6265 27.7191 29.0368 28.0857 29.4603 28.4364C30.1008 28.9658 30.3761 28.9473 30.875 28.3041C31.8318 27.0706 32.7662 25.8213 33.7124 24.5786C33.8511 24.4336 33.9325 24.2431 33.9414 24.0426L33.9374 24.0413Z" fill="#808080"/>
<path d="M13.9166 42.8127C12.1525 42.8127 10.3884 42.8246 8.62291 42.8061C8.03531 42.8061 7.77592 43.0139 7.78519 43.6174C7.80636 44.9183 7.80901 46.2205 7.78519 47.5214C7.77592 47.9966 7.98502 48.1501 8.41249 48.2692C10.7946 48.9309 12.3179 50.5045 12.7718 52.9223C13.2178 55.3045 12.4211 57.3254 10.4664 58.8089C9.51199 59.5194 8.36414 59.923 7.17506 59.9663C5.98598 60.0095 4.81184 59.6904 3.8083 59.0511C1.712 57.7065 0.771046 55.7214 1.04896 53.228C1.30438 50.9306 3.10954 48.8674 5.36994 48.2996C5.98533 48.1448 6.1812 47.9026 6.15606 47.2819C6.10709 45.9823 6.13752 44.6801 6.14282 43.3791C6.14282 41.9101 6.91305 41.1531 8.39263 41.1465C9.69488 41.1465 10.9958 41.1227 12.2967 41.1558C12.8671 41.1703 13.0776 40.9943 13.067 40.4054C13.0352 38.7524 13.0551 37.0968 13.0564 35.4439C13.0564 34.3084 13.0564 34.3044 13.8981 34.3057C14.7702 34.3057 14.7808 34.3203 14.7821 35.4836C14.7821 37.0488 14.7821 38.6144 14.7821 40.1804C14.7821 41.1439 14.7821 41.1439 15.7178 41.1452C16.975 41.1452 18.2323 41.1452 19.4895 41.1452C20.9175 41.1452 21.7393 41.9392 21.779 43.395C21.8126 44.6946 21.8126 45.9956 21.779 47.2978C21.7632 47.8761 21.9326 48.1408 22.5255 48.3049C25.2027 49.05 27.0635 51.722 26.8385 54.4046C26.5897 57.3611 24.41 59.6043 21.4958 59.8994C18.3196 60.221 15.5748 58.1287 15.0111 54.9644C14.4817 52.0184 16.4298 49.0368 19.4088 48.2705C19.868 48.1527 20.0705 47.9807 20.0626 47.4764C20.0308 46.1768 20.0335 44.8746 20.0626 43.5737C20.0732 42.994 19.8376 42.7929 19.2778 42.7982C17.4898 42.8246 15.7032 42.8127 13.9166 42.8127ZM22.5956 52.9223C22.5956 52.6643 22.5255 52.4446 22.27 52.3242C21.9511 52.1746 21.6944 52.3241 21.5078 52.5465C21.1015 53.0309 20.7455 53.0348 20.3339 52.5465C20.0864 52.2514 19.741 52.1256 19.4075 52.43C19.0316 52.7741 19.1229 53.1526 19.4525 53.4623C19.8495 53.8315 19.9421 54.1584 19.4909 54.5554C19.1587 54.8492 19.0144 55.2277 19.3678 55.5917C19.7727 56.0112 20.1393 55.7558 20.4265 55.4196C20.7706 55.0226 21.0631 55.0385 21.4006 55.4196C21.6652 55.728 22.0107 56.0324 22.4011 55.6287C22.7518 55.2661 22.6525 54.8347 22.3045 54.5184C21.9339 54.1782 21.873 53.8911 22.2912 53.5562C22.3884 53.4821 22.4666 53.386 22.5195 53.2758C22.5724 53.1657 22.5985 53.0445 22.5956 52.9223ZM8.83201 52.8879C8.84226 52.7663 8.81472 52.6444 8.75313 52.539C8.69155 52.4336 8.59893 52.3498 8.48793 52.299C8.20074 52.1666 7.95855 52.2686 7.78121 52.4856C7.43977 52.8826 7.10362 53.2968 6.78732 53.7203C6.5769 54.0022 6.3903 54.1849 6.0515 53.8831C5.75241 53.6184 5.43081 53.6661 5.18069 53.9678C4.93056 54.2696 4.98879 54.5872 5.24686 54.8598C5.47449 55.0994 5.718 55.323 5.95886 55.5493C6.38897 55.9463 6.77542 55.9014 7.13009 55.4368C7.59858 54.8241 8.07766 54.2206 8.5488 53.6105C8.72948 53.4131 8.83041 53.1556 8.83201 52.8879Z" fill="#808080"/>
<path d="M48.0265 42.8128C46.2623 42.8128 44.4969 42.8287 42.7328 42.8035C42.1412 42.7943 41.8911 42.9914 41.9043 43.5976C41.9308 44.876 41.9242 46.1557 41.9043 47.4355C41.8977 47.8987 42.0366 48.1329 42.5223 48.2679C44.886 48.9164 46.3761 50.4833 46.8737 52.8589C47.3634 55.1987 46.5852 57.2076 44.7219 58.6819C42.8585 60.1562 40.7053 60.3825 38.5547 59.386C36.4796 58.4252 35.2726 56.7233 35.1469 54.4086C34.9854 51.4031 36.78 49.0011 39.6809 48.2428C40.1336 48.125 40.291 47.9331 40.2831 47.4765C40.2619 46.0658 40.2699 44.6537 40.2831 43.2416C40.291 41.8917 41.0229 41.1585 42.3728 41.1479C43.6525 41.1386 44.9323 41.1479 46.2107 41.1479C47.0762 41.1479 47.0789 41.1479 47.0802 40.2507C47.0802 38.5527 47.0802 36.8547 47.0802 35.1568C47.0802 34.8815 46.9902 34.5163 47.3158 34.3905C47.733 34.2338 48.1929 34.2338 48.6101 34.3905C48.884 34.4924 48.8112 34.8048 48.8112 35.039C48.8112 36.8256 48.8337 38.6122 48.8112 40.3989C48.802 40.9719 48.978 41.177 49.5656 41.1612C50.9102 41.1254 52.2561 41.1453 53.6007 41.1506C55.0657 41.1572 55.832 41.9261 55.8413 43.4004C55.8505 44.7463 55.8585 46.0922 55.8413 47.4368C55.8333 47.9146 55.9961 48.125 56.4778 48.2507C59.2755 48.9813 61.2951 51.824 60.9603 54.4854C60.5632 57.6814 58.2009 59.881 55.0829 59.9683C52.141 60.0504 49.5457 57.7926 49.0918 54.7567C48.6736 51.959 50.6283 49.0077 53.4194 48.309C54.0401 48.1541 54.2307 47.8881 54.2135 47.2701C54.1671 46.1028 54.2029 44.9329 54.1989 43.7643C54.1989 42.875 54.134 42.8088 53.2725 42.8075C51.511 42.8088 49.7694 42.8128 48.0265 42.8128ZM53.3109 55.0465C53.3188 55.4051 53.4115 55.6156 53.6497 55.7453C53.7662 55.8136 53.9044 55.8348 54.036 55.8045C54.1676 55.7743 54.2827 55.6948 54.3577 55.5825C54.7759 55.0253 55.1517 54.9922 55.6083 55.5454C55.8307 55.8101 56.1562 55.9425 56.4752 55.6606C56.7941 55.3787 56.8365 54.9473 56.5308 54.6667C56.0133 54.1903 56.0861 53.825 56.5308 53.3671C56.8047 53.0878 56.8073 52.7173 56.4844 52.4288C56.1615 52.1403 55.8465 52.2223 55.6097 52.5055C55.161 53.0415 54.7812 53.0508 54.3524 52.4817C54.2693 52.3753 54.1504 52.3025 54.0178 52.277C53.8852 52.2514 53.7478 52.2748 53.6311 52.3428C53.381 52.4632 53.3109 52.6816 53.3069 52.9423C53.3069 53.4161 53.8654 53.604 53.8839 54.0129C53.9117 54.4523 53.2632 54.6349 53.3109 55.0465ZM42.9511 53.0031C42.9604 52.6498 42.8572 52.4195 42.5872 52.2938C42.3172 52.1681 42.0578 52.2753 41.8818 52.4883C41.5562 52.8735 41.236 53.2665 40.9475 53.6794C40.7053 54.0275 40.4882 54.1744 40.1111 53.8409C39.8583 53.6159 39.5671 53.6913 39.3448 53.9242C39.2865 53.976 39.2391 54.0389 39.2054 54.1093C39.1717 54.1796 39.1524 54.2559 39.1486 54.3338C39.1448 54.4117 39.1565 54.4896 39.1832 54.5629C39.2098 54.6362 39.2508 54.7034 39.3038 54.7606C39.5491 55.0417 39.8098 55.309 40.0846 55.5613C40.4578 55.9292 40.8336 55.9173 41.1552 55.5097C41.7124 54.803 42.2524 54.083 42.791 53.3605C42.8588 53.2483 42.9126 53.1283 42.9511 53.0031Z" fill="#808080"/>
</g>
<defs>
<clipPath id="clip0_18721_325">
<rect width="59.9894" height="60" fill="white" transform="translate(1)"/>
</clipPath>
</defs>
</svg>
